<svg width="171" height="239" viewBox="0 0 171 239" fill="none" xmlns="http://www.w3.org/2000/svg">
<path d="M159.852 0H10.6568C4.7712 0 0 4.7712 0 10.6568V228.055C0 233.941 4.7712 238.712 10.6568 238.712H159.852C165.737 238.712 170.508 233.941 170.508 228.055V10.6568C170.508 4.7712 165.737 0 159.852 0Z" fill="#F9F1DF"/>
<path d="M26.0338 40.8308C24.8829 43.7508 19.1069 44.8378 19.1069 49.3562C19.1254 50.0891 19.3595 50.8002 19.7799 51.4008C20.2002 52.0013 20.7882 52.4648 21.4704 52.7331C22.1526 53.0014 22.8986 53.0628 23.6155 52.9095C24.3324 52.7562 24.9882 52.3951 25.501 51.8712C25.4018 53.3151 24.8157 54.6827 23.8385 55.7503V56.2618H28.1012V55.7503C27.124 54.6827 26.538 53.3151 26.4388 51.8712C26.9516 52.3951 27.6074 52.7562 28.3243 52.9095C29.0412 53.0628 29.7872 53.0014 30.4694 52.7331C31.1516 52.4648 31.7396 52.0013 32.1599 51.4008C32.5803 50.8002 32.8144 50.0891 32.8329 49.3562C32.9608 44.8378 27.1848 43.7508 26.0338 40.8308Z" fill="#1F1F1F"/>
<path d="M145.39 194.8C146.541 191.88 152.317 190.793 152.317 186.274C152.298 185.541 152.064 184.83 151.644 184.23C151.224 183.629 150.636 183.166 149.953 182.897C149.271 182.629 148.525 182.568 147.808 182.721C147.091 182.874 146.436 183.235 145.923 183.759C146.022 182.315 146.608 180.948 147.585 179.88V179.369H143.323V179.88C144.3 180.948 144.886 182.315 144.985 183.759C144.472 183.235 143.816 182.874 143.1 182.721C142.383 182.568 141.637 182.629 140.954 182.897C140.272 183.166 139.684 183.629 139.264 184.23C138.844 184.83 138.609 185.541 138.591 186.274C138.463 190.793 144.239 191.88 145.39 194.8Z" fill="#1F1F1F"/>
<path d="M20.0019 17.5568V32.1353C19.9919 32.3148 20.0532 32.4909 20.1725 32.6255C20.2964 32.7563 20.4623 32.8393 20.6413 32.8599L23.1564 33.2649V34.6929H13.2456V33.2649L16.1228 32.8599C16.3129 32.8347 16.4912 32.753 16.6345 32.6255C16.7057 32.566 16.7619 32.4907 16.7989 32.4056C16.8359 32.3205 16.8526 32.2279 16.8475 32.1353V20.6473L16.1442 20.8391L15.2277 21.0522L14.2686 21.2227H13.4161L13.1177 19.7095C13.5964 19.593 14.0663 19.4434 14.5243 19.2619C15.0145 19.0914 15.4835 18.8782 15.9524 18.6651C16.4213 18.452 16.8476 18.1962 17.2525 17.9404C17.6262 17.7035 17.9823 17.4399 18.3182 17.1519L20.0019 17.5568Z" fill="#1F1F1F"/>
<path d="M31.7889 35.0122C30.7089 35.0444 29.6383 34.8024 28.6771 34.3088C27.8162 33.8886 27.0811 33.249 26.5458 32.4545C26.028 31.5997 25.6604 30.6626 25.4588 29.6838C25.2418 28.5745 25.1348 27.4465 25.1391 26.3162C25.1222 24.9717 25.287 23.631 25.6293 22.3306C25.9144 21.3116 26.3918 20.3567 27.0359 19.5172C27.6042 18.7962 28.3344 18.2194 29.1673 17.8334C30.0722 17.4581 31.0437 17.2696 32.0234 17.2793C33.1008 17.2486 34.1694 17.4827 35.1352 17.9613C35.951 18.3973 36.6409 19.0359 37.1387 19.8156C37.6745 20.6614 38.0434 21.6019 38.2256 22.5864C38.4446 23.6954 38.5518 24.8235 38.5453 25.9539C38.5745 27.3061 38.4095 28.6555 38.0551 29.9608C37.7879 30.9866 37.3086 31.945 36.6484 32.7743C36.0819 33.497 35.3512 34.0742 34.517 34.458C33.6518 34.8168 32.7255 35.0049 31.7889 35.0122ZM31.7889 18.8991C31.2742 18.8886 30.7699 19.0449 30.3512 19.3445C29.9325 19.6441 29.6219 20.071 29.4657 20.5616C28.937 22.1981 28.706 23.9162 28.7837 25.6342C28.72 27.5618 28.95 29.4878 29.4657 31.3462C29.5926 31.9232 29.9137 32.4391 30.3754 32.8076C30.8371 33.1762 31.4113 33.3751 32.002 33.371C32.5194 33.3801 33.0258 33.2208 33.4448 32.9171C33.8638 32.6134 34.1729 32.1818 34.3253 31.6872C34.8754 30.0553 35.1139 28.3346 35.0285 26.6146C35.0995 24.6923 34.8621 22.7711 34.3253 20.9239C34.2087 20.3576 33.9021 19.8481 33.4563 19.4798C33.0105 19.1116 32.4523 18.9067 31.8742 18.8991H31.7889Z" fill="#1F1F1F"/>
<path d="M151.4 218.075V203.496C151.416 203.32 151.363 203.144 151.251 203.006C151.12 202.874 150.947 202.791 150.761 202.771L148.267 202.367V200.938H158.178V202.367L155.301 202.771C155.111 202.797 154.933 202.878 154.789 203.006C154.724 203.069 154.674 203.146 154.641 203.23C154.608 203.315 154.593 203.405 154.598 203.496V214.984L155.301 214.792L156.196 214.579L157.177 214.409H158.029L158.327 215.922C157.841 216.035 157.364 216.185 156.899 216.369C156.431 216.54 155.94 216.753 155.493 216.966C155.047 217.186 154.614 217.428 154.193 217.691C153.816 217.933 153.453 218.197 153.106 218.48L151.4 218.075Z" fill="#1F1F1F"/>
<path d="M139.613 200.619C140.701 200.584 141.779 200.826 142.747 201.323C143.562 201.759 144.252 202.397 144.75 203.177C145.286 204.023 145.655 204.963 145.837 205.948C146.054 207.057 146.161 208.185 146.157 209.315C146.185 210.661 146.02 212.003 145.666 213.301C145.399 214.327 144.92 215.285 144.26 216.114C143.693 216.837 142.963 217.414 142.128 217.798C141.223 218.172 140.252 218.36 139.272 218.352C138.195 218.386 137.126 218.151 136.161 217.67C135.339 217.235 134.642 216.597 134.136 215.816C133.6 214.97 133.231 214.03 133.049 213.045C132.83 211.936 132.723 210.808 132.729 209.678C132.71 208.326 132.875 206.978 133.219 205.671C133.504 204.652 133.982 203.697 134.626 202.857C135.19 202.132 135.921 201.554 136.757 201.174C137.661 200.795 138.633 200.607 139.613 200.619ZM139.613 216.732C140.129 216.746 140.635 216.592 141.054 216.291C141.474 215.991 141.783 215.562 141.937 215.07C142.485 213.438 142.724 211.717 142.64 209.997C142.709 208.068 142.472 206.14 141.937 204.285C141.813 203.707 141.493 203.188 141.031 202.819C140.568 202.45 139.992 202.253 139.4 202.261C138.885 202.249 138.38 202.408 137.964 202.712C137.548 203.017 137.244 203.45 137.098 203.944C136.548 205.576 136.31 207.297 136.395 209.017C136.33 210.938 136.559 212.857 137.077 214.708C137.197 215.272 137.505 215.78 137.95 216.147C138.395 216.515 138.951 216.721 139.528 216.732H139.613Z" fill="#1F1F1F"/>
<path d="M55.8729 29.8972C53.5497 35.7798 42.0191 37.9111 42.0191 46.9481C42.0149 48.4505 42.4658 49.9191 43.3124 51.1603C44.159 52.4015 45.3616 53.3573 46.7619 53.9017C48.1623 54.4462 49.6948 54.5538 51.1575 54.2104C52.6202 53.867 53.9446 53.0887 54.9564 51.978C54.7709 54.873 53.5885 57.6145 51.6102 59.7362V60.8019H60.1356V59.7362C58.1603 57.621 56.978 54.8873 56.7894 51.9994C57.8071 53.1002 59.133 53.8689 60.594 54.2051C62.0551 54.5414 63.5835 54.4296 64.9801 53.8843C66.3766 53.339 67.5765 52.3855 68.4232 51.1483C69.2699 49.911 69.7242 48.4473 69.7267 46.9481C69.7267 37.8898 58.1748 35.7584 55.8729 29.8972Z" fill="#1F1F1F"/>
<path d="M115.551 29.897C113.228 35.7795 101.697 37.9109 101.697 46.9478C101.693 48.4503 102.144 49.9188 102.99 51.1601C103.837 52.4013 105.04 53.357 106.44 53.9015C107.84 54.4459 109.373 54.5535 110.835 54.2102C112.298 53.8668 113.623 53.0885 114.634 51.9778C114.449 54.8728 113.266 57.6142 111.288 59.736V60.8016H119.814V59.736C117.838 57.6208 116.656 54.8871 116.467 51.9991C117.485 53.1 118.811 53.8687 120.272 54.2049C121.733 54.5411 123.261 54.4293 124.658 53.884C126.055 53.3387 127.255 52.3853 128.101 51.148C128.948 49.9108 129.402 48.4471 129.405 46.9478C129.405 37.8896 117.853 35.7582 115.551 29.897Z" fill="#1F1F1F"/>
<path d="M85.712 54.4077C83.3888 60.2903 71.8582 62.4216 71.8582 71.4586C71.8582 73.437 72.6441 75.3344 74.0431 76.7334C75.4421 78.1324 77.3395 78.9183 79.3179 78.9183C80.3472 78.9202 81.3652 78.7048 82.3055 78.2861C83.2457 77.8674 84.087 77.2548 84.7742 76.4885C84.6068 79.3837 83.4304 82.1288 81.4493 84.2467V85.3124H89.9747V84.2467C87.9994 82.1315 86.8171 79.3978 86.6284 76.5099C87.6462 77.6107 88.972 78.3794 90.4331 78.7156C91.8942 79.0519 93.4226 78.9401 94.8191 78.3948C96.2157 77.8495 97.4156 76.896 98.2623 75.6588C99.109 74.4215 99.5632 72.9578 99.5658 71.4586C99.5658 62.4216 88.0138 60.2903 85.712 54.4077Z" fill="#1F1F1F"/>
<path d="M55.8729 76.7869C53.5497 82.6694 42.0191 84.8008 42.0191 93.8377C42.0149 95.3402 42.4658 96.8087 43.3124 98.05C44.159 99.2912 45.3616 100.247 46.7619 100.791C48.1623 101.336 49.6948 101.443 51.1575 101.1C52.6202 100.757 53.9446 99.9784 54.9564 98.8677C54.7709 101.763 53.5885 104.504 51.6102 106.626V107.692H60.1356V106.626C58.1603 104.511 56.978 101.777 56.7894 98.889C57.8071 99.9899 59.133 100.759 60.594 101.095C62.0551 101.431 63.5835 101.319 64.9801 100.774C66.3766 100.229 67.5765 99.2752 68.4232 98.0379C69.2699 96.8006 69.7242 95.337 69.7267 93.8377C69.7267 84.7795 58.1748 82.6481 55.8729 76.7869Z" fill="#1F1F1F"/>
<path d="M115.551 76.7869C113.228 82.6694 101.697 84.8008 101.697 93.8377C101.693 95.3402 102.144 96.8087 102.99 98.05C103.837 99.2912 105.04 100.247 106.44 100.791C107.84 101.336 109.373 101.443 110.835 101.1C112.298 100.757 113.623 99.9784 114.634 98.8677C114.449 101.763 113.266 104.504 111.288 106.626V107.692H119.814V106.626C117.838 104.511 116.656 101.777 116.467 98.889C117.485 99.9899 118.811 100.759 120.272 101.095C121.733 101.431 123.261 101.319 124.658 100.774C126.055 100.229 127.255 99.2752 128.101 98.0379C128.948 96.8006 129.402 95.337 129.405 93.8377C129.405 84.7795 117.853 82.6481 115.551 76.7869Z" fill="#1F1F1F"/>
<path d="M55.8729 205.734C53.5497 199.851 42.0191 197.72 42.0191 188.683C42.0149 187.18 42.4658 185.712 43.3124 184.471C44.159 183.229 45.3616 182.274 46.7619 181.729C48.1623 181.185 49.6948 181.077 51.1575 181.421C52.6202 181.764 53.9446 182.542 54.9564 183.653C54.7709 180.758 53.5885 178.017 51.6102 175.895V174.829H60.1356V175.895C58.1603 178.01 56.978 180.744 56.7894 183.632C57.8071 182.531 59.133 181.762 60.594 181.426C62.0551 181.09 63.5835 181.201 64.9801 181.747C66.3766 182.292 67.5765 183.245 68.4232 184.483C69.2699 185.72 69.7242 187.184 69.7267 188.683C69.7267 197.741 58.1748 199.873 55.8729 205.734Z" fill="#1F1F1F"/>
<path d="M115.551 205.734C113.228 199.851 101.697 197.72 101.697 188.683C101.693 187.18 102.144 185.712 102.99 184.471C103.837 183.229 105.04 182.274 106.44 181.729C107.84 181.185 109.373 181.077 110.835 181.421C112.298 181.764 113.623 182.542 114.634 183.653C114.449 180.758 113.266 178.017 111.288 175.895V174.829H119.814V175.895C117.838 178.01 116.656 180.744 116.467 183.632C117.485 182.531 118.811 181.762 120.272 181.426C121.733 181.09 123.261 181.201 124.658 181.747C126.055 182.292 127.255 183.245 128.101 184.483C128.948 185.72 129.402 187.184 129.405 188.683C129.405 197.741 117.853 199.873 115.551 205.734Z" fill="#1F1F1F"/>
<path d="M85.712 181.223C83.3888 175.341 71.8582 173.209 71.8582 164.172C71.8582 162.194 72.6441 160.297 74.0431 158.898C75.4421 157.499 77.3395 156.713 79.3179 156.713C80.3472 156.711 81.3652 156.926 82.3055 157.345C83.2457 157.764 84.087 158.376 84.7742 159.142C84.6068 156.247 83.4304 153.502 81.4493 151.384V150.319H89.9747V151.384C87.9994 153.499 86.8171 156.233 86.6284 159.121C87.6462 158.02 88.972 157.252 90.4331 156.915C91.8942 156.579 93.4226 156.691 94.8191 157.236C96.2157 157.781 97.4156 158.735 98.2623 159.972C99.109 161.209 99.5632 162.673 99.5658 164.172C99.5658 173.209 88.0138 175.341 85.712 181.223Z" fill="#1F1F1F"/>
<path d="M55.8729 158.844C53.5497 152.962 42.0191 150.83 42.0191 141.793C42.0149 140.291 42.4658 138.822 43.3124 137.581C44.159 136.34 45.3616 135.384 46.7619 134.84C48.1623 134.295 49.6948 134.188 51.1575 134.531C52.6202 134.874 53.9446 135.653 54.9564 136.763C54.7709 133.868 53.5885 131.127 51.6102 129.005V127.939H60.1356V129.005C58.1603 131.12 56.978 133.854 56.7894 136.742C57.8071 135.641 59.133 134.872 60.594 134.536C62.0551 134.2 63.5835 134.312 64.9801 134.857C66.3766 135.402 67.5765 136.356 68.4232 137.593C69.2699 138.83 69.7242 140.294 69.7267 141.793C69.7267 150.852 58.1748 152.983 55.8729 158.844Z" fill="#1F1F1F"/>
<path d="M115.551 158.844C113.228 152.962 101.697 150.83 101.697 141.793C101.693 140.291 102.144 138.822 102.99 137.581C103.837 136.34 105.04 135.384 106.44 134.84C107.84 134.295 109.373 134.188 110.835 134.531C112.298 134.874 113.623 135.653 114.634 136.763C114.449 133.868 113.266 131.127 111.288 129.005V127.939H119.814V129.005C117.838 131.12 116.656 133.854 116.467 136.742C117.485 135.641 118.811 134.872 120.272 134.536C121.733 134.2 123.261 134.312 124.658 134.857C126.055 135.402 127.255 136.356 128.101 137.593C128.948 138.83 129.402 140.294 129.405 141.793C129.405 150.852 117.853 152.983 115.551 158.844Z" fill="#1F1F1F"/>
</svg>
