<svg width="171" height="239" viewBox="0 0 171 239" fill="none" xmlns="http://www.w3.org/2000/svg">
<path d="M160.309 0.288086H11.1143C5.22872 0.288086 0.45752 5.05929 0.45752 10.9449V228.343C0.45752 234.229 5.22872 239 11.1143 239H160.309C166.195 239 170.966 234.229 170.966 228.343V10.9449C170.966 5.05929 166.195 0.288086 160.309 0.288086Z" fill="#F9F1DF"/>
<path d="M26.034 57.3016C24.1089 54.3106 21.5652 51.7669 18.5742 49.8418C21.5652 47.9167 24.1089 45.373 26.034 42.3821C27.9591 45.373 30.5028 47.9167 33.4937 49.8418C30.5028 51.7669 27.9591 54.3106 26.034 57.3016Z" fill="#C93112"/>
<path d="M145.39 178.789C147.315 181.78 149.859 184.324 152.85 186.249C149.859 188.174 147.315 190.718 145.39 193.709C143.465 190.718 140.921 188.174 137.93 186.249C140.921 184.324 143.465 181.78 145.39 178.789Z" fill="#C93112"/>
<path d="M20.0019 17.7866V32.365C19.9919 32.5445 20.0532 32.7207 20.1725 32.8553C20.2964 32.986 20.4623 33.0691 20.6413 33.0897L23.1564 33.4946V34.9227H13.2456V33.4946L16.1228 33.0897C16.3129 33.0645 16.4912 32.9828 16.6345 32.8553C16.7057 32.7957 16.7619 32.7204 16.7989 32.6353C16.8359 32.5502 16.8526 32.4577 16.8475 32.365V20.877L16.1442 21.0689L15.2277 21.282L14.2686 21.4525H13.4161L13.1177 19.9392C13.5964 19.8227 14.0663 19.6732 14.5243 19.4917C15.0145 19.3212 15.4835 19.108 15.9524 18.8949C16.4213 18.6818 16.8476 18.426 17.2525 18.1702C17.6262 17.9333 17.9823 17.6697 18.3182 17.3816L20.0019 17.7866Z" fill="#C93112"/>
<path d="M31.7889 35.2419C30.7089 35.2742 29.6383 35.0322 28.6771 34.5386C27.8162 34.1183 27.0811 33.4788 26.5458 32.6843C26.028 31.8295 25.6604 30.8924 25.4588 29.9135C25.2408 28.8044 25.1338 27.6764 25.1391 26.546C25.1222 25.2015 25.287 23.8608 25.6293 22.5604C25.9144 21.5414 26.3918 20.5864 27.0359 19.747C27.6042 19.026 28.3344 18.4491 29.1673 18.0632C30.0722 17.6879 31.0437 17.4994 32.0234 17.509C33.1008 17.4783 34.1694 17.7125 35.1352 18.1911C35.951 18.6271 36.6409 19.2656 37.1387 20.0453C37.6745 20.8911 38.0434 21.8316 38.2256 22.8161C38.4446 23.9251 38.5518 25.0533 38.5453 26.1837C38.5745 27.5359 38.4095 28.8853 38.0551 30.1906C37.7879 31.2164 37.3086 32.1748 36.6484 33.004C36.0819 33.7267 35.3512 34.304 34.517 34.6878C33.6518 35.0466 32.7255 35.2347 31.7889 35.2419ZM31.7889 19.1289C31.2742 19.1184 30.7699 19.2746 30.3512 19.5742C29.9325 19.8738 29.6219 20.3008 29.4657 20.7913C28.937 22.4278 28.706 24.1459 28.7837 25.864C28.72 27.7916 28.95 29.7176 29.4657 31.576C29.5926 32.1529 29.9137 32.6688 30.3754 33.0374C30.8371 33.4059 31.4113 33.6048 32.002 33.6008C32.5194 33.6099 33.0258 33.4506 33.4448 33.1469C33.8638 32.8432 34.1729 32.4116 34.3253 31.917C34.8754 30.2851 35.1139 28.5644 35.0285 26.8444C35.0995 24.9221 34.8621 23.0009 34.3253 21.1537C34.2087 20.5874 33.9021 20.0778 33.4563 19.7096C33.0105 19.3413 32.4523 19.1364 31.8742 19.1289H31.7889Z" fill="#C93112"/>
<path d="M151.4 218.304V203.726C151.413 203.543 151.361 203.362 151.251 203.214C151.111 203.098 150.941 203.024 150.761 203.001L148.267 202.596V201.168H158.178V202.596L155.301 203.001C155.111 203.026 154.933 203.108 154.789 203.236C154.724 203.299 154.674 203.376 154.641 203.46C154.608 203.545 154.593 203.635 154.598 203.726V215.214L155.301 215.022L156.196 214.809L157.177 214.638H158.029L158.327 216.152C157.841 216.265 157.364 216.414 156.899 216.599C156.431 216.77 155.94 216.983 155.493 217.196C155.047 217.416 154.614 217.658 154.193 217.921C153.788 218.198 153.425 218.454 153.106 218.709L151.4 218.304Z" fill="#C93112"/>
<path d="M139.613 200.87C140.699 200.828 141.777 201.062 142.747 201.552C143.562 201.988 144.252 202.627 144.75 203.406C145.286 204.252 145.655 205.193 145.837 206.177C146.055 207.286 146.162 208.414 146.157 209.545C146.186 210.89 146.021 212.232 145.666 213.53C145.399 214.556 144.92 215.515 144.26 216.344C143.693 217.066 142.963 217.644 142.128 218.028C141.223 218.401 140.252 218.59 139.272 218.582C138.195 218.615 137.126 218.381 136.161 217.9C135.339 217.464 134.642 216.826 134.136 216.045C133.6 215.2 133.231 214.259 133.049 213.275C132.83 212.166 132.723 211.038 132.729 209.907C132.71 208.555 132.875 207.207 133.219 205.9C133.504 204.881 133.982 203.926 134.626 203.087C135.19 202.361 135.921 201.783 136.757 201.403C137.663 201.031 138.635 200.85 139.613 200.87ZM139.613 216.962C140.129 216.976 140.635 216.821 141.054 216.521C141.474 216.221 141.783 215.792 141.937 215.299C142.485 213.667 142.724 211.947 142.64 210.227C142.709 208.298 142.472 206.37 141.937 204.515C141.813 203.936 141.493 203.418 141.031 203.049C140.568 202.679 139.992 202.482 139.4 202.49C138.885 202.478 138.38 202.637 137.964 202.942C137.548 203.246 137.244 203.679 137.098 204.174C136.548 205.806 136.31 207.526 136.395 209.246C136.33 211.167 136.559 213.086 137.077 214.937C137.197 215.502 137.505 216.009 137.95 216.377C138.395 216.744 138.951 216.95 139.528 216.962H139.613Z" fill="#C93112"/>
<path d="M55.8729 62.63C52.0342 56.6388 46.9445 51.5492 40.9534 47.7105C46.9445 43.8718 52.0342 38.7822 55.8729 32.791C59.7116 38.7822 64.8012 43.8718 70.7924 47.7105C64.8012 51.5492 59.7116 56.6388 55.8729 62.63Z" fill="#C93112"/>
<path d="M115.551 62.6298C111.712 56.6386 106.622 51.549 100.631 47.7103C106.622 43.8716 111.712 38.7819 115.551 32.7908C119.389 38.7819 124.479 43.8716 130.47 47.7103C124.479 51.549 119.389 56.6386 115.551 62.6298Z" fill="#C93112"/>
<path d="M85.7117 87.1405C81.873 81.1493 76.7834 76.0597 70.7922 72.221C76.7834 68.3823 81.873 63.2927 85.7117 57.3015C89.5504 63.2927 94.64 68.3823 100.631 72.221C94.64 76.0597 89.5504 81.1493 85.7117 87.1405Z" fill="#C93112"/>
<path d="M55.8726 109.52C52.0339 103.528 46.9443 98.4389 40.9531 94.6002C46.9443 90.7615 52.0339 85.6718 55.8726 79.6807C59.7113 85.6718 64.8009 90.7615 70.7921 94.6002C64.8009 98.4389 59.7113 103.528 55.8726 109.52Z" fill="#C93112"/>
<path d="M115.551 109.52C111.712 103.528 106.622 98.4389 100.631 94.6002C106.622 90.7615 111.712 85.6718 115.551 79.6807C119.389 85.6718 124.479 90.7615 130.47 94.6002C124.479 98.4389 119.389 103.528 115.551 109.52Z" fill="#C93112"/>
<path d="M70.7921 188.38C64.8009 192.218 59.7113 197.308 55.8726 203.299C52.0339 197.308 46.9443 192.218 40.9531 188.38C46.9443 184.541 52.0339 179.451 55.8726 173.46C59.7113 179.451 64.8009 184.541 70.7921 188.38Z" fill="#C93112"/>
<path d="M130.47 188.38C124.479 192.218 119.389 197.308 115.551 203.299C111.712 197.308 106.622 192.218 100.631 188.38C106.622 184.541 111.712 179.451 115.551 173.46C119.389 179.451 124.479 184.541 130.47 188.38Z" fill="#C93112"/>
<path d="M100.631 163.869C94.64 167.708 89.5504 172.798 85.7117 178.789C81.873 172.798 76.7834 167.708 70.7922 163.869C76.7834 160.03 81.873 154.941 85.7117 148.95C89.5504 154.941 94.64 160.03 100.631 163.869Z" fill="#C93112"/>
<path d="M70.7921 141.49C64.8009 145.329 59.7113 150.418 55.8726 156.41C52.0339 150.418 46.9443 145.329 40.9531 141.49C46.9443 137.651 52.0339 132.562 55.8726 126.571C59.7113 132.562 64.8009 137.651 70.7921 141.49Z" fill="#C93112"/>
<path d="M130.47 141.49C124.479 145.329 119.389 150.418 115.551 156.41C111.712 150.418 106.622 145.329 100.631 141.49C106.622 137.651 111.712 132.562 115.551 126.571C119.389 132.562 124.479 137.651 130.47 141.49Z" fill="#C93112"/>
</svg>
