<svg width="171" height="239" viewBox="0 0 171 239" fill="none" xmlns="http://www.w3.org/2000/svg">
<path d="M160.309 0H11.1143C5.22872 0 0.45752 4.7712 0.45752 10.6568V228.055C0.45752 233.941 5.22872 238.712 11.1143 238.712H160.309C166.195 238.712 170.966 233.941 170.966 228.055V10.6568C170.966 4.7712 166.195 0 160.309 0Z" fill="#F9F1DF"/>
<path d="M32.5563 49.1489C31.9541 48.5554 31.1426 48.2226 30.297 48.2226C29.4515 48.2226 28.64 48.5554 28.0378 49.1489L26.6737 50.5343C26.9657 49.578 27.5283 48.7268 28.2936 48.0832C28.7401 47.6361 29.0441 47.0667 29.1672 46.4469C29.2904 45.8271 29.2271 45.1848 28.9854 44.6009C28.7436 44.0171 28.3342 43.518 27.809 43.1666C27.2838 42.8153 26.6662 42.6275 26.0343 42.627C25.1872 42.63 24.3754 42.967 23.7751 43.5648C23.4761 43.8601 23.2387 44.2119 23.0767 44.5997C22.9146 44.9876 22.8312 45.4037 22.8312 45.824C22.8312 46.2443 22.9146 46.6604 23.0767 47.0482C23.2387 47.436 23.4761 47.7878 23.7751 48.0832C24.5403 48.7268 25.1029 49.578 25.3949 50.5343L24.0309 49.1489C23.5827 48.7044 23.013 48.4025 22.3936 48.2813C21.7741 48.1601 21.1326 48.2249 20.55 48.4676C19.9673 48.7104 19.4695 49.1202 19.1194 49.6453C18.7693 50.1705 18.5825 50.7876 18.5825 51.4188C18.5825 52.05 18.7693 52.6671 19.1194 53.1922C19.4695 53.7174 19.9673 54.1272 20.55 54.37C21.1326 54.6127 21.7741 54.6775 22.3936 54.5563C23.013 54.4351 23.5827 54.1332 24.0309 53.6887L25.608 52.0902C25.6761 53.0099 25.5605 53.934 25.2677 54.8086C24.975 55.6832 24.511 56.4907 23.903 57.1841V57.6956H28.1657V57.1841C26.9434 55.7873 26.3229 53.9639 26.4393 52.1115V51.9836L28.0165 53.5821C28.3146 53.8788 28.6682 54.1139 29.0572 54.2739C29.4461 54.4339 29.8627 54.5158 30.2833 54.5148C30.7038 54.5138 31.1201 54.43 31.5083 54.2681C31.8965 54.1063 32.2489 53.8696 32.5456 53.5715C32.8423 53.2734 33.0774 52.9198 33.2374 52.5308C33.3974 52.1419 33.4793 51.7253 33.4783 51.3047C33.4773 50.8841 33.3935 50.4679 33.2317 50.0797C33.0698 49.6915 32.833 49.339 32.5349 49.0423L32.5563 49.1489Z" fill="#1F1F1F"/>
<path d="M138.869 189.563C139.471 190.157 140.283 190.49 141.128 190.49C141.974 190.49 142.785 190.157 143.387 189.563L144.751 188.178C144.459 189.134 143.897 189.985 143.132 190.629C142.685 191.076 142.381 191.646 142.258 192.265C142.135 192.885 142.198 193.527 142.44 194.111C142.681 194.695 143.091 195.194 143.616 195.546C144.141 195.897 144.759 196.085 145.391 196.085C146.238 196.082 147.05 195.745 147.65 195.147C147.949 194.852 148.186 194.5 148.348 194.112C148.51 193.725 148.594 193.309 148.594 192.888C148.594 192.468 148.51 192.052 148.348 191.664C148.186 191.276 147.949 190.924 147.65 190.629C146.885 189.985 146.322 189.134 146.03 188.178L147.394 189.563C147.842 190.008 148.412 190.31 149.032 190.431C149.651 190.552 150.293 190.487 150.875 190.245C151.458 190.002 151.956 189.592 152.306 189.067C152.656 188.542 152.843 187.925 152.843 187.293C152.843 186.662 152.656 186.045 152.306 185.52C151.956 184.995 151.458 184.585 150.875 184.342C150.293 184.1 149.651 184.035 149.032 184.156C148.412 184.277 147.842 184.579 147.394 185.024L145.817 186.622C145.749 185.702 145.865 184.778 146.157 183.904C146.45 183.029 146.914 182.222 147.522 181.528V181.017H143.259V181.528C144.482 182.925 145.102 184.748 144.986 186.601V186.729L143.409 185.13C142.807 184.531 141.991 184.195 141.142 184.197C140.292 184.199 139.479 184.539 138.88 185.141C138.28 185.743 137.945 186.558 137.947 187.408C137.949 188.257 138.288 189.071 138.89 189.67L138.869 189.563Z" fill="#1F1F1F"/>
<path d="M20.0019 19.1821V33.6753C19.9919 33.8548 20.0532 34.031 20.1725 34.1655C20.2964 34.2963 20.4623 34.3793 20.6413 34.4L23.1564 34.8049V36.233H13.2456V34.8049L16.1228 34.4C16.3129 34.3747 16.4912 34.2931 16.6345 34.1655C16.7057 34.106 16.7619 34.0307 16.7989 33.9456C16.8359 33.8605 16.8526 33.768 16.8475 33.6753V22.1873L16.1442 22.3791L15.2277 22.5923L14.2686 22.7628H13.4161L13.1177 21.2495C13.5964 21.133 14.0663 20.9835 14.5243 20.8019C15.0145 20.6314 15.4835 20.4183 15.9524 20.2052C16.4213 19.992 16.8476 19.7363 17.2525 19.4805C17.6262 19.2435 17.9823 18.98 18.3182 18.6919L20.0019 19.1821Z" fill="#1F1F1F"/>
<path d="M31.7889 36.5525C30.7089 36.5847 29.6383 36.3427 28.6771 35.8491C27.8162 35.4288 27.0811 34.7893 26.5458 33.9948C26.028 33.14 25.6604 32.2029 25.4588 31.2241C25.2418 30.1148 25.1348 28.9868 25.1391 27.8565C25.1222 26.512 25.287 25.1713 25.6293 23.8709C25.9144 22.8519 26.3918 21.8969 27.0359 21.0575C27.6042 20.3365 28.3344 19.7597 29.1673 19.3737C30.0722 18.9984 31.0437 18.8099 32.0234 18.8196C33.1008 18.7888 34.1694 19.023 35.1352 19.5016C35.951 19.9376 36.6409 20.5762 37.1387 21.3559C37.6745 22.2016 38.0434 23.1421 38.2256 24.1266C38.538 25.2261 38.738 26.3544 38.8224 27.4942C38.8516 28.8464 38.6865 30.1958 38.3322 31.5011C38.065 32.5269 37.5857 33.4853 36.9255 34.3145C36.3589 35.0372 35.6283 35.6144 34.7941 35.9983C33.843 36.3939 32.8186 36.5828 31.7889 36.5525ZM31.7889 20.4394C31.2742 20.4289 30.7699 20.5851 30.3512 20.8848C29.9325 21.1844 29.6219 21.6113 29.4657 22.1019C28.937 23.7384 28.706 25.4564 28.7837 27.1745C28.72 29.1021 28.95 31.0281 29.4657 32.8865C29.5926 33.4635 29.9137 33.9793 30.3754 34.3479C30.8371 34.7164 31.4113 34.9153 32.002 34.9113C32.5194 34.9204 33.0258 34.7611 33.4448 34.4574C33.8638 34.1537 34.1729 33.7221 34.3253 33.2275C34.8754 31.5956 35.1139 29.8749 35.0285 28.1549C35.0995 26.2326 34.8621 24.3114 34.3253 22.4642C34.2087 21.8979 33.9021 21.3883 33.4563 21.0201C33.0105 20.6518 32.4523 20.447 31.8742 20.4394H31.7889Z" fill="#1F1F1F"/>
<path d="M151.4 219.53V205.037C151.416 204.86 151.363 204.684 151.251 204.546C151.12 204.414 150.947 204.331 150.761 204.312L148.267 203.907V202.479H158.178V203.907L155.301 204.312C155.111 204.337 154.933 204.419 154.789 204.546C154.724 204.61 154.674 204.686 154.641 204.771C154.608 204.855 154.593 204.946 154.598 205.037V216.525L155.301 216.333L156.196 216.12L157.177 215.949H158.029L158.327 217.462C157.841 217.576 157.364 217.725 156.899 217.91C156.431 218.081 155.94 218.294 155.493 218.507C155.047 218.727 154.614 218.968 154.193 219.231C153.816 219.474 153.453 219.737 153.106 220.02L151.4 219.53Z" fill="#1F1F1F"/>
<path d="M139.613 202.16C140.7 202.124 141.779 202.366 142.746 202.863C143.562 203.299 144.252 203.938 144.75 204.717C145.286 205.563 145.655 206.504 145.837 207.488C146.054 208.597 146.161 209.725 146.156 210.856C146.184 212.201 146.019 213.543 145.666 214.841C145.399 215.867 144.92 216.825 144.26 217.655C143.693 218.377 142.962 218.955 142.128 219.338C141.223 219.712 140.252 219.901 139.272 219.893C138.195 219.926 137.125 219.692 136.16 219.211C135.338 218.775 134.641 218.137 134.136 217.356C133.6 216.511 133.231 215.57 133.049 214.586C132.787 213.481 132.637 212.353 132.601 211.218C132.582 209.866 132.747 208.518 133.091 207.211C133.376 206.192 133.854 205.237 134.498 204.398C135.062 203.672 135.793 203.094 136.629 202.714C137.573 202.318 138.59 202.129 139.613 202.16ZM139.613 218.273C140.129 218.287 140.635 218.132 141.054 217.832C141.473 217.532 141.783 217.103 141.936 216.61C142.485 214.978 142.724 213.258 142.64 211.538C142.709 209.608 142.472 207.68 141.936 205.826C141.813 205.247 141.493 204.729 141.03 204.359C140.568 203.99 139.992 203.793 139.4 203.801C138.885 203.789 138.38 203.948 137.964 204.253C137.548 204.557 137.243 204.99 137.098 205.485C136.548 207.117 136.31 208.837 136.395 210.557C136.329 212.478 136.559 214.397 137.077 216.248C137.197 216.813 137.505 217.32 137.95 217.687C138.395 218.055 138.951 218.261 139.528 218.273H139.613Z" fill="#1F1F1F"/>
<path d="M68.9162 45.0352C67.7173 43.8378 66.0922 43.1652 64.3978 43.1652C62.7033 43.1652 61.0782 43.8378 59.8793 45.0352L57.1299 47.7846C57.7199 45.8696 58.8525 44.1667 60.3908 42.8825C61.5882 41.6836 62.2608 40.0585 62.2608 38.364C62.2608 36.6696 61.5882 35.0444 60.3908 33.8456C59.1919 32.6482 57.5668 31.9756 55.8724 31.9756C54.1779 31.9756 52.5528 32.6482 51.3539 33.8456C50.1565 35.0444 49.4839 36.6696 49.4839 38.364C49.4839 40.0585 50.1565 41.6836 51.3539 42.8825C52.8922 44.1667 54.0249 45.8696 54.6148 47.7846L51.8654 45.0352C50.9715 44.1401 49.8322 43.5304 48.5916 43.283C47.3511 43.0357 46.065 43.1618 44.8962 43.6455C43.7274 44.1293 42.7284 44.9488 42.0254 46.0005C41.3225 47.0521 40.9473 48.2887 40.9473 49.5536C40.9473 50.8186 41.3225 52.0552 42.0254 53.1068C42.7284 54.1585 43.7274 54.978 44.8962 55.4618C46.065 55.9455 47.3511 56.0716 48.5916 55.8243C49.8322 55.5769 50.9715 54.9671 51.8654 54.0721L55.0198 50.9177C55.0198 50.9177 55.0198 51.0243 55.0198 51.0882C55.1547 52.9276 54.9227 54.7755 54.3373 56.5245C53.7519 58.2734 52.8247 59.8886 51.6096 61.2761V62.3418H60.1351V61.2761C57.7036 58.4845 56.4707 54.8469 56.7036 51.1522C56.7036 51.1522 56.7036 51.0243 56.7036 50.939L59.858 54.0934C61.0701 55.2229 62.6732 55.8378 64.3297 55.8085C65.9862 55.7793 67.5668 55.1083 68.7383 53.9368C69.9098 52.7653 70.5808 51.1848 70.61 49.5283C70.6392 47.8718 70.0244 46.2686 68.8949 45.0565L68.9162 45.0352Z" fill="#1F1F1F"/>
<path d="M128.594 45.0352C127.395 43.8378 125.77 43.1652 124.076 43.1652C122.381 43.1652 120.756 43.8378 119.557 45.0352L116.808 47.7846C117.398 45.8696 118.53 44.1667 120.069 42.8825C121.266 41.6836 121.939 40.0585 121.939 38.364C121.939 36.6696 121.266 35.0444 120.069 33.8456C118.87 32.6482 117.245 31.9756 115.55 31.9756C113.856 31.9756 112.231 32.6482 111.032 33.8456C109.834 35.0444 109.162 36.6696 109.162 38.364C109.162 40.0585 109.834 41.6836 111.032 42.8825C112.57 44.1667 113.703 45.8696 114.293 47.7846L111.543 45.0352C110.649 44.1401 109.51 43.5304 108.269 43.283C107.029 43.0357 105.743 43.1618 104.574 43.6455C103.405 44.1293 102.406 44.9488 101.703 46.0005C101 47.0521 100.625 48.2887 100.625 49.5536C100.625 50.8186 101 52.0552 101.703 53.1068C102.406 54.1585 103.405 54.978 104.574 55.4618C105.743 55.9455 107.029 56.0716 108.269 55.8243C109.51 55.5769 110.649 54.9671 111.543 54.0721L114.697 50.9177C114.697 50.9177 114.697 51.0243 114.697 51.0882C114.832 52.9276 114.6 54.7755 114.015 56.5245C113.43 58.2734 112.502 59.8886 111.287 61.2761V62.3418H119.813V61.2761C117.381 58.4845 116.148 54.8469 116.381 51.1522C116.381 51.1522 116.381 51.0243 116.381 50.939L119.536 54.0934C120.748 55.2229 122.351 55.8378 124.007 55.8085C125.664 55.7793 127.245 55.1083 128.416 53.9368C129.588 52.7653 130.258 51.1848 130.288 49.5283C130.317 47.8718 129.702 46.2686 128.573 45.0565L128.594 45.0352Z" fill="#1F1F1F"/>
<path d="M98.7551 69.5459C97.5562 68.3485 95.9311 67.6759 94.2366 67.6759C92.5422 67.6759 90.9171 68.3485 89.7182 69.5459L86.9688 72.2954C87.5587 70.3803 88.6914 68.6775 90.2297 67.3932C91.4271 66.1944 92.0997 64.5692 92.0997 62.8748C92.0997 61.1803 91.4271 59.5552 90.2297 58.3563C89.0308 57.1589 87.4057 56.4863 85.7112 56.4863C84.0168 56.4863 82.3916 57.1589 81.1928 58.3563C79.9954 59.5552 79.3227 61.1803 79.3227 62.8748C79.3227 64.5692 79.9954 66.1944 81.1928 67.3932C82.731 68.6775 83.8637 70.3803 84.4537 72.2954L81.7043 69.5459C80.8103 68.6509 79.671 68.0411 78.4305 67.7938C77.1899 67.5464 75.9039 67.6726 74.7351 68.1563C73.5662 68.64 72.5672 69.4595 71.8643 70.5112C71.1614 71.5629 70.7861 72.7994 70.7861 74.0644C70.7861 75.3294 71.1614 76.5659 71.8643 77.6176C72.5672 78.6692 73.5662 79.4888 74.7351 79.9725C75.9039 80.4562 77.1899 80.5824 78.4305 80.335C79.671 80.0877 80.8103 79.4779 81.7043 78.5829L84.8586 75.4285C84.8586 75.4285 84.8586 75.4285 84.8586 75.599C84.9889 77.438 84.7548 79.2847 84.1695 81.033C83.5843 82.7813 82.6596 84.3968 81.4485 85.7868V86.8525H89.9739V85.7868C87.5371 82.9898 86.3039 79.3435 86.5425 75.6416C86.5425 75.6416 86.5425 75.5137 86.5425 75.4285L89.6968 78.5829C90.9089 79.7123 92.5121 80.3272 94.1686 80.298C95.8251 80.2687 97.4056 79.5977 98.5771 78.4262C99.7487 77.2547 100.42 75.6742 100.449 74.0177C100.478 72.3612 99.8632 70.758 98.7338 69.5459H98.7551Z" fill="#1F1F1F"/>
<path d="M68.9162 91.9248C67.7173 90.7274 66.0922 90.0549 64.3978 90.0549C62.7033 90.0549 61.0782 90.7274 59.8793 91.9248L57.1299 94.6743C57.7199 92.7592 58.8525 91.0564 60.3908 89.7721C61.5882 88.5733 62.2608 86.9481 62.2608 85.2537C62.2608 83.5592 61.5882 81.9341 60.3908 80.7352C59.1919 79.5378 57.5668 78.8652 55.8724 78.8652C54.1779 78.8652 52.5528 79.5378 51.3539 80.7352C50.1565 81.9341 49.4839 83.5592 49.4839 85.2537C49.4839 86.9481 50.1565 88.5733 51.3539 89.7721C52.8922 91.0564 54.0249 92.7592 54.6148 94.6743L51.8654 91.9248C50.9715 91.0298 49.8322 90.42 48.5916 90.1727C47.3511 89.9253 46.065 90.0515 44.8962 90.5352C43.7274 91.0189 42.7284 91.8384 42.0254 92.8901C41.3225 93.9418 40.9473 95.1783 40.9473 96.4433C40.9473 97.7083 41.3225 98.9448 42.0254 99.9965C42.7284 101.048 43.7274 101.868 44.8962 102.351C46.065 102.835 47.3511 102.961 48.5916 102.714C49.8322 102.467 50.9715 101.857 51.8654 100.962L55.0198 97.8074C55.0198 97.8074 55.0198 97.8074 55.0198 97.9779C55.1547 99.8173 54.9227 101.665 54.3373 103.414C53.7519 105.163 52.8247 106.778 51.6096 108.166V109.231H60.1351V108.166C57.7036 105.374 56.4707 101.737 56.7036 98.0418C56.7036 98.0418 56.7036 97.9139 56.7036 97.8287L59.858 100.983C61.0701 102.113 62.6732 102.727 64.3297 102.698C65.9862 102.669 67.5668 101.998 68.7383 100.826C69.9098 99.6549 70.5808 98.0744 70.61 96.4179C70.6392 94.7614 70.0244 93.1582 68.8949 91.9461L68.9162 91.9248Z" fill="#1F1F1F"/>
<path d="M128.594 91.9248C127.395 90.7274 125.77 90.0549 124.076 90.0549C122.381 90.0549 120.756 90.7274 119.557 91.9248L116.808 94.6743C117.398 92.7592 118.53 91.0564 120.069 89.7721C121.266 88.5733 121.939 86.9481 121.939 85.2537C121.939 83.5592 121.266 81.9341 120.069 80.7352C118.87 79.5378 117.245 78.8652 115.55 78.8652C113.856 78.8652 112.231 79.5378 111.032 80.7352C109.834 81.9341 109.162 83.5592 109.162 85.2537C109.162 86.9481 109.834 88.5733 111.032 89.7721C112.57 91.0564 113.703 92.7592 114.293 94.6743L111.543 91.9248C110.649 91.0298 109.51 90.42 108.269 90.1727C107.029 89.9253 105.743 90.0515 104.574 90.5352C103.405 91.0189 102.406 91.8384 101.703 92.8901C101 93.9418 100.625 95.1783 100.625 96.4433C100.625 97.7083 101 98.9448 101.703 99.9965C102.406 101.048 103.405 101.868 104.574 102.351C105.743 102.835 107.029 102.961 108.269 102.714C109.51 102.467 110.649 101.857 111.543 100.962L114.697 97.8074C114.697 97.8074 114.697 97.8074 114.697 97.9779C114.832 99.8173 114.6 101.665 114.015 103.414C113.43 105.163 112.502 106.778 111.287 108.166V109.231H119.813V108.166C117.381 105.374 116.148 101.737 116.381 98.0418C116.381 98.0418 116.381 97.9139 116.381 97.8287L119.536 100.983C120.748 102.113 122.351 102.727 124.007 102.698C125.664 102.669 127.245 101.998 128.416 100.826C129.588 99.6549 130.258 98.0744 130.288 96.4179C130.317 94.7614 129.702 93.1582 128.573 91.9461L128.594 91.9248Z" fill="#1F1F1F"/>
<path d="M68.9162 193.676C67.7173 194.874 66.0922 195.546 64.3978 195.546C62.7033 195.546 61.0782 194.874 59.8793 193.676L57.1299 190.927C57.7199 192.842 58.8525 194.545 60.3908 195.829C61.5882 197.028 62.2608 198.653 62.2608 200.347C62.2608 202.042 61.5882 203.667 60.3908 204.866C59.1919 206.063 57.5668 206.736 55.8724 206.736C54.1779 206.736 52.5528 206.063 51.3539 204.866C50.1565 203.667 49.4839 202.042 49.4839 200.347C49.4839 198.653 50.1565 197.028 51.3539 195.829C52.8922 194.545 54.0249 192.842 54.6148 190.927L51.8654 193.676C50.9715 194.571 49.8322 195.181 48.5916 195.428C47.3511 195.676 46.065 195.55 44.8962 195.066C43.7274 194.582 42.7284 193.763 42.0254 192.711C41.3225 191.659 40.9473 190.423 40.9473 189.158C40.9473 187.893 41.3225 186.656 42.0254 185.605C42.7284 184.553 43.7274 183.733 44.8962 183.25C46.065 182.766 47.3511 182.64 48.5916 182.887C49.8322 183.134 50.9715 183.744 51.8654 184.639L55.0198 187.794C55.0198 187.794 55.0198 187.794 55.0198 187.623C55.1547 185.784 54.9227 183.936 54.3373 182.187C53.7519 180.438 52.8247 178.823 51.6096 177.435V176.37H60.1351V177.435C57.7036 180.227 56.4707 183.865 56.7036 187.559C56.7036 187.559 56.7036 187.687 56.7036 187.772L59.858 184.618C61.0701 183.489 62.6732 182.874 64.3297 182.903C65.9862 182.932 67.5668 183.603 68.7383 184.775C69.9098 185.946 70.5808 187.527 70.61 189.183C70.6392 190.84 70.0244 192.443 68.8949 193.655L68.9162 193.676Z" fill="#1F1F1F"/>
<path d="M128.594 193.676C127.395 194.874 125.77 195.546 124.076 195.546C122.381 195.546 120.756 194.874 119.557 193.676L116.808 190.927C117.398 192.842 118.53 194.545 120.069 195.829C121.266 197.028 121.939 198.653 121.939 200.347C121.939 202.042 121.266 203.667 120.069 204.866C118.87 206.063 117.245 206.736 115.55 206.736C113.856 206.736 112.231 206.063 111.032 204.866C109.834 203.667 109.162 202.042 109.162 200.347C109.162 198.653 109.834 197.028 111.032 195.829C112.57 194.545 113.703 192.842 114.293 190.927L111.543 193.676C110.649 194.571 109.51 195.181 108.269 195.428C107.029 195.676 105.743 195.55 104.574 195.066C103.405 194.582 102.406 193.763 101.703 192.711C101 191.659 100.625 190.423 100.625 189.158C100.625 187.893 101 186.656 101.703 185.605C102.406 184.553 103.405 183.733 104.574 183.25C105.743 182.766 107.029 182.64 108.269 182.887C109.51 183.134 110.649 183.744 111.543 184.639L114.697 187.794C114.697 187.794 114.697 187.794 114.697 187.623C114.832 185.784 114.6 183.936 114.015 182.187C113.43 180.438 112.502 178.823 111.287 177.435V176.37H119.813V177.435C117.381 180.227 116.148 183.865 116.381 187.559C116.381 187.559 116.381 187.687 116.381 187.772L119.536 184.618C120.748 183.489 122.351 182.874 124.007 182.903C125.664 182.932 127.245 183.603 128.416 184.775C129.588 185.946 130.258 187.527 130.288 189.183C130.317 190.84 129.702 192.443 128.573 193.655L128.594 193.676Z" fill="#1F1F1F"/>
<path d="M98.7551 169.166C97.5562 170.363 95.9311 171.035 94.2366 171.035C92.5422 171.035 90.9171 170.363 89.7182 169.166L86.9688 166.416C87.5587 168.331 88.6914 170.034 90.2297 171.318C91.4271 172.517 92.0997 174.142 92.0997 175.837C92.0997 177.531 91.4271 179.156 90.2297 180.355C89.0308 181.553 87.4057 182.225 85.7112 182.225C84.0168 182.225 82.3916 181.553 81.1928 180.355C79.9954 179.156 79.3227 177.531 79.3227 175.837C79.3227 174.142 79.9954 172.517 81.1928 171.318C82.731 170.034 83.8637 168.331 84.4537 166.416L81.7043 169.166C80.8103 170.061 79.671 170.67 78.4305 170.918C77.1899 171.165 75.9039 171.039 74.7351 170.555C73.5662 170.071 72.5672 169.252 71.8643 168.2C71.1614 167.149 70.7861 165.912 70.7861 164.647C70.7861 163.382 71.1614 162.146 71.8643 161.094C72.5672 160.042 73.5662 159.223 74.7351 158.739C75.9039 158.255 77.1899 158.129 78.4305 158.376C79.671 158.624 80.8103 159.234 81.7043 160.129L84.8586 163.283C84.8586 163.283 84.8586 163.283 84.8586 163.112C84.9889 161.273 84.7548 159.427 84.1695 157.678C83.5843 155.93 82.6596 154.315 81.4485 152.925V151.859H89.9739V152.925C87.5371 155.722 86.3039 159.368 86.5425 163.07C86.5425 163.07 86.5425 163.198 86.5425 163.283L89.6968 160.129C90.9089 158.999 92.5121 158.384 94.1686 158.413C95.8251 158.443 97.4056 159.114 98.5771 160.285C99.7487 161.457 100.42 163.037 100.449 164.694C100.478 166.35 99.8632 167.953 98.7338 169.166H98.7551Z" fill="#1F1F1F"/>
<path d="M68.9162 146.787C67.7173 147.984 66.0922 148.657 64.3978 148.657C62.7033 148.657 61.0782 147.984 59.8793 146.787L57.1299 144.037C57.7199 145.952 58.8525 147.655 60.3908 148.939C61.5882 150.138 62.2608 151.763 62.2608 153.458C62.2608 155.152 61.5882 156.777 60.3908 157.976C59.1919 159.174 57.5668 159.846 55.8724 159.846C54.1779 159.846 52.5528 159.174 51.3539 157.976C50.1565 156.777 49.4839 155.152 49.4839 153.458C49.4839 151.763 50.1565 150.138 51.3539 148.939C52.8922 147.655 54.0249 145.952 54.6148 144.037L51.8654 146.787C50.9715 147.682 49.8322 148.291 48.5916 148.539C47.3511 148.786 46.065 148.66 44.8962 148.176C43.7274 147.693 42.7284 146.873 42.0254 145.821C41.3225 144.77 40.9473 143.533 40.9473 142.268C40.9473 141.003 41.3225 139.767 42.0254 138.715C42.7284 137.663 43.7274 136.844 44.8962 136.36C46.065 135.876 47.3511 135.75 48.5916 135.997C49.8322 136.245 50.9715 136.855 51.8654 137.75L55.0198 140.904C55.0198 140.904 55.0198 140.904 55.0198 140.734C55.1547 138.894 54.9227 137.046 54.3373 135.297C53.7519 133.548 52.8247 131.933 51.6096 130.546V129.48H60.1351V130.546C57.7036 133.337 56.4707 136.975 56.7036 140.67C56.7036 140.67 56.7036 140.797 56.7036 140.883L59.858 137.728C61.0701 136.599 62.6732 135.984 64.3297 136.013C65.9862 136.042 67.5668 136.714 68.7383 137.885C69.9098 139.057 70.5808 140.637 70.61 142.293C70.6392 143.95 70.0244 145.553 68.8949 146.765L68.9162 146.787Z" fill="#1F1F1F"/>
<path d="M128.594 146.787C127.395 147.984 125.77 148.657 124.076 148.657C122.381 148.657 120.756 147.984 119.557 146.787L116.808 144.037C117.398 145.952 118.53 147.655 120.069 148.939C121.266 150.138 121.939 151.763 121.939 153.458C121.939 155.152 121.266 156.777 120.069 157.976C118.87 159.174 117.245 159.846 115.55 159.846C113.856 159.846 112.231 159.174 111.032 157.976C109.834 156.777 109.162 155.152 109.162 153.458C109.162 151.763 109.834 150.138 111.032 148.939C112.57 147.655 113.703 145.952 114.293 144.037L111.543 146.787C110.649 147.682 109.51 148.291 108.269 148.539C107.029 148.786 105.743 148.66 104.574 148.176C103.405 147.693 102.406 146.873 101.703 145.821C101 144.77 100.625 143.533 100.625 142.268C100.625 141.003 101 139.767 101.703 138.715C102.406 137.663 103.405 136.844 104.574 136.36C105.743 135.876 107.029 135.75 108.269 135.997C109.51 136.245 110.649 136.855 111.543 137.75L114.697 140.904C114.697 140.904 114.697 140.904 114.697 140.734C114.832 138.894 114.6 137.046 114.015 135.297C113.43 133.548 112.502 131.933 111.287 130.546V129.48H119.813V130.546C117.381 133.337 116.148 136.975 116.381 140.67C116.381 140.67 116.381 140.797 116.381 140.883L119.536 137.728C120.748 136.599 122.351 135.984 124.007 136.013C125.664 136.042 127.245 136.714 128.416 137.885C129.588 139.057 130.258 140.637 130.288 142.293C130.317 143.95 129.702 145.553 128.573 146.765L128.594 146.787Z" fill="#1F1F1F"/>
</svg>
