<svg width="172" height="240" viewBox="0 0 172 240" fill="none" xmlns="http://www.w3.org/2000/svg">
<path d="M160.576 0.762695H11.3814C5.49581 0.762695 0.724609 5.5339 0.724609 11.4195V228.818C0.724609 234.703 5.49581 239.475 11.3814 239.475H160.576C166.462 239.475 171.233 234.703 171.233 228.818V11.4195C171.233 5.5339 166.462 0.762695 160.576 0.762695Z" fill="#F9F1DF"/>
<path d="M29.7539 45.5212C29.0397 45.5325 28.3419 45.7365 27.7341 46.1117C27.1263 46.4868 26.6312 47.0192 26.3011 47.6526C25.8688 46.8839 25.1939 46.2802 24.3818 45.9362C23.5698 45.5921 22.6666 45.5271 21.8137 45.7513C20.9608 45.9755 20.2063 46.4763 19.6684 47.1751C19.1306 47.874 18.8397 48.7315 18.8413 49.6134C18.8413 54.0253 25.2354 56.3912 26.3011 59.2045C27.4733 56.3912 33.7608 54.0253 33.7608 49.6134C33.7722 49.0801 33.6769 48.5499 33.4806 48.0539C33.2843 47.5578 32.991 47.106 32.6178 46.7248C32.2446 46.3437 31.799 46.0409 31.3072 45.8342C30.8154 45.6275 30.2873 45.5211 29.7539 45.5212Z" fill="#C93112"/>
<path d="M142.098 193.651C142.814 193.639 143.515 193.435 144.126 193.06C144.737 192.685 145.236 192.153 145.572 191.52C145.902 192.153 146.397 192.685 147.005 193.061C147.613 193.436 148.31 193.64 149.025 193.651C150.087 193.651 151.106 193.229 151.858 192.477C152.609 191.726 153.032 190.707 153.032 189.644C153.032 185.232 146.744 182.866 145.572 180.053C144.4 182.866 138.112 185.232 138.112 189.644C138.112 190.703 138.531 191.719 139.278 192.47C140.025 193.221 141.039 193.645 142.098 193.651Z" fill="#C93112"/>
<path d="M31.9281 36.463H20.4401L19.7581 34.6087C21.3139 33.2446 22.5928 32.0724 23.6584 31.0706C24.5596 30.2601 25.4069 29.3915 26.1948 28.4704C26.7463 27.8225 27.2119 27.1061 27.5801 26.339C27.8499 25.7649 27.9952 25.1403 28.0064 24.5061C28.0223 24.1069 27.9504 23.7091 27.7957 23.3409C27.6411 22.9726 27.4074 22.6428 27.1112 22.3747C26.5193 21.8679 25.7587 21.6017 24.9799 21.6287C24.2834 21.6196 23.6002 21.8201 23.019 22.2042C22.3781 22.6519 21.8344 23.2247 21.4205 23.888L20.3122 22.9715C20.5069 22.4477 20.7722 21.9529 21.1008 21.5008C21.4342 21.011 21.8529 20.5851 22.337 20.2433C22.8434 19.8567 23.4131 19.561 24.0208 19.3695C24.7068 19.1358 25.4275 19.0206 26.1521 19.0285C26.877 19.018 27.5981 19.1334 28.2835 19.3695C28.9049 19.5798 29.4776 19.9133 29.9673 20.3499C30.4501 20.7824 30.8352 21.3128 31.0969 21.9058C31.384 22.5787 31.5221 23.3058 31.5018 24.0372C31.5059 24.8833 31.324 25.7201 30.969 26.4882C30.5566 27.3634 30.0101 28.1688 29.3492 28.8753C28.5009 29.7853 27.5815 30.6263 26.5997 31.3903C25.4914 32.2642 24.2126 33.2233 22.7206 34.2464H25.8964C26.5145 34.2464 27.0686 34.2464 27.5588 34.2464L28.7524 34.1185C28.9823 34.0835 29.2011 33.996 29.3918 33.8627C29.5265 33.7403 29.629 33.5866 29.6902 33.4151L30.6493 31.2838L32.3331 31.4969C32.3331 32.2855 32.3331 33.1594 32.2052 34.0759C32.1566 34.876 32.0641 35.6729 31.9281 36.463Z" fill="#C93112"/>
<path d="M139.966 202.709H151.454L152.115 204.563C150.581 205.927 149.28 207.099 148.215 208.101C147.324 208.923 146.478 209.791 145.678 210.701C145.135 211.355 144.67 212.07 144.293 212.833C144.029 213.408 143.891 214.033 143.888 214.666C143.868 215.063 143.936 215.461 144.087 215.829C144.238 216.197 144.468 216.528 144.762 216.797C145.357 217.298 146.115 217.564 146.893 217.543C147.589 217.546 148.27 217.346 148.854 216.968C149.483 216.513 150.019 215.941 150.431 215.284L151.54 216.2C151.361 216.727 151.102 217.223 150.772 217.671C150.433 218.156 150.015 218.581 149.536 218.928C149.022 219.315 148.445 219.611 147.831 219.802C146.447 220.258 144.953 220.258 143.568 219.802C142.949 219.587 142.377 219.254 141.885 218.822C141.409 218.383 141.025 217.854 140.755 217.266C140.468 216.593 140.33 215.866 140.35 215.135C140.356 214.289 140.538 213.455 140.883 212.683C141.303 211.808 141.857 211.002 142.524 210.296C143.365 209.387 144.277 208.545 145.252 207.781C146.36 206.908 147.661 205.948 149.131 204.925H145.956C145.359 204.925 144.805 204.925 144.293 204.925L143.121 205.053C142.883 205.085 142.657 205.173 142.46 205.309C142.332 205.437 142.23 205.589 142.162 205.757L141.224 207.888L139.519 207.675C139.519 206.886 139.519 206.012 139.647 205.096C139.709 204.295 139.816 203.498 139.966 202.709Z" fill="#C93112"/>
<path d="M96.3585 65.769C94.24 65.7697 92.1602 66.3373 90.3351 67.413C88.5099 68.4886 87.0058 70.033 85.9788 71.886C84.6831 69.5815 82.66 67.7714 80.2261 66.7389C77.7922 65.7064 75.0847 65.5097 72.5271 66.1795C69.9695 66.8493 67.7061 68.348 66.0908 70.441C64.4755 72.534 63.5994 75.1034 63.5996 77.7473C63.5996 91.0043 82.4408 98.1017 85.9788 106.521C89.4956 97.9951 108.358 91.0043 108.358 77.7473C108.352 74.5685 107.086 71.5218 104.836 69.2761C102.586 67.0303 99.5373 65.769 96.3585 65.769Z" fill="#C93112"/>
<path d="M96.3583 173.402C94.2398 173.402 92.16 172.834 90.3348 171.758C88.5096 170.683 87.0055 169.138 85.9786 167.285C84.6828 169.59 82.6598 171.4 80.2259 172.433C77.7919 173.465 75.0845 173.662 72.5269 172.992C69.9693 172.322 67.7058 170.823 66.0905 168.73C64.4752 166.637 63.5992 164.068 63.5994 161.424C63.5994 148.167 82.4406 141.07 85.9786 132.651C89.4953 141.176 108.358 148.167 108.358 161.424C108.352 164.603 107.085 167.65 104.836 169.895C102.586 172.141 99.5371 173.402 96.3583 173.402Z" fill="#C93112"/>
</svg>
