<svg width="172" height="239" viewBox="0 0 172 239" fill="none" xmlns="http://www.w3.org/2000/svg">
<path d="M160.576 0.288086H11.3814C5.49581 0.288086 0.724609 5.05929 0.724609 10.9449V228.343C0.724609 234.229 5.49581 239 11.3814 239H160.576C166.462 239 171.233 234.229 171.233 228.343V10.9449C171.233 5.05929 166.462 0.288086 160.576 0.288086Z" fill="#F9F1DF"/>
<path d="M26.3011 57.3018C24.376 54.3109 21.8323 51.7672 18.8413 49.8421C21.8323 47.917 24.376 45.3733 26.3011 42.3823C28.2204 45.3779 30.7652 47.9227 33.7608 49.8421C30.7652 51.7614 28.2204 54.3062 26.3011 57.3018Z" fill="#C93112"/>
<path d="M145.657 178.789C147.577 181.785 150.121 184.33 153.117 186.249C150.121 188.168 147.577 190.713 145.657 193.709C143.732 190.718 141.188 188.174 138.198 186.249C141.188 184.324 143.732 181.78 145.657 178.789Z" fill="#C93112"/>
<path d="M31.9281 34.9229H20.4401L19.7581 33.0687C21.3139 31.7046 22.5928 30.5323 23.6584 29.5306C24.5596 28.72 25.4069 27.8514 26.1948 26.9303C26.7463 26.2824 27.2119 25.5661 27.5801 24.799C27.8499 24.2249 27.9952 23.6003 28.0064 22.966C28.0223 22.5669 27.9504 22.1691 27.7957 21.8009C27.6411 21.4326 27.4074 21.1028 27.1112 20.8347C26.5193 20.3279 25.7587 20.0617 24.9799 20.0887C24.2834 20.0796 23.6002 20.2801 23.019 20.6641C22.3781 21.1119 21.8344 21.6846 21.4205 22.3479L20.3122 21.4315C20.5069 20.9076 20.7722 20.4129 21.1008 19.9608C21.4342 19.471 21.8529 19.045 22.337 18.7033C22.8434 18.3167 23.4131 18.021 24.0208 17.8295C24.7068 17.5958 25.4275 17.4805 26.1521 17.4884C26.877 17.478 27.5981 17.5934 28.2835 17.8295C28.9049 18.0398 29.4776 18.3732 29.9673 18.8099C30.4501 19.2423 30.8352 19.7728 31.0969 20.3658C31.384 21.0387 31.5221 21.7658 31.5018 22.4971C31.5059 23.3433 31.324 24.1801 30.969 24.9482C30.5566 25.8234 30.0101 26.6288 29.3492 27.3353C28.5009 28.2453 27.5815 29.0862 26.5997 29.8503C25.4914 30.7241 24.2126 31.6832 22.7206 32.7063H25.8964C26.5145 32.7063 27.0686 32.7063 27.5588 32.7063L28.7524 32.5784C28.9823 32.5434 29.2011 32.4559 29.3918 32.3227C29.5265 32.2002 29.629 32.0465 29.6902 31.8751L30.6493 29.6371L32.3331 29.8503C32.3331 30.6389 32.3331 31.5127 32.2052 32.4292C32.1606 33.2651 32.0681 34.0977 31.9281 34.9229Z" fill="#C93112"/>
<path d="M139.967 201.168H151.455L152.116 203.023C150.581 204.387 149.281 205.559 148.215 206.561C147.325 207.382 146.478 208.25 145.679 209.161C145.135 209.815 144.67 210.53 144.294 211.292C144.03 211.868 143.892 212.493 143.889 213.125C143.869 213.523 143.936 213.92 144.088 214.289C144.239 214.657 144.469 214.988 144.762 215.257C145.358 215.758 146.116 216.024 146.894 216.003C147.589 216.005 148.271 215.805 148.855 215.427C149.484 214.973 150.019 214.401 150.432 213.743L151.54 214.66C151.362 215.187 151.103 215.683 150.773 216.131C150.429 216.617 150.012 217.049 149.537 217.409C148.414 218.214 147.06 218.632 145.679 218.603C144.954 218.613 144.233 218.498 143.548 218.262C142.928 218.047 142.356 217.714 141.864 217.282C141.383 216.847 140.998 216.317 140.734 215.726C140.447 215.053 140.309 214.326 140.329 213.594C140.336 212.749 140.517 211.915 140.862 211.143C141.283 210.267 141.836 209.462 142.503 208.756C143.344 207.846 144.256 207.005 145.231 206.241C146.34 205.367 147.64 204.408 149.11 203.385H145.935C145.338 203.385 144.784 203.385 144.272 203.385L143.1 203.513C142.863 203.545 142.636 203.632 142.439 203.769C142.311 203.897 142.21 204.049 142.141 204.216L141.203 206.454L139.498 206.241C139.498 205.452 139.498 204.579 139.626 203.662C139.691 202.825 139.805 201.992 139.967 201.168Z" fill="#C93112"/>
<path d="M85.9788 104.192C80.215 95.2097 72.5817 87.5764 63.5996 81.8126C72.5817 76.0488 80.215 68.4155 85.9788 59.4333C91.7369 68.4201 99.3713 76.0545 108.358 81.8126C99.3713 87.5706 91.7369 95.2051 85.9788 104.192Z" fill="#C93112"/>
<path d="M108.358 154.279C99.3711 160.037 91.7367 167.671 85.9786 176.658C80.2148 167.676 72.5815 160.043 63.5994 154.279C72.5815 148.515 80.2148 140.882 85.9786 131.9C91.7367 140.886 99.3711 148.521 108.358 154.279Z" fill="#C93112"/>
</svg>
