<svg width="172" height="239" viewBox="0 0 172 239" fill="none" xmlns="http://www.w3.org/2000/svg">
<path d="M160.576 0H11.3814C5.49581 0 0.724609 4.7712 0.724609 10.6568V228.055C0.724609 233.941 5.49581 238.712 11.3814 238.712H160.576C166.462 238.712 171.233 233.941 171.233 228.055V10.6568C171.233 4.7712 166.462 0 160.576 0Z" fill="#F9F1DF"/>
<path d="M32.8234 49.1495C32.2213 48.556 31.4097 48.2233 30.5642 48.2233C29.7187 48.2233 28.9071 48.556 28.3049 49.1495L26.9196 50.5349C27.2106 49.5728 27.782 48.7194 28.5607 48.0839C28.8748 47.7912 29.1267 47.4382 29.3015 47.0461C29.4762 46.6539 29.5702 46.2306 29.5778 45.8013C29.5853 45.372 29.5064 44.9456 29.3456 44.5475C29.1848 44.1494 28.9454 43.7878 28.6419 43.4842C28.3383 43.1807 27.9767 42.9413 27.5786 42.7805C27.1805 42.6197 26.7541 42.5408 26.3248 42.5483C25.8956 42.5559 25.4722 42.6499 25.08 42.8246C24.6879 42.9994 24.3349 43.2513 24.0422 43.5654C23.7432 43.8608 23.5058 44.2126 23.3438 44.6004C23.1818 44.9882 23.0983 45.4043 23.0983 45.8246C23.0983 46.2449 23.1818 46.6611 23.3438 47.0489C23.5058 47.4367 23.7432 47.7885 24.0422 48.0839C24.8075 48.7274 25.37 49.5787 25.6621 50.5349L24.298 49.1495C23.8499 48.7051 23.2802 48.4032 22.6607 48.2819C22.0413 48.1607 21.3998 48.2255 20.8171 48.4683C20.2345 48.711 19.7367 49.1208 19.3866 49.646C19.0364 50.1712 18.8496 50.7882 18.8496 51.4194C18.8496 52.0506 19.0364 52.6677 19.3866 53.1929C19.7367 53.7181 20.2345 54.1279 20.8171 54.3706C21.3998 54.6133 22.0413 54.6782 22.6607 54.557C23.2802 54.4357 23.8499 54.1338 24.298 53.6893L25.8752 52.0908C26.0008 53.9472 25.388 55.7781 24.1701 57.1848V57.6963H28.4328V57.1848C27.2106 55.7879 26.59 53.9646 26.7064 52.1121V51.9843L28.3049 53.5828C28.603 53.8795 28.9566 54.1145 29.3456 54.2746C29.7345 54.4346 30.1512 54.5164 30.5717 54.5155C30.9923 54.5145 31.4086 54.4306 31.7967 54.2688C32.1849 54.1069 32.5374 53.8702 32.8341 53.5721C33.1308 53.274 33.3658 52.9204 33.5259 52.5315C33.6859 52.1426 33.7677 51.7259 33.7668 51.3053C33.7658 50.8848 33.682 50.4685 33.5201 50.0803C33.3582 49.6922 33.1215 49.3397 32.8234 49.043V49.1495Z" fill="#1F1F1F"/>
<path d="M139.136 189.563C139.738 190.157 140.55 190.49 141.395 190.49C142.241 190.49 143.052 190.157 143.654 189.563L145.018 188.178C144.726 189.134 144.164 189.985 143.399 190.629C142.959 191.068 142.657 191.626 142.529 192.235C142.401 192.843 142.454 193.475 142.68 194.054C142.906 194.633 143.296 195.133 143.802 195.494C144.309 195.855 144.909 196.06 145.53 196.085C146.164 196.089 146.784 195.904 147.313 195.555C147.841 195.205 148.254 194.706 148.498 194.121C148.743 193.536 148.808 192.892 148.685 192.271C148.563 191.649 148.258 191.077 147.81 190.629C147.032 189.993 146.46 189.14 146.169 188.178L147.555 189.563C148.003 190.008 148.573 190.31 149.192 190.431C149.811 190.552 150.453 190.487 151.036 190.245C151.618 190.002 152.116 189.592 152.466 189.067C152.816 188.542 153.003 187.925 153.003 187.293C153.003 186.662 152.816 186.045 152.466 185.52C152.116 184.995 151.618 184.585 151.036 184.342C150.453 184.1 149.811 184.035 149.192 184.156C148.573 184.277 148.003 184.579 147.555 185.024L145.956 186.622C145.893 185.701 146.014 184.777 146.31 183.902C146.606 183.028 147.073 182.221 147.683 181.528V181.017H143.42V181.528C144.023 182.22 144.484 183.024 144.777 183.895C145.07 184.765 145.188 185.685 145.125 186.601V186.729L143.548 185.13C142.946 184.531 142.13 184.195 141.281 184.197C140.432 184.199 139.618 184.539 139.019 185.141C138.419 185.743 138.084 186.558 138.086 187.408C138.088 188.257 138.427 189.071 139.029 189.67L139.136 189.563Z" fill="#1F1F1F"/>
<path d="M31.9281 36.2333H20.4401L19.7581 34.3791C21.3139 33.015 22.5928 31.8427 23.6584 30.841C24.5596 30.0304 25.4069 29.1618 26.1948 28.2408C26.7463 27.5929 27.2119 26.8765 27.5801 26.1094C27.8499 25.5353 27.9952 24.9106 28.0064 24.2764C28.0223 23.8773 27.9504 23.4795 27.7957 23.1113C27.6411 22.743 27.4074 22.4131 27.1112 22.1451C26.5193 21.6383 25.7587 21.3721 24.9799 21.3991C24.2834 21.39 23.6002 21.5905 23.019 21.9746C22.3781 22.4223 21.8344 22.995 21.4205 23.6583L20.3122 22.7419C20.5069 22.218 20.7722 21.7232 21.1008 21.2712C21.4342 20.7814 21.8529 20.3554 22.337 20.0137C22.8658 19.6355 23.4576 19.3541 24.0847 19.1825C24.7707 18.9489 25.4914 18.8335 26.2161 18.8415C26.9409 18.831 27.662 18.9464 28.3474 19.1825C28.9689 19.3928 29.5415 19.7263 30.0312 20.1629C30.514 20.5954 30.8991 21.1258 31.1608 21.7188C31.4479 22.3917 31.5861 23.1188 31.5658 23.8502C31.5698 24.6963 31.3879 25.5331 31.0329 26.3012C30.6205 27.1764 30.074 27.9818 29.4131 28.6883C28.5648 29.5983 27.6454 30.4393 26.6636 31.2033C25.5553 32.0772 24.2765 33.0363 22.7846 34.0594H25.9603C26.5784 34.0594 27.1326 34.0594 27.6228 34.0594L28.8163 33.9315C29.0463 33.8965 29.2651 33.809 29.4557 33.6757C29.5858 33.5494 29.6875 33.3968 29.7541 33.2281L30.7132 31.0968L32.397 31.3099C32.397 32.0985 32.397 32.9724 32.2691 33.8888C32.1979 34.6759 32.084 35.4586 31.9281 36.2333Z" fill="#1F1F1F"/>
<path d="M139.966 202.479H151.454L152.115 204.333C150.581 205.697 149.28 206.87 148.215 207.871C147.324 208.693 146.478 209.561 145.678 210.472C145.135 211.125 144.67 211.841 144.293 212.603C144.029 213.178 143.891 213.803 143.888 214.436C143.868 214.834 143.936 215.231 144.087 215.599C144.238 215.968 144.468 216.298 144.762 216.567C145.357 217.069 146.115 217.334 146.893 217.313C147.589 217.316 148.27 217.116 148.854 216.738C149.483 216.283 150.019 215.712 150.431 215.054L151.54 215.97C151.361 216.497 151.102 216.993 150.772 217.441C150.433 217.926 150.015 218.351 149.536 218.699C149.022 219.086 148.445 219.381 147.831 219.572C146.447 220.028 144.953 220.028 143.568 219.572C142.949 219.358 142.377 219.025 141.885 218.592C141.409 218.153 141.025 217.625 140.755 217.036C140.468 216.363 140.33 215.636 140.35 214.905C140.356 214.06 140.538 213.225 140.883 212.454C141.303 211.578 141.857 210.773 142.524 210.067C143.365 209.157 144.277 208.316 145.252 207.552C146.36 206.678 147.661 205.719 149.131 204.696H145.956C145.359 204.696 144.805 204.696 144.293 204.696L143.121 204.823C142.883 204.855 142.657 204.943 142.46 205.079C142.337 205.211 142.236 205.362 142.162 205.527L141.224 207.765L139.519 207.552C139.519 206.763 139.519 205.889 139.647 204.973C139.705 204.136 139.812 203.303 139.966 202.479Z" fill="#1F1F1F"/>
<path d="M105.546 77.1335C103.741 75.3413 101.301 74.3355 98.7574 74.3355C96.2139 74.3355 93.7737 75.3413 91.969 77.1335L87.8555 81.2471C88.758 78.3861 90.4587 75.8425 92.7576 73.9152C94.096 72.5752 95.0077 70.8689 95.3777 69.0115C95.7478 67.1541 95.5597 65.2287 94.8371 63.4781C94.1145 61.7274 92.8898 60.2299 91.3173 59.1743C89.7449 58.1187 87.8951 57.5523 86.0012 57.5464C84.1055 57.5481 82.2528 58.1115 80.6771 59.1655C79.1014 60.2195 77.8734 61.7168 77.1482 63.4683C76.4229 65.2198 76.233 67.1469 76.6024 69.0063C76.9718 70.8657 77.8839 72.5739 79.2235 73.9152C81.536 75.8302 83.2397 78.3782 84.1256 81.2471L80.0121 77.1335C78.67 75.794 76.961 74.8824 75.101 74.5138C73.241 74.1452 71.3135 74.3362 69.5621 75.0626C67.8106 75.7891 66.3137 77.0184 65.2606 78.5953C64.2076 80.1721 63.6455 82.0258 63.6455 83.9219C63.6455 85.8181 64.2076 87.6717 65.2606 89.2486C66.3137 90.8254 67.8106 92.0547 69.5621 92.7812C71.3135 93.5077 73.241 93.6987 75.101 93.3301C76.961 92.9615 78.67 92.0498 80.0121 90.7103L84.7437 85.9574C84.7437 86.0639 84.7437 86.1279 84.7437 86.2344C84.7437 90.3906 84.1683 96.8912 79.6071 101.495V103.115H92.3953V101.495C87.8342 96.9552 87.1948 90.4545 87.2374 86.2984C87.2374 86.1705 87.2374 86.0852 87.2374 85.9574L91.969 90.7103C93.7694 92.5107 96.2112 93.5221 98.7574 93.5221C101.303 93.5221 103.745 92.5107 105.546 90.7103C107.346 88.9099 108.358 86.4681 108.358 83.9219C108.358 81.3758 107.346 78.9339 105.546 77.1335Z" fill="#1F1F1F"/>
<path d="M105.546 161.578C103.741 163.371 101.301 164.376 98.7576 164.376C96.2142 164.376 93.774 163.371 91.9692 161.578L87.8557 157.465C88.7582 160.326 90.459 162.869 92.7579 164.797C94.0962 166.137 95.0079 167.843 95.378 169.7C95.748 171.558 95.5599 173.483 94.8373 175.234C94.1147 176.984 92.89 178.482 91.3176 179.538C89.7451 180.593 87.8954 181.16 86.0015 181.166C84.1057 181.164 82.253 180.6 80.6773 179.546C79.1016 178.492 77.8736 176.995 77.1484 175.244C76.4232 173.492 76.2333 171.565 76.6026 169.706C76.972 167.846 77.8841 166.138 79.2237 164.797C81.5363 162.882 83.2399 160.334 84.1259 157.465L80.0124 161.578C78.6703 162.918 76.9613 163.83 75.1013 164.198C73.2413 164.567 71.3138 164.376 69.5623 163.649C67.8108 162.923 66.314 161.694 65.2609 160.117C64.2078 158.54 63.6458 156.686 63.6458 154.79C63.6458 152.894 64.2078 151.04 65.2609 149.463C66.314 147.887 67.8108 146.657 69.5623 145.931C71.3138 145.204 73.2413 145.013 75.1013 145.382C76.9613 145.75 78.6703 146.662 80.0124 148.002L84.744 152.755C84.744 152.755 84.744 152.584 84.744 152.478C84.744 148.215 84.1685 141.821 79.6074 137.217V135.597H92.3955V137.217C87.8344 141.757 87.195 148.257 87.2376 152.414C87.2376 152.541 87.2376 152.627 87.2376 152.755L91.9692 148.002C93.7696 146.201 96.2115 145.19 98.7576 145.19C101.304 145.19 103.746 146.201 105.546 148.002C107.346 149.802 108.358 152.244 108.358 154.79C108.358 157.336 107.346 159.778 105.546 161.578Z" fill="#1F1F1F"/>
</svg>
