<svg width="171" height="240" viewBox="0 0 171 240" fill="none" xmlns="http://www.w3.org/2000/svg">
<path d="M160.28 0.762695H11.085C5.19942 0.762695 0.428223 5.5339 0.428223 11.4195V228.818C0.428223 234.703 5.19942 239.475 11.085 239.475H160.28C166.165 239.475 170.937 234.703 170.937 228.818V11.4195C170.937 5.5339 166.165 0.762695 160.28 0.762695Z" fill="#F9F1DF"/>
<path d="M29.5637 45.5212C28.847 45.5332 28.1465 45.7373 27.5355 46.1122C26.9244 46.4871 26.4251 47.019 26.0896 47.6526C25.7595 47.0192 25.2644 46.4868 24.6566 46.1117C24.0488 45.7365 23.351 45.5325 22.6368 45.5212C21.5741 45.5212 20.5549 45.9434 19.8035 46.6949C19.0521 47.4463 18.6299 48.4655 18.6299 49.5282C18.6299 53.9401 24.9174 56.3059 26.0896 59.1193C27.2619 56.3059 33.5494 53.9401 33.5494 49.5282C33.5494 48.4692 33.1302 47.4532 32.3833 46.7024C31.6365 45.9515 30.6228 45.5269 29.5637 45.5212Z" fill="#C93112"/>
<path d="M141.907 193.651C142.621 193.64 143.319 193.436 143.927 193.06C144.535 192.685 145.03 192.153 145.36 191.519C145.792 192.288 146.467 192.892 147.279 193.236C148.091 193.58 148.994 193.645 149.847 193.421C150.7 193.197 151.455 192.696 151.993 191.997C152.531 191.298 152.821 190.441 152.82 189.559C152.82 185.147 146.426 182.781 145.36 179.968C144.188 182.781 137.9 185.147 137.9 189.559C137.889 190.092 137.984 190.622 138.18 191.118C138.377 191.614 138.67 192.066 139.043 192.447C139.417 192.828 139.862 193.131 140.354 193.338C140.846 193.545 141.374 193.651 141.907 193.651Z" fill="#C93112"/>
<path d="M31.8866 31.518C31.8885 32.2591 31.7131 32.9899 31.3751 33.6494C31.0136 34.2924 30.5282 34.8575 29.947 35.3119C29.3113 35.8051 28.5882 36.1738 27.8157 36.3988C26.9876 36.656 26.1252 36.7854 25.2581 36.7825C24.1307 36.8078 23.0112 36.5897 21.9758 36.1431C21.1475 35.7794 20.3844 35.2826 19.7166 34.6724L20.5691 33.4576C21.1225 33.8357 21.7248 34.1368 22.3594 34.3527C23.0451 34.5901 23.7652 34.7125 24.4908 34.715C24.9594 34.7185 25.4261 34.6539 25.8762 34.5232C26.3013 34.4223 26.7006 34.2335 27.0484 33.9691C27.383 33.7071 27.6528 33.3716 27.837 32.9887C28.0615 32.5317 28.1712 32.0269 28.1567 31.518C28.1879 31.1107 28.1339 30.7013 27.9981 30.316C27.8623 29.9307 27.6478 29.5779 27.3681 29.2801C26.8046 28.6927 26.0475 28.3293 25.2368 28.257C24.9283 28.3451 24.6152 28.4163 24.299 28.4702L23.3612 28.662L22.9562 27.1061C23.5472 26.9836 24.1253 26.8052 24.6826 26.5733C25.1818 26.3775 25.6544 26.1197 26.0893 25.806C26.4735 25.5232 26.7993 25.1685 27.0484 24.7616C27.2896 24.3478 27.4148 23.8765 27.4107 23.3976C27.4097 23.1105 27.3506 22.8265 27.237 22.5628C27.1235 22.2991 26.9578 22.0611 26.75 21.863C26.5163 21.6448 26.2413 21.4758 25.9411 21.3659C25.6408 21.2561 25.3216 21.2077 25.0023 21.2236C24.2969 21.2258 23.6051 21.4171 22.9988 21.7777C22.4219 22.102 21.8974 22.5115 21.4429 22.9926L20.4412 22.0122C20.9561 21.1299 21.6903 20.3957 22.5726 19.8808C24.1789 18.9939 26.0689 18.772 27.837 19.2627C28.3899 19.4154 28.91 19.6683 29.3716 20.0087C29.8128 20.3294 30.1768 20.7444 30.4373 21.2236C30.7014 21.7448 30.8332 22.3231 30.8209 22.9074C30.8252 23.4381 30.7086 23.9629 30.4799 24.4419C30.2667 24.9166 29.9708 25.3496 29.606 25.7208C29.2458 26.0994 28.8373 26.429 28.3912 26.7012C27.9689 26.9528 27.5181 27.1531 27.0484 27.2979C27.596 27.2876 28.142 27.3595 28.6682 27.5111C29.2129 27.6679 29.7253 27.9205 30.1815 28.257C30.6448 28.6152 31.0294 29.0651 31.3111 29.5785C31.673 30.1619 31.8717 30.8317 31.8866 31.518Z" fill="#C93112"/>
<path d="M139.499 207.653C139.497 206.912 139.673 206.181 140.011 205.522C140.358 204.875 140.837 204.309 141.417 203.859C142.056 203.37 142.778 203.001 143.549 202.772C144.377 202.515 145.239 202.386 146.106 202.389C147.233 202.367 148.352 202.585 149.389 203.028C150.215 203.395 150.978 203.892 151.648 204.499L150.795 205.714C150.239 205.34 149.638 205.039 149.005 204.818C148.319 204.583 147.599 204.46 146.874 204.456C146.398 204.454 145.925 204.519 145.467 204.648C145.047 204.745 144.654 204.934 144.316 205.202C143.975 205.463 143.698 205.798 143.506 206.182C143.301 206.646 143.193 207.146 143.187 207.653C143.143 208.474 143.427 209.278 143.975 209.891C144.542 210.474 145.297 210.836 146.106 210.914L147.044 210.701L147.982 210.509L148.408 212.065C147.816 212.181 147.237 212.36 146.682 212.598C146.174 212.788 145.693 213.046 145.254 213.365C144.881 213.654 144.564 214.008 144.316 214.409C144.075 214.823 143.95 215.295 143.954 215.774C143.944 216.062 143.998 216.349 144.113 216.615C144.227 216.88 144.398 217.117 144.615 217.308C144.844 217.527 145.115 217.696 145.412 217.806C145.709 217.916 146.025 217.964 146.341 217.948C147.089 217.964 147.827 217.772 148.472 217.393C149.045 217.064 149.569 216.655 150.028 216.179L151.03 217.159C150.515 218.041 149.781 218.775 148.899 219.29C147.856 219.89 146.669 220.193 145.467 220.164C144.84 220.166 144.216 220.08 143.613 219.908C143.063 219.747 142.545 219.495 142.078 219.162C141.643 218.841 141.286 218.426 141.034 217.948C140.77 217.426 140.638 216.848 140.65 216.264C140.649 215.736 140.758 215.213 140.97 214.729C141.199 214.263 141.493 213.833 141.844 213.45C142.204 213.072 142.613 212.742 143.059 212.47C143.49 212.222 143.948 212.022 144.423 211.873C143.875 211.885 143.329 211.813 142.803 211.66C142.252 211.503 141.732 211.251 141.268 210.914C140.81 210.55 140.427 210.102 140.139 209.593C139.754 209.016 139.533 208.345 139.499 207.653Z" fill="#C93112"/>
<path d="M90.4991 39.3403C88.6628 39.3424 86.8605 39.8355 85.279 40.7687C83.6975 41.7018 82.3944 43.041 81.5047 44.6474C80.3834 42.6457 78.6292 41.0729 76.5173 40.1759C74.4055 39.2789 72.0557 39.1084 69.8365 39.6913C67.6173 40.2741 65.6545 41.5773 64.256 43.3962C62.8575 45.2151 62.1025 47.4469 62.1094 49.7413C62.1094 61.208 78.4356 67.3676 81.5047 74.6782C84.5526 67.3676 100.9 61.208 100.9 49.7413C100.9 46.9828 99.8043 44.3373 97.8537 42.3867C95.9031 40.4361 93.2576 39.3403 90.4991 39.3403Z" fill="#C93112"/>
<path d="M90.4991 103.281C88.6628 103.283 86.8605 103.776 85.279 104.71C83.6975 105.643 82.3944 106.982 81.5047 108.588C80.3834 106.587 78.6292 105.014 76.5173 104.117C74.4055 103.22 72.0557 103.049 69.8365 103.632C67.6173 104.215 65.6545 105.518 64.256 107.337C62.8575 109.156 62.1025 111.388 62.1094 113.682C62.1094 125.149 78.4356 131.309 81.5047 138.619C84.5526 131.309 100.9 125.149 100.9 113.682C100.9 110.924 99.8043 108.278 97.8537 106.328C95.9031 104.377 93.2576 103.281 90.4991 103.281Z" fill="#C93112"/>
<path d="M90.4991 199.832C88.6628 199.83 86.8605 199.337 85.279 198.404C83.6975 197.471 82.3944 196.131 81.5047 194.525C80.3834 196.527 78.6292 198.099 76.5173 198.996C74.4055 199.893 72.0557 200.064 69.8365 199.481C67.6173 198.898 65.6545 197.595 64.256 195.776C62.8575 193.957 62.1025 191.725 62.1094 189.431C62.1094 177.964 78.4356 171.805 81.5047 164.494C84.5526 171.805 100.9 177.964 100.9 189.431C100.9 192.19 99.8043 194.835 97.8537 196.786C95.9031 198.736 93.2576 199.832 90.4991 199.832Z" fill="#C93112"/>
</svg>
