<svg width="171" height="240" viewBox="0 0 171 240" fill="none" xmlns="http://www.w3.org/2000/svg">
<path d="M160.28 0.525391H11.085C5.19942 0.525391 0.428223 5.29659 0.428223 11.1822V228.58C0.428223 234.466 5.19942 239.237 11.085 239.237H160.28C166.165 239.237 170.937 234.466 170.937 228.58V11.1822C170.937 5.29659 166.165 0.525391 160.28 0.525391Z" fill="#F9F1DF"/>
<path d="M26.0041 41.8306C24.8531 44.7505 19.0771 45.8375 19.0771 50.356C19.0828 51.3415 19.4782 52.2848 20.1771 52.9797C20.876 53.6745 21.8215 54.0645 22.807 54.0645C23.3225 54.064 23.8325 53.9578 24.3054 53.7525C24.7783 53.5472 25.204 53.2472 25.5565 52.871C25.4514 54.3175 24.8577 55.6854 23.8727 56.7501V57.2616H28.1354V56.7501C27.1582 55.6825 26.5721 54.3149 26.473 52.871C26.9858 53.3948 27.6416 53.756 28.3584 53.9093C29.0753 54.0626 29.8214 54.0012 30.5036 53.7329C31.1858 53.4645 31.7738 53.0011 32.1941 52.4005C32.6145 51.7999 32.8485 51.0888 32.867 50.356C32.931 45.8375 27.155 44.7505 26.0041 41.8306Z" fill="#1F1F1F"/>
<path d="M145.36 195.799C146.532 192.879 152.287 191.792 152.287 187.274C152.268 186.541 152.034 185.83 151.614 185.229C151.194 184.629 150.605 184.165 149.923 183.897C149.241 183.629 148.495 183.567 147.778 183.721C147.061 183.874 146.405 184.235 145.893 184.759C145.992 183.315 146.578 181.948 147.555 180.88V180.368H143.292V180.88C144.277 181.945 144.871 183.312 144.976 184.759C144.624 184.383 144.198 184.083 143.725 183.877C143.252 183.672 142.742 183.566 142.227 183.565C141.241 183.565 140.296 183.955 139.597 184.65C138.898 185.345 138.502 186.288 138.497 187.274C138.433 191.792 144.209 192.879 145.36 195.799Z" fill="#1F1F1F"/>
<path d="M31.8863 30.7475C31.8882 31.4886 31.7129 32.2194 31.3748 32.8789C31.0133 33.5219 30.5279 34.087 29.9468 34.5414C29.3111 35.0346 28.588 35.4033 27.8154 35.6283C26.9874 35.8855 26.1249 36.0149 25.2578 36.012C24.1305 36.0372 23.011 35.8192 21.9755 35.3726C21.1473 35.0089 20.3841 34.5121 19.7163 33.9019L20.5688 32.687C21.1223 33.0652 21.7246 33.3663 22.3592 33.5822C23.0448 33.8196 23.765 33.942 24.4905 33.9445C24.9592 33.948 25.4259 33.8834 25.8759 33.7527C26.301 33.6518 26.7003 33.463 27.0482 33.1986C27.3828 32.9366 27.6526 32.6011 27.8368 32.2181C28.0612 31.7612 28.171 31.2564 28.1565 30.7475C28.1876 30.3402 28.1336 29.9308 27.9979 29.5455C27.8621 29.1602 27.6475 28.8074 27.3679 28.5096C26.8044 27.9222 26.0473 27.5588 25.2365 27.4865C24.928 27.5746 24.615 27.6458 24.2987 27.6997L23.3609 27.8915L22.9559 26.3356C23.5439 26.2104 24.1211 26.0393 24.6824 25.8241C25.1788 25.6137 25.6506 25.3493 26.089 25.0355C26.4733 24.7527 26.7991 24.398 27.0482 23.9911C27.2894 23.5773 27.4146 23.106 27.4105 22.627C27.4094 22.3399 27.3503 22.056 27.2368 21.7923C27.1232 21.5286 26.9576 21.2906 26.7498 21.0925C26.5161 20.8743 26.241 20.7053 25.9408 20.5954C25.6406 20.4856 25.3213 20.4372 25.0021 20.4531C24.2967 20.4553 23.6048 20.6466 22.9986 21.0072C22.4217 21.3314 21.8971 21.741 21.4427 22.2221L20.441 21.2417C20.9558 20.3594 21.69 19.6252 22.5723 19.1103C24.1787 18.2234 26.0687 18.0015 27.8368 18.4922C28.3896 18.6449 28.9098 18.8978 29.3713 19.2382C29.8125 19.5588 30.1766 19.9739 30.437 20.4531C30.7012 20.9743 30.8329 21.5526 30.8207 22.1368C30.825 22.6676 30.7083 23.1924 30.4796 23.6714C30.2664 24.1461 29.9706 24.5791 29.6058 24.9502C29.2455 25.3288 28.8371 25.6585 28.3909 25.9307C27.9686 26.1823 27.5179 26.3826 27.0482 26.5274C27.5957 26.5171 28.1417 26.589 28.668 26.7406C29.2127 26.8974 29.7251 27.15 30.1812 27.4865C30.6446 27.8447 31.0291 28.2946 31.3109 28.808C31.6728 29.3914 31.8715 30.0612 31.8863 30.7475Z" fill="#1F1F1F"/>
<path d="M139.499 206.882C139.497 206.141 139.673 205.41 140.011 204.751C140.358 204.104 140.837 203.538 141.417 203.089C142.055 202.599 142.778 202.231 143.549 202.002C144.377 201.744 145.239 201.615 146.106 201.618C147.233 201.597 148.352 201.814 149.389 202.257C150.215 202.625 150.977 203.121 151.648 203.728L150.795 204.943C150.239 204.569 149.638 204.268 149.005 204.048C148.319 203.812 147.599 203.689 146.874 203.685C146.398 203.683 145.924 203.748 145.467 203.877C145.047 203.974 144.654 204.163 144.316 204.431C143.975 204.692 143.698 205.027 143.506 205.412C143.301 205.875 143.192 206.376 143.186 206.882C143.143 207.703 143.427 208.508 143.975 209.12C144.542 209.703 145.297 210.066 146.106 210.143L147.044 209.93L147.982 209.738L148.408 211.294C147.819 211.414 147.241 211.585 146.682 211.806C146.176 212.011 145.697 212.276 145.254 212.594C144.881 212.884 144.564 213.237 144.316 213.639C144.075 214.053 143.95 214.524 143.954 215.003C143.944 215.291 143.998 215.579 144.112 215.844C144.227 216.109 144.398 216.346 144.614 216.537C144.843 216.756 145.115 216.925 145.411 217.035C145.708 217.145 146.025 217.193 146.341 217.177C147.089 217.194 147.827 217.002 148.472 216.623C149.045 216.293 149.569 215.884 150.028 215.408L151.03 216.388C150.515 217.27 149.781 218.005 148.898 218.52C147.856 219.12 146.669 219.422 145.467 219.393C144.84 219.395 144.216 219.309 143.613 219.138C143.063 218.976 142.544 218.724 142.078 218.392C141.643 218.07 141.286 217.655 141.034 217.177C140.769 216.656 140.638 216.077 140.65 215.493C140.649 214.965 140.758 214.442 140.97 213.958C141.198 213.493 141.493 213.062 141.844 212.68C142.204 212.301 142.612 211.971 143.058 211.699C143.49 211.451 143.947 211.251 144.422 211.102C143.875 211.114 143.329 211.043 142.803 210.889C142.251 210.733 141.732 210.48 141.268 210.143C140.81 209.78 140.426 209.331 140.138 208.822C139.754 208.245 139.533 207.575 139.499 206.882Z" fill="#1F1F1F"/>
<path d="M81.4836 30.9397C78.4997 38.5913 63.4737 41.3834 63.4737 53.1058C63.4669 55.0592 64.0514 56.9689 65.1505 58.5838C66.2495 60.1987 67.8116 61.4431 69.6313 62.1535C71.4509 62.8638 73.443 63.0068 75.3455 62.5636C77.2479 62.1204 78.9717 61.1118 80.2901 59.6704C80.0664 63.42 78.5615 66.979 76.0274 69.7517V71.1157H87.1104V69.7517C84.5748 66.98 83.0697 63.4204 82.8477 59.6704C84.1629 61.1153 85.8855 62.1272 87.7879 62.5724C89.6903 63.0176 91.6831 62.8752 93.5028 62.164C95.3226 61.4527 96.8837 60.2061 97.98 58.5888C99.0763 56.9715 99.6561 55.0596 99.6428 53.1058C99.4936 41.3834 84.4889 38.5913 81.4836 30.9397Z" fill="#1F1F1F"/>
<path d="M81.4839 94.8804C78.5 102.532 63.4739 105.324 63.4739 117.047C63.4671 119 64.0517 120.91 65.1507 122.525C66.2497 124.139 67.8118 125.384 69.6315 126.094C71.4512 126.805 73.4432 126.947 75.3457 126.504C77.2482 126.061 78.9719 125.052 80.2903 123.611C80.0666 127.361 78.5618 130.92 76.0276 133.692V135.056H87.1107V133.692C84.575 130.921 83.0699 127.361 82.848 123.611C84.1631 125.056 85.8857 126.068 87.7881 126.513C89.6906 126.958 91.6833 126.816 93.5031 126.105C95.3228 125.393 96.884 124.147 97.9802 122.529C99.0765 120.912 99.6563 119 99.643 117.047C99.4939 105.324 84.4891 102.532 81.4839 94.8804Z" fill="#1F1F1F"/>
<path d="M81.4839 206.691C78.5 199.039 63.4739 196.247 63.4739 184.525C63.4671 182.571 64.0517 180.662 65.1507 179.047C66.2497 177.432 67.8118 176.187 69.6315 175.477C71.4512 174.767 73.4432 174.624 75.3457 175.067C77.2482 175.51 78.9719 176.519 80.2903 177.96C80.0666 174.211 78.5618 170.652 76.0276 167.879V166.515H87.1107V167.879C84.575 170.651 83.0699 174.21 82.848 177.96C84.1631 176.515 85.8857 175.503 87.7881 175.058C89.6906 174.613 91.6833 174.755 93.5031 175.467C95.3228 176.178 96.884 177.425 97.9802 179.042C99.0765 180.659 99.6563 182.571 99.643 184.525C99.4939 196.247 84.4891 199.039 81.4839 206.691Z" fill="#1F1F1F"/>
</svg>
