<svg width="171" height="239" viewBox="0 0 171 239" fill="none" xmlns="http://www.w3.org/2000/svg">
<path d="M160.28 0.288086H11.085C5.19942 0.288086 0.428223 5.05929 0.428223 10.9449V228.343C0.428223 234.229 5.19942 239 11.085 239H160.28C166.165 239 170.937 234.229 170.937 228.343V10.9449C170.937 5.05929 166.165 0.288086 160.28 0.288086Z" fill="#F9F1DF"/>
<path d="M26.0047 57.3021C24.0853 54.3065 21.5405 51.7617 18.5449 49.8423C21.5405 47.923 24.0853 45.3782 26.0047 42.3826C27.9298 45.3735 30.4735 47.9172 33.4644 49.8423C30.4735 51.7674 27.9298 54.3111 26.0047 57.3021Z" fill="#C93112"/>
<path d="M145.361 178.79C147.286 181.781 149.83 184.324 152.821 186.249C149.83 188.174 147.286 190.718 145.361 193.709C143.442 190.713 140.897 188.169 137.901 186.249C140.897 184.33 143.442 181.785 145.361 178.79Z" fill="#C93112"/>
<path d="M31.8868 29.978C31.8887 30.7191 31.7134 31.4498 31.3753 32.1093C31.0138 32.7524 30.5284 33.3174 29.9473 33.7718C29.3115 34.265 28.5884 34.6338 27.8159 34.8588C26.9879 35.116 26.1254 35.2454 25.2583 35.2424C24.131 35.2677 23.0114 35.0496 21.976 34.603C21.1478 34.2394 20.3846 33.7426 19.7168 33.1324L20.5693 31.9175C21.1228 32.2957 21.7251 32.5968 22.3597 32.8127C23.0453 33.0501 23.7655 33.1725 24.491 33.175C24.9597 33.1785 25.4263 33.1139 25.8764 32.9832C26.3015 32.8822 26.7008 32.6935 27.0487 32.429C27.3832 32.167 27.6531 31.8316 27.8373 31.4486C28.0617 30.9917 28.1714 30.4869 28.1569 29.978C28.1881 29.5706 28.1341 29.1613 27.9983 28.776C27.8626 28.3907 27.648 28.0379 27.3684 27.7401C26.8049 27.1527 26.0477 26.7892 25.237 26.717C24.9285 26.8051 24.6154 26.8763 24.2992 26.9302L23.3614 27.122L22.9564 25.5661C23.5475 25.4435 24.1256 25.2651 24.6829 25.0332C25.1821 24.8374 25.6547 24.5797 26.0895 24.266C26.4738 23.9832 26.7995 23.6285 27.0487 23.2216C27.2899 22.8078 27.415 22.3365 27.411 21.8575C27.4099 21.5704 27.3508 21.2865 27.2373 21.0228C27.1237 20.7591 26.9581 20.521 26.7502 20.3229C26.5166 20.1048 26.2415 19.9358 25.9413 19.8259C25.6411 19.7161 25.3218 19.6677 25.0026 19.6836C24.2972 19.6857 23.6053 19.8771 22.9991 20.2377C22.4222 20.5619 21.8976 20.9715 21.4432 21.4526L20.4415 20.4721C20.9563 19.5898 21.6905 18.8556 22.5728 18.3408C24.1792 17.4539 26.0692 17.232 27.8373 17.7227C28.3901 17.8754 28.9102 18.1282 29.3718 18.4687C29.813 18.7893 30.1771 19.2044 30.4375 19.6836C30.7017 20.2048 30.8334 20.7831 30.8211 21.3673C30.8255 21.8981 30.7088 22.4229 30.4801 22.9019C30.2669 23.3765 29.9711 23.8096 29.6063 24.1807C29.246 24.5593 28.8375 24.889 28.3914 25.1612C27.9691 25.4128 27.5184 25.6131 27.0487 25.7579C27.5962 25.7476 28.1422 25.8194 28.6685 25.971C29.2132 26.1279 29.7256 26.3805 30.1817 26.717C30.645 27.0752 31.0296 27.525 31.3114 28.0384C31.6733 28.6218 31.872 29.2916 31.8868 29.978Z" fill="#C93112"/>
<path d="M139.5 206.113C139.498 205.372 139.673 204.641 140.011 203.982C140.358 203.335 140.838 202.769 141.418 202.319C142.056 201.83 142.778 201.462 143.549 201.232C144.377 200.975 145.24 200.846 146.107 200.849C147.234 200.828 148.352 201.045 149.389 201.488C150.215 201.856 150.978 202.352 151.648 202.959L150.796 204.174C150.24 203.8 149.638 203.499 149.005 203.279C148.319 203.043 147.599 202.92 146.874 202.916C146.398 202.914 145.925 202.979 145.467 203.108C145.047 203.205 144.654 203.394 144.316 203.662C143.975 203.923 143.698 204.258 143.506 204.643C143.302 205.106 143.193 205.607 143.187 206.113C143.144 206.934 143.427 207.739 143.975 208.351C144.542 208.934 145.298 209.296 146.107 209.374L147.045 209.14L147.982 208.969L148.409 210.525C147.816 210.641 147.237 210.82 146.682 211.058C146.174 211.248 145.693 211.506 145.254 211.825C144.882 212.115 144.564 212.468 144.316 212.87C144.075 213.284 143.95 213.755 143.954 214.234C143.944 214.522 143.999 214.81 144.113 215.075C144.227 215.34 144.398 215.577 144.615 215.768C144.844 215.987 145.115 216.156 145.412 216.266C145.709 216.376 146.025 216.424 146.341 216.408C147.089 216.425 147.827 216.233 148.473 215.854C149.046 215.524 149.569 215.115 150.028 214.639L151.03 215.619C150.508 216.496 149.775 217.228 148.899 217.75C147.854 218.343 146.668 218.638 145.467 218.603C144.84 218.605 144.216 218.519 143.613 218.347C143.063 218.186 142.545 217.934 142.078 217.601C141.644 217.28 141.287 216.865 141.034 216.386C140.77 215.865 140.638 215.287 140.65 214.703C140.65 214.175 140.759 213.652 140.97 213.168C141.199 212.702 141.493 212.272 141.844 211.889C142.204 211.511 142.613 211.181 143.059 210.909C143.49 210.661 143.948 210.461 144.423 210.312C143.875 210.324 143.329 210.252 142.803 210.099C142.247 209.944 141.726 209.683 141.269 209.332C140.807 208.98 140.423 208.537 140.139 208.031C139.758 207.461 139.537 206.798 139.5 206.113Z" fill="#C93112"/>
<path d="M81.5049 72.4345C76.511 64.6489 69.8953 58.033 62.1096 53.0391C69.8953 48.0453 76.511 41.4294 81.5049 33.6438C86.4988 41.4294 93.1146 48.0453 100.9 53.0391C93.1146 58.033 86.4988 64.6489 81.5049 72.4345Z" fill="#C93112"/>
<path d="M81.5049 136.375C76.511 128.59 69.8953 121.974 62.1096 116.98C69.8953 111.986 76.511 105.37 81.5049 97.5845C86.4988 105.37 93.1146 111.986 100.9 116.98C93.1146 121.974 86.4988 128.59 81.5049 136.375Z" fill="#C93112"/>
<path d="M100.9 183.052C93.1146 188.046 86.4988 194.662 81.5049 202.447C76.511 194.662 69.8953 188.046 62.1096 183.052C69.8953 178.058 76.511 171.442 81.5049 163.656C86.4988 171.442 93.1146 178.058 100.9 183.052Z" fill="#C93112"/>
</svg>
