<svg width="171" height="239" viewBox="0 0 171 239" fill="none" xmlns="http://www.w3.org/2000/svg">
<path d="M160.28 0H11.085C5.19942 0 0.428223 4.7712 0.428223 10.6568V228.055C0.428223 233.941 5.19942 238.712 11.085 238.712H160.28C166.165 238.712 170.937 233.941 170.937 228.055V10.6568C170.937 4.7712 166.165 0 160.28 0Z" fill="#F9F1DF"/>
<path d="M32.5264 49.149C31.9243 48.5554 31.1127 48.2227 30.2672 48.2227C29.4217 48.2227 28.6101 48.5554 28.008 49.149L26.6439 50.5343C26.9359 49.5781 27.4985 48.7268 28.2637 48.0833C28.7034 47.644 29.0056 47.0861 29.1332 46.4778C29.2608 45.8695 29.2083 45.2372 28.9821 44.6582C28.756 44.0793 28.366 43.5788 27.8599 43.2181C27.3537 42.8573 26.7534 42.6519 26.1324 42.627C25.4986 42.6233 24.8781 42.8081 24.3496 43.1578C23.8211 43.5075 23.4084 44.0064 23.164 44.5911C22.9197 45.1758 22.8546 45.82 22.977 46.4417C23.0995 47.0635 23.404 47.6349 23.8518 48.0833C24.6306 48.7188 25.2019 49.5722 25.4929 50.5343L24.1076 49.149C23.6594 48.7045 23.0897 48.4026 22.4703 48.2813C21.8508 48.1601 21.2094 48.2249 20.6267 48.4677C20.0441 48.7104 19.5463 49.1202 19.1961 49.6454C18.846 50.1706 18.6592 50.7877 18.6592 51.4189C18.6592 52.05 18.846 52.6671 19.1961 53.1923C19.5463 53.7175 20.0441 54.1273 20.6267 54.37C21.2094 54.6128 21.8508 54.6776 22.4703 54.5564C23.0897 54.4351 23.6594 54.1332 24.1076 53.6887L25.6848 52.0902C25.7476 53.0112 25.6274 53.9356 25.3311 54.8099C25.0348 55.6842 24.5682 56.4911 23.9584 57.1842V57.6957H28.2211V57.1842C27.6177 56.4921 27.1565 55.6878 26.8639 54.8175C26.5714 53.9471 26.4532 53.0276 26.516 52.1115V51.9837L28.0932 53.5822C28.6952 54.1814 29.5106 54.5169 30.36 54.5149C31.2094 54.5129 32.0231 54.1735 32.6223 53.5715C33.2215 52.9695 33.557 52.1541 33.555 51.3047C33.553 50.4554 33.2137 49.6416 32.6117 49.0424L32.5264 49.149Z" fill="#1F1F1F"/>
<path d="M138.839 189.563C139.441 190.157 140.252 190.49 141.098 190.49C141.943 190.49 142.755 190.157 143.357 189.563L144.742 188.178C144.451 189.14 143.88 189.993 143.101 190.629C142.787 190.922 142.535 191.275 142.361 191.667C142.186 192.059 142.092 192.482 142.084 192.912C142.077 193.341 142.156 193.767 142.316 194.165C142.477 194.563 142.717 194.925 143.02 195.229C143.324 195.532 143.685 195.772 144.083 195.932C144.482 196.093 144.908 196.172 145.337 196.165C145.766 196.157 146.19 196.063 146.582 195.888C146.974 195.714 147.327 195.462 147.62 195.147C147.919 194.852 148.156 194.5 148.318 194.112C148.48 193.725 148.564 193.309 148.564 192.888C148.564 192.468 148.48 192.052 148.318 191.664C148.156 191.276 147.919 190.924 147.62 190.629C146.855 189.985 146.292 189.134 146 188.178L147.364 189.563C147.812 190.008 148.382 190.31 149.001 190.431C149.621 190.552 150.262 190.487 150.845 190.245C151.428 190.002 151.925 189.592 152.275 189.067C152.626 188.542 152.812 187.925 152.812 187.293C152.812 186.662 152.626 186.045 152.275 185.52C151.925 184.995 151.428 184.585 150.845 184.342C150.262 184.1 149.621 184.035 149.001 184.156C148.382 184.277 147.812 184.579 147.364 185.024L145.787 186.622C145.661 184.766 146.274 182.935 147.492 181.528V181.017H143.229V181.528C144.451 182.925 145.072 184.748 144.956 186.601V186.729L143.357 185.13C143.059 184.833 142.705 184.598 142.316 184.438C141.928 184.278 141.511 184.196 141.09 184.197C140.67 184.198 140.253 184.282 139.865 184.444C139.477 184.606 139.125 184.843 138.828 185.141C138.531 185.439 138.296 185.792 138.136 186.181C137.976 186.57 137.894 186.987 137.895 187.408C137.896 187.828 137.98 188.244 138.142 188.633C138.304 189.021 138.541 189.373 138.839 189.67V189.563Z" fill="#1F1F1F"/>
<path d="M31.8866 31.288C31.8885 32.0291 31.7131 32.7599 31.3751 33.4194C31.0136 34.0624 30.5282 34.6275 29.947 35.0818C29.3113 35.575 28.5882 35.9438 27.8157 36.1688C26.9876 36.426 26.1252 36.5554 25.2581 36.5525C24.1307 36.5778 23.0112 36.3597 21.9758 35.9131C21.1475 35.5494 20.3844 35.0526 19.7166 34.4424L20.5691 33.2276C21.1225 33.6057 21.7248 33.9069 22.3594 34.1227C23.0451 34.3601 23.7652 34.4825 24.4908 34.4851C24.9594 34.4886 25.4261 34.4239 25.8762 34.2932C26.3013 34.1923 26.7006 34.0035 27.0484 33.7391C27.383 33.4771 27.6528 33.1416 27.837 32.7587C28.0615 32.3017 28.1712 31.7969 28.1567 31.288C28.1732 30.8982 28.112 30.509 27.9766 30.1431C27.8412 29.7772 27.6344 29.4419 27.3681 29.1567C26.8046 28.5693 26.0475 28.2059 25.2368 28.1336C24.9283 28.2217 24.6152 28.2929 24.299 28.3468L23.3612 28.5386L22.9562 26.9827C23.5441 26.8574 24.1214 26.6864 24.6826 26.4712C25.1791 26.2608 25.6508 25.9964 26.0893 25.6826C26.4735 25.3998 26.7993 25.0451 27.0484 24.6382C27.2896 24.2244 27.4148 23.7531 27.4107 23.2741C27.4097 22.987 27.3506 22.7031 27.237 22.4394C27.1235 22.1757 26.9578 21.9377 26.75 21.7396C26.5163 21.5214 26.2413 21.3524 25.9411 21.2425C25.6408 21.1327 25.3216 21.0843 25.0023 21.1001C24.2969 21.1023 23.6051 21.2937 22.9988 21.6543C22.4219 21.9785 21.8974 22.3881 21.4429 22.8692L20.4412 21.8888C20.9561 21.0065 21.6903 20.2722 22.5726 19.7574C23.3882 19.3083 24.285 19.0261 25.2108 18.9273C26.1367 18.8285 27.0729 18.915 27.9649 19.1819C28.5177 19.3346 29.0379 19.5875 29.4995 19.9279C29.9406 20.2485 30.3047 20.6636 30.5651 21.1428C30.8293 21.664 30.9611 22.2423 30.9488 22.8265C30.9531 23.3573 30.8365 23.8821 30.6078 24.3611C30.3946 24.8358 30.0987 25.2688 29.7339 25.6399C29.3736 26.0185 28.9652 26.3482 28.519 26.6204C28.0968 26.872 27.646 27.0723 27.1763 27.2171C27.7239 27.2068 28.2699 27.2787 28.7961 27.4303C29.3408 27.5871 29.8533 27.8397 30.3094 28.1763C30.7727 28.5345 31.1572 28.9843 31.439 29.4977C31.7317 30.0492 31.8853 30.6637 31.8866 31.288Z" fill="#1F1F1F"/>
<path d="M139.499 207.423C139.497 206.682 139.673 205.951 140.011 205.292C140.358 204.645 140.837 204.079 141.417 203.629C142.056 203.14 142.778 202.771 143.549 202.542C144.377 202.285 145.239 202.156 146.106 202.159C147.233 202.137 148.352 202.355 149.389 202.798C150.215 203.165 150.978 203.662 151.648 204.269L150.795 205.484C150.212 205.111 149.581 204.817 148.92 204.61C148.234 204.374 147.514 204.251 146.789 204.247C146.313 204.245 145.839 204.31 145.382 204.439C144.962 204.536 144.569 204.725 144.231 204.993C143.89 205.254 143.613 205.589 143.421 205.974C143.216 206.437 143.107 206.938 143.101 207.444C143.086 208.229 143.368 208.99 143.89 209.576C144.457 210.158 145.212 210.521 146.021 210.599L146.959 210.386L147.897 210.194L148.323 211.75C147.734 211.869 147.156 212.04 146.597 212.261C146.091 212.467 145.612 212.732 145.169 213.05C144.796 213.339 144.479 213.693 144.231 214.094C143.99 214.508 143.865 214.979 143.869 215.458C143.859 215.747 143.913 216.034 144.027 216.3C144.142 216.565 144.313 216.802 144.529 216.993C144.758 217.211 145.03 217.381 145.326 217.491C145.623 217.601 145.94 217.649 146.256 217.632C147.004 217.649 147.742 217.457 148.387 217.078C148.96 216.748 149.484 216.339 149.943 215.863L150.945 216.844C150.43 217.726 149.696 218.46 148.813 218.975C147.771 219.575 146.584 219.877 145.382 219.849C144.755 219.851 144.131 219.765 143.528 219.593C142.978 219.432 142.459 219.18 141.993 218.847C141.558 218.526 141.201 218.111 140.949 217.632C140.684 217.111 140.553 216.533 140.565 215.949C140.564 215.42 140.673 214.898 140.885 214.414C141.113 213.948 141.408 213.518 141.759 213.135C142.119 212.757 142.527 212.427 142.973 212.155C143.405 211.907 143.862 211.706 144.337 211.558C143.79 211.57 143.244 211.498 142.718 211.345C142.166 211.188 141.647 210.936 141.183 210.599C140.725 210.235 140.341 209.787 140.053 209.277C139.713 208.717 139.523 208.078 139.499 207.423Z" fill="#1F1F1F"/>
<path d="M98.4491 49.1707C97.6803 48.3955 96.7656 47.7802 95.7577 47.3602C94.7499 46.9403 93.669 46.7241 92.5772 46.7241C91.4854 46.7241 90.4044 46.9403 89.3965 47.3602C88.3887 47.7802 87.4741 48.3955 86.7053 49.1707L83.1459 52.7301C83.9192 50.2316 85.3998 48.0107 87.4086 46.336C88.1845 45.5654 88.8003 44.6489 89.2205 43.6393C89.6407 42.6297 89.857 41.547 89.857 40.4535C89.857 39.3599 89.6407 38.2772 89.2205 37.2676C88.8003 36.258 88.1845 35.3415 87.4086 34.5709C86.6444 33.7997 85.7346 33.1878 84.7322 32.7707C83.7297 32.3537 82.6544 32.1397 81.5687 32.1412C79.9214 32.135 78.3095 32.6184 76.9375 33.53C75.5655 34.4416 74.4952 35.7403 73.8627 37.2613C73.2301 38.7822 73.0636 40.4568 73.3845 42.0725C73.7054 43.6883 74.4991 45.1722 75.6649 46.336C77.6728 48.0115 79.1532 50.2321 79.9276 52.7301L76.3469 49.1707C75.185 48.0066 73.704 47.2133 72.0911 46.8912C70.4782 46.5692 68.8061 46.7328 67.2862 47.3615C65.7664 47.9901 64.4672 49.0555 63.5531 50.4228C62.6391 51.7901 62.1511 53.3979 62.1511 55.0426C62.1511 56.6873 62.6391 58.295 63.5531 59.6624C64.4672 61.0297 65.7664 62.0951 67.2862 62.7237C68.8061 63.3524 70.4782 63.516 72.0911 63.194C73.704 62.8719 75.185 62.0786 76.3469 60.9145L80.4604 56.8223C80.4604 56.8223 80.4604 56.9715 80.4604 57.0354C80.6298 59.4397 80.3194 61.8536 79.5474 64.1369C78.7753 66.4201 77.557 68.527 75.9632 70.3351V71.6991H87.1102V70.3351C83.1672 66.3921 82.6131 60.744 82.6344 57.142C82.6344 57.0354 82.6344 56.9502 82.6344 56.8649L86.7479 60.9571C87.5057 61.7854 88.4234 62.4516 89.4458 62.9155C90.4681 63.3794 91.5738 63.6314 92.6961 63.6563C93.8185 63.6812 94.9343 63.4785 95.9762 63.0604C97.018 62.6423 97.9644 62.0175 98.7583 61.2237C99.5521 60.4299 100.177 59.4835 100.595 58.4416C101.013 57.3997 101.216 56.2839 101.191 55.1616C101.166 54.0392 100.914 52.9335 100.45 51.9112C99.9861 50.8889 99.3199 49.9712 98.4917 49.2133L98.4491 49.1707Z" fill="#1F1F1F"/>
<path d="M98.4493 113.111C97.6805 112.336 96.7658 111.721 95.758 111.301C94.7502 110.881 93.6692 110.665 92.5774 110.665C91.4856 110.665 90.4046 110.881 89.3968 111.301C88.389 111.721 87.4743 112.336 86.7055 113.111L83.1461 116.67C83.9194 114.172 85.4 111.951 87.4089 110.276C88.1847 109.506 88.8005 108.589 89.2207 107.58C89.6409 106.57 89.8572 105.487 89.8572 104.394C89.8572 103.3 89.6409 102.218 89.2207 101.208C88.8005 100.198 88.1847 99.282 87.4089 98.5113C86.6446 97.7401 85.7349 97.1282 84.7324 96.7112C83.73 96.2941 82.6547 96.0801 81.5689 96.0816C79.9217 96.0754 78.3098 96.5588 76.9377 97.4704C75.5657 98.382 74.4955 99.6808 73.8629 101.202C73.2303 102.723 73.0639 104.397 73.3848 106.013C73.7056 107.629 74.4993 109.113 75.6651 110.276C77.673 111.952 79.1535 114.173 79.9278 116.67L76.3471 113.111C75.1853 111.947 73.7042 111.154 72.0913 110.832C70.4785 110.51 68.8063 110.673 67.2865 111.302C65.7667 111.931 64.4675 112.996 63.5534 114.363C62.6393 115.731 62.1514 117.338 62.1514 118.983C62.1514 120.628 62.6393 122.235 63.5534 123.603C64.4675 124.97 65.7667 126.035 67.2865 126.664C68.8063 127.293 70.4785 127.456 72.0913 127.134C73.7042 126.812 75.1853 126.019 76.3471 124.855L80.4607 120.763C80.4607 120.763 80.4607 120.912 80.4607 120.976C80.6301 123.38 80.3197 125.794 79.5476 128.077C78.7756 130.361 77.5573 132.467 75.9635 134.275V135.64H87.1105V134.275C83.1675 130.332 82.6133 124.684 82.6346 121.082C82.6346 121.082 82.6346 120.891 82.6346 120.805L86.7481 124.898C87.506 125.726 88.4237 126.392 89.446 126.856C90.4683 127.32 91.574 127.572 92.6964 127.597C93.8187 127.622 94.9345 127.419 95.9764 127.001C97.0183 126.583 97.9647 125.958 98.7585 125.164C99.5523 124.37 100.177 123.424 100.595 122.382C101.013 121.34 101.216 120.224 101.191 119.102C101.166 117.98 100.914 116.874 100.45 115.852C99.9864 114.829 99.3202 113.912 98.4919 113.154L98.4493 113.111Z" fill="#1F1F1F"/>
<path d="M98.4493 189.542C97.6805 190.317 96.7658 190.933 95.758 191.353C94.7502 191.772 93.6692 191.989 92.5774 191.989C91.4856 191.989 90.4046 191.772 89.3968 191.353C88.389 190.933 87.4743 190.317 86.7055 189.542L83.1461 185.983C83.9194 188.481 85.4 190.702 87.4089 192.377C88.1847 193.147 88.8005 194.064 89.2207 195.073C89.6409 196.083 89.8572 197.166 89.8572 198.259C89.8572 199.353 89.6409 200.436 89.2207 201.445C88.8005 202.455 88.1847 203.371 87.4089 204.142C86.6446 204.913 85.7349 205.525 84.7324 205.942C83.73 206.359 82.6547 206.573 81.5689 206.572C79.9217 206.578 78.3098 206.094 76.9377 205.183C75.5657 204.271 74.4955 202.972 73.8629 201.452C73.2303 199.931 73.0639 198.256 73.3848 196.64C73.7056 195.025 74.4993 193.541 75.6651 192.377C77.673 190.701 79.1535 188.481 79.9278 185.983L76.3471 189.542C75.1853 190.706 73.7042 191.5 72.0913 191.822C70.4785 192.144 68.8063 191.98 67.2865 191.351C65.7667 190.723 64.4675 189.657 63.5534 188.29C62.6393 186.923 62.1514 185.315 62.1514 183.67C62.1514 182.026 62.6393 180.418 63.5534 179.05C64.4675 177.683 65.7667 176.618 67.2865 175.989C68.8063 175.36 70.4785 175.197 72.0913 175.519C73.7042 175.841 75.1853 176.634 76.3471 177.798L80.4607 181.891C80.4607 181.891 80.4607 181.741 80.4607 181.677C80.6301 179.273 80.3197 176.859 79.5476 174.576C78.7756 172.293 77.5573 170.186 75.9635 168.378V167.014H87.1105V168.378C83.1675 172.321 82.6133 177.969 82.6346 181.571C82.6346 181.677 82.6346 181.763 82.6346 181.848L86.7481 177.756C88.3275 176.311 90.4035 175.531 92.5437 175.578C94.6838 175.626 96.7232 176.497 98.2369 178.011C99.7506 179.524 100.622 181.564 100.669 183.704C100.717 185.844 99.9369 187.92 98.4919 189.499L98.4493 189.542Z" fill="#1F1F1F"/>
</svg>
