<svg width="171" height="240" viewBox="0 0 171 240" fill="none" xmlns="http://www.w3.org/2000/svg">
<path d="M160.004 0.762695H10.8091C4.92355 0.762695 0.152344 5.5339 0.152344 11.4195V228.818C0.152344 234.703 4.92355 239.475 10.8091 239.475H160.004C165.89 239.475 170.661 234.703 170.661 228.818V11.4195C170.661 5.5339 165.89 0.762695 160.004 0.762695Z" fill="#F9F1DF"/>
<path d="M29.1816 45.5212C28.4679 45.5348 27.771 45.7397 27.1637 46.1146C26.5563 46.4896 26.0607 47.0207 25.7288 47.6526C25.2966 46.8839 24.6216 46.2802 23.8095 45.9362C22.9975 45.5921 22.0943 45.5271 21.2414 45.7513C20.3885 45.9755 19.634 46.4763 19.0961 47.1751C18.5583 47.874 18.2674 48.7315 18.269 49.6134C18.269 54.0253 24.5566 56.3912 25.7288 59.2045C26.901 56.3912 33.1885 54.0253 33.1885 49.6134C33.1999 49.0801 33.1046 48.5499 32.9083 48.0539C32.7121 47.5578 32.4187 47.106 32.0455 46.7248C31.6723 46.3437 31.2267 46.0409 30.735 45.8342C30.2432 45.6275 29.715 45.5211 29.1816 45.5212Z" fill="#C93112"/>
<path d="M141.611 193.651C141.954 193.034 142.457 192.52 143.065 192.162C143.674 191.804 144.368 191.616 145.074 191.616C145.78 191.616 146.474 191.804 147.083 192.162C147.692 192.52 148.194 193.034 148.538 193.651C149.6 193.651 150.619 193.229 151.371 192.477C152.122 191.726 152.544 190.707 152.544 189.644C152.544 185.232 146.257 182.866 145.085 180.053C143.913 182.866 137.625 185.232 137.625 189.644C137.625 190.703 138.044 191.719 138.791 192.47C139.538 193.221 140.552 193.645 141.611 193.651Z" fill="#C93112"/>
<path d="M32.5701 33.2663H29.9912V36.4634H26.7942V33.2663H19.3344L18.5032 31.6465C19.718 29.707 20.8903 27.6822 22.02 25.6148C23.1496 23.5474 24.2578 21.3521 25.3022 19.2207H28.2862L28.7337 19.9454C27.9451 21.416 27.2205 22.7587 26.6024 23.931C25.9843 25.1032 25.3022 26.1902 24.7054 27.1494C24.1663 28.0102 23.583 28.8425 22.9578 29.643C22.4299 30.3368 21.8453 30.9855 21.21 31.5826L26.9007 31.3481L27.2205 27.3412L29.9486 27.192V31.1989L32.6341 31.0923L32.5701 33.2663Z" fill="#C93112"/>
<path d="M138.222 205.906H140.928V202.709H144.019V205.906H151.479L152.31 207.526C151.095 209.465 149.923 211.49 148.793 213.557C147.664 215.625 146.555 217.82 145.49 219.951H142.527L142.079 219.227C142.868 217.756 143.593 216.413 144.211 215.241C144.829 214.069 145.511 212.982 146.108 212.023C146.647 211.162 147.23 210.33 147.855 209.529C148.383 208.835 148.968 208.187 149.603 207.59L143.912 207.824L143.593 211.831L140.865 211.98V207.973L138.158 208.08L138.222 205.906Z" fill="#C93112"/>
<path d="M62.4949 37.5288C61.0832 37.5332 59.698 37.9124 58.481 38.6277C57.264 39.3429 56.2587 40.3686 55.5679 41.5997C54.7035 40.0623 53.3535 38.855 51.7295 38.1669C50.1055 37.4788 48.2991 37.3487 46.5933 37.7971C44.8874 38.2455 43.3785 39.247 42.3027 40.6448C41.227 42.0425 40.6452 43.7576 40.6485 45.5214C40.6485 54.3452 53.2235 59.0768 55.5679 64.7036C57.9124 59.0768 70.4874 54.3452 70.4874 45.5214C70.4874 43.4016 69.6453 41.3687 68.1464 39.8698C66.6475 38.3709 64.6146 37.5288 62.4949 37.5288Z" fill="#C93112"/>
<path d="M122.173 37.5288C120.761 37.5332 119.376 37.9124 118.159 38.6277C116.942 39.3429 115.937 40.3686 115.246 41.5997C114.381 40.0623 113.032 38.855 111.407 38.1669C109.783 37.4788 107.977 37.3487 106.271 37.7971C104.565 38.2455 103.056 39.247 101.981 40.6448C100.905 42.0425 100.323 43.7576 100.326 45.5214C100.326 54.3452 112.901 59.0768 115.246 64.7036C117.59 59.0768 130.165 54.3452 130.165 45.5214C130.165 43.4016 129.323 41.3687 127.824 39.8698C126.326 38.3709 124.293 37.5288 122.173 37.5288Z" fill="#C93112"/>
<path d="M63.1767 202.815C61.6257 202.81 60.104 202.392 58.7672 201.606C57.4303 200.82 56.3262 199.692 55.5677 198.34C54.6235 200.034 53.1436 201.366 51.3604 202.129C49.5771 202.892 47.5911 203.041 45.7139 202.553C43.8367 202.066 42.1744 200.969 40.9876 199.435C39.8009 197.901 39.1567 196.016 39.1562 194.077C39.1563 184.358 52.9888 179.157 55.5677 172.955C58.1467 179.157 71.9792 184.358 71.9792 194.077C71.9623 196.4 71.0274 198.623 69.3785 200.26C67.7295 201.897 65.5002 202.815 63.1767 202.815Z" fill="#C93112"/>
<path d="M122.173 201.643C120.761 201.639 119.376 201.259 118.159 200.544C116.942 199.829 115.937 198.803 115.246 197.572C114.381 199.11 113.032 200.317 111.407 201.005C109.783 201.693 107.977 201.823 106.271 201.375C104.565 200.926 103.056 199.925 101.981 198.527C100.905 197.129 100.323 195.414 100.326 193.65C100.326 184.827 112.901 180.095 115.246 174.468C117.59 180.095 130.165 184.827 130.165 193.65C130.165 195.77 129.323 197.803 127.824 199.302C126.326 200.801 124.293 201.643 122.173 201.643Z" fill="#C93112"/>
</svg>
