<svg width="171" height="240" viewBox="0 0 171 240" fill="none" xmlns="http://www.w3.org/2000/svg">
<path d="M160.004 0.525391H10.8091C4.92355 0.525391 0.152344 5.29659 0.152344 11.1822V228.58C0.152344 234.466 4.92355 239.237 10.8091 239.237H160.004C165.89 239.237 170.661 234.466 170.661 228.58V11.1822C170.661 5.29659 165.89 0.525391 160.004 0.525391Z" fill="#F9F1DF"/>
<path d="M25.7287 41.8315C24.5777 44.7515 18.8018 45.8385 18.8018 50.357C18.8203 51.0898 19.0543 51.8009 19.4746 52.4015C19.895 53.0021 20.483 53.4655 21.1652 53.7338C21.8474 54.0022 22.5935 54.0635 23.3103 53.9102C24.0272 53.757 24.683 53.3958 25.1958 52.872C25.0967 54.3159 24.5106 55.6834 23.5334 56.751V57.2625H27.7961V56.751C26.8189 55.6834 26.2328 54.3159 26.1336 52.872C26.6464 53.3958 27.3022 53.757 28.0191 53.9102C28.7359 54.0635 29.4821 54.0022 30.1643 53.7338C30.8465 53.4655 31.4345 53.0021 31.8548 52.4015C32.2752 51.8009 32.5092 51.0898 32.5277 50.357C32.6556 45.8385 26.8796 44.7515 25.7287 41.8315Z" fill="#1F1F1F"/>
<path d="M145.085 195.801C146.236 192.881 152.012 191.794 152.012 187.275C151.993 186.542 151.759 185.831 151.339 185.231C150.919 184.63 150.33 184.167 149.648 183.898C148.966 183.63 148.22 183.569 147.503 183.722C146.786 183.875 146.13 184.236 145.618 184.76C145.717 183.316 146.303 181.949 147.28 180.881V180.37H143.017V180.881C143.995 181.949 144.581 183.316 144.68 184.76C144.167 184.236 143.511 183.875 142.794 183.722C142.078 183.569 141.331 183.63 140.649 183.898C139.967 184.167 139.379 184.63 138.959 185.231C138.538 185.831 138.304 186.542 138.286 187.275C138.158 191.794 143.934 192.881 145.085 195.801Z" fill="#1F1F1F"/>
<path d="M32.5701 32.4961H29.9912V35.6931H26.7942V32.4961H19.3344L18.5032 30.8762C19.718 28.9367 20.8903 26.9119 22.02 24.8445C23.1496 22.7771 24.2578 20.5818 25.3022 18.4504H28.2862L28.7337 19.1751C27.9451 20.6457 27.2205 21.9885 26.6024 23.1607C25.9843 24.333 25.3022 25.42 24.7054 26.3578C24.1712 27.2287 23.5877 28.0684 22.9578 28.8728C22.4299 29.5665 21.8453 30.2153 21.21 30.8123L26.9007 30.5779L27.2205 26.5709L29.9486 26.4217V30.3647L32.6341 30.2581L32.5701 32.4961Z" fill="#1F1F1F"/>
<path d="M138.222 205.135H140.928V201.938H144.019V205.135H151.479L152.31 206.755C151.095 208.695 149.923 210.719 148.793 212.787C147.664 214.854 146.555 217.05 145.49 219.181H142.527L142.079 218.456C142.868 216.986 143.593 215.643 144.211 214.471C144.829 213.298 145.511 212.211 146.108 211.274C146.642 210.403 147.225 209.563 147.855 208.759C148.383 208.065 148.968 207.416 149.603 206.819L143.912 207.053L143.593 211.06L140.865 211.21V207.267H138.158L138.222 205.135Z" fill="#1F1F1F"/>
<path d="M55.5677 30.8967C53.2445 36.7793 41.7139 38.9106 41.7139 47.9476C41.7139 49.926 42.4998 51.8235 43.8988 53.2224C45.2977 54.6214 47.1952 55.4073 49.1736 55.4073C50.2029 55.4092 51.221 55.1938 52.1612 54.7751C53.1015 54.3564 53.9427 53.7438 54.6299 52.9775C54.4625 55.8727 53.2861 58.6178 51.305 60.7357V61.8014H59.8304V60.7357C57.8551 58.6205 56.6728 55.8868 56.4841 52.9989C57.5019 54.0998 58.8278 54.8684 60.2888 55.2046C61.7499 55.5409 63.2784 55.4291 64.6749 54.8838C66.0715 54.3385 67.2713 53.3851 68.118 52.1478C68.9647 50.9105 69.4189 49.4468 69.4215 47.9476C69.4215 38.8893 57.8695 36.758 55.5677 30.8967Z" fill="#1F1F1F"/>
<path d="M115.246 30.8967C112.922 36.7793 101.392 38.9106 101.392 47.9476C101.392 49.926 102.178 51.8235 103.577 53.2224C104.976 54.6214 106.873 55.4073 108.852 55.4073C109.881 55.4092 110.899 55.1938 111.839 54.7751C112.779 54.3564 113.621 53.7438 114.308 52.9775C114.141 55.8727 112.964 58.6178 110.983 60.7357V61.8014H119.508V60.7357C117.533 58.6205 116.351 55.8868 116.162 52.9989C117.18 54.0998 118.506 54.8684 119.967 55.2046C121.428 55.5409 122.956 55.4291 124.353 54.8838C125.749 54.3385 126.949 53.3851 127.796 52.1478C128.643 50.9105 129.097 49.4468 129.099 47.9476C129.099 38.8893 117.548 36.758 115.246 30.8967Z" fill="#1F1F1F"/>
<path d="M55.568 208.502C53.0317 202.108 40.3289 199.657 40.3289 189.725C40.3289 188.648 40.5411 187.581 40.9535 186.585C41.3658 185.589 41.9703 184.685 42.7322 183.923C43.4942 183.161 44.3988 182.556 45.3943 182.144C46.3899 181.732 47.457 181.52 48.5346 181.52C49.6686 181.521 50.7896 181.761 51.825 182.224C52.8603 182.687 53.787 183.361 54.545 184.205C54.3343 181.027 53.0404 178.018 50.879 175.68V174.507H60.257V175.68C58.0928 178.016 56.7983 181.027 56.5911 184.205C57.7061 182.989 59.1625 182.139 60.7693 181.765C62.3761 181.392 64.0583 181.512 65.5953 182.111C67.1323 182.711 68.4524 183.76 69.3825 185.123C70.3126 186.485 70.8092 188.097 70.8072 189.747C70.8072 199.657 58.1044 202.023 55.568 208.502Z" fill="#1F1F1F"/>
<path d="M115.246 206.734C112.922 200.851 101.392 198.72 101.392 189.683C101.392 187.704 102.178 185.807 103.577 184.408C104.976 183.009 106.873 182.223 108.852 182.223C109.881 182.221 110.899 182.436 111.839 182.855C112.779 183.274 113.621 183.886 114.308 184.653C114.141 181.758 112.964 179.012 110.983 176.895V175.829H119.508V176.895C117.533 179.01 116.351 181.743 116.162 184.631C117.18 183.53 118.506 182.762 119.967 182.426C121.428 182.089 122.956 182.201 124.353 182.746C125.749 183.292 126.949 184.245 127.796 185.482C128.643 186.72 129.097 188.183 129.099 189.683C129.099 198.741 117.548 200.872 115.246 206.734Z" fill="#1F1F1F"/>
</svg>
