<svg width="172" height="240" viewBox="0 0 172 240" fill="none" xmlns="http://www.w3.org/2000/svg">
<path d="M160.729 0.525391H11.5337C5.64816 0.525391 0.876953 5.29659 0.876953 11.1822V228.58C0.876953 234.466 5.64816 239.237 11.5337 239.237H160.729C166.614 239.237 171.385 234.466 171.385 228.58V11.1822C171.385 5.29659 166.614 0.525391 160.729 0.525391Z" fill="#F9F1DF"/>
<path d="M26.4533 41.8311C25.281 44.751 19.5264 45.838 19.5264 50.3565C19.5264 50.8453 19.623 51.3293 19.8107 51.7806C19.9984 52.232 20.2734 52.6417 20.6201 52.9864C20.9667 53.331 21.3781 53.6037 21.8305 53.7888C22.2829 53.974 22.7674 54.0678 23.2562 54.065C23.7682 54.0616 24.274 53.954 24.743 53.7488C25.212 53.5436 25.6344 53.2451 25.9844 52.8715C25.8852 54.3154 25.2991 55.6829 24.3219 56.7505V57.2621H28.5846V56.7505C27.5997 55.6859 27.0059 54.318 26.9008 52.8715C27.2533 53.2477 27.6791 53.5477 28.152 53.753C28.6248 53.9583 29.1348 54.0645 29.6503 54.065C30.6358 54.065 31.5813 53.675 32.2802 52.9802C32.979 52.2853 33.3745 51.342 33.3802 50.3565C33.3802 45.838 27.6042 44.751 26.4533 41.8311Z" fill="#1F1F1F"/>
<path d="M145.809 195.8C146.96 192.88 152.736 191.793 152.736 187.274C152.731 186.289 152.335 185.346 151.636 184.651C150.937 183.956 149.992 183.566 149.006 183.566C148.491 183.566 147.981 183.673 147.508 183.878C147.035 184.083 146.609 184.383 146.257 184.759C146.362 183.313 146.956 181.945 147.941 180.88V180.369H143.678V180.88C144.655 181.948 145.241 183.316 145.34 184.759C144.828 184.236 144.172 183.874 143.455 183.721C142.738 183.568 141.992 183.629 141.31 183.898C140.628 184.166 140.04 184.629 139.619 185.23C139.199 185.831 138.965 186.542 138.946 187.274C138.882 191.793 144.658 192.88 145.809 195.8Z" fill="#1F1F1F"/>
<path d="M21.0611 32.4961C21.597 32.9112 22.1844 33.255 22.8088 33.5191C23.4848 33.7984 24.2087 33.9432 24.9401 33.9454C25.9519 33.9809 26.9379 33.6217 27.6896 32.9437C28.0607 32.5926 28.3503 32.1645 28.5381 31.6895C28.7259 31.2145 28.8073 30.7041 28.7766 30.1942C28.8114 29.2721 28.4909 28.3719 27.8814 27.6792C27.5604 27.3478 27.171 27.0903 26.7404 26.9246C26.3097 26.759 25.8481 26.6892 25.3878 26.7201C24.9038 26.7193 24.4224 26.7911 23.9597 26.9332C23.457 27.0806 22.9712 27.2806 22.5104 27.53L21.3381 26.7201L21.9136 18.5996H31.5048L31.2063 21.072H23.9597L23.4908 25.6544C23.9826 25.2716 24.5488 24.9958 25.1533 24.8445C25.732 24.7014 26.3262 24.6298 26.9223 24.6314C28.3937 24.5624 29.8331 25.0754 30.9292 26.0594C31.4257 26.5584 31.8128 27.1554 32.066 27.8122C32.3192 28.469 32.4329 29.1713 32.3999 29.8745C32.4078 30.7373 32.2411 31.5928 31.9097 32.3895C31.581 33.1276 31.1102 33.7939 30.5243 34.3503C29.8956 34.8895 29.1731 35.3086 28.3929 35.5866C27.5263 35.8714 26.6197 36.0153 25.7075 36.0128C24.5947 36.0294 23.4908 35.8115 22.4678 35.3734C21.5894 35.0128 20.8082 34.4506 20.1873 33.7323L21.0611 32.4961Z" fill="#1F1F1F"/>
<path d="M151.18 205.136C150.647 204.716 150.059 204.372 149.433 204.113C148.757 203.831 148.033 203.686 147.301 203.687C146.283 203.65 145.29 204.009 144.531 204.688C144.159 205.039 143.87 205.467 143.682 205.942C143.494 206.417 143.413 206.928 143.444 207.438C143.409 208.36 143.729 209.26 144.339 209.953C144.662 210.281 145.052 210.536 145.482 210.701C145.912 210.867 146.372 210.938 146.832 210.912C147.316 210.913 147.798 210.841 148.26 210.699C148.763 210.551 149.249 210.351 149.71 210.102L150.882 210.912L150.328 219.032H140.715L141.014 216.56H148.282L148.751 211.977C148.262 212.366 147.695 212.642 147.088 212.787C146.516 212.929 145.93 213.001 145.34 213.001C143.863 213.068 142.417 212.556 141.312 211.572C140.816 211.073 140.429 210.477 140.175 209.82C139.922 209.163 139.809 208.461 139.842 207.757C139.834 206.895 140 206.039 140.332 205.242C140.661 204.499 141.14 203.831 141.738 203.282C142.366 202.74 143.089 202.321 143.87 202.045C144.736 201.76 145.643 201.617 146.555 201.619C147.675 201.605 148.785 201.822 149.816 202.258C150.692 202.625 151.472 203.186 152.097 203.9L151.18 205.136Z" fill="#1F1F1F"/>
<path d="M56.2715 30.8975C53.9697 36.78 42.4177 38.9114 42.4177 47.9483C42.4177 49.9268 43.2036 51.8242 44.6026 53.2232C46.0016 54.6221 47.899 55.4081 49.8775 55.4081C50.9095 55.4076 51.93 55.1912 52.8734 54.7728C53.8168 54.3543 54.6621 53.743 55.3551 52.9783C55.1685 55.8689 53.9947 58.6078 52.0302 60.7364V61.8021H60.5556V60.7364C58.5803 58.6212 57.398 55.8876 57.2093 52.9996C58.2239 54.1039 59.5485 54.8758 61.0095 55.214C62.4705 55.5521 63.9996 55.4408 65.3962 54.8946C66.7928 54.3484 67.9917 53.3929 68.8357 52.1533C69.6796 50.9137 70.1291 49.4479 70.1254 47.9483C70.1254 38.89 58.5947 36.7587 56.2715 30.8975Z" fill="#1F1F1F"/>
<path d="M115.95 30.8972C113.648 36.7798 102.096 38.9111 102.096 47.9481C102.096 49.9265 102.882 51.8239 104.281 53.2229C105.68 54.6219 107.577 55.4078 109.556 55.4078C110.588 55.4074 111.608 55.191 112.552 54.7725C113.495 54.3541 114.34 53.7428 115.033 52.978C114.847 55.8687 113.673 58.6076 111.708 60.7362V61.8019H120.234V60.7362C118.259 58.621 117.076 55.8873 116.888 52.9994C117.902 54.1037 119.227 54.8756 120.688 55.2137C122.149 55.5519 123.678 55.4406 125.074 54.8944C126.471 54.3482 127.67 53.3926 128.514 52.153C129.358 50.9134 129.807 49.4477 129.804 47.9481C129.804 38.8898 118.273 36.7584 115.95 30.8972Z" fill="#1F1F1F"/>
<path d="M86.1107 100.166C83.8088 106.049 72.2568 108.18 72.2568 117.217C72.2568 119.196 73.0427 121.093 74.4417 122.492C75.8407 123.891 77.7381 124.677 79.7166 124.677C80.7486 124.676 81.7691 124.46 82.7125 124.042C83.6559 123.623 84.5012 123.012 85.1942 122.247C85.0076 125.138 83.8339 127.877 81.8693 130.005V131.071H90.3947V130.005C88.4194 127.89 87.2371 125.156 87.0485 122.268C88.063 123.373 89.3877 124.145 90.8486 124.483C92.3096 124.821 93.8387 124.71 95.2353 124.163C96.6319 123.617 97.8308 122.662 98.6748 121.422C99.5187 120.182 99.9683 118.717 99.9645 117.217C99.9645 108.18 88.4338 106.049 86.1107 100.166Z" fill="#1F1F1F"/>
<path d="M56.2718 206.734C53.9699 200.851 42.418 198.72 42.418 189.683C42.418 187.705 43.2039 185.807 44.6029 184.408C46.0018 183.009 47.8993 182.223 49.8777 182.223C50.9097 182.224 51.9303 182.44 52.8736 182.859C53.817 183.277 54.6623 183.888 55.3553 184.653C55.1688 181.763 53.995 179.024 52.0304 176.895V175.829H60.5558V176.895C58.5805 179.01 57.3982 181.744 57.2096 184.632C58.2242 183.528 59.5488 182.756 61.0098 182.418C62.4708 182.079 63.9999 182.191 65.3965 182.737C66.7931 183.283 67.992 184.239 68.8359 185.478C69.6798 186.718 70.1294 188.184 70.1256 189.683C70.1256 198.741 58.595 200.873 56.2718 206.734Z" fill="#1F1F1F"/>
<path d="M115.95 206.734C113.648 200.851 102.096 198.72 102.096 189.683C102.096 187.705 102.882 185.807 104.281 184.408C105.68 183.009 107.577 182.223 109.556 182.223C110.588 182.224 111.608 182.44 112.552 182.859C113.495 183.277 114.34 183.888 115.033 184.653C114.847 181.763 113.673 179.024 111.708 176.895V175.829H120.234V176.895C118.259 179.01 117.076 181.744 116.888 184.632C117.902 183.528 119.227 182.756 120.688 182.418C122.149 182.079 123.678 182.191 125.074 182.737C126.471 183.283 127.67 184.239 128.514 185.478C129.358 186.718 129.807 188.184 129.804 189.683C129.804 198.741 118.273 200.873 115.95 206.734Z" fill="#1F1F1F"/>
</svg>
