<svg width="172" height="239" viewBox="0 0 172 239" fill="none" xmlns="http://www.w3.org/2000/svg">
<path d="M160.729 0.288086H11.5337C5.64816 0.288086 0.876953 5.05929 0.876953 10.9449V228.343C0.876953 234.229 5.64816 239 11.5337 239H160.729C166.614 239 171.385 234.229 171.385 228.343V10.9449C171.385 5.05929 166.614 0.288086 160.729 0.288086Z" fill="#F9F1DF"/>
<path d="M26.4529 57.3018C24.5278 54.3109 21.9841 51.7672 18.9932 49.8421C21.9841 47.917 24.5278 45.3733 26.4529 42.3823C28.3723 45.3779 30.9171 47.9227 33.9127 49.8421C30.9171 51.7614 28.3723 54.3062 26.4529 57.3018Z" fill="#C93112"/>
<path d="M145.809 178.789C147.728 181.785 150.273 184.33 153.268 186.249C150.273 188.168 147.728 190.713 145.809 193.709C143.884 190.718 141.34 188.174 138.349 186.249C141.34 184.324 143.884 181.78 145.809 178.789Z" fill="#C93112"/>
<path d="M21.0609 31.7476C21.5968 32.1627 22.1842 32.5065 22.8085 32.7706C23.4845 33.0498 24.2085 33.1946 24.9399 33.1969C25.9517 33.2324 26.9376 32.8732 27.6894 32.1951C28.0604 31.8441 28.3501 31.416 28.5379 30.9409C28.7257 30.4659 28.8071 29.9555 28.7764 29.4457C28.8111 28.5236 28.4907 27.6234 27.8812 26.9307C27.5602 26.5992 27.1708 26.3417 26.7401 26.1761C26.3095 26.0105 25.8479 25.9406 25.3875 25.9715C24.9035 25.9708 24.4222 26.0426 23.9595 26.1847C23.4567 26.332 22.9709 26.532 22.5102 26.7815L21.3379 25.9715L21.9134 17.8511H31.5045L31.2061 20.3235H23.9595L23.4906 24.9059C23.9823 24.5231 24.5486 24.2473 25.153 24.096C25.7318 23.9529 26.3259 23.8813 26.9221 23.8828C28.3935 23.8139 29.8329 24.3268 30.929 25.3108C31.4254 25.8099 31.8126 26.4069 32.0658 27.0637C32.319 27.7205 32.4326 28.4228 32.3996 29.126C32.4076 29.9888 32.2409 30.8443 31.9095 31.641C31.5859 32.3758 31.1143 33.0361 30.524 33.5805C29.9074 34.1415 29.1819 34.5695 28.3927 34.838C27.5261 35.1228 26.6194 35.2668 25.7072 35.2643C24.5944 35.2809 23.4906 35.063 22.4675 34.6248C21.5891 34.2642 20.808 33.7021 20.187 32.9837L21.0609 31.7476Z" fill="#C93112"/>
<path d="M151.18 204.345C150.647 203.925 150.059 203.581 149.433 203.322C148.757 203.04 148.033 202.895 147.301 202.895C146.283 202.859 145.29 203.218 144.531 203.897C143.874 204.608 143.497 205.534 143.47 206.501C143.442 207.469 143.766 208.414 144.381 209.161C144.705 209.489 145.095 209.745 145.525 209.91C145.955 210.075 146.415 210.147 146.875 210.121C147.359 210.121 147.84 210.049 148.303 209.907C148.806 209.76 149.292 209.56 149.752 209.311L150.925 210.121L150.37 218.241H140.758L141.056 215.769H148.324L148.793 211.186C148.305 211.575 147.738 211.851 147.131 211.996C146.557 212.127 145.971 212.199 145.383 212.209C143.905 212.277 142.46 211.765 141.355 210.781C140.86 210.281 140.475 209.684 140.222 209.027C139.969 208.371 139.854 207.669 139.884 206.966C139.876 206.103 140.043 205.248 140.374 204.451C140.692 203.708 141.173 203.045 141.781 202.512C142.396 201.949 143.122 201.52 143.912 201.254C144.779 200.969 145.686 200.825 146.598 200.828C147.717 200.813 148.828 201.031 149.859 201.467C150.734 201.833 151.514 202.395 152.139 203.108L151.18 204.345Z" fill="#C93112"/>
<path d="M56.2921 62.6302C52.4534 56.6391 47.3637 51.5495 41.3726 47.7108C47.3637 43.8721 52.4534 38.7824 56.2921 32.7913C60.1308 38.7824 65.2204 43.8721 71.2115 47.7108C65.2204 51.5495 60.1308 56.6391 56.2921 62.6302Z" fill="#C93112"/>
<path d="M115.97 62.63C112.132 56.6388 107.042 51.5492 101.051 47.7105C107.042 43.8718 112.132 38.7822 115.97 32.791C119.809 38.7822 124.899 43.8718 130.89 47.7105C124.899 51.5492 119.809 56.6388 115.97 62.63Z" fill="#C93112"/>
<path d="M86.1312 131.899C82.2925 125.908 77.2028 120.818 71.2117 116.98C77.2028 113.141 82.2925 108.051 86.1312 102.06C89.9699 108.051 95.0595 113.141 101.051 116.98C95.0595 120.818 89.9699 125.908 86.1312 131.899Z" fill="#C93112"/>
<path d="M71.2118 188.38C65.2206 192.219 60.131 197.308 56.2923 203.299C52.4536 197.308 47.364 192.219 41.3728 188.38C47.364 184.541 52.4536 179.452 56.2923 173.46C60.131 179.452 65.2206 184.541 71.2118 188.38Z" fill="#C93112"/>
<path d="M130.89 188.38C124.899 192.219 119.809 197.308 115.97 203.299C112.132 197.308 107.042 192.219 101.051 188.38C107.042 184.541 112.132 179.452 115.97 173.46C119.809 179.452 124.899 184.541 130.89 188.38Z" fill="#C93112"/>
</svg>
