<svg width="172" height="239" viewBox="0 0 172 239" fill="none" xmlns="http://www.w3.org/2000/svg">
<path d="M160.729 0H11.5337C5.64816 0 0.876953 4.7712 0.876953 10.6568V228.055C0.876953 233.941 5.64816 238.712 11.5337 238.712H160.729C166.614 238.712 171.385 233.941 171.385 228.055V10.6568C171.385 4.7712 166.614 0 160.729 0Z" fill="#F9F1DF"/>
<path d="M32.9758 49.1486C32.3736 48.555 31.5621 48.2223 30.7165 48.2223C29.871 48.2223 29.0594 48.555 28.4572 49.1486L27.0719 50.534C27.3629 49.5718 27.9343 48.7184 28.7131 48.0829C29.0272 47.7902 29.2791 47.4373 29.4538 47.0451C29.6286 46.6529 29.7225 46.2296 29.7301 45.8003C29.7377 45.371 29.6587 44.9446 29.4979 44.5466C29.3371 44.1485 29.0978 43.7869 28.7942 43.4833C28.4906 43.1797 28.129 42.9404 27.7309 42.7796C27.3328 42.6188 26.9064 42.5398 26.4772 42.5474C26.0479 42.5549 25.6245 42.6489 25.2324 42.8236C24.8402 42.9984 24.4872 43.2503 24.1945 43.5644C23.8955 43.8598 23.6582 44.2116 23.4962 44.5994C23.3341 44.9872 23.2507 45.4034 23.2507 45.8237C23.2507 46.244 23.3341 46.6601 23.4962 47.0479C23.6582 47.4357 23.8955 47.7875 24.1945 48.0829C24.9597 48.7264 25.5223 49.5777 25.8144 50.534L24.4503 49.1486C24.0022 48.7041 23.4325 48.4022 22.8131 48.281C22.1936 48.1597 21.5521 48.2246 20.9695 48.4673C20.3868 48.7101 19.889 49.1198 19.5389 49.645C19.1888 50.1702 19.002 50.7873 19.002 51.4185C19.002 52.0497 19.1888 52.6667 19.5389 53.1919C19.889 53.7171 20.3868 54.1269 20.9695 54.3696C21.5521 54.6124 22.1936 54.6772 22.8131 54.556C23.4325 54.4347 24.0022 54.1329 24.4503 53.6884L26.0275 52.0898C26.1531 53.9462 25.5403 55.7771 24.3225 57.1838V57.6953H28.5852V57.1838C27.3629 55.7869 26.7423 53.9636 26.8587 52.1112V51.9833L28.4572 53.5818C28.7553 53.8785 29.1089 54.1136 29.4979 54.2736C29.8868 54.4336 30.3035 54.5155 30.724 54.5145C31.1446 54.5135 31.5609 54.4297 31.9491 54.2678C32.3372 54.106 32.6897 53.8692 32.9864 53.5711C33.2831 53.2731 33.5182 52.9194 33.6782 52.5305C33.8382 52.1416 33.9201 51.7249 33.9191 51.3044C33.9181 50.8838 33.8343 50.4675 33.6725 50.0794C33.5106 49.6912 33.2739 49.3387 32.9758 49.042V49.1486Z" fill="#1F1F1F"/>
<path d="M139.288 189.562C139.89 190.156 140.701 190.489 141.547 190.489C142.392 190.489 143.204 190.156 143.806 189.562L145.17 188.177C144.878 189.133 144.316 189.985 143.55 190.628C143.105 191.074 142.801 191.641 142.678 192.259C142.554 192.877 142.615 193.518 142.854 194.101C143.093 194.684 143.5 195.183 144.022 195.536C144.544 195.889 145.158 196.08 145.788 196.084C146.422 196.088 147.042 195.903 147.571 195.554C148.099 195.204 148.512 194.705 148.757 194.12C149.001 193.536 149.066 192.891 148.944 192.27C148.821 191.648 148.517 191.076 148.069 190.628C147.29 189.993 146.719 189.139 146.428 188.177L147.813 189.562C148.261 190.007 148.831 190.309 149.45 190.43C150.07 190.551 150.711 190.486 151.294 190.244C151.877 190.001 152.374 189.591 152.724 189.066C153.075 188.541 153.261 187.924 153.261 187.292C153.261 186.661 153.075 186.044 152.724 185.519C152.374 184.994 151.877 184.584 151.294 184.341C150.711 184.099 150.07 184.034 149.45 184.155C148.831 184.276 148.261 184.578 147.813 185.023L146.214 186.621C146.152 185.7 146.272 184.776 146.568 183.901C146.865 183.027 147.331 182.22 147.941 181.527V181.016H143.678V181.527C144.282 182.219 144.743 183.023 145.035 183.894C145.328 184.764 145.446 185.684 145.383 186.6V186.728L143.806 185.129C143.204 184.53 142.389 184.194 141.539 184.196C140.69 184.198 139.876 184.538 139.277 185.14C138.678 185.742 138.342 186.557 138.344 187.407C138.346 188.256 138.686 189.07 139.288 189.669V189.562Z" fill="#1F1F1F"/>
<path d="M21.0611 33.0573C21.6223 33.4863 22.2388 33.8376 22.8941 34.1016C23.57 34.3809 24.294 34.5257 25.0254 34.5279C26.0372 34.5635 27.0231 34.2042 27.7749 33.5262C28.1459 33.1751 28.4356 32.747 28.6234 32.272C28.8112 31.797 28.8925 31.2866 28.8618 30.7767C28.8966 29.8547 28.5762 28.9544 27.9667 28.2617C27.6457 27.9303 27.2563 27.6728 26.8256 27.5071C26.395 27.3415 25.9334 27.2717 25.473 27.3026C24.989 27.3018 24.5077 27.3737 24.045 27.5157C23.5422 27.6631 23.0564 27.8631 22.5956 28.1125L21.4234 27.3026L21.9349 19.1821H31.526L31.2277 21.6545H23.9597L23.4908 26.2369C23.9826 25.8542 24.5488 25.5783 25.1533 25.427C25.732 25.2839 26.3262 25.2123 26.9223 25.2139C28.3937 25.1449 29.8331 25.6579 30.9292 26.6419C31.4257 27.1409 31.8128 27.7379 32.066 28.3947C32.3192 29.0515 32.4329 29.7538 32.3999 30.457C32.4078 31.3198 32.2411 32.1753 31.9097 32.972C31.581 33.7102 31.1102 34.3764 30.5243 34.9328C29.8956 35.4721 29.1731 35.8911 28.3929 36.169C27.5263 36.4539 26.6197 36.5978 25.7075 36.5953C24.5947 36.6119 23.4908 36.394 22.4678 35.9559C21.5894 35.5953 20.8082 35.0331 20.1873 34.3148L21.0611 33.0573Z" fill="#1F1F1F"/>
<path d="M151.18 205.655C150.647 205.236 150.059 204.891 149.433 204.632C148.757 204.35 148.033 204.205 147.301 204.206C146.283 204.169 145.29 204.528 144.531 205.208C144.159 205.559 143.87 205.987 143.682 206.462C143.494 206.937 143.413 207.447 143.444 207.957C143.409 208.879 143.729 209.779 144.339 210.472C144.662 210.8 145.052 211.055 145.482 211.221C145.912 211.386 146.372 211.458 146.832 211.431C147.316 211.432 147.798 211.36 148.26 211.218C148.763 211.071 149.249 210.871 149.71 210.621L150.882 211.431L150.328 219.552H140.715L141.014 217.079H148.282L148.751 212.497C148.262 212.885 147.695 213.162 147.088 213.307C146.516 213.449 145.93 213.52 145.34 213.52C143.863 213.588 142.417 213.075 141.312 212.092C140.816 211.593 140.429 210.996 140.175 210.339C139.922 209.682 139.809 208.98 139.842 208.277C139.834 207.414 140 206.558 140.332 205.762C140.661 205.018 141.14 204.351 141.738 203.801C142.366 203.26 143.089 202.84 143.87 202.565C144.736 202.28 145.643 202.136 146.555 202.138C147.675 202.124 148.785 202.342 149.816 202.778C150.692 203.144 151.472 203.705 152.097 204.419L151.18 205.655Z" fill="#1F1F1F"/>
<path d="M69.3367 45.0362C68.1378 43.8388 66.5127 43.1662 64.8183 43.1662C63.1238 43.1662 61.4986 43.8388 60.2997 45.0362L57.5503 47.7856C58.1403 45.8706 59.273 44.1677 60.8113 42.8835C61.7063 41.9896 62.3161 40.8503 62.5634 39.6097C62.8108 38.3692 62.6846 37.0832 62.2009 35.9143C61.7172 34.7455 60.8976 33.7464 59.846 33.0435C58.7943 32.3405 57.5578 31.9653 56.2928 31.9653C55.0279 31.9653 53.7913 32.3405 52.7396 33.0435C51.6879 33.7464 50.8684 34.7455 50.3847 35.9143C49.901 37.0832 49.7748 38.3692 50.0221 39.6097C50.2695 40.8503 50.8793 41.9896 51.7743 42.8835C53.3001 44.1789 54.4302 45.8778 55.0353 47.7856L52.2859 45.0362C51.392 44.1411 50.2526 43.5314 49.0121 43.284C47.7715 43.0367 46.4855 43.1628 45.3167 43.6465C44.1479 44.1303 43.1488 44.9498 42.4458 46.0015C41.7429 47.0531 41.3677 48.2897 41.3677 49.5546C41.3677 50.8196 41.7429 52.0562 42.4458 53.1078C43.1488 54.1595 44.1479 54.979 45.3167 55.4628C46.4855 55.9465 47.7715 56.0726 49.0121 55.8253C50.2526 55.5779 51.392 54.9681 52.2859 54.0731L55.4402 50.9187V51.1532C55.5776 52.9927 55.3468 54.8412 54.7612 56.5906C54.1757 58.3399 53.2472 59.9548 52.0301 61.341V62.4067H60.5555V61.341C59.3387 59.9539 58.4088 58.3394 57.8198 56.5907C57.2308 54.8419 56.9943 52.9938 57.124 51.1532V50.94L60.2997 54.0944C61.5118 55.2239 63.115 55.8388 64.7715 55.8095C66.428 55.7803 68.0085 55.1093 69.18 53.9378C70.3515 52.7662 71.0226 51.1858 71.0518 49.5293C71.081 47.8728 70.4662 46.2696 69.3367 45.0575V45.0362Z" fill="#1F1F1F"/>
<path d="M129.014 45.0362C127.816 43.8388 126.19 43.1662 124.496 43.1662C122.802 43.1662 121.176 43.8388 119.977 45.0362L117.228 47.7856C117.818 45.8706 118.951 44.1677 120.489 42.8835C121.384 41.9896 121.994 40.8503 122.241 39.6097C122.489 38.3692 122.362 37.0832 121.879 35.9143C121.395 34.7455 120.575 33.7464 119.524 33.0435C118.472 32.3405 117.236 31.9653 115.971 31.9653C114.706 31.9653 113.469 32.3405 112.417 33.0435C111.366 33.7464 110.546 34.7455 110.062 35.9143C109.579 37.0832 109.453 38.3692 109.7 39.6097C109.947 40.8503 110.557 41.9896 111.452 42.8835C112.978 44.1789 114.108 45.8778 114.713 47.7856L111.964 45.0362C111.07 44.1411 109.93 43.5314 108.69 43.284C107.449 43.0367 106.163 43.1628 104.994 43.6465C103.826 44.1303 102.827 44.9498 102.124 46.0015C101.421 47.0531 101.045 48.2897 101.045 49.5546C101.045 50.8196 101.421 52.0562 102.124 53.1078C102.827 54.1595 103.826 54.979 104.994 55.4628C106.163 55.9465 107.449 56.0726 108.69 55.8253C109.93 55.5779 111.07 54.9681 111.964 54.0731L115.118 50.9187V51.1532C115.255 52.9927 115.025 54.8412 114.439 56.5906C113.853 58.3399 112.925 59.9548 111.708 61.341V62.4067H120.233V61.341C119.016 59.9539 118.087 58.3394 117.498 56.5907C116.909 54.8419 116.672 52.9938 116.802 51.1532V50.94L119.977 54.0944C121.19 55.2239 122.793 55.8388 124.449 55.8095C126.106 55.7803 127.686 55.1093 128.858 53.9378C130.029 52.7662 130.7 51.1858 130.73 49.5293C130.759 47.8728 130.144 46.2696 129.014 45.0575V45.0362Z" fill="#1F1F1F"/>
<path d="M99.1756 114.305C97.9767 113.108 96.3516 112.435 94.6571 112.435C92.9627 112.435 91.3375 113.108 90.1386 114.305L87.3892 117.055C87.9791 115.14 89.1119 113.437 90.6502 112.153C91.5452 111.259 92.1549 110.119 92.4023 108.879C92.6497 107.638 92.5235 106.352 92.0398 105.183C91.556 104.015 90.7365 103.015 89.6848 102.313C88.6332 101.61 87.3967 101.234 86.1317 101.234C84.8667 101.234 83.6302 101.61 82.5785 102.313C81.5268 103.015 80.7073 104.015 80.2236 105.183C79.7399 106.352 79.6137 107.638 79.861 108.879C80.1084 110.119 80.7181 111.259 81.6132 112.153C83.1389 113.448 84.2691 115.147 84.8741 117.055L82.1247 114.305C81.2308 113.41 80.0915 112.8 78.8509 112.553C77.6104 112.306 76.3244 112.432 75.1555 112.916C73.9867 113.399 72.9877 114.219 72.2847 115.271C71.5818 116.322 71.2065 117.559 71.2065 118.824C71.2065 120.089 71.5818 121.325 72.2847 122.377C72.9877 123.429 73.9867 124.248 75.1555 124.732C76.3244 125.216 77.6104 125.342 78.8509 125.094C80.0915 124.847 81.2308 124.237 82.1247 123.342L85.2791 120.188V120.358C85.4165 122.198 85.1856 124.046 84.6001 125.796C84.0146 127.545 83.0861 129.16 81.869 130.546V131.612H90.3944V130.546C89.1828 129.164 88.2559 127.557 87.6671 125.816C87.0782 124.075 86.8389 122.235 86.9629 120.401V120.188L90.1386 123.342C91.3507 124.472 92.9539 125.086 94.6104 125.057C96.2669 125.028 97.8474 124.357 99.0189 123.185C100.19 122.014 100.861 120.433 100.891 118.777C100.92 117.12 100.305 115.517 99.1756 114.305Z" fill="#1F1F1F"/>
<path d="M69.3367 193.677C68.1378 194.874 66.5127 195.547 64.8183 195.547C63.1238 195.547 61.4986 194.874 60.2997 193.677L57.5503 190.927C58.1403 192.842 59.273 194.545 60.8113 195.829C61.7063 196.723 62.3161 197.863 62.5634 199.103C62.8108 200.344 62.6846 201.63 62.2009 202.799C61.7172 203.967 60.8976 204.966 59.846 205.669C58.7943 206.372 57.5578 206.748 56.2928 206.748C55.0279 206.748 53.7913 206.372 52.7396 205.669C51.6879 204.966 50.8684 203.967 50.3847 202.799C49.901 201.63 49.7748 200.344 50.0221 199.103C50.2695 197.863 50.8793 196.723 51.7743 195.829C53.3001 194.534 54.4302 192.835 55.0353 190.927L52.2859 193.677C51.392 194.572 50.2526 195.181 49.0121 195.429C47.7715 195.676 46.4855 195.55 45.3167 195.066C44.1479 194.583 43.1488 193.763 42.4458 192.711C41.7429 191.66 41.3677 190.423 41.3677 189.158C41.3677 187.893 41.7429 186.657 42.4458 185.605C43.1488 184.553 44.1479 183.734 45.3167 183.25C46.4855 182.766 47.7715 182.64 49.0121 182.888C50.2526 183.135 51.392 183.745 52.2859 184.64L55.4402 187.794V187.56C55.5776 185.72 55.3468 183.872 54.7612 182.122C54.1757 180.373 53.2472 178.758 52.0301 177.372V176.306H60.5555V177.372C59.3387 178.759 58.4088 180.374 57.8198 182.122C57.2308 183.871 56.9943 185.719 57.124 187.56V187.773L60.2997 184.618C61.5118 183.489 63.115 182.874 64.7715 182.903C66.428 182.933 68.0085 183.604 69.18 184.775C70.3515 185.947 71.0226 187.527 71.0518 189.184C71.081 190.84 70.4662 192.443 69.3367 193.655V193.677Z" fill="#1F1F1F"/>
<path d="M129.014 193.677C127.816 194.874 126.19 195.547 124.496 195.547C122.802 195.547 121.176 194.874 119.977 193.677L117.228 190.927C117.818 192.842 118.951 194.545 120.489 195.829C121.384 196.723 121.994 197.863 122.241 199.103C122.489 200.344 122.362 201.63 121.879 202.799C121.395 203.967 120.575 204.966 119.524 205.669C118.472 206.372 117.236 206.748 115.971 206.748C114.706 206.748 113.469 206.372 112.417 205.669C111.366 204.966 110.546 203.967 110.062 202.799C109.579 201.63 109.453 200.344 109.7 199.103C109.947 197.863 110.557 196.723 111.452 195.829C112.978 194.534 114.108 192.835 114.713 190.927L111.964 193.677C111.07 194.572 109.93 195.181 108.69 195.429C107.449 195.676 106.163 195.55 104.994 195.066C103.826 194.583 102.827 193.763 102.124 192.711C101.421 191.66 101.045 190.423 101.045 189.158C101.045 187.893 101.421 186.657 102.124 185.605C102.827 184.553 103.826 183.734 104.994 183.25C106.163 182.766 107.449 182.64 108.69 182.888C109.93 183.135 111.07 183.745 111.964 184.64L115.118 187.794V187.56C115.255 185.72 115.025 183.872 114.439 182.122C113.853 180.373 112.925 178.758 111.708 177.372V176.306H120.233V177.372C119.016 178.759 118.087 180.374 117.498 182.122C116.909 183.871 116.672 185.719 116.802 187.56V187.773L119.977 184.618C121.19 183.489 122.793 182.874 124.449 182.903C126.106 182.933 127.686 183.604 128.858 184.775C130.029 185.947 130.7 187.527 130.73 189.184C130.759 190.84 130.144 192.443 129.014 193.655V193.677Z" fill="#1F1F1F"/>
</svg>
