<svg width="172" height="240" viewBox="0 0 172 240" fill="none" xmlns="http://www.w3.org/2000/svg">
<path d="M160.432 0.762695H11.2373C5.35177 0.762695 0.580566 5.5339 0.580566 11.4195V228.818C0.580566 234.703 5.35177 239.475 11.2373 239.475H160.432C166.318 239.475 171.089 234.703 171.089 228.818V11.4195C171.089 5.5339 166.318 0.762695 160.432 0.762695Z" fill="#F9F1DF"/>
<path d="M29.7161 45.5212C28.9993 45.5332 28.2989 45.7373 27.6878 46.1122C27.0768 46.4871 26.5774 47.019 26.242 47.6526C25.9118 47.0192 25.4167 46.4868 24.8089 46.1117C24.2012 45.7365 23.5033 45.5325 22.7892 45.5212C21.7265 45.5212 20.7073 45.9434 19.9559 46.6949C19.2044 47.4463 18.7822 48.4655 18.7822 49.5282C18.7822 53.9401 25.0697 56.3059 26.242 59.1193C27.4142 56.3059 33.7017 53.9401 33.7017 49.5282C33.7017 48.4692 33.2825 47.4532 32.5357 46.7024C31.7888 45.9515 30.7751 45.5269 29.7161 45.5212V45.5212Z" fill="#C93112"/>
<path d="M142.059 193.651C142.774 193.64 143.471 193.436 144.079 193.06C144.687 192.685 145.182 192.153 145.512 191.519C145.944 192.288 146.619 192.892 147.431 193.236C148.243 193.58 149.147 193.645 150 193.421C150.852 193.197 151.607 192.696 152.145 191.997C152.683 191.298 152.974 190.441 152.972 189.559C152.972 185.147 146.684 182.781 145.512 179.968C144.34 182.781 138.052 185.147 138.052 189.559C138.041 190.092 138.136 190.622 138.333 191.118C138.529 191.614 138.822 192.066 139.196 192.447C139.569 192.828 140.014 193.131 140.506 193.338C140.998 193.545 141.526 193.651 142.059 193.651V193.651Z" fill="#C93112"/>
<path d="M32.7635 30.6021C32.7737 31.4334 32.6217 32.2587 32.3159 33.0318C32.0327 33.762 31.5966 34.4233 31.0371 34.9714C30.4692 35.537 29.7858 35.9732 29.0336 36.2502C28.1841 36.5768 27.2794 36.7361 26.3694 36.7191C25.4353 36.7287 24.5085 36.5549 23.6413 36.2076C22.8227 35.876 22.0928 35.3578 21.5099 34.6943C20.9075 33.9675 20.4581 33.1266 20.1885 32.2219C19.8569 31.1309 19.6987 29.9945 19.7196 28.8543C19.7018 27.4953 19.9033 26.1423 20.3164 24.8474C20.6774 23.7072 21.2485 22.6446 22.0002 21.7143C22.7098 20.8228 23.6041 20.0957 24.6217 19.583C25.682 19.0883 26.8407 18.8405 28.0106 18.8583C28.6923 18.8589 29.3716 18.9376 30.0354 19.0928C30.6477 19.2452 31.2359 19.4819 31.7831 19.7961L31.2716 21.2881C30.8604 21.1145 30.4316 20.9859 29.9928 20.9044C29.6216 20.8233 29.2431 20.7805 28.8631 20.7765C28.1607 20.7568 27.4625 20.8916 26.818 21.1715C26.1734 21.4514 25.5983 21.8696 25.1333 22.3963C24.11 23.5979 23.4845 25.0872 23.3429 26.6591C23.8402 26.1187 24.4731 25.7213 25.1759 25.5081C25.9348 25.2361 26.7355 25.099 27.5417 25.1032C28.2702 25.0934 28.9937 25.2237 29.6731 25.4868C30.2828 25.7423 30.8339 26.1194 31.2929 26.5951C31.7496 27.0812 32.1047 27.6537 32.3373 28.2789C32.6269 29.0188 32.7715 29.8075 32.7635 30.6021V30.6021ZM26.5612 35.0779C26.9807 35.1003 27.3987 35.0116 27.7729 34.8207C28.1472 34.6299 28.4644 34.3436 28.6926 33.9909C29.2184 33.1416 29.4782 32.1544 29.4386 31.1562C29.5082 30.1424 29.2135 29.1371 28.6074 28.3215C28.3406 27.9876 27.999 27.7211 27.6103 27.5434C27.2215 27.3657 26.7965 27.2818 26.3694 27.2985C25.836 27.3105 25.3061 27.3893 24.7923 27.5329C24.2629 27.6641 23.7637 27.8956 23.3216 28.215V29.3446C23.3167 30.1373 23.3809 30.9289 23.5134 31.7104C23.6383 32.3419 23.8537 32.952 24.1529 33.522C24.4004 33.9795 24.7505 34.3735 25.1759 34.673C25.576 34.9755 26.0599 35.1467 26.5612 35.1632V35.0779Z" fill="#C93112"/>
<path d="M138.926 208.485C138.916 207.654 139.068 206.829 139.373 206.056C139.657 205.331 140.085 204.671 140.631 204.116C141.207 203.551 141.897 203.115 142.656 202.837C144.387 202.184 146.296 202.184 148.027 202.837C148.849 203.163 149.58 203.682 150.158 204.351C150.767 205.076 151.224 205.917 151.501 206.823C151.822 207.916 151.98 209.051 151.97 210.19C151.981 211.551 151.772 212.904 151.352 214.197C150.999 215.341 150.427 216.406 149.668 217.331C148.958 218.222 148.064 218.949 147.046 219.462C145.986 219.957 144.827 220.204 143.657 220.187C142.976 220.185 142.297 220.106 141.633 219.952C141.02 219.8 140.432 219.563 139.885 219.249L140.396 217.757C140.809 217.927 141.237 218.056 141.675 218.14C142.053 218.223 142.439 218.266 142.826 218.268C143.528 218.287 144.226 218.151 144.871 217.871C145.515 217.592 146.09 217.174 146.556 216.649C147.563 215.437 148.186 213.953 148.346 212.386C147.839 212.924 147.2 213.321 146.492 213.537C145.733 213.809 144.933 213.946 144.126 213.942C143.398 213.949 142.675 213.819 141.995 213.558C141.385 213.303 140.834 212.926 140.375 212.45C139.918 211.968 139.569 211.394 139.352 210.766C139.056 210.043 138.911 209.267 138.926 208.485V208.485ZM145.107 204.01C144.688 203.989 144.27 204.079 143.897 204.27C143.523 204.46 143.205 204.745 142.975 205.097C142.45 205.946 142.19 206.933 142.229 207.931C142.166 208.948 142.468 209.953 143.082 210.766C143.349 211.1 143.69 211.366 144.079 211.544C144.468 211.722 144.893 211.806 145.32 211.789C145.853 211.775 146.383 211.697 146.897 211.555C147.426 211.423 147.926 211.192 148.368 210.873V209.743C148.366 208.95 148.295 208.158 148.155 207.377C148.027 206.749 147.819 206.14 147.537 205.565C147.281 205.107 146.924 204.713 146.492 204.415C146.082 204.142 145.599 204.001 145.107 204.01V204.01Z" fill="#C93112"/>
<path d="M62.9226 37.5288C61.5114 37.5354 60.1271 37.9156 58.9104 38.6306C57.6938 39.3456 56.6881 40.37 55.9957 41.5997C55.1312 40.0623 53.7813 38.855 52.1572 38.1669C50.5332 37.4788 48.7268 37.3487 47.021 37.7971C45.3152 38.2455 43.8062 39.247 42.7304 40.6448C41.6547 42.0425 41.0729 43.7576 41.0762 45.5214C41.0762 54.3452 53.6512 59.0768 55.9957 64.7036C58.3615 59.0768 70.9152 54.3452 70.9152 45.5214C70.9152 43.4016 70.0731 41.3687 68.5742 39.8698C67.0753 38.3709 65.0424 37.5288 62.9226 37.5288Z" fill="#C93112"/>
<path d="M122.601 37.5288C121.19 37.5354 119.805 37.9156 118.589 38.6306C117.372 39.3456 116.366 40.37 115.674 41.5997C114.809 40.0623 113.46 38.855 111.835 38.1669C110.211 37.4788 108.405 37.3487 106.699 37.7971C104.993 38.2455 103.484 39.247 102.409 40.6448C101.333 42.0425 100.751 43.7576 100.754 45.5214C100.754 54.3452 113.329 59.0768 115.674 64.7036C118.04 59.0768 130.593 54.3452 130.593 45.5214C130.593 43.4016 129.751 41.3687 128.252 39.8698C126.754 38.3709 124.721 37.5288 122.601 37.5288V37.5288Z" fill="#C93112"/>
<path d="M122.601 106.798C121.19 106.804 119.805 107.184 118.589 107.899C117.372 108.614 116.366 109.639 115.674 110.869C114.809 109.331 113.46 108.124 111.835 107.436C110.211 106.748 108.405 106.618 106.699 107.066C104.993 107.514 103.484 108.516 102.409 109.914C101.333 111.311 100.751 113.026 100.754 114.79C100.754 123.614 113.329 128.346 115.674 133.972C118.04 128.346 130.593 123.614 130.593 114.79C130.593 112.67 129.751 110.637 128.252 109.139C126.754 107.64 124.721 106.798 122.601 106.798V106.798Z" fill="#C93112"/>
<path d="M62.9228 106.798C61.5116 106.804 60.1273 107.184 58.9107 107.899C57.694 108.614 56.6883 109.639 55.9959 110.869C55.1315 109.331 53.7815 108.124 52.1575 107.436C50.5335 106.748 48.7271 106.618 47.0212 107.066C45.3154 107.514 43.8064 108.516 42.7307 109.914C41.6549 111.311 41.0731 113.026 41.0764 114.79C41.0764 123.614 53.6514 128.346 55.9959 133.972C58.3617 128.346 70.9154 123.614 70.9154 114.79C70.9154 112.67 70.0734 110.637 68.5745 109.139C67.0756 107.64 65.0426 106.798 62.9228 106.798Z" fill="#C93112"/>
<path d="M62.9228 201.643C61.5116 201.636 60.1273 201.256 58.9107 200.541C57.694 199.826 56.6883 198.802 55.9959 197.572C55.1315 199.11 53.7815 200.317 52.1575 201.005C50.5335 201.693 48.7271 201.823 47.0212 201.375C45.3154 200.926 43.8064 199.925 42.7307 198.527C41.6549 197.129 41.0731 195.414 41.0764 193.65C41.0764 184.827 53.6514 180.095 55.9959 174.468C58.3617 180.095 70.9154 184.827 70.9154 193.65C70.9154 195.77 70.0734 197.803 68.5745 199.302C67.0756 200.801 65.0426 201.643 62.9228 201.643Z" fill="#C93112"/>
<path d="M122.601 201.643C121.19 201.636 119.805 201.256 118.589 200.541C117.372 199.826 116.366 198.802 115.674 197.572C114.809 199.11 113.46 200.317 111.835 201.005C110.211 201.693 108.405 201.823 106.699 201.375C104.993 200.926 103.484 199.925 102.409 198.527C101.333 197.129 100.751 195.414 100.754 193.65C100.754 184.827 113.329 180.095 115.674 174.468C118.04 180.095 130.593 184.827 130.593 193.65C130.593 195.77 129.751 197.803 128.252 199.302C126.754 200.801 124.721 201.643 122.601 201.643V201.643Z" fill="#C93112"/>
</svg>
