<svg width="172" height="239" viewBox="0 0 172 239" fill="none" xmlns="http://www.w3.org/2000/svg">
<path d="M160.432 0.288086H11.2373C5.35177 0.288086 0.580566 5.05929 0.580566 10.9449V228.343C0.580566 234.229 5.35177 239 11.2373 239H160.432C166.318 239 171.089 234.229 171.089 228.343V10.9449C171.089 5.05929 166.318 0.288086 160.432 0.288086Z" fill="#F9F1DF"/>
<path d="M26.157 57.3016C24.2377 54.306 21.6929 51.7612 18.6973 49.8418C21.6929 47.9225 24.2377 45.3777 26.157 42.3821C28.0821 45.373 30.6258 47.9167 33.6168 49.8418C30.6258 51.7669 28.0821 54.3106 26.157 57.3016Z" fill="#C93112"/>
<path d="M145.513 178.789C147.438 181.78 149.982 184.324 152.972 186.249C149.982 188.174 147.438 190.718 145.513 193.709C143.593 190.713 141.049 188.168 138.053 186.249C141.049 184.329 143.593 181.785 145.513 178.789Z" fill="#C93112"/>
<path d="M32.7637 29.1464C32.7739 29.9778 32.6219 30.803 32.3162 31.5762C32.0329 32.3064 31.5969 32.9676 31.0374 33.5157C30.4695 34.0813 29.786 34.5176 29.0339 34.7945C28.1844 35.1212 27.2797 35.2804 26.3697 35.2634C25.4356 35.273 24.5087 35.0993 23.6415 34.7519C22.8229 34.4204 22.0931 33.9022 21.5102 33.2386C20.9078 32.5118 20.4583 31.6709 20.1888 30.7662C19.8571 29.6752 19.6989 28.5389 19.7199 27.3987C19.702 26.0397 19.9036 24.6866 20.3166 23.3918C20.6776 22.2515 21.2487 21.1889 22.0004 20.2587C22.7211 19.4057 23.6146 18.7156 24.6219 18.2339C25.6822 17.7392 26.841 17.4914 28.0109 17.5092C28.6925 17.5098 29.3718 17.5885 30.0356 17.7437C30.6479 17.8962 31.2361 18.1328 31.7833 18.447L31.2718 19.939C30.8606 19.7655 30.4318 19.6368 29.993 19.5553C29.6218 19.4743 29.2433 19.4314 28.8634 19.4275C28.161 19.4077 27.4628 19.5425 26.8182 19.8224C26.1737 20.1023 25.5986 20.5205 25.1335 21.0473C24.1103 22.2488 23.4848 23.7381 23.3432 25.31C23.8405 24.7696 24.4734 24.3722 25.1761 24.1591C25.935 23.887 26.7358 23.75 27.542 23.7541C28.2704 23.7444 28.994 23.8746 29.6733 24.1377C30.283 24.3932 30.8342 24.7703 31.2931 25.246C31.7499 25.7321 32.105 26.3046 32.3375 26.9298C32.614 27.6364 32.7584 28.3877 32.7637 29.1464ZM26.5615 33.6223C26.981 33.6447 27.399 33.5559 27.7732 33.3651C28.1474 33.1742 28.4646 32.888 28.6928 32.5353C29.2186 31.6859 29.4784 30.6987 29.4388 29.7006C29.5085 28.6868 29.2137 27.6815 28.6076 26.8659C28.3408 26.532 27.9992 26.2654 27.6105 26.0877C27.2218 25.91 26.7968 25.8261 26.3697 25.8428C25.8362 25.8548 25.3064 25.9336 24.7925 26.0773C24.2632 26.2085 23.7639 26.44 23.3219 26.7593V27.9955C23.3169 28.7882 23.3811 29.5797 23.5137 30.3613C23.6386 30.9928 23.854 31.6029 24.1531 32.1729C24.4007 32.6304 24.7508 33.0244 25.1761 33.3239C25.598 33.5588 26.0803 33.6627 26.5615 33.6223Z" fill="#C93112"/>
<path d="M138.927 207.03C138.916 206.198 139.068 205.373 139.374 204.6C139.658 203.875 140.086 203.215 140.632 202.66C141.212 202.095 141.901 201.653 142.656 201.36C143.503 201.051 144.398 200.9 145.299 200.913C146.234 200.899 147.161 201.073 148.027 201.424C148.849 201.75 149.58 202.269 150.159 202.937C150.768 203.663 151.225 204.504 151.502 205.41C151.823 206.503 151.981 207.638 151.97 208.777C151.981 210.138 151.773 211.491 151.352 212.784C151 213.928 150.428 214.992 149.669 215.917C148.954 216.777 148.059 217.468 147.047 217.942C145.983 218.427 144.827 218.674 143.658 218.667C142.977 218.665 142.297 218.586 141.633 218.432C141.021 218.28 140.433 218.043 139.886 217.729L140.397 216.258C140.81 216.423 141.238 216.545 141.676 216.621C142.054 216.703 142.44 216.746 142.827 216.749C143.529 216.767 144.227 216.631 144.871 216.352C145.516 216.072 146.091 215.654 146.557 215.129C147.564 213.917 148.187 212.433 148.347 210.866C147.839 211.404 147.2 211.801 146.493 212.017C145.734 212.289 144.933 212.426 144.127 212.422C143.399 212.43 142.676 212.299 141.996 212.038C141.386 211.783 140.835 211.406 140.376 210.93C139.918 210.448 139.57 209.874 139.353 209.246C139.065 208.543 138.92 207.789 138.927 207.03ZM145.107 202.554C144.688 202.534 144.271 202.623 143.897 202.814C143.523 203.005 143.206 203.29 142.976 203.641C142.45 204.49 142.191 205.477 142.23 206.475C142.167 207.492 142.469 208.497 143.083 209.31C143.349 209.644 143.691 209.911 144.08 210.088C144.468 210.266 144.893 210.35 145.321 210.333C145.854 210.319 146.384 210.241 146.898 210.099C147.427 209.968 147.926 209.736 148.368 209.417V208.287C148.368 207.494 148.296 206.702 148.155 205.921C148.027 205.294 147.82 204.685 147.537 204.11C147.282 203.651 146.924 203.257 146.493 202.959C146.088 202.666 145.607 202.495 145.107 202.468V202.554Z" fill="#C93112"/>
<path d="M55.9959 62.63C52.1572 56.6388 47.0676 51.5492 41.0764 47.7105C47.0676 43.8718 52.1572 38.7822 55.9959 32.791C59.8346 38.7822 64.9242 43.8718 70.9154 47.7105C64.9242 51.5492 59.8346 56.6388 55.9959 62.63Z" fill="#C93112"/>
<path d="M115.674 62.6298C111.835 56.6386 106.746 51.549 100.755 47.7103C106.746 43.8716 111.835 38.7819 115.674 32.7908C119.513 38.7819 124.602 43.8716 130.594 47.7103C124.602 51.549 119.513 56.6386 115.674 62.6298Z" fill="#C93112"/>
<path d="M115.674 131.899C111.835 125.908 106.746 120.818 100.755 116.979C106.746 113.141 111.835 108.051 115.674 102.06C119.513 108.051 124.602 113.141 130.594 116.979C124.602 120.818 119.513 125.908 115.674 131.899Z" fill="#C93112"/>
<path d="M55.9962 131.899C52.1575 125.908 47.0678 120.818 41.0767 116.979C47.0678 113.141 52.1575 108.051 55.9962 102.06C59.8349 108.051 64.9245 113.141 70.9156 116.979C64.9245 120.818 59.8349 125.908 55.9962 131.899Z" fill="#C93112"/>
<path d="M70.9156 188.38C64.9245 192.218 59.8349 197.308 55.9962 203.299C52.1575 197.308 47.0678 192.218 41.0767 188.38C47.0678 184.541 52.1575 179.451 55.9962 173.46C59.8349 179.451 64.9245 184.541 70.9156 188.38Z" fill="#C93112"/>
<path d="M130.594 188.38C124.602 192.218 119.513 197.308 115.674 203.299C111.835 197.308 106.746 192.218 100.755 188.38C106.746 184.541 111.835 179.451 115.674 173.46C119.513 179.451 124.602 184.541 130.594 188.38Z" fill="#C93112"/>
</svg>
