<svg width="171" height="240" viewBox="0 0 171 240" fill="none" xmlns="http://www.w3.org/2000/svg">
<path d="M160.157 0.762695H10.962C5.07638 0.762695 0.305176 5.5339 0.305176 11.4195V228.818C0.305176 234.703 5.07638 239.475 10.962 239.475H160.157C166.042 239.475 170.814 234.703 170.814 228.818V11.4195C170.814 5.5339 166.042 0.762695 160.157 0.762695Z" fill="#F9F1DF"/>
<path d="M29.3344 45.5212C28.9908 46.1383 28.4885 46.6523 27.8796 47.0102C27.2707 47.3681 26.5772 47.5568 25.871 47.5568C25.1647 47.5568 24.4712 47.3681 23.8623 47.0102C23.2534 46.6523 22.7511 46.1383 22.4075 45.5212C21.3485 45.5269 20.3348 45.9515 19.588 46.7024C18.8411 47.4532 18.4219 48.4692 18.4219 49.5282C18.4219 53.9401 24.8159 56.3059 25.8816 59.1193C27.0539 56.3059 33.3414 53.9401 33.3414 49.5282C33.3414 48.4655 32.9192 47.4463 32.1677 46.6949C31.4163 45.9434 30.3971 45.5212 29.3344 45.5212Z" fill="#C93112"/>
<path d="M141.764 193.651C142.107 193.034 142.61 192.52 143.218 192.162C143.827 191.804 144.521 191.616 145.227 191.616C145.933 191.616 146.627 191.804 147.236 192.162C147.845 192.52 148.347 193.034 148.691 193.651C149.753 193.651 150.772 193.229 151.524 192.477C152.275 191.726 152.698 190.707 152.698 189.644C152.698 185.232 146.304 182.866 145.238 180.053C144.066 182.866 137.778 185.232 137.778 189.644C137.778 190.703 138.197 191.719 138.944 192.47C139.691 193.221 140.705 193.645 141.764 193.651Z" fill="#C93112"/>
<path d="M30.1439 21.5867H26.4567C25.8386 21.5867 25.2631 21.5867 24.7515 21.5867C24.3284 21.6094 23.908 21.6664 23.4941 21.7572C23.302 21.7847 23.1193 21.8578 22.9613 21.9703C22.8117 22.0926 22.7006 22.2554 22.6415 22.4392L21.7464 25.21H19.9986C19.9347 24.1951 19.9347 23.1771 19.9986 22.1622C20.0547 21.2052 20.1615 20.2518 20.3184 19.3062H31.5506L32.3818 21.1178C30.8145 23.1588 29.5179 25.394 28.5241 27.7676C27.425 30.4861 26.7771 33.3658 26.6059 36.2931H23.7499L23.2597 35.675C23.3751 34.3057 23.6468 32.9542 24.0696 31.6467C24.4772 30.3256 24.9977 29.0421 25.6255 27.8103C26.2448 26.5988 26.9574 25.4372 27.7568 24.3362C28.4734 23.3538 29.2719 22.4341 30.1439 21.5867Z" fill="#C93112"/>
<path d="M140.975 217.586H144.662C145.28 217.586 145.856 217.586 146.367 217.586C146.783 217.565 147.197 217.508 147.603 217.415C147.803 217.391 147.993 217.318 148.158 217.202C148.307 217.084 148.412 216.918 148.456 216.733L149.372 213.962H151.12C151.195 214.977 151.195 215.996 151.12 217.01C151.12 218.033 150.95 218.992 150.822 219.866H139.568L138.758 218.055C140.318 216.012 141.608 213.777 142.595 211.405C143.694 208.686 144.342 205.807 144.513 202.879H147.369L147.88 203.497C147.755 204.865 147.483 206.216 147.071 207.526C146.665 208.851 146.137 210.135 145.493 211.362C144.874 212.574 144.162 213.736 143.362 214.836C142.64 215.814 141.842 216.733 140.975 217.586Z" fill="#C93112"/>
<path d="M62.6474 37.5288C61.2358 37.5332 59.8506 37.9124 58.6336 38.6277C57.4165 39.3429 56.4113 40.3686 55.7205 41.5997C54.8561 40.0623 53.5061 38.855 51.882 38.1669C50.258 37.4788 48.4516 37.3487 46.7458 37.7971C45.0399 38.2455 43.531 39.247 42.4552 40.6448C41.3795 42.0425 40.7977 43.7576 40.801 45.5214C40.801 54.3452 53.376 59.0768 55.7205 64.7036C58.065 59.0768 70.64 54.3452 70.64 45.5214C70.64 43.4016 69.798 41.3687 68.2991 39.8698C66.8002 38.3709 64.7672 37.5288 62.6474 37.5288Z" fill="#C93112"/>
<path d="M92.4865 72.696C91.0749 72.7005 89.6897 73.0797 88.4727 73.7949C87.2556 74.5102 86.2504 75.5358 85.5596 76.7669C84.6952 75.2295 83.3452 74.0222 81.7211 73.3341C80.0971 72.646 78.2907 72.516 76.5849 72.9644C74.8791 73.4127 73.3701 74.4142 72.2943 75.812C71.2186 77.2098 70.6369 78.9248 70.6402 80.6886C70.6402 89.5124 83.2152 94.2441 85.5596 99.8708C87.9041 94.2441 100.479 89.5124 100.479 80.6886C100.479 78.5689 99.6371 76.5359 98.1382 75.037C96.6393 73.5381 94.6063 72.696 92.4865 72.696Z" fill="#C93112"/>
<path d="M122.325 37.5288C120.914 37.5332 119.529 37.9124 118.312 38.6277C117.095 39.3429 116.089 40.3686 115.399 41.5997C114.534 40.0623 113.184 38.855 111.56 38.1669C109.936 37.4788 108.13 37.3487 106.424 37.7971C104.718 38.2455 103.209 39.247 102.133 40.6448C101.057 42.0425 100.476 43.7576 100.479 45.5214C100.479 54.3452 113.054 59.0768 115.399 64.7036C117.743 59.0768 130.318 54.3452 130.318 45.5214C130.318 43.4016 129.476 41.3687 127.977 39.8698C126.478 38.3709 124.445 37.5288 122.325 37.5288Z" fill="#C93112"/>
<path d="M122.325 106.798C120.914 106.802 119.529 107.181 118.312 107.896C117.095 108.612 116.089 109.637 115.399 110.869C114.534 109.331 113.184 108.124 111.56 107.436C109.936 106.748 108.13 106.618 106.424 107.066C104.718 107.514 103.209 108.516 102.133 109.914C101.057 111.311 100.476 113.026 100.479 114.79C100.479 123.614 113.054 128.346 115.399 133.972C117.743 128.346 130.318 123.614 130.318 114.79C130.318 112.67 129.476 110.637 127.977 109.139C126.478 107.64 124.445 106.798 122.325 106.798Z" fill="#C93112"/>
<path d="M62.6474 106.798C61.2358 106.802 59.8506 107.181 58.6336 107.896C57.4165 108.612 56.4113 109.637 55.7205 110.869C54.8561 109.331 53.5061 108.124 51.882 107.436C50.258 106.748 48.4516 106.618 46.7458 107.066C45.0399 107.514 43.531 108.516 42.4552 109.914C41.3795 111.311 40.7977 113.026 40.801 114.79C40.801 123.614 53.376 128.346 55.7205 133.972C58.065 128.346 70.64 123.614 70.64 114.79C70.64 112.67 69.798 110.637 68.2991 109.139C66.8002 107.64 64.7672 106.798 62.6474 106.798Z" fill="#C93112"/>
<path d="M62.6474 201.643C61.2358 201.639 59.8506 201.259 58.6336 200.544C57.4165 199.829 56.4113 198.803 55.7205 197.572C54.8561 199.11 53.5061 200.317 51.882 201.005C50.258 201.693 48.4516 201.823 46.7458 201.375C45.0399 200.926 43.531 199.925 42.4552 198.527C41.3795 197.129 40.7977 195.414 40.801 193.65C40.801 184.827 53.376 180.095 55.7205 174.468C58.065 180.095 70.64 184.827 70.64 193.65C70.64 195.77 69.798 197.803 68.2991 199.302C66.8002 200.801 64.7672 201.643 62.6474 201.643Z" fill="#C93112"/>
<path d="M122.325 201.643C120.914 201.639 119.529 201.259 118.312 200.544C117.095 199.829 116.089 198.803 115.399 197.572C114.534 199.11 113.184 200.317 111.56 201.005C109.936 201.693 108.13 201.823 106.424 201.375C104.718 200.926 103.209 199.925 102.133 198.527C101.057 197.129 100.476 195.414 100.479 193.65C100.479 184.827 113.054 180.095 115.399 174.468C117.743 180.095 130.318 184.827 130.318 193.65C130.318 195.77 129.476 197.803 127.977 199.302C126.478 200.801 124.445 201.643 122.325 201.643Z" fill="#C93112"/>
</svg>
