<svg width="171" height="239" viewBox="0 0 171 239" fill="none" xmlns="http://www.w3.org/2000/svg">
<path d="M160.157 0.288086H10.962C5.07638 0.288086 0.305176 5.05929 0.305176 10.9449V228.343C0.305176 234.229 5.07638 239 10.962 239H160.157C166.042 239 170.814 234.229 170.814 228.343V10.9449C170.814 5.05929 166.042 0.288086 160.157 0.288086Z" fill="#F9F1DF"/>
<path d="M25.8816 57.3018C23.9565 54.3109 21.4128 51.7672 18.4219 49.8421C21.4128 47.917 23.9565 45.3733 25.8816 42.3823C27.8067 45.3733 30.3504 47.917 33.3414 49.8421C30.3504 51.7672 27.8067 54.3109 25.8816 57.3018Z" fill="#C93112"/>
<path d="M145.238 178.789C147.163 181.78 149.707 184.324 152.698 186.249C149.707 188.174 147.163 190.718 145.238 193.709C143.313 190.718 140.769 188.174 137.778 186.249C140.769 184.324 143.313 181.78 145.238 178.789Z" fill="#C93112"/>
<path d="M30.1439 20.0461H26.4567C25.8386 20.0461 25.2631 20.0461 24.7515 20.0461C24.3284 20.0688 23.908 20.1259 23.4941 20.2167C23.302 20.2441 23.1193 20.3172 22.9613 20.4298C22.8117 20.552 22.7006 20.7149 22.6415 20.8987L21.7464 23.6695H19.9986C19.9347 22.6545 19.9347 21.6366 19.9986 20.6216C20.0547 19.6647 20.1615 18.7113 20.3184 17.7656H31.5506L32.3818 19.5772C30.8145 21.6182 29.5179 23.8534 28.5241 26.2271C27.425 28.9456 26.7771 31.8253 26.6059 34.7525H23.7499L23.2597 34.1344C23.3751 32.7652 23.6468 31.4136 24.0696 30.1061C24.4772 28.785 24.9977 27.5015 25.6255 26.2697C26.2448 25.0582 26.9574 23.8967 27.7568 22.7956C28.4734 21.8133 29.2719 20.8935 30.1439 20.0461Z" fill="#C93112"/>
<path d="M140.975 216.046H144.662C145.28 216.046 145.856 216.046 146.367 216.046C146.783 216.025 147.197 215.968 147.603 215.875C147.803 215.851 147.993 215.778 148.158 215.662C148.307 215.543 148.412 215.378 148.456 215.193L149.372 212.422H151.12C151.195 213.437 151.195 214.455 151.12 215.47C151.12 216.493 150.95 217.452 150.822 218.326H139.568L138.758 216.514C140.318 214.472 141.608 212.237 142.595 209.865C143.694 207.146 144.342 204.266 144.513 201.339H147.369L147.88 201.957C147.755 203.325 147.483 204.675 147.071 205.986C146.665 207.31 146.137 208.595 145.493 209.822C144.874 211.034 144.162 212.195 143.362 213.296C142.64 214.274 141.842 215.193 140.975 216.046Z" fill="#C93112"/>
<path d="M55.7205 62.6302C51.8818 56.6391 46.7922 51.5495 40.801 47.7108C46.7922 43.8721 51.8818 38.7824 55.7205 32.7913C59.5592 38.7824 64.6488 43.8721 70.64 47.7108C64.6488 51.5495 59.5592 56.6391 55.7205 62.6302Z" fill="#C93112"/>
<path d="M85.5596 97.7975C81.7209 91.8063 76.6313 86.7167 70.6401 82.878C76.6313 79.0393 81.7209 73.9497 85.5596 67.9585C89.3983 73.9497 94.4879 79.0393 100.479 82.878C94.4879 86.7167 89.3983 91.8063 85.5596 97.7975Z" fill="#C93112"/>
<path d="M115.398 62.63C111.56 56.6388 106.47 51.5492 100.479 47.7105C106.47 43.8718 111.56 38.7822 115.398 32.791C119.237 38.7822 124.327 43.8718 130.318 47.7105C124.327 51.5492 119.237 56.6388 115.398 62.63Z" fill="#C93112"/>
<path d="M115.398 131.899C111.56 125.908 106.47 120.818 100.479 116.98C106.47 113.141 111.56 108.051 115.398 102.06C119.237 108.051 124.327 113.141 130.318 116.98C124.327 120.818 119.237 125.908 115.398 131.899Z" fill="#C93112"/>
<path d="M55.7205 131.899C51.8818 125.908 46.7922 120.818 40.801 116.98C46.7922 113.141 51.8818 108.051 55.7205 102.06C59.5592 108.051 64.6488 113.141 70.64 116.98C64.6488 120.818 59.5592 125.908 55.7205 131.899Z" fill="#C93112"/>
<path d="M70.64 188.38C64.6488 192.219 59.5592 197.308 55.7205 203.299C51.8818 197.308 46.7922 192.219 40.801 188.38C46.7922 184.541 51.8818 179.452 55.7205 173.46C59.5592 179.452 64.6488 184.541 70.64 188.38Z" fill="#C93112"/>
<path d="M130.318 188.38C124.327 192.219 119.237 197.308 115.398 203.299C111.56 197.308 106.47 192.219 100.479 188.38C106.47 184.541 111.56 179.452 115.398 173.46C119.237 179.452 124.327 184.541 130.318 188.38Z" fill="#C93112"/>
</svg>
