<svg width="171" height="239" viewBox="0 0 171 239" fill="none" xmlns="http://www.w3.org/2000/svg">
<path d="M160.157 0H10.962C5.07638 0 0.305176 4.7712 0.305176 10.6568V228.055C0.305176 233.941 5.07638 238.712 10.962 238.712H160.157C166.042 238.712 170.814 233.941 170.814 228.055V10.6568C170.814 4.7712 166.042 0 160.157 0Z" fill="#F9F1DF"/>
<path d="M32.4034 49.1489C31.8013 48.5554 30.9897 48.2226 30.1442 48.2226C29.2987 48.2226 28.4871 48.5554 27.885 49.1489L26.5209 50.5343C26.8129 49.578 27.3755 48.7268 28.1407 48.0832C28.5873 47.6361 28.8913 47.0667 29.0144 46.4469C29.1375 45.8271 29.0743 45.1848 28.8325 44.6009C28.5908 44.0171 28.1814 43.518 27.6562 43.1666C27.1309 42.8153 26.5134 42.6275 25.8815 42.627C25.0343 42.63 24.2226 42.967 23.6223 43.5648C23.3233 43.8601 23.0859 44.2119 22.9238 44.5997C22.7618 44.9876 22.6783 45.4037 22.6783 45.824C22.6783 46.2443 22.7618 46.6604 22.9238 47.0482C23.0859 47.436 23.3233 47.7878 23.6223 48.0832C24.3875 48.7268 24.9501 49.578 25.2421 50.5343L23.878 49.1489C23.4299 48.7044 22.8602 48.4025 22.2407 48.2813C21.6213 48.1601 20.9798 48.2249 20.3971 48.4676C19.8145 48.7104 19.3167 49.1202 18.9666 49.6453C18.6164 50.1705 18.4297 50.7876 18.4297 51.4188C18.4297 52.05 18.6164 52.6671 18.9666 53.1922C19.3167 53.7174 19.8145 54.1272 20.3971 54.37C20.9798 54.6127 21.6213 54.6775 22.2407 54.5563C22.8602 54.4351 23.4299 54.1332 23.878 53.6887L25.4552 52.0902C25.5233 53.0099 25.4076 53.934 25.1149 54.8086C24.8221 55.6832 24.3582 56.4907 23.7501 57.1841V57.6956H28.0129V57.1841C26.7906 55.7873 26.1701 53.9639 26.2865 52.1115V51.9836L27.8636 53.5821C28.1617 53.8788 28.5154 54.1139 28.9043 54.2739C29.2933 54.4339 29.7099 54.5158 30.1304 54.5148C30.551 54.5138 30.9673 54.43 31.3555 54.2681C31.7436 54.1063 32.0961 53.8696 32.3928 53.5715C32.6895 53.2734 32.9246 52.9198 33.0846 52.5308C33.2446 52.1419 33.3265 51.7253 33.3255 51.3047C33.3245 50.8841 33.2407 50.4679 33.0789 50.0797C32.917 49.6915 32.6802 49.339 32.3821 49.0423L32.4034 49.1489Z" fill="#1F1F1F"/>
<path d="M138.716 189.563C139.318 190.157 140.129 190.49 140.975 190.49C141.821 190.49 142.632 190.157 143.234 189.563L144.598 188.178C144.306 189.134 143.744 189.985 142.978 190.629C142.532 191.076 142.228 191.646 142.105 192.265C141.982 192.885 142.045 193.527 142.287 194.111C142.528 194.695 142.938 195.194 143.463 195.546C143.988 195.897 144.606 196.085 145.238 196.085C146.085 196.082 146.897 195.745 147.497 195.147C147.796 194.852 148.033 194.5 148.195 194.112C148.357 193.725 148.441 193.309 148.441 192.888C148.441 192.468 148.357 192.052 148.195 191.664C148.033 191.276 147.796 190.924 147.497 190.629C146.732 189.985 146.169 189.134 145.877 188.178L147.241 189.563C147.689 190.008 148.259 190.31 148.878 190.431C149.498 190.552 150.139 190.487 150.722 190.245C151.305 190.002 151.803 189.592 152.153 189.067C152.503 188.542 152.69 187.925 152.69 187.293C152.69 186.662 152.503 186.045 152.153 185.52C151.803 184.995 151.305 184.585 150.722 184.342C150.139 184.1 149.498 184.035 148.878 184.156C148.259 184.277 147.689 184.579 147.241 185.024L145.664 186.622C145.596 185.702 145.712 184.778 146.004 183.904C146.297 183.029 146.761 182.222 147.369 181.528V181.017H143.106V181.528C144.329 182.925 144.949 184.748 144.833 186.601V186.729L143.256 185.13C142.654 184.531 141.838 184.195 140.989 184.197C140.139 184.199 139.326 184.539 138.726 185.141C138.127 185.743 137.792 186.558 137.794 187.408C137.796 188.257 138.135 189.071 138.737 189.67L138.716 189.563Z" fill="#1F1F1F"/>
<path d="M30.1444 21.3135H26.4572C25.8391 21.3135 25.2635 21.3135 24.752 21.3135C24.3289 21.3362 23.9084 21.3932 23.4946 21.484C23.3025 21.5115 23.1198 21.5846 22.9618 21.6971C22.8122 21.8193 22.7011 21.9822 22.642 22.166L21.7469 24.9368H19.9991C19.9352 23.9218 19.9352 22.9039 19.9991 21.889C20.0885 20.9804 20.2237 20.077 20.4041 19.1821H31.6364L32.4676 20.9938C30.8956 23.0547 29.5988 25.3116 28.6099 27.7076C27.5108 30.426 26.8628 33.3057 26.6916 36.233H23.7503L23.2602 35.6149C23.3756 34.2456 23.6473 32.8941 24.0701 31.5866C24.4777 30.2655 24.9982 28.982 25.6259 27.7502C26.2453 26.5387 26.9579 25.3771 27.7573 24.2761C28.4639 23.22 29.2627 22.2285 30.1444 21.3135Z" fill="#1F1F1F"/>
<path d="M140.975 217.399H144.662C145.28 217.399 145.856 217.399 146.368 217.399C146.784 217.378 147.197 217.321 147.604 217.228C147.803 217.204 147.994 217.131 148.158 217.015C148.307 216.897 148.412 216.731 148.456 216.546L149.373 213.775H151.12C151.195 214.79 151.195 215.809 151.12 216.823C151.12 217.846 150.95 218.805 150.822 219.679H139.568L138.759 217.868C140.318 215.825 141.608 213.59 142.595 211.218C143.694 208.499 144.342 205.62 144.513 202.692H147.369L147.881 203.31C147.755 204.678 147.483 206.029 147.071 207.339C146.665 208.664 146.137 209.948 145.494 211.175C144.875 212.387 144.162 213.549 143.362 214.649C142.64 215.627 141.842 216.546 140.975 217.399Z" fill="#1F1F1F"/>
<path d="M68.7644 45.0352C67.5655 43.8378 65.9404 43.1652 64.2459 43.1652C62.5515 43.1652 60.9263 43.8378 59.7275 45.0352L56.9781 47.7846C57.568 45.8696 58.7007 44.1667 60.239 42.8825C61.4364 41.6836 62.109 40.0585 62.109 38.364C62.109 36.6696 61.4364 35.0444 60.239 33.8456C59.0401 32.6482 57.4149 31.9756 55.7205 31.9756C54.0261 31.9756 52.4009 32.6482 51.202 33.8456C50.0046 35.0444 49.332 36.6696 49.332 38.364C49.332 40.0585 50.0046 41.6836 51.202 42.8825C52.7403 44.1667 53.873 45.8696 54.4629 47.7846L51.7135 45.0352C50.8196 44.1401 49.6803 43.5304 48.4398 43.283C47.1992 43.0357 45.9132 43.1618 44.7444 43.6455C43.5755 44.1293 42.5765 44.9488 41.8736 46.0005C41.1706 47.0521 40.7954 48.2887 40.7954 49.5536C40.7954 50.8186 41.1706 52.0552 41.8736 53.1068C42.5765 54.1585 43.5755 54.978 44.7444 55.4618C45.9132 55.9455 47.1992 56.0716 48.4398 55.8243C49.6803 55.5769 50.8196 54.9671 51.7135 54.0721L54.8679 50.9177C54.8679 50.9177 54.8679 51.0243 54.8679 51.0882C55.0029 52.9276 54.7709 54.7755 54.1855 56.5245C53.6 58.2734 52.6729 59.8886 51.4578 61.2761V62.3418H59.9832V61.2761C57.5518 58.4845 56.3188 54.8469 56.5518 51.1522C56.5518 51.1522 56.5518 51.0243 56.5518 50.939L59.7061 54.0934C60.9182 55.2229 62.5214 55.8378 64.1779 55.8085C65.8344 55.7793 67.4149 55.1083 68.5864 53.9368C69.7579 52.7653 70.4289 51.1848 70.4581 49.5283C70.4874 47.8718 69.8725 46.2686 68.743 45.0565L68.7644 45.0352Z" fill="#1F1F1F"/>
<path d="M98.6035 80.2027C97.4046 79.0053 95.7795 78.3327 94.085 78.3327C92.3906 78.3327 90.7655 79.0053 89.5666 80.2027L86.8172 82.9521C87.4071 81.037 88.5398 79.3342 90.0781 78.05C91.2755 76.8511 91.9481 75.2259 91.9481 73.5315C91.9481 71.8371 91.2755 70.2119 90.0781 69.013C88.8792 67.8156 87.254 67.1431 85.5596 67.1431C83.8652 67.1431 82.24 67.8156 81.0411 69.013C79.8437 70.2119 79.1711 71.8371 79.1711 73.5315C79.1711 75.2259 79.8437 76.8511 81.0411 78.05C82.5794 79.3342 83.7121 81.037 84.302 82.9521L81.5526 80.2027C80.6587 79.3076 79.5194 78.6979 78.2789 78.4505C77.0383 78.2031 75.7523 78.3293 74.5835 78.813C73.4146 79.2967 72.4156 80.1163 71.7127 81.1679C71.0097 82.2196 70.6345 83.4562 70.6345 84.7211C70.6345 85.9861 71.0097 87.2226 71.7127 88.2743C72.4156 89.326 73.4146 90.1455 74.5835 90.6292C75.7523 91.113 77.0383 91.2391 78.2789 90.9918C79.5194 90.7444 80.6587 90.1346 81.5526 89.2396L84.707 86.0852C84.707 86.0852 84.707 86.0852 84.707 86.2557C84.842 88.0951 84.61 89.943 84.0246 91.692C83.4391 93.4409 82.512 95.0561 81.2969 96.4436V97.5093H89.8223V96.4436C87.3855 93.6466 86.1522 90.0003 86.3909 86.2983C86.3909 86.2983 86.3909 86.1704 86.3909 86.0852L89.5452 89.2396C90.7573 90.369 92.3605 90.9839 94.017 90.9547C95.6735 90.9255 97.254 90.2544 98.4255 89.0829C99.597 87.9114 100.268 86.3309 100.297 84.6744C100.326 83.0179 99.7116 81.4148 98.5822 80.2027H98.6035Z" fill="#1F1F1F"/>
<path d="M128.443 45.0352C127.244 43.8378 125.619 43.1652 123.924 43.1652C122.23 43.1652 120.605 43.8378 119.406 45.0352L116.656 47.7846C117.246 45.8696 118.379 44.1667 119.917 42.8825C121.115 41.6836 121.787 40.0585 121.787 38.364C121.787 36.6696 121.115 35.0444 119.917 33.8456C118.718 32.6482 117.093 31.9756 115.399 31.9756C113.704 31.9756 112.079 32.6482 110.88 33.8456C109.683 35.0444 109.01 36.6696 109.01 38.364C109.01 40.0585 109.683 41.6836 110.88 42.8825C112.419 44.1667 113.551 45.8696 114.141 47.7846L111.392 45.0352C110.498 44.1401 109.359 43.5304 108.118 43.283C106.877 43.0357 105.591 43.1618 104.423 43.6455C103.254 44.1293 102.255 44.9488 101.552 46.0005C100.849 47.0521 100.474 48.2887 100.474 49.5536C100.474 50.8186 100.849 52.0552 101.552 53.1068C102.255 54.1585 103.254 54.978 104.423 55.4618C105.591 55.9455 106.877 56.0716 108.118 55.8243C109.359 55.5769 110.498 54.9671 111.392 54.0721L114.546 50.9177C114.546 50.9177 114.546 51.0243 114.546 51.0882C114.681 52.9276 114.449 54.7755 113.864 56.5245C113.278 58.2734 112.351 59.8886 111.136 61.2761V62.3418H119.661V61.2761C117.23 58.4845 115.997 54.8469 116.23 51.1522C116.23 51.1522 116.23 51.0243 116.23 50.939L119.384 54.0934C120.596 55.2229 122.2 55.8378 123.856 55.8085C125.513 55.7793 127.093 55.1083 128.265 53.9368C129.436 52.7653 130.107 51.1848 130.136 49.5283C130.166 47.8718 129.551 46.2686 128.421 45.0565L128.443 45.0352Z" fill="#1F1F1F"/>
<path d="M128.443 114.304C127.244 113.107 125.619 112.434 123.924 112.434C122.23 112.434 120.605 113.107 119.406 114.304L116.656 117.054C117.246 115.139 118.379 113.436 119.917 112.152C121.115 110.953 121.787 109.328 121.787 107.633C121.787 105.939 121.115 104.313 119.917 103.115C118.718 101.917 117.093 101.245 115.399 101.245C113.704 101.245 112.079 101.917 110.88 103.115C109.683 104.313 109.01 105.939 109.01 107.633C109.01 109.328 109.683 110.953 110.88 112.152C112.419 113.436 113.551 115.139 114.141 117.054L111.392 114.304C110.498 113.409 109.359 112.799 108.118 112.552C106.877 112.305 105.591 112.431 104.423 112.915C103.254 113.398 102.255 114.218 101.552 115.27C100.849 116.321 100.474 117.558 100.474 118.823C100.474 120.088 100.849 121.324 101.552 122.376C102.255 123.428 103.254 124.247 104.423 124.731C105.591 125.215 106.877 125.341 108.118 125.093C109.359 124.846 110.498 124.236 111.392 123.341L114.546 120.187C114.546 120.187 114.546 120.187 114.546 120.357C114.681 122.197 114.449 124.045 113.864 125.794C113.278 127.542 112.351 129.158 111.136 130.545V131.611H119.661V130.545C117.225 127.748 115.991 124.102 116.23 120.4C116.23 120.4 116.23 120.272 116.23 120.187L119.384 123.341C120.596 124.471 122.2 125.085 123.856 125.056C125.513 125.027 127.093 124.356 128.265 123.184C129.436 122.013 130.107 120.432 130.136 118.776C130.166 117.119 129.551 115.516 128.421 114.304H128.443Z" fill="#1F1F1F"/>
<path d="M68.7646 114.304C67.5657 113.107 65.9406 112.434 64.2462 112.434C62.5517 112.434 60.9266 113.107 59.7277 114.304L56.9783 117.054C57.5682 115.139 58.7009 113.436 60.2392 112.152C61.4366 110.953 62.1092 109.328 62.1092 107.633C62.1092 105.939 61.4366 104.313 60.2392 103.115C59.0403 101.917 57.4152 101.245 55.7207 101.245C54.0263 101.245 52.4012 101.917 51.2023 103.115C50.0049 104.313 49.3323 105.939 49.3323 107.633C49.3323 109.328 50.0049 110.953 51.2023 112.152C52.7406 113.436 53.8732 115.139 54.4632 117.054L51.7138 114.304C50.8199 113.409 49.6805 112.799 48.44 112.552C47.1995 112.305 45.9134 112.431 44.7446 112.915C43.5758 113.398 42.5768 114.218 41.8738 115.27C41.1709 116.321 40.7957 117.558 40.7957 118.823C40.7957 120.088 41.1709 121.324 41.8738 122.376C42.5768 123.428 43.5758 124.247 44.7446 124.731C45.9134 125.215 47.1995 125.341 48.44 125.093C49.6805 124.846 50.8199 124.236 51.7138 123.341L54.8681 120.187C54.8681 120.187 54.8681 120.187 54.8681 120.357C55.0031 122.197 54.7711 124.045 54.1857 125.794C53.6003 127.542 52.6731 129.158 51.458 130.545V131.611H59.9835V130.545C57.5467 127.748 56.3134 124.102 56.552 120.4C56.552 120.4 56.552 120.272 56.552 120.187L59.7064 123.341C60.9185 124.471 62.5216 125.085 64.1781 125.056C65.8346 125.027 67.4152 124.356 68.5867 123.184C69.7582 122.013 70.4291 120.432 70.4584 118.776C70.4876 117.119 69.8727 115.516 68.7433 114.304H68.7646Z" fill="#1F1F1F"/>
<path d="M68.7646 193.676C67.5657 194.874 65.9406 195.546 64.2462 195.546C62.5517 195.546 60.9266 194.874 59.7277 193.676L56.9783 190.927C57.5682 192.842 58.7009 194.545 60.2392 195.829C61.4366 197.028 62.1092 198.653 62.1092 200.347C62.1092 202.042 61.4366 203.667 60.2392 204.866C59.0403 206.063 57.4152 206.736 55.7207 206.736C54.0263 206.736 52.4012 206.063 51.2023 204.866C50.0049 203.667 49.3323 202.042 49.3323 200.347C49.3323 198.653 50.0049 197.028 51.2023 195.829C52.7406 194.545 53.8732 192.842 54.4632 190.927L51.7138 193.676C50.8199 194.571 49.6805 195.181 48.44 195.428C47.1995 195.676 45.9134 195.55 44.7446 195.066C43.5758 194.582 42.5768 193.763 41.8738 192.711C41.1709 191.659 40.7957 190.423 40.7957 189.158C40.7957 187.893 41.1709 186.656 41.8738 185.605C42.5768 184.553 43.5758 183.733 44.7446 183.25C45.9134 182.766 47.1995 182.64 48.44 182.887C49.6805 183.134 50.8199 183.744 51.7138 184.639L54.8681 187.794C54.8681 187.794 54.8681 187.794 54.8681 187.623C55.0031 185.784 54.7711 183.936 54.1857 182.187C53.6003 180.438 52.6731 178.823 51.458 177.435V176.37H59.9835V177.435C57.552 180.227 56.3191 183.865 56.552 187.559C56.552 187.559 56.552 187.687 56.552 187.772L59.7064 184.618C60.9185 183.489 62.5216 182.874 64.1781 182.903C65.8346 182.932 67.4152 183.603 68.5867 184.775C69.7582 185.946 70.4291 187.527 70.4584 189.183C70.4876 190.84 69.8727 192.443 68.7433 193.655L68.7646 193.676Z" fill="#1F1F1F"/>
<path d="M128.443 193.676C127.244 194.874 125.619 195.546 123.924 195.546C122.23 195.546 120.605 194.874 119.406 193.676L116.656 190.927C117.246 192.842 118.379 194.545 119.917 195.829C121.115 197.028 121.787 198.653 121.787 200.347C121.787 202.042 121.115 203.667 119.917 204.866C118.718 206.063 117.093 206.736 115.399 206.736C113.704 206.736 112.079 206.063 110.88 204.866C109.683 203.667 109.01 202.042 109.01 200.347C109.01 198.653 109.683 197.028 110.88 195.829C112.419 194.545 113.551 192.842 114.141 190.927L111.392 193.676C110.498 194.571 109.359 195.181 108.118 195.428C106.877 195.676 105.591 195.55 104.423 195.066C103.254 194.582 102.255 193.763 101.552 192.711C100.849 191.659 100.474 190.423 100.474 189.158C100.474 187.893 100.849 186.656 101.552 185.605C102.255 184.553 103.254 183.733 104.423 183.25C105.591 182.766 106.877 182.64 108.118 182.887C109.359 183.134 110.498 183.744 111.392 184.639L114.546 187.794C114.546 187.794 114.546 187.794 114.546 187.623C114.681 185.784 114.449 183.936 113.864 182.187C113.278 180.438 112.351 178.823 111.136 177.435V176.37H119.661V177.435C117.23 180.227 115.997 183.865 116.23 187.559C116.23 187.559 116.23 187.687 116.23 187.772L119.384 184.618C120.596 183.489 122.2 182.874 123.856 182.903C125.513 182.932 127.093 183.603 128.265 184.775C129.436 185.946 130.107 187.527 130.136 189.183C130.166 190.84 129.551 192.443 128.421 193.655L128.443 193.676Z" fill="#1F1F1F"/>
</svg>
