<svg width="171" height="239" viewBox="0 0 171 239" fill="none" xmlns="http://www.w3.org/2000/svg">
<path d="M159.881 0H10.6861C4.8005 0 0.0292969 4.7712 0.0292969 10.6568V228.055C0.0292969 233.941 4.8005 238.712 10.6861 238.712H159.881C165.767 238.712 170.538 233.941 170.538 228.055V10.6568C170.538 4.7712 165.767 0 159.881 0Z" fill="#F9F1DF"/>
<path d="M31.8506 49.2337C31.2785 48.6815 30.5144 48.3729 29.7192 48.3729C28.9241 48.3729 28.16 48.6815 27.5879 49.2337L26.2664 50.5551C26.5557 49.6435 27.0948 48.8313 27.8224 48.2106C28.3796 47.6411 28.6915 46.876 28.6915 46.0793C28.6915 45.2825 28.3796 44.5174 27.8224 43.9479C27.2584 43.3793 26.492 43.0574 25.6911 43.0527C25.0866 43.0596 24.4976 43.2448 23.998 43.5852C23.4984 43.9256 23.1104 44.4059 22.8827 44.9659C22.6551 45.5259 22.5979 46.1407 22.7183 46.7331C22.8387 47.3255 23.1315 47.8692 23.5597 48.2959C24.2935 48.911 24.8338 49.7252 25.1156 50.6404L23.7941 49.3189C23.3694 48.8788 22.8228 48.5756 22.2245 48.4483C21.6262 48.321 21.0036 48.3754 20.4364 48.6044C19.8693 48.8335 19.3834 49.2268 19.0414 49.7338C18.6993 50.2409 18.5166 50.8386 18.5166 51.4503C18.5166 52.0619 18.6993 52.6596 19.0414 53.1667C19.3834 53.6738 19.8693 54.0671 20.4364 54.2961C21.0036 54.5252 21.6262 54.5795 22.2245 54.4522C22.8228 54.3249 23.3694 54.0217 23.7941 53.5816L25.3286 52.0684C25.445 53.8479 24.8554 55.6015 23.6876 56.9492V57.546H27.7798V57.0344C27.1933 56.3758 26.7442 55.6067 26.4587 54.7722C26.1732 53.9378 26.0571 53.0548 26.1172 52.1749V52.0684L27.6305 53.5816C28.2212 53.9822 28.9331 54.1643 29.6435 54.0968C30.354 54.0293 31.0187 53.7163 31.5233 53.2116C32.0279 52.707 32.3409 52.0423 32.4084 51.3318C32.4759 50.6214 32.2938 49.9096 31.8933 49.3189L31.8506 49.2337Z" fill="#1F1F1F"/>
<path d="M138.44 189.562C139.042 190.156 139.853 190.489 140.699 190.489C141.544 190.489 142.356 190.156 142.958 189.562L144.322 188.177C144.03 189.133 143.468 189.985 142.702 190.628C142.263 191.067 141.961 191.625 141.833 192.234C141.705 192.842 141.758 193.474 141.984 194.053C142.21 194.632 142.6 195.132 143.106 195.493C143.612 195.854 144.213 196.059 144.834 196.084C145.467 196.088 146.088 195.903 146.616 195.554C147.145 195.204 147.558 194.705 147.802 194.12C148.046 193.536 148.112 192.891 147.989 192.27C147.867 191.648 147.562 191.076 147.114 190.628C146.335 189.993 145.764 189.139 145.473 188.177L146.858 189.562C147.307 190.007 147.876 190.309 148.496 190.43C149.115 190.551 149.757 190.486 150.339 190.244C150.922 190.001 151.42 189.591 151.77 189.066C152.12 188.541 152.307 187.924 152.307 187.292C152.307 186.661 152.12 186.044 151.77 185.519C151.42 184.994 150.922 184.584 150.339 184.341C149.757 184.099 149.115 184.034 148.496 184.155C147.876 184.276 147.307 184.578 146.858 185.023L145.26 186.621C145.197 185.7 145.317 184.776 145.614 183.901C145.91 183.027 146.377 182.22 146.986 181.527V181.016H142.724V181.527C143.327 182.219 143.788 183.023 144.081 183.894C144.373 184.764 144.492 185.684 144.429 186.6V186.728L142.852 185.129C142.25 184.53 141.434 184.194 140.585 184.196C139.735 184.198 138.922 184.538 138.322 185.14C137.723 185.742 137.388 186.557 137.39 187.407C137.392 188.256 137.731 189.07 138.333 189.669L138.44 189.562Z" fill="#1F1F1F"/>
<path d="M25.4773 36.5735C24.6018 36.5777 23.729 36.4775 22.8771 36.2751C22.1214 36.0986 21.4009 35.796 20.7458 35.3799C20.1891 35.0197 19.7283 34.5297 19.403 33.9519C19.0792 33.3655 18.9173 32.7034 18.934 32.0337C18.9211 31.0331 19.2607 30.0597 19.8932 29.2843C20.5871 28.4735 21.4958 27.8751 22.5147 27.5579C21.7959 27.0938 21.1557 26.5183 20.6179 25.8528C20.1186 25.1522 19.8707 24.3035 19.9145 23.4443C19.9052 22.7965 20.0437 22.155 20.3195 21.5688C20.6134 21.0147 21.02 20.5283 21.513 20.1407C22.0662 19.7185 22.6959 19.4072 23.3673 19.2243C24.1401 18.9858 24.9457 18.8707 25.7544 18.8832C26.5176 18.8782 27.2779 18.9787 28.0136 19.1816C28.6508 19.3516 29.2557 19.6252 29.804 19.9915C30.2786 20.3263 30.6718 20.7633 30.9549 21.2704C31.2301 21.7653 31.3698 22.324 31.3599 22.8902C31.3636 23.7981 31.038 24.6765 30.4434 25.3626C29.8226 26.0854 29.0315 26.6421 28.1415 26.9824C28.6744 27.2595 29.186 27.5365 29.6762 27.8563C30.1462 28.1386 30.5763 28.4827 30.9549 28.8793C31.3197 29.2504 31.6157 29.6834 31.8289 30.1581C32.0719 30.7404 32.1826 31.3693 32.1532 31.9996C32.1237 32.6299 31.9547 33.2457 31.6583 33.8027C31.3293 34.4135 30.8622 34.939 30.2942 35.3373C29.6534 35.7934 28.9292 36.1193 28.1629 36.2964C27.2845 36.5108 26.3809 36.6041 25.4773 36.5735ZM25.6905 34.9963C26.4681 35.0152 27.2258 34.75 27.8219 34.2503C28.0822 34.0176 28.2892 33.7315 28.429 33.4115C28.5688 33.0915 28.638 32.7452 28.6318 32.396C28.6429 31.9526 28.5243 31.5156 28.2907 31.1385C28.0579 30.7762 27.7619 30.4586 27.4169 30.2007C27.019 29.8945 26.5903 29.6303 26.138 29.4121L24.0067 28.3465C23.4026 28.703 22.9085 29.2193 22.5787 29.8384C22.2575 30.4191 22.0888 31.0717 22.0885 31.7353C22.0818 32.2275 22.1836 32.7151 22.3868 33.1633C22.5688 33.5597 22.8385 33.9095 23.1756 34.1864C23.5106 34.4556 23.8939 34.6581 24.3051 34.7832C24.752 34.9302 25.2201 35.0022 25.6905 34.9963ZM22.941 22.6131C22.9269 23.0081 23.0228 23.3992 23.2181 23.7427C23.4198 24.0959 23.6876 24.407 24.0067 24.6592C24.3586 24.9656 24.7449 25.2302 25.1577 25.4478C25.6266 25.7036 26.0955 25.938 26.607 26.1725C27.1796 25.8344 27.6508 25.3485 27.9711 24.7658C28.2562 24.2585 28.4031 23.6852 28.3973 23.1033C28.421 22.7307 28.3648 22.3572 28.2325 22.008C28.1001 21.6588 27.8947 21.3419 27.63 21.0785C27.3404 20.8227 27.0028 20.6269 26.6369 20.5026C26.2711 20.3782 25.8842 20.3276 25.4987 20.3539C24.7943 20.3123 24.1007 20.541 23.5592 20.9933C23.3484 21.2049 23.1845 21.4585 23.078 21.7375C22.9715 22.0166 22.9248 22.3149 22.941 22.6131Z" fill="#1F1F1F"/>
<path d="M145.067 202.138C145.943 202.134 146.816 202.234 147.668 202.436C148.423 202.613 149.144 202.915 149.799 203.331C150.346 203.703 150.804 204.191 151.142 204.759C151.466 205.346 151.627 206.008 151.611 206.678C151.624 207.678 151.284 208.652 150.652 209.427C149.958 210.238 149.049 210.836 148.03 211.153C148.749 211.617 149.389 212.193 149.927 212.859C150.471 213.565 150.75 214.44 150.715 215.331C150.725 215.979 150.586 216.62 150.311 217.207C150.017 217.761 149.61 218.247 149.117 218.635C148.564 219.057 147.934 219.368 147.263 219.551C146.49 219.789 145.684 219.905 144.876 219.892C144.112 219.897 143.352 219.797 142.616 219.594C141.979 219.424 141.374 219.15 140.826 218.784C140.351 218.449 139.958 218.012 139.675 217.505C139.4 217.01 139.26 216.451 139.27 215.885C139.266 214.977 139.592 214.099 140.187 213.413C140.807 212.69 141.599 212.133 142.488 211.793C141.956 211.516 141.444 211.239 140.954 210.919C140.484 210.637 140.054 210.293 139.675 209.896C139.31 209.525 139.014 209.092 138.801 208.617C138.558 208.035 138.447 207.406 138.477 206.776C138.506 206.145 138.675 205.53 138.972 204.973C139.299 204.367 139.758 203.843 140.314 203.438C140.96 202.99 141.682 202.665 142.446 202.479C143.301 202.249 144.182 202.134 145.067 202.138ZM144.854 203.715C144.077 203.696 143.319 203.961 142.723 204.461C142.463 204.694 142.256 204.98 142.116 205.3C141.976 205.62 141.907 205.966 141.913 206.315C141.902 206.759 142.021 207.196 142.254 207.573C142.487 207.935 142.783 208.253 143.128 208.511C143.523 208.822 143.952 209.086 144.407 209.299L146.538 210.365C147.142 210.008 147.636 209.492 147.966 208.873C148.287 208.292 148.456 207.64 148.456 206.976C148.463 206.484 148.361 205.996 148.158 205.548C147.976 205.152 147.706 204.802 147.369 204.525C147.034 204.256 146.651 204.053 146.24 203.928C145.793 203.781 145.325 203.709 144.854 203.715ZM147.604 216.098C147.618 215.703 147.522 215.312 147.327 214.969C147.125 214.615 146.857 214.304 146.538 214.052C146.178 213.746 145.785 213.481 145.366 213.264C144.918 213.008 144.449 212.773 143.938 212.539C143.365 212.877 142.894 213.363 142.574 213.946C142.289 214.453 142.142 215.026 142.147 215.608C142.108 215.998 142.156 216.392 142.289 216.761C142.422 217.13 142.636 217.464 142.915 217.739C143.204 217.995 143.542 218.191 143.908 218.315C144.274 218.44 144.661 218.49 145.046 218.464C145.75 218.506 146.444 218.277 146.986 217.825C147.211 217.601 147.383 217.33 147.49 217.031C147.597 216.733 147.636 216.414 147.604 216.098Z" fill="#1F1F1F"/>
<path d="M68.488 45.0347C67.2891 43.8373 65.664 43.1647 63.9696 43.1647C62.2751 43.1647 60.65 43.8373 59.4511 45.0347L56.7017 47.7842C57.2916 45.8691 58.4243 44.1663 59.9626 42.882C60.8576 41.9881 61.4674 40.8488 61.7147 39.6083C61.9621 38.3677 61.836 37.0817 61.3523 35.9129C60.8686 34.744 60.049 33.745 58.9973 33.042C57.9457 32.3391 56.7091 31.9639 55.4441 31.9639C54.1792 31.9639 52.9427 32.3391 51.891 33.042C50.8394 33.745 50.0198 34.744 49.5361 35.9129C49.0524 37.0817 48.9262 38.3677 49.1735 39.6083C49.4209 40.8488 50.0306 41.9881 50.9257 42.882C52.4514 44.1774 53.5816 45.8763 54.1867 47.7842L51.4372 45.0347C50.5433 44.1397 49.4041 43.5299 48.1635 43.2826C46.923 43.0352 45.6369 43.1614 44.4681 43.6451C43.2993 44.1288 42.3002 44.9483 41.5972 46C40.8943 47.0517 40.519 48.2882 40.519 49.5532C40.519 50.8181 40.8943 52.0547 41.5972 53.1064C42.3002 54.158 43.2993 54.9776 44.4681 55.4613C45.6369 55.945 46.923 56.0712 48.1635 55.8238C49.4041 55.5764 50.5433 54.9667 51.4372 54.0717L54.5917 50.9172V51.1517C54.729 52.9913 54.4981 54.8398 53.9126 56.5891C53.3271 58.3384 52.3985 59.9534 51.1814 61.3396V62.4053H59.7068V61.3396C58.49 59.9525 57.5602 58.3379 56.9712 56.5892C56.3822 54.8405 56.1457 52.9924 56.2754 51.1517V50.9386L59.4511 54.093C60.6632 55.2224 62.2664 55.8373 63.9229 55.8081C65.5794 55.7788 67.1599 55.1078 68.3314 53.9363C69.5029 52.7648 70.174 51.1843 70.2032 49.5278C70.2325 47.8713 69.6175 46.2681 68.488 45.056V45.0347Z" fill="#1F1F1F"/>
<path d="M98.3271 80.2022C97.1282 79.0048 95.5031 78.3322 93.8087 78.3322C92.1142 78.3322 90.4891 79.0048 89.2902 80.2022L86.5408 82.9516C87.1307 81.0366 88.2634 79.3337 89.8017 78.0495C90.6967 77.1556 91.3065 76.0163 91.5539 74.7758C91.8012 73.5352 91.6751 72.2492 91.1914 71.0804C90.7077 69.9115 89.8881 68.9124 88.8365 68.2095C87.7848 67.5066 86.5482 67.1313 85.2832 67.1313C84.0183 67.1313 82.7818 67.5066 81.7302 68.2095C80.6785 68.9124 79.8589 69.9115 79.3752 71.0804C78.8915 72.2492 78.7653 73.5352 79.0126 74.7758C79.26 76.0163 79.8698 77.1556 80.7648 78.0495C82.2905 79.3449 83.4207 81.0438 84.0258 82.9516L81.2763 80.2022C80.3824 79.3072 79.2432 78.6974 78.0026 78.45C76.7621 78.2027 75.4761 78.3288 74.3072 78.8126C73.1384 79.2963 72.1393 80.1158 71.4363 81.1675C70.7334 82.2192 70.3582 83.4557 70.3582 84.7207C70.3582 85.9856 70.7334 87.2222 71.4363 88.2738C72.1393 89.3255 73.1384 90.1451 74.3072 90.6288C75.4761 91.1125 76.7621 91.2386 78.0026 90.9913C79.2432 90.7439 80.3824 90.1342 81.2763 89.2391L84.4308 86.0847V86.2552C84.5681 88.0948 84.3373 89.9433 83.7517 91.6926C83.1662 93.4419 82.2376 95.0569 81.0205 96.4431V97.5088H89.546V96.4431C88.3343 95.0612 87.4075 93.4536 86.8187 91.7126C86.2298 89.9717 85.9905 88.1315 86.1145 86.2979V86.0847L89.2902 89.2391C90.5023 90.3686 92.1055 90.9835 93.762 90.9542C95.4185 90.925 96.999 90.254 98.1705 89.0825C99.342 87.9109 100.013 86.3305 100.042 84.674C100.072 83.0175 99.4566 81.4143 98.3271 80.2022Z" fill="#1F1F1F"/>
<path d="M98.3271 158.508C97.1282 159.705 95.5031 160.378 93.8087 160.378C92.1142 160.378 90.4891 159.705 89.2902 158.508L86.5408 155.758C87.1307 157.673 88.2634 159.376 89.8017 160.66C90.6967 161.554 91.3065 162.694 91.5539 163.934C91.8012 165.175 91.6751 166.461 91.1914 167.63C90.7077 168.798 89.8881 169.798 88.8365 170.5C87.7848 171.203 86.5482 171.579 85.2832 171.579C84.0183 171.579 82.7818 171.203 81.7302 170.5C80.6785 169.798 79.8589 168.798 79.3752 167.63C78.8915 166.461 78.7653 165.175 79.0126 163.934C79.26 162.694 79.8698 161.554 80.7648 160.66C82.2905 159.365 83.4207 157.666 84.0258 155.758L81.2763 158.508C80.3824 159.403 79.2432 160.013 78.0026 160.26C76.7621 160.507 75.4761 160.381 74.3072 159.897C73.1384 159.414 72.1393 158.594 71.4363 157.542C70.7334 156.491 70.3582 155.254 70.3582 153.989C70.3582 152.724 70.7334 151.488 71.4363 150.436C72.1393 149.384 73.1384 148.565 74.3072 148.081C75.4761 147.597 76.7621 147.471 78.0026 147.719C79.2432 147.966 80.3824 148.576 81.2763 149.471L84.4308 152.625V152.455C84.5681 150.615 84.3373 148.767 83.7517 147.017C83.1662 145.268 82.2376 143.653 81.0205 142.267V141.201H89.546V142.267C88.3343 143.649 87.4075 145.256 86.8187 146.997C86.2298 148.738 85.9905 150.578 86.1145 152.412V152.625L89.2902 149.471C90.5023 148.341 92.1055 147.727 93.762 147.756C95.4185 147.785 96.999 148.456 98.1705 149.628C99.342 150.799 100.013 152.38 100.042 154.036C100.072 155.693 99.4566 157.296 98.3271 158.508Z" fill="#1F1F1F"/>
<path d="M128.166 45.0347C126.967 43.8373 125.342 43.1647 123.648 43.1647C121.953 43.1647 120.328 43.8373 119.129 45.0347L116.38 47.7842C116.97 45.8691 118.102 44.1663 119.641 42.882C120.536 41.9881 121.145 40.8488 121.393 39.6083C121.64 38.3677 121.514 37.0817 121.03 35.9129C120.547 34.744 119.727 33.745 118.675 33.042C117.624 32.3391 116.387 31.9639 115.122 31.9639C113.857 31.9639 112.621 32.3391 111.569 33.042C110.517 33.745 109.698 34.744 109.214 35.9129C108.73 37.0817 108.604 38.3677 108.851 39.6083C109.099 40.8488 109.709 41.9881 110.604 42.882C112.129 44.1774 113.26 45.8763 113.865 47.7842L111.115 45.0347C110.221 44.1397 109.082 43.5299 107.841 43.2826C106.601 43.0352 105.315 43.1614 104.146 43.6451C102.977 44.1288 101.978 44.9483 101.275 46C100.572 47.0517 100.197 48.2882 100.197 49.5532C100.197 50.8181 100.572 52.0547 101.275 53.1064C101.978 54.158 102.977 54.9776 104.146 55.4613C105.315 55.945 106.601 56.0712 107.841 55.8238C109.082 55.5764 110.221 54.9667 111.115 54.0717L114.27 50.9172V51.1517C114.407 52.9913 114.176 54.8398 113.591 56.5891C113.005 58.3384 112.077 59.9534 110.859 61.3396V62.4053H119.385V61.3396C118.168 59.9525 117.238 58.3379 116.649 56.5892C116.06 54.8405 115.824 52.9924 115.953 51.1517V50.9386L119.129 54.093C120.341 55.2224 121.944 55.8373 123.601 55.8081C125.257 55.7788 126.838 55.1078 128.009 53.9363C129.181 52.7648 129.852 51.1843 129.881 49.5278C129.91 47.8713 129.295 46.2681 128.166 45.056V45.0347Z" fill="#1F1F1F"/>
<path d="M128.166 114.304C126.967 113.107 125.342 112.434 123.648 112.434C121.953 112.434 120.328 113.107 119.129 114.304L116.38 117.054C116.97 115.139 118.102 113.436 119.641 112.152C120.536 111.258 121.145 110.118 121.393 108.878C121.64 107.637 121.514 106.351 121.03 105.182C120.547 104.014 119.727 103.014 118.675 102.312C117.624 101.609 116.387 101.233 115.122 101.233C113.857 101.233 112.621 101.609 111.569 102.312C110.517 103.014 109.698 104.014 109.214 105.182C108.73 106.351 108.604 107.637 108.851 108.878C109.099 110.118 109.709 111.258 110.604 112.152C112.129 113.447 113.26 115.146 113.865 117.054L111.115 114.304C110.221 113.409 109.082 112.799 107.841 112.552C106.601 112.305 105.315 112.431 104.146 112.915C102.977 113.398 101.978 114.218 101.275 115.27C100.572 116.321 100.197 117.558 100.197 118.823C100.197 120.088 100.572 121.324 101.275 122.376C101.978 123.428 102.977 124.247 104.146 124.731C105.315 125.215 106.601 125.341 107.841 125.093C109.082 124.846 110.221 124.236 111.115 123.341L114.27 120.187V120.357C114.407 122.197 114.176 124.045 113.591 125.795C113.005 127.544 112.077 129.159 110.859 130.545V131.611H119.385V130.545C118.173 129.163 117.246 127.556 116.658 125.815C116.069 124.074 115.829 122.234 115.953 120.4V120.187L119.129 123.341C120.341 124.471 121.944 125.086 123.601 125.056C125.257 125.027 126.838 124.356 128.009 123.185C129.181 122.013 129.852 120.433 129.881 118.776C129.91 117.12 129.295 115.516 128.166 114.304Z" fill="#1F1F1F"/>
<path d="M68.488 114.304C67.2891 113.107 65.664 112.434 63.9696 112.434C62.2751 112.434 60.65 113.107 59.4511 114.304L56.7017 117.054C57.2916 115.139 58.4243 113.436 59.9626 112.152C60.8576 111.258 61.4674 110.118 61.7147 108.878C61.9621 107.637 61.836 106.351 61.3523 105.182C60.8686 104.014 60.049 103.014 58.9973 102.312C57.9457 101.609 56.7091 101.233 55.4441 101.233C54.1792 101.233 52.9427 101.609 51.891 102.312C50.8394 103.014 50.0198 104.014 49.5361 105.182C49.0524 106.351 48.9262 107.637 49.1735 108.878C49.4209 110.118 50.0306 111.258 50.9257 112.152C52.4514 113.447 53.5816 115.146 54.1867 117.054L51.4372 114.304C50.5433 113.409 49.4041 112.799 48.1635 112.552C46.923 112.305 45.6369 112.431 44.4681 112.915C43.2993 113.398 42.3002 114.218 41.5972 115.27C40.8943 116.321 40.519 117.558 40.519 118.823C40.519 120.088 40.8943 121.324 41.5972 122.376C42.3002 123.428 43.2993 124.247 44.4681 124.731C45.6369 125.215 46.923 125.341 48.1635 125.093C49.4041 124.846 50.5433 124.236 51.4372 123.341L54.5917 120.187V120.357C54.729 122.197 54.4981 124.045 53.9126 125.795C53.3271 127.544 52.3985 129.159 51.1814 130.545V131.611H59.7068V130.545C58.4952 129.163 57.5684 127.556 56.9796 125.815C56.3907 124.074 56.1514 122.234 56.2754 120.4V120.187L59.4511 123.341C60.6632 124.471 62.2664 125.086 63.9229 125.056C65.5794 125.027 67.1599 124.356 68.3314 123.185C69.5029 122.013 70.174 120.433 70.2032 118.776C70.2325 117.12 69.6175 115.516 68.488 114.304Z" fill="#1F1F1F"/>
<path d="M68.488 193.676C67.2891 194.873 65.664 195.546 63.9696 195.546C62.2751 195.546 60.65 194.873 59.4511 193.676L56.7017 190.926C57.2916 192.841 58.4243 194.544 59.9626 195.828C60.8576 196.722 61.4674 197.862 61.7147 199.102C61.9621 200.343 61.836 201.629 61.3523 202.798C60.8686 203.966 60.049 204.965 58.9973 205.668C57.9457 206.371 56.7091 206.747 55.4441 206.747C54.1792 206.747 52.9427 206.371 51.891 205.668C50.8394 204.965 50.0198 203.966 49.5361 202.798C49.0524 201.629 48.9262 200.343 49.1735 199.102C49.4209 197.862 50.0306 196.722 50.9257 195.828C52.4514 194.533 53.5816 192.834 54.1867 190.926L51.4372 193.676C50.5433 194.571 49.4041 195.181 48.1635 195.428C46.923 195.675 45.6369 195.549 44.4681 195.065C43.2993 194.582 42.3002 193.762 41.5972 192.71C40.8943 191.659 40.519 190.422 40.519 189.157C40.519 187.892 40.8943 186.656 41.5972 185.604C42.3002 184.552 43.2993 183.733 44.4681 183.249C45.6369 182.765 46.923 182.639 48.1635 182.887C49.4041 183.134 50.5433 183.744 51.4372 184.639L54.5917 187.793V187.559C54.729 185.719 54.4981 183.871 53.9126 182.121C53.3271 180.372 52.3985 178.757 51.1814 177.371V176.305H59.7068V177.371C58.49 178.758 57.5602 180.373 56.9712 182.121C56.3822 183.87 56.1457 185.718 56.2754 187.559V187.772L59.4511 184.617C60.6632 183.488 62.2664 182.873 63.9229 182.902C65.5794 182.932 67.1599 183.603 68.3314 184.774C69.5029 185.946 70.174 187.526 70.2032 189.183C70.2325 190.839 69.6175 192.442 68.488 193.654V193.676Z" fill="#1F1F1F"/>
<path d="M128.166 193.676C126.967 194.873 125.342 195.546 123.648 195.546C121.953 195.546 120.328 194.873 119.129 193.676L116.38 190.926C116.97 192.841 118.102 194.544 119.641 195.828C120.536 196.722 121.145 197.862 121.393 199.102C121.64 200.343 121.514 201.629 121.03 202.798C120.547 203.966 119.727 204.965 118.675 205.668C117.624 206.371 116.387 206.747 115.122 206.747C113.857 206.747 112.621 206.371 111.569 205.668C110.517 204.965 109.698 203.966 109.214 202.798C108.73 201.629 108.604 200.343 108.851 199.102C109.099 197.862 109.709 196.722 110.604 195.828C112.129 194.533 113.26 192.834 113.865 190.926L111.115 193.676C110.221 194.571 109.082 195.181 107.841 195.428C106.601 195.675 105.315 195.549 104.146 195.065C102.977 194.582 101.978 193.762 101.275 192.71C100.572 191.659 100.197 190.422 100.197 189.157C100.197 187.892 100.572 186.656 101.275 185.604C101.978 184.552 102.977 183.733 104.146 183.249C105.315 182.765 106.601 182.639 107.841 182.887C109.082 183.134 110.221 183.744 111.115 184.639L114.27 187.793V187.559C114.407 185.719 114.176 183.871 113.591 182.121C113.005 180.372 112.077 178.757 110.859 177.371V176.305H119.385V177.371C118.168 178.758 117.238 180.373 116.649 182.121C116.06 183.87 115.824 185.718 115.953 187.559V187.772L119.129 184.617C120.341 183.488 121.944 182.873 123.601 182.902C125.257 182.932 126.838 183.603 128.009 184.774C129.181 185.946 129.852 187.526 129.881 189.183C129.91 190.839 129.295 192.442 128.166 193.654V193.676Z" fill="#1F1F1F"/>
</svg>
