<svg width="172" height="240" viewBox="0 0 172 240" fill="none" xmlns="http://www.w3.org/2000/svg">
<path d="M160.585 0.525391H11.3902C5.5046 0.525391 0.733398 5.29659 0.733398 11.1822V228.58C0.733398 234.466 5.5046 239.237 11.3902 239.237H160.585C166.471 239.237 171.242 234.466 171.242 228.58V11.1822C171.242 5.29659 166.471 0.525391 160.585 0.525391Z" fill="#F9F1DF"/>
<path d="M26.3097 41.8308C25.1588 44.7508 19.3828 45.8378 19.3828 50.3562C19.3884 51.3418 19.7838 52.285 20.4827 52.9799C21.1816 53.6748 22.1271 54.0648 23.1127 54.0648C23.6282 54.0642 24.1381 53.958 24.611 53.7528C25.0839 53.5475 25.5097 53.2475 25.8621 52.8712C25.757 54.3178 25.1633 55.6857 24.1784 56.7503V57.2618H28.4411V56.7503C27.4639 55.6827 26.8777 54.3151 26.7786 52.8712C27.2914 53.3951 27.9472 53.7562 28.664 53.9095C29.3809 54.0628 30.127 54.0014 30.8092 53.7331C31.4914 53.4648 32.0795 53.0013 32.4998 52.4008C32.9201 51.8002 33.1541 51.0891 33.1726 50.3562C33.2366 45.8378 27.4607 44.7508 26.3097 41.8308Z" fill="#1F1F1F"/>
<path d="M145.666 195.8C146.838 192.88 152.593 191.793 152.593 187.274C152.574 186.541 152.34 185.83 151.92 185.23C151.5 184.629 150.912 184.166 150.23 183.897C149.547 183.629 148.801 183.568 148.084 183.721C147.367 183.874 146.712 184.235 146.199 184.759C146.298 183.315 146.884 181.948 147.861 180.88V180.369H143.599V180.88C144.584 181.945 145.177 183.313 145.282 184.759C144.93 184.383 144.504 184.083 144.031 183.878C143.558 183.672 143.048 183.566 142.533 183.566C141.547 183.566 140.602 183.956 139.903 184.651C139.204 185.345 138.809 186.289 138.803 187.274C138.739 191.793 144.515 192.88 145.666 195.8Z" fill="#1F1F1F"/>
<path d="M24.8601 36.0333C24.0449 36.0396 23.2332 35.9247 22.4517 35.6923C21.7577 35.5019 21.1114 35.1679 20.5548 34.7119L21.1515 33.3052C21.5854 33.5214 22.0341 33.7066 22.4942 33.8593C23.0563 34.0159 23.6372 34.0947 24.2206 34.0938C24.8469 34.0948 25.4657 33.9578 26.033 33.6926C26.6003 33.4273 27.1022 33.0404 27.503 32.5592C28.4899 31.2951 29.0497 29.7502 29.1015 28.1473C28.5874 28.6412 27.9782 29.0255 27.3111 29.2769C26.5466 29.5578 25.7386 29.7021 24.924 29.7032C24.1938 29.7105 23.4693 29.5728 22.7927 29.2982C22.1722 29.0606 21.6117 28.6892 21.1512 28.2102C20.6907 27.7313 20.3415 27.1567 20.1285 26.5274C19.8817 25.8442 19.759 25.1224 19.7662 24.3961C19.7601 23.5582 19.9119 22.7267 20.2137 21.945C20.4969 21.2148 20.933 20.5535 21.4926 20.0055C22.0583 19.4474 22.733 19.012 23.4747 18.7267C24.3248 18.402 25.2291 18.2429 26.1389 18.2578C27.0733 18.2442 28.0011 18.4182 28.8671 18.7693C29.6945 19.095 30.4272 19.6225 30.9985 20.3039C31.612 21.0424 32.0688 21.8981 32.3411 22.8189C32.6752 23.9459 32.8334 25.1177 32.8101 26.293C32.8287 27.6715 32.6345 29.0446 32.2345 30.3639C31.9048 31.4783 31.3538 32.5148 30.6147 33.4117C29.9409 34.2298 29.0974 34.8916 28.1424 35.3512C27.1144 35.8254 25.9919 36.0587 24.8601 36.0333ZM26.1602 27.6997C26.6867 27.6872 27.2094 27.6084 27.7161 27.4652C28.2295 27.3186 28.718 27.0958 29.1654 26.8045V25.6749C29.1724 24.9165 29.1011 24.1594 28.9523 23.4157C28.8438 22.776 28.6352 22.1575 28.3343 21.5827C28.0873 21.1071 27.7378 20.6921 27.3111 20.3678C26.8868 20.0704 26.3799 19.9139 25.8618 19.9202C25.4313 19.915 25.0063 20.0175 24.6256 20.2186C24.2755 20.4265 23.9769 20.7106 23.7518 21.0499C23.4983 21.4327 23.3177 21.859 23.219 22.3074C23.0871 22.8153 23.0226 23.3384 23.0271 23.8632C22.9677 24.8627 23.262 25.8511 23.8583 26.6553C24.1305 27.0008 24.4816 27.276 24.8821 27.4577C25.2827 27.6394 25.721 27.7224 26.1602 27.6997Z" fill="#1F1F1F"/>
<path d="M147.093 201.597C147.908 201.59 148.72 201.705 149.502 201.938C150.2 202.133 150.852 202.467 151.42 202.918L150.802 204.325C150.368 204.109 149.919 203.923 149.459 203.771C148.897 203.614 148.316 203.535 147.732 203.536C147.106 203.535 146.488 203.672 145.92 203.938C145.353 204.203 144.851 204.59 144.45 205.071C143.472 206.309 142.906 207.822 142.83 209.398C143.349 208.899 143.966 208.515 144.642 208.268C145.399 207.986 146.2 207.841 147.008 207.842C147.738 207.834 148.463 207.972 149.139 208.247C149.761 208.481 150.322 208.853 150.78 209.334C151.238 209.815 151.587 210.389 151.803 211.017C152.05 211.701 152.173 212.422 152.166 213.149C152.172 213.987 152.02 214.818 151.718 215.6C151.434 216.325 151.007 216.985 150.461 217.539C149.887 218.098 149.205 218.533 148.457 218.818C147.608 219.145 146.703 219.304 145.793 219.287C144.859 219.301 143.931 219.127 143.065 218.776C142.241 218.444 141.51 217.917 140.933 217.241C140.32 216.502 139.863 215.647 139.591 214.726C139.267 213.597 139.109 212.426 139.122 211.252C139.103 209.873 139.297 208.5 139.697 207.181C140.036 206.07 140.586 205.035 141.317 204.133C141.991 203.315 142.835 202.653 143.79 202.194C144.831 201.745 145.961 201.541 147.093 201.597ZM145.793 209.93C145.273 209.941 144.757 210.02 144.258 210.165C143.737 210.307 143.241 210.53 142.788 210.826V211.955C142.781 212.714 142.852 213.471 143.001 214.214C143.119 214.852 143.327 215.469 143.619 216.047C143.866 216.529 144.224 216.945 144.663 217.262C145.078 217.562 145.58 217.719 146.091 217.71C146.522 217.715 146.947 217.613 147.327 217.411C147.684 217.204 147.989 216.92 148.223 216.58C148.467 216.192 148.647 215.768 148.756 215.323C148.87 214.812 148.927 214.29 148.926 213.767C148.985 212.767 148.691 211.779 148.095 210.975C147.825 210.632 147.477 210.359 147.081 210.177C146.684 209.996 146.25 209.911 145.814 209.93H145.793Z" fill="#1F1F1F"/>
<path d="M56.1487 30.8972C53.8469 36.7798 42.2949 38.9111 42.2949 47.9481C42.2949 49.9265 43.0808 51.8239 44.4797 53.2229C45.8787 54.6219 47.7762 55.4078 49.7547 55.4078C50.7867 55.4074 51.8072 55.191 52.7506 54.7725C53.694 54.3541 54.5393 53.7428 55.2323 52.978C55.0467 55.873 53.8643 58.6145 51.886 60.7362V61.8019H60.4114V60.7362C58.4513 58.6132 57.2779 55.8826 57.0865 52.9994C58.1011 54.1037 59.4257 54.8756 60.8867 55.2137C62.3476 55.5519 63.8767 55.4406 65.2733 54.8944C66.6699 54.3482 67.8689 53.3926 68.7129 52.153C69.5568 50.9134 70.0063 49.4477 70.0026 47.9481C70.0026 38.8898 58.4506 36.7584 56.1487 30.8972Z" fill="#1F1F1F"/>
<path d="M115.827 30.897C113.525 36.7795 101.973 38.9109 101.973 47.9478C101.973 49.9263 102.759 51.8237 104.158 53.2227C105.557 54.6217 107.454 55.4076 109.433 55.4076C110.465 55.4072 111.485 55.1907 112.429 54.7723C113.372 54.3538 114.218 53.7425 114.91 52.9778C114.725 55.8728 113.543 58.6142 111.564 60.736V61.8016H120.09V60.736C118.13 58.6129 116.956 55.8823 116.765 52.9991C117.779 54.1034 119.104 54.8753 120.565 55.2135C122.026 55.5516 123.555 55.4403 124.952 54.8941C126.348 54.3479 127.547 53.3924 128.391 52.1528C129.235 50.9132 129.685 49.4474 129.681 47.9478C129.681 38.8896 118.129 36.7582 115.827 30.897Z" fill="#1F1F1F"/>
<path d="M85.9878 101.232C83.686 107.114 72.134 109.246 72.134 118.283C72.134 120.261 72.9199 122.158 74.3189 123.557C75.7178 124.956 77.6153 125.742 79.5938 125.742C80.6258 125.742 81.6463 125.525 82.5897 125.107C83.5331 124.689 84.3784 124.077 85.0714 123.313C84.8859 126.208 83.7034 128.949 81.7251 131.071V132.136H90.2506V131.071C88.2904 128.948 87.117 126.217 86.9256 123.334C87.9402 124.438 89.2648 125.21 90.7258 125.548C92.1868 125.886 93.7159 125.775 95.1125 125.229C96.5091 124.683 97.708 123.727 98.552 122.487C99.3959 121.248 99.8455 119.782 99.8417 118.283C99.8417 109.224 88.2897 107.093 85.9878 101.232Z" fill="#1F1F1F"/>
<path d="M56.149 77.7869C53.8471 83.6694 42.2952 85.8008 42.2952 94.8377C42.2952 96.8162 43.081 98.7136 44.48 100.113C45.879 101.512 47.7765 102.297 49.7549 102.297C50.7869 102.297 51.8075 102.081 52.7508 101.662C53.6942 101.244 54.5395 100.632 55.2325 99.8677C55.047 102.763 53.8646 105.504 51.8863 107.626V108.692H60.4117V107.626C58.4516 105.503 57.2781 102.772 57.0868 99.889C58.1013 100.993 59.4259 101.765 60.8869 102.103C62.3479 102.442 63.877 102.33 65.2736 101.784C66.6702 101.238 67.8692 100.282 68.7131 99.0427C69.557 97.8031 70.0066 96.3373 70.0028 94.8377C70.0028 85.7795 58.4508 83.6481 56.149 77.7869Z" fill="#1F1F1F"/>
<path d="M115.827 77.7869C113.525 83.6694 101.973 85.8008 101.973 94.8377C101.973 96.8162 102.759 98.7136 104.158 100.113C105.557 101.512 107.454 102.297 109.433 102.297C110.465 102.297 111.485 102.081 112.429 101.662C113.372 101.244 114.218 100.632 114.91 99.8677C114.725 102.763 113.543 105.504 111.564 107.626V108.692H120.09V107.626C118.13 105.503 116.956 102.772 116.765 99.889C117.779 100.993 119.104 101.765 120.565 102.103C122.026 102.442 123.555 102.33 124.952 101.784C126.348 101.238 127.547 100.282 128.391 99.0427C129.235 97.8031 129.685 96.3373 129.681 94.8377C129.681 85.7795 118.129 83.6481 115.827 77.7869Z" fill="#1F1F1F"/>
<path d="M56.149 206.734C53.8471 200.851 42.2952 198.72 42.2952 189.683C42.2952 187.704 43.081 185.807 44.48 184.408C45.879 183.009 47.7765 182.223 49.7549 182.223C50.7869 182.224 51.8075 182.44 52.7508 182.858C53.6942 183.277 54.5395 183.888 55.2325 184.653C55.047 181.758 53.8646 179.017 51.8863 176.895V175.829H60.4117V176.895C58.4516 179.018 57.2781 181.748 57.0868 184.632C58.1013 183.527 59.4259 182.755 60.8869 182.417C62.3479 182.079 63.877 182.19 65.2736 182.737C66.6702 183.283 67.8692 184.238 68.7131 185.478C69.557 186.718 70.0066 188.183 70.0028 189.683C70.0028 198.741 58.4508 200.873 56.149 206.734Z" fill="#1F1F1F"/>
<path d="M115.827 206.734C113.525 200.851 101.973 198.72 101.973 189.683C101.973 187.704 102.759 185.807 104.158 184.408C105.557 183.009 107.454 182.223 109.433 182.223C110.465 182.224 111.485 182.44 112.429 182.858C113.372 183.277 114.218 183.888 114.91 184.653C114.725 181.758 113.543 179.017 111.564 176.895V175.829H120.09V176.895C118.13 179.018 116.956 181.748 116.765 184.632C117.779 183.527 119.104 182.755 120.565 182.417C122.026 182.079 123.555 182.19 124.952 182.737C126.348 183.283 127.547 184.238 128.391 185.478C129.235 186.718 129.685 188.183 129.681 189.683C129.681 198.741 118.129 200.873 115.827 206.734Z" fill="#1F1F1F"/>
<path d="M56.149 159.844C53.8471 153.962 42.2952 151.83 42.2952 142.793C42.2952 140.815 43.081 138.917 44.48 137.518C45.879 136.119 47.7765 135.334 49.7549 135.334C50.7869 135.334 51.8075 135.55 52.7508 135.969C53.6942 136.387 54.5395 136.999 55.2325 137.763C55.047 134.868 53.8646 132.127 51.8863 130.005V128.939H60.4117V130.005C58.4516 132.128 57.2781 134.859 57.0868 137.742C58.1013 136.638 59.4259 135.866 60.8869 135.528C62.3479 135.189 63.877 135.301 65.2736 135.847C66.6702 136.393 67.8692 137.349 68.7131 138.588C69.557 139.828 70.0066 141.294 70.0028 142.793C70.0028 151.852 58.4508 153.983 56.149 159.844Z" fill="#1F1F1F"/>
<path d="M115.827 159.844C113.525 153.962 101.973 151.83 101.973 142.793C101.973 140.815 102.759 138.917 104.158 137.518C105.557 136.119 107.454 135.334 109.433 135.334C110.465 135.334 111.485 135.55 112.429 135.969C113.372 136.387 114.218 136.999 114.91 137.763C114.725 134.868 113.543 132.127 111.564 130.005V128.939H120.09V130.005C118.13 132.128 116.956 134.859 116.765 137.742C117.779 136.638 119.104 135.866 120.565 135.528C122.026 135.189 123.555 135.301 124.952 135.847C126.348 136.393 127.547 137.349 128.391 138.588C129.235 139.828 129.685 141.294 129.681 142.793C129.681 151.852 118.129 153.983 115.827 159.844Z" fill="#1F1F1F"/>
</svg>
