<svg width="172" height="239" viewBox="0 0 172 239" fill="none" xmlns="http://www.w3.org/2000/svg">
<path d="M160.585 0.288086H11.3902C5.5046 0.288086 0.733398 5.05929 0.733398 10.9449V228.343C0.733398 234.229 5.5046 239 11.3902 239H160.585C166.471 239 171.242 234.229 171.242 228.343V10.9449C171.242 5.05929 166.471 0.288086 160.585 0.288086Z" fill="#F9F1DF"/>
<path d="M26.3094 57.3018C24.39 54.3062 21.8452 51.7614 18.8496 49.8421C21.8452 47.9227 24.39 45.3779 26.3094 42.3823C28.2345 45.3733 30.7781 47.917 33.7691 49.8421C30.7781 51.7672 28.2345 54.3109 26.3094 57.3018Z" fill="#C93112"/>
<path d="M145.665 178.789C147.59 181.78 150.134 184.324 153.125 186.249C150.134 188.174 147.59 190.718 145.665 193.709C143.746 190.713 141.201 188.168 138.206 186.249C141.201 184.33 143.746 181.785 145.665 178.789Z" fill="#C93112"/>
<path d="M24.8599 35.2633C24.0446 35.2696 23.2329 35.1546 22.4515 34.9223C21.7575 34.7319 21.1112 34.3979 20.5545 33.9418L21.1512 32.5351C21.5851 32.7514 22.0339 32.9366 22.494 33.0893C23.0561 33.2459 23.6369 33.3247 24.2204 33.3237C24.8466 33.3247 25.4655 33.1878 26.0328 32.9225C26.6001 32.6573 27.102 32.2703 27.5028 31.7892C28.4897 30.5251 29.0495 28.9801 29.1013 27.3772C28.5871 27.8711 27.978 28.2554 27.3109 28.5068C26.5463 28.7878 25.7383 28.9321 24.9238 28.9331C24.1935 28.9405 23.4691 28.8028 22.7924 28.5282C22.1719 28.2906 21.6115 27.9191 21.151 27.4402C20.6905 26.9613 20.3413 26.3868 20.1282 25.7574C19.8814 25.0743 19.7587 24.3525 19.7659 23.6261C19.7599 22.7882 19.9116 21.9566 20.2134 21.175C20.4967 20.4448 20.9328 19.7836 21.4923 19.2355C22.058 18.6774 22.7328 18.2421 23.4745 17.9567C24.3245 17.632 25.2288 17.4729 26.1387 17.4878C27.0731 17.4742 28.0008 17.6481 28.8669 17.9993C29.6942 18.325 30.4269 18.8525 30.9982 19.5339C31.6118 20.2724 32.0685 21.1281 32.3408 22.0488C32.675 23.1759 32.8332 24.3477 32.8098 25.523C32.8284 26.9014 32.6343 28.2746 32.2343 29.5939C31.9045 30.7083 31.3536 31.7448 30.6145 32.6417C29.9407 33.4598 29.0971 34.1216 28.1421 34.5812C27.1142 35.0554 25.9916 35.2887 24.8599 35.2633ZM26.16 26.9297C26.6864 26.9172 27.2091 26.8385 27.7158 26.6952C28.2292 26.5486 28.7177 26.3258 29.1651 26.0345V24.9049C29.1722 24.1464 29.1008 23.3893 28.9521 22.6456C28.8435 22.006 28.635 21.3874 28.334 20.8127C28.087 20.337 27.7375 19.9221 27.3109 19.5978C26.8866 19.3004 26.3796 19.1439 25.8616 19.1502C25.4311 19.1449 25.006 19.2475 24.6253 19.4486C24.2753 19.6564 23.9766 19.9406 23.7515 20.2798C23.4981 20.6626 23.3174 21.0889 23.2187 21.5373C23.0869 22.0453 23.0223 22.5685 23.0268 23.0932C22.9674 24.0927 23.2617 25.0811 23.8581 25.8853C24.1303 26.2308 24.4813 26.506 24.8819 26.6877C25.2824 26.8694 25.7207 26.9524 26.16 26.9297Z" fill="#C93112"/>
<path d="M147.093 200.827C147.909 200.821 148.72 200.935 149.502 201.168C150.2 201.363 150.853 201.697 151.42 202.148L150.802 203.555C150.368 203.339 149.919 203.154 149.459 203.001C148.897 202.844 148.316 202.765 147.733 202.766C147.107 202.765 146.488 202.902 145.921 203.168C145.353 203.433 144.851 203.82 144.451 204.301C143.464 205.565 142.904 207.11 142.852 208.713C143.371 208.215 143.988 207.83 144.664 207.583C145.42 207.301 146.222 207.156 147.029 207.157C147.76 207.15 148.484 207.287 149.161 207.562C149.782 207.797 150.343 208.168 150.802 208.649C151.259 209.131 151.608 209.705 151.825 210.333C152.072 211.016 152.195 211.738 152.187 212.464C152.194 213.302 152.042 214.133 151.74 214.915C151.456 215.64 151.028 216.3 150.482 216.855C149.909 217.413 149.227 217.848 148.479 218.133C147.629 218.46 146.725 218.619 145.815 218.602C144.88 218.616 143.953 218.442 143.087 218.091C142.263 217.759 141.531 217.232 140.955 216.556C140.346 215.815 139.89 214.96 139.612 214.041C139.289 212.912 139.131 211.742 139.144 210.567C139.125 209.189 139.319 207.816 139.719 206.496C140.062 205.381 140.612 204.34 141.339 203.427C142.019 202.621 142.861 201.967 143.811 201.509C144.839 201.035 145.962 200.801 147.093 200.827ZM145.815 209.16C145.295 209.171 144.779 209.25 144.28 209.395C143.758 209.537 143.262 209.76 142.809 210.056V211.292C142.802 212.05 142.874 212.807 143.023 213.551C143.144 214.187 143.352 214.804 143.641 215.384C143.888 215.866 144.246 216.282 144.685 216.599C145.1 216.899 145.601 217.056 146.113 217.046C146.544 217.052 146.969 216.949 147.349 216.748C147.705 216.54 148.011 216.257 148.244 215.917C148.488 215.529 148.668 215.104 148.777 214.659C148.891 214.149 148.948 213.627 148.948 213.103C149 212.098 148.706 211.106 148.116 210.29C147.851 209.932 147.503 209.642 147.103 209.445C146.702 209.249 146.261 209.151 145.815 209.16Z" fill="#C93112"/>
<path d="M56.1485 62.6302C52.3098 56.6391 47.2202 51.5495 41.229 47.7108C47.2202 43.8721 52.3098 38.7824 56.1485 32.7913C59.9872 38.7824 65.0768 43.8721 71.068 47.7108C65.0768 51.5495 59.9872 56.6391 56.1485 62.6302Z" fill="#C93112"/>
<path d="M115.826 62.63C111.988 56.6388 106.898 51.5492 100.907 47.7105C106.898 43.8718 111.988 38.7822 115.826 32.791C119.665 38.7822 124.755 43.8718 130.746 47.7105C124.755 51.5492 119.665 56.6388 115.826 62.63Z" fill="#C93112"/>
<path d="M85.9874 132.965C82.1487 126.974 77.059 121.884 71.0679 118.045C77.059 114.207 82.1487 109.117 85.9874 103.126C89.8261 109.117 94.9157 114.207 100.907 118.045C94.9157 121.884 89.8261 126.974 85.9874 132.965Z" fill="#C93112"/>
<path d="M56.1485 109.52C52.3098 103.529 47.2202 98.4391 41.229 94.6004C47.2202 90.7617 52.3098 85.6721 56.1485 79.6809C59.9872 85.6721 65.0768 90.7617 71.068 94.6004C65.0768 98.4391 59.9872 103.529 56.1485 109.52Z" fill="#C93112"/>
<path d="M115.826 109.52C111.988 103.529 106.898 98.4391 100.907 94.6004C106.898 90.7617 111.988 85.6721 115.826 79.6809C119.665 85.6721 124.755 90.7617 130.746 94.6004C124.755 98.4391 119.665 103.529 115.826 109.52Z" fill="#C93112"/>
<path d="M71.068 188.38C65.0768 192.219 59.9872 197.308 56.1485 203.299C52.3098 197.308 47.2202 192.219 41.229 188.38C47.2202 184.541 52.3098 179.452 56.1485 173.46C59.9872 179.452 65.0768 184.541 71.068 188.38Z" fill="#C93112"/>
<path d="M130.746 188.38C124.755 192.219 119.665 197.308 115.826 203.299C111.988 197.308 106.898 192.219 100.907 188.38C106.898 184.541 111.988 179.452 115.826 173.46C119.665 179.452 124.755 184.541 130.746 188.38Z" fill="#C93112"/>
<path d="M71.068 141.49C65.0768 145.329 59.9872 150.419 56.1485 156.41C52.3098 150.419 47.2202 145.329 41.229 141.49C47.2202 137.652 52.3098 132.562 56.1485 126.571C59.9872 132.562 65.0768 137.652 71.068 141.49Z" fill="#C93112"/>
<path d="M130.746 141.49C124.755 145.329 119.665 150.419 115.826 156.41C111.988 150.419 106.898 145.329 100.907 141.49C106.898 137.652 111.988 132.562 115.826 126.571C119.665 132.562 124.755 137.652 130.746 141.49Z" fill="#C93112"/>
</svg>
