<svg width="171" height="240" viewBox="0 0 171 240" fill="none" xmlns="http://www.w3.org/2000/svg">
<path d="M159.852 0.525391H10.6568C4.7712 0.525391 0 5.29659 0 11.1822V228.58C0 234.466 4.7712 239.237 10.6568 239.237H159.852C165.737 239.237 170.508 234.466 170.508 228.58V11.1822C170.508 5.29659 165.737 0.525391 159.852 0.525391Z" fill="#F9F1DF"/>
<path d="M25.5763 41.8311C24.4254 44.751 18.6494 45.838 18.6494 50.3565C18.6679 51.0893 18.902 51.8004 19.3223 52.401C19.7426 53.0016 20.3306 53.465 21.0128 53.7334C21.695 54.0017 22.4412 54.063 23.158 53.9098C23.8749 53.7565 24.5307 53.3953 25.0435 52.8715C24.9443 54.3154 24.3582 55.6829 23.381 56.7505V57.2621H27.6437V56.7505C26.6665 55.6829 26.0804 54.3154 25.9813 52.8715C26.4941 53.3953 27.1499 53.7565 27.8667 53.9098C28.5836 54.063 29.3297 54.0017 30.0119 53.7334C30.6941 53.465 31.2821 53.0016 31.7025 52.401C32.1228 51.8004 32.3568 51.0893 32.3753 50.3565C32.5032 45.838 26.7273 44.751 25.5763 41.8311Z" fill="#1F1F1F"/>
<path d="M144.932 195.8C146.083 192.88 151.859 191.793 151.859 187.274C151.841 186.542 151.607 185.831 151.186 185.23C150.766 184.629 150.178 184.166 149.496 183.898C148.814 183.629 148.068 183.568 147.351 183.721C146.634 183.874 145.978 184.236 145.465 184.759C145.564 183.316 146.15 181.948 147.128 180.88V180.369H142.801V180.88C143.778 181.948 144.364 183.316 144.463 184.759C143.951 184.236 143.295 183.874 142.578 183.721C141.861 183.568 141.115 183.629 140.433 183.898C139.751 184.166 139.163 184.629 138.742 185.23C138.322 185.831 138.088 186.542 138.069 187.274C138.005 191.793 143.781 192.88 144.932 195.8Z" fill="#1F1F1F"/>
<path d="M22.9763 34.2651V35.6931H16.2412V34.2651L17.8397 33.8601C17.9988 33.8222 18.1502 33.7574 18.2873 33.6683C18.4015 33.5457 18.4887 33.4005 18.5431 33.242L24.3617 16.1912H27.7079L33.7183 33.242C33.7671 33.3969 33.8552 33.5364 33.9741 33.6469C34.0996 33.7597 34.255 33.8337 34.4217 33.8601L35.8923 34.2651V35.6931H27.7079V34.2651L30.1163 33.8175L28.7949 29.8745H21.804L20.5466 33.8175L22.9763 34.2651ZM28.3047 28.1481L25.2568 19.0685L22.3582 28.2333L28.3047 28.1481Z" fill="#1F1F1F"/>
<path d="M147.554 203.367V201.939H154.267V203.367L152.669 203.772C152.51 203.809 152.358 203.874 152.221 203.964C152.107 204.086 152.02 204.231 151.966 204.39L146.147 221.441H142.907L136.897 204.39C136.856 204.232 136.766 204.09 136.641 203.985C136.516 203.872 136.36 203.798 136.194 203.772L134.723 203.367V201.939H142.801V203.367L140.392 203.814L141.714 207.757H148.79L150.047 203.814L147.554 203.367ZM142.204 209.398L145.252 218.478L148.15 209.398H142.204Z" fill="#1F1F1F"/>
<path d="M85.2543 83.6484C80.6292 95.3922 57.5466 99.6975 57.5466 117.75C57.5648 120.74 58.4811 123.656 60.1767 126.119C61.8722 128.582 64.2688 130.479 67.0556 131.563C69.8423 132.648 72.8906 132.87 75.805 132.2C78.7194 131.531 81.3655 130.002 83.4 127.81C83.0245 133.595 80.6687 139.074 76.7288 143.326V145.458H93.7797V143.326C89.8398 139.083 87.4837 133.61 87.1085 127.831C89.1443 130.024 91.7923 131.554 94.7087 132.223C97.6251 132.892 100.675 132.668 103.463 131.581C106.25 130.494 108.647 128.594 110.341 126.127C112.035 123.661 112.948 120.742 112.962 117.75C112.962 99.6975 89.858 95.3922 85.2543 83.6484Z" fill="#1F1F1F"/>
</svg>
