<svg width="171" height="240" viewBox="0 0 171 240" fill="none" xmlns="http://www.w3.org/2000/svg">
<path d="M159.852 0.762695H10.6568C4.7712 0.762695 0 5.5339 0 11.4195V228.818C0 234.703 4.7712 239.475 10.6568 239.475H159.852C165.737 239.475 170.508 234.703 170.508 228.818V11.4195C170.508 5.5339 165.737 0.762695 159.852 0.762695Z" fill="#F9F1DF"/>
<path d="M29.029 45.5212C28.3154 45.5348 27.6184 45.7397 27.0111 46.1146C26.4037 46.4896 25.9082 47.0207 25.5762 47.6526C25.144 46.8839 24.469 46.2802 23.657 45.9362C22.845 45.5921 21.9418 45.5271 21.0889 45.7513C20.2359 45.9755 19.4815 46.4763 18.9436 47.1751C18.4057 47.874 18.1148 48.7315 18.1165 49.6134C18.1165 54.0253 24.404 56.3912 25.5762 59.2045C26.7485 56.3912 33.036 54.0253 33.036 49.6134C33.0473 49.0801 32.952 48.5499 32.7558 48.0539C32.5595 47.5578 32.2661 47.106 31.8929 46.7248C31.5197 46.3437 31.0741 46.0409 30.5823 45.8342C30.0906 45.6275 29.5625 45.5211 29.029 45.5212Z" fill="#C93112"/>
<path d="M141.458 193.651C142.175 193.641 142.876 193.438 143.488 193.063C144.099 192.688 144.598 192.154 144.932 191.519C145.364 192.288 146.039 192.892 146.851 193.236C147.663 193.58 148.566 193.645 149.419 193.421C150.272 193.197 151.027 192.696 151.564 191.997C152.102 191.298 152.393 190.441 152.392 189.559C152.392 185.147 145.998 182.781 144.932 179.968C143.76 182.781 137.472 185.147 137.472 189.559C137.461 190.09 137.555 190.619 137.75 191.113C137.945 191.608 138.237 192.059 138.608 192.44C138.979 192.821 139.422 193.124 139.911 193.332C140.4 193.54 140.926 193.648 141.458 193.651Z" fill="#C93112"/>
<path d="M22.9763 35.0353V36.4633H16.2412V35.0353L17.8397 34.6304C18.0017 34.6018 18.1549 34.5362 18.2873 34.4386C18.4015 34.316 18.4887 34.1708 18.5431 34.0123L24.3617 16.9614H27.7079L33.7183 34.0123C33.7671 34.1671 33.8552 34.3066 33.9741 34.4172C34.0996 34.53 34.255 34.604 34.4217 34.6304L35.8923 35.0353V36.4633H27.7079V35.0353L30.1163 34.5877L28.8802 30.6021H21.804L20.5466 34.5451L22.9763 35.0353ZM28.3047 28.9183L25.2568 19.9453L22.3582 29.0249L28.3047 28.9183Z" fill="#C93112"/>
<path d="M147.554 204.137V202.709H154.267V204.137L152.669 204.542C152.507 204.57 152.354 204.636 152.221 204.734C152.107 204.856 152.02 205.001 151.966 205.16L146.147 222.211H142.907L136.897 205.16C136.856 205.002 136.766 204.86 136.641 204.755C136.516 204.642 136.36 204.568 136.194 204.542L134.723 204.137V202.709H142.801V204.137L140.392 204.584L141.714 208.527H148.79L150.047 204.584L147.554 204.137ZM142.204 210.254L145.252 219.333L148.15 210.254H142.204Z" fill="#C93112"/>
<path d="M99.1081 96.1409C96.2844 96.1475 93.5132 96.905 91.0787 98.3357C88.6442 99.7665 86.634 101.819 85.2543 104.283C83.5254 101.208 80.8255 98.7932 77.5774 97.417C74.3294 96.0408 70.7166 95.7807 67.3049 96.6775C63.8932 97.5743 60.8753 99.5773 58.7238 102.373C56.5723 105.168 55.4087 108.598 55.4153 112.126C55.4153 129.774 80.5653 139.237 85.2543 150.49C89.9433 139.237 115.093 129.774 115.093 112.126C115.093 107.887 113.409 103.821 110.411 100.823C107.414 97.825 103.348 96.1409 99.1081 96.1409Z" fill="#C93112"/>
</svg>
