<svg width="171" height="239" viewBox="0 0 171 239" fill="none" xmlns="http://www.w3.org/2000/svg">
<path d="M159.852 0H10.6568C4.7712 0 0 4.7712 0 10.6568V228.055C0 233.941 4.7712 238.712 10.6568 238.712H159.852C165.737 238.712 170.508 233.941 170.508 228.055V10.6568C170.508 4.7712 165.737 0 159.852 0Z" fill="#F9F1DF"/>
<path d="M32.0986 49.1489C31.4964 48.5554 30.6848 48.2226 29.8393 48.2226C28.9938 48.2226 28.1823 48.5554 27.5801 49.1489L26.216 50.5343C26.5081 49.578 27.0706 48.7268 27.8359 48.0832C28.2824 47.6361 28.5864 47.0667 28.7096 46.4469C28.8327 45.8271 28.7694 45.1848 28.5276 44.6009C28.2859 44.0171 27.8766 43.518 27.3513 43.1666C26.8261 42.8153 26.2085 42.6275 25.5766 42.627C24.7295 42.63 23.9177 42.967 23.3174 43.5648C23.0184 43.8601 22.781 44.2119 22.6189 44.5997C22.4569 44.9876 22.3735 45.4037 22.3735 45.824C22.3735 46.2443 22.4569 46.6604 22.6189 47.0482C22.781 47.436 23.0184 47.7878 23.3174 48.0832C24.0826 48.7268 24.6452 49.578 24.9372 50.5343L23.5731 49.1489C23.125 48.7044 22.5553 48.4025 21.9359 48.2813C21.3164 48.1601 20.6749 48.2249 20.0923 48.4676C19.5096 48.7104 19.0119 49.1202 18.6617 49.6453C18.3116 50.1705 18.1248 50.7876 18.1248 51.4188C18.1248 52.05 18.3116 52.6671 18.6617 53.1922C19.0119 53.7174 19.5096 54.1272 20.0923 54.37C20.6749 54.6127 21.3164 54.6775 21.9359 54.5563C22.5553 54.4351 23.125 54.1332 23.5731 53.6887L25.1504 52.0902C25.2184 53.0099 25.1027 53.934 24.81 54.8086C24.5172 55.6832 24.0533 56.4907 23.4453 57.1841V57.6956H27.708V57.1841C26.4857 55.7873 25.8652 53.9639 25.9816 52.1115V51.9836L27.5588 53.5821C28.1608 54.1813 28.9762 54.5168 29.8256 54.5148C30.6749 54.5128 31.4887 54.1735 32.0879 53.5715C32.6871 52.9695 33.0226 52.1541 33.0206 51.3047C33.0186 50.4553 32.6793 49.6415 32.0773 49.0423L32.0986 49.1489Z" fill="#1F1F1F"/>
<path d="M138.411 189.563C139.013 190.157 139.825 190.49 140.67 190.49C141.516 190.49 142.327 190.157 142.929 189.563L144.293 188.178C144.001 189.134 143.439 189.985 142.674 190.629C142.227 191.076 141.923 191.646 141.8 192.265C141.677 192.885 141.74 193.527 141.982 194.111C142.223 194.695 142.633 195.194 143.158 195.546C143.683 195.897 144.301 196.085 144.933 196.085C145.78 196.082 146.592 195.745 147.192 195.147C147.491 194.852 147.728 194.5 147.89 194.112C148.052 193.725 148.136 193.309 148.136 192.888C148.136 192.468 148.052 192.052 147.89 191.664C147.728 191.276 147.491 190.924 147.192 190.629C146.427 189.985 145.864 189.134 145.572 188.178L146.936 189.563C147.384 190.008 147.954 190.31 148.574 190.431C149.193 190.552 149.834 190.487 150.417 190.245C151 190.002 151.498 189.592 151.848 189.067C152.198 188.542 152.385 187.925 152.385 187.293C152.385 186.662 152.198 186.045 151.848 185.52C151.498 184.995 151 184.585 150.417 184.342C149.834 184.1 149.193 184.035 148.574 184.156C147.954 184.277 147.384 184.579 146.936 185.024L145.359 186.622C145.291 185.702 145.407 184.778 145.699 183.904C145.992 183.029 146.456 182.222 147.064 181.528V181.017H142.801V181.528C144.024 182.925 144.644 184.748 144.528 186.601V186.729L142.951 185.13C142.349 184.531 141.533 184.195 140.684 184.197C139.834 184.199 139.021 184.539 138.421 185.141C137.822 185.743 137.487 186.558 137.489 187.408C137.491 188.257 137.83 189.071 138.432 189.67L138.411 189.563Z" fill="#1F1F1F"/>
<path d="M22.9763 34.8053V36.2333H16.2412V34.8053L17.8397 34.4004C17.9988 34.3625 18.1502 34.2977 18.2873 34.2086C18.4015 34.086 18.4887 33.9408 18.5431 33.7823L24.3617 16.7314H27.7079L33.7183 33.7823C33.7671 33.9371 33.8552 34.0767 33.9741 34.1873C34.0996 34.3 34.255 34.374 34.4217 34.4004L35.8923 34.8053V36.2333H27.7079V34.8053L30.1163 34.3578L28.7949 30.4148H21.804L20.5466 34.3578L22.9763 34.8053ZM28.3047 28.6884L25.2568 19.6088L22.3582 28.6884H28.3047Z" fill="#1F1F1F"/>
<path d="M147.554 203.907V202.479H154.267V203.907L152.669 204.312C152.51 204.35 152.358 204.415 152.221 204.504C152.107 204.626 152.02 204.772 151.966 204.93L146.147 221.981H142.907L136.897 204.93C136.856 204.772 136.766 204.63 136.641 204.525C136.516 204.412 136.36 204.338 136.194 204.312L134.723 203.907V202.479H142.801V203.907L140.392 204.355L141.714 208.298H148.79L150.047 204.355L147.554 203.907ZM142.204 210.024L145.252 219.104L148.15 210.024H142.204Z" fill="#1F1F1F"/>
<path d="M111.343 111.364C108.945 108.969 105.695 107.624 102.306 107.624C98.9169 107.624 95.6666 108.969 93.2689 111.364L87.77 116.862C88.9699 113.048 91.2323 109.654 94.2919 107.079C96.0781 105.291 97.2942 103.013 97.7867 100.534C98.2792 98.0551 98.026 95.4856 97.059 93.1502C96.0921 90.8149 94.4547 88.8185 92.3538 87.4132C90.2528 86.0078 87.7826 85.2566 85.255 85.2544C82.731 85.265 80.2666 86.0223 78.1721 87.4308C76.0777 88.8394 74.447 90.8362 73.4853 93.1699C72.5236 95.5035 72.2739 98.0695 72.7678 100.545C73.2617 103.02 74.477 105.294 76.2606 107.079C79.3203 109.654 81.5826 113.048 82.7826 116.862L77.2837 111.364C75.4947 109.576 73.216 108.36 70.7357 107.868C68.2555 107.375 65.6849 107.629 63.3491 108.598C61.0132 109.566 59.0168 111.205 57.6122 113.308C56.2077 115.411 55.458 117.882 55.458 120.411C55.458 122.94 56.2077 125.412 57.6122 127.514C59.0168 129.617 61.0132 131.256 63.3491 132.224C65.6849 133.193 68.2555 133.447 70.7357 132.955C73.216 132.462 75.4947 131.246 77.2837 129.459L83.6778 123.065C83.6778 123.065 83.6778 123.278 83.6778 123.406C83.7843 128.947 82.9105 137.686 76.8148 143.781V145.913H93.8656V143.781C87.8126 137.707 86.9387 129.054 87.0027 123.491C87.0027 123.342 87.0027 123.214 87.0027 123.065L93.3967 129.459C94.5814 130.661 95.9924 131.618 97.5484 132.272C99.1045 132.927 100.775 133.267 102.463 133.273C104.151 133.278 105.823 132.95 107.384 132.306C108.944 131.662 110.362 130.716 111.555 129.522C112.748 128.327 113.693 126.909 114.335 125.347C114.977 123.786 115.303 122.113 115.295 120.425C115.287 118.737 114.945 117.067 114.289 115.512C113.633 113.957 112.675 112.547 111.471 111.364H111.343Z" fill="#1F1F1F"/>
</svg>
