<svg width="171" height="239" viewBox="0 0 171 239" fill="none" xmlns="http://www.w3.org/2000/svg">
<path d="M159.852 0H10.6568C4.7712 0 0 4.7712 0 10.6568V228.055C0 233.941 4.7712 238.712 10.6568 238.712H159.852C165.737 238.712 170.508 233.941 170.508 228.055V10.6568C170.508 4.7712 165.737 0 159.852 0Z" fill="#F9F1DF"/>
<path d="M153.457 186.5H151.326V19.1821H46.8896V17.0508H152.392L153.457 18.1165V186.5ZM17.0507 49.5V220.595L18.1163 221.661H123.618V219.53H19.182V49.5H17.0507Z" fill="#D7CAAF"/>
<g clip-path="url(#clip0_470_12050)">
<path d="M85.863 71.642L116.593 82.8275L133.406 111.957C131.448 122.987 129.502 134.02 127.57 145.054L101.806 166.672H68.193L42.4287 145.054L36.593 111.957C42.1906 102.245 47.7892 92.5293 53.4058 82.8275C63.931 78.9826 74.4668 75.1578 84.9984 71.3276L85.862 71.642H85.863ZM82.8923 129.484H89.7736V141.417C88.0072 142.751 85.9625 143.773 83.6373 144.485C81.3122 145.199 78.9732 145.555 76.6174 145.555C73.2381 145.555 70.2017 144.834 67.505 143.393C64.8073 141.952 62.6928 139.952 61.1582 137.395C59.6246 134.838 58.8573 131.949 58.8573 128.724C58.8573 125.502 59.6246 122.611 61.1582 120.053C62.6928 117.497 64.8232 115.497 67.5505 114.057C72.4369 111.475 75.9972 111.72 80.6031 112.214V118.589C77.518 118.247 74.5515 118.019 71.5955 119.612C69.9837 120.48 68.7295 121.704 67.83 123.285C66.9314 124.865 66.4816 126.678 66.4816 128.723C66.4816 130.738 66.9314 132.537 67.83 134.117C68.7295 135.697 69.9763 136.929 71.5722 137.812C73.1672 138.696 74.9886 139.137 77.0343 139.137C79.2039 139.137 81.1566 138.673 82.8912 137.743V129.482L82.8923 129.484ZM82.9187 112.461H82.9208V96.3827H96.2813C99.1632 96.3827 101.666 96.8643 103.789 97.8231C105.911 98.7851 107.546 100.148 108.695 101.915C109.841 103.682 110.414 105.773 110.414 108.192C110.414 110.577 109.841 112.662 108.695 114.444C107.546 116.225 105.912 117.59 103.789 118.535C99.7495 120.333 96.0104 120.095 91.9982 119.701V113.439C95.0886 113.85 98.7505 114.237 101.023 112.351C102.2 111.374 102.79 109.989 102.79 108.192C102.79 106.362 102.201 104.961 101.023 103.984C99.8448 103.007 98.125 102.519 95.8612 102.519H89.7249V110.146H89.6826V120.974H89.7249V127.29H82.9198V118.839H82.9177V112.46L82.9187 112.461ZM112.692 92.7643C105.604 85.6776 95.8125 81.294 84.9984 81.294C74.1853 81.294 64.3925 85.6787 57.3058 92.7643C50.2192 99.8519 45.8355 109.644 45.8355 120.458C45.8355 131.271 50.2202 141.064 57.3058 148.149C64.3935 155.236 74.1853 159.619 84.9984 159.619C95.8114 159.619 105.604 155.235 112.692 148.149C119.779 141.063 124.162 131.271 124.162 120.458C124.162 109.645 119.778 99.8519 112.692 92.7643Z" fill="#D7CAAF"/>
</g>
<path d="M28.7052 17.0758L36.0057 19.7741L40 26.8011C39.5348 29.4619 39.0725 32.1234 38.6136 34.7849L32.4927 40H24.5073L18.3864 34.7849L17 26.8011C18.3298 24.4582 19.6599 22.1145 20.9942 19.7741C23.4947 18.8466 25.9977 17.9239 28.4997 17L28.7049 17.0758H28.7052ZM27.9994 31.0292H29.6342V33.9077C29.2146 34.2294 28.7288 34.476 28.1764 34.6478C27.624 34.8199 27.0683 34.9059 26.5087 34.9059C25.7058 34.9059 24.9845 34.7321 24.3438 34.3844C23.7029 34.0366 23.2006 33.5544 22.836 32.9376C22.4717 32.3207 22.2894 31.6238 22.2894 30.8459C22.2894 30.0685 22.4717 29.3712 22.836 28.7542C23.2006 28.1373 23.7067 27.6551 24.3546 27.3076C25.5155 26.6847 26.3613 26.7439 27.4556 26.8631V28.4008C26.7226 28.3184 26.0179 28.2635 25.3156 28.6477C24.9327 28.857 24.6347 29.1524 24.421 29.5336C24.2076 29.9148 24.1007 30.3521 24.1007 30.8456C24.1007 31.3317 24.2076 31.7655 24.421 32.1466C24.6347 32.5278 24.9309 32.825 25.3101 33.0381C25.689 33.2513 26.1217 33.3578 26.6077 33.3578C27.1232 33.3578 27.587 33.2457 27.9991 33.0213V31.0286L27.9994 31.0292ZM28.0057 26.9226H28.0062V23.044H31.1803C31.8649 23.044 32.4596 23.1602 32.9639 23.3915C33.468 23.6236 33.8565 23.9524 34.1293 24.3785C34.4016 24.8049 34.5379 25.3093 34.5379 25.8927C34.5379 26.4682 34.4016 26.9711 34.1293 27.401C33.8565 27.8307 33.4683 28.1598 32.9639 28.3878C32.0042 28.8216 31.1159 28.7641 30.1627 28.6691V27.1585C30.8969 27.2576 31.7669 27.351 32.3067 26.8961C32.5863 26.6604 32.7266 26.3262 32.7266 25.8927C32.7266 25.4513 32.5865 25.1133 32.3067 24.8776C32.0268 24.642 31.6183 24.5243 31.0804 24.5243H29.6226V26.3643H29.6126V28.9763H29.6226V30.4999H28.0059V28.4611H28.0054V26.9224L28.0057 26.9226ZM35.079 22.1712C33.3951 20.4617 31.0689 19.4042 28.4997 19.4042C25.9309 19.4042 23.6044 20.4619 21.9208 22.1712C20.2372 23.8809 19.1958 26.243 19.1958 28.8517C19.1958 31.4601 20.2374 33.8224 21.9208 35.5317C23.6046 37.2412 25.9309 38.2987 28.4997 38.2987C31.0686 38.2987 33.3951 37.2409 35.079 35.5317C36.7626 33.8222 37.804 31.4601 37.804 28.8517C37.804 26.2432 36.7623 23.8809 35.079 22.1712Z" fill="#D7CAAF"/>
<path d="M141.295 221.924L133.994 219.226L130 212.199C130.465 209.538 130.928 206.877 131.386 204.215L137.507 199L145.493 199L151.614 204.215L153 212.199C151.67 214.542 150.34 216.886 149.006 219.226C146.505 220.153 144.002 221.076 141.5 222L141.295 221.924ZM142.001 207.971L140.366 207.971L140.366 205.092C140.785 204.771 141.271 204.524 141.824 204.352C142.376 204.18 142.932 204.094 143.491 204.094C144.294 204.094 145.016 204.268 145.656 204.616C146.297 204.963 146.799 205.446 147.164 206.062C147.528 206.679 147.711 207.376 147.711 208.154C147.711 208.932 147.528 209.629 147.164 210.246C146.799 210.863 146.293 211.345 145.645 211.692C144.484 212.315 143.639 212.256 142.544 212.137L142.544 210.599C143.277 210.682 143.982 210.737 144.684 210.352C145.067 210.143 145.365 209.848 145.579 209.466C145.792 209.085 145.899 208.648 145.899 208.154C145.899 207.668 145.792 207.235 145.579 206.853C145.365 206.472 145.069 206.175 144.69 205.962C144.311 205.749 143.878 205.642 143.392 205.642C142.877 205.642 142.413 205.754 142.001 205.979L142.001 207.971ZM141.994 212.077L141.994 215.956L138.82 215.956C138.135 215.956 137.54 215.84 137.036 215.608C136.532 215.376 136.143 215.048 135.871 214.621C135.598 214.195 135.462 213.691 135.462 213.107C135.462 212.532 135.598 212.029 135.871 211.599C136.143 211.169 136.532 210.84 137.036 210.612C137.996 210.178 138.884 210.236 139.837 210.331L139.837 211.841C139.103 211.742 138.233 211.649 137.693 212.104C137.414 212.34 137.273 212.674 137.273 213.107C137.273 213.549 137.413 213.887 137.693 214.122C137.973 214.358 138.382 214.476 138.92 214.476L140.377 214.476L140.377 212.636L140.387 212.636L140.387 210.024L140.377 210.024L140.377 208.5L141.994 208.5L141.994 210.539L141.994 212.077ZM134.921 216.829C136.605 218.538 138.931 219.596 141.5 219.596C144.069 219.596 146.396 218.538 148.079 216.829C149.763 215.119 150.804 212.757 150.804 210.148C150.804 207.54 149.763 205.178 148.079 203.468C146.395 201.759 144.069 200.701 141.5 200.701C138.931 200.701 136.605 201.759 134.921 203.468C133.237 205.178 132.196 207.54 132.196 210.148C132.196 212.757 133.238 215.119 134.921 216.829Z" fill="#D7CAAF"/>
<defs>
<clipPath id="clip0_470_12050">
<rect width="120" height="120" fill="white" transform="translate(25 59)"/>
</clipPath>
</defs>
</svg>
