<svg width="171" height="240" viewBox="0 0 171 240" fill="none" xmlns="http://www.w3.org/2000/svg">
<path d="M160.034 0.525391H10.8389C4.95333 0.525391 0.182129 5.29659 0.182129 11.1822V228.58C0.182129 234.466 4.95333 239.237 10.8389 239.237H160.034C165.919 239.237 170.691 234.466 170.691 228.58V11.1822C170.691 5.29659 165.919 0.525391 160.034 0.525391Z" fill="#F9F1DF"/>
<path d="M25.7582 41.8308C24.586 44.7508 18.8313 45.8378 18.8313 50.3562C18.8313 50.845 18.928 51.329 19.1157 51.7804C19.3034 52.2317 19.5784 52.6415 19.9251 52.9862C20.2717 53.3308 20.683 53.6035 21.1354 53.7886C21.5878 53.9737 22.0724 54.0676 22.5612 54.0648C23.0731 54.0613 23.5791 53.9538 24.0481 53.7486C24.5171 53.5434 24.9394 53.2449 25.2894 52.8712C25.1902 54.3151 24.604 55.6827 23.6268 56.7503V57.2618H27.8896V56.7503C26.9046 55.6857 26.3109 54.3178 26.2058 52.8712C26.5583 53.2475 26.984 53.5475 27.4569 53.7528C27.9298 53.958 28.4397 54.0642 28.9552 54.0648C29.9408 54.0648 30.8863 53.6748 31.5852 52.9799C32.2841 52.285 32.6795 51.3418 32.6851 50.3562C32.6851 45.8378 26.9091 44.7508 25.7582 41.8308Z" fill="#1F1F1F"/>
<path d="M145.114 195.8C146.265 192.88 152.041 191.793 152.041 187.274C152.035 186.289 151.64 185.345 150.941 184.651C150.242 183.956 149.297 183.566 148.311 183.566C147.796 183.566 147.286 183.672 146.813 183.878C146.34 184.083 145.914 184.383 145.562 184.759C145.667 183.313 146.26 181.945 147.245 180.88V180.369H142.983V180.88C143.96 181.948 144.546 183.315 144.645 184.759C144.132 184.235 143.477 183.874 142.76 183.721C142.043 183.568 141.297 183.629 140.615 183.897C139.932 184.166 139.344 184.629 138.924 185.23C138.504 185.83 138.27 186.541 138.251 187.274C138.187 191.793 143.963 192.88 145.114 195.8Z" fill="#1F1F1F"/>
<path d="M28.1453 18.1941C27.9634 18.2204 27.797 18.3112 27.6764 18.4498C27.5649 18.5876 27.5113 18.7635 27.5272 18.94V30.7264C27.5423 31.9604 27.4568 33.1936 27.2715 34.4137C27.1555 35.3494 26.8432 36.25 26.355 37.0566C25.8384 37.8356 25.1629 38.4966 24.3728 38.9961C23.3034 39.6285 22.1757 40.1567 21.0053 40.5733L20.3019 39.124C20.9925 38.6868 21.6418 38.1875 22.2415 37.632C22.7232 37.1854 23.114 36.6499 23.3924 36.0549C23.6983 35.3803 23.8927 34.6604 23.9679 33.9235C24.0684 33.0033 24.1182 32.0783 24.1171 31.1527V18.8335C24.124 18.648 24.0634 18.4662 23.9465 18.322C23.8927 18.2536 23.8249 18.1973 23.7478 18.1569C23.6706 18.1165 23.5858 18.0929 23.4989 18.0875L21.5381 17.6826V16.2119H29.8716V17.6826L28.1453 18.1941Z" fill="#1F1F1F"/>
<path d="M142.706 219.437C142.888 219.411 143.054 219.32 143.175 219.181C143.287 219.043 143.34 218.867 143.324 218.691V206.904C143.314 205.671 143.392 204.439 143.559 203.217C143.692 202.283 144.011 201.384 144.497 200.574C145.013 199.795 145.689 199.134 146.479 198.635C147.546 197.998 148.674 197.47 149.846 197.058L150.55 198.507C149.859 198.944 149.21 199.443 148.61 199.999C148.122 200.445 147.724 200.98 147.438 201.576C147.16 202.222 146.973 202.903 146.884 203.601C146.772 204.52 146.723 205.446 146.734 206.372V218.691C146.732 218.872 146.784 219.05 146.884 219.202C146.942 219.271 147.013 219.328 147.094 219.368C147.174 219.408 147.262 219.432 147.352 219.437L149.313 219.842V221.312H140.98V219.842L142.706 219.437Z" fill="#1F1F1F"/>
<path d="M130.174 23.4375C127.872 29.32 116.32 31.4514 116.32 40.4883C116.32 42.4668 117.106 44.3642 118.505 45.7632C119.904 47.1622 121.801 47.9481 123.78 47.9481C124.812 47.9477 125.832 47.7313 126.776 47.3128C127.719 46.8944 128.564 46.2831 129.257 45.5183C129.072 48.4133 127.889 51.1547 125.911 53.2765V54.3422H134.437V53.2765C132.476 51.1534 131.303 48.4228 131.112 45.5397C132.126 46.644 133.451 47.4158 134.912 47.754C136.373 48.0922 137.902 47.9808 139.299 47.4346C140.695 46.8884 141.894 45.9329 142.738 44.6933C143.582 43.4537 144.031 41.988 144.028 40.4883C144.028 31.4514 132.497 29.32 130.174 23.4375Z" fill="#1F1F1F"/>
<path d="M40.6569 216.346C38.3551 210.464 26.8031 208.311 26.8031 199.295C26.8056 197.796 27.2599 196.332 28.1066 195.095C28.9533 193.858 30.1532 192.904 31.5497 192.359C32.9463 191.814 34.4748 191.702 35.9359 192.038C37.397 192.374 38.7227 193.143 39.7404 194.244C39.5553 191.355 38.3725 188.62 36.3942 186.507V185.441H44.9196V186.507C42.9551 188.627 41.7809 191.359 41.5947 194.244C42.6093 193.14 43.934 192.368 45.395 192.03C46.8559 191.691 48.385 191.803 49.7817 192.349C51.1783 192.895 52.3771 193.851 53.221 195.09C54.065 196.33 54.5145 197.796 54.5107 199.295C54.5107 208.311 42.9801 210.464 40.6569 216.346Z" fill="#1F1F1F"/>
<path d="M153.619 171.034H151.488V19.7075H47.0511V17.5762H152.553L153.619 18.6418V171.034ZM17.2122 68.7287V221.121L18.2778 222.186H123.78V220.055H19.3435V68.7287H17.2122Z" fill="#1F1F1F"/>
<path d="M111.716 104.962C116.128 92.9407 111.716 81.6871 102.253 72.8633C101.852 73.2589 101.375 73.5684 100.85 73.7729C100.325 73.9775 99.7643 74.0727 99.2015 74.0528C98.6388 74.0328 98.086 73.8981 97.5771 73.6569C97.0683 73.4157 96.6141 73.0731 96.2423 72.6501C95.5944 73.417 94.6797 73.9095 93.6828 74.0282C92.686 74.1468 91.6811 73.8829 90.8713 73.2896C90.708 74.9616 90.0948 76.558 89.0965 77.9091C88.0982 79.2602 86.7522 80.3154 85.2019 80.9624C91.7718 81.0952 98.0726 83.5967 102.944 88.0065C107.816 92.4162 110.931 98.4373 111.716 104.962Z" fill="#C93112"/>
<path d="M105.534 133.266L97.1793 141.621C98.1516 144.705 98.556 147.94 98.3729 151.169C102.167 147.844 106.557 144.434 109.925 141.195C108.001 138.834 106.514 136.149 105.534 133.266Z" fill="#CBBD9F"/>
<path d="M65.3369 106.496L73.6918 98.1412C72.7082 95.0593 72.3035 91.822 72.4982 88.5928C68.7044 91.9177 64.3138 95.3278 60.9463 98.5675C62.8701 100.928 64.357 103.613 65.3369 106.496Z" fill="#C93112"/>
<path d="M107.112 74.8669C125.079 95.5411 111.012 121.757 93.4287 121.927C99.6949 126.808 100.206 133.287 101.272 138.765L118.835 121.203V84.7991C115.916 80.4724 111.859 77.0354 107.112 74.8669Z" fill="#2D6B67"/>
<path d="M93.8552 100.102C92.7231 98.8396 91.3512 97.8149 89.8195 97.0876C88.2877 96.3603 86.6265 95.9449 84.9327 95.8656C83.2389 95.7862 81.5463 96.0445 79.9532 96.6255C78.3602 97.2064 76.8986 98.0984 75.6534 99.2495C76.9109 105.537 77.124 108.052 78.8078 111.142C80.817 114.899 84.2137 117.724 88.2743 119.013C92.3349 120.303 96.7387 119.957 100.548 118.048C100.553 111.455 98.1765 105.082 93.8552 100.102Z" fill="#CBBD9F"/>
<path d="M77.4436 117.75C71.22 112.912 70.7298 106.731 69.5575 100.913L52.0378 118.56V154.964C54.9464 159.299 59.0058 162.739 63.7603 164.896C45.8356 144.414 59.7533 118.091 77.4436 117.75Z" fill="#2D6B67"/>
<path d="M92.065 128.62C90.0475 124.86 86.6431 122.035 82.5755 120.746C78.5079 119.456 74.0978 119.804 70.2825 121.715C70.5169 131.945 76.2289 143.923 86.5234 143.923C89.7483 143.924 92.8544 142.706 95.2194 140.513C93.9832 134.268 93.7488 131.711 92.065 128.62Z" fill="#C93112"/>
<path d="M74.6725 167.112C75.3205 166.345 76.2351 165.853 77.232 165.734C78.2289 165.615 79.2338 165.879 80.0436 166.473C80.241 164.806 80.8723 163.22 81.8747 161.873C82.8771 160.527 84.2153 159.467 85.7556 158.8C79.1823 158.664 72.8784 156.162 68.0005 151.754C63.1225 147.346 59.9975 141.327 59.1989 134.801C54.8083 146.715 59.1989 158.096 68.7048 166.899C69.1003 166.502 69.5735 166.19 70.095 165.984C70.6165 165.779 71.1749 165.683 71.7352 165.703C72.2954 165.723 72.8455 165.858 73.351 166.101C73.8564 166.343 74.3064 166.688 74.6725 167.112Z" fill="#CBBD9F"/>
<path d="M88.3983 207.821L87.7589 211.956C91.1256 212.009 94.4748 211.461 97.6484 210.336L97.3927 207.139C94.4683 207.954 91.4121 208.186 88.3983 207.821Z" fill="#C93112"/>
<path d="M74.8439 208.162C78.0652 210.191 81.7129 211.446 85.5007 211.828L86.2252 207.566C82.886 206.994 79.6614 205.886 76.6768 204.283L74.8439 208.162Z" fill="#C93112"/>
<path d="M67.9382 197.334L66.1051 199.295C67.9121 202.26 70.2708 204.85 73.0533 206.926L74.8863 203.217C72.3163 201.577 69.9793 199.599 67.9382 197.334Z" fill="#C93112"/>
<path d="M69.3875 195.758C76.1225 203.367 87.1416 207.8 97.223 205.008L96.9245 201.726H96.1573C95.8916 201.792 95.6206 201.835 95.3474 201.854C86.6734 201.64 78.2711 198.785 71.2631 193.669L69.3875 195.758Z" fill="#CBBD9F"/>
<path d="M98.331 197.42C97.4145 196.738 92.5977 197.761 88.0579 194.862C80.6835 190.301 80.854 179.069 80.854 169.84C80.8213 169.298 80.5824 168.788 80.1862 168.415C79.79 168.043 79.2664 167.836 78.7226 167.837C78.4595 167.837 78.1989 167.889 77.9559 167.989C77.7128 168.09 77.492 168.238 77.3059 168.424C77.1199 168.61 76.9723 168.831 76.8716 169.074C76.7709 169.317 76.7191 169.577 76.7191 169.84C76.7191 182.629 78.8505 197.186 90.9992 199.424C92.8517 199.784 94.7435 199.899 96.6259 199.765C97.0938 199.762 97.5441 199.586 97.8904 199.271C98.2366 198.957 98.4542 198.525 98.5015 198.06L98.331 197.42Z" fill="#2D6B67"/>
<path d="M81.4075 196.184C75.8021 190.578 74.6724 177.726 74.6724 169.84C74.6724 169.309 74.4613 168.799 74.0855 168.424C73.7098 168.048 73.2002 167.837 72.6689 167.837C72.1375 167.837 71.628 168.048 71.2522 168.424C70.8765 168.799 70.6654 169.309 70.6654 169.84C70.6654 180.689 72.4771 190.216 81.4075 196.184Z" fill="#2D6B67"/>
<path d="M74.3315 192.561C69.5999 186.423 68.5341 177.642 68.5341 169.841C68.394 169.414 68.1228 169.043 67.7592 168.78C67.3956 168.517 66.9582 168.375 66.5093 168.375C66.0604 168.375 65.6231 168.517 65.2596 168.78C64.896 169.043 64.6248 169.414 64.4846 169.841C64.4846 179.134 66.5733 187.403 74.3315 192.561Z" fill="#2D6B67"/>
<path d="M96.5404 47.2019C101.272 53.3189 102.338 62.1214 102.338 69.9222C102.478 70.3486 102.749 70.7199 103.113 70.9831C103.476 71.2463 103.914 71.388 104.362 71.388C104.811 71.388 105.249 71.2463 105.612 70.9831C105.976 70.7199 106.247 70.3486 106.387 69.9222C105.322 68.8991 108.838 56.1323 96.5404 47.2019Z" fill="#2D6B67"/>
<path d="M96.1572 69.9229C96.1898 70.4657 96.4287 70.9755 96.8249 71.348C97.2212 71.7204 97.7448 71.9273 98.2886 71.9264C98.8199 71.9264 99.3295 71.7153 99.7052 71.3395C100.081 70.9638 100.292 70.4542 100.292 69.9229C100.292 58.989 98.5017 49.5898 89.6353 43.5793C95.0915 49.2061 96.1572 61.9729 96.1572 69.9229Z" fill="#2D6B67"/>
<path d="M72.5415 42.3428C72.8313 42.5705 73.1978 42.6775 73.5645 42.6412C88.9955 42.6412 90.0187 54.7686 90.0187 69.9225C90.0187 70.4539 90.2298 70.9635 90.6055 71.3392C90.9812 71.7149 91.4908 71.926 92.0221 71.926C92.5535 71.926 93.0631 71.7149 93.4388 71.3392C93.8145 70.9635 94.0256 70.4539 94.0256 69.9225C94.0256 57.241 91.8943 42.5346 79.7882 40.3393C77.9373 39.9668 76.0437 39.8521 74.1614 39.9983C73.6935 40.0011 73.2431 40.1768 72.8969 40.4916C72.5507 40.8063 72.3331 41.2379 72.2858 41.7034L72.5415 42.3428Z" fill="#2D6B67"/>
<path d="M102.935 42.4283L104.768 40.4674C102.933 37.5109 100.562 34.9231 97.7772 32.8372L95.9441 36.5457C98.5193 38.1956 100.869 40.173 102.935 42.4283Z" fill="#C93112"/>
<path d="M96.0286 31.5576C92.758 29.5412 89.0686 28.3017 85.2439 27.9343L84.5619 32.197C87.9011 32.7681 91.1257 33.8765 94.1103 35.4793L96.0286 31.5576Z" fill="#C93112"/>
<path d="M82.4309 31.9416L83.113 27.8067C79.7324 27.7536 76.3693 28.3021 73.1808 29.4266L73.4792 32.6236C76.3913 31.8217 79.431 31.5902 82.4309 31.9416Z" fill="#C93112"/>
<path d="M101.486 44.0046C94.7079 36.3531 83.6675 31.9838 73.6501 34.7546L73.9486 38.0369H74.7158C74.9677 37.9735 75.2243 37.9308 75.4831 37.909H75.6536C75.6536 37.909 76.1012 37.909 76.6766 37.909C84.9637 38.3018 92.9467 41.1507 99.61 46.0934L101.486 44.0046Z" fill="#CBBD9F"/>
<path d="M120.88 121.799C121.307 121.799 121.648 121.799 122.031 121.799V85.481H117.769V137.23C118.749 138.935 122.031 140.619 122.031 143.241C122.031 143.603 121.959 143.961 121.819 144.295C121.68 144.628 121.475 144.931 121.217 145.185C120.959 145.439 120.653 145.639 120.317 145.774C119.982 145.908 119.622 145.974 119.26 145.969C118.365 145.969 118.514 145.841 117.854 145.67V172.824H122.116V135.12H120.966C120.683 135.12 120.412 135.008 120.212 134.808C120.012 134.608 119.9 134.337 119.9 134.055C119.9 133.772 120.012 133.501 120.212 133.301C120.412 133.101 120.683 132.989 120.966 132.989H122.116V131.305H120.966C120.683 131.305 120.412 131.193 120.212 130.993C120.012 130.793 119.9 130.522 119.9 130.239C119.9 129.957 120.012 129.686 120.212 129.486C120.412 129.286 120.683 129.174 120.966 129.174H122.116V127.575H120.966C120.683 127.575 120.412 127.463 120.212 127.263C120.012 127.063 119.9 126.792 119.9 126.51C119.9 126.227 120.012 125.956 120.212 125.756C120.412 125.556 120.683 125.444 120.966 125.444H122.116V124.016C121.733 124.016 121.413 124.016 120.966 124.016C120.672 124.027 120.385 123.921 120.169 123.721C119.953 123.522 119.826 123.244 119.815 122.95C119.803 122.656 119.909 122.37 120.109 122.154C120.309 121.938 120.586 121.811 120.88 121.799Z" fill="#CBBD9F"/>
<path d="M48.8407 104.642H49.9916C50.2742 104.642 50.5453 104.755 50.7452 104.955C50.945 105.154 51.0573 105.425 51.0573 105.708C51.0467 105.987 50.9311 106.252 50.7335 106.45C50.5359 106.648 50.2709 106.763 49.9916 106.774H48.8407V108.458H49.9916C50.2742 108.458 50.5453 108.57 50.7452 108.77C50.945 108.969 51.0573 109.241 51.0573 109.523C51.0573 109.806 50.945 110.077 50.7452 110.277C50.5453 110.477 50.2742 110.589 49.9916 110.589H48.8407V112.187H49.9916C50.2742 112.187 50.5453 112.3 50.7452 112.5C50.945 112.699 51.0573 112.97 51.0573 113.253C51.0573 113.536 50.945 113.807 50.7452 114.007C50.5453 114.206 50.2742 114.319 49.9916 114.319H48.8407V115.747C49.2243 115.747 49.544 115.747 49.9916 115.747C50.2725 115.752 50.5405 115.866 50.7392 116.065C50.9379 116.264 51.0518 116.532 51.0573 116.812C51.0467 117.092 50.9311 117.357 50.7335 117.554C50.5359 117.752 50.2709 117.868 49.9916 117.878C49.5653 117.878 49.2243 117.878 48.8407 117.878V154.282H53.1034V102.532C52.123 100.827 48.8407 99.2075 48.8407 96.5219C48.8377 96.1593 48.9078 95.7997 49.0465 95.4645C49.1852 95.1294 49.3898 94.8256 49.6483 94.5711C49.9067 94.3166 50.2137 94.1166 50.551 93.9831C50.8882 93.8496 51.2488 93.7852 51.6114 93.7938C52.464 93.7938 52.3149 93.9217 53.0182 94.0922V66.9387H48.7555L48.8407 104.642Z" fill="#CBBD9F"/>
<path d="M77.3796 53.0418C77.3796 53.8304 77.3796 53.8304 77.3796 54.6403C77.3796 54.9229 77.2673 55.1939 77.0674 55.3938C76.8676 55.5937 76.5966 55.7059 76.314 55.7059C76.175 55.7088 76.0369 55.6839 75.9077 55.6326C75.7785 55.5814 75.6609 55.5049 75.5617 55.4077C75.4624 55.3104 75.3835 55.1943 75.3297 55.0662C75.2759 54.9381 75.2483 54.8005 75.2483 54.6615C75.2483 53.8516 75.2483 53.8516 75.2483 53.063C75.2455 52.9231 75.2702 52.7839 75.3211 52.6536C75.3721 52.5232 75.4483 52.4041 75.5453 52.3032C75.6423 52.2022 75.7581 52.1214 75.8864 52.0653C76.0146 52.0091 76.1527 51.9788 76.2926 51.9761C76.5773 51.976 76.8505 52.0876 77.0538 52.2869C77.257 52.4861 77.3741 52.7572 77.3796 53.0418ZM78.2109 90.1486L77.6567 88.0172L75.5254 88.5714L76.1008 90.7028L78.2109 90.1486ZM103.318 102.83L102.466 100.869L100.526 101.722L101.357 103.683L103.318 102.83ZM84.136 87.4844H82.0047V89.6158H84.136V87.4844ZM96.029 92.3439L94.324 91.0438L93.0451 92.7489L94.7289 94.0277L96.029 92.3439ZM100.292 97.1608C99.5031 96.1377 99.8015 96.5427 98.9916 95.4557L97.2864 96.7558L98.5867 98.4609L100.292 97.1608ZM90.4022 88.9764L88.3987 88.2517L87.6953 90.2765L89.6988 90.9799L90.4022 88.9764ZM102.743 109.437L104.874 109.075L104.512 106.944L102.38 107.327L102.743 109.437ZM94.6649 187.786C94.8049 187.783 94.9429 187.753 95.0712 187.697C95.1994 187.641 95.3153 187.56 95.4123 187.459C95.5092 187.358 95.5854 187.239 95.6364 187.109C95.6874 186.978 95.7121 186.839 95.7093 186.699V185.101C95.7065 184.961 95.6761 184.823 95.62 184.694C95.5639 184.566 95.483 184.45 95.3821 184.353C95.2811 184.256 95.1621 184.18 95.0318 184.129C94.9014 184.078 94.7622 184.053 94.6222 184.056C94.4833 184.056 94.3458 184.084 94.2177 184.138C94.0896 184.191 93.9734 184.27 93.8762 184.37C93.7789 184.469 93.7025 184.586 93.6513 184.716C93.6001 184.845 93.5751 184.983 93.5779 185.122V186.72C93.5835 187.005 93.7005 187.276 93.9038 187.475C94.107 187.674 94.3803 187.786 94.6649 187.786ZM140.489 175.403C139.385 177.38 138.031 179.206 136.461 180.838H134.948L129.896 175.467C129.427 173.911 129.726 175.19 129.726 172.952C129.726 169.606 128.639 166.728 125.314 166.238V173.89L124.248 174.955H117.854L116.788 173.89V166.259C115.239 166.527 113.777 167.163 112.526 168.114C112.404 168.205 112.264 168.268 112.115 168.299C111.966 168.331 111.812 168.329 111.663 168.294C111.515 168.26 111.376 168.193 111.257 168.1C111.137 168.006 111.039 167.887 110.97 167.751C109.882 165.639 109.314 163.297 109.314 160.92C109.314 158.544 109.882 156.202 110.97 154.089C111.105 153.84 111.333 153.655 111.603 153.571C111.874 153.487 112.167 153.513 112.419 153.642C113.724 154.642 115.253 155.308 116.874 155.581V144.924C115.709 144.387 114.637 143.668 113.698 142.793C105.663 150.487 91.5318 159.29 95.7519 164.298C97.8833 164.298 100.015 164.917 100.654 167.091C101.08 168.732 100.398 170.479 101.272 171.098C101.409 171.196 101.52 171.326 101.596 171.476C101.673 171.626 101.713 171.792 101.713 171.961C101.713 172.129 101.673 172.295 101.596 172.445C101.52 172.595 101.409 172.725 101.272 172.824C101.85 172.958 102.404 173.181 102.913 173.485C103.034 173.583 103.131 173.706 103.197 173.846C103.264 173.986 103.298 174.139 103.298 174.295C103.298 174.45 103.264 174.603 103.197 174.743C103.131 174.883 103.034 175.007 102.913 175.104C102.504 175.35 102.189 175.725 102.018 176.17C101.802 176.705 101.693 177.277 101.698 177.854L103.595 178.408L104.171 180.028C102.699 181.825 101.513 183.838 100.654 185.996C99.7375 188.766 103.19 190.024 100.206 195.31C100.658 195.525 101.054 195.843 101.361 196.239C101.667 196.634 101.877 197.096 101.972 197.588C102.067 198.079 102.046 198.586 101.91 199.068C101.773 199.55 101.526 199.993 101.187 200.361L101.315 200.489L102.231 210.997L101.528 212.084C95.1482 214.709 88.0269 214.904 81.5137 212.629C75.0005 210.354 69.5481 205.769 66.19 199.743L66.3392 198.464L71.9659 192.411C65.3374 186.529 63.675 178.685 63.675 169.819C63.64 168.69 64.0539 167.594 64.8259 166.771C59.8794 164.481 55.6393 160.903 52.5493 156.413H46.7094L45.6437 155.347V117.75C43.2353 117.259 41.381 116.13 41.381 113.657C41.37 113.156 41.4797 112.659 41.7008 112.208C41.1806 111.641 40.8497 110.926 40.7543 110.162C40.6588 109.398 40.8034 108.623 41.1679 107.945C40.8468 107.362 40.6927 106.701 40.7228 106.035C40.7529 105.37 40.9658 104.725 41.3383 104.173C40.4219 102.042 41.8712 99.6118 45.6011 99.2069V84.2874C44.5573 84.405 43.5862 84.8793 42.8517 85.6301C41.66 87.1573 41.0686 89.0679 41.1891 91.0012C41.1778 91.5432 41.2135 92.0851 41.2958 92.621L41.0187 93.5162L35.9886 98.8872H34.4541C32.8916 97.2492 31.5384 95.4236 30.4258 93.4522C27.8045 89.0684 26.4203 84.0561 26.4203 78.9484C26.4203 73.8406 27.8045 68.8283 30.4258 64.4445C31.5384 62.4731 32.8916 60.6475 34.4541 59.0095H35.9886L41.0187 64.3805C41.3384 65.4036 41.2958 65.2331 41.2745 65.361C40.9296 67.5661 41.3509 69.8228 42.468 71.7551C42.8374 72.2546 43.3068 72.6717 43.8462 72.98C44.3856 73.2882 44.9832 73.4808 45.6011 73.5454V65.8938L46.6667 64.8281H53.0608L54.1265 65.8938V73.5241C55.6779 73.2649 57.1418 72.6281 58.3892 71.6698C58.5111 71.5787 58.6515 71.5153 58.8004 71.4841C58.9493 71.4529 59.1032 71.4546 59.2514 71.4891C59.3996 71.5236 59.5385 71.5901 59.6583 71.6839C59.7781 71.7777 59.8761 71.8965 59.9452 72.0321C61.0332 74.1447 61.6008 76.4867 61.6008 78.8631C61.6008 81.2395 61.0332 83.5814 59.9452 85.6941C59.792 85.8997 59.5711 86.0445 59.3215 86.103C59.0719 86.1615 58.8096 86.1299 58.5811 86.0138C57.2648 85.0202 55.7302 84.3553 54.1051 84.0743V94.7311C55.2701 95.2684 56.3423 95.9879 57.281 96.8624C65.3375 89.1469 79.447 80.3657 75.227 75.357C73.0956 75.357 70.9643 74.7389 70.3249 72.5649C69.8986 70.9451 70.5805 69.1761 69.7067 68.558C69.566 68.4622 69.4509 68.3335 69.3713 68.183C69.2918 68.0326 69.2502 67.865 69.2502 67.6948C69.2502 67.5246 69.2918 67.357 69.3713 67.2065C69.4509 67.0561 69.566 66.9274 69.7067 66.8316C69.121 66.701 68.5598 66.478 68.0443 66.1708C67.9165 66.0614 67.8171 65.9227 67.7545 65.7665C67.6918 65.6103 67.6679 65.4413 67.6846 65.2738C67.7014 65.1064 67.7583 64.9455 67.8506 64.8048C67.9429 64.6641 68.0679 64.5478 68.2148 64.4658C68.5943 64.1397 68.8908 63.7281 69.0798 63.2648C69.2688 62.8016 69.3448 62.3001 69.3017 61.8016L67.4049 61.2474L66.8294 59.6276C68.3107 57.8336 69.5042 55.8203 70.3674 53.6598C71.2839 50.8677 67.8098 49.6529 70.7937 44.3458C70.3398 44.1322 69.9431 43.8142 69.6358 43.4177C69.3285 43.0212 69.1195 42.5576 69.0259 42.0648C68.9324 41.572 68.9569 41.0639 69.0975 40.5824C69.238 40.1009 69.4906 39.6596 69.8346 39.2945L69.6855 39.1666L68.7689 28.659L69.4723 27.572C84.0507 22.2436 97.6275 27.7425 104.81 39.9126L104.682 41.1914L99.1407 47.4149C105.748 53.2975 107.41 61.1409 107.41 70.0073C107.41 70.5859 107.289 71.158 107.054 71.6866C106.819 72.2153 106.476 72.6888 106.046 73.0765C110.991 75.3591 115.232 78.9295 118.323 83.4136H124.142L125.207 84.4793V122.183C127.616 122.673 129.47 123.803 129.47 126.275C129.474 126.779 129.357 127.275 129.129 127.724C129.652 128.29 129.985 129.006 130.08 129.77C130.176 130.535 130.029 131.31 129.662 131.987C129.985 132.57 130.141 133.231 130.111 133.898C130.08 134.564 129.866 135.208 129.491 135.76C130.408 137.891 128.937 140.321 125.229 140.726V155.645C126.277 155.524 127.254 155.051 127.999 154.302C129.175 152.768 129.757 150.861 129.64 148.931C129.687 148.393 129.687 147.851 129.64 147.312L129.917 146.416L134.969 141.045H136.482C138.052 142.677 139.406 144.504 140.51 146.48C143.096 150.866 144.449 155.868 144.427 160.959C144.404 166.05 143.007 171.04 140.383 175.403H140.489ZM54.1692 77.7868H59.5615C59.4525 76.5215 59.158 75.2791 58.6876 74.0995C57.3108 74.9407 55.7704 75.4785 54.1692 75.6767V77.7868ZM54.1692 82.0495C55.7735 82.2344 57.3167 82.7731 58.6876 83.6267C59.1603 82.4404 59.4549 81.1907 59.5615 79.9181H54.1692V82.0495ZM116.682 161.975H111.311C111.413 163.24 111.7 164.482 112.163 165.663C113.542 164.824 115.081 164.287 116.682 164.085V161.975ZM116.682 157.713C115.078 157.528 113.534 156.989 112.163 156.135C111.698 157.323 111.41 158.572 111.311 159.844H116.682V157.713ZM125.207 157.713V159.844H135.161C133.349 156.86 133.988 151.745 131.644 147.461C132.155 152.533 130.323 157.158 125.207 157.734V157.713ZM95.3683 47.0953C100.185 53.3828 101.208 62.0147 101.208 69.9221C101.239 70.4469 101.463 70.9419 101.837 71.3117C102.211 71.6815 102.708 71.9002 103.233 71.9255C103.761 71.9256 104.267 71.7174 104.642 71.3463C105.017 70.9751 105.231 70.471 105.236 69.9434C105.315 65.5514 104.652 61.1776 103.276 57.006C101.734 52.9787 98.9877 49.5251 95.4108 47.1165L95.3683 47.0953ZM77.2518 80.8133C81.1948 79.3853 84.6902 78.6819 86.1395 74.5897C86.4045 73.7869 86.5831 72.9581 86.6723 72.1174C83.9213 73.7641 80.8718 74.8506 77.6993 75.3144C78.0808 76.1992 78.2433 77.1631 78.1728 78.1241C78.1023 79.0851 77.8009 80.0149 77.2943 80.8346L77.2518 80.8133ZM82.9851 80.9199C86.7579 81.0327 90.4677 81.9151 93.8872 83.5131C97.3067 85.1111 100.364 87.3908 102.871 90.2125C106.756 94.2563 109.094 99.5376 109.478 105.132C113.378 94.8163 110.927 82.902 100.036 72.9059C96.2293 72.4993 92.3825 72.6863 88.6331 73.4601C88.4106 75.0804 87.7793 76.6173 86.7986 77.9261C85.818 79.2349 84.5202 80.2725 83.0277 80.9412L82.9851 80.9199ZM72.7758 39.9765C71.4118 40.2323 70.8789 41.5537 71.3052 42.1079C71.458 42.2609 71.6415 42.3798 71.8435 42.457C72.0455 42.5341 72.2617 42.5677 72.4776 42.5555C83.6032 42.5555 87.6315 48.9495 88.5906 59.6063C88.889 62.8033 88.9102 66.2561 88.9102 69.8581C88.9117 70.1204 88.9652 70.3798 89.0676 70.6213C89.1701 70.8627 89.3195 71.0815 89.5071 71.2648C89.786 71.5483 90.143 71.7424 90.5327 71.8222C90.9223 71.9021 91.327 71.8642 91.695 71.7134C92.063 71.5625 92.3778 71.3055 92.5993 70.9751C92.8207 70.6447 92.9388 70.2559 92.9385 69.8581C92.9811 53.3614 89.2726 38.8895 72.8185 39.9978L72.7758 39.9765ZM95.0699 69.9221C95.0696 70.3198 95.1877 70.7087 95.4091 71.0391C95.6306 71.3694 95.9454 71.6264 96.3134 71.7773C96.6814 71.9282 97.0861 71.9661 97.4757 71.8862C97.8654 71.8063 98.2223 71.6123 98.5013 71.3288C98.686 71.1444 98.8321 70.925 98.9309 70.6835C99.0297 70.4419 99.0794 70.183 99.0768 69.9221C99.2104 64.7736 98.4902 59.6386 96.9455 54.7255C95.4882 50.1249 92.4736 46.1759 88.4201 43.5572C94.1108 50.1218 95.1125 61.3114 95.1125 69.9434L95.0699 69.9221ZM99.3326 43.9622C91.9368 35.6286 80.6619 32.1757 71.4971 34.6907L71.7742 37.9304H72.5841C72.881 37.8878 73.1824 37.8878 73.4792 37.9304C82.1363 38.0339 90.5351 40.8933 97.457 46.0935L99.3326 43.9622ZM95.6454 32.7725L93.8123 36.545C96.3975 38.1557 98.7436 40.1216 100.782 42.385L102.615 40.4241C100.793 37.4713 98.4363 34.8838 95.6666 32.7938L95.6454 32.7725ZM82.4096 32.1544C85.7531 32.7322 88.9789 33.8554 91.958 35.4793L93.8763 31.5576C90.6576 29.5198 87.0094 28.2576 83.2195 27.8704L82.4096 32.1544ZM71.0281 29.405L71.3052 32.5381C74.2424 31.7987 77.2858 31.5751 80.2996 31.8774L80.9603 27.7638C77.5853 27.7389 74.2316 28.3015 71.0495 29.4263L71.0281 29.405ZM86.8002 69.5171C86.8623 65.917 86.7199 62.3164 86.3739 58.7324C85.3722 49.8873 82.1113 45.0065 73.1383 44.7721L72.7333 45.4541C72.4956 46.0648 72.4437 46.7322 72.5841 47.3723C73.1809 48.6085 78.4879 47.0313 80.9176 50.0791C81.0919 50.3 81.1718 50.5808 81.1398 50.8602C81.1079 51.1397 80.9667 51.3953 80.7471 51.5711C80.6402 51.6613 80.5164 51.7291 80.3829 51.7705C80.2493 51.812 80.1087 51.8261 79.9696 51.8122C79.8304 51.7983 79.6955 51.7565 79.5728 51.6895C79.4501 51.6224 79.3421 51.5315 79.2552 51.4219C77.742 49.525 74.0548 50.612 71.9447 49.5676C72.7003 51.0638 72.8822 52.7847 72.4562 54.4058C71.759 56.3219 70.7587 58.1137 69.4936 59.7128C70.478 59.9488 71.4462 60.2478 72.3922 60.608C72.5627 60.7146 72.2431 60.3949 77.2304 65.4036C77.3324 65.4993 77.4136 65.6148 77.4691 65.7431C77.5247 65.8714 77.5533 66.0098 77.5533 66.1496C77.5533 66.2894 77.5247 66.4277 77.4691 66.556C77.4136 66.6843 77.3324 66.7999 77.2304 66.8956C77.1314 66.9955 77.0135 67.0747 76.8836 67.1288C76.7538 67.1829 76.6145 67.2108 76.4738 67.2108C76.3332 67.2108 76.1938 67.1829 76.0639 67.1288C75.9341 67.0747 75.8162 66.9955 75.7171 66.8956L71.4544 62.6329C71.3866 63.4511 71.1392 64.2443 70.7298 64.956C71.1866 65.0405 71.6509 65.0762 72.1151 65.0626C72.2558 65.0568 72.3962 65.0796 72.5279 65.1295C72.6596 65.1794 72.7798 65.2554 72.8813 65.353C72.9829 65.4505 73.0636 65.5676 73.1188 65.6972C73.1739 65.8268 73.2023 65.9661 73.2021 66.1069C73.2079 66.386 73.104 66.6562 72.9127 66.8595C72.7214 67.0627 72.458 67.1828 72.1791 67.1939C70.9003 67.1939 71.22 66.9168 71.7315 67.6415C73.0103 69.4745 71.7315 71.9043 72.8398 72.7568C73.7491 73.1902 74.755 73.3811 75.7598 73.3109C79.7291 73.1223 83.5641 71.8145 86.8215 69.5384L86.8002 69.5171ZM73.3514 96.6066C76.3481 94.4122 80.0558 93.4145 83.7491 93.8087C87.4425 94.2029 90.856 95.9605 93.3221 98.738C97.7404 103.776 100.292 110.18 100.547 116.876C103.378 114.857 105.734 112.246 107.453 109.224C107.743 106.015 107.342 102.781 106.275 99.7404C105.209 96.6996 103.503 93.9231 101.272 91.598C98.5421 88.4904 95.0992 86.0913 91.2385 84.6065C87.3779 83.1216 83.2148 82.5953 79.106 83.0726C77.2897 83.2256 75.5465 83.8581 74.0547 84.9055C71.4971 87.7402 72.4136 92.9407 73.3514 96.6066ZM98.4375 118.069C98.4391 111.473 96.0544 105.099 91.7236 100.123C90.5945 98.858 89.2249 97.8299 87.6947 97.0988C86.1644 96.3677 84.504 95.9483 82.8102 95.865C81.1163 95.7817 79.4228 96.0361 77.8282 96.6135C76.2336 97.1909 74.7698 98.0797 73.5219 99.2282L74.9712 106.517C75.4646 108.998 76.5224 111.331 78.0627 113.337C79.603 115.343 81.5844 116.968 83.8535 118.085C86.1225 119.202 88.6182 119.781 91.1472 119.779C93.6763 119.776 96.1708 119.191 98.4375 118.069ZM72.4136 121.693C72.4119 128.289 74.7966 134.663 79.1274 139.639C80.2565 140.904 81.6261 141.932 83.1563 142.663C84.6866 143.394 86.347 143.814 88.0408 143.897C89.7347 143.98 91.4282 143.726 93.0228 143.149C94.6174 142.571 96.0812 141.682 97.3291 140.534L95.8798 133.245C95.3864 130.764 94.3286 128.431 92.7883 126.425C91.248 124.419 89.2666 122.794 86.9975 121.677C84.7285 120.561 82.2328 119.981 79.7038 119.983C77.1747 119.986 74.6802 120.571 72.4136 121.693ZM58.8155 98.5675C60.7061 100.954 62.1961 103.632 63.2274 106.496L71.561 98.1839C70.5725 95.103 70.1677 91.8647 70.3674 88.6354C66.6588 91.8537 62.1617 95.3065 58.8155 98.5675ZM39.2497 65.4249C36.9478 69.6876 37.5019 74.8881 35.7542 77.7868H45.6437V75.6554C40.5072 75.1226 38.6955 70.4762 39.2497 65.4249ZM37.7364 93.9424C34.4327 88.5714 35.605 81.5593 33.1113 80.1952C32.7133 80.0021 32.2749 79.9071 31.8326 79.9181C31.5499 79.9181 31.2788 79.8058 31.079 79.606C30.8791 79.4061 30.7669 79.1351 30.7669 78.8524C30.7669 78.5698 30.8791 78.2988 31.079 78.0989C31.2788 77.8991 31.5499 77.7868 31.8326 77.7868C32.3618 77.8309 32.8898 77.6891 33.3256 77.3856C33.7614 77.0821 34.0776 76.636 34.2197 76.1243C35.3706 73.3535 35.0508 68.153 37.7364 63.7837L35.3492 61.2474C31.052 66.1093 28.6802 72.3743 28.6802 78.8631C28.6802 85.3519 31.052 91.6169 35.3492 96.4787L37.7364 93.9424ZM45.7289 82.0281V79.8968H35.7542C37.5445 82.8807 36.9265 87.9959 39.2497 92.28C38.6955 87.2713 40.5072 82.6036 45.6437 82.0281H45.7289ZM52.123 102.532C51.1639 100.955 49.1604 99.9529 48.2653 97.9494C48.0006 97.5224 47.856 97.032 47.8468 96.5297C47.8375 96.0275 47.9638 95.5319 48.2126 95.0955C48.4613 94.6591 48.8233 94.2979 49.2602 94.0499C49.6971 93.802 50.1928 93.6765 50.695 93.6867C51.1784 93.7105 51.6574 93.7892 52.123 93.9211V66.9595H47.8603V102.83C47.8603 103.113 47.7481 103.384 47.5482 103.584C47.3484 103.784 47.0772 103.896 46.7946 103.896C46.512 103.896 46.241 103.784 46.0411 103.584C45.8413 103.384 45.7289 103.113 45.7289 102.83V101.36C45.277 101.38 44.8342 101.493 44.4274 101.691C44.0206 101.889 43.6585 102.168 43.3632 102.511C43.0008 103.107 43.3631 103.661 44.0025 104.045C44.2774 104.192 44.5716 104.3 44.8765 104.365C46.2283 104.655 47.6074 104.798 48.99 104.791C49.2726 104.791 49.5436 104.903 49.7434 105.103C49.9433 105.303 50.0557 105.574 50.0557 105.857C50.0557 106.139 49.9433 106.41 49.7434 106.61C49.5436 106.81 49.2726 106.922 48.99 106.922C46.912 107.01 44.8397 106.646 42.9155 105.857C42.8552 106.263 42.9285 106.679 43.1246 107.04C43.3206 107.401 43.6287 107.689 44.0025 107.86C44.2774 108.007 44.5716 108.115 44.8765 108.18C46.2291 108.467 47.6072 108.617 48.99 108.627C49.2726 108.627 49.5436 108.74 49.7434 108.94C49.9433 109.139 50.0557 109.411 50.0557 109.693C50.0557 109.976 49.9433 110.247 49.7434 110.447C49.5436 110.647 49.2726 110.759 48.99 110.759C47.4278 110.747 45.871 110.575 44.3436 110.247C42.9156 109.885 42.873 109.544 42.873 109.715C42.91 110.063 43.0325 110.397 43.2296 110.687C43.4266 110.977 43.692 111.214 44.0025 111.377C45.5921 112.003 47.2819 112.335 48.99 112.357C49.2726 112.357 49.5436 112.47 49.7434 112.67C49.9433 112.869 50.0557 113.14 50.0557 113.423C50.0557 113.706 49.9433 113.977 49.7434 114.177C49.5436 114.376 49.2726 114.489 48.99 114.489C47.123 114.443 45.2747 114.105 43.5124 113.487C43.4762 113.835 43.5508 114.186 43.7255 114.489C44.0561 114.895 44.5019 115.192 45.0043 115.341C46.285 115.749 47.6254 115.936 48.9686 115.895C49.2513 115.895 49.5224 116.008 49.7222 116.208C49.9221 116.407 50.0343 116.678 50.0343 116.961C50.0343 117.244 49.9221 117.515 49.7222 117.715C49.5224 117.914 49.2513 118.027 48.9686 118.027H47.7751V154.366H52.0378L52.123 102.532ZM54.0413 101.573C54.1783 101.758 54.2529 101.982 54.2544 102.212V115.618L61.6716 108.201C59.7747 102.873 56.3644 96.7772 50.7802 95.9886C50.6143 95.9885 50.4549 96.0529 50.3356 96.1682C50.2163 96.2836 50.1464 96.4408 50.1409 96.6066C50.2268 97.0875 50.4403 97.5366 50.759 97.9068C51.922 99.0404 52.9912 100.266 53.9561 101.573H54.0413ZM65.9129 164.874C60.6712 159.208 57.6974 151.811 57.5581 144.093C57.5581 131.305 66.7868 117.941 79.6175 117.856C77.6707 116.294 76.055 114.36 74.8647 112.166C73.1809 109.054 72.9678 106.922 71.7955 101.019L54.1692 118.538V155.006C57.0735 159.305 61.1076 162.72 65.8276 164.874H65.9129ZM93.6206 158.928C89.7415 160.334 86.1608 161.059 84.7115 165.151C84.4465 165.954 84.2679 166.783 84.1787 167.623C86.9371 165.976 89.9936 164.89 93.1729 164.426C92.7915 163.545 92.629 162.585 92.6995 161.627C92.7701 160.67 93.0714 159.743 93.5779 158.928H93.6206ZM87.8659 158.821C84.0931 158.708 80.3831 157.826 76.9636 156.228C73.5441 154.63 70.4872 152.35 67.9803 149.528C64.0953 145.484 61.7565 140.203 61.3731 134.609C57.4941 144.924 59.9238 156.839 70.8364 166.835C71.2297 166.43 71.7026 166.11 72.2254 165.897C72.7483 165.683 73.3096 165.58 73.8742 165.594C74.4387 165.608 74.9943 165.739 75.5059 165.978C76.0174 166.217 76.474 166.56 76.8468 166.984C77.5218 166.262 78.4264 165.798 79.4062 165.669C80.3859 165.541 81.3797 165.757 82.2177 166.281C82.4456 164.665 83.0793 163.133 84.0595 161.829C85.0398 160.524 86.3346 159.489 87.8232 158.821H87.8659ZM98.075 199.764C99.4391 199.509 99.9719 198.208 99.5457 197.633C99.3963 197.475 99.2134 197.353 99.0105 197.276C98.8076 197.198 98.5899 197.167 98.3735 197.185C87.2478 197.185 83.2195 190.791 82.2604 180.134C81.9833 176.937 81.9408 173.485 81.9408 169.883C81.9443 169.62 81.893 169.359 81.7903 169.117C81.6875 168.874 81.5355 168.656 81.3439 168.476C81.065 168.192 80.708 167.998 80.3183 167.919C79.9287 167.839 79.524 167.877 79.156 168.027C78.788 168.178 78.4732 168.435 78.2518 168.766C78.0303 169.096 77.9122 169.485 77.9125 169.883C77.8699 186.315 81.5358 200.873 98.0325 199.764H98.075ZM75.7811 169.819C75.7811 169.287 75.57 168.778 75.1943 168.402C74.8186 168.026 74.309 167.815 73.7776 167.815C73.2463 167.815 72.7367 168.026 72.361 168.402C71.9853 168.778 71.7742 169.287 71.7742 169.819C71.7742 178.451 72.989 187.637 79.2339 193.647C80.2349 194.58 81.3113 195.428 82.4523 196.184C76.7616 189.662 75.7385 178.472 75.7385 169.819H75.7811ZM75.4827 192.646C70.6872 186.358 69.6428 177.726 69.6428 169.819C69.5915 169.32 69.3571 168.859 68.9851 168.523C68.6131 168.187 68.1298 168.001 67.6287 168.001C67.1276 168.001 66.6443 168.187 66.2722 168.523C65.9002 168.859 65.6659 169.32 65.6145 169.819C65.549 174.21 66.2115 178.582 67.5753 182.756C69.128 186.789 71.89 190.244 75.4827 192.646ZM71.5398 195.779C78.9356 204.112 90.2103 207.565 99.3965 205.05L99.0982 201.789H98.2882C97.9914 201.832 97.69 201.832 97.3931 201.789C88.73 201.727 80.3107 198.913 73.3514 193.754L71.5398 195.779ZM75.227 206.968L77.0599 203.196C74.4788 201.579 72.1334 199.614 70.0903 197.356L68.2574 199.317C70.0712 202.275 72.4202 204.87 75.1843 206.968H75.227ZM88.4627 207.586C85.1185 207.012 81.8921 205.888 78.9142 204.261L76.996 208.183C80.2148 210.221 83.8629 211.483 87.6528 211.87L88.4627 207.586ZM99.8441 210.336L99.567 207.203C96.6385 207.951 93.6006 208.175 90.5941 207.863L89.912 211.977C93.2788 212.008 96.6251 211.453 99.8014 210.336H99.8441ZM84.0081 170.224C83.9567 173.824 84.099 177.424 84.4344 181.008C85.4362 189.853 88.6971 194.734 97.6701 194.969C97.8193 194.734 97.9685 194.5 98.075 194.287C98.3092 193.676 98.3683 193.011 98.2456 192.368C97.6275 191.132 92.3418 192.709 89.912 189.662C89.8218 189.555 89.754 189.431 89.7126 189.297C89.6712 189.164 89.6569 189.023 89.6708 188.884C89.6848 188.745 89.7265 188.61 89.7935 188.487C89.8606 188.365 89.9517 188.257 90.0612 188.17C90.2829 187.992 90.5654 187.908 90.8483 187.936C91.1311 187.964 91.3918 188.101 91.5744 188.319C93.0877 190.216 96.7323 189.129 98.885 190.173C98.1176 188.681 97.9352 186.955 98.3735 185.335C99.0548 183.416 100.049 181.623 101.315 180.028C100.332 179.786 99.3641 179.487 98.4161 179.133C98.2456 179.026 98.4161 179.239 93.5779 174.337C93.3826 174.138 93.2732 173.87 93.2732 173.591C93.2732 173.312 93.3826 173.044 93.5779 172.845C93.677 172.745 93.7948 172.666 93.9247 172.612C94.0546 172.558 94.1938 172.53 94.3345 172.53C94.4752 172.53 94.6145 172.558 94.7444 172.612C94.8743 172.666 94.9921 172.745 95.0912 172.845L99.3539 177.108C99.4251 176.29 99.6723 175.498 100.079 174.785C99.622 174.699 99.1575 174.663 98.6932 174.678C98.4106 174.678 98.1395 174.566 97.9396 174.366C97.7398 174.166 97.6275 173.895 97.6275 173.613C97.6275 173.33 97.7398 173.059 97.9396 172.859C98.1395 172.659 98.4106 172.547 98.6932 172.547C99.9507 172.547 99.631 172.824 99.1195 172.099C97.8407 170.266 99.1195 167.837 98.0112 166.984C97.1089 166.552 96.1104 166.361 95.1125 166.43C91.1277 166.624 87.2785 167.939 84.0081 170.224ZM97.4996 143.155C94.5012 145.356 90.789 146.357 87.0907 145.963C83.3924 145.569 79.9746 143.807 77.5075 141.024C73.0955 135.984 70.5518 129.58 70.3035 122.886C67.4603 124.874 65.0824 127.456 63.334 130.453C63.0479 133.661 63.4516 136.894 64.5176 139.934C65.5837 142.974 67.2875 145.751 69.5149 148.079C72.2449 151.186 75.6878 153.586 79.5485 155.07C83.4091 156.555 87.5722 157.082 91.681 156.604C93.4973 156.451 95.2405 155.819 96.7323 154.771C99.3751 152.022 98.4375 146.821 97.521 143.155H97.4996ZM99.1407 138.744L116.661 121.224V84.7563C113.759 80.4629 109.733 77.0493 105.023 74.8882C110.252 80.5609 113.217 87.9552 113.357 95.6689C113.357 108.457 104.107 121.821 91.2973 121.906C93.2441 123.468 94.86 125.403 96.0503 127.597C97.7554 130.687 97.9472 132.669 99.162 138.744H99.1407ZM111.929 141.237C110.038 138.851 108.548 136.173 107.517 133.309L99.2047 141.621C100.174 144.706 100.578 147.941 100.398 151.169C104.192 147.908 108.689 144.456 112.036 141.195L111.929 141.237ZM120.049 143.859C120.215 143.859 120.375 143.794 120.494 143.679C120.613 143.564 120.683 143.407 120.689 143.241C120.613 142.757 120.398 142.305 120.071 141.941C118.852 140.786 117.733 139.531 116.724 138.189C116.572 138.011 116.489 137.784 116.49 137.55V124.144L109.094 131.561C111.162 136.932 114.572 143.07 120.241 143.859H120.049ZM125.101 137.038V138.509C125.553 138.491 125.997 138.379 126.404 138.181C126.811 137.983 127.173 137.703 127.467 137.358C127.829 136.761 127.467 136.207 126.827 135.824C126.559 135.679 126.272 135.572 125.975 135.504C124.615 135.215 123.229 135.072 121.84 135.078C121.557 135.078 121.286 134.965 121.086 134.765C120.886 134.566 120.774 134.295 120.774 134.012C120.774 133.729 120.886 133.458 121.086 133.258C121.286 133.059 121.557 132.946 121.84 132.946C123.917 132.863 125.989 133.226 127.914 134.012C127.974 133.605 127.901 133.19 127.705 132.829C127.509 132.467 127.201 132.18 126.827 132.008C126.559 131.864 126.272 131.757 125.975 131.689C124.616 131.392 123.23 131.242 121.84 131.241C121.557 131.241 121.286 131.129 121.086 130.929C120.886 130.729 120.774 130.458 120.774 130.175C120.779 129.895 120.894 129.627 121.092 129.428C121.291 129.229 121.559 129.115 121.84 129.11C123.402 129.121 124.959 129.292 126.486 129.621C127.914 129.984 127.957 130.303 127.957 130.154C127.92 129.806 127.797 129.471 127.6 129.181C127.403 128.891 127.138 128.655 126.827 128.492C125.238 127.866 123.548 127.534 121.84 127.511C121.557 127.511 121.286 127.399 121.086 127.199C120.886 126.999 120.774 126.728 120.774 126.446C120.779 126.165 120.894 125.897 121.092 125.698C121.291 125.499 121.559 125.385 121.84 125.38C123.699 125.419 125.54 125.75 127.296 126.36C127.327 126.015 127.26 125.668 127.104 125.359C126.758 124.96 126.308 124.665 125.804 124.506C124.523 124.099 123.183 123.911 121.84 123.952C121.557 123.952 121.286 123.84 121.086 123.64C120.886 123.44 120.774 123.169 120.774 122.886C120.774 122.604 120.886 122.333 121.086 122.133C121.286 121.933 121.557 121.821 121.84 121.821H122.969V85.4809H118.707V137.23C119.474 138.466 120.838 139.362 121.84 140.64C124.312 143.816 121.946 146.267 119.708 145.969L118.664 145.756V172.803H122.927V137.038C122.927 136.756 123.039 136.485 123.239 136.285C123.439 136.085 123.71 135.973 123.992 135.973C124.144 135.951 124.299 135.963 124.446 136.007C124.593 136.051 124.729 136.126 124.844 136.227C124.96 136.328 125.052 136.453 125.115 136.593C125.177 136.733 125.209 136.885 125.207 137.038H125.101ZM131.495 174.337C133.797 170.074 133.242 164.874 134.99 161.975H125.015V164.107C130.344 164.64 132.155 169.286 131.687 174.337H131.495ZM142.152 160.91C142.062 154.438 139.709 148.202 135.502 143.283L133.115 145.82C136.056 150.637 135.395 156.711 137.036 158.949C137.263 159.25 137.561 159.489 137.903 159.645C138.245 159.802 138.622 159.87 138.997 159.844C139.28 159.844 139.551 159.956 139.751 160.156C139.951 160.356 140.063 160.627 140.063 160.91C140.063 161.192 139.951 161.463 139.751 161.663C139.551 161.863 139.28 161.975 138.997 161.975C138.617 161.933 138.232 161.994 137.883 162.151C137.535 162.309 137.235 162.557 137.015 162.871C135.416 165.151 136.034 171.204 133.115 175.978L135.502 178.515C139.743 173.617 142.134 167.387 142.258 160.91H142.152ZM92.6401 149.72L93.1943 151.851L95.3256 151.297L94.7715 149.166L92.6401 149.72ZM80.4275 150.892L82.4523 151.617L83.1555 149.592L81.0242 148.889L80.4275 150.892ZM86.8215 152.384H88.9529V150.253H86.8215V152.384ZM74.9285 147.525L76.6336 148.825L77.9338 147.12L76.2286 145.82L74.9285 147.525ZM70.6658 142.708L71.9447 144.392L73.6498 143.113L72.3497 141.408L70.6658 142.708ZM67.5328 136.932L68.3853 138.893L70.3462 138.04L69.4936 136.079L67.5328 136.932ZM68.087 130.325L65.9556 130.687L66.3179 132.818L68.4493 132.435L68.087 130.325Z" fill="#1F1F1F"/>
</svg>
