<svg width="172" height="240" viewBox="0 0 172 240" fill="none" xmlns="http://www.w3.org/2000/svg">
<path d="M160.462 0.762695H11.2671C5.38155 0.762695 0.610352 5.5339 0.610352 11.4195V228.818C0.610352 234.703 5.38155 239.475 11.2671 239.475H160.462C166.348 239.475 171.119 234.703 171.119 228.818V11.4195C171.119 5.5339 166.348 0.762695 160.462 0.762695Z" fill="#F9F1DF"/>
<path d="M29.6391 45.5212C29.2955 46.1383 28.7931 46.6523 28.1842 47.0102C27.5753 47.3681 26.8819 47.5568 26.1756 47.5568C25.4694 47.5568 24.776 47.3681 24.1671 47.0102C23.5582 46.6523 23.0558 46.1383 22.7122 45.5212C21.6532 45.5269 20.6395 45.9515 19.8927 46.7024C19.1458 47.4532 18.7265 48.4692 18.7266 49.5282C18.7266 53.9401 25.1206 56.3059 26.1863 59.1193C27.3586 56.3059 33.6461 53.9401 33.6461 49.5282C33.6461 49.002 33.5425 48.4809 33.3411 47.9948C33.1398 47.5086 32.8445 47.0669 32.4724 46.6949C32.1003 46.3228 31.6587 46.0276 31.1726 45.8263C30.6864 45.6249 30.1653 45.5212 29.6391 45.5212Z" fill="#C93112"/>
<path d="M142.068 193.651C142.412 193.034 142.914 192.52 143.523 192.162C144.132 191.804 144.825 191.616 145.532 191.616C146.238 191.616 146.931 191.804 147.54 192.162C148.149 192.52 148.652 193.034 148.995 193.651C150.058 193.651 151.077 193.229 151.828 192.477C152.58 191.726 153.002 190.707 153.002 189.644C153.002 185.232 146.608 182.866 145.542 180.053C144.37 182.866 138.083 185.232 138.083 189.644C138.083 190.703 138.502 191.719 139.249 192.47C139.996 193.221 141.009 193.645 142.068 193.651Z" fill="#C93112"/>
<path d="M26.1864 35.0354V36.4634H17.661V35.0354L19.6006 34.6517C19.7832 34.6224 19.9534 34.541 20.0908 34.4173C20.2028 34.2786 20.263 34.1053 20.2612 33.9271V19.7109C20.2681 19.5254 20.2076 19.3436 20.0908 19.1994C19.9705 19.0637 19.8026 18.9797 19.622 18.9649L17.661 18.56V17.0894H26.1864V18.56L24.2042 18.9649C24.1172 18.9703 24.0326 18.9939 23.9554 19.0343C23.8783 19.0747 23.8105 19.131 23.7567 19.1994C23.6398 19.3436 23.5793 19.5254 23.5862 19.7109V27.5117L30.8753 18.9863L28.744 18.56V17.0894H35.7775V18.56L33.9446 18.9649C33.7938 18.9849 33.6485 19.0357 33.5182 19.1141C33.3728 19.1795 33.2424 19.2737 33.1347 19.3912L28.3391 24.7409C28.785 25.2765 29.1977 25.8388 29.5752 26.4247C29.9589 27.0499 30.4065 27.7959 30.918 28.6626L33.9019 33.7779C34.0391 33.9977 34.196 34.2046 34.3708 34.396C34.5627 34.549 34.7899 34.6516 35.0316 34.6943L36.3317 35.0354V36.4634H31.8986C31.5789 36.4634 31.259 36.2289 30.918 35.7387C30.4904 35.1267 30.106 34.4858 29.7672 33.8205C29.7672 33.8205 27.1668 28.9184 26.911 28.4708C26.6553 28.0232 26.3995 27.5756 26.1438 27.192L23.6927 29.9627V33.9484C23.687 34.1272 23.7479 34.3018 23.8633 34.4386C23.9949 34.5709 24.168 34.6537 24.3535 34.673L26.1864 35.0354Z" fill="#C93112"/>
<path d="M145.542 204.137V202.709H154.068V204.137L152.128 204.52C151.952 204.55 151.789 204.632 151.659 204.755C151.599 204.821 151.553 204.898 151.524 204.983C151.495 205.067 151.483 205.156 151.489 205.245V219.461C151.476 219.644 151.529 219.826 151.638 219.973C151.758 220.108 151.926 220.192 152.107 220.207L154.068 220.612V222.083H145.542V220.612L147.503 220.207C147.593 220.202 147.681 220.179 147.762 220.138C147.842 220.098 147.914 220.042 147.972 219.973C148.081 219.826 148.134 219.644 148.121 219.461V211.767L140.832 220.292L142.963 220.719V222.189H135.93V220.719L137.763 220.314C137.919 220.29 138.071 220.24 138.21 220.165C138.346 220.093 138.468 220 138.573 219.887L143.39 214.538C142.937 214.003 142.517 213.44 142.132 212.854C141.748 212.236 141.301 211.49 140.811 210.616L137.805 205.501C137.675 205.276 137.518 205.068 137.337 204.883C137.15 204.734 136.931 204.631 136.697 204.584L135.376 204.243V202.815H139.83C140.128 202.815 140.448 203.05 140.789 203.54C141.233 204.146 141.625 204.787 141.961 205.458C141.961 205.458 144.541 210.36 144.796 210.808C145.052 211.255 145.329 211.703 145.585 212.087L148.015 209.316V205.33C148.022 205.241 148.011 205.152 147.981 205.067C147.952 204.983 147.905 204.905 147.844 204.84C147.712 204.708 147.539 204.625 147.354 204.606L145.542 204.137Z" fill="#C93112"/>
<path d="M137.55 29.5361C136.862 30.7702 135.858 31.7983 134.64 32.514C133.422 33.2298 132.035 33.6071 130.623 33.6071C129.21 33.6071 127.823 33.2298 126.605 32.514C125.387 31.7983 124.383 30.7702 123.696 29.5361C121.576 29.5361 119.543 30.3782 118.044 31.8771C116.545 33.376 115.703 35.409 115.703 37.5287C115.703 46.3525 128.278 51.0841 130.623 56.7109C132.967 51.0841 145.542 46.3525 145.542 37.5287C145.542 35.409 144.7 33.376 143.201 31.8771C141.702 30.3782 139.669 29.5361 137.55 29.5361Z" fill="#C93112"/>
<path d="M48.0326 210.722C47.35 209.482 46.3472 208.448 45.1287 207.728C43.9103 207.008 42.5209 206.628 41.1056 206.628C39.6904 206.628 38.301 207.008 37.0826 207.728C35.8641 208.448 34.8613 209.482 34.1787 210.722C32.059 210.722 30.0261 209.88 28.5272 208.381C27.0283 206.882 26.1862 204.849 26.1862 202.73C26.1862 193.884 38.7612 189.153 41.1056 183.547C43.4501 189.153 56.0251 193.884 56.0251 202.73C56.0251 204.849 55.183 206.882 53.6841 208.381C52.1852 209.88 50.1523 210.722 48.0326 210.722Z" fill="#C93112"/>
<path d="M154.068 171.271H151.936V19.9448H47.5V17.8135H153.002L154.068 18.8792V171.271ZM17.661 68.966V221.358L18.7267 222.424H124.229V220.292H19.7924V68.966H17.661Z" fill="#1F1F1F"/>
<path d="M95.4131 208.315C94.3296 207.792 93.1098 207.622 91.9246 207.828C90.7395 208.035 89.6487 208.607 88.8059 209.466C88.7056 207.606 88.7056 205.741 88.8059 203.881C88.8285 203.599 88.7379 203.319 88.5541 203.103C88.3702 202.887 88.1082 202.753 87.8256 202.731C87.5429 202.708 87.2627 202.798 87.0469 202.982C86.831 203.166 86.6972 203.428 86.6746 203.711C86.5346 205.498 86.4918 207.291 86.5466 209.082C83.9037 206.78 81.9003 207.121 78.9164 209.082L80.1101 203.37C80.1666 203.087 80.1084 202.794 79.9485 202.554C79.7886 202.314 79.5401 202.148 79.2575 202.091C78.9748 202.035 78.6814 202.093 78.4416 202.253C78.2017 202.412 78.0352 202.661 77.9787 202.944L76.6997 209.039C74.4405 206.141 72.6502 205.075 69.581 206.354C70.1352 205.16 70.8599 203.668 71.7124 201.793C71.782 201.661 71.8234 201.517 71.8339 201.369C71.8444 201.221 71.8241 201.072 71.7738 200.932C71.7235 200.792 71.6443 200.665 71.5417 200.557C71.4391 200.45 71.3151 200.365 71.1777 200.308C71.0404 200.252 70.8928 200.224 70.7443 200.228C70.5958 200.232 70.4498 200.266 70.3155 200.33C70.1812 200.393 70.0616 200.484 69.9645 200.597C69.8674 200.709 69.7947 200.841 69.7515 200.983C68.7284 203.455 67.7907 205.246 67.1939 206.567C66.7625 205.512 66.0139 204.617 65.0517 204.006C64.0894 203.395 62.9612 203.098 61.8229 203.157C63.588 200.895 64.9441 198.341 65.8298 195.612C77.6162 193.8 84.3301 195.782 94.9869 200.727C94.6733 203.261 94.8176 205.831 95.4131 208.315Z" fill="#CBBD9F"/>
<path d="M81.1331 193.437C80.1527 193.267 79.1721 193.139 78.2769 193.054C81.3887 178.752 66.0856 175.875 63.9116 167.264C73.4388 174.937 84.6073 175.086 81.1331 193.437Z" fill="#2D6B67"/>
<path d="M76.1029 192.926C75.1225 192.926 74.1845 192.926 73.2467 192.926C72.7565 183.612 64.2526 180.329 62.7606 170.291C66.9594 178.07 79.0016 180.905 76.1029 192.926Z" fill="#2D6B67"/>
<path d="M71.0732 193.054L69.1976 193.224C66.4908 191.519 62.1002 183.782 61.9937 175.406C65.1267 182.866 70.7109 185.914 71.0732 193.054Z" fill="#2D6B67"/>
<path d="M127.937 149.958V183.207L125.55 190.581L123.163 183.207V149.958H127.937Z" fill="#CBBD9F"/>
<path d="M127.937 142.925H123.163V147.827H127.937V142.925Z" fill="#C93112"/>
<path d="M136.804 130.349C135.823 130.562 134.886 130.86 133.905 131.116C133.836 131.096 133.761 131.096 133.692 131.116C126.328 133.137 119.241 136.057 112.592 139.812C106.889 143.125 101.509 146.964 96.5212 151.279C81.6017 155.222 72.4795 170.077 72.2663 170.759C69.3231 169.124 66.5152 167.257 63.8689 165.175C76.5752 150.641 93.5815 140.532 112.421 136.317L113.274 135.251C113.274 132.843 112.847 128.75 112.847 129.198C112.612 126.896 112.141 124.625 111.441 122.42C114.759 124.737 118.769 125.852 122.807 125.581C126.846 125.309 130.671 123.668 133.649 120.928L136.804 130.349Z" fill="#CBBD9F"/>
<path d="M110.546 128.644C99.3565 130.517 88.6239 134.495 78.9164 140.367L64.9773 126.428C65.6243 126.557 66.2796 126.643 66.9382 126.683C72.0961 126.683 78.1917 123.87 84.1595 121.184C99.2495 114.215 108.159 111.593 110.546 128.644Z" fill="#C93112"/>
<path d="M77.0411 141.432C69.4574 146.384 62.5753 152.334 56.5802 159.123C52.5342 157.204 48.9884 154.374 46.2218 150.853C50.1791 150.78 54.0031 149.41 57.1065 146.954C60.2099 144.497 62.4209 141.09 63.4004 137.255C63.4253 137.172 63.4253 137.083 63.4004 136.999C64.1327 134.205 64.1327 131.268 63.4004 128.474C63.4856 127.643 59.905 124.382 77.0411 141.432Z" fill="#2D6B67"/>
<path d="M65.1907 138.064C64.1006 141.174 62.0711 143.868 59.3831 145.775C56.695 147.681 53.4812 148.705 50.1859 148.705C46.8906 148.705 43.6767 147.681 40.9887 145.775C38.3006 143.868 36.2711 141.174 35.181 138.064H65.1907Z" fill="#CBBD9F"/>
<path d="M65.1906 127.408H57.6455V118.712C61.1469 120.581 63.8341 123.678 65.1906 127.408Z" fill="#CBBD9F"/>
<path d="M42.7261 118.712V127.408H35.181C36.5376 123.678 39.2248 120.581 42.7261 118.712Z" fill="#CBBD9F"/>
<path d="M136.548 112.83C135.192 116.56 132.505 119.657 129.003 121.526V112.83H136.548Z" fill="#CBBD9F"/>
<path d="M114.084 112.83V121.526C110.582 119.657 107.895 116.56 106.539 112.83H114.084Z" fill="#CBBD9F"/>
<path d="M136.548 102.173H106.539C107.629 99.0631 109.658 96.3689 112.346 94.4627C115.034 92.5566 118.248 91.5327 121.544 91.5327C124.839 91.5327 128.053 92.5566 130.741 94.4627C133.429 96.3689 135.458 99.0631 136.548 102.173Z" fill="#CBBD9F"/>
<path d="M108.244 103.239C107.511 106.033 107.511 108.97 108.244 111.764C108.244 112.531 111.867 116.027 94.6882 98.8055C102.28 93.8655 109.164 87.914 115.149 81.1152C119.195 83.0334 122.741 85.8642 125.508 89.3849C121.55 89.4578 117.726 90.8277 114.623 93.2843C111.519 95.7408 109.308 99.1481 108.329 102.983C108.275 103.057 108.245 103.147 108.244 103.239Z" fill="#2D6B67"/>
<path d="M106.751 113.895C90.894 111.338 65.2538 140.431 61.1829 111.764C72.3721 109.891 83.1046 105.913 92.8121 100.042L106.751 113.895Z" fill="#CBBD9F"/>
<path d="M59.3928 103.878L58.5405 104.944C58.5708 109.273 59.202 113.577 60.4161 117.732C57.0975 115.415 53.0876 114.3 49.0493 114.571C45.0111 114.843 41.1862 116.484 38.2073 119.224L34.9249 109.803C49.8815 106.187 63.7351 98.9892 75.2929 88.8307C90.2124 84.8877 99.3346 70.0321 99.5478 69.3501C102.489 70.988 105.297 72.8552 107.945 74.9343C95.2511 89.5002 78.2432 99.6392 59.3928 103.878Z" fill="#C93112"/>
<path d="M48.566 92.4111H43.7917V97.3133H48.566V92.4111Z" fill="#C93112"/>
<path d="M48.566 57.0305V90.2796H43.7917V57.0305L46.1789 49.656L48.566 57.0305Z" fill="#CBBD9F"/>
<path d="M109.735 64.8317C106.602 57.372 101.018 54.3241 100.656 47.1841C101.295 47.1841 101.892 47.0562 102.531 46.9709C105.238 48.676 109.629 56.4555 109.735 64.8317Z" fill="#2D6B67"/>
<path d="M108.968 69.9463C104.705 62.1669 92.727 59.2895 95.6257 47.3113C96.5758 47.396 97.5318 47.396 98.4819 47.3113C98.9721 56.6892 107.476 59.9076 108.968 69.9463Z" fill="#2D6B67"/>
<path d="M107.818 72.9732C98.3545 65.3643 87.1433 65.1724 90.5535 46.8428C91.5766 47.0133 92.5572 47.0985 93.4524 47.1838C90.3832 61.6344 105.622 64.2773 107.818 72.9732Z" fill="#2D6B67"/>
<path d="M109.821 36.9957C108.055 39.2579 106.699 41.8114 105.814 44.5407C100.923 45.4293 95.9126 45.4293 91.0221 44.5407C88.6443 44.1507 86.3149 43.5077 84.0738 42.6225C81.5162 41.6847 79.0439 40.4911 76.6568 39.4254C76.9932 36.9102 76.8776 34.3551 76.3157 31.8804C77.3991 32.4033 78.619 32.5734 79.8041 32.367C80.9892 32.1605 82.08 31.5879 82.9228 30.7295C83.0231 32.5895 83.0231 34.4536 82.9228 36.3136C82.9002 36.5963 82.9908 36.8763 83.1747 37.0922C83.3585 37.308 83.6205 37.442 83.9032 37.4646C84.1858 37.4872 84.466 37.3966 84.6819 37.2127C84.8977 37.0289 85.0316 36.7668 85.0542 36.4841C85.1942 34.6975 85.237 32.9045 85.1822 31.1132C87.8251 33.415 89.8285 33.074 92.8123 31.1132L91.6187 36.8252C91.5621 37.1078 91.6203 37.4013 91.7802 37.6411C91.9401 37.881 92.1886 38.0475 92.4713 38.104C92.7539 38.1605 93.0473 38.1024 93.2872 37.9426C93.527 37.7827 93.6935 37.5341 93.75 37.2514L95.029 31.1558C97.2883 34.0544 99.0785 35.1201 102.148 33.8413C101.594 35.0348 100.869 36.5268 100.016 38.4024C99.9467 38.5336 99.9054 38.678 99.8948 38.8261C99.8843 38.9743 99.9046 39.1231 99.9549 39.2629C100.005 39.4027 100.084 39.5304 100.187 39.6378C100.29 39.7453 100.414 39.8301 100.551 39.8868C100.688 39.9435 100.836 39.9709 100.984 39.9671C101.133 39.9634 101.279 39.9287 101.413 39.8652C101.548 39.8017 101.667 39.7108 101.764 39.5983C101.861 39.4859 101.934 39.3544 101.977 39.2123C103 36.7399 103.938 34.9496 104.535 33.6281C104.968 34.661 105.706 35.5369 106.651 36.1387C107.596 36.7405 108.701 37.0395 109.821 36.9957Z" fill="#CBBD9F"/>
<path d="M79.8333 51.9153C79.8333 52.4694 79.8333 53.0449 79.8333 53.599C79.8391 53.739 79.8169 53.8788 79.7686 54.0102C79.7202 54.1417 79.6466 54.2624 79.5516 54.3653C79.4566 54.4683 79.3421 54.5515 79.2149 54.6101C79.0877 54.6688 78.9501 54.7019 78.8101 54.7073C78.5254 54.7131 78.2498 54.607 78.0426 54.4117C77.8353 54.2164 77.7131 53.9476 77.702 53.663C77.702 53.1089 77.702 52.5334 77.702 51.9792C77.702 51.6966 77.8141 51.4255 78.0139 51.2257C78.2138 51.0258 78.485 50.9135 78.7677 50.9135C79.0503 50.9135 79.3213 51.0258 79.5211 51.2257C79.721 51.4255 79.8333 51.6966 79.8333 51.9792V51.9153ZM137.38 119.309L141.28 130.775L140.492 132.161L138.36 132.694C138.43 135.316 138.387 137.94 138.232 140.558C138.509 140.93 138.695 141.362 138.775 141.819C138.854 142.276 138.825 142.745 138.691 143.189C138.556 143.632 138.319 144.038 137.999 144.373C137.678 144.709 137.284 144.964 136.847 145.119C135.04 145.865 133.084 146.179 131.135 146.036V147.826H139.405C139.687 147.826 139.958 147.939 140.158 148.138C140.358 148.338 140.47 148.609 140.47 148.892C140.47 149.175 140.358 149.446 140.158 149.646C139.958 149.845 139.687 149.958 139.405 149.958H131.135V183.335C131.135 183.804 131.476 182.482 127.64 194.333H125.615L122.141 183.676C122.141 183.164 122.141 185.807 122.141 149.958H113.871C113.59 149.952 113.322 149.838 113.124 149.639C112.925 149.441 112.811 149.173 112.805 148.892C112.805 148.609 112.918 148.338 113.118 148.138C113.317 147.939 113.588 147.826 113.871 147.826H122.098V146.782C119.318 145.989 116.862 144.332 115.086 142.05C110.295 144.793 105.765 147.968 101.552 151.535C108.266 154.199 105.537 171.442 102.553 175.278C102.777 176.308 102.654 177.383 102.203 178.335C101.752 179.287 100.998 180.063 100.06 180.543L101.594 181.246L101.936 182.951C100.317 184.401 99.0857 186.233 98.3547 188.279C97.694 190.944 98.8875 195.292 96.9266 198.275C98.7596 199.128 98.8661 199.171 99.058 199.256C99.1699 199.332 99.2654 199.429 99.3387 199.543C99.4119 199.656 99.4616 199.783 99.4844 199.917C98.925 203.42 99.2026 207.006 100.294 210.382L98.5678 211.469C95.861 209.018 93.2394 209.337 91.1507 212.662H89.4244C88.8305 211.906 88.1822 211.193 87.4848 210.531C85.3535 208.698 84.3518 209.145 80.3022 212.279L78.789 212.044C77.8358 210.467 76.583 209.091 75.1015 207.994C74.6834 207.842 74.2364 207.786 73.7936 207.831C73.3509 207.875 72.9238 208.018 72.544 208.25C71.6425 208.671 70.7796 209.171 69.9652 209.742L68.3453 209.145C67.3223 205.266 64.8711 204.307 61.5888 205.863C60.9494 205.97 61.0133 205.97 60.9706 205.863L60.3741 204.073C61.2554 203.12 62.0807 202.116 62.8462 201.068C64.4096 198.994 65.5669 196.644 66.2566 194.141C66.3218 193.942 66.4395 193.766 66.5975 193.629C66.8553 193.417 67.1803 193.304 67.514 193.309C66.1298 191.7 64.975 189.907 64.0826 187.981C60.6511 180.905 59.6708 172.443 63.0809 165.367L58.3918 161.105C53.224 158.806 48.7966 155.116 45.6036 150.448C41.2721 149.846 37.3047 147.697 34.4333 144.399C31.5619 141.101 29.9804 136.875 29.9809 132.502C29.969 128.144 31.5449 123.931 34.414 120.652L30.4497 109.462L31.2383 108.077L33.3697 107.544C32.9686 106.98 32.7531 106.306 32.7531 105.615C32.7531 104.923 32.9686 104.249 33.3697 103.686C32.9585 103.091 32.7509 102.38 32.7778 101.658C32.8047 100.935 33.0645 100.241 33.5188 99.679C33.1402 99.1953 32.9347 98.5988 32.9347 97.9846C32.9347 97.3703 33.1402 96.7738 33.5188 96.2901C34.7976 94.5637 37.6537 94.1588 39.7851 94.1588H40.659V92.411H32.3893C32.1067 92.411 31.8355 92.2988 31.6356 92.0989C31.4358 91.899 31.3237 91.628 31.3237 91.3454C31.3237 91.0627 31.4358 90.7917 31.6356 90.5918C31.8355 90.392 32.1067 90.2797 32.3893 90.2797H40.659C40.659 54.3663 40.659 57.0518 40.659 56.5616L44.1118 45.9048H46.1365C49.9729 57.7339 49.5893 56.4337 49.6533 56.9026V90.2797H57.9229C58.2039 90.2851 58.4717 90.3992 58.6704 90.5978C58.8691 90.7965 58.9832 91.0644 58.9886 91.3454C58.9886 91.628 58.8763 91.899 58.6764 92.0989C58.4766 92.2988 58.2056 92.411 57.9229 92.411H49.6319V93.4554C52.4174 94.2373 54.8766 95.8966 56.6442 98.187C61.5163 95.3941 66.1183 92.1547 70.3913 88.5107C64.4448 85.4841 66.7041 70.0318 69.3897 65.5346C68.9721 64.4522 68.9744 63.2528 69.3964 62.1721C69.8184 61.0914 70.6295 60.2077 71.6701 59.6947L70.1356 58.9914L69.7945 57.2863C71.4133 55.8362 72.6443 54.0046 73.3753 51.9579C74.0573 49.2724 72.8212 44.9457 74.8034 41.9618C72.8425 41.0667 72.6718 41.024 72.4587 40.683C72.3784 40.5772 72.3271 40.4523 72.3096 40.3207C72.869 36.8173 72.5914 33.2313 71.4997 29.8557L73.2259 28.7687C75.9328 31.1985 78.5545 30.9001 80.6433 27.5752H82.3695C82.9635 28.3317 83.6118 29.044 84.3091 29.7066C86.4405 31.5395 87.4635 31.0706 91.4918 27.9588L93.005 28.1933C93.9582 29.7707 95.2108 31.1464 96.6922 32.2429C97.1103 32.3951 97.5576 32.4511 98.0004 32.4068C98.4431 32.3625 98.8702 32.2191 99.25 31.9871C100.152 31.566 101.014 31.0668 101.829 30.4951L103.449 31.0919C104.472 34.9497 106.923 35.9301 110.205 34.3742C110.845 34.2677 110.78 34.2677 110.823 34.3742L111.42 36.1646C110.545 37.1232 109.72 38.1263 108.947 39.1698C107.383 41.2425 106.226 43.593 105.537 46.0967C105.474 46.3017 105.356 46.4858 105.196 46.6295C104.931 46.8262 104.61 46.931 104.28 46.9279C105.669 48.5336 106.824 50.3275 107.711 52.2563C111.1 59.2471 112.145 67.7299 108.713 74.87L113.402 79.1327C118.57 81.4314 122.997 85.1209 126.19 89.7895C129.429 90.2292 132.487 91.5378 135.042 93.5761C137.596 95.6144 139.551 98.3065 140.698 101.366C141.846 104.426 142.143 107.74 141.559 110.955C140.975 114.171 139.531 117.168 137.38 119.628V119.309ZM138.765 112.787H131.156V121.589C134.696 119.716 137.404 116.582 138.744 112.808L138.765 112.787ZM139.362 104.261H108.031C107.605 106.371 107.605 108.545 108.031 110.655H117.302L118.368 111.721V122.527C121.816 123.743 125.577 123.743 129.025 122.527V111.721L130.091 110.655H139.362C139.778 108.551 139.771 106.384 139.341 104.283L139.362 104.261ZM104.536 113.725L90.7032 99.8921C80.984 105.743 70.2567 109.726 59.074 111.636C59.3717 115.184 60.5912 118.593 62.6118 121.525C70.9454 131.671 91.641 111.87 104.536 113.725ZM55.5145 118.563V127.365H63.1233C61.7691 123.603 59.0544 120.485 55.5145 118.627V118.563ZM67.1943 126.385L81.0268 140.217C90.7416 134.357 101.471 130.373 112.656 128.474C112.358 124.925 111.139 121.516 109.118 118.584C100.785 108.545 80.1529 128.367 67.1943 126.513V126.385ZM116.215 121.547V112.744H108.607C109.933 116.554 112.651 119.721 116.215 121.611V121.547ZM112.358 96.1196C110.676 97.8023 109.393 99.8419 108.607 102.087H138.744C137.837 99.5447 136.3 97.2732 134.278 95.4848C132.256 93.6964 129.813 92.4493 127.179 91.8598C124.544 91.2703 121.803 91.3577 119.212 92.1138C116.62 92.8698 114.262 94.27 112.358 96.1835V96.1196ZM113.061 81.0296C107.064 87.8387 100.166 93.7976 92.5575 98.7412L106.262 112.446C105.492 109.766 105.35 106.944 105.847 104.201C106.344 101.457 107.468 98.8648 109.129 96.6257C110.791 94.3866 112.947 92.5608 115.429 91.2901C117.911 90.0195 120.653 89.3382 123.441 89.2992C120.661 85.7987 117.109 82.99 113.061 81.0935V81.0296ZM107.498 76.3193C94.63 90.9975 77.487 101.276 58.4771 105.711C58.4771 107.053 58.605 108.332 58.7329 109.505C70.9265 107.458 82.5487 102.853 92.8346 95.9917C99.632 91.3747 105.832 85.9339 111.292 79.7934C110.035 78.7064 108.756 77.4915 107.498 76.3832V76.3193ZM92.2591 47.205C91.3426 47.205 90.3835 47.0131 89.4031 46.8426C85.9716 65.2789 97.4597 65.4707 106.774 73.0157C104.877 64.7034 89.2112 61.5277 92.2591 47.205ZM107.882 69.9679C106.369 59.8652 97.7792 56.7748 97.225 47.3115C96.138 47.3115 95.3708 47.3115 94.3264 47.3115C91.6409 59.3324 103.875 62.3376 107.967 69.9679H107.882ZM101.488 46.9918C100.848 46.9918 100.188 47.141 99.4844 47.1837C99.8467 54.3237 105.665 57.5421 108.67 64.6821C108.585 56.7535 104.28 48.8461 101.509 46.9918H101.488ZM88.6996 44.5195C88.8125 44.5012 88.9278 44.5012 89.0407 44.5195C93.8923 45.3614 98.8528 45.3614 103.704 44.5195C104.598 41.7787 105.969 39.2172 107.754 36.9531C106.627 37.0098 105.508 36.73 104.541 36.1494C103.573 35.5687 102.799 34.7134 102.319 33.6922C101.68 34.971 100.785 36.804 99.8041 39.1698C99.6914 39.4253 99.4845 39.6276 99.2266 39.7348C98.9686 39.8419 98.6793 39.8457 98.4187 39.7452C98.2878 39.6916 98.1688 39.6125 98.0688 39.5125C97.9688 39.4124 97.8897 39.2934 97.8362 39.1625C97.7826 39.0316 97.7556 38.8913 97.7568 38.7498C97.758 38.6084 97.7874 38.4685 97.8432 38.3385C98.5892 36.5482 99.2925 35.0136 99.9746 33.8201C96.8202 35.1202 94.9659 33.8201 92.8559 31.1346L91.5982 37.1876C91.5703 37.3248 91.5158 37.4551 91.4374 37.5711C91.3591 37.6871 91.2586 37.7865 91.1419 37.8637C91.0251 37.9409 90.8942 37.9944 90.7568 38.021C90.6194 38.0476 90.4779 38.0468 90.3408 38.0188C90.0665 37.9573 89.8269 37.792 89.6719 37.5576C89.5169 37.3231 89.4586 37.0377 89.5095 36.7613L90.6819 31.0706C87.8259 33.0102 85.6944 33.4364 83.0728 31.0706C83.1684 32.8526 83.1684 34.6384 83.0728 36.4203C83.053 36.7029 82.9219 36.9662 82.708 37.152C82.4942 37.3379 82.2153 37.4312 81.9327 37.4114C81.6501 37.3916 81.3867 37.2604 81.2008 37.0465C81.015 36.8327 80.9216 36.5538 80.9414 36.2711C81.0586 34.4045 81.0586 32.5323 80.9414 30.6657C80.1107 31.5289 79.0272 32.1057 77.8472 32.3126C76.6671 32.5195 75.4518 32.3458 74.377 31.8166C74.922 34.2938 75.0302 36.8472 74.6967 39.3616C79.1073 41.6779 83.8001 43.4117 88.6572 44.5195H88.6996ZM71.2226 64.1066C74.6032 63.9425 77.9851 64.405 81.1974 65.4707C81.1974 65.0231 80.6218 64.4477 80.2595 64.1493C78.8552 63.0588 77.3147 62.156 75.677 61.4637C75.2165 61.2077 74.6973 61.0764 74.1704 61.0826C73.6435 61.0889 73.1273 61.2327 72.6731 61.4996C72.2188 61.7666 71.8419 62.1476 71.5801 62.6048C71.3182 63.062 71.1803 63.5797 71.1799 64.1066H71.2226ZM72.5867 86.8695C77.9932 85.3319 82.9548 82.526 87.0587 78.6851C90.4365 75.6782 93.3143 72.1529 95.5841 68.2415C88.6359 63.7443 85.3109 58.2241 87.5062 46.4377C83.8363 45.6279 80.2637 44.4275 76.8494 42.857C76.6389 43.1074 76.4666 43.3875 76.3379 43.6882C76.3154 43.972 76.3154 44.257 76.3379 44.5408C76.3112 44.7614 76.357 44.9848 76.4685 45.1771C76.58 45.3694 76.751 45.5201 76.9558 45.6064C77.533 45.8345 78.1335 45.9989 78.7463 46.0967C79.859 46.1982 80.9381 46.5313 81.9145 47.0745C82.8908 47.6177 83.7427 48.3591 84.4156 49.2511C84.5154 49.3502 84.5948 49.468 84.6489 49.5979C84.703 49.7277 84.7309 49.867 84.7309 50.0077C84.7309 50.1484 84.703 50.2877 84.6489 50.4175C84.5948 50.5474 84.5154 50.6653 84.4156 50.7644C84.3183 50.8636 84.2023 50.9424 84.0742 50.9963C83.9461 51.0501 83.8086 51.0778 83.6696 51.0778C83.5307 51.0778 83.3932 51.0501 83.2651 50.9963C83.137 50.9424 83.021 50.8636 82.9237 50.7644C81.5383 49.379 81.3252 48.9314 79.7053 48.5051C78.412 48.2918 77.1466 47.9343 75.9328 47.4394C75.9328 51.7021 76.2313 53.5351 72.544 57.6486C75.4479 58.8234 78.2436 60.2497 80.899 61.9113C81.5779 62.2772 82.1635 62.7942 82.6107 63.4225C83.0579 64.0507 83.3545 64.7734 83.4779 65.5346C83.4151 66.9077 83.082 68.2549 82.4975 69.499C82.3788 69.7562 82.1626 69.9557 81.8968 70.0536C81.631 70.1515 81.3373 70.1398 81.0801 70.0211C80.8229 69.9024 80.6233 69.6864 80.5254 69.4206C80.4275 69.1548 80.4392 68.861 80.5579 68.6038C80.6743 68.3549 80.7741 68.0986 80.8564 67.8365C79.91 67.2439 78.8359 66.8858 77.7233 66.7921C75.7324 66.5113 73.7234 66.3759 71.7128 66.3872C69.5814 68.9874 67.6207 80.8591 70.2636 85.3776C70.4908 85.7953 70.8178 86.1503 71.2158 86.4107C71.6138 86.671 72.0702 86.8287 72.544 86.8695H72.5867ZM42.7477 90.2584H47.5006V57.0519L45.1135 49.6773L42.7264 57.0519L42.7477 90.2584ZM42.7477 97.3132H47.5006V92.411H42.7264L42.7477 97.3132ZM42.4066 101.448C42.3958 101.731 42.2773 101.999 42.0751 102.197C41.873 102.395 41.6026 102.508 41.3196 102.514C39.1632 102.612 37.0202 102.126 35.1173 101.107C35.0088 101.303 34.9504 101.522 34.9469 101.746C34.9469 102.578 35.8847 103.217 36.6094 103.579C38.109 104.247 39.7441 104.553 41.3836 104.475C41.5386 104.474 41.6918 104.509 41.8319 104.575C41.972 104.641 42.0955 104.738 42.1935 104.858C46.5383 103.286 50.7566 101.383 54.8113 99.1674C53.4784 97.5197 51.7042 96.2852 49.6959 95.6081V98.3149L48.6303 99.3806H41.7247L40.659 98.3149V96.1835C39.2809 96.1064 37.8993 96.2503 36.5667 96.6098C36.0339 96.7803 35.0962 97.2066 35.0962 97.7607C35.0962 98.3149 36.0552 99.0183 36.6094 99.3166C38.109 99.9838 39.7441 100.29 41.3836 100.212C41.5337 100.219 41.6806 100.258 41.8147 100.325C41.9488 100.393 42.0669 100.489 42.1615 100.605C42.2561 100.722 42.3249 100.858 42.3634 101.003C42.402 101.148 42.4095 101.3 42.3853 101.448H42.4066ZM34.9895 105.199C34.7125 105.924 35.1174 106.478 35.7355 106.947L37.8668 106.329C36.8442 106.117 35.8644 105.735 34.9682 105.199H34.9895ZM36.0552 119.224C39.0681 116.537 42.8926 114.935 46.9207 114.672C50.9487 114.41 54.9492 115.502 58.2854 117.774C57.0638 113.621 56.4392 109.315 56.4308 104.986L57.2621 103.92C76.1349 99.6748 93.173 89.5476 105.921 74.9979C103.234 72.9035 100.383 71.0289 97.3957 69.3924C96.9481 70.2236 96.4151 71.0762 95.9036 71.8648C90.5625 79.9997 82.5616 86.0268 73.2686 88.9156C68.2945 93.3145 62.8725 97.1792 57.0917 100.446H56.9637C50.3691 104.117 43.3562 106.979 36.0765 108.972C35.906 108.972 33.4976 109.632 32.9222 109.76L36.0552 119.224ZM33.0073 127.429H40.6163V118.627C37.0602 120.502 34.3371 123.643 32.9859 127.429H33.0073ZM32.4107 135.955H63.7415C64.1675 133.845 64.1675 131.671 63.7415 129.561H54.4702L53.4045 128.495V117.689C49.9562 116.473 46.196 116.473 42.7477 117.689V128.495L41.682 129.561H32.4107C31.9771 131.669 31.9698 133.843 32.3893 135.955H32.4107ZM59.3935 144.054C61.0757 142.371 62.3578 140.331 63.1447 138.086H33.0073C33.9088 140.63 35.4399 142.903 37.4573 144.696C39.4747 146.488 41.913 147.741 44.545 148.336C47.177 148.932 49.9171 148.852 52.5097 148.103C55.1024 147.354 57.4631 145.961 59.3721 144.054H59.3935ZM58.6902 159.144C64.693 152.341 71.5903 146.382 79.1938 141.432L65.4891 127.728C66.2639 130.408 66.4094 133.231 65.914 135.976C65.4186 138.722 64.2958 141.316 62.6332 143.556C60.9705 145.796 58.8127 147.622 56.3283 148.892C53.844 150.161 51.1002 150.839 48.3105 150.874C51.0766 154.395 54.6225 157.226 58.6689 159.144H58.6902ZM64.253 163.854C77.1213 149.176 94.2644 138.898 113.274 134.463C113.274 133.12 113.146 131.841 113.018 130.669C100.825 132.715 89.2027 137.321 78.9168 144.182C72.1193 148.799 65.9196 154.24 60.4591 160.38C61.6953 161.531 62.9742 162.746 64.2317 163.854H64.253ZM79.4069 193.032C80.3234 193.032 81.2827 193.224 82.2631 193.395C85.6946 174.958 74.2065 174.767 64.8925 167.222C66.8534 175.534 82.5188 178.71 79.4709 193.032H79.4069ZM63.7842 170.269C65.2974 180.372 73.8868 183.463 74.441 192.926C75.5066 192.926 76.2952 192.926 77.3396 192.926C80.089 180.905 67.855 177.9 63.7628 170.269H63.7842ZM70.1782 193.245C70.8176 193.245 71.4782 193.096 72.1816 193.054C71.8193 185.914 65.9795 182.695 62.9956 175.555C63.1448 183.484 67.4501 191.391 70.2209 193.245H70.1782ZM82.9664 195.718C82.8534 195.736 82.7382 195.736 82.6253 195.718C77.7736 194.876 72.8132 194.876 67.9615 195.718C67.0591 198.455 65.6889 201.015 63.9119 203.284C65.0396 203.225 66.1594 203.503 67.1277 204.084C68.096 204.665 68.8688 205.522 69.347 206.545C69.9864 205.266 70.8817 203.433 71.8621 201.068C71.9749 200.812 72.1815 200.61 72.4394 200.503C72.6974 200.395 72.9866 200.392 73.2473 200.492C73.3782 200.546 73.4972 200.625 73.5972 200.725C73.6972 200.825 73.7765 200.944 73.8301 201.075C73.8836 201.206 73.9104 201.346 73.9092 201.488C73.9079 201.629 73.8786 201.769 73.8228 201.899C73.0768 203.689 72.3735 205.224 71.6914 206.417C74.8458 205.117 76.7 206.417 78.8101 209.103L80.0678 203.05C80.093 202.911 80.146 202.779 80.2236 202.662C80.3012 202.544 80.4017 202.444 80.5192 202.366C80.6366 202.288 80.7686 202.235 80.9071 202.21C81.0456 202.185 81.1878 202.187 81.3252 202.219C81.5994 202.28 81.8391 202.445 81.9941 202.68C82.1491 202.914 82.2073 203.2 82.1565 203.476L80.9841 209.167C83.8614 207.206 85.9716 206.822 88.5932 209.167C88.4976 207.385 88.4976 205.599 88.5932 203.817C88.613 203.534 88.7441 203.271 88.958 203.085C89.1718 202.899 89.4506 202.806 89.7333 202.826C90.0159 202.846 90.2793 202.977 90.4652 203.191C90.651 203.405 90.7443 203.684 90.7245 203.966C90.6074 205.833 90.6074 207.705 90.7245 209.572C91.5553 208.708 92.6388 208.132 93.8188 207.925C94.9988 207.718 96.2142 207.892 97.289 208.421C96.7466 205.943 96.6384 203.39 96.9693 200.876C92.5813 198.559 87.9096 196.825 83.0728 195.718H82.9664ZM100.443 176.131C97.0628 176.295 93.6812 175.832 90.4688 174.767C90.4688 175.214 91.0441 175.79 91.4065 176.088C92.8108 177.179 94.3513 178.081 95.9889 178.774C96.4512 179.046 96.9773 179.19 97.5136 179.192C98.0499 179.193 98.577 179.053 99.041 178.784C99.5051 178.515 99.8895 178.128 100.155 177.661C100.42 177.195 100.556 176.667 100.55 176.131H100.443ZM99.25 153.304C93.7823 154.849 88.7625 157.677 84.6076 161.552C81.2298 164.559 78.352 168.084 76.0821 171.996C83.073 176.536 86.3338 182.141 84.1598 193.8C87.8306 194.606 91.4036 195.807 94.8166 197.38C95.0271 197.13 95.1994 196.85 95.3281 196.549C95.3506 196.265 95.3506 195.98 95.3281 195.697C95.3513 195.476 95.3042 195.254 95.1931 195.063C95.082 194.871 94.9129 194.72 94.7102 194.631C93.3248 193.949 90.4474 194.119 88.5079 192.244L87.2504 190.986C87.1505 190.887 87.0712 190.769 87.017 190.639C86.9629 190.51 86.9351 190.37 86.9351 190.23C86.9351 190.089 86.9629 189.95 87.017 189.82C87.0712 189.69 87.1505 189.572 87.2504 189.473C87.3461 189.371 87.4617 189.29 87.59 189.234C87.7183 189.179 87.8565 189.15 87.9963 189.15C88.1362 189.15 88.2744 189.179 88.4027 189.234C88.531 189.29 88.6466 189.371 88.7423 189.473L89.9997 190.73C91.3425 192.073 93.9855 191.86 95.7332 192.862C95.6532 191.186 95.7533 189.507 96.0316 187.853C96.6152 185.89 97.677 184.103 99.122 182.653C96.2181 181.478 93.4227 180.052 90.7672 178.39C90.0884 178.024 89.5027 177.507 89.0555 176.879C88.6083 176.251 88.3115 175.528 88.1881 174.767C88.2508 173.394 88.5842 172.046 89.1687 170.802C89.2282 170.674 89.3124 170.559 89.4166 170.464C89.5209 170.369 89.6428 170.296 89.7757 170.248C89.9085 170.2 90.0495 170.18 90.1904 170.187C90.3313 170.194 90.4693 170.23 90.5965 170.291C90.7264 170.354 90.8421 170.443 90.9366 170.552C91.0311 170.661 91.1024 170.788 91.1463 170.926C91.1901 171.063 91.2054 171.208 91.1916 171.352C91.1777 171.495 91.1347 171.635 91.0654 171.761C91.0654 171.932 90.8096 172.422 90.8096 172.465C90.8096 172.507 90.8096 172.465 90.8096 172.465C91.7559 173.057 92.8303 173.415 93.9429 173.509C96.1387 173.814 98.3548 173.95 100.571 173.914C100.833 173.54 101.054 173.14 101.232 172.721C103.108 168.458 104.322 158.888 102.021 154.924C101.752 154.449 101.366 154.051 100.899 153.767C100.433 153.483 99.9018 153.324 99.3564 153.304H99.25ZM128.897 149.979H124.229V183.185L126.617 190.56L129.004 183.185L128.897 149.979ZM128.897 142.924H124.229V147.826H129.004L128.897 142.924ZM136.74 138.427C136.74 137.596 135.803 136.956 135.078 136.594C133.578 135.927 131.943 135.62 130.304 135.699C130.149 135.699 129.996 135.665 129.856 135.598C129.716 135.532 129.592 135.435 129.494 135.315C125.149 136.888 120.931 138.79 116.876 141.006C118.216 142.647 119.987 143.88 121.991 144.565V141.858L123.057 140.793H129.963L131.028 141.858V143.99C132.406 144.067 133.788 143.923 135.121 143.564C135.653 143.393 136.591 142.967 136.591 142.413C136.591 141.859 135.632 141.155 135.078 140.857C133.578 140.19 131.943 139.883 130.304 139.962C130.021 139.962 129.75 139.849 129.55 139.649C129.35 139.45 129.238 139.179 129.238 138.896C129.249 138.613 129.368 138.345 129.57 138.147C129.772 137.949 130.042 137.835 130.325 137.83C132.481 137.732 134.624 138.218 136.527 139.237C136.72 139.009 136.832 138.725 136.847 138.427H136.74ZM136.74 135.038C137.018 134.313 136.613 133.759 135.995 133.29L133.863 133.909C134.886 134.12 135.866 134.502 136.762 135.038H136.74ZM135.675 121.014C132.662 123.7 128.837 125.302 124.809 125.565C120.781 125.827 116.781 124.736 113.445 122.463C114.668 126.616 115.292 130.922 115.299 135.251L114.468 136.317C95.595 140.563 78.557 150.69 65.8089 165.239C68.4955 167.334 71.3466 169.208 74.3343 170.845C74.7819 170.014 75.3149 169.161 75.8264 168.373C81.1727 160.243 89.1717 154.217 98.4614 151.322C103.436 146.923 108.857 143.058 114.638 139.791H114.766C122.303 135.557 130.395 132.401 138.808 130.413L135.675 121.014ZM40.5737 131.671H36.311C36.0283 131.671 35.7574 131.783 35.5575 131.983C35.3576 132.183 35.2453 132.454 35.2453 132.736C35.2453 133.019 35.3576 133.29 35.5575 133.49C35.7574 133.69 36.0283 133.802 36.311 133.802H40.5737C40.8563 133.802 41.1273 133.69 41.3271 133.49C41.527 133.29 41.6394 133.019 41.6394 132.736C41.6394 132.454 41.527 132.183 41.3271 131.983C41.1273 131.783 40.8563 131.671 40.5737 131.671ZM50.1648 131.671H45.9021C45.6194 131.671 45.3485 131.783 45.1486 131.983C44.9487 132.183 44.8364 132.454 44.8364 132.736C44.8364 133.019 44.9487 133.29 45.1486 133.49C45.3485 133.69 45.6194 133.802 45.9021 133.802H50.1648C50.4474 133.802 50.7184 133.69 50.9182 133.49C51.1181 133.29 51.2305 133.019 51.2305 132.736C51.2305 132.454 51.1181 132.183 50.9182 131.983C50.7184 131.783 50.4474 131.671 50.1648 131.671ZM59.7559 131.671H55.4932C55.2105 131.671 54.9396 131.783 54.7397 131.983C54.5399 132.183 54.4275 132.454 54.4275 132.736C54.4275 133.019 54.5399 133.29 54.7397 133.49C54.9396 133.69 55.2105 133.802 55.4932 133.802H59.7559C60.0385 133.802 60.3095 133.69 60.5093 133.49C60.7092 133.29 60.8216 133.019 60.8216 132.736C60.8216 132.454 60.7092 132.183 60.5093 131.983C60.3095 131.783 60.0385 131.671 59.7559 131.671ZM92.9836 189.217C93.1236 189.212 93.2613 189.179 93.3885 189.12C93.5157 189.061 93.6301 188.978 93.7251 188.875C93.8202 188.772 93.8938 188.652 93.9421 188.52C93.9905 188.389 94.0124 188.249 94.0067 188.109C94.0067 187.555 94.0067 186.979 94.0067 186.425C93.9956 186.141 93.8733 185.872 93.6661 185.676C93.4588 185.481 93.1833 185.375 92.8986 185.381C92.7586 185.386 92.6209 185.419 92.4937 185.478C92.3665 185.537 92.2521 185.62 92.1571 185.723C92.062 185.826 91.9884 185.946 91.9401 186.078C91.8917 186.209 91.8696 186.349 91.8753 186.489V188.173C91.8595 188.327 91.8776 188.483 91.9281 188.629C91.9787 188.776 92.0607 188.91 92.1683 189.021C92.2758 189.133 92.4062 189.22 92.5507 189.276C92.6953 189.331 92.8503 189.355 93.005 189.345L92.9836 189.217ZM131.114 108.418H135.376C135.659 108.418 135.93 108.305 136.13 108.105C136.33 107.906 136.442 107.634 136.442 107.352C136.442 107.069 136.33 106.798 136.13 106.598C135.93 106.398 135.659 106.286 135.376 106.286H131.114C130.831 106.286 130.56 106.398 130.36 106.598C130.16 106.798 130.048 107.069 130.048 107.352C130.048 107.634 130.16 107.906 130.36 108.105C130.56 108.305 130.831 108.418 131.114 108.418ZM121.523 108.418H125.785C126.068 108.418 126.339 108.305 126.539 108.105C126.739 107.906 126.851 107.634 126.851 107.352C126.851 107.069 126.739 106.798 126.539 106.598C126.339 106.398 126.068 106.286 125.785 106.286H121.523C121.24 106.286 120.969 106.398 120.769 106.598C120.569 106.798 120.457 107.069 120.457 107.352C120.457 107.634 120.569 107.906 120.769 108.105C120.969 108.305 121.24 108.418 121.523 108.418ZM111.931 108.418H116.194C116.477 108.418 116.748 108.305 116.948 108.105C117.147 107.906 117.26 107.634 117.26 107.352C117.26 107.069 117.147 106.798 116.948 106.598C116.748 106.398 116.477 106.286 116.194 106.286H111.931C111.649 106.286 111.378 106.398 111.178 106.598C110.978 106.798 110.866 107.069 110.866 107.352C110.866 107.634 110.978 107.906 111.178 108.105C111.378 108.305 111.649 108.418 111.931 108.418ZM105.985 80.5394C105.99 80.8203 106.104 81.0882 106.303 81.2869C106.502 81.4856 106.77 81.5996 107.051 81.605C107.333 81.605 107.604 81.4928 107.804 81.2929C108.004 81.0931 108.116 80.822 108.116 80.5394C108.116 80.2567 108.004 79.9857 107.804 79.7858C107.604 79.586 107.333 79.4737 107.051 79.4737C106.901 79.4756 106.753 79.509 106.618 79.5717C106.482 79.6344 106.361 79.725 106.262 79.8376C106.164 79.9501 106.09 80.0822 106.046 80.2251C106.002 80.3681 105.988 80.5188 106.006 80.6673L105.985 80.5394ZM74.4623 101.725C74.3321 101.777 74.2134 101.854 74.1129 101.951C74.0124 102.049 73.9321 102.165 73.8766 102.294C73.8212 102.423 73.7916 102.561 73.7897 102.701C73.7878 102.841 73.8135 102.98 73.8654 103.11C73.9168 103.241 73.9937 103.359 74.0918 103.459C74.1899 103.559 74.307 103.638 74.4363 103.692C74.5655 103.745 74.7043 103.772 74.8442 103.771C74.9842 103.77 75.1224 103.741 75.2509 103.686C75.3976 103.648 75.5345 103.579 75.6526 103.484C75.7707 103.389 75.8671 103.27 75.9354 103.135C76.0038 102.999 76.0426 102.851 76.0491 102.7C76.0556 102.548 76.0297 102.397 75.9731 102.256C75.9166 102.116 75.8305 101.989 75.721 101.884C75.6115 101.779 75.481 101.699 75.338 101.649C75.195 101.598 75.0428 101.579 74.8918 101.592C74.7408 101.606 74.5944 101.651 74.4623 101.725ZM96.7349 88.5746C96.5691 88.7054 96.446 88.8824 96.381 89.0832C96.316 89.2841 96.3123 89.4997 96.3701 89.7027C96.4278 89.9058 96.5445 90.0871 96.7055 90.2237C96.8664 90.3603 97.0642 90.446 97.2739 90.47C97.4837 90.494 97.6959 90.4551 97.8835 90.3584C98.0711 90.2616 98.2258 90.1113 98.3279 89.9265C98.43 89.7417 98.4747 89.5308 98.4567 89.3205C98.4387 89.1102 98.3589 88.9099 98.227 88.7451C98.0343 88.5503 97.7739 88.4372 97.5 88.4293C97.2262 88.4213 96.9598 88.5192 96.7562 88.7025L96.7349 88.5746ZM86.0781 95.9491C85.9572 96.0214 85.852 96.1169 85.7682 96.2301C85.6845 96.3434 85.6239 96.4721 85.5902 96.6088C85.5566 96.7456 85.5502 96.8877 85.5718 97.0268C85.5933 97.166 85.6424 97.2996 85.7159 97.4197C85.8626 97.6576 86.0966 97.8283 86.3679 97.8951C86.6392 97.9619 86.926 97.9195 87.1664 97.777C87.4067 97.6344 87.5817 97.4032 87.6532 97.1331C87.7247 96.8629 87.6872 96.5755 87.5488 96.3327C87.3827 96.1104 87.1378 95.9601 86.8643 95.9125C86.5909 95.865 86.3095 95.9238 86.0781 96.077V95.9491ZM101.68 84.3545C101.529 84.5027 101.425 84.6925 101.382 84.8998C101.339 85.1071 101.359 85.3225 101.439 85.5184C101.519 85.7144 101.656 85.8821 101.831 86.0002C102.007 86.1182 102.214 86.1812 102.426 86.1812C102.637 86.1812 102.844 86.1182 103.02 86.0002C103.196 85.8821 103.332 85.7144 103.412 85.5184C103.492 85.3225 103.512 85.1071 103.469 84.8998C103.426 84.6925 103.323 84.5027 103.172 84.3545C103.067 84.2603 102.945 84.1885 102.812 84.1436C102.679 84.0988 102.538 84.0818 102.398 84.0938C102.258 84.1058 102.122 84.1465 101.998 84.2133C101.875 84.2802 101.766 84.3718 101.68 84.4824V84.3545ZM80.3662 99.0609C80.2401 99.1222 80.1271 99.2079 80.0342 99.313C79.9413 99.4181 79.87 99.5404 79.8245 99.6731C79.779 99.8058 79.76 99.9461 79.7688 100.086C79.7776 100.226 79.8139 100.363 79.8758 100.489C80.0076 100.736 80.2297 100.923 80.4958 101.01C80.7618 101.097 81.0513 101.079 81.3039 100.958C81.43 100.896 81.5429 100.811 81.6358 100.706C81.7288 100.601 81.8 100.478 81.8455 100.346C81.8911 100.213 81.91 100.073 81.9012 99.9325C81.8924 99.7926 81.8559 99.6557 81.794 99.5298C81.649 99.3022 81.4217 99.1396 81.1595 99.076C80.8972 99.0125 80.6206 99.0528 80.3875 99.1887L80.3662 99.0609ZM68.3666 103.942C68.1203 104.044 67.921 104.234 67.8083 104.476C67.6957 104.718 67.6778 104.993 67.7581 105.247C67.8384 105.501 68.011 105.716 68.242 105.85C68.473 105.983 68.7456 106.024 69.0059 105.966C69.1407 105.925 69.2661 105.858 69.3746 105.768C69.4831 105.678 69.5727 105.567 69.6381 105.442C69.7035 105.317 69.7435 105.18 69.7557 105.04C69.768 104.9 69.7522 104.758 69.7094 104.624C69.5938 104.387 69.396 104.2 69.1529 104.098C68.9098 103.996 68.638 103.986 68.388 104.07L68.3666 103.942ZM91.5345 92.4537C91.4009 92.5233 91.2835 92.6204 91.1903 92.7386C91.097 92.8569 91.0299 92.9935 90.9933 93.1396C90.9567 93.2857 90.9515 93.4379 90.978 93.5861C91.0044 93.7343 91.0621 93.8753 91.1471 93.9996C91.232 94.124 91.3423 94.2289 91.4707 94.3076C91.5992 94.3862 91.7428 94.4367 91.8922 94.4557C92.0416 94.4748 92.1933 94.462 92.3374 94.4181C92.4814 94.3743 92.6145 94.3004 92.7279 94.2014C92.9244 94.0298 93.0511 93.7922 93.0841 93.5335C93.1171 93.2748 93.0542 93.013 92.9072 92.7976C92.7601 92.5823 92.5391 92.4283 92.2861 92.3649C92.0331 92.3015 91.7657 92.3331 91.5345 92.4537ZM62.3774 105.668C62.0948 105.668 61.8238 105.78 61.6239 105.98C61.4241 106.18 61.3117 106.451 61.3117 106.734C61.3117 107.016 61.4241 107.287 61.6239 107.487C61.8238 107.687 62.0948 107.799 62.3774 107.799C62.66 107.799 62.931 107.687 63.1309 107.487C63.3307 107.287 63.4431 107.016 63.4431 106.734C63.4086 106.483 63.2875 106.252 63.1007 106.08C62.9139 105.909 62.6732 105.809 62.4201 105.796L62.3774 105.668ZM65.7024 159.442C65.697 159.161 65.5829 158.893 65.3843 158.695C65.1856 158.496 64.9177 158.382 64.6368 158.376C64.3541 158.376 64.0829 158.489 63.883 158.689C63.6832 158.889 63.5711 159.16 63.5711 159.442C63.5711 159.725 63.6832 159.996 63.883 160.196C64.0829 160.396 64.3541 160.508 64.6368 160.508C64.9022 160.515 65.1608 160.423 65.3619 160.249C65.5629 160.076 65.692 159.834 65.7238 159.57L65.7024 159.442ZM91.2787 140.921C91.4048 140.859 91.5175 140.774 91.6104 140.669C91.7034 140.564 91.7746 140.441 91.8201 140.309C91.8657 140.176 91.8846 140.035 91.8758 139.895C91.867 139.755 91.8307 139.619 91.7689 139.493C91.6371 139.246 91.4149 139.059 91.1489 138.972C90.8829 138.884 90.5934 138.903 90.3408 139.024C90.2147 139.085 90.102 139.171 90.0091 139.276C89.9161 139.381 89.8446 139.503 89.7991 139.636C89.7536 139.769 89.7349 139.909 89.7437 140.049C89.7525 140.189 89.7888 140.326 89.8506 140.452C89.8978 140.598 89.9764 140.732 90.0811 140.844C90.1859 140.956 90.3141 141.043 90.4566 141.1C90.599 141.157 90.7522 141.182 90.9054 141.173C91.0585 141.164 91.2076 141.122 91.3425 141.049L91.2787 140.921ZM85.5879 144.032C85.7088 143.96 85.8143 143.865 85.898 143.751C85.9818 143.638 86.042 143.509 86.0757 143.373C86.1094 143.236 86.1158 143.094 86.0942 142.955C86.0727 142.816 86.0238 142.682 85.9503 142.562C85.8823 142.439 85.7898 142.332 85.6787 142.247C85.5676 142.162 85.4399 142.1 85.3041 142.066C85.1682 142.032 85.027 142.027 84.8888 142.05C84.7506 142.072 84.6185 142.124 84.5009 142.2C84.379 142.268 84.272 142.36 84.1863 142.471C84.1007 142.581 84.0382 142.708 84.0024 142.843C83.9666 142.978 83.9585 143.119 83.9782 143.258C83.9979 143.396 84.0453 143.529 84.1174 143.649C84.1782 143.789 84.2676 143.914 84.3802 144.017C84.4927 144.12 84.6257 144.199 84.7704 144.247C84.9152 144.295 85.0684 144.312 85.2203 144.297C85.3721 144.283 85.5193 144.236 85.6519 144.16L85.5879 144.032ZM97.1826 138.257C97.3129 138.205 97.4315 138.128 97.532 138.03C97.6325 137.933 97.7128 137.816 97.7683 137.688C97.8237 137.559 97.853 137.421 97.8549 137.28C97.8568 137.14 97.8311 137.001 97.7792 136.871C97.7278 136.741 97.6509 136.622 97.5528 136.523C97.4548 136.423 97.3376 136.344 97.2084 136.29C97.0791 136.236 96.9406 136.209 96.8007 136.21C96.6608 136.211 96.5222 136.24 96.3938 136.296C96.247 136.334 96.1101 136.402 95.9921 136.497C95.874 136.592 95.7776 136.712 95.7092 136.847C95.6409 136.982 95.6023 137.131 95.5958 137.282C95.5893 137.433 95.6152 137.584 95.6718 137.725C95.7283 137.866 95.8141 137.993 95.9236 138.097C96.0331 138.202 96.1639 138.282 96.3069 138.333C96.4499 138.383 96.6018 138.402 96.7528 138.389C96.9038 138.376 97.0505 138.331 97.1826 138.257ZM69.9865 155.627C70.1377 155.479 70.2413 155.289 70.2841 155.082C70.327 154.874 70.3069 154.659 70.2269 154.463C70.1469 154.267 70.0105 154.099 69.8348 153.981C69.6591 153.863 69.452 153.8 69.2403 153.8C69.0286 153.8 68.8218 153.863 68.6461 153.981C68.4704 154.099 68.3338 154.267 68.2537 154.463C68.1737 154.659 68.1539 154.874 68.1967 155.082C68.2396 155.289 68.3432 155.479 68.4944 155.627C68.5808 155.748 68.6925 155.848 68.8217 155.922C68.9509 155.995 69.0946 156.039 69.2427 156.052C69.3907 156.064 69.5398 156.043 69.6792 155.992C69.8187 155.941 69.9452 155.86 70.0502 155.755L69.9865 155.627ZM74.9098 151.364C75.0755 151.234 75.1987 151.057 75.2636 150.856C75.3286 150.655 75.3326 150.439 75.2748 150.236C75.2171 150.033 75.1001 149.852 74.9392 149.715C74.7782 149.579 74.5804 149.493 74.3707 149.469C74.161 149.445 73.9487 149.484 73.7611 149.581C73.5735 149.677 73.4191 149.828 73.317 150.012C73.2149 150.197 73.17 150.408 73.188 150.618C73.2059 150.829 73.286 151.029 73.4179 151.194C73.4915 151.325 73.5921 151.439 73.713 151.529C73.8339 151.618 73.9724 151.681 74.1194 151.714C74.2664 151.746 74.4183 151.747 74.5656 151.716C74.7129 151.685 74.8521 151.623 74.9738 151.535L74.9098 151.364ZM103.278 135.997C103.547 135.909 103.769 135.719 103.897 135.467C104.025 135.215 104.048 134.923 103.96 134.655C103.919 134.52 103.852 134.395 103.761 134.287C103.671 134.18 103.56 134.091 103.434 134.028C103.309 133.964 103.172 133.926 103.031 133.917C102.891 133.907 102.75 133.926 102.617 133.972C102.349 134.06 102.127 134.251 101.999 134.503C101.871 134.755 101.848 135.047 101.936 135.315C101.962 135.469 102.02 135.616 102.108 135.745C102.196 135.874 102.31 135.982 102.444 136.063C102.577 136.144 102.726 136.195 102.882 136.213C103.037 136.231 103.194 136.216 103.342 136.168L103.278 135.997ZM80.1318 147.485C80.36 147.319 80.5141 147.07 80.5618 146.791C80.6096 146.513 80.5472 146.226 80.3875 145.993C80.2247 145.767 79.9793 145.613 79.7043 145.565C79.4293 145.517 79.1465 145.579 78.9168 145.738C78.8005 145.815 78.7009 145.914 78.6238 146.031C78.5467 146.147 78.4938 146.277 78.4679 146.414C78.4421 146.552 78.4439 146.692 78.4734 146.829C78.5029 146.965 78.5595 147.094 78.6397 147.208C78.7035 147.348 78.7969 147.473 78.9134 147.573C79.0299 147.673 79.1667 147.748 79.3146 147.79C79.4624 147.833 79.6178 147.843 79.7699 147.819C79.9219 147.796 80.0671 147.74 80.1955 147.656L80.1318 147.485ZM109.267 134.271C109.55 134.271 109.821 134.159 110.021 133.959C110.221 133.759 110.333 133.488 110.333 133.205C110.333 132.923 110.221 132.652 110.021 132.452C109.821 132.252 109.55 132.14 109.267 132.14C108.985 132.14 108.714 132.252 108.514 132.452C108.314 132.652 108.202 132.923 108.202 133.205C108.18 133.362 108.193 133.521 108.239 133.672C108.285 133.824 108.364 133.963 108.469 134.08C108.575 134.198 108.704 134.291 108.85 134.354C108.995 134.416 109.152 134.446 109.31 134.441L109.267 134.271Z" fill="#1F1F1F"/>
</svg>
