<svg width="172" height="240" viewBox="0 0 172 240" fill="none" xmlns="http://www.w3.org/2000/svg">
<path d="M160.737 0.762695H11.5425C5.65694 0.762695 0.885742 5.5339 0.885742 11.4195V228.818C0.885742 234.703 5.65694 239.475 11.5425 239.475H160.737C166.623 239.475 171.394 234.703 171.394 228.818V11.4195C171.394 5.5339 166.623 0.762695 160.737 0.762695Z" fill="#F9F1DF"/>
<path d="M30.0213 45.5212C29.3045 45.5332 28.604 45.7373 27.9929 46.1122C27.3819 46.4871 26.8826 47.019 26.5471 47.6526C26.217 47.0192 25.7219 46.4868 25.1141 46.1117C24.5063 45.7365 23.8085 45.5325 23.0944 45.5212C22.0317 45.5212 21.0125 45.9434 20.2611 46.6949C19.5096 47.4463 19.0874 48.4655 19.0874 49.5282C19.0874 53.9401 25.3749 56.3059 26.5471 59.1193C27.7194 56.3059 34.0069 53.9401 34.0069 49.5282C34.0069 48.4692 33.5876 47.4532 32.8408 46.7024C32.0939 45.9515 31.0803 45.5269 30.0213 45.5212Z" fill="#C93112"/>
<path d="M142.365 193.651C143.079 193.64 143.777 193.436 144.385 193.06C144.993 192.685 145.488 192.153 145.818 191.519C146.25 192.288 146.925 192.892 147.737 193.236C148.549 193.58 149.452 193.645 150.305 193.421C151.158 193.197 151.912 192.696 152.45 191.997C152.988 191.298 153.279 190.441 153.277 189.559C153.277 185.147 146.99 182.781 145.818 179.968C144.646 182.781 138.358 185.147 138.358 189.559C138.347 190.092 138.442 190.622 138.638 191.118C138.835 191.614 139.128 192.066 139.501 192.447C139.874 192.828 140.32 193.131 140.812 193.338C141.303 193.545 141.832 193.651 142.365 193.651Z" fill="#C93112"/>
<path d="M33.6025 41.642C32.7899 41.6679 31.986 41.4688 31.2794 41.0666C30.6287 40.6958 30.0271 40.2447 29.489 39.7238L27.8478 38.1466C27.3232 37.5972 26.7019 37.1493 26.0149 36.8251C24.7908 36.8349 23.5784 36.5881 22.4556 36.1005C21.4783 35.6576 20.6228 34.9849 19.9619 34.1396C19.2522 33.2422 18.7434 32.2028 18.4699 31.0918C18.1146 29.7936 17.9425 28.452 17.9584 27.1062C17.9407 25.6198 18.1491 24.1393 18.5765 22.7156C18.9278 21.526 19.523 20.4227 20.3242 19.4759C21.0619 18.5518 22.0126 17.8205 23.0949 17.3446C24.271 16.8623 25.5325 16.6231 26.8035 16.6412C28.0383 16.6182 29.2646 16.8504 30.4055 17.3232C31.4006 17.7563 32.2776 18.4214 32.9631 19.2628C33.6634 20.1691 34.1777 21.2049 34.4764 22.3106C34.8316 23.6234 35.0037 24.979 34.988 26.3389C35.049 28.5735 34.504 30.783 33.4108 32.7329C32.4538 34.3566 30.9386 35.5763 29.1481 36.1644C29.5846 36.3244 30.0055 36.5242 30.4055 36.7612L31.599 37.4859C32.1941 37.8862 32.8133 38.2492 33.4533 38.5729C34.1234 38.8713 34.8514 39.0169 35.5847 38.9991H36.2454H36.8209L37.1618 40.2566C36.761 40.6136 36.2989 40.8952 35.7979 41.0879C35.1237 41.4524 34.369 41.6429 33.6025 41.642ZM26.5051 18.3676C25.7723 18.357 25.0512 18.5508 24.4225 18.9273C23.7938 19.3038 23.2824 19.848 22.9457 20.4989C21.9888 22.4879 21.5629 24.6907 21.7095 26.893C21.5706 29.0538 21.9737 31.215 22.8819 33.1805C23.2069 33.8363 23.7126 34.3853 24.3395 34.763C24.9664 35.1406 25.6883 35.3311 26.4199 35.3119C27.1495 35.321 27.8672 35.1263 28.4923 34.7498C29.1173 34.3732 29.6248 33.8298 29.9579 33.1805C30.9325 31.197 31.3664 28.9914 31.2154 26.7865C31.3599 24.6323 30.9566 22.4766 30.0432 20.5203C29.7212 19.8606 29.2167 19.3071 28.5896 18.9255C27.9625 18.5439 27.239 18.3503 26.5051 18.3676Z" fill="#C93112"/>
<path d="M138.72 197.529C139.533 197.504 140.337 197.703 141.044 198.105C141.698 198.47 142.3 198.922 142.834 199.448L144.475 201.025C145.003 201.58 145.633 202.028 146.329 202.346C147.546 202.338 148.751 202.585 149.867 203.071C150.845 203.514 151.7 204.187 152.361 205.032C153.071 205.929 153.579 206.969 153.853 208.08C154.208 209.378 154.38 210.719 154.364 212.065C154.382 213.552 154.174 215.032 153.747 216.456C153.395 217.645 152.8 218.749 151.999 219.696C151.249 220.581 150.299 221.275 149.228 221.72C148.052 222.203 146.79 222.442 145.519 222.424C144.285 222.447 143.058 222.214 141.917 221.742C140.925 221.314 140.054 220.648 139.381 219.802C138.666 218.902 138.144 217.865 137.847 216.754C137.491 215.442 137.319 214.086 137.335 212.726C137.274 210.491 137.819 208.282 138.912 206.332C139.869 204.708 141.384 203.489 143.175 202.9C142.738 202.741 142.317 202.541 141.917 202.304L140.724 201.579C140.132 201.174 139.512 200.811 138.87 200.492C138.2 200.194 137.471 200.048 136.738 200.066H136.077H135.502L135.161 198.808C135.562 198.451 136.024 198.17 136.525 197.977C137.209 197.649 137.963 197.496 138.72 197.529ZM145.818 220.804C146.551 220.814 147.272 220.621 147.9 220.244C148.529 219.868 149.04 219.323 149.377 218.673C150.334 216.684 150.76 214.481 150.613 212.278C150.752 210.118 150.349 207.956 149.441 205.991C149.116 205.335 148.61 204.786 147.983 204.408C147.356 204.031 146.635 203.84 145.903 203.86C145.173 203.851 144.456 204.045 143.831 204.422C143.206 204.798 142.698 205.342 142.365 205.991C141.39 207.974 140.956 210.18 141.107 212.385C140.963 214.539 141.366 216.695 142.28 218.651C142.599 219.304 143.096 219.853 143.715 220.234C144.334 220.616 145.048 220.813 145.775 220.804H145.818Z" fill="#C93112"/>
<path d="M137.825 29.5361C137.138 30.7702 136.133 31.7983 134.916 32.514C133.698 33.2298 132.311 33.6071 130.898 33.6071C129.486 33.6071 128.099 33.2298 126.881 32.514C125.663 31.7983 124.659 30.7702 123.971 29.5361C121.852 29.5361 119.819 30.3782 118.32 31.8771C116.821 33.376 115.979 35.409 115.979 37.5287C115.979 46.3525 128.554 51.0841 130.898 56.7109C133.264 51.0841 145.818 46.3525 145.818 37.5287C145.818 35.409 144.976 33.376 143.477 31.8771C141.978 30.3782 139.945 29.5361 137.825 29.5361Z" fill="#C93112"/>
<path d="M48.3084 210.722C47.6259 209.482 46.623 208.448 45.4046 207.728C44.1862 207.008 42.7968 206.628 41.3815 206.628C39.9662 206.628 38.5769 207.008 37.3584 207.728C36.14 208.448 35.1372 209.482 34.4546 210.722C32.3349 210.722 30.3019 209.88 28.803 208.381C27.3041 206.882 26.462 204.849 26.462 202.73C26.462 193.884 39.037 189.153 41.3815 183.547C43.7473 189.153 56.301 193.884 56.301 202.73C56.301 204.849 55.4589 206.882 53.96 208.381C52.4611 209.88 50.4282 210.722 48.3084 210.722Z" fill="#C93112"/>
<path d="M154.343 171.271H152.212V19.9448H47.7755V17.8135H153.277L154.343 18.8792V171.271ZM17.9365 68.966V221.358L19.0022 222.424H124.504V220.292H20.0679V68.966H17.9365Z" fill="#1F1F1F"/>
<path d="M95.3681 204.35C95.1994 205.864 95.1567 207.389 95.2402 208.911C94.0501 208.15 92.6274 207.839 91.2283 208.034C89.8292 208.23 88.546 208.918 87.61 209.976C84.4769 205.458 82.239 205.714 77.4221 208.357C74.8645 203.668 73.1594 202.133 67.9589 204.392C67.7409 203.143 67.1325 201.996 66.2209 201.115C65.3093 200.234 64.1417 199.665 62.8862 199.49C64.1446 198.322 65.2737 197.021 66.2538 195.611C70.1956 199.071 74.8359 201.643 79.8595 203.15C84.8832 204.658 90.1724 205.067 95.3681 204.35Z" fill="#CBBD9F"/>
<path d="M96.2638 138.021C93.179 139.94 90.3194 142.2 87.7384 144.756C87.2017 144.582 86.6402 144.495 86.0758 144.501C87.6317 144.501 65.4869 143.691 61.5652 151.534C59.4339 155.69 62.3752 160.827 63.5687 165.601C59.6385 162.852 56.2678 159.38 53.6367 155.371C51.612 152.368 50.7484 148.732 51.2069 145.14C52.4857 133.396 82.0903 125.979 96.2638 138.021Z" fill="#C93112"/>
<path d="M89.1022 165.004L87.6956 157.374C91.2975 153.751 93.1944 148.849 89.6564 145.779C95.5991 140.134 102.967 136.214 110.97 134.441C113.847 152.941 98.7572 156.671 89.1022 165.004Z" fill="#2D6B67"/>
<path d="M97.415 196.336C97.44 196.594 97.3659 196.853 97.2076 197.058C97.0493 197.264 96.8186 197.402 96.5624 197.444C81.2806 199.725 77.6361 185.913 77.5082 170.76C77.5082 156.778 86.204 154.881 82.1971 146.76C83.7316 146.675 85.3515 146.633 87.0566 146.633C89.8913 146.633 91.3193 149.233 89.87 152.43C88.0157 156.458 80.0657 160.38 80.1936 173.317C80.1936 174.489 80.3641 175.747 80.3641 176.557C81.2167 189.047 86.4598 195.441 96.0935 195.441C96.8182 195.441 97.415 195.611 97.415 196.336Z" fill="#CBBD9F"/>
<path d="M83.1766 196.122C73.9692 192.136 73.415 180.797 72.7756 170.546C72.0083 158.589 75.7382 152.962 72.3068 148.038C74.8154 147.452 77.3669 147.067 79.9369 146.887C83.7734 155.029 75.2907 155.647 75.3759 170.716C75.4612 179.604 76.5268 190.452 83.1766 196.122Z" fill="#CBBD9F"/>
<path d="M75.8452 193.139C69.3232 189.217 68.5559 180.99 67.8313 173.488C67.6873 169.295 66.8817 165.152 65.4442 161.211C63.1849 154.433 62.5668 151.236 70.0905 148.764C73.6286 152.92 69.8561 158.078 70.6447 170.759C71.1136 178.113 71.5825 187.299 75.8452 193.139Z" fill="#CBBD9F"/>
<path d="M132.326 157.63C132.128 157.83 131.892 157.988 131.633 158.096C131.373 158.205 131.094 158.26 130.813 158.26C130.532 158.26 130.253 158.205 129.993 158.096C129.733 157.988 129.498 157.83 129.3 157.63C127.713 155.301 126.288 152.866 125.037 150.341C127.566 151.584 130.002 153.008 132.326 154.603C132.526 154.801 132.684 155.037 132.793 155.297C132.901 155.557 132.957 155.835 132.957 156.117C132.957 156.398 132.901 156.677 132.793 156.936C132.684 157.196 132.526 157.432 132.326 157.63Z" fill="#CBBD9F"/>
<path d="M121.669 155.542C121.506 155.926 121.233 156.254 120.884 156.484C120.535 156.715 120.127 156.838 119.709 156.838C119.291 156.838 118.882 156.715 118.533 156.484C118.185 156.254 117.912 155.926 117.748 155.542C117.534 155.008 117.534 154.413 117.748 153.879C118.836 152.37 120.16 151.046 121.669 149.958C121.952 151.808 121.952 153.691 121.669 155.542Z" fill="#CBBD9F"/>
<path d="M55.0427 86.272C53.9312 87.8001 52.5946 89.1511 51.0784 90.2789C50.7136 88.4211 50.7136 86.51 51.0784 84.6521C51.2953 84.1338 51.7081 83.7221 52.227 83.5066C52.7459 83.291 53.3289 83.2891 53.8492 83.5012C54.1096 83.6046 54.3471 83.7583 54.5481 83.9535C54.7491 84.1488 54.9096 84.3817 55.0205 84.6391C55.1314 84.8964 55.1905 85.1731 55.1943 85.4533C55.1981 85.7335 55.1466 86.0117 55.0427 86.272Z" fill="#CBBD9F"/>
<path d="M47.6686 89.8108C45.1481 88.5764 42.7255 87.1513 40.4219 85.5481C40.2232 85.3494 40.0656 85.1135 39.958 84.8538C39.8505 84.5942 39.7952 84.3159 39.7952 84.0349C39.7952 83.7538 39.8505 83.4755 39.958 83.2159C40.0656 82.9562 40.2232 82.7203 40.4219 82.5216C40.6207 82.3229 40.8566 82.1652 41.1162 82.0577C41.3759 81.9501 41.6542 81.8948 41.9352 81.8948C42.2163 81.8948 42.4945 81.9501 42.7541 82.0577C43.0138 82.1652 43.2497 82.3229 43.4484 82.5216C45.027 84.8477 46.4374 87.2836 47.6686 89.8108Z" fill="#CBBD9F"/>
<path d="M123.929 128.644C121.798 132.352 118.281 131.798 112.633 131.969C111.823 129.539 108.498 122.761 96.4343 120.076C105.89 118.608 115.212 116.384 124.312 113.426C125.932 120.118 125.932 125.575 123.929 128.644Z" fill="#CBBD9F"/>
<path d="M76.4841 119.991C66.9836 121.463 57.6177 123.701 48.4781 126.683C46.9435 120.076 46.9862 114.577 48.8618 111.423C50.7374 108.268 53.8279 108.226 57.3872 108.226C58.0266 108.226 58.7939 108.226 60.158 108.226C61.0105 110.57 64.3354 117.305 76.4841 119.991Z" fill="#CBBD9F"/>
<path d="M121.669 95.0531C120.284 106.754 90.7003 114.235 76.4841 102.129C79.5758 100.236 82.4369 97.9906 85.0096 95.4367C87.7449 95.7139 90.5012 95.7139 93.2366 95.4367H93.4071C99.0978 95.0104 108.582 93.7316 111.225 88.659C113.463 84.3963 110.074 78.7908 109.222 74.592C113.111 77.3879 116.474 80.8518 119.154 84.8226C121.175 87.8283 122.066 91.4528 121.669 95.0531Z" fill="#2D6B67"/>
<path d="M82.0689 86.8692C81.3739 88.0565 81.1009 89.444 81.2944 90.8061C81.4879 92.1682 82.1364 93.4248 83.1346 94.3716C77.1951 100.021 69.8255 103.942 61.821 105.71C58.9437 87.2742 73.9911 83.523 83.6888 75.1467L85.0955 82.777C83.9061 83.9977 82.8878 85.3744 82.0689 86.8692Z" fill="#C93112"/>
<path d="M102.743 91.43C99.034 87.1673 103.147 82.1586 102.06 67.8572C101.506 60.5253 100.995 52.5114 96.9453 47.0552C105.982 51.5737 104.107 67.9424 106.366 75.7432C108.561 83.885 112.057 88.3182 102.743 91.43Z" fill="#CBBD9F"/>
<path d="M100.484 92.027C97.9909 92.6297 95.4533 93.0288 92.896 93.2206C88.9743 85.3772 97.5423 84.1197 97.4571 69.392C97.4571 60.6108 96.2848 49.7623 89.6562 44.0715C99.0982 48.0998 99.2687 59.5239 100.057 69.6478C100.995 81.626 97.0734 87.0397 100.484 92.027Z" fill="#CBBD9F"/>
<path d="M90.5941 93.3914C89.1021 93.3914 87.4823 93.5192 85.7772 93.5619C85.2114 93.5816 84.6498 93.4593 84.1434 93.2062C83.6371 92.953 83.2022 92.577 82.8786 92.1125C82.526 91.4575 82.3415 90.7251 82.3415 89.9812C82.3415 89.2373 82.526 88.5049 82.8786 87.8498C83.5722 86.6022 84.4327 85.4549 85.4362 84.4397C91.5319 77.4701 92.7894 73.1861 92.3845 63.9787C92.0648 63.3393 92.5976 44.7965 76.6551 44.7965C74.6729 44.7965 75.1631 43.0274 76.1436 42.793C91.6172 41.3223 95.0913 53.7695 95.3258 69.4776C95.411 83.4166 86.6085 85.3988 90.5941 93.3914Z" fill="#CBBD9F"/>
<path d="M109.947 40.6611C108.675 41.8436 107.532 43.1583 106.537 44.5828C102.587 41.1369 97.9453 38.5748 92.9242 37.0677C87.9032 35.5607 82.6181 35.1435 77.4229 35.8442C77.6043 34.3311 77.6613 32.8056 77.5934 31.2831C78.7869 32.0436 80.2139 32.35 81.6144 32.1465C83.0149 31.9431 84.2958 31.2434 85.2237 30.1748C88.3781 34.7785 90.7225 34.4375 95.3688 31.8373C97.9691 36.5262 99.6316 38.0608 104.875 35.8016C105.085 37.0494 105.692 38.1962 106.606 39.0716C107.52 39.947 108.692 40.5044 109.947 40.6611Z" fill="#CBBD9F"/>
<path d="M137.228 168.138C136.274 166.388 134.866 164.928 133.151 163.912C131.437 162.895 129.481 162.36 127.488 162.362C127.108 160.295 126.923 158.197 126.934 156.096C127.514 157.16 128.184 158.172 128.937 159.122C129.333 159.518 129.803 159.832 130.321 160.047C130.838 160.261 131.393 160.371 131.953 160.371C132.513 160.371 133.068 160.261 133.585 160.047C134.103 159.832 134.573 159.518 134.969 159.122C135.365 158.726 135.679 158.256 135.893 157.739C136.108 157.221 136.218 156.666 136.218 156.106C136.218 155.546 136.108 154.992 135.893 154.474C135.679 153.957 135.365 153.487 134.969 153.09C132.698 151.482 130.304 150.057 127.808 148.828C128.121 148.475 128.295 148.021 128.298 147.549C128.822 147.478 129.323 147.284 129.76 146.984C130.196 146.684 130.556 146.286 130.811 145.822C131.066 145.358 131.208 144.841 131.227 144.311C131.246 143.782 131.141 143.256 130.919 142.775C131.16 142.333 131.286 141.839 131.286 141.336C131.286 140.833 131.16 140.339 130.919 139.897C131.16 139.46 131.286 138.969 131.286 138.469C131.286 137.97 131.16 137.479 130.919 137.041C132.07 134.91 130.642 131.926 126.081 131.99C131.154 127.727 129.939 118.392 128.212 111.934C126.663 106.025 124.461 100.306 121.648 94.8832C122.055 90.8945 121.069 86.8878 118.856 83.5443C115.641 78.714 111.434 74.6235 106.515 71.5448C105.663 65.6836 105.748 58.437 103.169 52.5118C103.442 52.4505 103.68 52.2843 103.832 52.049C103.983 51.8137 104.036 51.5283 103.979 51.2543C103.979 47.8015 106.728 44.4553 109.243 42.1108C110.016 41.3424 110.842 40.6302 111.716 39.9794L111.396 38.0612H110.757C107.347 39.1695 105.023 37.9333 104.512 33.9264L102.977 33.1164C102.17 33.5261 101.337 33.8821 100.484 34.1821C97.6915 35.1199 96.9029 34.1822 94.5158 29.685L93.0451 29.2587C88.7824 31.7524 87.5675 32.1361 85.8198 30.2178C85.166 29.434 84.5745 28.6002 84.0507 27.7241H82.3243C79.788 30.8146 77.1665 30.708 74.822 27.9373L72.9678 28.7685C73.1809 30.1797 73.2948 31.6041 73.3087 33.0312C73.3094 35.3775 72.9056 37.7063 72.1152 39.9155C72.0112 40.2632 71.9978 40.6317 72.0762 40.986C72.1545 41.3403 72.322 41.6688 72.5628 41.9403C72.1594 42.585 72.006 43.355 72.1317 44.1051C72.2574 44.8551 72.6534 45.5332 73.2449 46.0112C72.7593 47.6876 72.6789 49.4554 73.0103 51.169C73.2732 52.2597 73.2364 53.4012 72.9038 54.4726C72.126 56.5306 71.0487 58.4626 69.7067 60.206L70.2822 61.8258L71.9873 62.3161C72.0398 62.7146 71.9891 63.1199 71.8398 63.4932C71.6905 63.8664 71.4476 64.195 71.1347 64.4474C70.9871 64.527 70.8604 64.6402 70.7647 64.778C70.6691 64.9158 70.6073 65.0742 70.5844 65.2404C70.5616 65.4065 70.5783 65.5757 70.6332 65.7342C70.6881 65.8927 70.7796 66.036 70.9003 66.1525C71.4777 66.5317 72.1212 66.7992 72.7972 66.9411C72.6227 67.0305 72.4762 67.1664 72.3739 67.3337C72.2716 67.5011 72.2174 67.6934 72.2174 67.8895C72.2174 68.0857 72.2716 68.278 72.3739 68.4454C72.4762 68.6127 72.6227 68.7486 72.7972 68.838C72.8781 68.872 72.9507 68.9229 73.0103 68.9872C73.5005 69.4987 73.0103 71.4382 73.6924 72.9941C74.3744 74.55 77.0813 74.7418 79.0634 74.3156C71.5611 80.262 60.3501 84.4182 57.622 95.7996C56.2202 93.8137 54.5241 92.0529 52.592 90.5778C53.8502 89.5608 54.9244 88.3352 55.7677 86.9545C56.0115 86.4265 56.1446 85.8541 56.1589 85.2727C56.1732 84.6913 56.0684 84.113 55.8508 83.5736C55.6333 83.0342 55.3077 82.5451 54.894 82.1362C54.4804 81.7274 53.9874 81.4074 53.4455 81.1962C52.9036 80.985 52.3243 80.8869 51.7431 80.908C51.1618 80.9291 50.591 81.0688 50.0658 81.3187C49.5407 81.5686 49.0722 81.9234 48.6893 82.3611C48.3063 82.7989 48.0169 83.3103 47.839 83.8641C47.8377 81.4023 47.595 78.9466 47.1144 76.5322C47.6964 76.573 48.2794 76.4709 48.813 76.2349C49.3465 75.999 49.8143 75.6362 50.1756 75.1782C50.537 74.7202 50.7811 74.1808 50.8864 73.607C50.9918 73.0332 50.9553 72.4423 50.7803 71.8858C51.3658 71.5819 51.8567 71.1231 52.1993 70.5593C52.5419 69.9955 52.723 69.3485 52.723 68.6888C52.723 68.0291 52.5419 67.3821 52.1993 66.8183C51.8567 66.2545 51.3658 65.7957 50.7803 65.4918C50.1602 63.9622 49.0978 62.6526 47.729 61.7305C46.3601 60.8084 44.7472 60.3158 43.0968 60.3158C41.4464 60.3158 39.8335 60.8084 38.4646 61.7305C37.0958 62.6526 36.0334 63.9622 35.4133 65.4918C34.8215 65.7903 34.3241 66.2472 33.9766 66.8117C33.6291 67.3761 33.4451 68.0259 33.4451 68.6888C33.4451 69.3516 33.6291 70.0015 33.9766 70.566C34.3241 71.1304 34.8215 71.5873 35.4133 71.8858C35.2203 72.513 35.2021 73.181 35.361 73.8177C35.5199 74.4544 35.8498 75.0355 36.3149 75.4984C36.78 75.9613 37.3627 76.2884 38.0001 76.4443C38.6375 76.6002 39.3055 76.579 39.9318 76.383C40.1651 76.8332 40.4918 77.2284 40.8902 77.542C41.2887 77.8557 41.7496 78.0806 42.242 78.2017C42.7344 78.3228 43.247 78.3372 43.7454 78.2441C44.2439 78.151 44.7168 77.9525 45.1323 77.6618C45.5194 79.7708 45.7048 81.9118 45.6863 84.0559C45.1135 82.9873 44.4428 81.9741 43.6828 81.0294C42.883 80.2295 41.7982 79.7801 40.667 79.7801C39.5358 79.7801 38.4511 80.2295 37.6512 81.0294C36.8513 81.8292 36.402 82.914 36.402 84.0452C36.402 85.1764 36.8513 86.2612 37.6512 87.0611C39.9248 88.6646 42.319 90.0898 44.8125 91.3238C44.5129 91.6845 44.3406 92.134 44.3223 92.6026C43.7976 92.674 43.2969 92.8674 42.8604 93.1673C42.4239 93.4672 42.0638 93.8652 41.8089 94.3294C41.554 94.7936 41.4114 95.311 41.3926 95.8403C41.3739 96.3695 41.4794 96.8958 41.7007 97.3769C41.4691 97.821 41.3482 98.3146 41.3482 98.8155C41.3482 99.3165 41.4691 99.81 41.7007 100.254C41.4638 100.693 41.3398 101.184 41.3398 101.682C41.3398 102.181 41.4638 102.672 41.7007 103.11C40.5498 105.242 42.0204 108.225 46.5389 108.162C40.8908 112.936 42.9796 124.061 45.1323 131.138C46.6385 135.981 48.5713 140.681 50.9082 145.183C50.4935 149.172 51.4807 153.181 53.7002 156.522C56.9098 161.35 61.1091 165.44 66.0195 168.522C66.8721 174.383 66.7868 181.629 69.3658 187.555C69.0938 187.625 68.8588 187.797 68.7084 188.034C68.5581 188.272 68.5036 188.557 68.5559 188.833C68.5559 192.244 65.8063 195.611 63.2913 197.956C62.5247 198.73 61.6981 199.443 60.819 200.087L61.1386 202.005H61.7782C65.1883 200.918 67.5115 202.133 68.0443 206.14L69.5575 206.95C70.3644 206.54 71.1974 206.184 72.0512 205.884C74.8006 204.968 75.6106 205.884 78.0191 210.381L79.4897 210.808C81.0219 209.767 82.7465 209.042 84.5624 208.676C84.9838 208.715 85.392 208.843 85.7597 209.053C86.1273 209.262 86.4458 209.548 86.6937 209.891C87.3544 210.67 87.9462 211.504 88.4626 212.385H90.189C92.704 209.316 95.3256 209.38 97.6915 212.193L99.5671 211.34C99.3437 209.93 99.2297 208.505 99.226 207.078C99.2166 204.731 99.6208 202.4 100.42 200.193C100.521 199.844 100.531 199.474 100.449 199.12C100.367 198.766 100.195 198.438 99.9507 198.169C100.356 197.526 100.513 196.758 100.392 196.008C100.27 195.258 99.878 194.579 99.29 194.098C100.441 189.665 98.7146 188.428 99.6097 185.572C100.388 183.514 101.465 181.582 102.807 179.839L102.231 178.219L100.526 177.729C100.474 177.33 100.524 176.925 100.674 176.552C100.823 176.179 101.066 175.85 101.379 175.598C101.526 175.518 101.653 175.405 101.749 175.267C101.844 175.129 101.906 174.971 101.929 174.805C101.952 174.638 101.935 174.469 101.88 174.311C101.825 174.152 101.734 174.009 101.613 173.893C101.036 173.513 100.392 173.246 99.7163 173.104C99.8908 173.014 100.037 172.879 100.14 172.711C100.242 172.544 100.296 172.352 100.296 172.155C100.296 171.959 100.242 171.767 100.14 171.6C100.037 171.432 99.8908 171.296 99.7163 171.207C99.6431 171.18 99.5773 171.136 99.5244 171.079C99.0129 170.546 99.5244 168.607 98.8423 167.051C98.1603 165.495 95.4536 165.303 93.4501 165.729C100.952 159.783 112.163 155.627 114.892 144.245C116.289 146.242 117.994 148.004 119.943 149.467C118.904 150.346 117.961 151.332 117.129 152.408C116.779 152.91 116.542 153.482 116.432 154.084C116.322 154.686 116.344 155.305 116.495 155.898C116.646 156.491 116.922 157.044 117.306 157.521C117.69 157.997 118.172 158.386 118.719 158.659C119.267 158.933 119.867 159.086 120.478 159.107C121.09 159.128 121.699 159.017 122.264 158.782C122.829 158.547 123.337 158.193 123.753 157.744C124.169 157.295 124.483 156.762 124.674 156.181C124.673 158.637 124.923 161.086 125.42 163.492C124.836 163.451 124.25 163.554 123.714 163.791C123.178 164.028 122.708 164.392 122.345 164.852C121.981 165.312 121.736 165.854 121.629 166.43C121.523 167.006 121.558 167.6 121.733 168.159C121.309 169.164 121.089 170.244 121.086 171.335C121.082 172.426 121.296 173.507 121.715 174.514C122.133 175.522 122.748 176.436 123.523 177.204C124.299 177.972 125.219 178.578 126.23 178.986C127.236 179.411 128.315 179.631 129.406 179.634C130.497 179.637 131.578 179.423 132.586 179.005C133.593 178.586 134.507 177.971 135.275 177.196C136.043 176.421 136.649 175.501 137.058 174.489C137.641 174.197 138.134 173.753 138.484 173.202C138.835 172.652 139.029 172.017 139.047 171.365C139.064 170.713 138.904 170.068 138.584 169.5C138.264 168.931 137.795 168.461 137.228 168.138ZM129.534 163.875C129.911 163.886 130.271 164.039 130.54 164.304C130.809 164.569 130.967 164.926 130.983 165.303C130.994 165.506 131.062 165.701 131.18 165.866C131.297 166.031 131.46 166.16 131.648 166.236C131.836 166.312 132.041 166.333 132.241 166.296C132.44 166.259 132.625 166.166 132.774 166.028C133.047 165.768 133.409 165.624 133.786 165.624C134.163 165.624 134.525 165.768 134.798 166.028C135.079 166.311 135.237 166.694 135.237 167.093C135.237 167.493 135.079 167.876 134.798 168.159C134.698 168.239 134.591 168.31 134.479 168.372C133.11 169.042 131.684 169.584 130.216 169.992C129.733 168.194 129.016 166.467 128.085 164.856C128.191 164.558 128.388 164.302 128.648 164.122C128.908 163.942 129.218 163.849 129.534 163.854V163.875ZM133.456 154.625C133.679 154.816 133.86 155.051 133.988 155.316C134.116 155.58 134.188 155.868 134.199 156.162C134.21 156.455 134.161 156.748 134.054 157.021C133.947 157.295 133.784 157.543 133.576 157.751C133.369 157.959 133.12 158.121 132.847 158.228C132.573 158.336 132.281 158.385 131.987 158.374C131.693 158.362 131.405 158.29 131.141 158.163C130.877 158.035 130.641 157.853 130.45 157.63C128.902 155.292 127.479 152.873 126.188 150.384C128.688 151.652 131.114 153.061 133.456 154.604V154.625ZM125.932 111.444C113.57 115.365 98.7358 119.031 85.8198 119.031C77.2944 119.031 66.872 117.348 61.7142 110.506C61.0816 109.666 60.5588 108.75 60.1583 107.778C64.3921 106.81 68.4827 105.299 72.3283 103.281C85.8624 115.643 115.51 110.527 120.881 98.1015C122.961 102.388 124.652 106.854 125.932 111.444ZM117.108 84.8018C119.115 87.82 119.976 91.456 119.538 95.0537C118.131 107.032 88.143 113.98 74.2892 102.194C77.4368 100.299 80.3487 98.0387 82.9638 95.4586C83.5279 95.6028 84.108 95.6745 84.6902 95.6718C91.2974 95.6718 103.489 95.011 108.135 90.2155C112.206 85.9528 108.583 79.985 107.219 74.5287C111.128 77.3192 114.494 80.8008 117.151 84.8018H117.108ZM88.8463 78.4078C90.6784 74.9524 91.5956 71.0856 91.5105 67.1755C91.5105 54.9416 87.7381 44.8176 75.632 44.8176C75.3714 44.8667 75.104 44.8667 74.8434 44.8176C74.6696 44.7546 74.5202 44.6382 74.4168 44.485C74.3134 44.3318 74.2613 44.1498 74.2679 43.9651C74.2607 43.6996 74.3528 43.441 74.5262 43.24C74.6997 43.0389 74.942 42.9098 75.2057 42.8781C76.0039 42.7624 76.808 42.6913 77.6141 42.6649C79.7427 42.5357 81.8719 42.9081 83.8302 43.7521C85.7886 44.5962 87.5213 45.8883 88.8889 47.5244C93.3435 53.0446 94.1534 62.4439 94.196 69.584C94.2402 72.048 93.9536 74.5068 93.3435 76.8945C91.2122 84.4821 86.2886 87.1677 89.507 93.583C87.8019 93.583 85.7772 93.7322 84.6262 93.7322C84.1805 93.7597 83.7339 93.6929 83.3157 93.5361C82.8976 93.3794 82.5172 93.1362 82.1994 92.8224C81.8816 92.5086 81.6336 92.1313 81.4715 91.7152C81.3094 91.299 81.2368 90.8534 81.2587 90.4073C81.3013 86.1659 85.7132 84.2264 88.8889 78.3225L88.8463 78.4078ZM83.3048 73.0368C85.6262 72.0474 87.6844 70.5293 89.3152 68.6035C89.1539 73.029 87.5354 77.2772 84.7114 80.6883L83.3048 73.0368ZM99.3965 92.0911C96.8927 92.6653 94.3492 93.05 91.7876 93.242C91.0713 92.0913 90.6537 90.7799 90.5727 89.4269C90.5727 84.9937 96.37 81.4982 96.306 69.3921C96.306 60.7175 95.1125 49.4853 88.4626 43.9224C95.0485 46.6506 97.1586 53.0659 98.0964 60.0994C98.5014 63.0407 99.0555 70.0529 99.0555 73.1859C99.1195 82.7131 96.3487 87.6152 99.4605 92.0911H99.3965ZM104.235 70.3299C104.666 73.9832 105.569 77.5652 106.92 80.9867C107.732 82.9346 107.925 85.0849 107.474 87.1463C106.622 89.4269 103.915 90.6631 101.592 91.409C98.3735 87.7005 101.187 83.2033 101.187 73.1433C101.187 69.9889 100.654 63.4457 100.356 60.8454C100.054 55.8886 98.4752 51.0942 95.7732 46.9277C103.446 51.5953 103.254 61.6766 104.299 70.3299H104.235ZM75.3974 31.2622C76.5848 32.032 78.0098 32.348 79.4113 32.1523C80.8127 31.9565 82.0967 31.2622 83.0277 30.1965C86.1182 34.7576 88.5053 34.4592 93.1943 31.8377C95.7733 36.548 97.6276 38.0186 102.679 35.7806C102.891 37.0321 103.497 38.1831 104.41 39.0651C105.322 39.9472 106.493 40.514 107.751 40.6828C106.484 41.8345 105.354 43.1291 104.384 44.5405C100.441 41.0943 95.8083 38.5301 90.7946 37.0194C85.7809 35.5086 80.5023 35.0863 75.3122 35.7806C75.49 34.2814 75.5399 32.7698 75.4614 31.2622H75.3974ZM74.9286 37.9973C79.9722 37.2206 85.1251 37.5688 90.0184 39.0169C94.9117 40.465 99.4242 42.9772 103.233 46.3735C102.772 47.2676 102.414 48.2115 102.167 49.1869C100.757 47.8594 99.2306 46.661 97.6062 45.6062C94.3806 43.6016 90.8547 42.1265 87.1626 41.2369H86.8641C82.7241 40.2966 78.4449 40.1376 74.2465 40.768C74.7794 38.9564 74.7793 38.5514 74.9925 37.9973H74.9286ZM77.0599 72.5892C76.6271 72.6178 76.1958 72.5137 75.8237 72.2908C75.6331 71.9921 75.5366 71.6432 75.5466 71.289C75.5466 70.0955 75.7385 68.3265 74.2892 67.3034H75.0565C75.1964 67.3006 75.3345 67.2703 75.4627 67.2142C75.591 67.1581 75.7068 67.0772 75.8038 66.9763C75.9008 66.8753 75.977 66.7563 76.028 66.6259C76.0789 66.4955 76.1036 66.3564 76.1008 66.2164C76.098 66.0765 76.0677 65.9384 76.0116 65.8102C75.9554 65.682 75.8746 65.566 75.7736 65.4691C75.6727 65.3721 75.5537 65.2959 75.4233 65.245C75.2929 65.194 75.1537 65.1692 75.0138 65.1721C74.526 65.1932 74.0377 65.143 73.5645 65.0229C73.9057 64.4227 74.1027 63.7514 74.14 63.062C74.4083 63.1276 74.6915 63.0865 74.93 62.9473C75.1686 62.8082 75.3438 62.5819 75.4188 62.3161C75.461 62.1818 75.4755 62.0403 75.4617 61.9002C75.4478 61.7601 75.4058 61.6243 75.3381 61.5009C75.2704 61.3774 75.1785 61.2689 75.0678 61.1819C74.9571 61.095 74.8301 61.0312 74.6942 60.9946L72.3283 60.3126C74.0112 58.1802 75.0602 55.6172 75.3549 52.9168C75.3523 52.3523 75.3024 51.7891 75.2057 51.233C76.9922 51.4934 78.7583 51.878 80.4914 52.3839C80.6138 52.4708 80.7532 52.5308 80.9004 52.56C81.0476 52.5893 81.1992 52.5871 81.3456 52.5537C81.4919 52.5202 81.6295 52.4563 81.7493 52.3659C81.8692 52.2756 81.9686 52.161 82.0411 52.0296C82.1136 51.8982 82.1576 51.753 82.17 51.6034C82.1825 51.4538 82.1633 51.3033 82.1136 51.1617C82.0639 51.0201 81.9848 50.8906 81.8815 50.7817C81.7783 50.6728 81.6531 50.5869 81.5144 50.5297C79.5536 49.4427 76.8255 49.6984 75.568 49.1016C75.3982 49.0372 75.2543 48.919 75.1581 48.765C75.0618 48.6111 75.0187 48.4299 75.0351 48.2491C75.0877 47.7662 75.1804 47.2886 75.3122 46.8211H75.4401C85.2656 46.8211 88.6545 54.0464 89.2726 63.8719L88.1004 66.5574C86.9281 69.3708 80.4702 72.5892 77.1026 72.5892H77.0599ZM81.5997 75.3599L82.985 82.9049C81.7941 84.1165 80.7757 85.4863 79.9586 86.9758C79.2564 88.1685 78.9795 89.5641 79.1731 90.9345C79.3666 92.305 80.0192 93.5693 81.0242 94.5208C75.0977 100.184 67.722 104.101 59.7107 105.838C56.7481 87.1037 72.1365 83.3952 81.5997 75.3599ZM50.0344 84.7592C50.1407 84.5003 50.297 84.2649 50.4944 84.0664C50.6917 83.8679 50.9262 83.7102 51.1845 83.6024C51.4427 83.4945 51.7197 83.4386 51.9996 83.4378C52.2795 83.437 52.5569 83.4913 52.8158 83.5976C53.0747 83.704 53.3101 83.8603 53.5086 84.0576C53.7071 84.255 53.8648 84.4895 53.9726 84.7478C54.0805 85.0061 54.1364 85.283 54.1372 85.5629C54.138 85.8428 54.0837 86.1201 53.9773 86.379C52.8323 87.8721 51.5 89.2117 50.013 90.3647C49.7766 88.4675 49.7838 86.548 50.0344 84.6527V84.7592ZM43.2992 61.4848C43.6747 61.4899 44.0341 61.6384 44.3036 61.9C44.5731 62.1616 44.7322 62.5163 44.7485 62.8915C44.7634 63.0919 44.8335 63.2842 44.9511 63.4472C45.0686 63.6102 45.2291 63.7373 45.4146 63.8146C45.6 63.8919 45.8033 63.9163 46.0018 63.885C46.2003 63.8537 46.3862 63.768 46.5389 63.6375C46.6746 63.4902 46.8394 63.3727 47.0228 63.2923C47.2063 63.2119 47.4043 63.1704 47.6046 63.1704C47.8048 63.1704 48.0029 63.2119 48.1863 63.2923C48.3698 63.3727 48.5345 63.4902 48.6703 63.6375C48.9514 63.9209 49.1092 64.304 49.1092 64.7032C49.1092 65.1024 48.9514 65.4854 48.6703 65.7688L48.3505 65.982C46.9783 66.6422 45.5522 67.1841 44.0878 67.6018C43.6006 65.7985 42.8843 64.0651 41.9564 62.4439C42.0436 62.1498 42.2192 61.8897 42.4595 61.699C42.6998 61.5083 42.993 61.3963 43.2992 61.3783V61.4848ZM35.8395 68.9446C35.8391 68.5654 35.9853 68.2007 36.2474 67.9266C36.5095 67.6526 36.8674 67.4904 37.2462 67.4739C37.4447 67.4602 37.6352 67.3911 37.7965 67.2746C37.9578 67.1581 38.0833 66.9989 38.1587 66.8148C38.2341 66.6307 38.2564 66.4292 38.2232 66.233C38.19 66.0369 38.1026 65.8539 37.9708 65.7049C37.7166 65.4198 37.5833 65.0469 37.5992 64.6653C37.615 64.2836 37.7787 63.9231 38.0556 63.66C38.3326 63.3969 38.701 63.2519 39.0829 63.2556C39.4649 63.2594 39.8305 63.4116 40.1022 63.6801C40.1903 63.7742 40.2624 63.8822 40.3154 63.9998C40.9859 65.3676 41.5282 66.7946 41.9352 68.2625C40.1422 68.7598 38.417 69.4756 36.7986 70.3939C36.4866 70.2808 36.2221 70.0655 36.048 69.783C35.8739 69.5005 35.8004 69.1675 35.8395 68.838V68.9446ZM43.2992 76.4043C42.92 76.4047 42.5553 76.2585 42.2813 75.9964C42.0072 75.7343 41.8451 75.3765 41.8286 74.9976C41.8185 74.7973 41.7522 74.604 41.6372 74.4397C41.5222 74.2755 41.3632 74.147 41.1784 74.0691C40.9936 73.9912 40.7906 73.967 40.5927 73.9993C40.3948 74.0316 40.2101 74.119 40.0596 74.2516C39.777 74.5343 39.3937 74.693 38.994 74.693C38.5943 74.693 38.2109 74.5343 37.9283 74.2516C37.6456 73.969 37.4868 73.5857 37.4868 73.1859C37.4868 72.7862 37.6456 72.4029 37.9283 72.1203L38.2479 71.8858C39.6219 71.2297 41.0476 70.6879 42.5106 70.266C42.9979 72.0693 43.7141 73.8027 44.642 75.4239C44.5266 75.6838 44.3383 75.9046 44.1 76.0597C43.8617 76.2148 43.5835 76.2975 43.2992 76.2977V76.4043ZM44.6206 69.6692C46.4201 69.1907 48.1476 68.4739 49.7573 67.5379C50.0495 67.6395 50.3029 67.8295 50.4824 68.0815C50.6619 68.3336 50.7585 68.6352 50.759 68.9446C50.7591 69.3273 50.6101 69.6951 50.3435 69.9697C50.0768 70.2443 49.7136 70.4041 49.331 70.4152C49.1325 70.4289 48.9418 70.498 48.7806 70.6145C48.6193 70.731 48.494 70.8903 48.4185 71.0744C48.3431 71.2584 48.3207 71.46 48.3539 71.6561C48.3871 71.8523 48.4745 72.0352 48.6063 72.1842C48.8605 72.4693 48.9939 72.8422 48.9781 73.2238C48.9622 73.6055 48.7985 73.9661 48.5216 74.2292C48.2446 74.4923 47.8761 74.6373 47.4941 74.6335C47.1122 74.6297 46.7466 74.4775 46.4749 74.209C46.395 74.1086 46.3237 74.0017 46.2618 73.8893C45.5898 72.4976 45.0406 71.0499 44.6206 69.5626V69.6692ZM39.3563 85.6757C39.0071 85.268 38.8245 84.7435 38.8453 84.2071C38.866 83.6707 39.0884 83.1618 39.468 82.7823C39.8476 82.4027 40.3564 82.1803 40.8928 82.1596C41.4293 82.1389 41.9537 82.3213 42.3614 82.6705C43.9174 85.0113 45.3405 87.4378 46.6241 89.9384C44.1251 88.6129 41.6991 87.1544 39.3563 85.5691V85.6757ZM46.5816 106.179C45.4946 106.179 43.7256 105.902 43.6616 104.794C45.1657 105.334 46.7933 105.43 48.3505 105.071C48.4887 105.048 48.6209 104.997 48.7392 104.922C48.8575 104.847 48.9594 104.749 49.0389 104.634C49.1185 104.518 49.174 104.388 49.2022 104.251C49.2304 104.114 49.2307 103.972 49.2031 103.835C49.1513 103.558 48.9923 103.314 48.7607 103.154C48.5291 102.994 48.2437 102.933 47.9669 102.982C47.4054 103.094 46.8344 103.151 46.2618 103.153C45.2814 103.153 43.7681 102.897 43.6828 101.938C45.2141 102.493 46.8754 102.582 48.4572 102.194C48.7398 102.143 48.9906 101.982 49.1545 101.746C49.3183 101.51 49.3819 101.219 49.331 100.936C49.2801 100.654 49.119 100.403 48.8832 100.239C48.6474 100.075 48.3561 100.011 48.0734 100.062C47.4759 100.174 46.8696 100.231 46.2618 100.233C45.2814 100.233 43.7681 99.9771 43.6828 99.0393C45.2042 99.57 46.8448 99.6586 48.4145 99.2951C48.691 99.2432 48.9358 99.0842 49.0955 98.8526C49.2552 98.6211 49.3169 98.3357 49.2671 98.0589C49.2441 97.9207 49.1935 97.7885 49.1184 97.6702C49.0433 97.552 48.9451 97.45 48.8298 97.3704C48.7144 97.2909 48.5843 97.2354 48.447 97.2072C48.3098 97.179 48.1682 97.1787 48.0309 97.2063C42.7451 98.1655 42.7663 94.9258 45.4092 94.734C46.5753 95.7164 48.0411 96.2726 49.5654 96.3112L50.4819 99.2311C50.5697 99.4995 50.7605 99.7221 51.0122 99.8499C51.264 99.9778 51.5561 100.001 51.8246 99.9132C51.9592 99.8722 52.0841 99.8045 52.1919 99.7141C52.2996 99.6237 52.388 99.5124 52.4517 99.387C52.5153 99.2616 52.553 99.1247 52.5625 98.9843C52.572 98.844 52.553 98.7032 52.5067 98.5704L51.3771 94.9684L50.354 94.2225C49.3173 94.2555 48.2896 94.0205 47.3702 93.5404C47.1318 93.4133 46.9214 93.2393 46.752 93.0289C46.752 93.0289 46.6241 92.837 46.6455 92.7944C46.6668 92.7518 48.3079 92.4108 48.7768 92.4108C49.8805 92.4173 50.9806 92.5387 52.0592 92.7731C54.0325 94.6238 55.8174 96.6657 57.3876 98.8688C57.1538 101.271 57.2398 103.693 57.6433 106.073C55.2775 106.073 55.107 106.179 52.997 106.201L46.5816 106.179ZM52.9756 108.311C55.107 108.311 55.2987 108.204 58.0908 108.162C58.2592 108.657 58.4585 109.141 58.6877 109.611C61.5863 115.387 67.9377 118.584 74.3317 120.033C64.8422 121.48 55.489 123.711 46.3684 126.704C44.3436 118.222 44.2157 108.353 52.933 108.268L52.9756 108.311ZM46.8799 128.793C59.2417 124.85 74.076 121.184 86.992 121.184C95.5174 121.184 105.961 122.868 111.098 129.71C111.73 130.549 112.253 131.466 112.654 132.438C108.42 133.405 104.329 134.917 100.484 136.935C86.9494 124.573 57.3236 129.688 51.9313 142.114C49.8491 137.816 48.1447 133.344 46.8373 128.75L46.8799 128.793ZM55.7037 155.435C53.711 152.411 52.8505 148.78 53.2739 145.183C54.6806 133.141 84.7115 126.278 98.5227 138.022C95.3751 139.916 92.4632 142.177 89.8481 144.757C89.284 144.613 88.7039 144.541 88.1217 144.544C81.5145 144.544 69.3231 145.204 64.6768 150C60.5846 154.263 64.2079 160.209 65.5932 165.687C61.6625 162.892 58.2749 159.404 55.5972 155.392L55.7037 155.435ZM83.9655 161.829C82.1334 165.284 81.2162 169.151 81.3013 173.061C81.3013 197.87 96.6897 195.014 97.9899 195.526C98.1596 195.592 98.3043 195.71 98.4037 195.863C98.5031 196.016 98.5522 196.196 98.5441 196.378C98.5563 196.645 98.4658 196.906 98.2914 197.109C98.117 197.311 97.8719 197.438 97.6062 197.465C96.808 197.581 96.0039 197.652 95.1978 197.678C93.0696 197.804 90.9414 197.43 88.9836 196.587C87.0259 195.743 85.2927 194.452 83.9228 192.819C79.4683 187.299 78.6797 177.899 78.6158 170.759C78.6158 156.671 87.3331 154.817 83.3261 146.76C85.0099 146.76 87.0559 146.611 88.1856 146.611C90.8924 146.611 92.4483 149.062 90.9776 152.387C89.8906 154.71 86.3952 157.268 83.9228 161.85L83.9655 161.829ZM89.4858 167.115C87.1675 168.11 85.1104 169.627 83.4753 171.548C83.6475 167.121 85.2728 162.874 88.1004 159.463L89.4858 167.115ZM73.4153 148.06C75.9185 147.483 78.4623 147.099 81.0242 146.91C81.7242 148.066 82.1337 149.375 82.2178 150.725C82.2178 154.987 76.3566 158.888 76.4844 170.781C76.4844 179.455 77.6993 190.666 84.3278 196.229C77.7419 193.501 75.632 187.086 74.6942 180.052C74.2892 177.09 73.735 170.077 73.735 166.966C73.6924 157.46 76.4632 152.558 73.3727 148.082L73.4153 148.06ZM68.5772 169.822C68.13 166.169 67.2204 162.588 65.8703 159.165C65.049 157.219 64.8553 155.066 65.3162 153.005C66.1687 150.725 68.8969 149.488 71.1987 148.743C74.4384 152.451 71.6037 156.948 71.6037 167.008C71.6037 170.141 72.1364 176.685 72.4561 179.306C72.7601 184.259 74.3306 189.052 77.0173 193.224C69.3657 188.578 69.5576 178.496 68.5345 169.843L68.5772 169.822ZM97.4144 208.889C96.2237 208.118 94.7952 207.801 93.3901 207.997C91.985 208.193 90.6974 208.888 89.7629 209.955C86.6937 205.437 84.3279 205.692 79.6176 208.335C77.0173 203.625 75.1843 202.133 70.1117 204.371C69.9044 203.121 69.302 201.971 68.3929 201.088C67.4837 200.206 66.3158 199.639 65.0604 199.469C66.3157 198.305 67.4445 197.012 68.428 195.611C72.3665 199.057 76.9959 201.621 82.0061 203.132C87.0163 204.642 92.2916 205.065 97.4784 204.371C97.3029 205.878 97.2672 207.397 97.3717 208.911L97.4144 208.889ZM97.862 202.154C92.8184 202.931 87.6654 202.583 82.7721 201.135C77.8788 199.687 73.3662 197.174 69.5575 193.778C70.0257 192.885 70.3904 191.941 70.6445 190.965C72.0458 192.294 73.5653 193.492 75.1843 194.545C78.4081 196.554 81.9346 198.029 85.628 198.915H85.9263C90.068 199.842 94.3449 200.001 98.5441 199.384C97.9473 201.643 97.9472 201.643 97.8193 202.176L97.862 202.154ZM95.7306 167.562C96.1697 167.54 96.606 167.643 96.9881 167.861C97.1689 168.164 97.2646 168.51 97.2652 168.863C97.2652 170.077 97.0734 171.825 98.5014 172.848H97.7341C97.4515 172.848 97.1804 172.96 96.9805 173.16C96.7807 173.36 96.6684 173.631 96.6684 173.914C96.6684 174.196 96.7807 174.468 96.9805 174.667C97.1804 174.867 97.4515 174.98 97.7341 174.98C98.2146 174.966 98.6948 175.016 99.1621 175.129C98.8304 175.733 98.634 176.402 98.5866 177.09C98.304 177.016 98.0038 177.058 97.7519 177.206C97.5001 177.354 97.3173 177.596 97.2438 177.878C97.1703 178.161 97.2122 178.461 97.3601 178.713C97.508 178.965 97.7498 179.147 98.0324 179.221L100.398 179.903C98.7153 182.035 97.6664 184.598 97.3717 187.299C97.3849 187.863 97.4348 188.425 97.5209 188.983C95.7344 188.722 93.9682 188.338 92.2352 187.832C91.9892 187.694 91.6985 187.659 91.4268 187.735C91.1551 187.81 90.9247 187.991 90.7859 188.237C90.7184 188.36 90.6758 188.495 90.6607 188.634C90.6456 188.774 90.6582 188.915 90.6978 189.05C90.7374 189.184 90.8032 189.31 90.8915 189.419C90.9798 189.528 91.0888 189.619 91.2122 189.686C93.173 190.773 95.9011 190.517 97.1586 191.114C97.3283 191.178 97.4723 191.297 97.5685 191.45C97.6647 191.604 97.7079 191.786 97.6915 191.966C97.6387 192.448 97.5533 192.925 97.4357 193.394H97.3078C87.5036 193.394 84.0721 186.233 83.454 176.344L84.6262 173.679C85.8837 170.802 92.3418 167.584 95.7093 167.584L95.7306 167.562ZM91.2122 164.877L89.8267 157.332C91.024 156.121 92.0495 154.751 92.8746 153.261C93.5734 152.065 93.8503 150.669 93.6609 149.297C93.4716 147.925 92.8269 146.656 91.8302 145.695C97.7575 140.028 105.132 136.105 113.144 134.356C116.064 153.069 100.697 156.778 91.2122 164.877ZM114.657 132.011C114.492 131.522 114.292 131.045 114.06 130.583C111.162 124.786 104.81 121.589 98.4162 120.14C107.912 118.691 117.272 116.46 126.401 113.469C128.362 121.994 128.532 131.777 119.772 131.862C117.641 131.926 117.577 132.011 114.764 132.054L114.657 132.011ZM122.671 155.456C122.511 155.846 122.24 156.179 121.891 156.414C121.542 156.649 121.131 156.776 120.71 156.778C120.359 156.779 120.013 156.695 119.703 156.531C119.393 156.367 119.128 156.129 118.932 155.838C118.736 155.547 118.615 155.212 118.579 154.863C118.543 154.514 118.595 154.161 118.728 153.836C119.879 152.348 121.21 151.009 122.692 149.851C122.961 151.729 122.989 153.634 122.778 155.52L122.671 155.456ZM125.293 147.677C123.76 147.821 122.214 147.728 120.71 147.4C118.736 145.556 116.957 143.514 115.403 141.304C115.62 138.908 115.527 136.494 115.126 134.121C117.47 134.121 117.747 133.994 119.772 133.972H126.166C127.016 133.917 127.862 134.118 128.596 134.548C128.737 134.633 128.855 134.752 128.941 134.893C129.026 135.034 129.076 135.193 129.086 135.358C127.582 134.818 125.955 134.721 124.397 135.081C124.259 135.104 124.127 135.154 124.009 135.229C123.89 135.304 123.789 135.402 123.709 135.518C123.629 135.633 123.574 135.763 123.546 135.901C123.517 136.038 123.517 136.179 123.545 136.317C123.597 136.593 123.756 136.838 123.987 136.998C124.219 137.157 124.504 137.219 124.781 137.169C126.068 136.82 127.439 136.949 128.639 137.532C128.76 137.601 128.863 137.7 128.937 137.819C129.012 137.938 129.056 138.074 129.065 138.214C127.531 137.675 125.874 137.586 124.291 137.958C124.014 138.01 123.769 138.169 123.61 138.4C123.45 138.632 123.388 138.917 123.438 139.194C123.495 139.472 123.658 139.717 123.893 139.876C124.128 140.036 124.416 140.097 124.696 140.047C126.009 139.692 127.406 139.813 128.639 140.388C128.757 140.461 128.857 140.561 128.931 140.679C129.005 140.798 129.05 140.931 129.065 141.07C127.544 140.539 125.903 140.45 124.333 140.814C124.051 140.865 123.8 141.026 123.636 141.262C123.472 141.497 123.409 141.789 123.46 142.071C123.51 142.354 123.672 142.605 123.907 142.769C124.143 142.933 124.434 142.996 124.717 142.945C130.067 141.944 129.939 145.204 127.339 145.396C126.144 144.391 124.637 143.833 123.076 143.819L122.159 140.92C122.127 140.776 122.065 140.64 121.978 140.521C121.891 140.402 121.779 140.303 121.651 140.229C121.523 140.155 121.381 140.109 121.235 140.093C121.088 140.077 120.939 140.091 120.798 140.136C120.657 140.18 120.527 140.254 120.416 140.351C120.305 140.449 120.216 140.568 120.153 140.702C120.091 140.836 120.057 140.981 120.054 141.129C120.051 141.277 120.078 141.423 120.135 141.56L121.286 145.162L122.287 145.908C123.324 145.875 124.352 146.11 125.271 146.59C125.514 146.711 125.725 146.886 125.889 147.101C125.944 147.173 125.987 147.252 126.017 147.336C125.843 147.536 125.634 147.703 125.399 147.826L125.293 147.677ZM122.074 171.271C122.074 170.894 122.221 170.532 122.483 170.261C122.746 169.99 123.104 169.833 123.481 169.822C123.679 169.808 123.87 169.739 124.031 169.622C124.192 169.506 124.318 169.347 124.393 169.162C124.469 168.978 124.491 168.777 124.458 168.581C124.425 168.385 124.337 168.202 124.206 168.053C124.064 167.914 123.951 167.748 123.874 167.565C123.797 167.382 123.758 167.185 123.758 166.987C123.758 166.788 123.797 166.592 123.874 166.409C123.951 166.226 124.064 166.06 124.206 165.921C124.489 165.64 124.872 165.482 125.271 165.482C125.67 165.482 126.053 165.64 126.337 165.921C126.425 166.015 126.497 166.123 126.55 166.241C127.219 167.609 127.762 169.036 128.17 170.504C126.373 170.991 124.647 171.707 123.033 172.635C122.752 172.534 122.51 172.349 122.338 172.105C122.166 171.861 122.074 171.569 122.074 171.271ZM129.534 178.731C129.155 178.731 128.79 178.585 128.516 178.323C128.242 178.061 128.08 177.703 128.063 177.324C128.05 177.126 127.98 176.935 127.864 176.774C127.747 176.612 127.588 176.487 127.404 176.412C127.22 176.336 127.019 176.314 126.822 176.347C126.626 176.38 126.443 176.468 126.294 176.599C126.155 176.741 125.99 176.854 125.807 176.931C125.624 177.008 125.427 177.047 125.229 177.047C125.03 177.047 124.834 177.008 124.651 176.931C124.468 176.854 124.302 176.741 124.163 176.599C123.882 176.316 123.724 175.933 123.724 175.534C123.724 175.134 123.882 174.751 124.163 174.468L124.483 174.255C125.851 173.585 127.278 173.043 128.745 172.635C129.233 174.431 129.949 176.158 130.877 177.772C130.784 178.057 130.605 178.307 130.365 178.486C130.124 178.666 129.834 178.766 129.534 178.773V178.731ZM135.566 172.742C135.367 172.755 135.177 172.824 135.015 172.941C134.854 173.057 134.729 173.217 134.653 173.401C134.578 173.585 134.555 173.786 134.589 173.983C134.622 174.179 134.709 174.362 134.841 174.511C134.983 174.65 135.095 174.815 135.172 174.998C135.249 175.181 135.289 175.378 135.289 175.576C135.289 175.775 135.249 175.971 135.172 176.154C135.095 176.337 134.983 176.503 134.841 176.642C134.558 176.923 134.175 177.081 133.775 177.081C133.376 177.081 132.993 176.923 132.71 176.642C132.63 176.542 132.558 176.435 132.497 176.322C131.836 174.95 131.294 173.524 130.877 172.06C132.673 171.572 134.399 170.856 136.013 169.928C136.335 170.042 136.608 170.264 136.784 170.557C136.96 170.849 137.029 171.194 136.978 171.532C136.928 171.87 136.761 172.18 136.508 172.408C136.254 172.637 135.928 172.77 135.587 172.784L135.566 172.742ZM79.8307 54.0464V55.7088C79.8335 55.8478 79.8087 55.9859 79.7574 56.115C79.7062 56.2442 79.6297 56.3619 79.5324 56.4611C79.4351 56.5604 79.319 56.6392 79.1909 56.693C79.0628 56.7469 78.9253 56.7745 78.7863 56.7745C78.5017 56.7746 78.2284 56.663 78.0252 56.4637C77.8219 56.2644 77.7049 55.9934 77.6993 55.7088V54.0464C77.6993 53.7637 77.8116 53.4927 78.0114 53.2928C78.2113 53.093 78.4824 52.9807 78.765 52.9807C79.0476 52.9807 79.3187 53.093 79.5186 53.2928C79.7185 53.4927 79.8307 53.7637 79.8307 54.0464ZM70.879 108.822C70.879 109.105 70.7667 109.376 70.5669 109.576C70.367 109.776 70.0959 109.888 69.8133 109.888C69.5306 109.888 69.2597 109.776 69.0598 109.576C68.86 109.376 68.7476 109.105 68.7476 108.822C68.7476 108.54 68.86 108.269 69.0598 108.069C69.2597 107.869 69.5306 107.757 69.8133 107.757C70.0979 107.762 70.3689 107.879 70.5682 108.082C70.7674 108.286 70.879 108.559 70.879 108.844V108.822ZM115.275 109.312C115.376 109.573 115.372 109.862 115.265 110.12C115.158 110.378 114.955 110.585 114.7 110.698C114.436 110.799 114.144 110.796 113.882 110.689C113.621 110.582 113.41 110.379 113.293 110.122C113.186 109.86 113.187 109.565 113.297 109.303C113.407 109.041 113.616 108.834 113.879 108.726C114.142 108.619 114.437 108.62 114.698 108.73C114.96 108.84 115.168 109.05 115.275 109.312ZM109.073 111.593C109.112 111.727 109.124 111.868 109.109 112.007C109.094 112.146 109.052 112.281 108.984 112.404C108.917 112.527 108.826 112.635 108.717 112.722C108.608 112.81 108.483 112.875 108.348 112.914C108.066 112.994 107.763 112.957 107.507 112.813C107.252 112.669 107.063 112.43 106.984 112.147C106.905 111.865 106.941 111.562 107.085 111.306C107.229 111.05 107.469 110.862 107.751 110.783C107.891 110.748 108.037 110.742 108.18 110.764C108.322 110.786 108.459 110.836 108.582 110.911C108.705 110.987 108.812 111.086 108.896 111.203C108.98 111.32 109.04 111.452 109.073 111.593ZM96.0929 114.364C96.1041 114.504 96.0876 114.644 96.0444 114.778C96.0012 114.912 95.9321 115.035 95.8411 115.142C95.6572 115.358 95.3951 115.492 95.1125 115.515C94.8298 115.537 94.5499 115.447 94.334 115.263C94.1182 115.079 93.9842 114.817 93.9616 114.534C93.939 114.252 94.0296 113.972 94.2134 113.756C94.3973 113.54 94.6594 113.406 94.9421 113.383C95.2247 113.361 95.5047 113.451 95.7205 113.635C95.9363 113.819 96.0703 114.081 96.0929 114.364ZM102.615 113.277C102.646 113.414 102.649 113.556 102.623 113.695C102.598 113.833 102.545 113.965 102.467 114.083C102.39 114.2 102.289 114.301 102.172 114.378C102.054 114.456 101.922 114.509 101.784 114.534C101.507 114.585 101.222 114.527 100.987 114.372C100.753 114.217 100.588 113.977 100.526 113.703C100.498 113.564 100.498 113.422 100.526 113.283C100.554 113.144 100.61 113.013 100.689 112.896C100.768 112.779 100.87 112.679 100.989 112.601C101.107 112.524 101.24 112.471 101.379 112.446C101.517 112.411 101.662 112.406 101.803 112.43C101.944 112.453 102.079 112.506 102.198 112.584C102.318 112.662 102.421 112.763 102.5 112.883C102.579 113.002 102.633 113.136 102.658 113.277H102.615ZM89.4858 114.62C89.4803 114.759 89.4472 114.897 89.3885 115.024C89.3298 115.151 89.2466 115.266 89.1437 115.361C89.0407 115.456 88.9201 115.53 88.7886 115.578C88.6572 115.626 88.5174 115.648 88.3774 115.643C88.0948 115.643 87.8237 115.53 87.6238 115.33C87.424 115.131 87.3118 114.86 87.3118 114.577C87.3118 114.294 87.424 114.023 87.6238 113.823C87.8237 113.623 88.0948 113.511 88.3774 113.511C88.528 113.499 88.6795 113.519 88.8218 113.57C88.9641 113.62 89.094 113.701 89.2028 113.806C89.3117 113.911 89.397 114.037 89.4531 114.178C89.5093 114.318 89.5349 114.469 89.5283 114.62H89.4858ZM76.4844 112.488C76.3799 112.751 76.1752 112.962 75.9154 113.073C75.6556 113.185 75.362 113.19 75.0991 113.085C74.8363 112.98 74.6257 112.776 74.5137 112.516C74.4018 112.256 74.3977 111.962 74.5023 111.7C74.5541 111.569 74.631 111.451 74.7286 111.35C74.8263 111.25 74.9428 111.17 75.0714 111.114C75.2001 111.059 75.3383 111.029 75.4783 111.027C75.6184 111.025 75.7576 111.051 75.8877 111.103C76.0179 111.155 76.1365 111.231 76.2369 111.329C76.3373 111.427 76.4176 111.543 76.473 111.672C76.5284 111.801 76.5579 111.939 76.5599 112.079C76.5619 112.219 76.5362 112.358 76.4844 112.488ZM82.8785 114.087C82.8533 114.227 82.8008 114.36 82.724 114.48C82.6471 114.6 82.5475 114.703 82.4307 114.784C82.314 114.865 82.1824 114.923 82.0435 114.953C81.9045 114.983 81.761 114.986 81.6211 114.961C81.4811 114.935 81.3475 114.883 81.2278 114.806C81.1082 114.729 81.0048 114.63 80.9237 114.513C80.8425 114.396 80.7851 114.264 80.7548 114.125C80.7245 113.987 80.722 113.843 80.7471 113.703C80.7701 113.565 80.8207 113.433 80.8958 113.314C80.971 113.196 81.0692 113.094 81.1845 113.015C81.2998 112.935 81.43 112.88 81.5672 112.851C81.7045 112.823 81.846 112.823 81.9834 112.85C82.1298 112.863 82.2719 112.906 82.401 112.976C82.53 113.047 82.6431 113.143 82.7332 113.259C82.8233 113.375 82.8883 113.508 82.9243 113.651C82.9603 113.793 82.9666 113.942 82.9425 114.087H82.8785ZM119.112 106.712C119.117 106.431 119.231 106.163 119.43 105.965C119.628 105.766 119.896 105.652 120.177 105.647C120.46 105.647 120.731 105.759 120.931 105.959C121.131 106.158 121.243 106.43 121.243 106.712C121.243 106.995 121.131 107.266 120.931 107.466C120.731 107.666 120.46 107.778 120.177 107.778C120.036 107.781 119.895 107.755 119.763 107.703C119.631 107.651 119.511 107.573 119.41 107.473C119.309 107.374 119.228 107.256 119.173 107.125C119.118 106.994 119.09 106.854 119.09 106.712H119.112ZM93.0024 186.19V184.549C93.0024 184.267 93.1148 183.996 93.3147 183.796C93.5145 183.596 93.7855 183.484 94.0681 183.484C94.3508 183.484 94.6219 183.596 94.8217 183.796C95.0216 183.996 95.1338 184.267 95.1338 184.549V186.19C95.1338 186.473 95.0216 186.744 94.8217 186.944C94.6219 187.144 94.3508 187.256 94.0681 187.256C93.9274 187.259 93.7875 187.233 93.6569 187.181C93.5263 187.128 93.4077 187.05 93.3082 186.95C93.2086 186.851 93.1302 186.732 93.0776 186.602C93.0251 186.471 92.9995 186.331 93.0024 186.19ZM101.954 131.415C101.954 131.132 102.066 130.861 102.266 130.661C102.466 130.461 102.737 130.349 103.02 130.349C103.302 130.349 103.574 130.461 103.773 130.661C103.973 130.861 104.086 131.132 104.086 131.415C104.08 131.696 103.966 131.963 103.767 132.162C103.569 132.361 103.301 132.475 103.02 132.48C102.872 132.481 102.727 132.451 102.591 132.392C102.456 132.333 102.335 132.247 102.235 132.139C102.134 132.03 102.058 131.903 102.009 131.763C101.961 131.624 101.942 131.476 101.954 131.329V131.415ZM83.3048 125.553C83.3048 125.271 83.417 125 83.6169 124.8C83.8167 124.6 84.0878 124.488 84.3705 124.488C84.6531 124.488 84.9242 124.6 85.1241 124.8C85.3239 125 85.4362 125.271 85.4362 125.553C85.4362 125.836 85.3239 126.107 85.1241 126.307C84.9242 126.507 84.6531 126.619 84.3705 126.619C84.0878 126.619 83.8167 126.507 83.6169 126.307C83.417 126.107 83.3048 125.836 83.3048 125.553ZM63.7603 128.644C63.6803 128.375 63.7092 128.086 63.8408 127.839C63.9725 127.592 64.1962 127.406 64.4636 127.322C64.5979 127.28 64.7394 127.266 64.8794 127.279C65.0195 127.293 65.1554 127.335 65.2788 127.403C65.4022 127.471 65.5107 127.563 65.5977 127.673C65.6847 127.784 65.7485 127.911 65.7851 128.047C65.848 128.186 65.8803 128.337 65.88 128.489C65.8796 128.641 65.8466 128.792 65.7832 128.93C65.7197 129.069 65.6274 129.192 65.5122 129.292C65.397 129.392 65.2617 129.466 65.1156 129.509C64.9694 129.552 64.8157 129.563 64.6648 129.542C64.5139 129.52 64.3694 129.467 64.241 129.385C64.1125 129.303 64.0031 129.194 63.9202 129.067C63.8373 128.939 63.7828 128.795 63.7603 128.644ZM70.1544 126.981C70.1264 126.841 70.1262 126.697 70.1539 126.557C70.1815 126.417 70.2366 126.284 70.3158 126.165C70.395 126.047 70.4967 125.945 70.6153 125.865C70.7339 125.786 70.8669 125.731 71.0068 125.703C71.1468 125.675 71.2909 125.674 71.4309 125.702C71.5709 125.73 71.7041 125.785 71.8229 125.864C71.9416 125.943 72.0436 126.045 72.123 126.164C72.2024 126.282 72.2577 126.415 72.2857 126.555C72.3423 126.838 72.2842 127.131 72.1243 127.371C71.9644 127.611 71.7158 127.777 71.4331 127.834C71.1505 127.89 70.857 127.832 70.6172 127.673C70.3774 127.513 70.2109 127.264 70.1544 126.981ZM96.2848 127.77C96.3365 127.64 96.4133 127.521 96.5109 127.42C96.6085 127.32 96.725 127.24 96.8537 127.184C96.9824 127.129 97.1208 127.099 97.2609 127.097C97.401 127.096 97.54 127.121 97.6701 127.173C97.8003 127.225 97.919 127.302 98.0194 127.4C98.1198 127.497 98.2001 127.614 98.2555 127.742C98.3109 127.871 98.3404 128.009 98.3424 128.149C98.3444 128.289 98.3187 128.428 98.267 128.559C98.2152 128.689 98.1383 128.807 98.0406 128.908C97.943 129.008 97.8265 129.088 97.6978 129.144C97.5692 129.199 97.4308 129.229 97.2908 129.231C97.1507 129.233 97.0117 129.207 96.8815 129.155C96.7406 129.105 96.612 129.025 96.504 128.921C96.396 128.817 96.3111 128.692 96.2548 128.553C96.1985 128.415 96.1721 128.265 96.1772 128.116C96.1824 127.966 96.2191 127.819 96.2848 127.685V127.77ZM57.5366 130.775C57.4571 130.581 57.4367 130.367 57.4781 130.161C57.5195 129.956 57.6208 129.767 57.7692 129.618C57.9177 129.469 58.1068 129.368 58.3126 129.327C58.5185 129.285 58.732 129.306 58.9264 129.385C59.1207 129.465 59.2873 129.6 59.4051 129.774C59.5229 129.947 59.5867 130.152 59.5885 130.362C59.5903 130.572 59.5302 130.778 59.4154 130.954C59.3006 131.13 59.1364 131.268 58.9434 131.351C58.6798 131.452 58.3873 131.449 58.1258 131.342C57.8644 131.235 57.6536 131.032 57.5366 130.775ZM76.7189 125.745C76.6934 125.463 76.7813 125.181 76.9632 124.964C77.145 124.746 77.406 124.609 77.6887 124.584C77.9713 124.558 78.2525 124.646 78.4704 124.828C78.6882 125.01 78.8248 125.271 78.8502 125.553C78.8619 125.693 78.8458 125.834 78.8027 125.968C78.7597 126.102 78.6907 126.226 78.5995 126.333C78.5084 126.44 78.3969 126.528 78.2717 126.591C78.1465 126.655 78.01 126.694 77.8699 126.704C77.5974 126.736 77.3228 126.664 77.1014 126.502C76.8801 126.34 76.7283 126.1 76.6763 125.83L76.7189 125.745ZM89.912 126.001C89.9485 125.794 90.0456 125.602 90.1909 125.45C90.3362 125.298 90.5232 125.192 90.7285 125.146C90.9338 125.1 91.148 125.116 91.3443 125.192C91.5407 125.267 91.7102 125.399 91.8317 125.571C91.9531 125.743 92.021 125.947 92.0268 126.157C92.0326 126.367 91.9759 126.574 91.864 126.753C91.7522 126.931 91.5902 127.072 91.3983 127.158C91.2065 127.244 90.9934 127.272 90.7859 127.237C90.5145 127.2 90.2679 127.06 90.0972 126.845C89.9265 126.631 89.845 126.359 89.8694 126.086L89.912 126.001ZM53.6789 133.375C53.6734 133.656 53.5595 133.924 53.3608 134.123C53.1622 134.322 52.8941 134.436 52.6132 134.441C52.3306 134.441 52.0596 134.329 51.8598 134.129C51.6599 133.929 51.5475 133.658 51.5475 133.375C51.5475 133.093 51.6599 132.822 51.8598 132.622C52.0596 132.422 52.3306 132.31 52.6132 132.31C52.7642 132.303 52.9148 132.329 53.0551 132.385C53.1954 132.441 53.3222 132.526 53.4271 132.635C53.5319 132.744 53.6122 132.874 53.663 133.016C53.7138 133.159 53.7338 133.31 53.7216 133.461L53.6789 133.375Z" fill="#1F1F1F"/>
</svg>
