<svg width="172" height="240" viewBox="0 0 172 240" fill="none" xmlns="http://www.w3.org/2000/svg">
<path d="M160.737 0.525391H11.5425C5.65694 0.525391 0.885742 5.29659 0.885742 11.1822V228.58C0.885742 234.466 5.65694 239.237 11.5425 239.237H160.737C166.623 239.237 171.394 234.466 171.394 228.58V11.1822C171.394 5.29659 166.623 0.525391 160.737 0.525391Z" fill="#F9F1DF"/>
<path d="M26.4618 41.8308C25.3109 44.7508 19.5349 45.8378 19.5349 50.3562C19.5405 51.3418 19.9359 52.285 20.6348 52.9799C21.3337 53.6748 22.2792 54.0648 23.2648 54.0648C23.7803 54.0642 24.2902 53.958 24.7631 53.7528C25.236 53.5475 25.6618 53.2475 26.0142 52.8712C25.9091 54.3178 25.3154 55.6857 24.3305 56.7503V57.2618H28.5932V56.7503C27.616 55.6827 27.0298 54.3151 26.9307 52.8712C27.4435 53.3951 28.0993 53.7562 28.8161 53.9095C29.533 54.0628 30.2791 54.0014 30.9613 53.7331C31.6435 53.4648 32.2316 53.0013 32.6519 52.4008C33.0722 51.8002 33.3062 51.0891 33.3247 50.3562C33.3887 45.8378 27.6128 44.7508 26.4618 41.8308Z" fill="#1F1F1F"/>
<path d="M145.818 195.8C146.99 192.88 152.745 191.793 152.745 187.274C152.726 186.541 152.492 185.83 152.072 185.23C151.651 184.629 151.063 184.166 150.381 183.897C149.699 183.629 148.953 183.568 148.236 183.721C147.519 183.874 146.863 184.235 146.351 184.759C146.45 183.315 147.036 181.948 148.013 180.88V180.369H143.75V180.88C144.735 181.945 145.329 183.313 145.434 184.759C145.082 184.383 144.656 184.083 144.183 183.878C143.71 183.672 143.2 183.566 142.685 183.566C141.699 183.566 140.754 183.956 140.055 184.651C139.356 185.345 138.96 186.289 138.955 187.274C138.891 191.793 144.667 192.88 145.818 195.8Z" fill="#1F1F1F"/>
<path d="M33.6025 40.8714C32.7899 40.8973 31.986 40.6981 31.2794 40.2959C30.6287 39.9252 30.0271 39.474 29.489 38.9532L27.8478 37.376C27.3232 36.8266 26.7019 36.3786 26.0149 36.0545C24.7908 36.0643 23.5784 35.8174 22.4556 35.3298C21.4836 34.8881 20.6293 34.2236 19.9619 33.3903C19.2561 32.4824 18.7479 31.437 18.4699 30.3212C18.1146 29.0229 17.9425 27.6814 17.9584 26.3355C17.9407 24.8491 18.1491 23.3687 18.5765 21.9449C18.9278 20.7554 19.523 19.6521 20.3242 18.7053C21.0741 17.8201 22.0238 17.126 23.0949 16.6805C24.271 16.1982 25.5325 15.959 26.8035 15.9771C28.0383 15.9542 29.2646 16.1864 30.4055 16.6592C31.4006 17.0923 32.2776 17.7573 32.9631 18.5987C33.6634 19.5051 34.1777 20.5409 34.4764 21.6466C34.8316 22.9594 35.0037 24.3149 34.988 25.6748C35.049 27.9095 34.504 30.119 33.4108 32.0689C32.4538 33.6925 30.9386 34.9123 29.1481 35.5004C29.5846 35.6603 30.0055 35.8601 30.4055 36.0971L31.599 36.8218C32.1941 37.2221 32.8133 37.5851 33.4533 37.9088C34.1234 38.2072 34.8514 38.3528 35.5847 38.335H36.2454H36.8209L37.1618 39.5925C36.761 39.9495 36.2989 40.2312 35.7979 40.4238C35.1141 40.7515 34.36 40.9052 33.6025 40.8714ZM26.5051 17.5757C25.7723 17.5651 25.0512 17.7589 24.4225 18.1354C23.7938 18.5118 23.2824 19.0561 22.9457 19.707C21.9888 21.696 21.5629 23.8988 21.7095 26.1011C21.5706 28.2618 21.9737 30.423 22.8819 32.3886C23.2069 33.0443 23.7126 33.5934 24.3395 33.971C24.9664 34.3487 25.6883 34.5391 26.4199 34.5199C27.1495 34.529 27.8672 34.3343 28.4923 33.9578C29.1173 33.5813 29.6248 33.0378 29.9579 32.3886C30.9325 30.4051 31.3664 28.1994 31.2154 25.9945C31.3569 23.8314 30.9462 21.6678 30.0219 19.707C29.6984 19.0546 29.1959 18.5078 28.5732 18.1303C27.9505 17.7529 27.2331 17.5605 26.5051 17.5757Z" fill="#1F1F1F"/>
<path d="M138.721 196.758C139.533 196.732 140.337 196.932 141.044 197.334C141.698 197.699 142.3 198.151 142.834 198.677L144.475 200.254C145.004 200.808 145.633 201.257 146.33 201.575C147.547 201.567 148.752 201.814 149.868 202.3C150.84 202.742 151.694 203.406 152.362 204.239C153.067 205.147 153.575 206.193 153.853 207.309C154.209 208.607 154.381 209.948 154.365 211.294C154.359 212.822 154.115 214.339 153.64 215.791C153.289 216.981 152.694 218.084 151.893 219.031C151.143 219.916 150.193 220.61 149.122 221.056C147.946 221.538 146.684 221.777 145.413 221.759C144.178 221.782 142.952 221.55 141.811 221.077C140.819 220.649 139.948 219.983 139.275 219.138C138.56 218.238 138.037 217.2 137.74 216.09C137.385 214.777 137.213 213.421 137.229 212.062C137.148 209.791 137.694 207.542 138.806 205.561C139.763 203.937 141.278 202.717 143.069 202.129C142.632 201.969 142.211 201.77 141.811 201.533L140.618 200.808C140.026 200.403 139.406 200.04 138.763 199.721C138.093 199.423 137.365 199.277 136.632 199.295H135.971H135.396L135.055 198.037C135.456 197.68 135.918 197.399 136.419 197.206C137.135 196.861 137.928 196.706 138.721 196.758ZM145.818 220.033C146.551 220.043 147.272 219.85 147.901 219.473C148.53 219.097 149.041 218.552 149.378 217.901C150.335 215.912 150.76 213.71 150.614 211.507C150.753 209.347 150.35 207.185 149.442 205.22C149.117 204.564 148.611 204.015 147.984 203.637C147.357 203.26 146.635 203.069 145.903 203.089C145.174 203.079 144.456 203.274 143.831 203.651C143.206 204.027 142.699 204.571 142.365 205.22C141.391 207.203 140.957 209.409 141.108 211.614C140.963 213.768 141.367 215.924 142.28 217.88C142.596 218.537 143.093 219.091 143.712 219.476C144.331 219.861 145.047 220.061 145.776 220.054L145.818 220.033Z" fill="#1F1F1F"/>
<path d="M130.898 23.4375C128.596 29.32 117.044 31.4514 117.044 40.4883C117.044 42.4668 117.83 44.3642 119.229 45.7632C120.628 47.1622 122.526 47.9481 124.504 47.9481C125.536 47.9477 126.557 47.7313 127.5 47.3128C128.443 46.8944 129.289 46.2831 129.982 45.5183C129.796 48.4133 128.614 51.1547 126.636 53.2765V54.3422H135.161V53.2765C133.201 51.1534 132.027 48.4228 131.836 45.5397C132.851 46.644 134.175 47.4158 135.636 47.754C137.097 48.0922 138.626 47.9808 140.023 47.4346C141.419 46.8884 142.618 45.9329 143.462 44.6933C144.306 43.4537 144.756 41.988 144.752 40.4883C144.752 31.4514 133.2 29.32 130.898 23.4375Z" fill="#1F1F1F"/>
<path d="M41.3813 216.346C39.0794 210.464 27.5275 208.311 27.5275 199.295C27.53 197.796 27.9843 196.332 28.8309 195.095C29.6776 193.858 30.8774 192.904 32.274 192.359C33.6705 191.814 35.1991 191.702 36.6601 192.038C38.1212 192.374 39.4471 193.143 40.4648 194.244C40.2797 191.355 39.0968 188.62 37.1186 186.507V185.441H45.644V186.507C43.6795 188.627 42.5053 191.359 42.3191 194.244C43.3336 193.14 44.6582 192.368 46.1192 192.03C47.5802 191.691 49.1093 191.803 50.5059 192.349C51.9025 192.895 53.1015 193.851 53.9454 195.09C54.7893 196.33 55.2389 197.796 55.2351 199.295C55.2351 208.311 43.7045 210.464 41.3813 216.346Z" fill="#1F1F1F"/>
<path d="M154.343 171.034H152.212V19.7075H47.7755V17.5762H153.277L154.343 18.6418V171.034ZM17.9365 68.7287V221.121L19.0022 222.186H124.504V220.055H20.0679V68.7287H17.9365Z" fill="#1F1F1F"/>
<path d="M91.3186 204.836C89.319 206.668 86.866 207.933 84.2136 208.499C81.5611 209.065 78.8056 208.912 76.2322 208.056C73.6587 207.199 71.361 205.671 69.5766 203.628C67.7923 201.586 66.5862 199.104 66.0833 196.438C73.1948 202.212 82.1658 205.197 91.3186 204.836Z" fill="#C93112"/>
<path d="M96.9022 196.055C96.9405 196.28 96.9026 196.511 96.7945 196.712C96.6864 196.913 96.5142 197.072 96.3054 197.163C82.0892 198.655 77.6347 187.423 77.1232 173.079C76.8248 165.534 77.2511 160.035 80.235 154.451C81.5966 154.026 82.9342 153.528 84.242 152.959C82.1104 159.283 80.8344 165.863 80.4481 172.525C80.1071 184.865 83.1764 195.288 95.6235 195.288C96.3055 195.288 96.7957 195.437 96.9022 196.055Z" fill="#CBBD9F"/>
<path d="M83.9012 196.439C74.438 193.775 73.4575 182.756 71.5819 172.397C70.3031 166.216 69.8342 161.996 73.5854 156.327C74.8216 156.028 76.1004 155.687 77.3366 155.346C75.1725 161.021 74.3411 167.117 74.9068 173.165C75.1199 178.109 75.6315 190.684 83.9012 196.439Z" fill="#CBBD9F"/>
<path d="M75.5887 193.284C73.7753 192.195 72.0883 190.909 70.5588 189.448C70.2178 182.606 65.6567 172.184 64.9746 164.724C64.8398 162.977 65.3386 161.24 66.3797 159.831C67.4209 158.422 68.9346 157.435 70.644 157.051C67.042 163.701 68.7897 168.88 70.2604 177C71.2834 182.713 72.3491 188.893 75.5887 193.284Z" fill="#CBBD9F"/>
<path d="M56.1932 144.093C54.807 146.136 54.0099 148.522 53.8896 150.988C53.7693 153.454 54.3304 155.906 55.5112 158.075C49.7437 153.344 45.9954 146.594 45.0292 139.197C44.0631 131.801 45.9517 124.314 50.3107 118.261C55.918 123.681 59.4603 130.886 60.3279 138.637C58.856 140.383 57.476 142.204 56.1932 144.093Z" fill="#2D6B67"/>
<path d="M84.1145 150.061C79.3754 152.326 74.3594 153.96 69.195 154.92C67.195 155.348 65.3857 156.408 64.0347 157.943C62.6836 159.478 61.8624 161.408 61.6926 163.446C60.9719 163.285 60.2605 163.086 59.5612 162.849C57.881 162.263 56.3566 161.302 55.1039 160.038C53.8511 158.775 52.903 157.242 52.3317 155.557C51.7604 153.872 51.5809 152.079 51.8069 150.314C52.033 148.549 52.6586 146.859 53.6361 145.372C61.0225 134.196 71.7705 125.657 84.3276 120.989C87.2025 119.916 89.9951 118.634 92.6826 117.153C94.3163 122.904 94.3834 128.987 92.877 134.773C91.3706 140.558 88.3454 145.837 84.1145 150.061Z" fill="#C93112"/>
<path d="M121.967 121.5C116.362 116.079 112.819 108.874 111.95 101.125C117.577 94.4534 120.475 89.6365 116.809 81.6865C122.566 86.4259 126.303 93.1788 127.261 100.574C128.219 107.968 126.326 115.45 121.967 121.5Z" fill="#C93112"/>
<path d="M118.6 94.4746C111.222 105.659 100.471 114.2 87.9081 118.857C85.0366 119.938 82.2447 121.221 79.5532 122.694C77.8978 116.934 77.8155 110.836 79.3148 105.034C80.814 99.2317 83.8402 93.937 88.0786 89.7003C92.817 87.4328 97.8333 85.7989 102.998 84.8409C104.99 84.4052 106.79 83.342 108.133 81.8073C109.476 80.2727 110.291 78.3477 110.458 76.3154C111.179 76.476 111.89 76.6752 112.589 76.9122C114.295 77.478 115.847 78.4304 117.124 79.6952C118.4 80.9599 119.368 82.5026 119.949 84.203C120.531 85.9033 120.712 87.7151 120.478 89.497C120.244 91.2788 119.601 92.9823 118.6 94.4746Z" fill="#2D6B67"/>
<path d="M72.6477 126.957C68.806 129.753 65.2761 132.954 62.1188 136.505C60.8548 128.667 56.9793 121.487 51.1211 116.129C52.7393 111.925 55.2166 108.104 58.3947 104.912C61.5728 101.719 65.3819 99.224 69.5786 97.5864C67.7468 102.379 67.0701 107.535 67.6033 112.638C68.1366 117.741 69.8647 122.646 72.6477 126.957Z" fill="#CBBD9F"/>
<path d="M121.114 123.632C119.496 127.836 117.019 131.657 113.841 134.849C110.663 138.042 106.854 140.537 102.657 142.175C104.497 137.386 105.181 132.231 104.655 127.128C104.13 122.025 102.408 117.118 99.6302 112.805C103.459 110.008 106.975 106.807 110.117 103.256C111.42 111.08 115.289 118.248 121.114 123.632Z" fill="#CBBD9F"/>
<path d="M101.634 82.7096C105.342 75.868 103.424 70.5396 102.018 62.7602C101.037 57.0481 99.8862 50.9098 96.6892 46.4766C98.51 47.5545 100.198 48.8421 101.719 50.313C102.06 56.9415 106.579 67.6835 107.346 75.0367C107.47 76.7876 106.962 78.525 105.913 79.933C104.865 81.341 103.347 82.3262 101.634 82.7096Z" fill="#CBBD9F"/>
<path d="M98.7355 83.4344C97.4567 83.7328 96.2206 84.0738 94.9417 84.4148C97.1262 78.7452 97.9581 72.6442 97.3714 66.5967C97.1583 61.652 96.6468 49.0769 88.4198 43.3223C96.7747 45.6668 98.3945 54.4906 99.929 63.1439C101.464 71.7972 103.339 76.4009 98.7355 83.4344Z" fill="#CBBD9F"/>
<path d="M92.128 85.3104C90.7213 85.7793 89.3573 86.2482 88.1211 86.8024C90.2439 80.4801 91.4917 73.8971 91.8296 67.2365C92.2559 54.4484 89.0588 44.7081 76.4838 44.4736C75.7592 44.4736 75.4182 44.2179 75.2903 43.7064C75.2625 43.4825 75.305 43.2556 75.4119 43.057C75.5188 42.8585 75.685 42.698 75.8871 42.598C90.0819 41.1061 94.5578 52.317 95.0693 66.6824C95.5382 74.2274 95.1119 79.7263 92.128 85.3104Z" fill="#CBBD9F"/>
<path d="M106.195 43.3221C99.0875 37.5419 90.1139 34.5558 80.96 34.9246C82.9595 33.0923 85.4124 31.8276 88.0648 31.2615C90.7173 30.6954 93.4728 30.8484 96.0462 31.7048C98.6196 32.5611 100.917 34.0896 102.702 36.1322C104.486 38.1747 105.692 40.657 106.195 43.3221Z" fill="#C93112"/>
<path d="M43.8101 72.6919C44.9186 75.1435 46.9136 77.0851 49.3943 78.1269C49.4661 76.9415 49.4661 75.7529 49.3943 74.5675C47.628 73.6886 45.7488 73.0575 43.8101 72.6919Z" fill="#2D6B67"/>
<path d="M51.5894 74.1208C51.6707 75.4552 51.6707 76.7934 51.5894 78.1278C53.248 77.0995 54.6174 75.6657 55.5683 73.9615C56.5193 72.2573 57.0203 70.339 57.0243 68.3875C54.6275 69.6437 52.7158 71.6603 51.5894 74.1208Z" fill="#2D6B67"/>
<path d="M120.752 161.634C119.324 162.423 115.871 164.959 115.317 171.375C117.692 170.103 119.585 168.09 120.709 165.641C120.633 164.306 120.647 162.967 120.752 161.634Z" fill="#2D6B67"/>
<path d="M128.468 167.069C127.377 164.613 125.386 162.668 122.905 161.634C122.842 162.82 122.842 164.008 122.905 165.194C124.667 166.064 126.538 166.695 128.468 167.069Z" fill="#2D6B67"/>
<path d="M80.0866 53.809V55.4715C80.0811 55.7524 79.9671 56.0203 79.7684 56.2189C79.5697 56.4176 79.3018 56.5317 79.0209 56.5371C78.7383 56.5371 78.4673 56.4249 78.2674 56.225C78.0676 56.0251 77.9552 55.7541 77.9552 55.4715V53.809C77.9552 53.5264 78.0676 53.2553 78.2674 53.0555C78.4673 52.8556 78.7383 52.7433 79.0209 52.7433C79.3035 52.7433 79.5746 52.8556 79.7745 53.0555C79.9743 53.2553 80.0866 53.5264 80.0866 53.809ZM93.2797 187.019C93.4214 187.019 93.5617 186.991 93.6924 186.936C93.8231 186.881 93.9416 186.8 94.0408 186.699C94.1401 186.598 94.2181 186.478 94.2704 186.346C94.3227 186.214 94.3482 186.073 94.3453 185.932V184.291C94.3399 184.01 94.2258 183.742 94.0272 183.543C93.8285 183.344 93.5606 183.23 93.2797 183.225C92.997 183.225 92.7261 183.337 92.5262 183.537C92.3263 183.737 92.214 184.008 92.214 184.291V185.953C92.214 186.236 92.3263 186.507 92.5262 186.707C92.7261 186.906 92.997 187.019 93.2797 187.019ZM89.017 153.045L90.4237 154.665L92.0222 153.258L90.6155 151.638L89.017 153.045ZM100.548 126.041L102.679 125.785L102.444 123.654L100.313 123.909C100.356 125.252 100.356 124.698 100.484 126.041H100.548ZM96.6472 143.624L98.5442 144.605L99.5032 142.687L97.6064 141.727L96.6472 143.624ZM99.0557 138.04L101.187 138.637L101.805 136.506L99.6737 135.909C99.2262 137.23 99.354 136.932 98.9917 138.04H99.0557ZM93.2583 148.697L94.9422 149.976L96.2423 148.271L94.5372 146.971L93.2583 148.697ZM100.59 129.962C100.484 131.284 100.59 130.794 100.398 132.094L102.53 132.286L102.722 130.154L100.59 129.962ZM101.4 119.412L100.782 117.281L98.7573 117.899L99.3541 120.03L101.4 119.412ZM83.3049 86.7171L81.8983 85.0973L80.2998 86.504L81.6851 88.1239L83.3049 86.7171ZM71.7104 109.778C71.8382 108.457 71.7104 108.926 71.9022 107.647L69.7709 107.455L69.579 109.587L71.7104 109.778ZM75.6747 96.1377L73.7778 95.1573L72.7974 97.0755L74.7155 98.0346L75.6747 96.1377ZM73.245 101.722L71.1137 101.125L70.5168 103.256L72.6482 103.853C73.0744 102.489 72.9252 102.958 73.2875 101.722H73.245ZM79.0636 91.0651L77.3585 89.765L76.0796 91.4701L77.7847 92.7702L79.0636 91.0651ZM71.7744 113.721L69.643 113.977L69.8988 116.109L72.0301 115.853C71.9022 114.531 71.9661 115 71.8169 113.721H71.7744ZM70.9004 120.329L71.5185 122.46L73.6498 121.842L73.0318 119.711L70.9004 120.329ZM57.004 98.2691L55.6825 96.5853L53.9988 97.9281L55.3416 99.5906L57.004 98.2691ZM48.4785 107.775L46.6031 106.773L45.6013 108.649L47.4769 109.651L48.4785 107.775ZM68.6199 92.962L68.1084 90.8307L65.977 91.3422L66.4885 93.4735L68.6199 92.962ZM52.2724 102.596L50.6312 101.21C49.8 102.233 50.1198 101.828 49.2673 102.852L50.887 104.216L52.2724 102.596ZM62.5456 94.9868L61.5864 93.0899L59.6895 94.049L60.6486 95.9459L62.5456 94.9868ZM103.638 146.8L104.15 148.931L106.281 148.42L105.769 146.289L103.638 146.8ZM115.233 141.493L116.554 143.177L118.217 141.834L116.895 140.172L115.233 141.493ZM126.657 131.113L124.781 130.112L123.758 131.987L125.655 132.989L126.657 131.113ZM109.606 144.775L110.565 146.672L112.462 145.713L111.503 143.816L109.606 144.775ZM121.243 135.547L119.879 137.166L121.499 138.552L122.884 136.911L121.243 135.547ZM133.307 178.408C133.691 179.372 133.856 180.41 133.79 181.446C133.724 182.482 133.428 183.49 132.923 184.397C132.669 184.94 132.369 185.461 132.028 185.953L131.282 186.379C130.219 186.466 129.15 186.401 128.106 186.188C126.505 185.903 125.072 185.019 124.099 183.715C122.78 183.474 121.544 182.899 120.511 182.045C119.477 181.19 118.68 180.085 118.195 178.834V177.982C118.643 176.904 119.308 175.931 120.147 175.12C120.987 174.31 121.983 173.681 123.076 173.271C122.626 171.957 122.277 170.611 122.032 169.243C120.287 171.377 118.049 173.052 115.51 174.124L114.06 173.144C113.916 170.847 114.293 168.548 115.165 166.418C116.036 164.288 117.378 162.383 119.09 160.846C115.595 158.714 113.442 153.876 111.162 151.51C107.066 153.2 102.65 153.971 98.2244 153.77C95.86 156.587 93.0955 159.043 90.0188 161.059L90.8926 166.089C93.0239 165.428 96.157 164.746 97.7768 166.089C99.3966 167.432 98.5442 169.947 98.9492 170.778C98.9761 170.843 99.0167 170.901 99.0682 170.949C99.1197 170.997 99.1808 171.033 99.2474 171.055C99.422 171.144 99.5686 171.28 99.6709 171.448C99.7732 171.615 99.8272 171.807 99.8272 172.003C99.8272 172.199 99.7732 172.392 99.6709 172.559C99.5686 172.727 99.422 172.862 99.2474 172.952C99.9637 173.108 100.639 173.413 101.23 173.847C101.357 174.007 101.437 174.2 101.46 174.404C101.482 174.608 101.447 174.813 101.357 174.998C101.123 175.445 100.867 175.403 100.548 175.744C100.167 176.268 99.9784 176.908 100.015 177.556L101.72 178.067L102.295 179.687C100.931 181.669 98.7573 184.61 98.7573 187.125C99.1839 189.271 99.1839 191.48 98.7573 193.626C99.4321 194.081 99.9001 194.784 100.06 195.582C100.219 196.38 100.058 197.209 99.6099 197.889C99.7377 197.889 99.6098 197.377 100.164 203.26L99.1836 204.432L96.5194 204.624C94.2733 207.309 91.2663 209.251 87.8948 210.194C84.5233 211.137 80.9453 211.036 77.632 209.906C74.3186 208.775 71.4256 206.668 69.3337 203.86C67.2418 201.053 66.0492 197.678 65.9131 194.18L64.3785 192.582V191.068L68.3428 187.509H69.3019C68.3854 181.69 64.9753 172.952 64.1227 165.982C59.1576 164.64 54.5925 162.112 50.8196 158.616C47.0467 155.12 44.1786 150.761 42.4618 145.912C40.7451 141.064 40.2308 135.871 40.9632 130.78C41.6957 125.689 43.653 120.852 46.6669 116.684C44.9597 115.199 43.1107 113.886 41.1467 112.762L40.6352 111.59C41.8741 106.51 44.3156 101.803 47.7539 97.8642L45.7291 96.0525C42.1058 95.7967 40.9336 93.1965 41.9779 91.193C41.7464 90.7526 41.6255 90.2625 41.6255 89.765C41.6255 89.2674 41.7464 88.7774 41.9779 88.337C41.741 87.8945 41.6171 87.4003 41.6171 86.8983C41.6171 86.3963 41.741 85.9022 41.9779 85.4597C41.7566 84.9786 41.6511 84.4523 41.6699 83.9231C41.6887 83.3938 41.8313 82.8763 42.0862 82.4122C42.341 81.948 42.7012 81.55 43.1377 81.2501C43.5741 80.9503 44.0749 80.7568 44.5996 80.6854C44.6083 80.3416 44.7 80.005 44.867 79.7044C45.0341 79.4038 45.2713 79.148 45.5586 78.959C43.868 77.8853 42.4579 76.424 41.4451 74.6963C40.8563 73.7356 40.5124 72.6452 40.4434 71.5206L41.4664 70.4549C43.8359 70.541 46.1634 71.1065 48.3081 72.1173C48.1161 70.5832 47.7807 69.0704 47.3063 67.5989C46.6273 68.1793 45.8368 68.6145 44.9832 68.8777C43.6889 69.2836 42.3283 69.4356 40.9762 69.3253L40.2302 68.8777C39.877 68.3887 39.5702 67.8678 39.3137 67.3218C38.8306 63.3437 38.8306 59.3217 39.3137 55.3436C39.5702 54.7976 39.877 54.2767 40.2302 53.7877L40.9762 53.3614C42.0386 53.2755 43.1077 53.3401 44.1519 53.5533C45.7521 53.8261 47.1823 54.7133 48.1376 56.0256C49.4583 56.2627 50.6956 56.8365 51.7298 57.6915C52.764 58.5465 53.5603 59.6538 54.0415 60.9064V61.759C53.5935 62.8363 52.9292 63.8102 52.0896 64.6204C51.2501 65.4306 50.2531 66.0599 49.1606 66.4693C49.6301 67.7776 49.9796 69.1259 50.2049 70.4975C51.9586 68.3648 54.2041 66.6899 56.7482 65.6167L58.1975 66.5971C58.3373 68.8932 57.9577 71.1913 57.0868 73.3205C56.216 75.4496 54.8764 77.355 53.1675 78.895C56.6417 81.0264 58.837 85.8859 61.0963 88.2304C65.2433 86.5126 69.7211 85.7408 74.204 85.9712C76.5709 83.148 79.3435 80.6916 82.4311 78.682L81.5572 73.6519C80.2191 74.1181 78.8174 74.3769 77.401 74.4192C72.4563 74.4192 74.0336 70.0499 73.4794 68.9203C73.4567 68.8529 73.4176 68.7922 73.3655 68.7439C73.3133 68.6955 73.2499 68.6609 73.181 68.6432C73.0124 68.5488 72.8719 68.4112 72.7742 68.2445C72.6765 68.0778 72.625 67.8881 72.625 67.6948C72.625 67.5016 72.6765 67.3118 72.7742 67.1451C72.8719 66.9784 73.0124 66.8408 73.181 66.7464C72.5444 66.5862 71.9342 66.3349 71.3694 66.0004C71.1498 65.8245 71.0086 65.569 70.9767 65.2895C70.9447 65.01 71.0246 64.7292 71.1989 64.5084C71.4333 64.2313 71.6038 64.274 71.8809 63.9543C72.272 63.4348 72.4613 62.7911 72.4137 62.1426L70.7087 61.6311L70.1545 60.0113C71.4973 58.0504 73.6712 55.0879 73.6925 52.5729C73.2636 50.4272 73.2636 48.2178 73.6925 46.0722C73.0222 45.6135 72.5578 44.9108 72.3985 44.1144C72.2392 43.3179 72.3977 42.4907 72.84 41.8095C72.84 41.8095 72.84 42.321 72.3072 36.4171L73.2662 35.2662L75.9517 35.0744C78.1978 32.389 81.2048 30.447 84.5763 29.5041C87.9478 28.5612 91.5259 28.6616 94.8392 29.7922C98.1525 30.9228 101.046 33.0305 103.137 35.8377C105.229 38.6448 106.422 42.0198 106.558 45.518L108.093 47.1165V48.6298L104.128 52.1892H103.169C104.043 58.3061 107.432 66.9381 108.476 73.9077C113.443 75.2485 118.009 77.7758 121.782 81.2721C125.556 84.7683 128.424 89.1289 130.139 93.9787C131.854 98.8285 132.365 104.022 131.629 109.114C130.892 114.205 128.93 119.041 125.911 123.206C127.618 124.691 129.467 126.004 131.431 127.128L131.942 128.3C130.703 133.375 128.269 138.081 124.845 142.026L126.976 143.837C130.621 144.093 131.751 146.715 130.706 148.697C130.947 149.134 131.073 149.626 131.073 150.125C131.073 150.624 130.947 151.115 130.706 151.553C130.947 151.994 131.073 152.489 131.073 152.992C131.073 153.494 130.947 153.989 130.706 154.43C130.932 154.909 131.042 155.435 131.027 155.964C131.011 156.494 130.871 157.012 130.618 157.477C130.364 157.942 130.005 158.341 129.569 158.641C129.132 158.942 128.631 159.135 128.106 159.205C128.095 159.55 128 159.888 127.829 160.189C127.658 160.49 127.417 160.744 127.126 160.931C128.819 162.008 130.236 163.468 131.26 165.194C131.837 166.158 132.173 167.248 132.241 168.369L131.218 169.435C128.855 169.349 126.535 168.783 124.398 167.773C124.579 169.309 124.915 170.822 125.399 172.291C126.069 171.71 126.853 171.274 127.701 171.012C129.003 170.607 130.37 170.455 131.729 170.565L132.475 171.012C132.817 171.505 133.116 172.025 133.37 172.568C133.803 173.479 134.033 174.473 134.044 175.481C134.055 176.489 133.847 177.488 133.434 178.408H133.307ZM123.843 161.613C123.767 162.805 123.767 164.001 123.843 165.194C125.629 166.08 127.53 166.711 129.491 167.069C128.374 164.641 126.412 162.702 123.971 161.613H123.843ZM118.877 81.7085C120.011 83.8881 120.537 86.3332 120.398 88.7863C120.259 91.2394 119.461 93.6097 118.089 95.6475C116.812 97.5627 115.439 99.4123 113.975 101.189C114.89 108.944 118.424 116.155 123.993 121.629C128.348 115.572 130.254 108.093 129.329 100.69C128.404 93.2876 124.717 86.5076 119.005 81.7085H118.877ZM104.725 142.196C108.894 140.547 112.678 138.057 115.843 134.882C119.007 131.706 121.484 127.913 123.119 123.739C117.318 118.331 113.46 111.162 112.142 103.342C108.992 106.859 105.477 110.031 101.656 112.805C104.441 117.116 106.181 122.019 106.736 127.122C107.291 132.225 106.646 137.387 104.853 142.196H104.725ZM100.761 84.8202C95.606 85.8282 90.5951 87.4675 85.8413 89.701C81.5805 93.9156 78.5282 99.1959 77.0025 104.991C75.4767 110.787 75.5334 116.886 77.1666 122.652C79.8755 121.187 82.6895 119.926 85.5855 118.879C98.1686 114.236 108.927 105.674 116.277 94.454C117.263 92.9695 117.896 91.2787 118.126 89.5116C118.357 87.7444 118.179 85.9479 117.607 84.2602C117.035 82.5724 116.083 81.0383 114.825 79.7757C113.568 78.5131 112.037 77.5556 110.352 76.9768C109.627 76.7424 108.924 76.5293 108.22 76.3375C108.052 78.345 107.252 80.2475 105.935 81.7716C104.617 83.2957 102.851 84.363 100.889 84.8202H100.761ZM97.5424 83.3922C101.187 77.9147 100.846 73.8224 99.5245 67.3644C97.3932 57.2831 96.9882 45.8804 87.12 43.2375C95.1126 48.7577 96.2636 60.7998 96.2636 70.4549C96.4386 75.235 95.5808 79.9967 93.7486 84.4152L97.5424 83.3922ZM100.505 50.2283C98.9721 48.7622 97.2774 47.4751 95.4537 46.3919C99.5033 51.8055 100.185 59.9047 101.613 66.9382C102.828 72.8847 103.34 77.3605 100.441 82.7102C102.04 82.3456 103.473 81.4581 104.511 80.188C105.55 78.918 106.135 77.338 106.174 75.698C105.803 72.2189 105.09 68.7849 104.043 65.4462C102.401 60.5001 101.259 55.4021 100.633 50.2283H100.505ZM78.6799 34.9252C87.8376 34.551 96.8173 37.5291 103.936 43.3014C103.413 40.6619 102.2 38.2081 100.421 36.1893C98.6421 34.1705 96.3601 32.6588 93.8073 31.8079C91.2545 30.9569 88.5219 30.7971 85.8873 31.3447C83.2527 31.8922 80.8102 33.1276 78.8078 34.9252H78.6799ZM74.268 37.2484L74.5451 40.4241C78.68 40.0617 82.8448 40.2552 86.9283 40.9995C88.7413 41.3731 90.5227 41.8861 92.2567 42.5341C96.3462 44.1468 100.029 46.6432 103.041 49.8447L105.407 47.7134C97.1801 38.8895 86.5659 36.3319 74.3959 37.2484H74.268ZM74.268 44.0474C74.3851 44.2043 74.541 44.328 74.7203 44.4065C74.8997 44.4849 75.0963 44.5154 75.291 44.495C87.6955 44.495 90.9565 54.4271 90.6581 66.725C90.5721 70.121 90.1798 73.5022 89.4859 76.8276C88.795 80.1959 87.927 83.5255 86.8856 86.8024C87.9087 86.3548 89.1236 85.8646 90.9139 85.2678C94.0683 79.3427 94.2601 73.4601 93.9831 66.6824C93.4715 53.5746 89.8908 42.2145 76.783 42.4489C76.101 42.4489 75.3976 42.4489 74.6516 42.5555C74.4335 42.7314 74.2917 42.9849 74.2559 43.2629C74.2202 43.5409 74.2932 43.822 74.4598 44.0474H74.268ZM88.3562 69.9434C86.8284 71.181 85.1263 72.1865 83.3049 72.9273L84.1149 77.531C85.2123 76.8935 86.3516 76.3309 87.525 75.8472C88.0791 73.8864 88.3776 71.9042 88.5481 69.9434H88.3562ZM88.5481 66.5332C88.7613 55.7059 86.4167 46.5837 75.4402 46.6263C75.3236 47.0674 75.2382 47.5161 75.1845 47.9691C75.1827 48.1613 75.2265 48.3512 75.3124 48.5232C75.9731 49.4823 79.4046 49.0561 81.7064 50.3136C81.8363 50.3776 81.9518 50.4676 82.0458 50.5778C82.1398 50.688 82.2104 50.8162 82.2532 50.9546C82.296 51.093 82.3101 51.2386 82.2947 51.3827C82.2793 51.5267 82.2348 51.6661 82.1637 51.7923C82.0926 51.9185 81.9965 52.0289 81.8813 52.1168C81.7661 52.2046 81.6341 52.268 81.4936 52.3032C81.3531 52.3383 81.2069 52.3445 81.0639 52.3212C80.9209 52.2979 80.7842 52.2458 80.6621 52.1679C78.9335 51.6347 77.1664 51.2356 75.3764 50.9743C75.6392 52.3096 75.551 53.6902 75.1205 54.9812C74.4788 56.788 73.574 58.4902 72.4351 60.0326L74.8008 60.7146C74.9408 60.7524 75.0719 60.8173 75.1867 60.9058C75.3015 60.9943 75.3979 61.1045 75.4702 61.2302C75.5424 61.3559 75.5891 61.4945 75.6078 61.6383C75.6264 61.782 75.6166 61.9281 75.5788 62.068C75.541 62.208 75.476 62.3391 75.3875 62.4539C75.2991 62.5688 75.1889 62.6651 75.0632 62.7373C74.9376 62.8096 74.7988 62.8563 74.655 62.8749C74.5113 62.8936 74.3653 62.8837 74.2253 62.8459C74.1778 63.5364 73.9737 64.2069 73.6286 64.8068C74.1039 64.9153 74.5906 64.9655 75.0779 64.956C75.3606 64.956 75.6316 65.0682 75.8314 65.2681C76.0313 65.468 76.1436 65.7391 76.1436 66.0217C76.1465 66.1606 76.1215 66.2987 76.0702 66.4279C76.019 66.5571 75.9426 66.6748 75.8453 66.774C75.7481 66.8732 75.632 66.9521 75.5038 67.0059C75.3757 67.0597 75.2382 67.0874 75.0993 67.0874C73.991 67.0874 74.268 66.8742 74.7795 67.4923C75.9731 68.8564 75.2271 70.9238 75.7387 71.9681C75.8154 72.0804 75.9281 72.1632 76.0583 72.2026C78.5093 73.0978 86.9282 69.9434 88.7399 66.5971L88.5481 66.5332ZM72.0513 125.742C73.0957 125.039 74.1827 124.378 75.2697 123.717C73.4238 117.58 73.2714 111.058 74.8284 104.841C76.3855 98.6241 79.5941 92.9437 84.1149 88.4009C85.2019 85.1186 86.2461 81.7937 86.9708 78.4261C70.5167 86.5253 61.288 108.393 72.2432 125.742H72.0513ZM67.2558 97.5658C63.0837 99.2135 59.2957 101.703 56.1276 104.878C52.9594 108.054 50.479 111.847 48.841 116.023C54.6485 121.429 58.5135 128.598 59.8387 136.42C62.981 132.903 66.4892 129.731 70.3037 126.957C67.5742 122.618 65.8947 117.702 65.3989 112.599C64.9031 107.497 65.6046 102.349 67.4477 97.5658H67.2558ZM50.2049 78.1278C51.8446 77.0792 53.1992 75.6409 54.1476 73.9412C55.096 72.2416 55.6087 70.3335 55.64 68.3875C53.2631 69.6296 51.3717 71.6335 50.2689 74.0782C50.4199 75.4226 50.4841 76.7752 50.4608 78.1278H50.2049ZM40.6352 60.6506C40.7281 60.8117 40.8616 60.9457 41.0224 61.0392C41.1832 61.1326 41.3657 61.1824 41.5516 61.1835C41.74 61.1861 41.9257 61.1388 42.0898 61.0464C42.2539 60.9539 42.3905 60.8196 42.4858 60.6571C42.5811 60.4947 42.6316 60.3099 42.6323 60.1216C42.6329 59.9332 42.5836 59.7481 42.4894 59.585C42.3697 59.3462 42.3442 59.0712 42.4176 58.8144C42.4911 58.5576 42.6582 58.3377 42.8861 58.1984C43.1139 58.059 43.3858 58.0102 43.6479 58.0618C43.9099 58.1133 44.1431 58.2614 44.3012 58.4767C44.4728 57.7451 44.8951 57.0966 45.4947 56.6437C44.2584 55.7585 42.7471 55.3429 41.232 55.4715C40.7459 56.2371 40.4599 57.1126 40.4004 58.0175C40.3408 58.9225 40.5094 59.8279 40.8909 60.6506H40.6352ZM45.2603 63.6559C45.0711 63.6554 44.885 63.7043 44.7206 63.7978C44.5561 63.8912 44.4189 64.026 44.3225 64.1887C44.1837 64.4343 43.9531 64.6148 43.6814 64.6907C43.4097 64.7666 43.1192 64.7317 42.8732 64.5937C42.6348 64.4591 42.4586 64.2362 42.3829 63.9731C42.3071 63.71 42.3379 63.4277 42.4682 63.187C41.762 63.3867 41.0083 63.3339 40.3369 63.0378C40.1712 64.5374 40.5411 66.0473 41.3812 67.3005C42.2896 67.4075 43.2102 67.2818 44.0566 66.935C44.903 66.5883 45.6472 66.0319 46.2193 65.3183C46.3226 65.1705 46.3868 64.9988 46.4057 64.8194C46.4246 64.64 46.3976 64.4588 46.3273 64.2926C46.257 64.1265 46.1458 63.981 46.0039 63.8696C45.862 63.7582 45.6941 63.6847 45.516 63.6559H45.2603ZM48.4147 64.3592C49.7758 63.7587 50.8789 62.6934 51.5265 61.354C51.1665 60.5131 50.5977 59.7781 49.8741 59.2186C49.1505 58.6591 48.2961 58.2937 47.3916 58.157C47.109 58.157 46.8379 58.2692 46.6381 58.4691C46.4382 58.6689 46.326 58.94 46.326 59.2227C46.326 59.5053 46.4382 59.7764 46.6381 59.9762C46.8379 60.1761 47.109 60.2883 47.3916 60.2883C47.6743 60.2883 47.9453 60.4006 48.1451 60.6004C48.345 60.8003 48.4573 61.0714 48.4573 61.354C48.4573 61.6367 48.345 61.9077 48.1451 62.1076C47.9453 62.3074 47.6743 62.4197 47.3916 62.4197C47.7295 62.6593 48.0164 62.9635 48.2359 63.3147C48.4554 63.6659 48.6031 64.0571 48.6704 64.4658L48.4147 64.3592ZM48.0736 78.1491C48.1393 76.9565 48.1393 75.761 48.0736 74.5684C46.2879 73.6821 44.3867 73.0508 42.4256 72.6928C43.6292 75.1953 45.74 77.1461 48.3295 78.1491H48.0736ZM48.841 96.2869C51.6909 93.3577 55.0304 90.9486 58.7091 89.1682C56.5778 86.6319 54.4464 82.4971 51.7396 80.7494C50.0626 80.3467 48.3193 80.303 46.6243 80.6214C46.4324 80.6214 46.4112 80.728 46.3898 80.7706C46.3685 80.8133 46.3898 80.9625 46.4964 81.0051C46.6658 81.2156 46.8761 81.3895 47.1146 81.5166C48.034 81.9968 49.0617 82.2317 50.0984 82.1987L51.1215 82.9447L52.2511 86.5466C52.2974 86.6794 52.3163 86.8202 52.3069 86.9605C52.2974 87.1009 52.2597 87.2378 52.196 87.3632C52.1324 87.4886 52.044 87.5999 51.9363 87.6903C51.8285 87.7807 51.7036 87.8484 51.569 87.8894C51.3005 87.9768 51.0084 87.9541 50.7566 87.8262C50.5049 87.6983 50.314 87.4758 50.2263 87.2074L49.3098 84.2874C47.7855 84.2488 46.3197 83.6926 45.1536 82.7102C42.5534 82.902 42.4256 86.163 47.7753 85.1826C47.9126 85.1549 48.0542 85.1552 48.1914 85.1834C48.3287 85.2116 48.4588 85.2671 48.5741 85.3467C48.6895 85.4262 48.7877 85.5282 48.8628 85.6465C48.9379 85.7647 48.9884 85.8969 49.0114 86.0351C49.0612 86.312 48.9996 86.5973 48.8399 86.8289C48.6802 87.0605 48.4354 87.2195 48.1589 87.2713C46.5892 87.6349 44.9486 87.5462 43.4272 87.0155C43.446 87.1529 43.4937 87.2847 43.5672 87.4023C43.6407 87.5198 43.7383 87.6205 43.8535 87.6976C45.0938 88.2736 46.4974 88.3943 47.8178 88.0386C47.9578 88.0134 48.1014 88.016 48.2403 88.0463C48.3793 88.0766 48.5108 88.1339 48.6276 88.215C48.7444 88.2962 48.844 88.3996 48.9208 88.5193C48.9977 88.6389 49.0502 88.7725 49.0754 88.9124C49.1006 89.0524 49.098 89.1959 49.0677 89.3348C49.0374 89.4738 48.98 89.6054 48.8988 89.7222C48.8177 89.8389 48.7144 89.9386 48.5947 90.0154C48.475 90.0922 48.3415 90.1447 48.2016 90.1699C46.6198 90.5579 44.9585 90.4689 43.4272 89.9142C43.4417 90.0528 43.4877 90.1863 43.5616 90.3044C43.6355 90.4226 43.7353 90.5224 43.8535 90.5962C45.0534 91.1792 46.4238 91.3078 47.7113 90.9585C47.9881 90.9087 48.2735 90.9704 48.5051 91.1301C48.7366 91.2898 48.8957 91.5346 48.9475 91.8111C48.9751 91.9484 48.9748 92.09 48.9466 92.2272C48.9184 92.3645 48.8629 92.4946 48.7833 92.61C48.7038 92.7253 48.6019 92.8235 48.4836 92.8986C48.3653 92.9737 48.2331 93.0243 48.0949 93.0473C46.5456 93.3986 44.9289 93.31 43.4272 92.7915C43.4272 93.6867 44.9192 93.9638 45.8357 93.9851C46.6456 93.9638 46.8161 94.3048 49.2032 96.2869H48.841ZM47.0719 114.531C48.9984 109.94 51.8859 105.814 55.5402 102.432C59.1945 99.0495 63.531 96.4891 68.2576 94.9229C69.3439 92.5096 70.6797 90.2165 72.2432 88.0812C65.5102 88.3634 59.0385 90.7661 53.7524 94.9459C48.4664 99.1258 44.6363 104.869 42.8092 111.356C44.4012 112.286 45.9126 113.349 47.3276 114.531H47.0719ZM53.0183 158.054C51.8887 155.873 51.3659 153.428 51.5046 150.976C51.6434 148.524 52.4385 146.154 53.8069 144.115C55.0916 142.199 56.4716 140.35 57.9418 138.573C57.0364 130.811 53.4925 123.595 47.9032 118.133C43.6063 124.241 41.7725 131.745 42.7682 139.146C43.7639 146.547 47.5158 153.299 53.2741 158.054H53.0183ZM71.1349 154.942C76.2902 153.936 81.3013 152.297 86.0543 150.061C90.3112 145.844 93.361 140.564 94.8865 134.769C96.412 128.974 96.3576 122.877 94.729 117.11C91.9852 118.579 89.1355 119.84 86.2036 120.883C73.6299 125.533 62.8796 134.094 55.5333 145.308C54.5473 146.793 53.9148 148.483 53.6842 150.251C53.4537 152.018 53.6314 153.814 54.2036 155.502C54.7758 157.19 55.7273 158.724 56.985 159.986C58.2427 161.249 59.773 162.206 61.4585 162.785C62.1619 163.02 62.8866 163.233 63.5899 163.425C63.7887 161.354 64.6582 159.405 66.0662 157.874C67.4743 156.343 69.3438 155.313 71.3906 154.942H71.1349ZM74.3532 156.37C70.7299 161.847 71.0496 165.918 72.3711 172.398C74.5024 182.458 74.9074 193.882 84.7756 196.525C76.8043 191.026 75.6321 178.962 75.6321 169.307C75.4678 164.528 76.3252 159.768 78.1471 155.347L74.3532 156.37ZM71.3906 189.534C72.9309 191 74.6327 192.287 76.4632 193.37C72.4137 187.957 71.7104 179.879 70.2824 172.824C69.0888 166.877 68.5773 162.402 71.4546 157.052C69.8591 157.421 68.4317 158.31 67.3974 159.579C66.3632 160.849 65.781 162.427 65.7426 164.064C66.1156 167.543 66.8294 170.977 67.8739 174.316C69.4938 179.218 71.4973 185.292 71.6465 189.534H71.3906ZM93.2158 204.837C84.0582 205.211 75.0783 202.233 67.9592 196.461C68.4402 199.173 69.6475 201.704 71.4527 203.785C73.2578 205.866 75.5932 207.419 78.2104 208.278C80.8277 209.137 83.629 209.271 86.3162 208.665C89.0035 208.059 91.4763 206.736 93.4715 204.837H93.2158ZM97.6489 202.514L97.3718 199.338C93.2369 199.701 89.0721 199.507 84.9887 198.763H84.8608C83.0485 198.386 81.2673 197.873 79.5324 197.228C75.4452 195.623 71.768 193.125 68.7691 189.917L66.382 192.049C75.1205 200.873 85.7133 203.43 97.9047 202.514H97.6489ZM97.6489 195.715C97.5291 195.561 97.3728 195.439 97.1941 195.361C97.0155 195.283 96.8202 195.251 96.6259 195.267C84.2854 195.267 80.9392 185.42 81.2376 173.037C81.3429 169.643 81.735 166.263 82.4098 162.934C83.1078 159.566 83.9829 156.236 85.0313 152.96C84.0083 153.407 82.8999 153.897 81.003 154.494C77.8486 160.419 77.6568 166.302 77.9125 173.08C78.4454 186.188 82.0261 197.548 95.1339 197.313C95.816 197.313 96.498 197.313 97.2653 197.207C97.4051 197.151 97.5319 197.068 97.6377 196.961C97.7436 196.854 97.8261 196.727 97.8802 196.587C97.9343 196.447 97.9587 196.297 97.9519 196.147C97.9451 195.997 97.9073 195.849 97.8408 195.715H97.6489ZM83.5394 169.819C85.0788 168.587 86.7871 167.582 88.612 166.835L87.8021 162.231C86.7023 162.864 85.5633 163.427 84.392 163.915C84.2001 165.876 83.9231 167.858 83.7312 169.819H83.5394ZM83.3689 173.229C83.1345 184.077 85.5002 193.178 96.4554 193.136C96.572 192.695 96.6574 192.246 96.7111 191.793C96.7229 191.6 96.6785 191.407 96.5832 191.239C95.9225 190.28 92.491 190.706 90.1892 189.449C90.0655 189.382 89.9565 189.291 89.8688 189.181C89.781 189.072 89.7163 188.945 89.6785 188.81C89.6406 188.675 89.6305 188.533 89.6487 188.394C89.6668 188.254 89.7129 188.12 89.7842 187.999C89.923 187.754 90.1536 187.573 90.4253 187.497C90.697 187.421 90.9875 187.456 91.2335 187.594C92.9615 188.13 94.729 188.529 96.5194 188.788C96.2454 187.453 96.3337 186.07 96.7751 184.781C97.4128 182.972 98.318 181.27 99.4607 179.729L97.0947 179.048C96.8121 178.974 96.5703 178.791 96.4225 178.539C96.2746 178.288 96.2327 177.987 96.3062 177.705C96.3796 177.422 96.5625 177.18 96.8143 177.032C97.0661 176.884 97.3663 176.843 97.6489 176.916C97.7169 176.23 97.9198 175.563 98.2458 174.955C97.7796 174.836 97.2985 174.786 96.8178 174.806C96.5332 174.806 96.2598 174.695 96.0565 174.495C95.8533 174.296 95.7364 174.025 95.7308 173.74C95.7307 173.461 95.84 173.194 96.0353 172.994C96.2306 172.795 96.4962 172.68 96.7751 172.675C97.9047 172.675 97.6063 172.888 97.0947 172.27C95.9012 170.906 96.6473 168.86 96.1571 167.794C96.0803 167.682 95.9675 167.599 95.8373 167.559C93.7486 166.771 85.4363 169.861 83.5607 173.165L83.3689 173.229ZM99.8443 114.02C98.8212 114.723 97.7129 115.384 96.6259 116.045C98.4812 122.181 98.6383 128.706 97.0808 134.925C95.5233 141.143 92.3093 146.824 87.7807 151.361C86.7151 154.643 85.6495 157.968 84.9461 161.336C101.933 153.215 111.013 131.305 100.036 114.02H99.8443ZM129.278 128.428C127.689 127.484 126.178 126.415 124.76 125.231C122.84 129.823 119.958 133.95 116.306 137.333C112.655 140.716 108.321 143.275 103.595 144.839C102.512 147.254 101.176 149.547 99.6099 151.681C106.417 151.487 112.984 149.125 118.355 144.939C123.727 140.752 127.621 134.96 129.47 128.406L129.278 128.428ZM121.627 161.634C119.99 162.686 118.637 164.125 117.689 165.824C116.741 167.523 116.227 169.429 116.192 171.375C118.575 170.134 120.473 168.13 121.584 165.684C121.565 164.33 121.644 162.977 121.819 161.634H121.627ZM124.674 159.29C124.937 159.252 125.19 159.165 125.421 159.034C125.433 158.956 125.433 158.877 125.421 158.8C125.247 158.585 125.029 158.41 124.781 158.288C123.869 157.81 122.848 157.575 121.819 157.606L120.796 156.86L119.645 153.258C119.569 152.993 119.599 152.709 119.728 152.465C119.858 152.222 120.077 152.038 120.339 151.953C120.601 151.867 120.886 151.886 121.134 152.007C121.382 152.127 121.574 152.339 121.669 152.597L122.607 155.517C124.125 155.557 125.583 156.114 126.742 157.094C129.364 156.903 129.47 153.642 124.12 154.622C123.983 154.65 123.842 154.649 123.704 154.621C123.567 154.593 123.437 154.538 123.321 154.458C123.206 154.378 123.108 154.277 123.033 154.158C122.958 154.04 122.907 153.908 122.884 153.77C122.834 153.493 122.896 153.207 123.056 152.976C123.216 152.744 123.46 152.585 123.737 152.533C125.313 152.166 126.962 152.254 128.49 152.789C128.474 152.651 128.427 152.518 128.353 152.4C128.28 152.282 128.181 152.182 128.063 152.107C126.823 151.533 125.42 151.412 124.099 151.766C123.959 151.791 123.816 151.789 123.677 151.758C123.538 151.728 123.406 151.671 123.289 151.59C123.173 151.509 123.073 151.405 122.996 151.286C122.919 151.166 122.867 151.032 122.842 150.892C122.816 150.752 122.819 150.609 122.849 150.47C122.88 150.331 122.937 150.199 123.018 150.083C123.099 149.966 123.203 149.866 123.322 149.789C123.442 149.712 123.576 149.66 123.715 149.635C125.297 149.248 126.958 149.337 128.49 149.891C128.475 149.752 128.429 149.618 128.355 149.5C128.281 149.382 128.182 149.282 128.063 149.209C126.855 148.628 125.479 148.499 124.184 148.846C124.044 148.87 123.901 148.866 123.763 148.834C123.624 148.803 123.494 148.744 123.378 148.662C123.262 148.58 123.163 148.476 123.088 148.356C123.012 148.235 122.961 148.102 122.937 147.962C122.914 147.822 122.918 147.678 122.949 147.54C122.981 147.402 123.039 147.271 123.122 147.155C123.204 147.039 123.308 146.941 123.428 146.865C123.548 146.79 123.682 146.739 123.822 146.715C125.371 146.364 126.988 146.452 128.49 146.971C128.49 146.075 126.998 145.798 126.06 145.777C125.527 145.777 125.442 145.564 123.055 143.433C120.208 146.356 116.877 148.765 113.208 150.551C115.339 153.088 117.471 157.222 120.156 158.97C121.699 159.326 123.289 159.434 124.866 159.29H124.674ZM125.506 180.603C125.506 180.321 125.394 180.05 125.194 179.85C124.994 179.65 124.723 179.538 124.44 179.538C124.157 179.538 123.886 179.425 123.687 179.226C123.487 179.026 123.374 178.755 123.374 178.472C123.374 178.189 123.487 177.918 123.687 177.718C123.886 177.519 124.157 177.406 124.44 177.406C123.886 176.902 123.537 176.212 123.46 175.467C122.105 176.077 121.005 177.139 120.348 178.472C120.708 179.313 121.277 180.048 122 180.607C122.724 181.167 123.578 181.532 124.483 181.669C124.64 181.692 124.801 181.679 124.953 181.631C125.104 181.584 125.244 181.503 125.36 181.395C125.477 181.286 125.567 181.153 125.626 181.005C125.684 180.857 125.709 180.698 125.698 180.539L125.506 180.603ZM131.218 179.175C131.12 179.014 130.982 178.88 130.818 178.787C130.654 178.694 130.469 178.644 130.28 178.643C130.093 178.644 129.911 178.694 129.749 178.788C129.588 178.882 129.455 179.016 129.362 179.178C129.269 179.34 129.221 179.523 129.221 179.71C129.221 179.896 129.27 180.08 129.364 180.241C129.503 180.49 129.538 180.784 129.462 181.059C129.387 181.334 129.206 181.569 128.959 181.712C128.722 181.84 128.445 181.875 128.184 181.807C127.923 181.74 127.697 181.576 127.552 181.349C127.382 182.087 126.95 182.738 126.337 183.182C127.573 184.068 129.085 184.483 130.6 184.355C131.17 183.622 131.543 182.756 131.685 181.838C131.827 180.921 131.732 179.982 131.41 179.111L131.218 179.175ZM130.515 172.589C129.606 172.48 128.685 172.605 127.838 172.952C126.991 173.299 126.247 173.856 125.676 174.572C125.589 174.692 125.527 174.83 125.496 174.976C125.465 175.122 125.465 175.272 125.495 175.418C125.526 175.564 125.587 175.702 125.674 175.823C125.762 175.944 125.874 176.045 126.003 176.12C126.131 176.195 126.275 176.242 126.423 176.258C126.571 176.274 126.721 176.259 126.863 176.213C127.005 176.168 127.136 176.093 127.247 175.994C127.359 175.895 127.448 175.773 127.509 175.637C127.652 175.396 127.882 175.219 128.153 175.144C128.423 175.068 128.711 175.1 128.959 175.232C129.201 175.363 129.381 175.585 129.461 175.848C129.541 176.111 129.513 176.396 129.385 176.639C130.091 176.441 130.844 176.494 131.516 176.788C131.751 175.316 131.465 173.809 130.706 172.526L130.515 172.589Z" fill="#1F1F1F"/>
</svg>
