<svg width="172" height="239" viewBox="0 0 172 239" fill="none" xmlns="http://www.w3.org/2000/svg">
<path d="M160.737 0.288086H11.5425C5.65694 0.288086 0.885742 5.05929 0.885742 10.9449V228.343C0.885742 234.229 5.65694 239 11.5425 239H160.737C166.623 239 171.394 234.229 171.394 228.343V10.9449C171.394 5.05929 166.623 0.288086 160.737 0.288086Z" fill="#F9F1DF"/>
<path d="M26.4619 57.3021C24.5426 54.3065 21.9978 51.7617 19.0022 49.8423C21.9978 47.923 24.5426 45.3782 26.4619 42.3826C28.387 45.3735 30.9307 47.9172 33.9217 49.8423C30.9307 51.7674 28.387 54.3111 26.4619 57.3021Z" fill="#C93112"/>
<path d="M145.818 178.79C147.743 181.781 150.286 184.324 153.277 186.249C150.286 188.174 147.743 190.718 145.818 193.709C143.898 190.713 141.353 188.169 138.358 186.249C141.353 184.33 143.898 181.785 145.818 178.79Z" fill="#C93112"/>
<path d="M33.6016 40.1024C32.789 40.1283 31.9851 39.9292 31.2785 39.5269C30.6278 39.1562 30.0262 38.7051 29.4881 38.1842L27.8896 36.5217C27.365 35.9724 26.7436 35.5244 26.0567 35.2003C24.8326 35.2101 23.62 34.9632 22.4972 34.4756C21.5252 34.0339 20.671 33.3694 20.0035 32.5361C19.2977 31.6282 18.7895 30.5828 18.5116 29.4669C18.1563 28.1687 17.9841 26.8272 18.0001 25.4813C17.9824 23.9949 18.1909 22.5145 18.6182 21.0907C18.9695 19.9012 19.5646 18.7978 20.3658 17.851C21.1157 16.9658 22.0655 16.2718 23.1367 15.8263C24.3128 15.344 25.5743 15.1047 26.8452 15.1229C28.08 15.0999 29.3063 15.3321 30.4472 15.8049C31.4424 16.2381 32.3194 16.9031 33.0049 17.7445C33.7051 18.6509 34.2193 19.6866 34.5181 20.7923C34.8732 22.1051 35.0453 23.4607 35.0296 24.8206C35.1101 27.0911 34.5645 29.34 33.4524 31.3212C32.4955 32.9448 30.9802 34.1646 29.1897 34.7527C29.6262 34.9127 30.0472 35.1125 30.4472 35.3495L31.6408 36.0742C32.2358 36.4745 32.8551 36.8374 33.4951 37.1611C34.1651 37.4595 34.8931 37.6051 35.6264 37.5874H36.2871H36.8626L37.2036 38.8449C36.8027 39.2019 36.3406 39.4835 35.8395 39.6762C35.141 40.0035 34.3715 40.15 33.6016 40.1024ZM26.5042 16.828C25.7714 16.8174 25.0503 17.0112 24.4216 17.3877C23.7929 17.7642 23.2814 18.3084 22.9448 18.9594C21.9879 20.9483 21.562 23.1511 21.7086 25.3534C21.5697 27.5142 21.9727 29.6754 22.881 31.6409C23.206 32.2966 23.7117 32.8457 24.3386 33.2233C24.9655 33.601 25.6873 33.7915 26.4189 33.7723C27.1486 33.7813 27.8663 33.5867 28.4914 33.2101C29.1164 32.8336 29.6239 32.2901 29.9569 31.6409C30.9316 29.6574 31.3655 27.4517 31.2145 25.2468C31.359 23.0926 30.9557 20.9369 30.0423 18.9806C29.7203 18.3209 29.2158 17.7675 28.5887 17.3859C27.9615 17.0043 27.238 16.8107 26.5042 16.828Z" fill="#C93112"/>
<path d="M138.72 195.99C139.533 195.964 140.337 196.163 141.044 196.565C141.698 196.931 142.3 197.382 142.834 197.908L144.475 199.485C145.003 200.04 145.633 200.488 146.329 200.807C147.546 200.799 148.752 201.046 149.867 201.531C150.845 201.974 151.7 202.647 152.361 203.492C153.071 204.39 153.58 205.429 153.853 206.54C154.208 207.838 154.38 209.18 154.365 210.526C154.382 212.012 154.174 213.493 153.747 214.916C153.395 216.106 152.8 217.209 151.999 218.156C151.249 219.041 150.299 219.735 149.228 220.181C148.052 220.663 146.79 220.902 145.519 220.884C144.285 220.907 143.058 220.675 141.917 220.202C140.925 219.774 140.054 219.108 139.381 218.263C138.666 217.363 138.144 216.325 137.847 215.215C137.493 213.902 137.321 212.546 137.335 211.186C137.254 208.916 137.8 206.667 138.912 204.686C139.869 203.062 141.385 201.842 143.175 201.254C142.738 201.094 142.317 200.895 141.917 200.658L140.724 199.933C140.135 199.524 139.515 199.16 138.87 198.846C138.2 198.547 137.472 198.402 136.738 198.42H136.078H135.502L135.161 197.162C135.562 196.805 136.024 196.524 136.525 196.331C137.218 196.04 137.972 195.923 138.72 195.99ZM145.818 219.264C146.551 219.275 147.272 219.081 147.9 218.705C148.529 218.328 149.041 217.784 149.377 217.133C150.334 215.144 150.76 212.941 150.613 210.739C150.769 208.543 150.365 206.343 149.441 204.345C149.116 203.689 148.61 203.14 147.983 202.762C147.357 202.385 146.635 202.194 145.903 202.213C145.173 202.204 144.456 202.399 143.831 202.776C143.206 203.152 142.698 203.696 142.365 204.345C141.39 206.328 140.957 208.534 141.108 210.739C140.949 212.935 141.352 215.136 142.28 217.133C142.604 217.78 143.103 218.324 143.721 218.701C144.34 219.077 145.051 219.273 145.775 219.264H145.818Z" fill="#C93112"/>
<path d="M130.898 55.704C127.06 49.7128 121.97 44.6232 115.979 40.7845C121.97 36.9458 127.06 31.8562 130.898 25.865C134.737 31.8562 139.827 36.9458 145.818 40.7845C139.827 44.6232 134.737 49.7128 130.898 55.704Z" fill="#C93112"/>
<path d="M56.3216 198.505C50.3305 202.343 45.2409 207.433 41.4022 213.424C37.5577 207.438 32.4692 202.349 26.4827 198.505C32.4692 194.66 37.5577 189.572 41.4022 183.585C45.2409 189.576 50.3305 194.666 56.3216 198.505Z" fill="#C93112"/>
<path d="M154.343 170.796H152.212V19.4702H47.7755V17.3389H153.277L154.343 18.4045V170.796ZM17.9365 68.4914V220.883L19.0022 221.949H124.504V219.818H20.0679V68.4914H17.9365Z" fill="#1F1F1F"/>
<path d="M124.227 157.199C123.458 156.843 122.741 156.384 122.096 155.835C122.568 153.729 122.568 151.546 122.096 149.441C122.563 149.494 123.035 149.494 123.503 149.441C124.268 150.568 124.736 151.87 124.862 153.227C124.989 154.583 124.771 155.949 124.227 157.199Z" fill="#CBBD9F"/>
<path d="M116.512 162.059C115.926 159.832 115.863 157.499 116.329 155.243C116.795 152.987 117.777 150.87 119.198 149.058C119.325 149.058 119.581 149.058 120.007 149.185C120.555 151.452 120.522 153.82 119.911 156.071C119.3 158.321 118.131 160.381 116.512 162.059Z" fill="#CBBD9F"/>
<path d="M125.932 112.697C124.579 122.917 119.835 132.389 112.461 139.594C107.41 133.2 102.465 126.06 94.686 121.819C104.767 122.458 120.198 120.988 125.932 112.697Z" fill="#2D6B67"/>
<path d="M102.231 147.352C97.2242 150.286 91.8679 152.577 86.2885 154.172C86.2026 153.466 85.9683 152.785 85.601 152.175C85.2337 151.566 84.7417 151.04 84.1572 150.634H84.0293C89.252 148.611 94.2517 146.054 98.9488 143.004C99.7587 144.155 102.231 147.352 102.231 147.352Z" fill="#C93112"/>
<path d="M97.1159 195.052C97.1051 195.444 96.9446 195.818 96.6671 196.095C96.3896 196.373 96.0163 196.533 95.624 196.544C84.1573 196.544 78.1042 189.809 78.1042 177.149C78.1095 174.024 77.8815 170.904 77.4222 167.813C77.2472 166.491 77.341 165.147 77.698 163.861C78.0549 162.576 78.6678 161.376 79.4997 160.333C80.3316 159.29 81.3654 158.426 82.5393 157.792C83.7132 157.159 85.0029 156.768 86.3312 156.645C86.993 156.574 87.6623 156.658 88.2855 156.892C88.9088 157.125 89.4687 157.502 89.9204 157.991C90.372 158.48 90.7029 159.068 90.8865 159.707C91.0701 160.347 91.1012 161.021 90.9776 161.675C90.1439 161.233 89.2146 161.002 88.2708 161.002C87.3271 161.002 86.3977 161.233 85.564 161.675C82.2391 163.423 80.3634 168.41 80.3208 175.358C80.3208 188.147 87.056 194.37 96.3913 194.37C96.9881 194.455 97.1159 194.668 97.1159 195.052Z" fill="#2D6B67"/>
<path d="M85.3086 154.684C83.2603 155.008 81.3311 155.857 79.7097 157.15C78.0882 158.442 76.8301 160.134 76.0585 162.059C75.9306 161.675 75.8027 161.249 75.6749 160.822C73.7993 154.983 80.7901 150.443 83.9445 152.468C84.3204 152.714 84.6375 153.041 84.8732 153.424C85.1089 153.807 85.2576 154.237 85.3086 154.684Z" fill="#2D6B67"/>
<path d="M77.0383 151.615C75.5374 152.735 74.3846 154.257 73.7134 156.005C72.7002 153.908 71.4717 151.923 70.0475 150.08C73.6708 147.587 76.6333 149.185 77.0383 151.615Z" fill="#2D6B67"/>
<path d="M97.4146 141.256C91.9318 144.807 86.0335 147.67 79.8522 149.782L79.085 149.952C81.4598 143.985 83.0641 137.74 83.8592 131.367C89.1449 132.432 92.7256 135.502 97.4146 141.256Z" fill="#CBBD9F"/>
<path d="M81.6848 131.196C80.9311 137.333 79.3984 143.35 77.1237 149.1C74.9923 145.945 70.8576 146.094 67.6179 148.418C65.5386 146.309 63.5749 144.089 61.7354 141.768C69.5148 135.502 74.3529 130.749 81.6848 131.196Z" fill="#C93112"/>
<path d="M91.2766 198.377C84.2342 199.393 77.0696 197.685 71.2419 193.603C71.2419 190.278 70.9435 174.762 58.3259 165.213C46.4543 156.219 43.4063 144.326 54.3615 134.181C55.7782 137.034 57.4625 139.746 59.3916 142.28C60.9681 144.336 62.6767 146.286 64.5068 148.12C71.4124 155.026 74.9078 164.787 74.9078 177.106C74.9078 189.426 80.7477 197.141 91.2766 198.377Z" fill="#CBBD9F"/>
<path d="M53.6359 90.1891L52.826 90.0186C52.2854 87.7651 52.3222 85.4116 52.9332 83.1761C53.5442 80.9407 54.7097 78.8956 56.3215 77.2305C56.8753 79.4535 56.9214 81.7727 56.4565 84.016C55.9916 86.2594 55.0276 88.3692 53.6359 90.1891Z" fill="#CBBD9F"/>
<path d="M50.5668 89.8051H49.2027C48.0092 88.3984 47.3271 85.7982 48.6059 82.0896C49.3589 82.4575 50.0729 82.9002 50.7372 83.411C50.2141 85.5043 50.1559 87.6869 50.5668 89.8051Z" fill="#CBBD9F"/>
<path d="M78.0616 117.3C67.8098 116.788 52.9544 118.153 46.9866 126.507C48.3231 116.294 53.0696 106.831 60.4568 99.6523C65.3162 106.281 71.2839 113.57 78.0616 117.3Z" fill="#2D6B67"/>
<path d="M111.013 97.436C102.487 104.576 97.8624 108.455 91.0208 108.093C91.8049 101.961 93.3367 95.9488 95.5819 90.1895C98.0116 93.3652 101.763 93.2586 105.173 90.8715C107.986 94.0685 107.922 93.493 111.013 97.436Z" fill="#CBBD9F"/>
<path d="M93.7909 89.1663C91.4209 95.1496 89.8168 101.409 89.0166 107.794C83.6456 106.856 80.1076 103.702 75.4186 97.99C81.0959 94.3264 87.2112 91.3906 93.6204 89.2515L93.7909 89.1663Z" fill="#C93112"/>
<path d="M88.9743 88.6977C83.7585 90.7185 78.76 93.2606 74.0548 96.2853C73.0744 95.0492 70.5168 91.9374 70.5168 91.9374C75.5213 89.0097 80.8787 86.7321 86.4593 85.1597C86.5691 85.9062 86.8543 86.6161 87.2915 87.2311C87.7287 87.8461 88.3054 88.3487 88.9743 88.6977Z" fill="#CBBD9F"/>
<path d="M104.618 39.5056C103.934 40.9413 103.391 42.4404 102.998 43.9815C99.2477 41.292 94.9308 39.4978 90.3789 38.7367C85.827 37.9756 81.1612 38.2678 76.7398 39.5909C76.7987 37.7638 76.6702 35.9355 76.3562 34.1346C79.2762 36.266 82.324 35.9676 83.4323 32.4722C83.4739 32.4853 83.5186 32.4853 83.5602 32.4722C85.6916 36.1594 89.2084 35.861 91.4889 32.4722C92.6398 36.8628 96.2205 37.5235 98.8208 35.2642C98.8208 38.4613 100.76 40.3368 104.618 39.5056Z" fill="#CBBD9F"/>
<path d="M68.1514 199.72C68.8356 198.284 69.3782 196.785 69.7712 195.244C73.5292 197.943 77.8572 199.743 82.4211 200.504C86.985 201.265 91.6627 200.968 96.0934 199.634C96.0345 201.462 96.1631 203.29 96.477 205.091C93.5784 202.959 90.5092 203.258 89.4009 206.753C89.3593 206.74 89.3147 206.74 89.273 206.753C87.1417 203.066 83.6463 203.364 81.3445 206.753C80.2148 202.363 76.6129 201.702 74.0126 203.961C74.0126 200.764 72.0731 198.889 68.1514 199.72Z" fill="#CBBD9F"/>
<path d="M102.785 89.1656C99.2471 91.6167 96.1567 90.0821 95.7517 87.6311C97.2773 86.5362 98.4362 85.0057 99.0766 83.2405C100.12 85.3297 101.362 87.3138 102.785 89.1656Z" fill="#2D6B67"/>
<path d="M93.9616 86.2249C90.3596 88.5694 87.6741 86.9282 87.4397 84.5624C89.4904 84.2291 91.42 83.3709 93.0409 82.0712C94.6618 80.7715 95.9188 79.0745 96.6898 77.1453C96.8177 77.5715 96.9456 77.9978 97.0735 78.3815C97.0735 78.3815 97.0735 78.3815 97.0735 78.5094C97.4937 79.9581 97.4155 81.506 96.8513 82.905C96.287 84.3039 95.2694 85.4731 93.9616 86.2249Z" fill="#2D6B67"/>
<path d="M86.4167 82.6013C85.7625 82.664 85.1026 82.5746 84.4888 82.34C83.8749 82.1055 83.3236 81.7322 82.8779 81.2494C82.4322 80.7665 82.1042 80.1871 81.9194 79.5565C81.7347 78.9258 81.6982 78.261 81.8129 77.6139C82.6574 78.0461 83.5925 78.2714 84.5411 78.2714C85.4897 78.2714 86.4247 78.0461 87.2691 77.6139C90.5514 75.8236 92.491 70.8362 92.5123 63.888C92.5123 50.8228 85.6494 44.8337 76.4419 44.8337C75.9517 44.8337 75.6746 44.7271 75.6746 44.2369C75.6964 43.8449 75.8677 43.4761 76.1532 43.2065C76.4386 42.9369 76.8166 42.787 77.2092 42.7876C88.6333 42.7876 94.6863 49.4801 94.6863 62.183C94.6828 65.2948 94.925 68.402 95.4109 71.4756C95.5765 72.8009 95.4731 74.146 95.1068 75.4304C94.7405 76.7148 94.1189 77.9121 93.2792 78.9508C92.4395 79.9894 91.3991 80.848 90.2199 81.4753C89.0408 82.1025 87.7472 82.4855 86.4167 82.6013Z" fill="#2D6B67"/>
<path d="M118.472 105.067C117.06 102.198 115.376 99.4711 113.442 96.9248C111.894 94.8587 110.198 92.907 108.369 91.0849C101.464 84.1793 97.9254 74.4176 97.9254 62.0984C97.9254 49.7792 92.1282 42.0637 81.5566 40.7848C88.6107 39.8077 95.7748 41.5112 101.634 45.5591C101.634 48.9266 101.932 64.4429 114.422 73.9913C126.464 83.0709 129.406 94.8574 118.472 105.067Z" fill="#CBBD9F"/>
<path d="M79.8314 53.5721V55.2346C79.8342 55.3735 79.8094 55.5116 79.7582 55.6407C79.707 55.7699 79.6304 55.8876 79.5331 55.9868C79.4359 56.0861 79.3198 56.1649 79.1916 56.2187C79.0635 56.2725 78.926 56.3003 78.7871 56.3002C78.5024 56.3003 78.2292 56.1887 78.0259 55.9894C77.8227 55.7902 77.7056 55.5191 77.7001 55.2346V53.5721C77.7001 53.2895 77.8123 53.0184 78.0121 52.8186C78.212 52.6187 78.4831 52.5064 78.7657 52.5064C79.0484 52.5064 79.3195 52.6187 79.5193 52.8186C79.7192 53.0184 79.8314 53.2895 79.8314 53.5721ZM109.457 106.323C109.74 106.323 110.011 106.211 110.211 106.011C110.411 105.811 110.523 105.54 110.523 105.257C110.523 104.975 110.411 104.704 110.211 104.504C110.011 104.304 109.74 104.192 109.457 104.192C109.175 104.192 108.904 104.304 108.704 104.504C108.504 104.704 108.392 104.975 108.392 105.257C108.392 105.542 108.503 105.815 108.702 106.019C108.902 106.222 109.173 106.339 109.457 106.344V106.323ZM68.5991 102.338C68.8155 102.159 68.9526 101.902 68.9805 101.622C69.0085 101.343 68.925 101.064 68.7483 100.846C68.5703 100.625 68.3119 100.484 68.0301 100.454C67.7483 100.424 67.4663 100.508 67.2458 100.686C67.0254 100.864 66.8846 101.122 66.8546 101.404C66.8247 101.686 66.9079 101.968 67.0859 102.188C67.2656 102.409 67.5247 102.551 67.8077 102.583C68.0907 102.615 68.3748 102.534 68.5991 102.359V102.338ZM98.3316 113.932C98.4737 113.889 98.6052 113.816 98.7177 113.719C98.8301 113.622 98.921 113.503 98.9845 113.368C99.048 113.234 99.0827 113.088 99.0865 112.939C99.0902 112.791 99.0628 112.643 99.0061 112.506C98.9493 112.369 98.8645 112.245 98.7571 112.142C98.6496 112.039 98.5219 111.96 98.3822 111.91C98.2424 111.86 98.0937 111.839 97.9455 111.85C97.7973 111.86 97.6529 111.902 97.5216 111.971C97.3915 112.023 97.273 112.1 97.1731 112.198C97.0733 112.296 96.9942 112.413 96.9405 112.542C96.8869 112.671 96.8597 112.81 96.8607 112.95C96.8616 113.09 96.8908 113.228 96.9463 113.357C96.9979 113.487 97.0747 113.606 97.1724 113.706C97.27 113.807 97.3865 113.887 97.5151 113.942C97.6438 113.998 97.7822 114.027 97.9223 114.029C98.0624 114.031 98.2014 114.005 98.3316 113.953V113.932ZM104.576 110.373C104.808 110.209 104.965 109.96 105.013 109.68C105.061 109.4 104.996 109.113 104.832 108.881C104.668 108.649 104.419 108.492 104.139 108.444C103.859 108.396 103.572 108.461 103.34 108.625C103.226 108.706 103.128 108.809 103.053 108.928C102.978 109.047 102.927 109.179 102.903 109.318C102.88 109.457 102.883 109.598 102.915 109.735C102.946 109.873 103.003 110.002 103.085 110.117C103.166 110.232 103.269 110.329 103.388 110.404C103.506 110.479 103.639 110.53 103.778 110.554C103.916 110.578 104.058 110.574 104.195 110.543C104.332 110.512 104.462 110.454 104.576 110.373ZM91.2341 115.531C91.5149 115.509 91.7763 115.379 91.9631 115.168C92.15 114.957 92.2478 114.682 92.2359 114.401C92.2229 114.191 92.1479 113.989 92.0204 113.822C91.8928 113.654 91.7186 113.528 91.5195 113.459C91.3204 113.391 91.1053 113.382 90.9016 113.436C90.6979 113.489 90.5146 113.602 90.3749 113.76C90.2351 113.917 90.1453 114.113 90.1165 114.321C90.0878 114.53 90.1215 114.742 90.2134 114.932C90.3054 115.121 90.4514 115.279 90.6331 115.386C90.8148 115.493 91.0239 115.543 91.2341 115.531ZM78.7871 111.694C78.8644 111.576 78.9169 111.444 78.9416 111.305C78.9663 111.166 78.9627 111.023 78.9308 110.886C78.8989 110.749 78.8396 110.619 78.7562 110.505C78.6729 110.391 78.5673 110.295 78.446 110.224C78.3296 110.147 78.1988 110.094 78.0616 110.07C77.9243 110.045 77.7835 110.049 77.6478 110.081C77.512 110.113 77.3843 110.173 77.2723 110.256C77.1604 110.339 77.0665 110.444 76.9967 110.565C76.8444 110.802 76.7926 111.09 76.8525 111.366C76.9125 111.642 77.0793 111.882 77.3164 112.035C77.5555 112.182 77.842 112.231 78.1161 112.171C78.3901 112.111 78.6305 111.948 78.7871 111.715V111.694ZM73.2668 107.431C73.3667 107.332 73.4461 107.215 73.5002 107.085C73.5543 106.955 73.5821 106.816 73.5821 106.675C73.5821 106.534 73.5543 106.395 73.5002 106.265C73.4461 106.135 73.3667 106.017 73.2668 105.918C73.069 105.72 72.8007 105.609 72.5209 105.609C72.2411 105.609 71.9728 105.72 71.7749 105.918C71.5771 106.116 71.4659 106.384 71.4659 106.664C71.4659 106.944 71.5771 107.212 71.7749 107.41C71.8649 107.517 71.9751 107.604 72.0994 107.667C72.2236 107.73 72.3593 107.768 72.4984 107.778C72.6374 107.788 72.7771 107.77 72.9091 107.725C73.041 107.68 73.1626 107.609 73.2668 107.517V107.431ZM84.0302 114.785C84.3039 114.843 84.5896 114.794 84.8278 114.647C85.066 114.5 85.2384 114.267 85.309 113.996C85.3731 113.722 85.3262 113.434 85.1784 113.194C85.0306 112.954 84.7941 112.783 84.5204 112.717C84.3846 112.683 84.2431 112.675 84.1045 112.697C83.9659 112.718 83.833 112.767 83.7136 112.84C83.5943 112.914 83.491 113.011 83.4099 113.125C83.3288 113.239 83.2715 113.369 83.2415 113.506C83.1966 113.647 83.1817 113.796 83.1977 113.944C83.2137 114.091 83.2603 114.234 83.3345 114.362C83.4088 114.49 83.509 114.602 83.6288 114.689C83.7486 114.777 83.8853 114.838 84.0302 114.87V114.785ZM63.6118 97.0305C63.8945 97.0305 64.1654 96.9182 64.3653 96.7183C64.5651 96.5185 64.6775 96.2474 64.6775 95.9648C64.6775 95.6822 64.5651 95.4111 64.3653 95.2112C64.1654 95.0114 63.8945 94.8991 63.6118 94.8991C63.3292 94.8991 63.0581 95.0114 62.8582 95.2112C62.6584 95.4111 62.5461 95.6822 62.5461 95.9648C62.5375 96.1111 62.5585 96.2575 62.6079 96.3955C62.6573 96.5334 62.7341 96.6599 62.8336 96.7674C62.9332 96.8749 63.0534 96.9612 63.1871 97.021C63.3208 97.0809 63.4653 97.1131 63.6118 97.1157V97.0305ZM94.0689 186.547C94.3515 186.547 94.6226 186.435 94.8224 186.235C95.0223 186.035 95.1345 185.764 95.1345 185.482V183.841C95.1345 183.558 95.0223 183.287 94.8224 183.087C94.6226 182.887 94.3515 182.775 94.0689 182.775C93.7862 182.775 93.5152 182.887 93.3154 183.087C93.1155 183.287 93.0032 183.558 93.0032 183.841V185.716C93.0297 185.98 93.1536 186.224 93.3506 186.402C93.5477 186.579 93.8037 186.677 94.0689 186.675V186.547ZM63.3561 132.752C63.0751 132.757 62.8073 132.871 62.6086 133.07C62.4099 133.269 62.2958 133.537 62.2904 133.818C62.2904 134.1 62.4026 134.371 62.6025 134.571C62.8023 134.771 63.0734 134.883 63.3561 134.883C63.6387 134.883 63.9097 134.771 64.1095 134.571C64.3094 134.371 64.4217 134.1 64.4217 133.818C64.3903 133.558 64.2643 133.318 64.0678 133.145C63.8712 132.973 63.6179 132.878 63.3561 132.88V132.752ZM74.4817 125.143C74.2887 125.226 74.1245 125.364 74.0097 125.54C73.8949 125.716 73.8348 125.921 73.8366 126.131C73.8384 126.341 73.9022 126.546 74.02 126.72C74.1378 126.894 74.3044 127.029 74.4987 127.109C74.6931 127.188 74.9066 127.208 75.1125 127.167C75.3184 127.126 75.5074 127.024 75.6559 126.876C75.8043 126.727 75.9056 126.538 75.947 126.332C75.9884 126.126 75.968 125.913 75.8885 125.719C75.7499 125.484 75.5298 125.309 75.2704 125.226C75.011 125.144 74.7302 125.16 74.4817 125.271V125.143ZM81.6005 123.544C81.3159 123.561 81.0492 123.689 80.8578 123.9C80.6664 124.111 80.5657 124.389 80.5773 124.674C80.5901 124.883 80.6644 125.084 80.7908 125.252C80.9172 125.419 81.0902 125.545 81.2881 125.615C81.486 125.684 81.7 125.694 81.9033 125.642C82.1066 125.591 82.2901 125.48 82.431 125.325C82.5717 125.169 82.6636 124.976 82.6949 124.768C82.7262 124.561 82.6955 124.349 82.6068 124.159C82.5182 123.969 82.3754 123.809 82.1964 123.7C82.0174 123.591 81.8101 123.536 81.6005 123.544ZM94.0263 127.381C93.9521 127.5 93.9021 127.632 93.8791 127.771C93.856 127.909 93.8605 128.05 93.8922 128.187C93.9239 128.323 93.9821 128.452 94.0636 128.567C94.1452 128.681 94.2483 128.777 94.3673 128.852C94.4862 128.926 94.6186 128.976 94.7569 128.999C94.8952 129.022 95.0366 129.017 95.1732 128.986C95.3097 128.954 95.4387 128.896 95.5528 128.814C95.6668 128.733 95.7637 128.63 95.8379 128.511C95.9121 128.392 95.962 128.259 95.985 128.121C96.008 127.983 96.0037 127.841 95.972 127.705C95.9404 127.568 95.8821 127.439 95.8006 127.325C95.7191 127.211 95.6158 127.114 95.4968 127.04C95.3779 126.966 95.2455 126.916 95.1072 126.893C94.9689 126.87 94.8275 126.874 94.6909 126.906C94.5544 126.938 94.4254 126.996 94.3113 127.077C94.1973 127.159 94.1005 127.262 94.0263 127.381ZM99.5464 131.644C99.3458 131.844 99.2331 132.116 99.2331 132.4C99.2331 132.684 99.3458 132.956 99.5464 133.157C99.7471 133.358 100.019 133.47 100.303 133.47C100.587 133.47 100.859 133.358 101.06 133.157C101.26 132.956 101.373 132.684 101.373 132.4C101.373 132.116 101.26 131.844 101.06 131.644C100.859 131.443 100.587 131.33 100.303 131.33C100.019 131.33 99.7471 131.443 99.5464 131.644ZM104.065 138.294C104.152 138.403 104.26 138.494 104.383 138.561C104.505 138.628 104.64 138.67 104.779 138.684C104.919 138.698 105.059 138.684 105.193 138.642C105.326 138.601 105.45 138.533 105.557 138.443C105.714 138.31 105.828 138.135 105.886 137.938C105.943 137.741 105.942 137.531 105.881 137.335C105.82 137.139 105.703 136.966 105.544 136.836C105.385 136.706 105.191 136.626 104.987 136.605C104.783 136.585 104.577 136.625 104.396 136.721C104.214 136.817 104.065 136.964 103.967 137.144C103.868 137.324 103.825 137.529 103.843 137.733C103.86 137.938 103.937 138.133 104.065 138.294ZM88.8045 124.29C88.5277 124.226 88.2365 124.272 87.9935 124.42C87.7505 124.567 87.5748 124.804 87.5042 125.079C87.4561 125.283 87.4695 125.497 87.5426 125.694C87.6157 125.891 87.7453 126.062 87.9152 126.185C88.085 126.309 88.2876 126.379 88.4973 126.388C88.7071 126.397 88.9148 126.343 89.0943 126.234C89.2738 126.126 89.4172 125.966 89.5064 125.776C89.5956 125.586 89.6266 125.374 89.5957 125.166C89.5647 124.958 89.4731 124.765 89.3324 124.609C89.1916 124.453 89.0079 124.342 88.8045 124.29ZM68.2582 128.766C68.0839 128.886 67.9494 129.056 67.8718 129.253C67.7942 129.45 67.7768 129.665 67.8221 129.872C67.8674 130.079 67.9733 130.267 68.1261 130.413C68.279 130.56 68.472 130.657 68.6806 130.694C68.8891 130.73 69.1036 130.703 69.2969 130.617C69.4902 130.531 69.6536 130.389 69.766 130.21C69.8784 130.031 69.935 129.822 69.9284 129.61C69.9217 129.399 69.8522 129.194 69.7288 129.022C69.6452 128.912 69.5407 128.82 69.4214 128.751C69.3021 128.682 69.1702 128.638 69.0335 128.62C68.8968 128.602 68.7578 128.611 68.6247 128.647C68.4917 128.684 68.3671 128.746 68.2582 128.83V128.766ZM109.202 144.197C109.484 144.197 109.755 144.085 109.955 143.885C110.155 143.685 110.267 143.414 110.267 143.132C110.267 142.849 110.155 142.578 109.955 142.378C109.755 142.178 109.484 142.066 109.202 142.066C108.919 142.066 108.648 142.178 108.448 142.378C108.248 142.578 108.136 142.849 108.136 143.132C108.13 143.276 108.153 143.42 108.204 143.556C108.255 143.691 108.332 143.815 108.431 143.92C108.531 144.026 108.65 144.11 108.782 144.169C108.914 144.227 109.057 144.259 109.202 144.261V144.197ZM138.167 171.905L137.89 173.376C136.08 174.644 134.001 175.476 131.815 175.805C130.682 177.698 129.12 179.297 127.254 180.473L125.762 180.196C124.494 178.386 123.662 176.307 123.332 174.122C121.44 172.989 119.841 171.426 118.665 169.561L118.963 168.069C120.479 167.031 122.168 166.273 123.951 165.831C122.965 163.883 122.248 161.811 121.819 159.671C120.811 161.557 119.517 163.275 117.983 164.765L116.299 164.509C115.423 162.582 114.979 160.487 114.999 158.371C115.051 154.937 116.079 151.588 117.961 148.716H106.303C101.619 151.564 96.6098 153.84 91.3833 155.494C92.7034 156.339 93.6673 157.639 94.0916 159.148C94.516 160.657 94.3713 162.269 93.6852 163.678L92.1507 164.083C91.8185 163.87 91.4691 163.684 91.1062 163.529L91.5752 166.086C93.374 165.263 95.3696 164.967 97.3299 165.234C100.378 166.065 99.0136 169.838 99.717 170.584C99.7699 170.641 99.8355 170.685 99.9087 170.711C100.083 170.801 100.23 170.937 100.332 171.104C100.434 171.271 100.489 171.464 100.489 171.66C100.489 171.856 100.434 172.048 100.332 172.216C100.23 172.383 100.083 172.519 99.9087 172.608C100.585 172.75 101.228 173.018 101.806 173.397C101.926 173.513 102.018 173.657 102.073 173.815C102.128 173.974 102.144 174.143 102.122 174.309C102.099 174.475 102.037 174.634 101.941 174.771C101.846 174.909 101.719 175.022 101.571 175.102C101.258 175.354 101.016 175.683 100.866 176.056C100.717 176.429 100.666 176.835 100.719 177.233L102.424 177.724L102.999 179.343C101.657 181.087 100.58 183.019 99.8022 185.077C98.9283 187.848 100.548 188.956 99.5678 193.155C100.076 193.76 100.338 194.534 100.302 195.323C100.266 196.113 99.936 196.86 99.3759 197.417L100.42 198.27C100.105 200.742 100.206 203.249 100.719 205.687C101.351 205.687 101.969 205.874 102.495 206.226C103.021 206.577 103.43 207.076 103.672 207.661C103.914 208.245 103.978 208.888 103.854 209.508C103.731 210.128 103.426 210.698 102.979 211.145C102.532 211.592 101.963 211.896 101.342 212.02C100.722 212.143 100.079 212.08 99.4952 211.838C98.911 211.596 98.4118 211.186 98.0605 210.66C97.7092 210.134 97.5216 209.516 97.5216 208.884C97.5142 208.348 97.6464 207.819 97.9053 207.349C97.4977 206.965 97.0471 206.629 96.5625 206.348C94.9214 205.41 94.0262 205.857 93.5147 207.136C94.0767 207.476 94.5205 207.981 94.7855 208.582C95.0505 209.183 95.124 209.851 94.996 210.495C94.8679 211.139 94.5445 211.729 94.0698 212.183C93.595 212.637 92.992 212.933 92.3427 213.032C91.6934 213.132 91.0292 213.028 90.4407 212.737C89.8522 212.445 89.3677 211.979 89.0533 211.402C88.7389 210.826 88.6098 210.166 88.6835 209.513C88.7572 208.861 89.0301 208.246 89.4652 207.754C88.3995 205.623 86.6944 205.921 85.3303 207.754C85.6893 208.132 85.9498 208.593 86.0888 209.095C86.2277 209.597 86.2408 210.126 86.1271 210.635C86.0134 211.143 85.7763 211.616 85.4366 212.011C85.097 212.407 84.6653 212.712 84.1796 212.901C83.6939 213.09 83.1691 213.157 82.6516 213.095C82.1341 213.033 81.6397 212.845 81.2122 212.547C80.7846 212.249 80.4369 211.85 80.1998 211.386C79.9627 210.922 79.8436 210.407 79.8527 209.886C79.8457 209.347 79.9797 208.816 80.2414 208.344C80.5032 207.873 80.8835 207.479 81.3447 207.2C80.7906 205.069 79.2133 204.088 77.5508 205.516C77.7565 205.942 77.8634 206.408 77.8634 206.881C77.8634 207.353 77.7565 207.819 77.5508 208.245C77.2353 208.894 76.7079 209.416 76.0557 209.726C75.4035 210.035 74.6655 210.113 73.963 209.947C73.2606 209.78 72.6357 209.38 72.1915 208.811C71.7472 208.242 71.51 207.538 71.5191 206.817C71.5218 206.11 71.7602 205.424 72.1964 204.869C72.6327 204.313 73.2418 203.918 73.9275 203.747C73.9275 202.831 73.757 202.085 72.9045 201.765C71.8637 201.56 70.7849 201.679 69.814 202.106C70.0043 202.793 69.958 203.524 69.6826 204.181C69.4072 204.839 68.9187 205.384 68.2956 205.73C67.6726 206.076 66.9513 206.203 66.2477 206.089C65.544 205.976 64.8991 205.629 64.4165 205.104C63.934 204.58 63.6419 203.908 63.5872 203.198C63.5326 202.487 63.7185 201.779 64.1153 201.187C64.512 200.594 65.0964 200.153 65.7744 199.933C66.4524 199.713 67.1846 199.728 67.8532 199.975C68.9751 197.859 69.7794 195.59 70.2403 193.24L71.2633 192.877C71.1818 186.249 69.3035 179.767 65.8284 174.122C64.0525 171.367 61.8094 168.943 59.1999 166.96C56.1592 164.73 53.4904 162.032 51.2925 158.968L51.0794 158.733C45.7104 151.408 42.6582 142.643 42.3163 133.568C41.9744 124.493 44.3584 115.523 49.1612 107.815H46.6036C42.1704 107.815 40.785 104.916 41.9146 102.764C41.6777 102.325 41.5536 101.834 41.5536 101.336C41.5536 100.837 41.6777 100.346 41.9146 99.9078C41.6777 99.4652 41.5536 98.9711 41.5536 98.4691C41.5536 97.9672 41.6777 97.473 41.9146 97.0305C41.6885 96.5499 41.5792 96.0226 41.5958 95.4917C41.6123 94.9609 41.7542 94.4414 42.0099 93.9759C42.2655 93.5103 42.6276 93.1118 43.0667 92.813C43.5057 92.5141 44.0093 92.3233 44.5362 92.2562C44.5448 91.8451 44.6721 91.4453 44.9027 91.105C45.1334 90.7646 45.4576 90.4983 45.8363 90.338C45.1024 88.758 44.7347 87.0328 44.7606 85.2909C44.7864 83.549 45.2051 81.8355 45.9855 80.278L47.3709 79.7025C47.9657 79.9292 48.5428 80.1999 49.0973 80.5125C48.7086 78.5003 48.049 76.5501 47.1365 74.7152C46.0587 76.1286 44.7467 77.3468 43.2574 78.3171L41.7654 78.0187C40.4939 76.2185 39.6617 74.1455 39.3356 71.9657C37.4428 70.8243 35.8441 69.2548 34.668 67.3833L34.9664 65.9127C37.1368 65.5304 39.2044 64.7024 41.0386 63.4808C42.8729 62.2592 44.4339 60.6706 45.6232 58.8152L47.0938 59.1136C48.3654 60.9139 49.1976 62.9869 49.5236 65.1667C51.416 66.2995 53.0151 67.862 54.1913 69.7277L53.8928 71.2197C52.3793 72.261 50.6895 73.0192 48.9054 73.4576C49.8907 75.4052 50.6077 77.4772 51.0368 79.6173C52.045 77.7315 53.3391 76.0131 54.8732 74.5233L56.557 74.7791C57.4563 76.6981 57.9012 78.7985 57.8571 80.9174C57.8154 84.3531 56.787 87.7045 54.8945 90.5724H66.5531C71.2412 87.732 76.2493 85.457 81.4726 83.7947C80.1525 82.9497 79.1887 81.6494 78.7643 80.1405C78.3399 78.6317 78.4846 77.0195 79.1707 75.6103L80.7053 75.2053C81.0375 75.4186 81.3868 75.604 81.7497 75.7595L81.2807 73.2019C78.851 74.1183 74.8867 75.0775 73.8423 72.733C73.0963 71.1771 73.6505 69.2375 73.1603 68.726C73.1006 68.6617 73.028 68.6109 72.9472 68.5769C72.7726 68.4874 72.626 68.3515 72.5237 68.1842C72.4214 68.0168 72.3674 67.8245 72.3674 67.6284C72.3674 67.4323 72.4214 67.2399 72.5237 67.0726C72.626 66.9052 72.7726 66.7694 72.9472 66.6799C72.3314 66.527 71.7371 66.2979 71.1781 65.9979C71.0416 65.8991 70.9305 65.7694 70.8539 65.6193C70.7773 65.4693 70.7374 65.3032 70.7374 65.1347C70.7374 64.9662 70.7773 64.8001 70.8539 64.6501C70.9305 64.5 71.0416 64.3703 71.1781 64.2715C71.508 64.0995 71.7706 63.8218 71.924 63.4829C72.1024 63.0363 72.1824 62.5565 72.1586 62.0762L70.4534 61.586L69.878 59.9662C71.22 58.2228 72.2973 56.2908 73.075 54.2328C73.9489 51.5047 72.329 50.3324 73.3095 46.155C72.8017 45.5495 72.5397 44.7756 72.5752 43.9863C72.6108 43.1969 72.9413 42.4496 73.5013 41.8922L72.4782 41.0397C72.787 38.574 72.679 36.0738 72.1586 33.6439C71.4526 33.6448 70.7659 33.4135 70.2043 32.9856C69.6427 32.5577 69.2374 31.957 69.0508 31.2761C68.8642 30.5952 68.9066 29.8718 69.1716 29.2174C69.4367 28.563 69.9096 28.014 70.5174 27.6548C71.1252 27.2956 71.8343 27.1463 72.5353 27.2298C73.2364 27.3133 73.8906 27.625 74.397 28.1169C74.9034 28.6088 75.234 29.2537 75.3379 29.952C75.4418 30.6503 75.3133 31.3634 74.972 31.9814C76.059 32.9619 77.8067 34.1128 78.8297 33.0471C79.069 32.7982 79.2509 32.4999 79.3626 32.1733C78.8858 31.883 78.4933 31.4731 78.2242 30.9841C77.955 30.4951 77.8186 29.9441 77.8284 29.3861C77.8383 28.828 77.994 28.2822 78.2802 27.803C78.5665 27.3238 78.9732 26.928 79.4599 26.6547C79.9466 26.3815 80.4964 26.2404 81.0545 26.2456C81.6126 26.2507 82.1597 26.402 82.6413 26.6841C83.1229 26.9663 83.5222 27.3696 83.7995 27.854C84.0768 28.3384 84.2225 28.887 84.222 29.4451C84.2192 30.2303 83.9314 30.9876 83.4121 31.5765C84.4777 33.6013 86.1828 33.4308 87.5469 31.5765C87.0989 31.0999 86.8089 30.4966 86.7167 29.8491C86.6245 29.2015 86.7346 28.5412 87.0318 27.9585C87.3289 27.3758 87.7988 26.8991 88.3771 26.5935C88.9555 26.2879 89.614 26.1683 90.2629 26.2512C90.9117 26.334 91.5191 26.6152 92.0021 27.0563C92.4852 27.4973 92.8203 28.0768 92.9615 28.7155C93.1028 29.3541 93.0433 30.0209 92.7914 30.6245C92.5394 31.2281 92.1073 31.7393 91.5539 32.0881C92.108 34.2194 93.5787 35.1998 95.3264 33.7718C95.0571 33.1776 94.9772 32.5148 95.0978 31.8737C95.2184 31.2325 95.5336 30.6441 96.0004 30.1883C96.4672 29.7326 97.0631 29.4317 97.707 29.3266C98.3509 29.2214 99.0114 29.317 99.599 29.6006C100.187 29.8841 100.673 30.3417 100.991 30.9112C101.309 31.4807 101.444 32.1344 101.378 32.7834C101.312 33.4325 101.047 34.0453 100.62 34.5386C100.194 35.032 99.625 35.3819 98.9923 35.5408C98.9923 36.4573 99.1629 37.2033 100.015 37.523C101.056 37.7285 102.135 37.6095 103.106 37.182C102.915 36.4951 102.962 35.7642 103.237 35.1069C103.513 34.4495 104.001 33.9039 104.624 33.5578C105.247 33.2118 105.969 33.0853 106.672 33.1989C107.376 33.3124 108.021 33.6594 108.503 34.1839C108.986 34.7084 109.278 35.38 109.333 36.0906C109.387 36.8012 109.201 37.5096 108.805 38.1017C108.408 38.6938 107.824 39.1352 107.146 39.355C106.468 39.5748 105.735 39.5601 105.067 39.3133C103.951 41.4391 103.147 43.7147 102.68 46.0697L101.656 46.4108C101.704 48.8835 101.99 51.3459 102.509 53.7639C103.864 61.1093 107.85 67.7091 113.72 72.328C116.766 74.5529 119.435 77.2512 121.627 80.3206C121.709 80.3881 121.781 80.4671 121.84 80.5551C127.207 87.88 130.26 96.6432 130.606 105.717C130.951 114.791 128.574 123.761 123.78 131.473H126.316C130.771 131.473 132.135 134.372 131.005 136.525C131.242 136.963 131.366 137.454 131.366 137.952C131.366 138.451 131.242 138.942 131.005 139.381C131.246 139.822 131.372 140.316 131.372 140.819C131.372 141.322 131.246 141.816 131.005 142.258C131.231 142.738 131.341 143.266 131.324 143.797C131.308 144.327 131.166 144.847 130.91 145.312C130.654 145.778 130.292 146.176 129.853 146.475C129.414 146.774 128.911 146.965 128.384 147.032C128.379 147.447 128.254 147.851 128.023 148.196C127.792 148.54 127.465 148.81 127.084 148.972C127.822 150.547 128.192 152.269 128.166 154.008C128.14 155.747 127.719 157.458 126.934 159.01L125.549 159.607C124.958 159.364 124.381 159.087 123.823 158.776C124.211 160.788 124.871 162.738 125.783 164.573C126.87 163.16 128.189 161.942 129.684 160.971L131.154 161.27C132.426 163.07 133.258 165.143 133.584 167.323C135.449 168.48 137.017 170.057 138.167 171.926V171.905ZM105.344 37.0541C105.543 37.2493 105.811 37.3587 106.09 37.3587C106.369 37.3587 106.636 37.2493 106.836 37.0541C106.98 36.9072 107.077 36.7211 107.116 36.5191C107.154 36.3171 107.132 36.1082 107.053 35.9186C106.973 35.729 106.839 35.5672 106.668 35.4534C106.496 35.3395 106.295 35.2788 106.09 35.2788C105.884 35.2788 105.683 35.3395 105.512 35.4534C105.34 35.5672 105.207 35.729 105.127 35.9186C105.047 36.1082 105.025 36.3171 105.064 36.5191C105.102 36.7211 105.2 36.9072 105.344 37.0541ZM73.1603 30.3403C73.1548 30.0594 73.0407 29.7915 72.8421 29.5928C72.6434 29.3941 72.3755 29.2801 72.0946 29.2746C71.8119 29.2746 71.541 29.3869 71.3411 29.5868C71.1413 29.7866 71.0289 30.0577 71.0289 30.3403C71.0344 30.6213 71.1484 30.8891 71.3471 31.0878C71.5458 31.2865 71.8136 31.4005 72.0946 31.406C72.3703 31.3958 72.6325 31.2832 72.8296 31.09C73.0267 30.8969 73.1445 30.6371 73.1603 30.3616V30.3403ZM41.3178 65.4864C39.8078 65.7048 38.3578 66.2268 37.0551 67.0209C37.7103 67.8918 38.477 68.6729 39.3356 69.3441C39.5402 67.8708 40.2391 66.5106 41.3178 65.4864ZM45.2609 73.5429C43.7941 73.337 42.441 72.6379 41.4243 71.5607C41.6339 73.0697 42.1488 74.5201 42.9376 75.8235C43.8085 75.1683 44.5897 74.4015 45.2609 73.5429ZM46.7741 68.9605C46.8702 68.4892 46.8244 67.9999 46.6423 67.5547C46.4602 67.1095 46.1501 66.7284 45.7512 66.4596C45.3523 66.1908 44.8825 66.0464 44.4015 66.0448C43.9205 66.0432 43.4498 66.1844 43.0491 66.4506C42.6484 66.7167 42.3358 67.0958 42.1507 67.5398C41.9657 67.9838 41.9165 68.4728 42.0096 68.9447C42.1027 69.4166 42.3337 69.8503 42.6734 70.1908C43.0132 70.5313 43.4464 70.7633 43.9181 70.8574C44.5122 70.7961 45.0825 70.5915 45.58 70.2611C46.0775 69.9307 46.4872 69.4843 46.7741 68.9605ZM47.3922 65.4011C47.1738 63.8911 46.6517 62.4411 45.8576 61.1384C44.9867 61.7936 44.2057 62.5603 43.5345 63.4189C45.0063 63.6284 46.365 64.3265 47.3922 65.4011ZM47.3922 71.4755C48.9022 71.2571 50.3523 70.735 51.6549 69.9409C50.9997 69.07 50.233 68.2889 49.3744 67.6177C49.1882 69.0787 48.5208 70.436 47.4774 71.4755H47.3922ZM67.3844 202.149C67.1852 201.954 66.9173 201.844 66.6383 201.844C66.3594 201.844 66.0916 201.954 65.8924 202.149C65.7385 202.354 65.6637 202.608 65.6819 202.864C65.7001 203.12 65.81 203.36 65.9914 203.542C66.1728 203.723 66.4135 203.833 66.6694 203.851C66.9253 203.869 67.1791 203.795 67.3844 203.641C67.5914 203.453 67.7163 203.191 67.7322 202.912C67.7482 202.633 67.6539 202.359 67.4696 202.149H67.3844ZM99.5891 208.884C99.5946 209.165 99.7086 209.433 99.9073 209.632C100.106 209.83 100.374 209.944 100.655 209.95C100.936 209.944 101.204 209.83 101.402 209.632C101.601 209.433 101.715 209.165 101.72 208.884C101.72 208.601 101.608 208.33 101.408 208.13C101.208 207.931 100.937 207.818 100.655 207.818C100.387 207.84 100.137 207.962 99.9557 208.159C99.7739 208.357 99.6735 208.616 99.6743 208.884H99.5891ZM128.021 112.547C122.181 121.072 107.262 122.394 96.9675 121.903C104.129 125.91 109.223 132.859 114.423 139.615C121.916 132.406 126.727 122.858 128.064 112.547H128.021ZM125.165 91.2332C125.165 97.6273 121.713 103.297 116.768 107.559C116.697 107.646 116.611 107.719 116.512 107.772C110.587 112.802 104.64 117.79 97.6495 119.879C111.077 120.411 128.874 117.47 128.213 104.085C127.896 99.6531 126.897 95.2964 125.251 91.1692L125.165 91.2332ZM99.3759 45.6221C93.5551 41.5416 86.4006 39.8272 79.3626 40.8266C90.8932 42.1693 95.6887 50.6521 95.6887 62.1401C95.6887 73.0953 98.4169 83.4537 106.111 91.1266C110.233 95.2158 113.666 99.9445 116.278 105.13C125.826 96.1992 125.911 84.3915 112.249 74.0544C109.45 71.9203 107.041 69.3171 105.131 66.3602C101.297 60.1083 99.3296 52.8908 99.4612 45.5582L99.3759 45.6221ZM96.3281 80.5977C96.2764 79.493 96.0387 78.4049 95.6248 77.3794C94.8057 79.2664 93.5323 80.9215 91.9184 82.197C90.3044 83.4726 88.4 84.329 86.3747 84.6899C86.6091 86.9705 89.2946 88.6329 92.8966 86.3097C93.9222 85.7215 94.7825 84.8835 95.3973 83.8737C96.0122 82.8638 96.3617 81.7149 96.4134 80.5337L96.3281 80.5977ZM94.6017 87.7164C95.028 90.2314 98.2463 91.6168 101.635 89.2936C100.222 87.436 98.994 85.4443 97.9693 83.3471C97.3127 85.0743 96.1734 86.5762 94.687 87.6738L94.6017 87.7164ZM73.1603 98.0109C77.2738 103.041 80.9184 106.899 86.737 107.9C87.5386 101.526 89.128 95.2763 91.4687 89.2936C85.0574 91.4073 78.9356 94.3143 73.2456 97.9469L73.1603 98.0109ZM88.8683 108.135C95.7952 108.582 99.7809 104.895 108.903 97.478C106.132 93.9613 104.768 92.9382 102.999 90.9134C99.2267 93.5989 95.2624 92.853 93.3868 90.2314C91.1793 95.9724 89.6903 101.964 88.9537 108.071L88.8683 108.135ZM97.5856 33.4308C97.7447 33.5177 97.9236 33.5617 98.1048 33.5585C98.286 33.5553 98.4633 33.505 98.6192 33.4125C98.7751 33.3201 98.9041 33.1886 98.9938 33.0311C99.0835 32.8736 99.1307 32.6955 99.1307 32.5143C99.1307 32.333 99.0835 32.1549 98.9938 31.9974C98.9041 31.84 98.7751 31.7085 98.6192 31.616C98.4633 31.5236 98.286 31.4733 98.1048 31.4701C97.9236 31.4669 97.7447 31.5109 97.5856 31.5978C97.4402 31.6988 97.3227 31.8351 97.2444 31.994C97.1661 32.1529 97.1296 32.3291 97.1381 32.506C97.1467 32.6829 97.2 32.8547 97.2932 33.0053C97.3864 33.1559 97.5163 33.2803 97.6708 33.3668L97.5856 33.4308ZM89.0602 30.1698C89.2071 30.3137 89.3931 30.4111 89.5951 30.4497C89.7971 30.4882 90.006 30.4663 90.1956 30.3866C90.3852 30.307 90.5471 30.1731 90.6609 30.0018C90.7748 29.8306 90.8355 29.6295 90.8355 29.4239C90.8355 29.2182 90.7748 29.0171 90.6609 28.8458C90.5471 28.6745 90.3852 28.5407 90.1956 28.461C90.006 28.3813 89.7971 28.3594 89.5951 28.398C89.3931 28.4366 89.2071 28.5339 89.0602 28.6779C88.8745 28.8722 88.7691 29.1296 88.7652 29.3984C88.7612 29.6671 88.859 29.9274 89.0389 30.1272L89.0602 30.1698ZM80.1937 30.1698C80.3419 30.321 80.5317 30.4246 80.739 30.4674C80.9463 30.5103 81.1618 30.4905 81.3577 30.4104C81.5537 30.3304 81.7214 30.1938 81.8394 30.0181C81.9575 29.8424 82.0205 29.6355 82.0205 29.4239C82.0205 29.2122 81.9575 29.0053 81.8394 28.8296C81.7214 28.6538 81.5537 28.5173 81.3577 28.4373C81.1618 28.3572 80.9463 28.3374 80.739 28.3802C80.5317 28.4231 80.3419 28.5267 80.1937 28.6779C80.008 28.8722 79.9027 29.1296 79.8988 29.3984C79.8948 29.6671 79.9926 29.9274 80.1725 30.1272L80.1937 30.1698ZM74.4178 34.2833C74.6915 36.0597 74.7773 37.86 74.6736 39.6543C79.097 38.3488 83.7593 38.0657 88.3082 38.8263C92.8571 39.5869 97.1738 41.3714 100.932 44.0449C101.319 42.5173 101.84 41.0268 102.488 39.5904C101.943 39.7214 101.385 39.7929 100.825 39.8036C100.251 39.8444 99.6747 39.7539 99.1404 39.539C98.6062 39.3241 98.1279 38.9904 97.7417 38.5632C97.3556 38.1359 97.0718 37.6265 96.9118 37.0733C96.7518 36.5201 96.7199 35.9377 96.8184 35.3703C93.8345 37.9279 90.4243 36.4573 89.4652 32.6422C87.2059 35.9245 83.4334 36.1163 81.5578 32.6422C80.3642 35.6047 77.5722 36.5213 74.3965 34.2194L74.4178 34.2833ZM89.3373 63.8665C89.5609 59.8237 88.5659 55.807 86.4812 52.3359C85.2285 50.5873 83.5582 49.1798 81.6225 48.2417C79.6867 47.3036 77.5469 46.8647 75.3982 46.9649H75.2277C75.2277 47.3059 75.1212 47.6043 75.0785 47.8813C75.0621 48.0621 75.1052 48.2434 75.2015 48.3973C75.2977 48.5513 75.4416 48.6695 75.6114 48.7339C76.8689 49.3094 79.6183 49.0962 81.5578 50.1619C81.6965 50.2191 81.8217 50.305 81.9249 50.414C82.0282 50.5229 82.1073 50.6524 82.157 50.794C82.2067 50.9356 82.2259 51.0861 82.2134 51.2357C82.201 51.3852 82.157 51.5305 82.0845 51.6619C82.012 51.7933 81.9126 51.9079 81.7927 51.9982C81.6729 52.0885 81.5353 52.1525 81.3889 52.1859C81.2426 52.2194 81.091 52.2216 80.9438 52.1923C80.7966 52.1631 80.6572 52.103 80.5348 52.0162C78.8017 51.5103 77.0354 51.1257 75.2489 50.8653C75.3456 51.4214 75.3955 51.9846 75.3982 52.549C75.1034 55.2495 74.0546 57.8125 72.3717 59.9448L74.7374 60.6269C74.8734 60.6635 75.0005 60.7272 75.1112 60.8142C75.2219 60.9012 75.3138 61.0097 75.3815 61.1331C75.4492 61.2565 75.4912 61.3924 75.5051 61.5325C75.5189 61.6726 75.5043 61.814 75.4622 61.9483C75.3872 62.2141 75.212 62.4405 74.9734 62.5796C74.7349 62.7188 74.4515 62.7599 74.1833 62.6943C74.146 63.3837 73.9491 64.055 73.6079 64.6552C74.081 64.7762 74.5694 64.8264 75.0572 64.8043C75.3398 64.8043 75.6109 64.9166 75.8108 65.1165C76.0106 65.3163 76.1229 65.5874 76.1229 65.87C76.1229 66.1526 76.0106 66.4237 75.8108 66.6236C75.6109 66.8234 75.3398 66.9357 75.0572 66.9357H74.2899C76.1868 68.2784 75.1424 71.0492 75.7818 71.8804C76.0902 72.041 76.4365 72.1146 76.7836 72.0936C80.7266 72.0083 89.2734 67.1914 89.3373 63.8026V63.8665ZM83.3055 72.3919L84.0089 76.1645C87.0568 75.7382 88.4635 71.6247 88.9537 68.5769C87.2756 70.094 85.3696 71.3382 83.3055 72.2641V72.3919ZM85.4369 82.7078C86.7698 82.5871 88.0647 82.1983 89.2436 81.5647C90.4226 80.9311 91.4612 80.0657 92.2973 79.0206C93.1334 77.9754 93.7497 76.7721 94.109 75.4829C94.4684 74.1936 94.5635 72.8451 94.3886 71.5181C93.9149 68.472 93.6797 65.3934 93.6852 62.3107C93.6852 50.1406 88.2076 42.9153 76.1867 42.9153C74.9719 42.9153 74.4177 44.2368 74.7374 44.727C74.8265 44.8216 74.9366 44.8941 75.0588 44.9385C75.1809 44.9829 75.3117 44.9981 75.4408 44.9827C77.6491 44.907 79.8477 45.3096 81.8858 46.1631C83.9238 47.0166 85.7532 48.3008 87.2485 49.9275C90.3233 53.9469 91.8377 58.9443 91.5112 63.9945C91.5419 66.8497 91.1175 69.6916 90.2538 72.4133C88.2929 77.9974 84.3712 79.4041 80.8119 77.763C80.7256 78.3992 80.7841 79.0468 80.9831 79.6572C81.1821 80.2677 81.5164 80.8252 81.9611 81.2884C82.4058 81.7515 82.9493 82.1082 83.5511 82.3319C84.153 82.5555 84.7977 82.6402 85.4369 82.5798V82.7078ZM68.386 91.9365L71.8388 96.3697C76.5411 93.3399 81.5401 90.7975 86.7583 88.7821C86.1176 88.3866 85.5717 87.8553 85.1591 87.2254C84.7466 86.5956 84.4777 85.8828 84.3712 85.1375C78.7731 86.7083 73.4005 88.9935 68.386 91.9365ZM55.3848 92.7038C56.3652 93.7907 57.5162 95.1122 58.3048 96.2632C66.8302 107.474 72.8832 115.85 83.881 118.195C84.7762 118.344 85.6714 118.472 86.5452 118.642C98.3529 120.028 105.727 114.252 114.679 106.622C113.429 104.027 111.946 101.551 110.246 99.2258C100.527 107.09 96.2003 111.161 87.6322 110.181C79.0642 109.2 74.4605 103.19 66.3187 92.7038H55.3848ZM51.3352 86.9278C51.3318 87.97 51.4607 89.0085 51.7188 90.0183C51.999 90.0585 52.2766 90.1154 52.5501 90.1888C53.9384 88.3588 54.9 86.2417 55.3647 83.9922C55.8293 81.7427 55.7853 79.4177 55.2356 77.1875C52.7838 79.8453 51.3955 83.3123 51.3352 86.9278ZM48.0742 89.8051H49.5023C49.1093 87.6855 49.1673 85.5068 49.6727 83.4111C49.0041 82.9126 48.2905 82.4773 47.5413 82.111C47.0001 83.3407 46.7658 84.6834 46.8586 86.0238C46.9514 87.3641 47.3686 88.6618 48.0742 89.8051ZM50.5039 105.684C52.3707 102.897 54.5129 100.305 56.898 97.9469C55.4243 95.8927 53.7462 93.9932 51.8894 92.2775C50.3853 91.9493 48.8395 91.8558 47.3069 92.0004C47.0458 92.0437 46.7937 92.1302 46.561 92.2562C46.561 92.2562 46.5609 92.4267 46.6675 92.4907C46.8369 92.7011 47.0471 92.8751 47.2856 93.0022C48.205 93.4823 49.2328 93.7172 50.2695 93.6842L51.2925 94.4302L52.4222 98.0322C52.4685 98.165 52.4875 98.3058 52.478 98.4461C52.4685 98.5864 52.4309 98.7234 52.3672 98.8488C52.3035 98.9742 52.215 99.0854 52.1073 99.1758C51.9995 99.2662 51.8747 99.334 51.7402 99.3749C51.4716 99.4623 51.1794 99.4396 50.9276 99.3118C50.6759 99.1839 50.4852 98.9613 50.3974 98.6929L49.4809 95.7729C47.9566 95.7344 46.4908 95.1782 45.3247 94.1957C42.7245 94.3876 42.6179 97.6485 47.9463 96.6681C48.0836 96.6405 48.2252 96.6408 48.3624 96.669C48.4997 96.6972 48.6299 96.7527 48.7453 96.8322C48.8606 96.9118 48.9587 97.0137 49.0338 97.132C49.1089 97.2503 49.1595 97.3824 49.1825 97.5207C49.2323 97.7975 49.1706 98.0829 49.0109 98.3144C48.8512 98.546 48.6065 98.7051 48.33 98.7569C46.7604 99.1205 45.1197 99.0317 43.5984 98.5011C43.6171 98.6384 43.6649 98.7702 43.7383 98.8878C43.8118 99.0054 43.9094 99.106 44.0247 99.1831C45.265 99.7591 46.6685 99.8799 47.9889 99.5241C48.1289 99.4989 48.2724 99.5016 48.4113 99.5319C48.5503 99.5621 48.682 99.6194 48.7987 99.7006C48.9155 99.7817 49.0151 99.8851 49.092 100.005C49.1688 100.124 49.2213 100.258 49.2465 100.398C49.2717 100.538 49.269 100.681 49.2387 100.82C49.2084 100.959 49.1511 101.091 49.07 101.208C48.9888 101.324 48.8855 101.424 48.7658 101.501C48.6462 101.578 48.5125 101.63 48.3726 101.655C46.7908 102.043 45.1296 101.954 43.5984 101.4C43.6129 101.538 43.6589 101.672 43.7327 101.79C43.8066 101.908 43.9064 102.008 44.0247 102.082C45.2245 102.665 46.5949 102.793 47.8824 102.444C48.1593 102.394 48.4446 102.456 48.6762 102.616C48.9078 102.775 49.0668 103.02 49.1186 103.297C49.1463 103.434 49.1459 103.576 49.1177 103.713C49.0895 103.85 49.034 103.98 48.9545 104.096C48.8749 104.211 48.773 104.309 48.6547 104.384C48.5365 104.459 48.4042 104.51 48.266 104.533C46.7088 104.892 45.0811 104.796 43.577 104.256C43.5874 104.42 43.6375 104.58 43.7228 104.721C43.8082 104.862 43.9264 104.98 44.0673 105.066C44.8016 105.496 45.6478 105.696 46.497 105.641L50.5039 105.684ZM44.7067 126.72C50.5466 118.195 65.466 116.873 75.7818 117.364C68.6204 113.357 63.5053 106.43 58.3048 99.652C50.8391 106.858 46.0442 116.388 44.7067 126.678V126.72ZM47.584 148.034C47.584 141.64 51.0155 135.97 55.9815 131.708C56.0491 131.626 56.128 131.554 56.2159 131.494C62.1411 126.464 68.0877 121.477 75.0999 119.388C61.7149 118.856 43.8115 121.797 44.5362 135.182C44.8739 139.606 45.9023 143.949 47.584 148.055V148.034ZM73.3735 193.645C79.1832 197.732 86.3338 199.447 93.3655 198.44C81.8348 197.098 77.0393 188.615 77.0393 177.127C77.0393 166.172 74.3112 155.813 66.6383 148.14C62.511 144.064 59.0769 139.342 56.4717 134.159C46.7953 143.153 46.9232 154.961 60.4787 165.213C63.2891 167.335 65.6996 169.94 67.5974 172.907C71.4468 179.141 73.4496 186.339 73.3735 193.666V193.645ZM76.4213 158.669C76.4716 159.772 76.702 160.859 77.1033 161.888C77.9256 160.003 79.1998 158.35 80.8132 157.074C82.4266 155.799 84.3294 154.942 86.3534 154.577C86.1189 152.318 83.4547 150.634 79.8314 152.957C78.8303 153.553 77.9939 154.39 77.3984 155.391C76.8028 156.392 76.467 157.526 76.4213 158.691V158.669ZM78.1264 151.551C77.7214 149.036 74.4818 147.65 71.0929 149.995C72.515 151.828 73.7501 153.798 74.7801 155.877C75.4698 154.168 76.6302 152.69 78.1264 151.614V151.551ZM99.5678 141.256C95.4756 136.247 91.831 132.39 85.9911 131.367C85.1991 137.742 83.6094 143.994 81.2594 149.973C81.5242 149.889 81.7949 149.825 82.0693 149.782C88.2247 147.665 94.1005 144.81 99.5678 141.277V141.256ZM83.881 131.132C76.9541 130.685 72.9897 134.351 63.8249 141.789C66.5957 145.306 67.9811 146.329 69.7288 148.354C73.5013 145.668 77.487 146.435 79.3412 149.036C81.5781 143.282 83.1027 137.277 83.881 131.153V131.132ZM75.1424 205.836C74.9833 205.749 74.8044 205.705 74.6232 205.708C74.442 205.712 74.2647 205.762 74.1089 205.854C73.953 205.947 73.8239 206.078 73.7342 206.236C73.6445 206.393 73.5973 206.571 73.5973 206.753C73.5973 206.934 73.6445 207.112 73.7342 207.269C73.8239 207.427 73.953 207.558 74.1089 207.651C74.2647 207.743 74.442 207.794 74.6232 207.797C74.8044 207.8 74.9833 207.756 75.1424 207.669C75.2966 207.574 75.4239 207.44 75.5121 207.282C75.6004 207.123 75.6467 206.945 75.6467 206.763C75.6467 206.582 75.6004 206.403 75.5121 206.245C75.4239 206.086 75.2966 205.953 75.1424 205.857V205.836ZM83.7744 209.118C83.679 209.02 83.5648 208.941 83.4385 208.888C83.3122 208.834 83.1763 208.807 83.0391 208.807C82.9019 208.807 82.7661 208.834 82.6397 208.888C82.5134 208.941 82.3993 209.02 82.3039 209.118C82.1569 209.264 82.0565 209.45 82.0154 209.653C81.9744 209.856 81.9946 210.066 82.0733 210.258C82.1521 210.449 82.2861 210.613 82.458 210.728C82.6299 210.843 82.8322 210.904 83.0391 210.904C83.246 210.904 83.4483 210.843 83.6202 210.728C83.7921 210.613 83.9261 210.449 84.0049 210.258C84.0837 210.066 84.1038 209.856 84.0628 209.653C84.0217 209.45 83.9213 209.264 83.7744 209.118ZM92.6409 209.118C92.5418 209.019 92.4239 208.939 92.2941 208.885C92.1642 208.831 92.025 208.803 91.8843 208.803C91.7436 208.803 91.6042 208.831 91.4744 208.885C91.3445 208.939 91.2266 209.019 91.1276 209.118C90.9323 209.318 90.823 209.585 90.823 209.864C90.823 210.143 90.9323 210.411 91.1276 210.61C91.2223 210.723 91.3393 210.814 91.471 210.879C91.6027 210.944 91.7464 210.981 91.8931 210.987C92.0398 210.994 92.1864 210.97 92.3235 210.918C92.4606 210.865 92.5854 210.785 92.6899 210.682C92.7945 210.579 92.8766 210.455 92.9311 210.319C92.9856 210.182 93.0114 210.036 93.0068 209.889C93.0022 209.743 92.9674 209.598 92.9044 209.466C92.8415 209.333 92.7517 209.215 92.6409 209.118ZM98.4381 205.005C98.1561 203.229 98.0632 201.429 98.161 199.634C93.7381 200.944 89.075 201.23 84.5252 200.469C79.9755 199.708 75.6589 197.921 71.9028 195.243C71.5158 196.771 70.9951 198.261 70.3468 199.698C73.757 198.909 76.2081 200.465 76.0163 203.961C79.0002 201.403 82.4104 202.874 83.3482 206.689C85.6287 203.406 89.4012 203.215 91.2554 206.689C92.449 203.662 95.1984 202.767 98.4381 205.005ZM83.5186 175.422C83.2873 179.462 84.2749 183.479 86.3534 186.952C87.6061 188.701 89.2765 190.108 91.2123 191.047C93.148 191.985 95.2877 192.424 97.4364 192.323H97.607C97.6724 192.021 97.7222 191.715 97.7562 191.407C97.7727 191.226 97.7295 191.045 97.6333 190.891C97.537 190.737 97.3931 190.619 97.2233 190.554C95.9658 189.979 93.2163 190.213 91.2768 189.126C91.1534 189.059 91.0445 188.969 90.9562 188.86C90.868 188.75 90.8022 188.625 90.7625 188.49C90.7229 188.356 90.7102 188.214 90.7253 188.075C90.7404 187.935 90.783 187.8 90.8505 187.677C90.9893 187.431 91.2199 187.251 91.4916 187.175C91.7632 187.099 92.0538 187.134 92.2998 187.272C94.0328 187.778 95.7991 188.163 97.5856 188.423C97.4995 187.866 97.4496 187.303 97.4364 186.739C97.6985 184.043 98.7099 181.474 100.356 179.322L97.9906 178.64C97.708 178.567 97.4661 178.384 97.3182 178.132C97.1703 177.88 97.1285 177.58 97.202 177.297C97.2755 177.015 97.4582 176.773 97.71 176.625C97.9618 176.477 98.2621 176.435 98.5448 176.509C98.5873 175.82 98.7839 175.15 99.1202 174.548C98.6542 174.428 98.1729 174.377 97.6922 174.399C97.4095 174.399 97.1384 174.286 96.9386 174.087C96.7387 173.887 96.6265 173.616 96.6265 173.333C96.6265 173.05 96.7387 172.779 96.9386 172.579C97.1384 172.38 97.4095 172.267 97.6922 172.267H98.4594C97.0314 171.244 97.3086 169.561 97.2233 168.282C97.2148 167.946 97.127 167.618 96.9675 167.323C96.6657 167.165 96.3271 167.091 95.9871 167.109C92.1294 167.237 83.5187 172.033 83.4974 175.422H83.5186ZM89.5291 166.896L88.8258 163.124C85.778 163.55 84.3926 167.664 83.881 170.711C85.5518 169.178 87.4498 167.913 89.5077 166.96L89.5291 166.896ZM87.5042 156.581C86.1713 156.701 84.8765 157.09 83.6976 157.724C82.5187 158.357 81.4799 159.223 80.6438 160.268C79.8077 161.313 79.1916 162.516 78.8322 163.805C78.4728 165.095 78.3777 166.443 78.5526 167.77V167.877C79.0377 170.914 79.2729 173.987 79.2559 177.063C79.2559 189.276 84.7762 196.458 96.7544 196.458C97.9693 196.458 98.5234 195.137 98.2037 194.647C98.1146 194.552 98.0047 194.479 97.8825 194.435C97.7603 194.391 97.6294 194.375 97.5003 194.391C95.2922 194.465 93.0942 194.062 91.0563 193.208C89.0184 192.355 87.1888 191.072 85.6926 189.446C82.6161 185.427 81.1015 180.429 81.4299 175.379C81.3861 172.525 81.8035 169.682 82.6661 166.96C84.6483 161.376 88.5487 159.969 92.1294 161.611C92.2391 160.969 92.2003 160.311 92.0162 159.686C91.8321 159.062 91.5074 158.488 91.0671 158.009C90.6267 157.529 90.0825 157.157 89.476 156.92C88.8695 156.684 88.2169 156.59 87.5682 156.644L87.5042 156.581ZM104.385 147.309L100.932 142.876C96.279 145.912 91.3303 148.469 86.1616 150.506C86.7843 150.903 87.3128 151.431 87.7104 152.053C88.108 152.675 88.3649 153.376 88.4634 154.108C94.03 152.544 99.3735 150.273 104.363 147.352L104.385 147.309ZM117.386 146.542C111.589 140.148 104.747 127.892 94.7296 123.097C92.8189 122.173 90.7995 121.493 88.7191 121.072L86.2895 120.667C74.4605 119.282 67.1072 125.058 58.1342 132.688C59.3872 135.281 60.8709 137.756 62.5675 140.084C72.2438 132.24 76.5918 128.148 85.1811 129.129C94.1115 130.152 98.4808 136.311 106.495 146.606L117.386 146.542ZM121.478 152.233C121.481 151.19 121.353 150.152 121.094 149.142L120.285 148.993C118.887 150.814 117.919 152.927 117.454 155.175C116.989 157.423 117.039 159.747 117.599 161.973C120.006 159.316 121.375 155.881 121.457 152.297L121.478 152.233ZM125.421 147.203C125.684 147.164 125.936 147.078 126.167 146.947C126.137 146.863 126.094 146.784 126.039 146.712C125.875 146.497 125.664 146.322 125.421 146.201C124.502 145.721 123.474 145.486 122.437 145.519L121.436 144.773L120.285 141.171C120.238 141.038 120.219 140.897 120.229 140.757C120.238 140.617 120.276 140.48 120.34 140.354C120.403 140.229 120.492 140.118 120.599 140.027C120.707 139.937 120.832 139.869 120.967 139.828C121.101 139.785 121.242 139.769 121.383 139.782C121.523 139.794 121.66 139.834 121.785 139.899C121.91 139.965 122.02 140.054 122.11 140.163C122.2 140.271 122.268 140.397 122.309 140.531L123.226 143.43C124.786 143.45 126.291 144.007 127.488 145.007C130.089 144.815 130.217 141.554 124.867 142.556C124.584 142.607 124.293 142.544 124.057 142.38C123.821 142.216 123.66 141.965 123.609 141.682C123.559 141.4 123.622 141.108 123.786 140.873C123.95 140.637 124.201 140.476 124.483 140.425C126.053 140.061 127.694 140.15 129.215 140.681C129.204 140.541 129.159 140.406 129.085 140.288C129.011 140.169 128.909 140.07 128.789 139.999C127.556 139.424 126.159 139.303 124.846 139.658C124.566 139.708 124.278 139.647 124.043 139.487C123.808 139.328 123.645 139.083 123.588 138.805C123.538 138.528 123.6 138.243 123.76 138.011C123.919 137.78 124.164 137.621 124.441 137.569C126.024 137.197 127.68 137.286 129.215 137.825C129.204 137.685 129.159 137.55 129.085 137.432C129.011 137.313 128.909 137.214 128.789 137.143C127.589 136.56 126.218 136.431 124.931 136.78C124.654 136.83 124.369 136.768 124.137 136.609C123.906 136.449 123.747 136.204 123.695 135.928C123.667 135.79 123.667 135.649 123.696 135.512C123.724 135.374 123.779 135.244 123.859 135.129C123.938 135.013 124.04 134.915 124.159 134.84C124.277 134.765 124.409 134.714 124.547 134.692C126.104 134.332 127.732 134.429 129.236 134.969C129.226 134.804 129.176 134.645 129.091 134.504C129.005 134.363 128.887 134.244 128.746 134.159C128.012 133.729 127.165 133.528 126.316 133.583H122.416C120.508 136.375 118.323 138.967 115.894 141.32C117.362 143.379 119.041 145.279 120.903 146.989C122.375 147.337 123.891 147.46 125.4 147.352L125.421 147.203ZM123.29 155.835C123.954 156.339 124.668 156.775 125.421 157.135C125.973 155.901 126.215 154.551 126.126 153.203C126.036 151.854 125.619 150.548 124.91 149.398H123.46C123.837 151.553 123.735 153.765 123.162 155.877L123.29 155.835ZM125.421 167.706C123.912 167.916 122.462 168.431 121.158 169.219C121.808 170.095 122.575 170.877 123.439 171.543C123.643 170.112 124.309 168.787 125.336 167.77L125.421 167.706ZM129.364 175.763C127.898 175.54 126.548 174.835 125.528 173.759C125.747 175.266 126.262 176.714 127.041 178.022C127.877 177.388 128.629 176.65 129.279 175.827L129.364 175.763ZM130.899 171.159C130.994 170.689 130.948 170.201 130.766 169.756C130.584 169.312 130.274 168.932 129.877 168.663C129.479 168.395 129.01 168.25 128.531 168.248C128.051 168.245 127.581 168.385 127.18 168.649C126.779 168.913 126.466 169.29 126.279 169.732C126.092 170.174 126.04 170.662 126.131 171.133C126.221 171.604 126.448 172.039 126.785 172.381C127.121 172.723 127.551 172.958 128.021 173.056C128.597 172.987 129.148 172.785 129.633 172.467C130.117 172.149 130.521 171.723 130.813 171.223L130.899 171.159ZM131.495 167.6C131.277 166.09 130.755 164.64 129.961 163.337C129.095 163.998 128.315 164.764 127.638 165.617C129.087 165.862 130.414 166.582 131.41 167.664L131.495 167.6ZM135.758 172.139C135.099 171.279 134.34 170.5 133.499 169.816C133.281 171.29 132.575 172.648 131.495 173.674C133.002 173.479 134.452 172.978 135.758 172.203V172.139Z" fill="#1F1F1F"/>
</svg>
