<svg width="36" height="36" viewBox="0 0 36 36" fill="none" xmlns="http://www.w3.org/2000/svg">
<circle cx="18" cy="18" r="18" fill="#D9D9D9"/>
<circle cx="18" cy="18" r="18" fill="url(#paint0_linear_49_71594)" fill-opacity="0.2"/>
<circle r="16" transform="matrix(1 0 0 -1 18 18)" fill="url(#paint1_linear_49_71594)"/>
<circle r="15.5" transform="matrix(1 0 0 -1 18 18)" stroke="url(#paint2_linear_49_71594)" stroke-opacity="0.2"/>
<path d="M7.69043 20H6.76172L6.76758 19.3145H7.69043C7.9209 19.3145 8.11523 19.2627 8.27344 19.1592C8.43164 19.0537 8.55078 18.9004 8.63086 18.6992C8.71289 18.498 8.75391 18.2549 8.75391 17.9697V17.7617C8.75391 17.543 8.73047 17.3506 8.68359 17.1846C8.63867 17.0186 8.57129 16.8789 8.48145 16.7656C8.3916 16.6523 8.28125 16.5674 8.15039 16.5107C8.01953 16.4521 7.86914 16.4229 7.69922 16.4229H6.74414V15.7344H7.69922C7.98438 15.7344 8.24512 15.7832 8.48145 15.8809C8.71973 15.9766 8.92578 16.1143 9.09961 16.2939C9.27344 16.4736 9.40723 16.6885 9.50098 16.9385C9.59668 17.1865 9.64453 17.4629 9.64453 17.7676V17.9697C9.64453 18.2725 9.59668 18.5488 9.50098 18.7988C9.40723 19.0488 9.27344 19.2637 9.09961 19.4434C8.92773 19.6211 8.72168 19.7588 8.48145 19.8564C8.24316 19.9521 7.97949 20 7.69043 20ZM7.25977 15.7344V20H6.38086V15.7344H7.25977ZM13.7455 19.3145V20H11.475V19.3145H13.7455ZM11.7621 15.7344V20H10.8832V15.7344H11.7621ZM13.4496 17.4717V18.1396H11.475V17.4717H13.4496ZM13.7426 15.7344V16.4229H11.475V15.7344H13.7426ZM16.5926 16.4639L15.4324 20H14.4979L16.0828 15.7344H16.6775L16.5926 16.4639ZM17.5564 20L16.3934 16.4639L16.2996 15.7344H16.9002L18.4939 20H17.5564ZM17.5037 18.4121V19.1006H15.2508V18.4121H17.5037ZM22.2316 19.3145V20H20.0842V19.3145H22.2316ZM20.3684 15.7344V20H19.4895V15.7344H20.3684ZM26.1979 19.3145V20H23.9273V19.3145H26.1979ZM24.2145 15.7344V20H23.3355V15.7344H24.2145ZM25.902 17.4717V18.1396H23.9273V17.4717H25.902ZM26.1949 15.7344V16.4229H23.9273V15.7344H26.1949ZM27.3105 15.7344H28.9014C29.2275 15.7344 29.5078 15.7832 29.7422 15.8809C29.9785 15.9785 30.1602 16.123 30.2871 16.3145C30.4141 16.5059 30.4775 16.7412 30.4775 17.0205C30.4775 17.249 30.4385 17.4453 30.3604 17.6094C30.2842 17.7715 30.1758 17.9072 30.0352 18.0166C29.8965 18.124 29.7334 18.21 29.5459 18.2744L29.2676 18.4209H27.8848L27.8789 17.7354H28.9072C29.0615 17.7354 29.1895 17.708 29.291 17.6533C29.3926 17.5986 29.4688 17.5225 29.5195 17.4248C29.5723 17.3271 29.5986 17.2139 29.5986 17.085C29.5986 16.9482 29.5732 16.8301 29.5225 16.7305C29.4717 16.6309 29.3945 16.5547 29.291 16.502C29.1875 16.4492 29.0576 16.4229 28.9014 16.4229H28.1895V20H27.3105V15.7344ZM29.6953 20L28.7227 18.0986L29.6514 18.0928L30.6357 19.959V20H29.6953Z" fill="black"/>
<defs>
<linearGradient id="paint0_linear_49_71594" x1="18" y1="0" x2="18" y2="36" gradientUnits="userSpaceOnUse">
<stop stop-color="white"/>
<stop offset="1" stop-opacity="0"/>
</linearGradient>
<linearGradient id="paint1_linear_49_71594" x1="16" y1="0" x2="16" y2="32" gradientUnits="userSpaceOnUse">
<stop stop-color="white" stop-opacity="0.9"/>
<stop offset="1" stop-color="#EAEAEA"/>
</linearGradient>
<linearGradient id="paint2_linear_49_71594" x1="16" y1="0" x2="16" y2="32" gradientUnits="userSpaceOnUse">
<stop stop-color="white"/>
<stop offset="1"/>
</linearGradient>
</defs>
</svg>
