<svg width="40" height="50" viewBox="0 0 40 50" fill="none" xmlns="http://www.w3.org/2000/svg">
<path d="M19.911 10.1494C14.3062 10.1494 9.74531 14.7103 9.74531 20.3151C9.74531 25.9199 14.3064 30.4808 19.911 30.4808C25.5159 30.4808 30.0768 25.9199 30.0768 20.3151C30.0768 14.7103 25.5159 10.1494 19.911 10.1494ZM26.4504 19.5592L24.2338 21.7191L24.7572 24.7696C24.8508 25.3142 24.6267 25.8645 24.1799 26.1893C23.742 26.5092 23.1479 26.5623 22.6496 26.3L19.911 24.8605L17.1725 26.3C16.6861 26.5595 16.0876 26.5155 15.6424 26.1893C15.1957 25.8645 14.9716 25.3142 15.0651 24.7696L15.5884 21.7191L13.3718 19.5592C12.9761 19.1735 12.8342 18.5962 13.0046 18.0715C13.1762 17.5454 13.6301 17.1624 14.1774 17.083L17.2394 16.6376L18.6094 13.8637C19.0973 12.8709 20.7253 12.8709 21.2132 13.8637L22.5832 16.6376L25.6452 17.083C26.1925 17.1624 26.6464 17.5454 26.818 18.0715C26.9878 18.5963 26.8461 19.1735 26.4504 19.5592ZM20.3165 18.6076L19.911 17.7865L19.5054 18.6076C19.294 19.0358 18.8856 19.3338 18.4119 19.4018L17.5071 19.5337L18.1624 20.1732C18.5041 20.5065 18.6602 20.9874 18.5793 21.4581L18.4247 22.3601L19.2345 21.9347C19.4474 21.8227 19.6785 21.7673 19.911 21.7673C20.1436 21.7673 20.3747 21.8227 20.5875 21.9347L21.3974 22.3601L21.2428 21.4581C21.1619 20.9872 21.318 20.5065 21.6597 20.1732L22.315 19.5337L21.4102 19.4018C20.9363 19.3338 20.5279 19.036 20.3165 18.6076ZM38.7434 20.8669C38.5605 20.5222 38.5605 20.1082 38.7434 19.7635L39.3532 18.6119C40.292 16.8392 39.7814 14.6041 38.1676 13.4157L37.1166 12.6413C36.8032 12.4087 36.6245 12.0372 36.6387 11.647L36.6884 10.345C36.7651 8.33974 35.3369 6.54708 33.3641 6.17688L32.0849 5.9358C31.7006 5.86339 31.3786 5.60678 31.2225 5.24802L30.7021 4.05243C29.8895 2.18329 27.86 1.21455 25.8987 1.73937L24.6393 2.07688C24.2564 2.17757 23.8579 2.08685 23.5643 1.83155L22.5773 0.980664C21.0569 -0.326888 18.7651 -0.326888 17.2448 0.980664L16.2591 1.83155C15.964 2.08685 15.5613 2.17757 15.1811 2.07688L13.9231 1.73937C11.9575 1.21472 9.93507 2.18329 9.11965 4.05243L8.59908 5.24802C8.44315 5.60678 8.12117 5.86356 7.73822 5.9358L6.45763 6.17688C4.48486 6.54708 3.05669 8.33957 3.13334 10.345L3.18303 11.6456C3.19725 12.037 3.01861 12.4085 2.70365 12.6411L1.65565 13.414C0.0403284 14.6039 -0.470271 16.839 0.468552 18.6117L1.07836 19.7633C1.26126 20.1079 1.26126 20.522 1.07836 20.8667L0.468552 22.0197C-0.470271 23.7924 0.0401651 26.0275 1.65565 27.2174L2.70234 27.9888C3.01861 28.2214 3.19725 28.5931 3.1832 28.983L3.13351 30.2863C3.05685 32.2903 4.48503 34.083 6.45502 34.453L7.73985 34.6969C8.12133 34.7678 8.44332 35.0244 8.59924 35.3834L9.11981 36.5789C9.9367 38.4481 11.9562 39.4224 13.9247 38.892L15.1813 38.553C15.5543 38.4566 15.9627 38.5403 16.2577 38.7984L17.2448 39.6492C18.005 40.303 18.958 40.6306 19.911 40.6306C20.8641 40.6306 21.8171 40.303 22.5773 39.6492L23.563 38.7984C23.8566 38.5445 24.2565 38.4494 24.6395 38.553L25.8988 38.892C27.8559 39.4181 29.8869 38.4481 30.7023 36.5789L31.2227 35.3834C31.3786 35.0246 31.7006 34.7678 32.0863 34.6956L33.3641 34.453C35.3369 34.0828 36.7649 32.2903 36.6884 30.2863L36.6387 28.9844C36.6245 28.5929 36.8033 28.2214 37.1166 27.9901L38.1661 27.2172C39.7814 26.0273 40.292 23.7922 39.3532 22.0195L38.7434 20.8669ZM19.911 33.3854C12.7037 33.3854 6.84075 27.5225 6.84075 20.3151C6.84075 13.1077 12.7037 7.24482 19.911 7.24482C27.1184 7.24482 32.9813 13.1077 32.9813 20.3151C32.9813 27.5225 27.1184 33.3854 19.911 33.3854ZM12.847 41.9401C7.94024 41.9425 6.54148 37.6712 6.30056 37.3805C6.2329 37.3649 6.5454 37.4377 5.64058 37.229L2.50261 42.8421C2.24307 43.3073 2.25859 43.8759 2.54233 44.3255C2.82591 44.7765 3.34223 45.0275 3.8641 45.0006L8.12444 44.7268L10.0148 48.5517C10.2544 49.0353 10.741 49.3459 11.2799 49.3601H11.3168C11.8415 49.3601 12.3281 49.0765 12.5847 48.6169L16.0763 42.3699C15.2501 41.8276 15.4026 41.8709 15.0538 41.5954C14.7495 41.6614 14.0655 41.9401 12.847 41.9401ZM34.1411 37.2396C33.2911 37.432 33.5853 37.3659 33.5215 37.3805C33.2804 37.6712 31.8807 41.9386 26.9694 41.9386C26.0902 41.9386 25.8284 41.8248 24.7668 41.5954C24.4559 41.8417 24.5243 41.8667 23.7118 42.3933L27.1905 48.6169C27.4473 49.0765 27.9337 49.3601 28.4584 49.3601H28.4953C29.0342 49.3459 29.5206 49.0353 29.7603 48.5517L31.6522 44.7268L35.9111 45.0006C36.4387 45.0318 36.9506 44.778 37.2328 44.3255C37.5164 43.8759 37.5321 43.3073 37.2726 42.8421L34.1411 37.2396Z" fill="url(#paint0_linear_217_788)"/>
<defs>
<linearGradient id="paint0_linear_217_788" x1="19.911" y1="0" x2="19.911" y2="49.3601" gradientUnits="userSpaceOnUse">
<stop stop-color="#24DABB"/>
<stop offset="1" stop-color="#3AF3D0"/>
</linearGradient>
</defs>
</svg>
