<svg width="226" height="49" viewBox="0 0 226 49" fill="none" xmlns="http://www.w3.org/2000/svg">
<g filter="url(#filter0_d_217_914)">
<path fill-rule="evenodd" clip-rule="evenodd" d="M109.424 33.3559L108.668 29.9512L95.0973 29.9512V33.3559H109.424Z" fill="#F9F1DF"/>
<path fill-rule="evenodd" clip-rule="evenodd" d="M102.781 28.8563H98.8228L106.878 23.5976C107.303 21.9889 107.275 19.7451 105.126 19.0287L100.828 24.0432L98.2721 22.5697L99.3954 16.8796L95.0973 14.7827C101.06 13.6206 105.787 15.5972 107.358 17.342C109.302 19.5021 109.751 22.1641 108.855 24.9457L102.784 28.8555L102.781 28.8563Z" fill="#F9F1DF"/>
<path d="M96.53 17.5962H99.3955V19.0289L96.53 17.5962Z" fill="#F9F1DF"/>
<path d="M27.4643 24.6129C28.9342 23.8392 29.8626 22.4466 29.8626 20.6414C29.8626 17.8304 27.5416 15.9478 23.0286 15.9478H14.2088V34H23.5444C28.2895 34 30.7652 32.1948 30.7652 29.0743C30.7652 26.8049 29.4758 25.2576 27.4643 24.6129ZM22.5128 19.0941C24.5501 19.0941 25.659 19.7904 25.659 21.2087C25.659 22.6271 24.5501 23.3492 22.5128 23.3492H18.3608V19.0941H22.5128ZM23.2349 30.8538H18.3608V26.3923H23.2349C25.4012 26.3923 26.5617 27.1144 26.5617 28.6359C26.5617 30.1833 25.4012 30.8538 23.2349 30.8538ZM42.6706 34.3095C48.3441 34.3095 52.5477 30.3638 52.5477 24.9739C52.5477 19.5841 48.3441 15.6384 42.6706 15.6384C36.9713 15.6384 32.7935 19.6098 32.7935 24.9739C32.7935 30.338 36.9713 34.3095 42.6706 34.3095ZM42.6706 30.7506C39.447 30.7506 37.0228 28.4038 37.0228 24.9739C37.0228 21.544 39.447 19.1972 42.6706 19.1972C45.8942 19.1972 48.3183 21.544 48.3183 24.9739C48.3183 28.4038 45.8942 30.7506 42.6706 30.7506ZM68.9232 34H73.3073L65.2354 15.9478H61.1092L53.0631 34H57.344L58.9429 30.1317H67.3243L68.9232 34ZM60.284 26.9597L63.1465 20.0483L66.0091 26.9597H60.284ZM91.1693 34L87.1204 28.1975C89.4672 27.1918 90.834 25.206 90.834 22.4982C90.834 18.4493 87.8167 15.9478 82.9942 15.9478H75.1802V34H79.358V28.9712H82.9942H83.2005L86.682 34H91.1693ZM86.6047 22.4982C86.6047 24.4581 85.3152 25.6444 82.7621 25.6444H79.358V19.352H82.7621C85.3152 19.352 86.6047 20.5124 86.6047 22.4982ZM128.253 29.9769C127.195 30.5443 126.138 30.7506 125.003 30.7506C121.547 30.7506 119.149 28.3522 119.149 24.9739C119.149 21.544 121.547 19.1972 125.055 19.1972C126.886 19.1972 128.407 19.8419 129.723 21.2345L132.405 18.7588C130.651 16.7215 128.02 15.6384 124.848 15.6384C119.098 15.6384 114.92 19.5325 114.92 24.9739C114.92 30.4154 119.098 34.3095 124.771 34.3095C127.35 34.3095 130.084 33.51 132.069 32.0143V24.6902H128.253V29.9769ZM149.438 34H153.822L145.75 15.9478H141.624L133.578 34H137.859L139.457 30.1317H147.839L149.438 34ZM140.798 26.9597L143.661 20.0483L146.524 26.9597H140.798ZM176.042 34L175.991 15.9478H172.561L165.907 27.166L159.15 15.9478H155.695V34H159.615V23.4008L164.901 32.0916H166.784L172.096 23.1687L172.122 34H176.042ZM184.477 30.6475V26.4697H192.858V23.2203H184.477V19.3004H193.967V15.9478H180.325V34H194.303V30.6475H184.477ZM203.558 34.3095C208.716 34.3095 211.217 31.7306 211.217 28.7133C211.217 22.0856 200.721 24.3808 200.721 21.054C200.721 19.9193 201.676 18.9909 204.151 18.9909C205.75 18.9909 207.478 19.4551 209.154 20.4093L210.444 17.2373C208.768 16.1799 206.447 15.6384 204.177 15.6384C199.045 15.6384 196.569 18.1915 196.569 21.2603C196.569 27.9654 207.065 25.6444 207.065 29.0228C207.065 30.1317 206.06 30.9569 203.584 30.9569C201.418 30.9569 199.148 30.1833 197.627 29.0743L196.208 32.2206C197.807 33.4584 200.696 34.3095 203.558 34.3095Z" fill="#F9F1DF"/>
</g>
<defs>
<filter id="filter0_d_217_914" x="0.419008" y="0.644716" width="224.588" height="47.4547" filterUnits="userSpaceOnUse" color-interpolation-filters="sRGB">
<feFlood flood-opacity="0" result="BackgroundImageFix"/>
<feColorMatrix in="SourceAlpha" type="matrix" values="0 0 0 0 0 0 0 0 0 0 0 0 0 0 0 0 0 0 127 0" result="hardAlpha"/>
<feOffset/>
<feGaussianBlur stdDeviation="6.89493"/>
<feComposite in2="hardAlpha" operator="out"/>
<feColorMatrix type="matrix" values="0 0 0 0 0.976471 0 0 0 0 0.945098 0 0 0 0 0.87451 0 0 0 1 0"/>
<feBlend mode="normal" in2="BackgroundImageFix" result="effect1_dropShadow_217_914"/>
<feBlend mode="normal" in="SourceGraphic" in2="effect1_dropShadow_217_914" result="shape"/>
</filter>
</defs>
</svg>
