<svg width="48" height="62" viewBox="0 0 48 62" fill="none" xmlns="http://www.w3.org/2000/svg">
<path d="M24 22.0562C19.0077 22.0562 14.9459 26.1183 14.9459 31.1103C14.9459 36.1023 19.0077 40.1644 24 40.1644C28.9922 40.1644 33.054 36.1025 33.054 31.1103C33.054 26.1181 28.9922 22.0562 24 22.0562ZM28.902 30.5797L23.4694 36.0123C23.1157 36.366 22.6524 36.5429 22.1891 36.5429C21.7258 36.5429 21.2624 36.3662 20.9088 36.0123L19.0979 34.2015C18.3907 33.4942 18.3907 32.3481 19.0979 31.6409C19.8052 30.9336 20.9513 30.9336 21.6585 31.6409L22.1891 32.1714L26.3412 28.0193C27.0485 27.3121 28.1945 27.3121 28.9018 28.0193C29.609 28.7266 29.6092 29.8725 28.902 30.5797ZM45.7301 10.1797C35.7069 10.1797 25.3192 0.888547 25.2148 0.794906C24.5252 0.172531 23.4747 0.172531 22.7851 0.794906C22.6807 0.888547 12.2932 10.1797 2.26984 10.1797C1.26905 10.1797 0.458984 10.9895 0.458984 11.9905V33.5561C0.458984 50.6229 12.6944 57.4824 23.3544 61.5532C23.5614 61.6329 23.7806 61.6717 24 61.6717C24.2193 61.6717 24.4385 61.6329 24.6455 61.5532C35.3053 57.4824 47.5409 50.6229 47.5409 33.5561V11.9905C47.5407 10.9895 46.7309 10.1797 45.7301 10.1797ZM24 43.7861C17.0112 43.7861 11.3241 38.099 11.3241 31.1103C11.3241 24.1216 17.0112 18.4345 24 18.4345C30.9887 18.4345 36.6758 24.1216 36.6758 31.1103C36.6758 38.099 30.9887 43.7861 24 43.7861Z" fill="url(#paint0_linear_217_778)"/>
<defs>
<linearGradient id="paint0_linear_217_778" x1="24" y1="0.327922" x2="24" y2="61.6717" gradientUnits="userSpaceOnUse">
<stop stop-color="#17CBAE"/>
<stop offset="1" stop-color="#3CF5D2"/>
</linearGradient>
</defs>
</svg>
