<svg width="44" height="52" viewBox="0 0 44 52" fill="none" xmlns="http://www.w3.org/2000/svg">
<path d="M26.9498 9.76085C27.7128 8.74013 28.1813 7.48766 28.1813 6.11775C28.1811 2.7436 25.4375 0 22.0636 0C18.6896 0 15.946 2.7436 15.946 6.11758C15.946 7.48748 16.4143 8.74013 17.1775 9.76068C7.72139 11.98 0.65197 20.4648 0.65197 30.5881C0.651798 42.3948 10.257 52 22.0636 52C33.8702 52 43.4753 42.3948 43.4753 30.5882C43.4753 20.4649 36.4059 11.9801 26.9498 9.76085ZM22.0636 3.05887C23.7498 3.05887 25.1224 4.43154 25.1224 6.11775C25.1224 7.80396 23.7498 9.17662 22.0636 9.17662C20.3774 9.17662 19.0047 7.80396 19.0047 6.11775C19.0047 4.43136 20.3774 3.05887 22.0636 3.05887ZM22.0636 45.8824C13.6632 45.8824 6.76937 39.0308 6.76937 30.5882C6.76937 22.1813 13.6265 15.294 22.0636 15.294C30.4977 15.294 37.3578 22.1773 37.3578 30.5882C37.3578 38.9886 30.5062 45.8824 22.0636 45.8824ZM32.7694 29.0589H34.1443C33.8628 26.8365 33.0013 24.8136 31.6898 23.1262L30.7157 24.1003C30.1182 24.6978 29.1504 24.6978 28.5531 24.1003C27.9558 23.5028 27.9556 22.5349 28.5531 21.9376L29.5271 20.9636C27.8394 19.6515 25.8162 18.7892 23.5929 18.5075V19.8824C23.5929 20.7279 22.9088 21.4118 22.0636 21.4118C21.2183 21.4118 20.5342 20.7277 20.5342 19.8824V18.5075C18.311 18.789 16.2878 19.6514 14.6 20.9636L15.5741 21.9376C16.1716 22.5351 16.1716 23.503 15.5741 24.1003C14.9766 24.6976 14.0087 24.6978 13.4114 24.1003L12.4374 23.1262C11.1258 24.8136 10.2644 26.8365 9.98287 29.0589H11.3578C12.2032 29.0589 12.8871 29.743 12.8871 30.5882C12.8871 31.4337 12.203 32.1176 11.3578 32.1176H9.98287C10.2644 34.3403 11.1262 36.3635 12.4381 38.0509L13.4113 37.0777C14.0087 36.4802 14.9766 36.4802 15.5739 37.0777C16.1712 37.6752 16.1714 38.6431 15.5739 39.2404L14.6007 40.2136C16.2883 41.5254 18.3113 42.3872 20.534 42.6688V41.2939C20.534 40.4484 21.2181 39.7645 22.0634 39.7645C22.9087 39.7645 23.5928 40.4486 23.5928 41.2939V42.6688C25.8155 42.3872 27.8387 41.5254 29.5261 40.2136L28.5529 39.2404C27.9554 38.6429 27.9554 37.675 28.5529 37.0777C29.1504 36.4804 30.1182 36.4802 30.7155 37.0777L31.6887 38.0509C33.0006 36.3633 33.8624 34.3403 34.1439 32.1176H32.769C31.9236 32.1176 31.2397 31.4335 31.2397 30.5882C31.24 29.7428 31.9241 29.0589 32.7694 29.0589ZM26.6518 32.1176H22.0636C21.2181 32.1176 20.5342 31.4335 20.5342 30.5882V26C20.5342 25.1546 21.2183 24.4706 22.0636 24.4706C22.9088 24.4706 23.5929 25.1547 23.5929 26V29.0589H26.6518C27.4972 29.0589 28.1811 29.743 28.1811 30.5882C28.1811 31.4337 27.4972 32.1176 26.6518 32.1176ZM43.4753 11.602L39.15 7.27673C38.5526 6.67925 37.5847 6.67925 36.9874 7.27673L34.6324 9.63171C37.2856 11.2291 39.6074 13.3086 41.4825 15.7577L43.4755 13.7647C44.0728 13.1672 44.0728 12.1995 43.4753 11.602ZM2.64485 15.7577C4.51994 13.3084 6.84169 11.2291 9.4949 9.63171L7.13992 7.27673C6.54243 6.67925 5.57458 6.67925 4.97727 7.27673L0.65197 11.602C0.0544866 12.1995 0.0544866 13.1674 0.65197 13.7647L2.64485 15.7577Z" fill="url(#paint0_linear_217_801)"/>
<defs>
<linearGradient id="paint0_linear_217_801" x1="22.0636" y1="0" x2="22.0636" y2="52" gradientUnits="userSpaceOnUse">
<stop stop-color="#1FD4B6"/>
<stop offset="1" stop-color="#3AF3D0"/>
</linearGradient>
</defs>
</svg>
