<svg width="200" height="31" viewBox="0 0 200 31" fill="none" xmlns="http://www.w3.org/2000/svg">
<path fill-rule="evenodd" clip-rule="evenodd" d="M97.4244 24.3559L96.6675 20.9512L83.0973 20.9512V24.3559H97.4244Z" fill="#F9F1DF"/>
<path fill-rule="evenodd" clip-rule="evenodd" d="M90.7811 19.8563H86.8228L94.8776 14.5976C95.3026 12.9889 95.2753 10.7451 93.1263 10.0287L88.8281 15.0432L86.2721 13.5697L87.3954 7.87962L83.0973 5.78266C89.0602 4.6206 93.7871 6.59724 95.3583 8.34198C97.3022 10.5021 97.7513 13.1641 96.8555 15.9457L90.7836 19.8555L90.7811 19.8563Z" fill="#F9F1DF"/>
<path d="M84.53 8.59619H87.3955V10.0289L84.53 8.59619Z" fill="#F9F1DF"/>
<path d="M2.20881 25V6.94783H11.0286C13.298 6.94783 15.0001 7.37764 16.1348 8.23727C17.2867 9.0969 17.8626 10.2316 17.8626 11.6414C17.8626 12.587 17.6305 13.4122 17.1663 14.1171C16.7021 14.8048 16.066 15.3378 15.258 15.716C14.4499 16.0943 13.5215 16.2834 12.4728 16.2834L12.9627 15.226C14.0975 15.226 15.1032 15.4152 15.98 15.7934C16.8569 16.1544 17.536 16.696 18.0174 17.4181C18.5159 18.1402 18.7652 19.0256 18.7652 20.0743C18.7652 21.6217 18.1549 22.8337 16.9342 23.7106C15.7136 24.5702 13.9169 25 11.5444 25H2.20881ZM6.36081 21.8538H11.2349C12.318 21.8538 13.1347 21.6818 13.6848 21.338C14.2522 20.9769 14.5359 20.4096 14.5359 19.6359C14.5359 18.8795 14.2522 18.3207 13.6848 17.9597C13.1347 17.5814 12.318 17.3923 11.2349 17.3923H6.05134V14.3492H10.5128C11.5272 14.3492 12.3008 14.1773 12.8338 13.8334C13.384 13.4724 13.659 12.9308 13.659 12.2087C13.659 11.5039 13.384 10.9795 12.8338 10.6356C12.3008 10.2746 11.5272 10.0941 10.5128 10.0941H6.36081V21.8538ZM30.6964 25.3095C29.2694 25.3095 27.9456 25.0774 26.7249 24.6132C25.5214 24.149 24.4727 23.4957 23.5787 22.6532C22.7019 21.8108 22.0141 20.8222 21.5156 19.6875C21.0342 18.5528 20.7935 17.3149 20.7935 15.9739C20.7935 14.6329 21.0342 13.395 21.5156 12.2603C22.0141 11.1256 22.7104 10.137 23.6045 9.29461C24.4985 8.45217 25.5472 7.79886 26.7507 7.33466C27.9542 6.87046 29.2608 6.63836 30.6706 6.63836C32.0976 6.63836 33.4042 6.87046 34.5905 7.33466C35.794 7.79886 36.8341 8.45217 37.7109 9.29461C38.605 10.137 39.3013 11.1256 39.7998 12.2603C40.2984 13.3778 40.5477 14.6157 40.5477 15.9739C40.5477 17.3149 40.2984 18.5614 39.7998 19.7133C39.3013 20.848 38.605 21.8366 37.7109 22.679C36.8341 23.5042 35.794 24.149 34.5905 24.6132C33.4042 25.0774 32.1062 25.3095 30.6964 25.3095ZM30.6706 21.7506C31.4786 21.7506 32.2179 21.6131 32.8884 21.338C33.5761 21.0629 34.1779 20.6675 34.6937 20.1517C35.2094 19.6359 35.6049 19.0256 35.8799 18.3207C36.1722 17.6158 36.3183 16.8335 36.3183 15.9739C36.3183 15.1143 36.1722 14.332 35.8799 13.6271C35.6049 12.9222 35.2094 12.3119 34.6937 11.7961C34.1951 11.2803 33.6019 10.8849 32.9142 10.6098C32.2265 10.3348 31.4786 10.1972 30.6706 10.1972C29.8625 10.1972 29.1147 10.3348 28.427 10.6098C27.7565 10.8849 27.1633 11.2803 26.6475 11.7961C26.1318 12.3119 25.7277 12.9222 25.4355 13.6271C25.1604 14.332 25.0228 15.1143 25.0228 15.9739C25.0228 16.8163 25.1604 17.5986 25.4355 18.3207C25.7277 19.0256 26.1232 19.6359 26.6218 20.1517C27.1375 20.6675 27.7393 21.0629 28.427 21.338C29.1147 21.6131 29.8625 21.7506 30.6706 21.7506ZM41.0631 25L49.1092 6.94783H53.2354L61.3073 25H56.9232L50.3213 9.06251H51.9718L45.344 25H41.0631ZM45.0861 21.1317L46.1951 17.9597H55.479L56.6137 21.1317H45.0861ZM63.1802 25V6.94783H70.9942C72.6103 6.94783 74.0029 7.21431 75.172 7.74728C76.3411 8.26306 77.2437 9.01093 77.8798 9.99091C78.516 10.9709 78.834 12.14 78.834 13.4982C78.834 14.8392 78.516 15.9997 77.8798 16.9797C77.2437 17.9425 76.3411 18.6817 75.172 19.1975C74.0029 19.7133 72.6103 19.9712 70.9942 19.9712H65.5012L67.358 18.1402V25H63.1802ZM74.6562 25L70.1432 18.4496H74.6047L79.1693 25H74.6562ZM67.358 18.6044L65.5012 16.6444H70.7621C72.0516 16.6444 73.0144 16.3693 73.6505 15.8192C74.2866 15.2518 74.6047 14.4782 74.6047 13.4982C74.6047 12.501 74.2866 11.7274 73.6505 11.1772C73.0144 10.627 72.0516 10.352 70.7621 10.352H65.5012L67.358 8.36621V18.6044ZM112.771 25.3095C111.344 25.3095 110.029 25.086 108.825 24.639C107.639 24.1748 106.599 23.5214 105.705 22.679C104.828 21.8366 104.14 20.848 103.642 19.7133C103.16 18.5786 102.92 17.3321 102.92 15.9739C102.92 14.6157 103.16 13.3692 103.642 12.2345C104.14 11.0998 104.837 10.1113 105.731 9.26882C106.625 8.42639 107.674 7.78167 108.877 7.33466C110.08 6.87046 111.404 6.63836 112.848 6.63836C114.447 6.63836 115.883 6.90485 117.155 7.43781C118.445 7.97078 119.528 8.74445 120.405 9.75881L117.723 12.2345C117.069 11.5468 116.356 11.0397 115.582 10.713C114.808 10.3691 113.966 10.1972 113.055 10.1972C112.178 10.1972 111.379 10.3348 110.656 10.6098C109.934 10.8849 109.307 11.2803 108.774 11.7961C108.258 12.3119 107.854 12.9222 107.562 13.6271C107.287 14.332 107.149 15.1143 107.149 15.9739C107.149 16.8163 107.287 17.59 107.562 18.2949C107.854 18.9998 108.258 19.6187 108.774 20.1517C109.307 20.6675 109.926 21.0629 110.631 21.338C111.353 21.6131 112.144 21.7506 113.003 21.7506C113.828 21.7506 114.628 21.6217 115.402 21.3638C116.192 21.0887 116.957 20.6331 117.697 19.997L120.069 23.0143C119.089 23.7535 117.946 24.3209 116.639 24.7163C115.35 25.1118 114.061 25.3095 112.771 25.3095ZM116.253 22.4727V15.6902H120.069V23.0143L116.253 22.4727ZM121.578 25L129.624 6.94783H133.75L141.822 25H137.438L130.836 9.06251H132.486L125.859 25H121.578ZM125.601 21.1317L126.71 17.9597H135.994L137.128 21.1317H125.601ZM143.695 25V6.94783H147.15L154.835 19.6875H153.004L160.561 6.94783H163.991L164.042 25H160.122L160.096 12.9566H160.818L154.784 23.0916H152.901L146.738 12.9566H147.615V25H143.695ZM172.168 14.2203H180.858V17.4697H172.168V14.2203ZM172.477 21.6475H182.303V25H168.325V6.94783H181.967V10.3004H172.477V21.6475ZM191.558 25.3095C190.114 25.3095 188.73 25.1203 187.406 24.7421C186.082 24.3467 185.016 23.8395 184.208 23.2206L185.627 20.0743C186.4 20.6245 187.312 21.0801 188.36 21.4411C189.426 21.785 190.501 21.9569 191.584 21.9569C192.409 21.9569 193.071 21.8796 193.57 21.7248C194.085 21.5529 194.464 21.3208 194.704 21.0285C194.945 20.7362 195.065 20.401 195.065 20.0228C195.065 19.5414 194.876 19.1631 194.498 18.8881C194.12 18.5958 193.621 18.3637 193.002 18.1918C192.383 18.0026 191.696 17.8307 190.939 17.676C190.2 17.5041 189.452 17.2977 188.696 17.057C187.956 16.8163 187.277 16.5069 186.658 16.1286C186.039 15.7504 185.532 15.2518 185.137 14.6329C184.759 14.014 184.569 13.2231 184.569 12.2603C184.569 11.2288 184.844 10.2918 185.395 9.44934C185.962 8.58972 186.804 7.91061 187.922 7.41203C189.057 6.89625 190.475 6.63836 192.177 6.63836C193.312 6.63836 194.429 6.7759 195.53 7.05098C196.63 7.30887 197.601 7.7043 198.444 8.23727L197.154 11.4093C196.312 10.9279 195.469 10.5755 194.627 10.352C193.785 10.1113 192.959 9.99091 192.151 9.99091C191.343 9.99091 190.681 10.0855 190.166 10.2746C189.65 10.4637 189.28 10.713 189.057 11.0225C188.833 11.3147 188.721 11.6586 188.721 12.054C188.721 12.5182 188.911 12.8964 189.289 13.1887C189.667 13.4638 190.166 13.6873 190.785 13.8592C191.403 14.0312 192.083 14.2031 192.822 14.375C193.578 14.5469 194.326 14.7446 195.065 14.9681C195.822 15.1917 196.51 15.4925 197.129 15.8708C197.747 16.249 198.246 16.7476 198.624 17.3665C199.02 17.9854 199.217 18.7677 199.217 19.7133C199.217 20.7277 198.934 21.656 198.366 22.4985C197.799 23.3409 196.948 24.02 195.813 24.5358C194.696 25.0516 193.277 25.3095 191.558 25.3095Z" fill="#F9F1DF"/>
</svg>
