<svg width="40" height="40" viewBox="0 0 40 40" fill="none" xmlns="http://www.w3.org/2000/svg">
<g filter="url(#filter0_d_49_29067)">
<circle cx="20" cy="18" r="18" fill="#0D0D0D"/>
<circle cx="20" cy="18" r="18" fill="url(#paint0_linear_49_29067)" fill-opacity="0.2"/>
<circle r="15" transform="matrix(1 0 0 -1 20 18)" fill="#0D0D0D"/>
<circle r="14.5" transform="matrix(1 0 0 -1 20 18)" stroke="url(#paint1_linear_49_29067)" stroke-opacity="0.6"/>
<ellipse rx="11" ry="11" transform="matrix(-1 8.74228e-08 8.74228e-08 1 19.998 18)" fill="#393939"/>
<path d="M9.49805 18C9.49805 23.799 14.1991 28.5 19.998 28.5C25.797 28.5 30.498 23.799 30.498 18C30.498 12.201 25.797 7.5 19.998 7.5C14.1991 7.5 9.49805 12.201 9.49805 18Z" stroke="url(#paint2_linear_49_29067)" stroke-opacity="0.6"/>
</g>
<defs>
<filter id="filter0_d_49_29067" x="0" y="0" width="40" height="40" filterUnits="userSpaceOnUse" color-interpolation-filters="sRGB">
<feFlood flood-opacity="0" result="BackgroundImageFix"/>
<feColorMatrix in="SourceAlpha" type="matrix" values="0 0 0 0 0 0 0 0 0 0 0 0 0 0 0 0 0 0 127 0" result="hardAlpha"/>
<feOffset dy="2"/>
<feGaussianBlur stdDeviation="1"/>
<feComposite in2="hardAlpha" operator="out"/>
<feColorMatrix type="matrix" values="0 0 0 0 0 0 0 0 0 0 0 0 0 0 0 0 0 0 0.35 0"/>
<feBlend mode="normal" in2="BackgroundImageFix" result="effect1_dropShadow_49_29067"/>
<feBlend mode="normal" in="SourceGraphic" in2="effect1_dropShadow_49_29067" result="shape"/>
</filter>
<linearGradient id="paint0_linear_49_29067" x1="20" y1="0" x2="20" y2="36" gradientUnits="userSpaceOnUse">
<stop stop-color="white"/>
<stop offset="1" stop-opacity="0"/>
</linearGradient>
<linearGradient id="paint1_linear_49_29067" x1="15" y1="0" x2="15" y2="30" gradientUnits="userSpaceOnUse">
<stop stop-color="white"/>
<stop offset="1"/>
</linearGradient>
<linearGradient id="paint2_linear_49_29067" x1="19.998" y1="7" x2="19.998" y2="29" gradientUnits="userSpaceOnUse">
<stop stop-color="white"/>
<stop offset="1"/>
</linearGradient>
</defs>
</svg>
