<svg width="40" height="41" viewBox="0 0 40 41" fill="none" xmlns="http://www.w3.org/2000/svg">
<g filter="url(#filter0_d_49_29077)">
<circle cx="20" cy="18.7676" r="18" transform="rotate(180 20 18.7676)" fill="#EEEEEE"/>
<circle cx="20" cy="18.7676" r="18" transform="rotate(180 20 18.7676)" fill="url(#paint0_linear_49_29077)" fill-opacity="0.2"/>
<circle cx="20" cy="18.7676" r="15" transform="rotate(-180 20 18.7676)" fill="white"/>
<circle cx="20" cy="18.7676" r="14.5" transform="rotate(-180 20 18.7676)" stroke="url(#paint1_linear_49_29077)" stroke-opacity="0.3"/>
<ellipse cx="20" cy="18.7676" rx="11" ry="11" fill="url(#paint2_linear_49_29077)"/>
<path d="M30.5 18.7676C30.5 24.5666 25.799 29.2676 20 29.2676C14.201 29.2676 9.5 24.5666 9.5 18.7676C9.5 12.9686 14.201 8.26758 20 8.26758C25.799 8.26758 30.5 12.9686 30.5 18.7676Z" stroke="url(#paint3_linear_49_29077)" stroke-opacity="0.3"/>
</g>
<defs>
<filter id="filter0_d_49_29077" x="0" y="0.767578" width="40" height="40.2324" filterUnits="userSpaceOnUse" color-interpolation-filters="sRGB">
<feFlood flood-opacity="0" result="BackgroundImageFix"/>
<feColorMatrix in="SourceAlpha" type="matrix" values="0 0 0 0 0 0 0 0 0 0 0 0 0 0 0 0 0 0 127 0" result="hardAlpha"/>
<feOffset dy="2"/>
<feGaussianBlur stdDeviation="1"/>
<feComposite in2="hardAlpha" operator="out"/>
<feColorMatrix type="matrix" values="0 0 0 0 0 0 0 0 0 0 0 0 0 0 0 0 0 0 0.35 0"/>
<feBlend mode="normal" in2="BackgroundImageFix" result="effect1_dropShadow_49_29077"/>
<feBlend mode="normal" in="SourceGraphic" in2="effect1_dropShadow_49_29077" result="shape"/>
</filter>
<linearGradient id="paint0_linear_49_29077" x1="20" y1="0.767582" x2="20" y2="36.7676" gradientUnits="userSpaceOnUse">
<stop/>
<stop offset="1" stop-opacity="0"/>
</linearGradient>
<linearGradient id="paint1_linear_49_29077" x1="20" y1="3.76758" x2="20" y2="33.7676" gradientUnits="userSpaceOnUse">
<stop stop-color="white"/>
<stop offset="1"/>
</linearGradient>
<linearGradient id="paint2_linear_49_29077" x1="20" y1="7.76758" x2="20" y2="29.7676" gradientUnits="userSpaceOnUse">
<stop stop-color="white" stop-opacity="0"/>
<stop offset="1" stop-color="#D9D9D9"/>
</linearGradient>
<linearGradient id="paint3_linear_49_29077" x1="20" y1="7.76758" x2="20" y2="29.7676" gradientUnits="userSpaceOnUse">
<stop stop-color="white"/>
<stop offset="1"/>
</linearGradient>
</defs>
</svg>
