<svg width="16" height="11" viewBox="0 0 16 11" fill="none" xmlns="http://www.w3.org/2000/svg">
<g clip-path="url(#clip0_202_12777)">
<path d="M13.668 6.38437L12.8353 9.30569C11.6453 8.94507 9.90311 8.71821 7.96071 8.71821C6.01831 8.71821 4.27524 8.94507 3.08616 9.30569C2.8083 8.33135 2.53044 7.35786 2.25259 6.38437C5.24342 6.38437 7.93137 4.64648 7.93137 4.64648C7.93137 4.64648 10.4977 6.38437 13.668 6.38437Z" fill="#444444"/>
<path d="M7.50157 9.43086C7.61462 9.42917 7.72766 9.42747 7.84156 9.42663C7.89679 9.42578 7.95287 9.42578 8.00896 9.42578C8.04952 9.42578 8.08921 9.42578 8.12891 9.42663C8.24281 9.42747 8.35671 9.42832 8.46889 9.43086C9.84695 9.45626 11.1059 9.59593 12.1129 9.81518C12.3235 9.86089 12.5237 9.90999 12.7109 9.96247L12.7075 9.97517L12.4702 10.82C11.4114 10.5533 10.0152 10.3806 8.46889 10.3527C8.35671 10.3502 8.24281 10.3493 8.12891 10.3485C8.08921 10.3476 8.04952 10.3476 8.00896 10.3476C7.95287 10.3476 7.89679 10.3476 7.84156 10.3485C7.72766 10.3493 7.61462 10.351 7.50157 10.3527C5.95352 10.3849 4.55734 10.561 3.50373 10.8318L3.26298 9.97517C3.46404 9.91845 3.6789 9.86427 3.90671 9.81518C4.9025 9.59847 6.14336 9.4588 7.50157 9.43086Z" fill="#444444"/>
<path d="M7.96077 3.76792C7.05243 3.76792 6.31607 3.04555 6.31607 2.15447C6.31607 1.26338 7.05243 0.541016 7.96077 0.541016C8.86911 0.541016 9.60547 1.26338 9.60547 2.15447C9.60547 3.04555 8.86911 3.76792 7.96077 3.76792Z" fill="#444444"/>
<path d="M1.64436 5.60776C0.736022 5.60776 -0.000334501 4.8854 -0.000334501 3.99431C-0.000334501 3.10323 0.736022 2.38086 1.64436 2.38086C2.55271 2.38086 3.28906 3.10323 3.28906 3.99431C3.28906 4.8854 2.55271 5.60776 1.64436 5.60776Z" fill="#444444"/>
<path d="M12.8355 4.61143C12.4879 3.78818 12.8864 2.84436 13.7256 2.50336C14.5648 2.16236 15.5269 2.5533 15.8745 3.37655C16.2221 4.19981 15.8236 5.14363 14.9844 5.48463C14.1452 5.82563 13.1831 5.43469 12.8355 4.61143Z" fill="#444444"/>
</g>
<defs>
<clipPath id="clip0_202_12777">
<rect width="16" height="10.2902" fill="white" transform="matrix(-1 0 0 1 16 0.541016)"/>
</clipPath>
</defs>
</svg>
