<svg width="20" height="20" viewBox="0 0 20 20" fill="none" xmlns="http://www.w3.org/2000/svg">
<path d="M15.9453 15.8326C17.4759 14.277 18.3337 12.1822 18.3337 9.99984C18.3337 7.81751 17.4759 5.72263 15.9453 4.16703C15.9309 4.14449 15.9118 4.12535 15.8892 4.11095C15.8748 4.08841 15.8557 4.06927 15.8331 4.05487C14.2775 2.5243 12.1826 1.6665 10.0003 1.6665C7.818 1.6665 5.72312 2.5243 4.16752 4.05487C4.14498 4.06927 4.12584 4.08841 4.11144 4.11095C4.08889 4.12535 4.06976 4.14449 4.05535 4.16703C2.52478 5.72263 1.66699 7.81751 1.66699 9.99984C1.66699 12.1822 2.52478 14.277 4.05535 15.8326L4.11144 15.8887C4.12584 15.9113 4.14498 15.9304 4.16752 15.9448C5.72312 17.4754 7.818 18.3332 10.0003 18.3332C12.1826 18.3332 14.2775 17.4754 15.8331 15.9448C15.8557 15.9304 15.8748 15.9113 15.8892 15.8887C15.9118 15.8743 15.9309 15.8552 15.9453 15.8326ZM2.98173 10.6408H4.91265C5.02801 11.5528 5.38791 12.4165 5.95422 13.1406L4.58415 14.5106C3.66815 13.4141 3.10905 12.0639 2.98173 10.6408V10.6408ZM4.58415 5.48903L5.95422 6.8591C5.38791 7.58316 5.02801 8.44692 4.91265 9.35887H2.98173C3.10905 7.93577 3.66815 6.58555 4.58415 5.48903ZM17.0189 9.35887H15.088C14.9726 8.44692 14.6127 7.58316 14.0464 6.8591L15.4165 5.48903C16.3325 6.58555 16.8916 7.93577 17.0189 9.35887V9.35887ZM13.1411 5.95373C12.417 5.38743 11.5532 5.02753 10.6413 4.91216V2.98124C12.0644 3.10856 13.4146 3.66766 14.5111 4.58366L13.1411 5.95373ZM9.35936 4.91216C8.44741 5.02753 7.58365 5.38743 6.85959 5.95373L5.48952 4.58366C6.58604 3.66766 7.93626 3.10856 9.35936 2.98124V4.91216ZM6.85959 14.0459C7.58365 14.6122 8.44741 14.9721 9.35936 15.0875V17.0184C7.93626 16.8911 6.58604 16.332 5.48952 15.416L6.85959 14.0459ZM10.6413 15.0875C11.5532 14.9721 12.417 14.6122 13.1411 14.0459L14.5111 15.416C13.4146 16.332 12.0644 16.8911 10.6413 17.0184V15.0875ZM14.0464 13.1406C14.6127 12.4165 14.9726 11.5528 15.088 10.6408H17.0189C16.8916 12.0639 16.3325 13.4141 15.4165 14.5106L14.0464 13.1406Z" fill="#D93C44"/>
</svg>
