<svg width="94" height="78" viewBox="0 0 94 78" fill="none" xmlns="http://www.w3.org/2000/svg">
<path fill-rule="evenodd" clip-rule="evenodd" d="M85.5312 8.62451H11.625C8.77703 8.62451 6.46875 10.9328 6.46875 13.7808V24.0933H85.5312V8.62451Z" fill="#D7CAAF"/>
<path fill-rule="evenodd" clip-rule="evenodd" d="M85.5312 5.7251C85.5312 2.87713 83.223 0.568848 80.375 0.568848C73.1064 0.568848 60.0027 0.568848 53.4267 0.568848C50.9603 0.568848 48.6812 1.89057 47.4575 4.03213C45.4277 7.5865 42.5625 12.6001 42.5625 12.6001H85.5312V5.7251Z" fill="#D7CAAF"/>
<path fill-rule="evenodd" clip-rule="evenodd" d="M6.46875 13.4561H85.5312V16.6581H6.46875V13.4561Z" fill="#BAAD92"/>
<path fill-rule="evenodd" clip-rule="evenodd" d="M91.3195 23.3784C91.5928 21.4087 90.9999 19.4167 89.6953 17.918C88.3891 16.4175 86.4984 15.5564 84.5098 15.5564C66.9855 15.5564 25.0136 15.5564 7.48923 15.5564C5.50063 15.5564 3.61001 16.4175 2.30376 17.918C0.999226 19.4167 0.406257 21.4087 0.679538 23.3784C2.42235 35.9253 5.80485 60.2766 7.36376 71.5034C7.83641 74.9014 10.7411 77.4314 14.1734 77.4314H77.8256C81.258 77.4314 84.1627 74.9014 84.6353 71.5034C86.1942 60.2766 89.5767 35.9253 91.3195 23.3784Z" fill="#D7CAAF"/>
<path fill-rule="evenodd" clip-rule="evenodd" d="M1.25704 27.5378C1.38594 26.1061 1.96001 24.738 2.92079 23.6345C4.22532 22.1358 6.11594 21.2747 8.10454 21.2747H83.8945C85.8831 21.2747 87.7738 22.1358 89.0783 23.6345C90.0391 24.738 90.6131 26.1061 90.742 27.5378L91.3195 23.3784C91.5928 21.4087 90.9999 19.4167 89.6953 17.918C88.3891 16.4175 86.4984 15.5564 84.5098 15.5564C66.9855 15.5564 25.0136 15.5564 7.48923 15.5564C5.50063 15.5564 3.61001 16.4175 2.30376 17.918C0.999226 19.4167 0.406257 21.4087 0.679538 23.3784L1.25704 27.5378Z" fill="#F9F1DF"/>
<path fill-rule="evenodd" clip-rule="evenodd" d="M38.2666 60.2883C38.2666 58.3908 36.7283 56.8508 34.8291 56.8508C31.0152 56.8508 24.8947 56.8508 21.0791 56.8508C19.1816 56.8508 17.6416 58.3908 17.6416 60.2883V63.7258C17.6416 65.625 19.1816 67.1633 21.0791 67.1633H34.8291C36.7283 67.1633 38.2666 65.625 38.2666 63.7258C38.2666 62.6207 38.2666 61.3952 38.2666 60.2883Z" fill="#BF2525"/>
<path fill-rule="evenodd" clip-rule="evenodd" d="M64.0459 28C54.0857 28 45.999 36.0867 45.999 46.0469C45.999 56.007 54.0857 64.0937 64.0459 64.0937C74.0061 64.0937 82.0928 56.007 82.0928 46.0469C82.0928 36.0867 74.0061 28 64.0459 28ZM64.0459 33.1562C71.1598 33.1562 76.9365 38.933 76.9365 46.0469C76.9365 53.1608 71.1598 58.9375 64.0459 58.9375C56.932 58.9375 51.1553 53.1608 51.1553 46.0469C51.1553 38.933 56.932 33.1562 64.0459 33.1562Z" fill="#BF2525"/>
<path fill-rule="evenodd" clip-rule="evenodd" d="M73.4455 58.5094L89.478 74.5419C90.4852 75.5491 92.118 75.5491 93.1252 74.5419C94.1307 73.5365 94.1307 71.9019 93.1252 70.8965L77.0927 54.864C76.0855 53.8585 74.4527 53.8585 73.4455 54.864C72.44 55.8694 72.44 57.504 73.4455 58.5094Z" fill="#BF2525"/>
</svg>
