<svg width="56" height="63" viewBox="0 0 56 63" fill="none" xmlns="http://www.w3.org/2000/svg">
<path d="M27.7139 0.703613C23.0888 12.4474 0.00622559 16.7527 0.00622559 34.8053C0.0243973 37.7955 0.940509 40.7113 2.63608 43.1744C4.33165 45.6375 6.72837 47.5342 9.51511 48.6186C12.3018 49.703 15.3501 49.9249 18.2645 49.2556C21.179 48.5864 23.8251 47.0568 25.8596 44.8653C25.4944 50.6526 23.1372 56.1351 19.1884 60.3816V62.5129H36.2393V60.3816C32.3039 56.1348 29.9484 50.664 29.5681 44.8866C31.6038 47.0794 34.2517 48.6095 37.1681 49.2781C40.0845 49.9467 43.1346 49.7229 45.9222 48.6359C48.7098 47.5489 51.1063 45.6488 52.8002 43.1824C54.4942 40.7161 55.4075 37.7973 55.4215 34.8053C55.4215 16.6675 32.3176 12.3621 27.7139 0.703613Z" fill="#1F1F1F"/>
</svg>
