<svg width="183" height="50" viewBox="0 0 183 50" fill="none" xmlns="http://www.w3.org/2000/svg">
<path d="M33.4821 0H2.23214C0.999364 0 0 0.999364 0 2.23214V47.7679C0 49.0006 0.999364 50 2.23214 50H33.4821C34.7149 50 35.7143 49.0006 35.7143 47.7679V2.23214C35.7143 0.999364 34.7149 0 33.4821 0Z" fill="#F9F1DF"/>
<path d="M5.35681 11.9434C4.95359 11.3169 4.42079 10.7841 3.79431 10.3809C4.42079 9.97763 4.95359 9.44484 5.35681 8.81836C5.76004 9.44484 6.29283 9.97763 6.91931 10.3809C6.29283 10.7841 5.76004 11.3169 5.35681 11.9434Z" fill="#C93112"/>
<path d="M30.3567 37.3906C30.7599 38.0171 31.2927 38.5499 31.9192 38.9531C31.2927 39.3564 30.7599 39.8891 30.3567 40.5156C29.9535 39.8891 29.4207 39.3564 28.7942 38.9531C29.4207 38.5499 29.9535 38.0171 30.3567 37.3906Z" fill="#C93112"/>
<path d="M6.79006 6.58649H6.24988V7.25614H5.58024V6.58649H4.01774L3.84363 6.2472C4.09809 5.84095 4.34364 5.41685 4.58025 4.98382C4.81685 4.55078 5.04899 4.09096 5.26774 3.64453H5.89275L5.98649 3.79632C5.82131 4.10435 5.66953 4.3856 5.54006 4.63113C5.4106 4.87667 5.26774 5.10435 5.14274 5.30525C5.02981 5.48555 4.90763 5.65989 4.77668 5.82756C4.6661 5.97287 4.54366 6.10876 4.4106 6.23381L5.60256 6.18471L5.66953 5.34542L6.24096 5.31417V6.15346H6.80345L6.79006 6.58649Z" fill="#C93112"/>
<path d="M28.9195 42.7478H29.4865V42.0781H30.1338V42.7478H31.6963L31.8704 43.0871C31.616 43.4933 31.3704 43.9174 31.1338 44.3504C30.8972 44.7835 30.6651 45.2433 30.4418 45.6897H29.8213L29.7276 45.5379C29.8927 45.2299 30.0445 44.9487 30.174 44.6987C30.3034 44.4487 30.4463 44.2299 30.5713 44.029C30.6842 43.8487 30.8064 43.6744 30.9374 43.5067C31.0479 43.3614 31.1704 43.2255 31.3034 43.1005L30.1115 43.1496L30.0445 43.9888L29.4731 44.0201V43.1808H28.9061L28.9195 42.7478Z" fill="#C93112"/>
<path d="M11.6067 13.0586C10.8026 11.8037 9.73659 10.7376 8.48169 9.93359C9.73659 9.12955 10.8026 8.06349 11.6067 6.80859C12.4107 8.06349 13.4768 9.12955 14.7317 9.93359C13.4768 10.7376 12.4107 11.8037 11.6067 13.0586Z" fill="#C93112"/>
<path d="M24.1069 13.0586C23.3029 11.8037 22.2368 10.7376 20.9819 9.93359C22.2368 9.12955 23.3029 8.06349 24.1069 6.80859C24.911 8.06349 25.977 9.12955 27.2319 9.93359C25.977 10.7376 24.911 11.8037 24.1069 13.0586Z" fill="#C93112"/>
<path d="M15.0442 39.3976C13.6616 40.2887 12.4888 41.4691 11.6067 42.8574C10.7221 41.4772 9.54943 40.3045 8.16919 39.4199C9.54943 38.5353 10.7221 37.3627 11.6067 35.9824C12.4938 37.3546 13.6663 38.5194 15.0442 39.3976Z" fill="#C93112"/>
<path d="M27.2319 39.3984C25.977 40.2025 24.911 41.2685 24.1069 42.5234C23.3029 41.2685 22.2368 40.2025 20.9819 39.3984C22.2368 38.5944 23.3029 37.5283 24.1069 36.2734C24.911 37.5283 25.977 38.5944 27.2319 39.3984Z" fill="#C93112"/>
<path d="M70.1964 0H38.9464C37.7136 0 36.7142 0.999364 36.7142 2.23214V47.7679C36.7142 49.0006 37.7136 50 38.9464 50H70.1964C71.4292 50 72.4285 49.0006 72.4285 47.7679V2.23214C72.4285 0.999364 71.4292 0 70.1964 0Z" fill="#F9F1DF"/>
<path d="M42.0713 8.65234C41.8302 9.26395 40.6204 9.49163 40.6204 10.4381C40.6242 10.5916 40.6733 10.7405 40.7613 10.8663C40.8493 10.9921 40.9725 11.0892 41.1154 11.1454C41.2583 11.2016 41.4146 11.2144 41.5647 11.1823C41.7149 11.1502 41.8522 11.0746 41.9596 10.9648C41.9389 11.2673 41.8161 11.5537 41.6114 11.7773V11.8845H42.5043V11.7773C42.2996 11.5537 42.1768 11.2673 42.1561 10.9648C42.2635 11.0746 42.4008 11.1502 42.551 11.1823C42.7011 11.2144 42.8574 11.2016 43.0003 11.1454C43.1432 11.0892 43.2664 10.9921 43.3544 10.8663C43.4425 10.7405 43.4915 10.5916 43.4954 10.4381C43.5221 9.49163 42.3123 9.26395 42.0713 8.65234Z" fill="#1F1F1F"/>
<path d="M67.0714 40.9021C67.3125 40.2905 68.5223 40.0628 68.5223 39.1163C68.5184 38.9628 68.4694 38.8139 68.3814 38.6881C68.2933 38.5623 68.1701 38.4652 68.0273 38.409C67.8844 38.3528 67.7281 38.34 67.5779 38.3721C67.4278 38.4042 67.2904 38.4798 67.183 38.5896C67.2038 38.2871 67.3265 38.0007 67.5312 37.7771V37.6699H66.6384V37.7771C66.843 38.0007 66.9658 38.2871 66.9866 38.5896C66.8792 38.4798 66.7418 38.4042 66.5917 38.3721C66.4415 38.34 66.2852 38.3528 66.1423 38.409C65.9994 38.4652 65.8763 38.5623 65.7882 38.6881C65.7002 38.8139 65.6512 38.9628 65.6473 39.1163C65.6205 40.0628 66.8303 40.2905 67.0714 40.9021Z" fill="#1F1F1F"/>
<path d="M43.504 6.69587H42.9639V7.36551H42.2942V6.69587H40.7317L40.5576 6.35659C40.8121 5.95034 41.0576 5.52623 41.2942 5.09319C41.5308 4.66016 41.763 4.20033 41.9817 3.75391H42.6067L42.7005 3.90569C42.5353 4.21373 42.3835 4.49497 42.2541 4.74051C42.1246 4.98605 41.9817 5.21372 41.8567 5.41015C41.7448 5.59257 41.6226 5.76846 41.4907 5.93694C41.3801 6.08226 41.2576 6.21814 41.1246 6.34319L42.3165 6.29409L42.3835 5.4548L42.955 5.42354V6.24944L43.5174 6.22712L43.504 6.69587Z" fill="#1F1F1F"/>
<path d="M65.6335 42.8571H66.2005V42.1875H66.8478V42.8571H68.4103L68.5844 43.1964C68.3299 43.6027 68.0844 44.0268 67.8478 44.4598C67.6112 44.8929 67.379 45.3527 67.1558 45.7991H66.5353L66.4415 45.6473C66.6067 45.3393 66.7585 45.058 66.888 44.8125C67.0174 44.567 67.1603 44.3393 67.2853 44.1429C67.3972 43.9604 67.5194 43.7846 67.6514 43.6161C67.7619 43.4708 67.8844 43.3349 68.0174 43.2098L66.8255 43.2589L66.7585 44.0982L66.1871 44.1295V43.3036H65.6201L65.6335 42.8571Z" fill="#1F1F1F"/>
<path d="M48.3213 6.36133C47.8347 7.59347 45.4196 8.0399 45.4196 9.93276C45.4196 10.3472 45.5842 10.7446 45.8772 11.0376C46.1702 11.3306 46.5677 11.4953 46.9821 11.4953C47.1976 11.4957 47.4109 11.4505 47.6078 11.3628C47.8048 11.2751 47.981 11.1468 48.1249 10.9863C48.0899 11.5927 47.8434 12.1677 47.4285 12.6113V12.8345H49.2142V12.6113C48.8005 12.1683 48.5528 11.5957 48.5133 10.9908C48.7265 11.2214 49.0042 11.3824 49.3102 11.4528C49.6162 11.5232 49.9364 11.4998 50.2289 11.3856C50.5214 11.2714 50.7728 11.0717 50.9501 10.8125C51.1274 10.5534 51.2226 10.2468 51.2231 9.93276C51.2231 8.03544 48.8035 7.58901 48.3213 6.36133Z" fill="#1F1F1F"/>
<path d="M60.8213 6.36133C60.3347 7.59347 57.9196 8.0399 57.9196 9.93276C57.9196 10.3472 58.0842 10.7446 58.3772 11.0376C58.6702 11.3306 59.0677 11.4953 59.4821 11.4953C59.6976 11.4957 59.9109 11.4505 60.1078 11.3628C60.3048 11.2751 60.481 11.1468 60.6249 10.9863C60.5899 11.5927 60.3434 12.1677 59.9285 12.6113V12.8345H61.7142V12.6113C61.3005 12.1683 61.0528 11.5957 61.0133 10.9908C61.2265 11.2214 61.5042 11.3824 61.8102 11.4528C62.1162 11.5232 62.4364 11.4998 62.7289 11.3856C63.0214 11.2714 63.2728 11.0717 63.4501 10.8125C63.6274 10.5534 63.7226 10.2468 63.7231 9.93276C63.7231 8.03544 61.3035 7.58901 60.8213 6.36133Z" fill="#1F1F1F"/>
<path d="M48.3214 43.5619C47.7901 42.2226 45.1294 41.7093 45.1294 39.6289C45.1294 39.4032 45.1738 39.1797 45.2602 38.9712C45.3466 38.7626 45.4732 38.5732 45.6328 38.4136C45.7924 38.254 45.9819 38.1274 46.1904 38.041C46.3989 37.9546 46.6224 37.9102 46.8481 37.9102C47.0857 37.9106 47.3205 37.9608 47.5373 38.0577C47.7542 38.1546 47.9483 38.296 48.1071 38.4727C48.0629 37.8071 47.7919 37.1768 47.3392 36.6869V36.4414H49.3035V36.6869C48.8502 37.1764 48.5791 37.8069 48.5356 38.4727C48.7692 38.218 49.0743 38.0399 49.4108 37.9616C49.7474 37.8834 50.0997 37.9086 50.4216 38.0341C50.7436 38.1596 51.0201 38.3795 51.2149 38.6649C51.4097 38.9502 51.5137 39.2878 51.5133 39.6334C51.5133 41.7093 48.8526 42.2048 48.3214 43.5619Z" fill="#1F1F1F"/>
<path d="M60.8213 43.192C60.3347 41.9598 57.9196 41.5134 57.9196 39.6205C57.9196 39.2061 58.0842 38.8087 58.3772 38.5157C58.6702 38.2227 59.0677 38.058 59.4821 38.058C59.6976 38.0576 59.9109 38.1028 60.1078 38.1905C60.3048 38.2782 60.481 38.4065 60.6249 38.567C60.5899 37.9605 60.3434 37.3856 59.9285 36.942V36.7188H61.7142V36.942C61.3005 37.385 61.0528 37.9576 61.0133 38.5625C61.2265 38.3319 61.5042 38.1709 61.8102 38.1005C62.1162 38.0301 62.4364 38.0535 62.7289 38.1677C63.0214 38.2819 63.2728 38.4816 63.4501 38.7408C63.6274 38.9999 63.7226 39.3065 63.7231 39.6205C63.7231 41.5179 61.3035 41.9643 60.8213 43.192Z" fill="#1F1F1F"/>
<path d="M106.911 0H75.6607C74.428 0 73.4286 0.999364 73.4286 2.23214V47.7679C73.4286 49.0006 74.428 50 75.6607 50H106.911C108.144 50 109.143 49.0006 109.143 47.7679V2.23214C109.143 0.999364 108.144 0 106.911 0Z" fill="#F9F1DF"/>
<path d="M79.509 9.375C79.3595 9.37784 79.2135 9.42076 79.0863 9.49929C78.9591 9.57782 78.8553 9.68908 78.7858 9.82143C78.6952 9.66042 78.5538 9.53398 78.3838 9.46191C78.2137 9.38985 78.0245 9.37623 77.8459 9.42319C77.6672 9.47015 77.5092 9.57504 77.3965 9.72142C77.2838 9.86781 77.2229 10.0474 77.2233 10.2321C77.2233 11.1562 78.5402 11.6518 78.7858 12.2411C79.0313 11.6518 80.3483 11.1562 80.3483 10.2321C80.3506 10.1204 80.3307 10.0094 80.2896 9.90547C80.2485 9.80158 80.187 9.70694 80.1089 9.6271C80.0307 9.54727 79.9374 9.48384 79.8343 9.44055C79.7313 9.39726 79.6207 9.37497 79.509 9.375Z" fill="#C93112"/>
<path d="M103.058 40.401C103.13 40.2717 103.235 40.164 103.363 40.0891C103.49 40.0141 103.636 39.9746 103.784 39.9746C103.931 39.9746 104.077 40.0141 104.204 40.0891C104.332 40.164 104.437 40.2717 104.509 40.401C104.732 40.401 104.945 40.3125 105.102 40.1551C105.26 39.9977 105.348 39.7843 105.348 39.5617C105.348 38.6376 104.031 38.142 103.786 37.5527C103.54 38.142 102.223 38.6376 102.223 39.5617C102.223 39.7835 102.311 39.9963 102.468 40.1536C102.624 40.3108 102.836 40.3998 103.058 40.401Z" fill="#C93112"/>
<path d="M80.2188 6.8072H79.6786V7.47684H79.009V6.8072H77.4465L77.2723 6.46791C77.5268 6.06166 77.7723 5.63756 78.009 5.20452C78.2456 4.77148 78.4777 4.31166 78.6964 3.86523H79.3215L79.4152 4.01702C79.25 4.32505 79.0982 4.6063 78.9688 4.85184C78.8393 5.09737 78.6964 5.32506 78.5714 5.52595C78.4585 5.70626 78.3363 5.8806 78.2054 6.04827C78.0948 6.19358 77.9724 6.32947 77.8393 6.45452L79.0313 6.40541L79.0982 5.56613L79.6697 5.53487V6.37416L80.2322 6.35184L80.2188 6.8072Z" fill="#C93112"/>
<path d="M102.348 42.9685H102.915V42.2988H103.563V42.9685H105.125L105.299 43.3078C105.045 43.714 104.799 44.1381 104.563 44.5711C104.326 45.0042 104.094 45.464 103.871 45.9104H103.25L103.156 45.7586C103.322 45.4506 103.473 45.1694 103.603 44.9238C103.732 44.6783 103.875 44.4506 104 44.2497C104.113 44.0694 104.235 43.8951 104.366 43.7274C104.477 43.5821 104.599 43.4462 104.732 43.3211L103.54 43.3703L103.473 44.2095L102.902 44.2408V43.4015L102.335 43.4238L102.348 42.9685Z" fill="#C93112"/>
<path d="M86.4863 7.69922C86.1906 7.70014 85.9005 7.77957 85.6456 7.92939C85.3906 8.0792 85.1801 8.29403 85.0354 8.5519C84.8543 8.22987 84.5716 7.977 84.2314 7.83287C83.8912 7.68874 83.5129 7.6615 83.1556 7.75542C82.7983 7.84934 82.4822 8.05911 82.2569 8.35188C82.0316 8.64465 81.9097 9.00389 81.9104 9.37333C81.9104 11.2215 84.5443 12.2126 85.0354 13.3912C85.5265 12.2126 88.1604 11.2215 88.1604 9.37333C88.1604 8.92933 87.984 8.50351 87.6701 8.18955C87.3561 7.87559 86.9303 7.69922 86.4863 7.69922Z" fill="#C93112"/>
<path d="M98.9865 7.69922C98.6909 7.70014 98.4007 7.77957 98.1458 7.92939C97.8909 8.0792 97.6803 8.29403 97.5356 8.5519C97.3546 8.22987 97.0718 7.977 96.7317 7.83287C96.3915 7.68874 96.0131 7.6615 95.6558 7.75542C95.2985 7.84934 94.9825 8.05911 94.7571 8.35188C94.5318 8.64465 94.41 9.00389 94.4106 9.37333C94.4106 11.2215 97.0446 12.2126 97.5356 13.3912C98.0267 12.2126 100.661 11.2215 100.661 9.37333C100.661 8.92933 100.484 8.50351 100.17 8.18955C99.8564 7.87559 99.4305 7.69922 98.9865 7.69922Z" fill="#C93112"/>
<path d="M86.6292 42.3189C86.3043 42.3177 85.9856 42.2303 85.7056 42.0656C85.4255 41.9009 85.1943 41.6648 85.0354 41.3814C84.8376 41.7363 84.5277 42.0154 84.1541 42.1752C83.7806 42.3349 83.3646 42.3661 82.9715 42.264C82.5783 42.1619 82.2301 41.9322 81.9815 41.6108C81.7329 41.2895 81.598 40.8948 81.5979 40.4886C81.5979 38.4528 84.4952 37.3636 85.0354 36.0645C85.5756 37.3636 88.4729 38.4528 88.4729 40.4886C88.4694 40.9752 88.2736 41.4408 87.9282 41.7836C87.5828 42.1265 87.1158 42.3189 86.6292 42.3189Z" fill="#C93112"/>
<path d="M98.9865 42.0748C98.6909 42.0739 98.4007 41.9944 98.1458 41.8446C97.8909 41.6948 97.6803 41.48 97.5356 41.2221C97.3546 41.5441 97.0718 41.797 96.7317 41.9411C96.3915 42.0853 96.0131 42.1125 95.6558 42.0186C95.2985 41.9247 94.9825 41.7149 94.7571 41.4221C94.5318 41.1293 94.41 40.7701 94.4106 40.4007C94.4106 38.5525 97.0446 37.5614 97.5356 36.3828C98.0267 37.5614 100.661 38.5525 100.661 40.4007C100.661 40.8447 100.484 41.2705 100.17 41.5844C99.8564 41.8984 99.4305 42.0748 98.9865 42.0748Z" fill="#C93112"/>
<g opacity="0.5">
<path d="M143.625 0H112.375C111.142 0 110.143 0.999364 110.143 2.23214V47.7679C110.143 49.0006 111.142 50 112.375 50H143.625C144.858 50 145.857 49.0006 145.857 47.7679V2.23214C145.857 0.999364 144.858 0 143.625 0Z" fill="#F9F1DF"/>
<path d="M115.501 8.65234C115.26 9.26395 114.05 9.49163 114.05 10.4381C114.054 10.5916 114.103 10.7405 114.191 10.8663C114.279 10.9921 114.402 11.0892 114.545 11.1454C114.688 11.2016 114.844 11.2144 114.994 11.1823C115.144 11.1502 115.282 11.0746 115.389 10.9648C115.368 11.2673 115.246 11.5537 115.041 11.7773V11.8845H115.934V11.7773C115.729 11.5537 115.606 11.2673 115.586 10.9648C115.693 11.0746 115.83 11.1502 115.981 11.1823C116.131 11.2144 116.287 11.2016 116.43 11.1454C116.573 11.0892 116.696 10.9921 116.784 10.8663C116.872 10.7405 116.921 10.5916 116.925 10.4381C116.952 9.49163 115.742 9.26395 115.501 8.65234Z" fill="#1F1F1F"/>
<path d="M140.501 40.9021C140.742 40.2905 141.952 40.0628 141.952 39.1163C141.948 38.9628 141.899 38.8139 141.811 38.6881C141.723 38.5623 141.599 38.4652 141.457 38.409C141.314 38.3528 141.157 38.34 141.007 38.3721C140.857 38.4042 140.72 38.4798 140.612 38.5896C140.633 38.2871 140.756 38.0007 140.961 37.7771V37.6699H140.068V37.7771C140.272 38.0007 140.395 38.2871 140.416 38.5896C140.308 38.4798 140.171 38.4042 140.021 38.3721C139.871 38.34 139.715 38.3528 139.572 38.409C139.429 38.4652 139.306 38.5623 139.218 38.6881C139.13 38.8139 139.08 38.9628 139.077 39.1163C139.05 40.0628 140.26 40.2905 140.501 40.9021Z" fill="#1F1F1F"/>
<path d="M114.238 3.77818V6.83175C114.236 6.86935 114.248 6.90625 114.273 6.93443C114.299 6.96182 114.334 6.97921 114.372 6.98354L114.898 7.06836V7.36746H112.823V7.06836L113.425 6.98354C113.465 6.97825 113.502 6.96114 113.532 6.93443C113.547 6.92196 113.559 6.90619 113.567 6.88837C113.575 6.87054 113.578 6.85116 113.577 6.83175V4.4255L113.43 4.46568L113.238 4.51032L113.037 4.54603H112.858L112.796 4.22907C112.896 4.20467 112.994 4.17334 113.09 4.13532C113.193 4.09961 113.291 4.05496 113.39 4.01032C113.488 3.96568 113.577 3.91211 113.662 3.85854C113.74 3.8089 113.815 3.7537 113.885 3.69336L114.238 3.77818Z" fill="#1F1F1F"/>
<path d="M116.707 7.43359C116.48 7.44035 116.256 7.38967 116.055 7.28628C115.875 7.19825 115.721 7.06429 115.608 6.89788C115.5 6.71883 115.423 6.52255 115.381 6.31752C115.335 6.08517 115.313 5.84892 115.314 5.61217C115.31 5.33054 115.345 5.04972 115.417 4.77734C115.476 4.56391 115.576 4.36389 115.711 4.18806C115.83 4.03705 115.983 3.91622 116.158 3.83538C116.347 3.75677 116.551 3.71729 116.756 3.71931C116.981 3.71287 117.205 3.76193 117.408 3.86216C117.578 3.95349 117.723 4.08725 117.827 4.25056C117.939 4.42771 118.017 4.62471 118.055 4.83092C118.101 5.0632 118.123 5.2995 118.122 5.53627C118.128 5.81951 118.093 6.10215 118.019 6.37556C117.963 6.59041 117.863 6.79116 117.725 6.96485C117.606 7.11622 117.453 7.23713 117.278 7.31753C117.097 7.39268 116.903 7.43208 116.707 7.43359ZM116.707 4.05859C116.599 4.0564 116.493 4.08912 116.406 4.15188C116.318 4.21463 116.253 4.30405 116.22 4.40681C116.109 4.74959 116.061 5.10945 116.077 5.46931C116.064 5.87306 116.112 6.27648 116.22 6.66574C116.247 6.78658 116.314 6.89464 116.411 6.97184C116.507 7.04903 116.628 7.09069 116.751 7.08985C116.86 7.09175 116.966 7.05838 117.054 6.99477C117.141 6.93116 117.206 6.84075 117.238 6.73717C117.353 6.39535 117.403 6.03494 117.385 5.67467C117.4 5.27203 117.35 4.8696 117.238 4.4827C117.214 4.36408 117.149 4.25736 117.056 4.18023C116.963 4.1031 116.846 4.06018 116.725 4.05859H116.707Z" fill="#1F1F1F"/>
<path d="M141.76 45.7787V42.7252C141.763 42.6882 141.752 42.6514 141.729 42.6225C141.701 42.5948 141.665 42.5774 141.626 42.5734L141.104 42.4886V42.1895H143.18V42.4886L142.577 42.5734C142.537 42.5787 142.5 42.5958 142.47 42.6225C142.456 42.6358 142.446 42.6518 142.439 42.6695C142.432 42.6872 142.429 42.7062 142.43 42.7252V45.1314L142.577 45.0912L142.765 45.0466L142.97 45.0109H143.149L143.211 45.3278C143.109 45.3516 143.009 45.3829 142.912 45.4216C142.814 45.4573 142.711 45.5019 142.617 45.5466C142.524 45.5926 142.433 45.6433 142.345 45.6984C142.266 45.7491 142.19 45.8043 142.117 45.8636L141.76 45.7787Z" fill="#1F1F1F"/>
<path d="M139.291 42.1218C139.519 42.1143 139.745 42.165 139.948 42.2691C140.119 42.3605 140.263 42.4942 140.367 42.6575C140.48 42.8347 140.557 43.0317 140.595 43.2379C140.64 43.4702 140.663 43.7065 140.662 43.9432C140.668 44.225 140.633 44.5061 140.559 44.7781C140.503 44.9929 140.403 45.1937 140.265 45.3674C140.146 45.5187 139.993 45.6396 139.818 45.72C139.629 45.7983 139.425 45.8378 139.22 45.8361C138.994 45.8431 138.77 45.794 138.568 45.6933C138.396 45.6021 138.25 45.4684 138.144 45.3049C138.032 45.1277 137.955 44.9307 137.916 44.7245C137.871 44.4922 137.848 44.2559 137.849 44.0191C137.845 43.736 137.88 43.4537 137.952 43.1799C138.012 42.9664 138.112 42.7664 138.247 42.5906C138.365 42.4386 138.518 42.3175 138.693 42.2379C138.883 42.1587 139.086 42.1192 139.291 42.1218ZM139.291 45.4968C139.399 45.4997 139.505 45.4673 139.593 45.4045C139.681 45.3416 139.746 45.2518 139.778 45.1486C139.893 44.8067 139.943 44.4464 139.925 44.0861C139.94 43.682 139.89 43.2782 139.778 42.8897C139.752 42.7684 139.685 42.6599 139.588 42.5826C139.491 42.5052 139.371 42.4639 139.247 42.4656C139.139 42.4632 139.033 42.4964 138.946 42.5602C138.859 42.6239 138.795 42.7146 138.765 42.8182C138.649 43.1601 138.599 43.5205 138.617 43.8808C138.604 44.283 138.652 44.6851 138.76 45.0727C138.785 45.191 138.85 45.2972 138.943 45.3742C139.036 45.4512 139.153 45.4944 139.274 45.4968H139.291Z" fill="#1F1F1F"/>
<path d="M121.751 6.36133C121.264 7.59347 118.849 8.0399 118.849 9.93276C118.848 10.2475 118.942 10.5551 119.12 10.815C119.297 11.075 119.549 11.2752 119.842 11.3892C120.136 11.5033 120.457 11.5258 120.763 11.4539C121.069 11.382 121.347 11.219 121.559 10.9863C121.52 11.5927 121.272 12.1669 120.858 12.6113V12.8345H122.644V12.6113C122.23 12.1683 121.982 11.5957 121.943 10.9908C122.156 11.2214 122.434 11.3824 122.74 11.4528C123.046 11.5232 123.366 11.4998 123.658 11.3856C123.951 11.2714 124.202 11.0717 124.379 10.8125C124.557 10.5534 124.652 10.2468 124.652 9.93276C124.652 8.03544 122.233 7.58901 121.751 6.36133Z" fill="#1F1F1F"/>
<path d="M134.251 6.36133C133.764 7.59347 131.349 8.0399 131.349 9.93276C131.348 10.2475 131.442 10.5551 131.62 10.815C131.797 11.075 132.049 11.2752 132.342 11.3892C132.636 11.5033 132.957 11.5258 133.263 11.4539C133.569 11.382 133.847 11.219 134.059 10.9863C134.02 11.5927 133.772 12.1669 133.358 12.6113V12.8345H135.144V12.6113C134.73 12.1683 134.482 11.5957 134.443 10.9908C134.656 11.2214 134.934 11.3824 135.24 11.4528C135.546 11.5232 135.866 11.4998 136.158 11.3856C136.451 11.2714 136.702 11.0717 136.879 10.8125C137.057 10.5534 137.152 10.2468 137.152 9.93276C137.152 8.03544 134.733 7.58901 134.251 6.36133Z" fill="#1F1F1F"/>
<path d="M128.001 11.4961C127.514 12.7282 125.099 13.1747 125.099 15.0675C125.099 15.4819 125.264 15.8794 125.557 16.1724C125.85 16.4654 126.247 16.63 126.661 16.63C126.877 16.6304 127.09 16.5853 127.287 16.4976C127.484 16.4099 127.66 16.2816 127.804 16.1211C127.769 16.7275 127.523 17.3025 127.108 17.7461V17.9693H128.894V17.7461C128.48 17.303 128.232 16.7305 128.193 16.1256C128.406 16.3561 128.684 16.5171 128.99 16.5876C129.296 16.658 129.616 16.6346 129.908 16.5204C130.201 16.4061 130.452 16.2064 130.629 15.9473C130.807 15.6881 130.902 15.3816 130.902 15.0675C130.902 13.1747 128.483 12.7282 128.001 11.4961Z" fill="#1F1F1F"/>
<path d="M121.751 16.1836C121.264 17.4157 118.849 17.8622 118.849 19.755C118.848 20.0697 118.942 20.3773 119.12 20.6373C119.297 20.8973 119.549 21.0975 119.842 21.2115C120.136 21.3256 120.457 21.3481 120.763 21.2762C121.069 21.2043 121.347 21.0412 121.559 20.8086C121.52 21.415 121.272 21.9892 120.858 22.4336V22.6568H122.644V22.4336C122.23 21.9905 121.982 21.418 121.943 20.8131C122.156 21.0436 122.434 21.2046 122.74 21.2751C123.046 21.3455 123.366 21.3221 123.658 21.2079C123.951 21.0936 124.202 20.8939 124.379 20.6348C124.557 20.3756 124.652 20.0691 124.652 19.755C124.652 17.8577 122.233 17.4113 121.751 16.1836Z" fill="#1F1F1F"/>
<path d="M134.251 16.1836C133.764 17.4157 131.349 17.8622 131.349 19.755C131.348 20.0697 131.442 20.3773 131.62 20.6373C131.797 20.8973 132.049 21.0975 132.342 21.2115C132.636 21.3256 132.957 21.3481 133.263 21.2762C133.569 21.2043 133.847 21.0412 134.059 20.8086C134.02 21.415 133.772 21.9892 133.358 22.4336V22.6568H135.144V22.4336C134.73 21.9905 134.482 21.418 134.443 20.8131C134.656 21.0436 134.934 21.2046 135.24 21.2751C135.546 21.3455 135.866 21.3221 136.158 21.2079C136.451 21.0936 136.702 20.8939 136.879 20.6348C137.057 20.3756 137.152 20.0691 137.152 19.755C137.152 17.8577 134.733 17.4113 134.251 16.1836Z" fill="#1F1F1F"/>
<path d="M121.751 43.192C121.264 41.9598 118.849 41.5134 118.849 39.6205C118.848 39.3058 118.942 38.9982 119.12 38.7383C119.297 38.4783 119.549 38.2781 119.842 38.164C120.136 38.05 120.457 38.0275 120.763 38.0994C121.069 38.1713 121.347 38.3343 121.559 38.567C121.52 37.9606 121.272 37.3864 120.858 36.942V36.7188H122.644V36.942C122.23 37.385 121.982 37.9576 121.943 38.5625C122.156 38.3319 122.434 38.1709 122.74 38.1005C123.046 38.0301 123.366 38.0535 123.658 38.1677C123.951 38.2819 124.202 38.4816 124.379 38.7408C124.557 38.9999 124.652 39.3065 124.652 39.6205C124.652 41.5179 122.233 41.9643 121.751 43.192Z" fill="#1F1F1F"/>
<path d="M134.251 43.192C133.764 41.9598 131.349 41.5134 131.349 39.6205C131.348 39.3058 131.442 38.9982 131.62 38.7383C131.797 38.4783 132.049 38.2781 132.342 38.164C132.636 38.05 132.957 38.0275 133.263 38.0994C133.569 38.1713 133.847 38.3343 134.059 38.567C134.02 37.9606 133.772 37.3864 133.358 36.942V36.7188H135.144V36.942C134.73 37.385 134.482 37.9576 134.443 38.5625C134.656 38.3319 134.934 38.1709 135.24 38.1005C135.546 38.0301 135.866 38.0535 136.158 38.1677C136.451 38.2819 136.702 38.4816 136.879 38.7408C137.057 38.9999 137.152 39.3065 137.152 39.6205C137.152 41.5179 134.733 41.9643 134.251 43.192Z" fill="#1F1F1F"/>
<path d="M128.001 38.0572C127.514 36.8251 125.099 36.3786 125.099 34.4858C125.099 34.0714 125.264 33.6739 125.557 33.3809C125.85 33.0879 126.247 32.9233 126.661 32.9233C126.877 32.9229 127.09 32.968 127.287 33.0557C127.484 33.1434 127.66 33.2717 127.804 33.4322C127.769 32.8258 127.523 32.2508 127.108 31.8072V31.584H128.894V31.8072C128.48 32.2502 128.232 32.8228 128.193 33.4277C128.406 33.1971 128.684 33.0361 128.99 32.9657C129.296 32.8953 129.616 32.9187 129.908 33.0329C130.201 33.1471 130.452 33.3468 130.629 33.606C130.807 33.8652 130.902 34.1717 130.902 34.4858C130.902 36.3786 128.483 36.8251 128.001 38.0572Z" fill="#1F1F1F"/>
<path d="M121.751 33.3697C121.264 32.1376 118.849 31.6911 118.849 29.7983C118.848 29.4836 118.942 29.176 119.12 28.916C119.297 28.656 119.549 28.4558 119.842 28.3418C120.136 28.2277 120.457 28.2052 120.763 28.2771C121.069 28.349 121.347 28.5121 121.559 28.7447C121.52 28.1383 121.272 27.5641 120.858 27.1197V26.8965H122.644V27.1197C122.23 27.5627 121.982 28.1353 121.943 28.7402C122.156 28.5096 122.434 28.3486 122.74 28.2782C123.046 28.2078 123.366 28.2312 123.658 28.3454C123.951 28.4596 124.202 28.6593 124.379 28.9185C124.557 29.1777 124.652 29.4842 124.652 29.7983C124.652 31.6956 122.233 32.142 121.751 33.3697Z" fill="#1F1F1F"/>
<path d="M134.251 33.3697C133.764 32.1376 131.349 31.6911 131.349 29.7983C131.348 29.4836 131.442 29.176 131.62 28.916C131.797 28.656 132.049 28.4558 132.342 28.3418C132.636 28.2277 132.957 28.2052 133.263 28.2771C133.569 28.349 133.847 28.5121 134.059 28.7447C134.02 28.1383 133.772 27.5641 133.358 27.1197V26.8965H135.144V27.1197C134.73 27.5627 134.482 28.1353 134.443 28.7402C134.656 28.5096 134.934 28.3486 135.24 28.2782C135.546 28.2078 135.866 28.2312 136.158 28.3454C136.451 28.4596 136.702 28.6593 136.879 28.9185C137.057 29.1777 137.152 29.4842 137.152 29.7983C137.152 31.6956 134.733 32.142 134.251 33.3697Z" fill="#1F1F1F"/>
</g>
<g opacity="0.5">
<path d="M180.339 0H149.089C147.857 0 146.857 0.999364 146.857 2.23214V47.7679C146.857 49.0006 147.857 50 149.089 50H180.339C181.572 50 182.571 49.0006 182.571 47.7679V2.23214C182.571 0.999364 181.572 0 180.339 0Z" fill="#F9F1DF"/>
<path d="M152.959 9.375C152.809 9.37751 152.662 9.42026 152.534 9.49878C152.406 9.5773 152.301 9.68873 152.231 9.82143C152.162 9.68877 152.058 9.57725 151.931 9.49867C151.804 9.42009 151.658 9.37736 151.508 9.375C151.285 9.375 151.072 9.46343 150.915 9.62082C150.757 9.77822 150.669 9.9917 150.669 10.2143C150.669 11.1384 151.986 11.6339 152.231 12.2232C152.477 11.6339 153.794 11.1384 153.794 10.2143C153.794 9.99247 153.706 9.77967 153.549 9.6224C153.393 9.46513 153.181 9.37618 152.959 9.375Z" fill="#C93112"/>
<path d="M176.49 40.4012C176.639 40.3989 176.786 40.3561 176.913 40.2776C177.04 40.199 177.144 40.0875 177.213 39.9548C177.304 40.1158 177.445 40.2422 177.615 40.3143C177.785 40.3864 177.974 40.4 178.153 40.353C178.332 40.3061 178.49 40.2012 178.602 40.0548C178.715 39.9084 178.776 39.7288 178.776 39.5441C178.776 38.62 177.459 38.1244 177.213 37.5352C176.968 38.1244 175.651 38.62 175.651 39.5441C175.648 39.6558 175.668 39.7669 175.709 39.8708C175.75 39.9746 175.812 40.0693 175.89 40.1491C175.968 40.229 176.061 40.2924 176.165 40.3357C176.268 40.379 176.378 40.4013 176.49 40.4012Z" fill="#C93112"/>
<path d="M153.709 8.5631C153.538 8.56853 153.37 8.52682 153.222 8.44257C153.086 8.36492 152.96 8.27042 152.847 8.16132L152.503 7.83096C152.393 7.71589 152.263 7.62206 152.119 7.55418C151.863 7.55623 151.609 7.50452 151.374 7.40239C151.169 7.30963 150.99 7.16872 150.851 6.99168C150.703 6.8037 150.596 6.58599 150.539 6.35328C150.464 6.08136 150.428 5.80037 150.432 5.51846C150.428 5.20712 150.472 4.89703 150.561 4.59882C150.635 4.34966 150.759 4.11856 150.927 3.92025C151.082 3.7267 151.281 3.57351 151.508 3.47382C151.754 3.37281 152.018 3.3227 152.284 3.3265C152.543 3.32169 152.8 3.37032 153.039 3.46935C153.247 3.56007 153.431 3.69937 153.575 3.8756C153.721 4.06545 153.829 4.2824 153.892 4.514C153.966 4.78897 154.002 5.07291 153.999 5.35775C154.011 5.82581 153.897 6.28861 153.668 6.69703C153.468 7.03711 153.151 7.2926 152.775 7.41578C152.867 7.44929 152.955 7.49113 153.039 7.54078L153.289 7.69257C153.413 7.77641 153.543 7.85246 153.677 7.92025C153.818 7.98276 153.97 8.01325 154.124 8.00953H154.262H154.383L154.454 8.27293C154.37 8.3477 154.273 8.40669 154.168 8.44703C154.027 8.5234 153.869 8.56329 153.709 8.5631ZM152.222 3.6881C152.068 3.68588 151.917 3.72649 151.786 3.80534C151.654 3.8842 151.547 3.99819 151.476 4.13453C151.276 4.55113 151.187 5.01252 151.217 5.47382C151.188 5.9264 151.273 6.37909 151.463 6.79079C151.531 6.92813 151.637 7.04314 151.768 7.12224C151.9 7.20134 152.051 7.24124 152.204 7.23722C152.357 7.23911 152.507 7.19834 152.638 7.11947C152.769 7.0406 152.875 6.92678 152.945 6.79079C153.149 6.37533 153.24 5.91333 153.209 5.4515C153.239 5.00029 153.154 4.54876 152.963 4.139C152.896 4.00082 152.79 3.88488 152.659 3.80496C152.527 3.72504 152.376 3.68448 152.222 3.6881Z" fill="#C93112"/>
<path d="M175.726 41.2158C175.896 41.2104 176.065 41.2521 176.213 41.3363C176.35 41.4129 176.476 41.5075 176.588 41.6176L176.932 41.9479C177.042 42.0641 177.174 42.1581 177.32 42.2247C177.575 42.223 177.827 42.2747 178.061 42.3765C178.266 42.4693 178.445 42.6102 178.583 42.7872C178.732 42.9752 178.839 43.1929 178.896 43.4256C178.97 43.6976 179.006 43.9785 179.003 44.2604C179.007 44.5718 178.963 44.8819 178.874 45.1801C178.8 45.4292 178.675 45.6603 178.507 45.8587C178.35 46.0441 178.151 46.1894 177.927 46.2828C177.681 46.3838 177.417 46.4339 177.15 46.4301C176.892 46.4349 176.635 46.3863 176.396 46.2872C176.188 46.1976 176.006 46.0581 175.865 45.881C175.715 45.6925 175.605 45.4752 175.543 45.2426C175.469 44.9676 175.433 44.6837 175.436 44.3988C175.423 43.9308 175.537 43.468 175.766 43.0596C175.967 42.7195 176.284 42.464 176.659 42.3408C176.568 42.3073 176.48 42.2655 176.396 42.2158L176.146 42.064C176.022 41.9792 175.892 41.9031 175.757 41.8363C175.617 41.7738 175.465 41.7433 175.311 41.7471H175.173H175.052L174.981 41.4837C175.065 41.4089 175.161 41.3499 175.266 41.3096C175.41 41.2409 175.568 41.2087 175.726 41.2158ZM177.213 46.0908C177.366 46.093 177.517 46.0524 177.649 45.9736C177.781 45.8947 177.888 45.7807 177.958 45.6444C178.159 45.2278 178.248 44.7664 178.217 44.3051C178.246 43.8525 178.162 43.3998 177.972 42.9881C177.904 42.8508 177.798 42.7358 177.666 42.6567C177.535 42.5776 177.384 42.5377 177.231 42.5417C177.078 42.5398 176.928 42.5806 176.797 42.6594C176.666 42.7383 176.559 42.8521 176.49 42.9881C176.285 43.4036 176.195 43.8656 176.226 44.3274C176.196 44.7786 176.28 45.2301 176.472 45.6399C176.539 45.7767 176.643 45.8917 176.772 45.9715C176.902 46.0513 177.052 46.0927 177.204 46.0908H177.213Z" fill="#C93112"/>
<path d="M175.539 6.02734C175.395 6.28584 175.185 6.50117 174.93 6.65109C174.675 6.801 174.384 6.88004 174.088 6.88004C173.793 6.88004 173.502 6.801 173.247 6.65109C172.992 6.50117 172.781 6.28584 172.637 6.02734C172.193 6.02734 171.768 6.20372 171.454 6.51768C171.14 6.83163 170.963 7.25745 170.963 7.70145C170.963 9.54966 173.597 10.5407 174.088 11.7193C174.584 10.5407 177.213 9.54966 177.213 7.70145C177.213 7.25745 177.037 6.83163 176.723 6.51768C176.409 6.20372 175.983 6.02734 175.539 6.02734Z" fill="#C93112"/>
<path d="M156.789 43.9771C156.646 43.7174 156.436 43.5009 156.181 43.3501C155.926 43.1992 155.635 43.1197 155.339 43.1197C155.042 43.1197 154.751 43.1992 154.496 43.3501C154.241 43.5009 154.031 43.7174 153.888 43.9771C153.444 43.9771 153.018 43.8007 152.704 43.4868C152.39 43.1728 152.214 42.747 152.214 42.303C152.214 40.4503 154.847 39.4593 155.339 38.2852C155.834 39.4593 158.464 40.4503 158.464 42.303C158.464 42.747 158.287 43.1728 157.973 43.4868C157.659 43.8007 157.233 43.9771 156.789 43.9771Z" fill="#C93112"/>
<path d="M179 35.7151H178.554V4.01869H156.679V3.57227H178.777L179 3.79548V35.7151ZM150.429 14.2866V46.2062L150.652 46.4294H172.75V45.983H150.875V14.2866H150.429Z" fill="#1F1F1F"/>
<path d="M166.646 42.6429C166.611 42.96 166.602 43.2796 166.62 43.5982C166.37 43.4388 166.072 43.3737 165.779 43.4146C165.486 43.4555 165.218 43.5998 165.021 43.8214C164.365 42.875 163.896 42.9286 162.888 43.4821C162.352 42.5 161.995 42.1786 160.905 42.6518C160.86 42.3902 160.732 42.1499 160.541 41.9654C160.35 41.7809 160.106 41.6617 159.843 41.625C160.106 41.3803 160.343 41.1079 160.548 40.8125C161.374 41.5373 162.346 42.0758 163.398 42.3917C164.45 42.7075 165.558 42.7932 166.646 42.6429Z" fill="#CBBD9F"/>
<path d="M166.834 28.7502C166.188 29.1522 165.589 29.6253 165.049 30.1609C164.936 30.1243 164.819 30.1062 164.7 30.1073C165.026 30.1073 160.388 29.9377 159.566 31.5805C159.12 32.4511 159.736 33.527 159.986 34.527C159.163 33.9512 158.457 33.224 157.906 32.3841C157.482 31.7552 157.301 30.9936 157.397 30.2412C157.665 27.7814 163.865 26.2279 166.834 28.7502Z" fill="#C93112"/>
<path d="M165.334 34.4018L165.039 32.8036C165.794 32.0446 166.191 31.0179 165.45 30.375C166.695 29.1925 168.238 28.3715 169.914 28C170.517 31.875 167.356 32.6562 165.334 34.4018Z" fill="#2D6B67"/>
<path d="M167.075 40.9634C167.081 41.0176 167.065 41.0717 167.032 41.1148C166.999 41.1579 166.95 41.1868 166.897 41.1956C163.696 41.6733 162.932 38.7804 162.906 35.6063C162.906 32.6777 164.727 32.2804 163.888 30.5795C164.209 30.5617 164.548 30.5527 164.906 30.5527C165.499 30.5527 165.798 31.0974 165.495 31.767C165.107 32.6108 163.441 33.4322 163.468 36.142C163.468 36.3876 163.504 36.6509 163.504 36.8206C163.682 39.4367 164.781 40.7759 166.798 40.7759C166.95 40.7759 167.075 40.8117 167.075 40.9634Z" fill="#CBBD9F"/>
<path d="M164.093 40.9199C162.164 40.0851 162.048 37.7101 161.914 35.5628C161.754 33.0583 162.535 31.8797 161.816 30.8485C162.342 30.7257 162.876 30.645 163.414 30.6074C164.218 32.3128 162.441 32.4422 162.459 35.5985C162.477 37.4601 162.7 39.7324 164.093 40.9199Z" fill="#CBBD9F"/>
<path d="M162.557 40.2946C161.191 39.4732 161.031 37.75 160.879 36.1786C160.849 35.3004 160.68 34.4326 160.379 33.6071C159.906 32.1875 159.776 31.5179 161.352 31C162.093 31.8705 161.303 32.9509 161.468 35.6071C161.566 37.1473 161.665 39.0714 162.557 40.2946Z" fill="#CBBD9F"/>
<path d="M174.388 32.8569C174.346 32.8987 174.297 32.9319 174.242 32.9546C174.188 32.9773 174.13 32.9889 174.071 32.9889C174.012 32.9889 173.953 32.9773 173.899 32.9546C173.845 32.9319 173.795 32.8987 173.754 32.8569C173.421 32.3691 173.123 31.859 172.861 31.3301C173.391 31.5905 173.901 31.8889 174.388 32.2229C174.43 32.2644 174.463 32.3138 174.485 32.3682C174.508 32.4226 174.52 32.481 174.52 32.5399C174.52 32.5988 174.508 32.6572 174.485 32.7116C174.463 32.766 174.43 32.8154 174.388 32.8569Z" fill="#CBBD9F"/>
<path d="M172.155 32.4196C172.121 32.5002 172.064 32.5688 171.991 32.6171C171.918 32.6654 171.832 32.6911 171.745 32.6911C171.657 32.6911 171.572 32.6654 171.499 32.6171C171.426 32.5688 171.368 32.5002 171.334 32.4196C171.289 32.3079 171.289 32.1832 171.334 32.0714C171.562 31.7553 171.839 31.4779 172.155 31.25C172.215 31.6376 172.215 32.032 172.155 32.4196Z" fill="#CBBD9F"/>
<path d="M158.2 17.9103C157.967 18.2303 157.687 18.5133 157.37 18.7495C157.293 18.3604 157.293 17.9601 157.37 17.571C157.415 17.4624 157.502 17.3762 157.61 17.331C157.719 17.2859 157.841 17.2855 157.95 17.3299C158.005 17.3516 158.054 17.3837 158.096 17.4246C158.139 17.4655 158.172 17.5143 158.195 17.5682C158.219 17.6221 158.231 17.6801 158.232 17.7388C158.233 17.7975 158.222 17.8557 158.2 17.9103Z" fill="#CBBD9F"/>
<path d="M156.655 18.6522C156.128 18.3936 155.62 18.0952 155.138 17.7594C155.096 17.7177 155.063 17.6683 155.04 17.6139C155.018 17.5596 155.006 17.5013 155.006 17.4424C155.006 17.3835 155.018 17.3252 155.04 17.2709C155.063 17.2165 155.096 17.1671 155.138 17.1254C155.179 17.0838 155.229 17.0508 155.283 17.0283C155.337 17.0057 155.396 16.9941 155.455 16.9941C155.513 16.9941 155.572 17.0057 155.626 17.0283C155.681 17.0508 155.73 17.0838 155.772 17.1254C156.102 17.6127 156.398 18.1229 156.655 18.6522Z" fill="#CBBD9F"/>
<path d="M172.629 26.7852C172.182 27.5619 171.446 27.4459 170.263 27.4816C170.093 26.9727 169.397 25.553 166.87 24.9905C168.85 24.683 170.803 24.2172 172.709 23.5977C173.048 24.9994 173.048 26.1423 172.629 26.7852Z" fill="#CBBD9F"/>
<path d="M162.691 24.9721C160.701 25.2804 158.739 25.7492 156.825 26.3739C156.504 24.99 156.513 23.8382 156.905 23.1775C157.298 22.5167 157.946 22.5078 158.691 22.5078C158.825 22.5078 158.986 22.5078 159.271 22.5078C159.45 22.9989 160.146 24.4096 162.691 24.9721Z" fill="#CBBD9F"/>
<path d="M172.155 19.7486C171.865 22.1995 165.669 23.7665 162.691 21.2307C163.339 20.8343 163.938 20.3639 164.477 19.829C165.05 19.887 165.627 19.887 166.2 19.829H166.236C167.428 19.7397 169.414 19.4718 169.968 18.4093C170.437 17.5165 169.727 16.3424 169.548 15.4629C170.363 16.0485 171.067 16.774 171.629 17.6057C172.052 18.2353 172.238 18.9945 172.155 19.7486Z" fill="#2D6B67"/>
<path d="M163.861 18.0354C163.715 18.2841 163.658 18.5747 163.699 18.8601C163.739 19.1454 163.875 19.4086 164.084 19.6069C162.84 20.7903 161.296 21.6115 159.62 21.9819C159.017 18.1203 162.169 17.3345 164.2 15.5801L164.495 17.1783C164.246 17.434 164.032 17.7223 163.861 18.0354Z" fill="#C93112"/>
<path d="M168.191 18.99C167.414 18.0971 168.276 17.048 168.048 14.0525C167.932 12.5167 167.825 10.8382 166.977 9.69531C168.87 10.6417 168.477 14.0703 168.95 15.7042C169.41 17.4096 170.142 18.3382 168.191 18.99Z" fill="#CBBD9F"/>
<path d="M167.718 19.115C167.196 19.2412 166.664 19.3248 166.129 19.365C165.307 17.7221 167.102 17.4587 167.084 14.3739C167.084 12.5346 166.839 10.2623 165.45 9.07031C167.428 9.91406 167.464 12.3069 167.629 14.4275C167.825 16.9364 167.004 18.0703 167.718 19.115Z" fill="#CBBD9F"/>
<path d="M165.647 19.4023C165.334 19.4023 164.995 19.429 164.638 19.438C164.519 19.4421 164.401 19.4165 164.295 19.3635C164.189 19.3104 164.098 19.2317 164.031 19.1344C163.957 18.9972 163.918 18.8438 163.918 18.688C163.918 18.5322 163.957 18.3788 164.031 18.2415C164.176 17.9802 164.356 17.7399 164.566 17.5273C165.843 16.0674 166.106 15.1701 166.022 13.2415C165.955 13.1076 166.066 9.22369 162.727 9.22369C162.312 9.22369 162.414 8.85316 162.62 8.80405C165.861 8.49601 166.589 11.1032 166.638 14.3933C166.656 17.313 164.812 17.7282 165.647 19.4023Z" fill="#CBBD9F"/>
<path d="M169.7 8.35658C169.434 8.60428 169.194 8.87964 168.986 9.17801C168.159 8.45626 167.186 7.91959 166.135 7.60393C165.083 7.28827 163.976 7.20089 162.888 7.34766C162.926 7.03072 162.938 6.71119 162.924 6.3923C163.174 6.55158 163.472 6.61576 163.766 6.57315C164.059 6.53054 164.327 6.38398 164.522 6.16016C165.182 7.12444 165.674 7.05301 166.647 6.50837C167.191 7.49051 167.54 7.81194 168.638 7.33873C168.682 7.6001 168.809 7.8403 169 8.02366C169.192 8.20703 169.437 8.32378 169.7 8.35658Z" fill="#CBBD9F"/>
<path d="M175.415 35.0572C175.215 34.6907 174.92 34.385 174.561 34.1721C174.202 33.9591 173.792 33.847 173.374 33.8474C173.295 33.4145 173.256 32.975 173.258 32.5349C173.38 32.7577 173.52 32.9698 173.678 33.1688C173.761 33.2518 173.859 33.3176 173.968 33.3625C174.076 33.4074 174.192 33.4305 174.31 33.4305C174.427 33.4305 174.543 33.4074 174.652 33.3625C174.76 33.3176 174.858 33.2518 174.941 33.1688C175.024 33.0859 175.09 32.9874 175.135 32.879C175.18 32.7706 175.203 32.6544 175.203 32.5371C175.203 32.4198 175.18 32.3036 175.135 32.1952C175.09 32.0869 175.024 31.9884 174.941 31.9054C174.466 31.5686 173.964 31.27 173.441 31.0126C173.507 30.9387 173.544 30.8435 173.544 30.7447C173.654 30.7297 173.759 30.6892 173.85 30.6264C173.942 30.5636 174.017 30.4802 174.071 30.383C174.124 30.2858 174.154 30.1774 174.158 30.0666C174.162 29.9557 174.14 29.8455 174.093 29.7447C174.144 29.6523 174.17 29.5487 174.17 29.4434C174.17 29.3381 174.144 29.2345 174.093 29.142C174.144 29.0504 174.17 28.9475 174.17 28.8429C174.17 28.7383 174.144 28.6354 174.093 28.5438C174.334 28.0974 174.035 27.4724 173.08 27.4858C174.142 26.5929 173.888 24.6376 173.526 23.2849C173.202 22.0471 172.741 20.8493 172.151 19.7135C172.237 18.878 172.03 18.0388 171.566 17.3384C170.893 16.3267 170.012 15.4699 168.982 14.8251C168.803 13.5974 168.821 12.0795 168.281 10.8385C168.338 10.8256 168.388 10.7908 168.42 10.7415C168.451 10.6922 168.462 10.6324 168.45 10.5751C168.45 9.85185 169.026 9.15095 169.553 8.65988C169.715 8.49894 169.888 8.34976 170.071 8.21345L170.004 7.81167H169.87C169.156 8.04381 168.669 7.78488 168.562 6.94559L168.241 6.77595C168.072 6.86175 167.897 6.93632 167.718 6.99916C167.133 7.19559 166.968 6.99917 166.468 6.0572L166.16 5.96791C165.267 6.49023 165.013 6.5706 164.647 6.16881C164.51 6.00464 164.386 5.82999 164.276 5.64648H163.915C163.383 6.29381 162.834 6.27149 162.343 5.69113L161.955 5.86524C161.999 6.16082 162.023 6.45917 162.026 6.75809C162.026 7.24954 161.942 7.73734 161.776 8.20006C161.754 8.27288 161.752 8.35007 161.768 8.42429C161.784 8.4985 161.82 8.56731 161.87 8.62417C161.786 8.7592 161.753 8.9205 161.78 9.0776C161.806 9.2347 161.889 9.37672 162.013 9.47684C161.911 9.82799 161.894 10.1983 161.964 10.5572C162.019 10.7856 162.011 11.0247 161.941 11.2492C161.779 11.6802 161.553 12.0849 161.272 12.4501L161.392 12.7893L161.749 12.892C161.76 12.9755 161.75 13.0604 161.719 13.1386C161.687 13.2168 161.636 13.2856 161.571 13.3385C161.54 13.3551 161.513 13.3788 161.493 13.4077C161.473 13.4366 161.46 13.4697 161.456 13.5045C161.451 13.5394 161.454 13.5748 161.466 13.608C161.477 13.6412 161.497 13.6712 161.522 13.6956C161.643 13.775 161.778 13.8311 161.919 13.8608C161.883 13.8795 161.852 13.908 161.83 13.943C161.809 13.9781 161.798 14.0183 161.798 14.0594C161.798 14.1005 161.809 14.1408 161.83 14.1759C161.852 14.2109 161.883 14.2394 161.919 14.2581C161.936 14.2652 161.951 14.2759 161.964 14.2893C162.066 14.3965 161.964 14.8027 162.107 15.1286C162.249 15.4545 162.816 15.4947 163.232 15.4054C161.66 16.6509 159.312 17.5215 158.741 19.9054C158.447 19.4894 158.092 19.1206 157.687 18.8117C157.951 18.5986 158.176 18.3419 158.352 18.0527C158.403 17.9421 158.431 17.8222 158.434 17.7005C158.437 17.5787 158.415 17.4576 158.37 17.3446C158.324 17.2316 158.256 17.1291 158.169 17.0435C158.083 16.9579 157.979 16.8909 157.866 16.8466C157.752 16.8024 157.631 16.7818 157.509 16.7862C157.387 16.7907 157.268 16.8199 157.158 16.8723C157.048 16.9246 156.95 16.9989 156.87 17.0906C156.789 17.1823 156.729 17.2894 156.691 17.4054C156.691 16.8898 156.64 16.3754 156.54 15.8697C156.662 15.8782 156.784 15.8569 156.895 15.8074C157.007 15.758 157.105 15.682 157.181 15.5861C157.257 15.4902 157.308 15.3772 157.33 15.257C157.352 15.1368 157.344 15.0131 157.308 14.8965C157.43 14.8328 157.533 14.7367 157.605 14.6186C157.676 14.5005 157.714 14.365 157.714 14.2268C157.714 14.0887 157.676 13.9531 157.605 13.8351C157.533 13.717 157.43 13.6209 157.308 13.5572C157.178 13.2368 156.955 12.9625 156.668 12.7694C156.382 12.5762 156.044 12.4731 155.698 12.4731C155.352 12.4731 155.015 12.5762 154.728 12.7694C154.441 12.9625 154.219 13.2368 154.089 13.5572C153.965 13.6197 153.861 13.7154 153.788 13.8337C153.715 13.9519 153.677 14.088 153.677 14.2268C153.677 14.3657 153.715 14.5018 153.788 14.62C153.861 14.7383 153.965 14.834 154.089 14.8965C154.048 15.0279 154.045 15.1678 154.078 15.3011C154.111 15.4345 154.18 15.5562 154.278 15.6532C154.375 15.7501 154.497 15.8186 154.631 15.8513C154.764 15.8839 154.904 15.8795 155.035 15.8384C155.084 15.9327 155.153 16.0155 155.236 16.0812C155.319 16.1469 155.416 16.194 155.519 16.2194C155.622 16.2448 155.73 16.2478 155.834 16.2283C155.938 16.2088 156.037 16.1672 156.124 16.1063C156.206 16.548 156.244 16.9965 156.241 17.4456C156.121 17.2218 155.98 17.0095 155.821 16.8117C155.653 16.6441 155.426 16.55 155.189 16.55C154.952 16.55 154.725 16.6441 154.558 16.8117C154.39 16.9792 154.296 17.2064 154.296 17.4434C154.296 17.6803 154.39 17.9075 154.558 18.0751C155.034 18.4109 155.535 18.7094 156.058 18.9679C155.995 19.0435 155.959 19.1376 155.955 19.2358C155.845 19.2507 155.74 19.2912 155.649 19.3541C155.557 19.4169 155.482 19.5002 155.428 19.5975C155.375 19.6947 155.345 19.8031 155.341 19.9139C155.337 20.0248 155.359 20.135 155.406 20.2358C155.357 20.3288 155.332 20.4322 155.332 20.5371C155.332 20.642 155.357 20.7454 155.406 20.8384C155.356 20.9303 155.33 21.0331 155.33 21.1376C155.33 21.242 155.356 21.3448 155.406 21.4367C155.165 21.8831 155.473 22.5081 156.419 22.4947C155.236 23.4947 155.674 25.8251 156.124 27.3072C156.44 28.3217 156.845 29.3062 157.334 30.2492C157.247 31.0847 157.454 31.9245 157.919 32.6242C158.591 33.6354 159.471 34.4921 160.499 35.1376C160.678 36.3652 160.66 37.8831 161.2 39.1242C161.143 39.139 161.094 39.1749 161.063 39.2246C161.031 39.2743 161.02 39.3342 161.031 39.392C161.031 40.1063 160.455 40.8117 159.928 41.3027C159.767 41.465 159.594 41.6143 159.41 41.7492L159.477 42.151H159.611C160.325 41.9233 160.812 42.1777 160.924 43.017L161.241 43.1867C161.41 43.1009 161.584 43.0263 161.763 42.9635C162.339 42.7715 162.508 42.9635 163.013 43.9054L163.321 43.9947C163.642 43.7767 164.003 43.6249 164.383 43.5483C164.472 43.5563 164.557 43.5832 164.634 43.6271C164.711 43.671 164.778 43.7309 164.83 43.8027C164.968 43.9658 165.092 44.1406 165.2 44.3251H165.562C166.089 43.6822 166.638 43.6956 167.133 44.2849L167.526 44.1063C167.479 43.811 167.456 43.5125 167.455 43.2135C167.453 42.7218 167.538 42.2337 167.705 41.7715C167.726 41.6983 167.728 41.6209 167.711 41.5466C167.694 41.4724 167.658 41.4038 167.607 41.3474C167.692 41.2129 167.724 41.0519 167.699 40.8948C167.673 40.7378 167.591 40.5954 167.468 40.4947C167.709 39.5661 167.348 39.3072 167.535 38.709C167.698 38.2779 167.924 37.8733 168.205 37.5081L168.084 37.1688L167.727 37.0661C167.716 36.9827 167.727 36.8977 167.758 36.8196C167.789 36.7414 167.84 36.6726 167.906 36.6197C167.937 36.603 167.963 36.5793 167.983 36.5504C168.003 36.5216 168.016 36.4884 168.021 36.4536C168.026 36.4188 168.022 36.3834 168.011 36.3502C167.999 36.317 167.98 36.2869 167.955 36.2626C167.834 36.1831 167.699 36.1271 167.558 36.0974C167.594 36.0786 167.625 36.0502 167.646 36.0151C167.668 35.9801 167.679 35.9398 167.679 35.8987C167.679 35.8576 167.668 35.8174 167.646 35.7823C167.625 35.7472 167.594 35.7188 167.558 35.7001C167.542 35.6945 167.528 35.6853 167.517 35.6733C167.41 35.5617 167.517 35.1554 167.374 34.8295C167.232 34.5036 166.665 34.4634 166.245 34.5527C167.816 33.3072 170.165 32.4367 170.736 30.0527C171.029 30.4709 171.386 30.84 171.794 31.1465C171.577 31.3305 171.379 31.537 171.205 31.7626C171.132 31.8677 171.082 31.9874 171.059 32.1135C171.036 32.2396 171.04 32.3692 171.072 32.4934C171.103 32.6176 171.161 32.7336 171.242 32.8334C171.322 32.9332 171.423 33.0146 171.538 33.0719C171.653 33.1292 171.778 33.1612 171.906 33.1656C172.034 33.17 172.162 33.1469 172.28 33.0976C172.399 33.0483 172.505 32.9742 172.592 32.8802C172.679 32.7861 172.745 32.6745 172.785 32.5527C172.785 33.0671 172.837 33.5802 172.941 34.084C172.819 34.0755 172.696 34.097 172.584 34.1467C172.472 34.1963 172.373 34.2726 172.297 34.369C172.221 34.4653 172.17 34.5787 172.147 34.6994C172.125 34.8202 172.133 34.9445 172.169 35.0617C172.08 35.2722 172.034 35.4983 172.033 35.7269C172.033 35.9554 172.078 36.1818 172.165 36.3928C172.253 36.6039 172.382 36.7954 172.544 36.9562C172.706 37.117 172.899 37.2439 173.111 37.3295C173.322 37.4184 173.548 37.4645 173.776 37.4652C174.005 37.4658 174.231 37.421 174.442 37.3334C174.653 37.2457 174.845 37.1169 175.006 36.9546C175.166 36.7922 175.293 36.5994 175.379 36.3876C175.501 36.3264 175.604 36.2332 175.678 36.118C175.751 36.0027 175.792 35.8697 175.796 35.7331C175.799 35.5965 175.766 35.4615 175.699 35.3424C175.632 35.2234 175.533 35.1248 175.415 35.0572ZM173.803 34.1643C173.882 34.1665 173.957 34.1986 174.014 34.2541C174.07 34.3096 174.103 34.3844 174.107 34.4634C174.109 34.5059 174.123 34.5468 174.148 34.5814C174.172 34.616 174.206 34.6428 174.246 34.6588C174.285 34.6747 174.328 34.6791 174.37 34.6714C174.412 34.6636 174.451 34.6442 174.482 34.6152C174.539 34.5609 174.615 34.5306 174.694 34.5306C174.773 34.5306 174.848 34.5609 174.906 34.6152C174.965 34.6746 174.998 34.7548 174.998 34.8384C174.998 34.9221 174.965 35.0023 174.906 35.0617C174.885 35.0784 174.862 35.0933 174.839 35.1063C174.552 35.2465 174.253 35.3601 173.946 35.4456C173.845 35.069 173.695 34.7073 173.499 34.3697C173.522 34.3074 173.563 34.2537 173.618 34.2161C173.672 34.1784 173.737 34.1588 173.803 34.1599V34.1643ZM174.624 32.2268C174.671 32.2669 174.709 32.3161 174.736 32.3715C174.763 32.4269 174.778 32.4872 174.78 32.5487C174.783 32.6102 174.772 32.6715 174.75 32.7288C174.727 32.7861 174.693 32.8381 174.65 32.8816C174.606 32.9251 174.554 32.9591 174.497 32.9816C174.44 33.004 174.378 33.0144 174.317 33.012C174.255 33.0096 174.195 32.9946 174.14 32.9678C174.084 32.941 174.035 32.903 173.995 32.8563C173.671 32.3666 173.373 31.8599 173.102 31.3384C173.626 31.6042 174.134 31.8993 174.624 32.2224V32.2268ZM173.049 23.1822C170.459 24.0036 167.352 24.7715 164.647 24.7715C162.861 24.7715 160.678 24.4188 159.598 22.9858C159.465 22.8099 159.356 22.6179 159.272 22.4143C160.159 22.2117 161.015 21.8951 161.821 21.4724C164.656 24.0617 170.866 22.9902 171.991 20.3876C172.426 21.2855 172.78 22.2208 173.049 23.1822ZM171.2 17.6018C171.621 18.234 171.801 18.9956 171.709 19.7492C171.415 22.2581 165.133 23.7134 162.232 21.2447C162.891 20.8479 163.501 20.3744 164.049 19.834C164.167 19.8642 164.288 19.8792 164.41 19.8786C165.794 19.8786 168.348 19.7402 169.321 18.7358C170.174 17.8429 169.415 16.5929 169.129 15.4501C169.948 16.0346 170.653 16.7638 171.209 17.6018H171.2ZM165.281 16.2626C165.664 15.5388 165.857 14.7289 165.839 13.9099C165.839 11.3474 165.049 9.22684 162.513 9.22684C162.458 9.23712 162.402 9.23712 162.348 9.22684C162.311 9.21365 162.28 9.18926 162.258 9.15717C162.237 9.12508 162.226 9.08696 162.227 9.04827C162.226 8.99267 162.245 8.93851 162.281 8.8964C162.318 8.85428 162.368 8.82725 162.424 8.82059C162.591 8.79637 162.759 8.78147 162.928 8.77595C163.374 8.74888 163.82 8.82688 164.23 9.00367C164.64 9.18046 165.003 9.45111 165.29 9.79381C166.223 10.9501 166.392 12.9188 166.401 14.4143C166.411 14.9304 166.35 15.4455 166.223 15.9456C165.776 17.5349 164.745 18.0974 165.419 19.4411C165.062 19.4411 164.638 19.4724 164.397 19.4724C164.303 19.4781 164.21 19.4641 164.122 19.4313C164.035 19.3985 163.955 19.3475 163.888 19.2818C163.822 19.2161 163.77 19.1371 163.736 19.0499C163.702 18.9627 163.687 18.8694 163.691 18.776C163.7 17.8876 164.624 17.4813 165.29 16.2447L165.281 16.2626ZM164.12 15.1376C164.606 14.9303 165.037 14.6123 165.379 14.209C165.345 15.1359 165.006 16.0258 164.415 16.7402L164.12 15.1376ZM167.491 19.1286C166.966 19.2489 166.433 19.3295 165.897 19.3697C165.747 19.1287 165.659 18.854 165.642 18.5706C165.642 17.642 166.857 16.9099 166.843 14.3742C166.843 12.5572 166.593 10.2045 165.2 9.03934C166.58 9.61077 167.022 10.9545 167.218 12.4277C167.303 13.0438 167.419 14.5126 167.419 15.1688C167.433 17.1643 166.852 18.1911 167.504 19.1286H167.491ZM168.504 14.5706C168.594 15.3358 168.783 16.0861 169.066 16.8027C169.236 17.2107 169.277 17.6611 169.183 18.0929C169.004 18.5706 168.437 18.8295 167.95 18.9858C167.276 18.209 167.866 17.267 167.866 15.1599C167.866 14.4992 167.754 13.1286 167.691 12.584C167.628 11.5458 167.298 10.5415 166.732 9.66881C168.339 10.6465 168.299 12.7581 168.517 14.5706H168.504ZM162.464 6.38756C162.712 6.5488 163.011 6.61499 163.304 6.57399C163.598 6.533 163.867 6.38756 164.062 6.16434C164.709 7.1197 165.209 7.0572 166.191 6.5081C166.732 7.4947 167.12 7.80273 168.178 7.33398C168.222 7.59612 168.349 7.83719 168.541 8.02194C168.732 8.20669 168.977 8.32542 169.241 8.36077C168.975 8.60202 168.738 8.87316 168.535 9.16881C167.709 8.44698 166.739 7.90988 165.689 7.59344C164.639 7.27701 163.533 7.18855 162.446 7.33398C162.483 7.01996 162.494 6.70335 162.477 6.38756H162.464ZM162.366 7.79827C163.422 7.6356 164.501 7.70854 165.526 8.01185C166.551 8.31516 167.496 8.84135 168.294 9.55273C168.197 9.74001 168.123 9.93773 168.071 10.142C167.775 9.86397 167.456 9.61296 167.116 9.39202C166.44 8.97214 165.701 8.66318 164.928 8.47685H164.866C163.998 8.27988 163.102 8.24657 162.223 8.37863C162.334 7.99917 162.334 7.91434 162.379 7.79827H162.366ZM162.812 15.0438C162.721 15.0498 162.631 15.028 162.553 14.9813C162.513 14.9188 162.493 14.8457 162.495 14.7715C162.495 14.5215 162.535 14.151 162.232 13.9367H162.392C162.422 13.9361 162.451 13.9297 162.477 13.918C162.504 13.9062 162.529 13.8893 162.549 13.8681C162.569 13.847 162.585 13.8221 162.596 13.7948C162.606 13.7674 162.612 13.7383 162.611 13.709C162.61 13.6797 162.604 13.6508 162.592 13.6239C162.581 13.597 162.564 13.5728 162.543 13.5524C162.521 13.5321 162.496 13.5162 162.469 13.5055C162.442 13.4948 162.413 13.4896 162.383 13.4902C162.281 13.4947 162.179 13.4841 162.08 13.459C162.151 13.3333 162.193 13.1927 162.2 13.0483C162.257 13.062 162.316 13.0534 162.366 13.0243C162.416 12.9951 162.453 12.9477 162.468 12.892C162.477 12.8639 162.48 12.8343 162.477 12.8049C162.474 12.7756 162.466 12.7471 162.451 12.7213C162.437 12.6954 162.418 12.6727 162.395 12.6545C162.372 12.6363 162.345 12.6229 162.316 12.6152L161.821 12.4724C162.173 12.0257 162.393 11.4889 162.455 10.9233C162.454 10.805 162.444 10.6871 162.424 10.5706C162.798 10.6251 163.168 10.7057 163.531 10.8117C163.556 10.8299 163.586 10.8424 163.616 10.8486C163.647 10.8547 163.679 10.8542 163.71 10.8472C163.74 10.8402 163.769 10.8268 163.794 10.8079C163.819 10.789 163.84 10.765 163.855 10.7374C163.871 10.7099 163.88 10.6795 163.882 10.6482C163.885 10.6169 163.881 10.5853 163.871 10.5557C163.86 10.526 163.844 10.4989 163.822 10.4761C163.8 10.4533 163.774 10.4353 163.745 10.4233C163.334 10.1956 162.763 10.2492 162.499 10.1242C162.464 10.1107 162.434 10.0859 162.414 10.0537C162.393 10.0214 162.384 9.98346 162.388 9.94559C162.399 9.84445 162.418 9.74441 162.446 9.64649H162.473C164.531 9.64649 165.241 11.1599 165.37 13.2179L165.124 13.7804C164.879 14.3697 163.526 15.0438 162.821 15.0438H162.812ZM163.763 15.6242L164.053 17.2045C163.804 17.4583 163.59 17.7452 163.419 18.0572C163.272 18.307 163.214 18.5993 163.255 18.8864C163.295 19.1734 163.432 19.4382 163.642 19.6376C162.401 20.8238 160.856 21.6442 159.178 22.0081C158.558 18.084 161.781 17.3072 163.763 15.6242ZM157.151 17.5929C157.174 17.5387 157.206 17.4894 157.248 17.4478C157.289 17.4062 157.338 17.3732 157.392 17.3506C157.446 17.328 157.504 17.3163 157.563 17.3161C157.622 17.316 157.68 17.3273 157.734 17.3496C157.788 17.3719 157.837 17.4046 157.879 17.446C157.921 17.4873 157.954 17.5364 157.976 17.5905C157.999 17.6446 158.01 17.7026 158.011 17.7613C158.011 17.8199 157.999 17.878 157.977 17.9322C157.737 18.2449 157.458 18.5255 157.147 18.767C157.097 18.3697 157.099 17.9676 157.151 17.5706V17.5929ZM155.741 12.7179C155.819 12.719 155.894 12.7501 155.951 12.8049C156.007 12.8597 156.041 12.934 156.044 13.0126C156.047 13.0545 156.062 13.0948 156.087 13.129C156.111 13.1631 156.145 13.1897 156.184 13.2059C156.222 13.2221 156.265 13.2272 156.307 13.2207C156.348 13.2141 156.387 13.1962 156.419 13.1688C156.448 13.138 156.482 13.1134 156.52 13.0965C156.559 13.0797 156.6 13.071 156.642 13.071C156.684 13.071 156.726 13.0797 156.764 13.0965C156.803 13.1134 156.837 13.138 156.866 13.1688C156.924 13.2282 156.957 13.3084 156.957 13.392C156.957 13.4756 156.924 13.5559 156.866 13.6152L156.799 13.6599C156.511 13.7982 156.212 13.9117 155.906 13.9992C155.804 13.6215 155.654 13.2584 155.459 12.9188C155.478 12.8572 155.514 12.8027 155.565 12.7628C155.615 12.7228 155.676 12.6994 155.741 12.6956V12.7179ZM154.178 14.2804C154.178 14.201 154.209 14.1246 154.263 14.0672C154.318 14.0098 154.393 13.9758 154.473 13.9724C154.514 13.9695 154.554 13.955 154.588 13.9306C154.622 13.9062 154.648 13.8729 154.664 13.8343C154.68 13.7958 154.684 13.7535 154.677 13.7125C154.67 13.6714 154.652 13.6331 154.624 13.6018C154.571 13.5421 154.543 13.464 154.547 13.3841C154.55 13.3041 154.584 13.2286 154.642 13.1735C154.7 13.1184 154.777 13.088 154.857 13.0888C154.937 13.0896 155.014 13.1215 155.071 13.1777C155.089 13.1975 155.104 13.2201 155.116 13.2447C155.256 13.5312 155.37 13.8301 155.455 14.1376C155.079 14.2417 154.718 14.3916 154.379 14.584C154.314 14.5603 154.258 14.5152 154.222 14.456C154.185 14.3969 154.17 14.3271 154.178 14.2581V14.2804ZM155.741 15.8429C155.661 15.843 155.585 15.8124 155.527 15.7575C155.47 15.7026 155.436 15.6276 155.433 15.5483C155.43 15.5063 155.417 15.4658 155.392 15.4314C155.368 15.397 155.335 15.3701 155.296 15.3538C155.258 15.3375 155.215 15.3324 155.174 15.3392C155.132 15.3459 155.093 15.3642 155.062 15.392C155.003 15.4512 154.922 15.4845 154.839 15.4845C154.755 15.4845 154.675 15.4512 154.616 15.392C154.556 15.3328 154.523 15.2525 154.523 15.1688C154.523 15.0851 154.556 15.0048 154.616 14.9456L154.683 14.8965C154.97 14.759 155.269 14.6456 155.575 14.5572C155.677 14.9349 155.827 15.298 156.022 15.6376C155.998 15.692 155.958 15.7383 155.908 15.7707C155.858 15.8032 155.8 15.8205 155.741 15.8206V15.8429ZM156.017 14.4322C156.394 14.332 156.756 14.1818 157.093 13.9858C157.154 14.0071 157.208 14.0469 157.245 14.0996C157.283 14.1524 157.303 14.2156 157.303 14.2804C157.303 14.3606 157.272 14.4376 157.216 14.4951C157.16 14.5526 157.084 14.5861 157.004 14.5884C156.962 14.5913 156.922 14.6058 156.889 14.6302C156.855 14.6546 156.829 14.688 156.813 14.7265C156.797 14.7651 156.792 14.8073 156.799 14.8484C156.806 14.8895 156.825 14.9278 156.852 14.959C156.905 15.0187 156.933 15.0968 156.93 15.1767C156.927 15.2567 156.892 15.3322 156.834 15.3873C156.776 15.4424 156.699 15.4728 156.619 15.472C156.539 15.4712 156.463 15.4393 156.406 15.3831C156.389 15.3621 156.374 15.3397 156.361 15.3161C156.22 15.0246 156.105 14.7214 156.017 14.4099V14.4322ZM154.915 17.7849C154.842 17.6995 154.803 17.5896 154.808 17.4773C154.812 17.3649 154.859 17.2583 154.938 17.1788C155.018 17.0993 155.124 17.0527 155.237 17.0484C155.349 17.0441 155.459 17.0823 155.544 17.1554C155.87 17.6457 156.168 18.154 156.437 18.6777C155.914 18.4001 155.405 18.0946 154.915 17.7626V17.7849ZM156.428 22.0795C156.2 22.0795 155.83 22.0215 155.816 21.7893C156.131 21.9025 156.472 21.9226 156.799 21.8474C156.828 21.8426 156.855 21.832 156.88 21.8162C156.905 21.8005 156.926 21.7799 156.943 21.7558C156.959 21.7316 156.971 21.7044 156.977 21.6756C156.983 21.6469 156.983 21.6172 156.977 21.5885C156.966 21.5305 156.933 21.4793 156.884 21.4458C156.836 21.4124 156.776 21.3994 156.718 21.4099C156.601 21.4333 156.481 21.4453 156.361 21.4456C156.156 21.4456 155.839 21.392 155.821 21.1911C156.142 21.3073 156.49 21.326 156.821 21.2447C156.88 21.234 156.933 21.2003 156.967 21.1509C157.001 21.1015 157.015 21.0405 157.004 20.9813C156.993 20.9221 156.96 20.8696 156.91 20.8352C156.861 20.8009 156.8 20.7876 156.741 20.7983C156.615 20.8216 156.488 20.8336 156.361 20.834C156.156 20.834 155.839 20.7804 155.821 20.584C156.14 20.6951 156.483 20.7137 156.812 20.6376C156.87 20.6267 156.921 20.5934 156.955 20.5449C156.988 20.4964 157.001 20.4366 156.991 20.3786C156.986 20.3497 156.975 20.322 156.959 20.2972C156.944 20.2725 156.923 20.2511 156.899 20.2344C156.875 20.2178 156.848 20.2061 156.819 20.2002C156.79 20.1943 156.76 20.1943 156.732 20.2001C155.624 20.401 155.629 19.7224 156.182 19.6822C156.427 19.888 156.734 20.0045 157.053 20.0126L157.245 20.6242C157.263 20.6804 157.303 20.727 157.356 20.7538C157.409 20.7806 157.47 20.7853 157.526 20.767C157.554 20.7584 157.581 20.7443 157.603 20.7253C157.626 20.7064 157.644 20.6831 157.658 20.6568C157.671 20.6306 157.679 20.6019 157.681 20.5725C157.683 20.5431 157.679 20.5136 157.669 20.4858L157.433 19.7313L157.218 19.5751C157.001 19.582 156.786 19.5328 156.593 19.4322C156.543 19.4056 156.499 19.3691 156.464 19.3251C156.464 19.3251 156.437 19.2849 156.441 19.2759C156.446 19.267 156.79 19.1956 156.888 19.1956C157.119 19.197 157.349 19.2224 157.575 19.2715C157.989 19.6591 158.363 20.0868 158.691 20.5483C158.642 21.0514 158.66 21.5588 158.745 22.0572C158.249 22.0572 158.214 22.0795 157.772 22.084L156.428 22.0795ZM157.767 22.526C158.214 22.526 158.254 22.5036 158.839 22.4947C158.874 22.5984 158.916 22.6998 158.964 22.7983C159.571 24.0081 160.901 24.6777 162.241 24.9813C160.253 25.2843 158.294 25.7517 156.383 26.3786C155.959 24.6018 155.933 22.5349 157.758 22.517L157.767 22.526ZM156.491 26.8161C159.08 25.9902 162.187 25.2224 164.892 25.2224C166.678 25.2224 168.866 25.5751 169.941 27.0081C170.074 27.1839 170.183 27.376 170.267 27.5795C169.381 27.7821 168.524 28.0988 167.718 28.5215C164.883 25.9322 158.678 27.0036 157.549 29.6063C157.112 28.706 156.755 27.7694 156.482 26.8072L156.491 26.8161ZM158.339 32.3965C157.921 31.7631 157.741 31.0025 157.83 30.2492C158.124 27.7268 164.415 26.2893 167.308 28.7492C166.648 29.1459 166.038 29.6195 165.491 30.1599C165.372 30.1297 165.251 30.1147 165.129 30.1152C163.745 30.1152 161.191 30.2536 160.218 31.2581C159.361 32.151 160.12 33.3965 160.41 34.5438C159.587 33.9585 158.877 33.2277 158.316 32.3876L158.339 32.3965ZM164.258 33.7358C163.875 34.4595 163.683 35.2694 163.7 36.0884C163.7 41.2849 166.924 40.6867 167.196 40.7938C167.231 40.8077 167.262 40.8325 167.283 40.8645C167.303 40.8965 167.314 40.9342 167.312 40.9724C167.315 41.0282 167.296 41.083 167.259 41.1253C167.223 41.1677 167.171 41.1944 167.116 41.2001C166.948 41.2243 166.78 41.2392 166.611 41.2447C166.165 41.2711 165.72 41.1927 165.309 41.016C164.899 40.8393 164.536 40.569 164.249 40.2268C163.316 39.0706 163.151 37.1018 163.138 35.6063C163.138 32.6554 164.964 32.267 164.124 30.5795C164.477 30.5795 164.906 30.5483 165.142 30.5483C165.709 30.5483 166.035 31.0617 165.727 31.7581C165.499 32.2447 164.767 32.7804 164.249 33.7402L164.258 33.7358ZM165.415 34.8429C164.929 35.0513 164.498 35.3691 164.156 35.7715C164.192 34.8442 164.532 33.9546 165.124 33.2402L165.415 34.8429ZM162.049 30.8518C162.573 30.7309 163.106 30.6504 163.642 30.6108C163.789 30.8531 163.875 31.1272 163.892 31.4099C163.892 32.3027 162.665 33.1197 162.691 35.6108C162.691 37.4277 162.946 39.776 164.334 40.9411C162.955 40.3697 162.513 39.0259 162.316 37.5527C162.232 36.9322 162.116 35.4634 162.116 34.8117C162.107 32.8206 162.687 31.7938 162.04 30.8563L162.049 30.8518ZM161.035 35.4099C160.942 34.6448 160.751 33.8948 160.468 33.1777C160.296 32.7702 160.256 32.3192 160.352 31.8876C160.531 31.4099 161.102 31.1509 161.584 30.9947C162.263 31.7715 161.669 32.7135 161.669 34.8206C161.669 35.4768 161.781 36.8474 161.848 37.3965C161.911 38.434 162.24 39.4377 162.803 40.3117C161.2 39.3385 161.241 37.2268 161.026 35.4143L161.035 35.4099ZM167.075 43.5929C166.826 43.4314 166.527 43.365 166.232 43.406C165.938 43.447 165.668 43.5926 165.473 43.8161C164.83 42.8697 164.334 42.9233 163.348 43.4768C162.803 42.4902 162.419 42.1777 161.357 42.6465C161.313 42.3847 161.187 42.1438 160.997 41.959C160.806 41.7742 160.562 41.6553 160.299 41.6197C160.562 41.3759 160.798 41.1051 161.004 40.8117C161.829 41.5334 162.799 42.0705 163.848 42.3869C164.897 42.7033 166.002 42.7918 167.089 42.6465C167.052 42.9621 167.045 43.2804 167.066 43.5974L167.075 43.5929ZM167.169 42.1822C166.113 42.3449 165.033 42.2719 164.008 41.9686C162.983 41.6653 162.038 41.1391 161.241 40.4277C161.339 40.2406 161.415 40.0429 161.468 39.8385C161.762 40.1168 162.08 40.3679 162.419 40.5885C163.094 41.0091 163.833 41.3181 164.607 41.5036H164.669C165.537 41.6979 166.432 41.7312 167.312 41.6018C167.187 42.0751 167.187 42.0751 167.16 42.1867L167.169 42.1822ZM166.723 34.9367C166.815 34.9319 166.906 34.9536 166.986 34.9992C167.024 35.0626 167.044 35.1351 167.044 35.209C167.044 35.4634 167.004 35.8295 167.303 36.0438H167.142C167.083 36.0438 167.026 36.0673 166.984 36.1092C166.943 36.151 166.919 36.2078 166.919 36.267C166.919 36.3262 166.943 36.383 166.984 36.4249C167.026 36.4667 167.083 36.4902 167.142 36.4902C167.243 36.4874 167.344 36.4979 167.441 36.5215C167.372 36.648 167.331 36.7882 167.321 36.9322C167.262 36.9168 167.199 36.9256 167.146 36.9565C167.093 36.9875 167.055 37.0382 167.04 37.0974C167.024 37.1566 167.033 37.2195 167.064 37.2722C167.095 37.325 167.146 37.3632 167.205 37.3786L167.7 37.5215C167.348 37.9681 167.128 38.505 167.066 39.0706C167.069 39.1887 167.08 39.3065 167.098 39.4233C166.723 39.3687 166.354 39.2882 165.991 39.1822C165.939 39.1533 165.878 39.146 165.821 39.1619C165.764 39.1778 165.716 39.2156 165.687 39.267C165.673 39.2928 165.664 39.3211 165.661 39.3503C165.658 39.3796 165.66 39.4092 165.669 39.4374C165.677 39.4656 165.691 39.4919 165.709 39.5147C165.728 39.5376 165.75 39.5566 165.776 39.5706C166.187 39.7983 166.758 39.7447 167.022 39.8697C167.057 39.8832 167.087 39.908 167.108 39.9402C167.128 39.9725 167.137 40.0104 167.133 40.0483C167.122 40.1491 167.104 40.249 167.08 40.3474H167.053C164.999 40.3474 164.281 38.8474 164.151 36.776L164.397 36.2179C164.66 35.6152 166.013 34.9411 166.718 34.9411L166.723 34.9367ZM165.776 34.3742L165.486 32.7938C165.737 32.5401 165.952 32.2532 166.124 31.9411C166.271 31.6907 166.329 31.3983 166.289 31.1109C166.25 30.8235 166.114 30.5578 165.906 30.3563C167.147 29.1694 168.692 28.3476 170.37 27.9813C170.982 31.9009 167.763 32.6777 165.776 34.3742ZM170.687 27.4902C170.652 27.3877 170.611 27.2878 170.562 27.1911C169.955 25.9768 168.624 25.3072 167.285 25.0036C169.274 24.7002 171.235 24.2328 173.147 23.6063C173.557 25.392 173.593 27.4411 171.758 27.459C171.312 27.4724 171.299 27.4902 170.709 27.4992L170.687 27.4902ZM172.366 32.401C172.332 32.4825 172.275 32.5523 172.202 32.6015C172.129 32.6508 172.043 32.6773 171.955 32.6777C171.881 32.6781 171.809 32.6603 171.744 32.626C171.679 32.5916 171.623 32.5417 171.582 32.4808C171.541 32.4199 171.516 32.3497 171.508 32.2766C171.501 32.2035 171.512 32.1297 171.54 32.0617C171.781 31.75 172.06 31.4695 172.37 31.2268C172.426 31.6203 172.432 32.0194 172.388 32.4143L172.366 32.401ZM172.915 30.7715C172.594 30.8018 172.27 30.7822 171.955 30.7135C171.541 30.3273 171.169 29.8994 170.843 29.4367C170.889 28.9348 170.869 28.4291 170.785 27.9322C171.276 27.9322 171.334 27.9054 171.758 27.901H173.098C173.276 27.8894 173.453 27.9314 173.607 28.0215C173.636 28.0394 173.661 28.0642 173.679 28.0937C173.697 28.1233 173.707 28.1567 173.709 28.1911C173.394 28.078 173.053 28.0579 172.727 28.1331C172.698 28.1379 172.671 28.1485 172.646 28.1642C172.621 28.18 172.6 28.2005 172.583 28.2247C172.566 28.2488 172.555 28.2761 172.549 28.3049C172.543 28.3336 172.543 28.3633 172.549 28.392C172.559 28.4499 172.593 28.5012 172.641 28.5347C172.69 28.5681 172.75 28.581 172.808 28.5706C173.077 28.4974 173.364 28.5244 173.616 28.6465C173.641 28.6611 173.663 28.6818 173.678 28.7067C173.694 28.7316 173.703 28.76 173.705 28.7893C173.383 28.6765 173.036 28.6579 172.705 28.7358C172.647 28.7466 172.596 28.7799 172.562 28.8284C172.529 28.8769 172.516 28.9367 172.526 28.9947C172.538 29.053 172.572 29.1043 172.622 29.1376C172.671 29.171 172.731 29.1838 172.79 29.1733C173.065 29.0991 173.357 29.1244 173.616 29.2447C173.64 29.2602 173.661 29.2811 173.677 29.3058C173.692 29.3306 173.702 29.3585 173.705 29.3876C173.386 29.2764 173.043 29.2578 172.714 29.334C172.655 29.3446 172.602 29.3784 172.568 29.4278C172.533 29.4772 172.52 29.5382 172.531 29.5974C172.541 29.6566 172.575 29.7091 172.625 29.7435C172.674 29.7778 172.735 29.7911 172.794 29.7804C173.915 29.5706 173.888 30.2536 173.343 30.2938C173.093 30.0832 172.777 29.9664 172.45 29.9634L172.258 29.3563C172.252 29.3261 172.239 29.2976 172.22 29.2727C172.202 29.2478 172.179 29.2269 172.152 29.2114C172.125 29.196 172.095 29.1863 172.065 29.1829C172.034 29.1796 172.003 29.1827 171.973 29.192C171.944 29.2013 171.917 29.2167 171.893 29.2371C171.87 29.2575 171.851 29.2825 171.838 29.3105C171.825 29.3386 171.818 29.369 171.817 29.4C171.817 29.4309 171.822 29.4616 171.834 29.4902L172.075 30.2447L172.285 30.401C172.502 30.394 172.718 30.4432 172.91 30.5438C172.961 30.5691 173.005 30.6058 173.04 30.651C173.051 30.6659 173.06 30.6824 173.066 30.7001C173.03 30.742 172.986 30.7769 172.937 30.8027L172.915 30.7715ZM172.241 35.7135C172.241 35.6345 172.271 35.5586 172.326 35.5019C172.381 35.4452 172.456 35.4122 172.535 35.4099C172.577 35.407 172.617 35.3925 172.65 35.3681C172.684 35.3437 172.711 35.3104 172.726 35.2718C172.742 35.2333 172.747 35.191 172.74 35.15C172.733 35.1089 172.715 35.0706 172.687 35.0393C172.657 35.0103 172.634 34.9755 172.618 34.9372C172.601 34.8989 172.593 34.8577 172.593 34.8161C172.593 34.7746 172.601 34.7334 172.618 34.6951C172.634 34.6567 172.657 34.622 172.687 34.5929C172.746 34.534 172.827 34.501 172.91 34.501C172.994 34.501 173.074 34.534 173.133 34.5929C173.152 34.6126 173.167 34.6353 173.178 34.6599C173.318 34.9465 173.432 35.2453 173.517 35.5527C173.141 35.6548 172.779 35.8049 172.441 35.9992C172.383 35.978 172.332 35.9392 172.296 35.8881C172.26 35.837 172.241 35.776 172.241 35.7135ZM173.803 37.276C173.724 37.276 173.647 37.2454 173.59 37.1905C173.532 37.1356 173.498 37.0607 173.495 36.9813C173.492 36.9397 173.478 36.8998 173.453 36.866C173.429 36.8323 173.396 36.806 173.357 36.7902C173.318 36.7744 173.276 36.7697 173.235 36.7767C173.194 36.7836 173.156 36.8019 173.124 36.8295C173.095 36.8592 173.061 36.8828 173.022 36.8989C172.984 36.915 172.943 36.9233 172.901 36.9233C172.86 36.9233 172.819 36.915 172.78 36.8989C172.742 36.8828 172.707 36.8592 172.678 36.8295C172.619 36.7702 172.586 36.6899 172.586 36.6063C172.586 36.5227 172.619 36.4425 172.678 36.3831L172.745 36.3384C173.032 36.1982 173.33 36.0847 173.638 35.9992C173.74 36.3754 173.89 36.737 174.084 37.0751C174.065 37.1348 174.027 37.1871 173.977 37.2247C173.927 37.2623 173.866 37.2833 173.803 37.2849V37.276ZM175.066 36.0215C175.025 36.0244 174.985 36.0388 174.951 36.0632C174.917 36.0876 174.891 36.121 174.875 36.1596C174.86 36.1981 174.855 36.2403 174.862 36.2814C174.869 36.3225 174.887 36.3608 174.915 36.392C174.944 36.4211 174.968 36.4558 174.984 36.4942C175 36.5325 175.008 36.5737 175.008 36.6152C175.008 36.6568 175 36.698 174.984 36.7363C174.968 36.7746 174.944 36.8094 174.915 36.8385C174.855 36.8973 174.775 36.9304 174.691 36.9304C174.608 36.9304 174.528 36.8973 174.468 36.8385C174.451 36.8174 174.437 36.795 174.424 36.7715C174.285 36.4841 174.172 36.1854 174.084 35.8786C174.461 35.7765 174.822 35.6265 175.16 35.4322C175.228 35.456 175.285 35.5026 175.322 35.5639C175.358 35.6252 175.373 35.6974 175.362 35.7681C175.352 35.8389 175.317 35.9038 175.264 35.9516C175.211 35.9995 175.142 36.0273 175.071 36.0304L175.066 36.0215ZM163.392 11.1599V11.5081C163.393 11.5372 163.388 11.5661 163.377 11.5932C163.366 11.6202 163.35 11.6449 163.33 11.6657C163.309 11.6865 163.285 11.703 163.258 11.7142C163.231 11.7255 163.203 11.7313 163.174 11.7313C163.114 11.7313 163.057 11.7079 163.014 11.6662C162.972 11.6245 162.947 11.5677 162.946 11.5081V11.1599C162.946 11.1007 162.969 11.0439 163.011 11.002C163.053 10.9602 163.11 10.9367 163.169 10.9367C163.228 10.9367 163.285 10.9602 163.327 11.002C163.369 11.0439 163.392 11.1007 163.392 11.1599ZM161.517 22.6331C161.517 22.6923 161.494 22.7491 161.452 22.7909C161.41 22.8328 161.353 22.8563 161.294 22.8563C161.235 22.8563 161.178 22.8328 161.136 22.7909C161.094 22.7491 161.071 22.6923 161.071 22.6331C161.071 22.5739 161.094 22.5171 161.136 22.4753C161.178 22.4334 161.235 22.4099 161.294 22.4099C161.354 22.411 161.41 22.4355 161.452 22.4781C161.494 22.5207 161.517 22.5779 161.517 22.6376V22.6331ZM170.816 22.7358C170.837 22.7904 170.837 22.851 170.814 22.905C170.792 22.959 170.749 23.0023 170.696 23.026C170.641 23.0472 170.579 23.0465 170.525 23.0241C170.47 23.0017 170.426 22.9593 170.401 22.9054C170.379 22.8504 170.379 22.7886 170.402 22.7338C170.425 22.6789 170.469 22.6355 170.524 22.613C170.579 22.5905 170.641 22.5908 170.696 22.6138C170.75 22.6369 170.794 22.6807 170.816 22.7358ZM169.517 23.2135C169.526 23.2416 169.528 23.2711 169.525 23.3002C169.522 23.3294 169.513 23.3576 169.499 23.3833C169.485 23.409 169.466 23.4317 169.443 23.45C169.42 23.4684 169.394 23.482 169.366 23.4902C169.306 23.5068 169.243 23.4992 169.189 23.4691C169.136 23.4389 169.096 23.3887 169.08 23.3295C169.063 23.2703 169.071 23.207 169.101 23.1534C169.131 23.0998 169.181 23.0604 169.241 23.0438C169.27 23.0365 169.3 23.0351 169.33 23.0397C169.36 23.0443 169.389 23.0548 169.414 23.0706C169.44 23.0864 169.463 23.1072 169.48 23.1317C169.498 23.1562 169.511 23.184 169.517 23.2135ZM166.799 23.7938C166.801 23.8231 166.797 23.8526 166.788 23.8806C166.779 23.9086 166.765 23.9345 166.746 23.9569C166.707 24.0021 166.652 24.0301 166.593 24.0349C166.534 24.0396 166.475 24.0206 166.43 23.9821C166.385 23.9436 166.357 23.8887 166.352 23.8295C166.347 23.7703 166.366 23.7117 166.405 23.6665C166.443 23.6212 166.498 23.5932 166.558 23.5884C166.617 23.5837 166.675 23.6027 166.721 23.6412C166.766 23.6797 166.794 23.7346 166.799 23.7938ZM168.165 23.5661C168.171 23.5949 168.172 23.6247 168.166 23.6537C168.161 23.6827 168.15 23.7104 168.134 23.735C168.117 23.7596 168.096 23.7806 168.072 23.7969C168.047 23.8131 168.02 23.8242 167.991 23.8295C167.933 23.8402 167.873 23.828 167.824 23.7955C167.775 23.7631 167.74 23.7129 167.727 23.6554C167.721 23.6264 167.721 23.5965 167.727 23.5674C167.733 23.5384 167.745 23.5108 167.761 23.4863C167.778 23.4618 167.799 23.4408 167.824 23.4246C167.849 23.4085 167.877 23.3974 167.906 23.392C167.935 23.3848 167.965 23.3837 167.995 23.3887C168.024 23.3937 168.052 23.4047 168.077 23.421C168.103 23.4373 168.124 23.4586 168.141 23.4836C168.157 23.5085 168.168 23.5366 168.174 23.5661H168.165ZM165.415 23.8474C165.414 23.8767 165.407 23.9055 165.394 23.9321C165.382 23.9588 165.365 23.9828 165.343 24.0027C165.321 24.0226 165.296 24.038 165.269 24.0481C165.241 24.0583 165.212 24.0629 165.183 24.0617C165.123 24.0617 165.067 24.0381 165.025 23.9963C164.983 23.9544 164.959 23.8976 164.959 23.8384C164.959 23.7792 164.983 23.7225 165.025 23.6806C165.067 23.6388 165.123 23.6152 165.183 23.6152C165.214 23.6127 165.246 23.6169 165.276 23.6275C165.305 23.6381 165.333 23.655 165.355 23.6769C165.378 23.6989 165.396 23.7254 165.408 23.7548C165.42 23.7842 165.425 23.8158 165.424 23.8474H165.415ZM162.691 23.4009C162.67 23.456 162.627 23.5001 162.572 23.5236C162.518 23.547 162.456 23.5479 162.401 23.5259C162.346 23.504 162.302 23.4612 162.279 23.4067C162.255 23.3523 162.254 23.2908 162.276 23.2358C162.287 23.2085 162.303 23.1837 162.324 23.1626C162.344 23.1416 162.369 23.1248 162.395 23.1132C162.422 23.1016 162.451 23.0954 162.481 23.095C162.51 23.0946 162.539 23.0999 162.566 23.1108C162.594 23.1216 162.619 23.1377 162.64 23.1582C162.661 23.1786 162.677 23.203 162.689 23.23C162.701 23.2569 162.707 23.2859 162.707 23.3152C162.708 23.3446 162.702 23.3737 162.691 23.4009ZM164.031 23.7358C164.025 23.7651 164.014 23.7931 163.998 23.8181C163.982 23.8432 163.961 23.8648 163.937 23.8818C163.912 23.8988 163.885 23.9109 163.856 23.9172C163.827 23.9235 163.797 23.9241 163.767 23.9188C163.738 23.9135 163.71 23.9025 163.685 23.8864C163.66 23.8703 163.638 23.8495 163.621 23.825C163.604 23.8006 163.592 23.773 163.586 23.7439C163.58 23.7148 163.579 23.6847 163.584 23.6554C163.589 23.6265 163.6 23.5988 163.615 23.574C163.631 23.5492 163.652 23.5279 163.676 23.5112C163.7 23.4946 163.727 23.4829 163.756 23.477C163.785 23.4711 163.814 23.4711 163.843 23.4768C163.874 23.4795 163.904 23.4885 163.931 23.5032C163.958 23.5179 163.981 23.5381 164 23.5624C164.019 23.5867 164.033 23.6147 164.04 23.6445C164.048 23.6743 164.049 23.7054 164.044 23.7358H164.031ZM171.62 22.1911C171.621 22.1323 171.645 22.0762 171.687 22.0346C171.728 21.9929 171.784 21.9691 171.843 21.9679C171.902 21.9679 171.959 21.9914 172.001 22.0333C172.043 22.0752 172.066 22.1319 172.066 22.1911C172.066 22.2503 172.043 22.3071 172.001 22.349C171.959 22.3908 171.902 22.4143 171.843 22.4143C171.814 22.4149 171.784 22.4096 171.756 22.3987C171.729 22.3877 171.704 22.3714 171.682 22.3506C171.661 22.3298 171.644 22.305 171.633 22.2776C171.621 22.2502 171.616 22.2208 171.616 22.1911H171.62ZM166.151 38.8385V38.4947C166.151 38.4355 166.175 38.3787 166.217 38.3369C166.259 38.295 166.315 38.2715 166.374 38.2715C166.434 38.2715 166.49 38.295 166.532 38.3369C166.574 38.3787 166.598 38.4355 166.598 38.4947V38.8385C166.598 38.8977 166.574 38.9544 166.532 38.9963C166.49 39.0381 166.434 39.0617 166.374 39.0617C166.345 39.0623 166.316 39.0569 166.288 39.0459C166.261 39.0349 166.236 39.0185 166.215 38.9976C166.194 38.9768 166.178 38.9519 166.167 38.9246C166.156 38.8972 166.151 38.8679 166.151 38.8385ZM168.026 27.3652C168.026 27.306 168.05 27.2493 168.092 27.2074C168.133 27.1655 168.19 27.142 168.249 27.142C168.309 27.142 168.365 27.1655 168.407 27.2074C168.449 27.2493 168.473 27.306 168.473 27.3652C168.472 27.4241 168.448 27.4802 168.406 27.5218C168.364 27.5634 168.308 27.5873 168.249 27.5885C168.219 27.5886 168.188 27.5822 168.16 27.5699C168.131 27.5576 168.106 27.5396 168.085 27.5169C168.064 27.4942 168.048 27.4675 168.038 27.4383C168.028 27.4091 168.024 27.3782 168.026 27.3474V27.3652ZM164.12 26.1376C164.12 26.0784 164.144 26.0216 164.185 25.9797C164.227 25.9379 164.284 25.9143 164.343 25.9143C164.402 25.9143 164.459 25.9379 164.501 25.9797C164.543 26.0216 164.566 26.0784 164.566 26.1376C164.566 26.1968 164.543 26.2535 164.501 26.2954C164.459 26.3373 164.402 26.3608 164.343 26.3608C164.284 26.3608 164.227 26.3373 164.185 26.2954C164.144 26.2535 164.12 26.1968 164.12 26.1376ZM160.026 26.7849C160.01 26.7286 160.016 26.6681 160.043 26.6163C160.071 26.5645 160.118 26.5256 160.174 26.5081C160.202 26.4993 160.231 26.4962 160.261 26.4991C160.29 26.502 160.318 26.5108 160.344 26.525C160.37 26.5392 160.393 26.5584 160.411 26.5816C160.429 26.6048 160.443 26.6314 160.45 26.6599C160.464 26.689 160.47 26.7205 160.47 26.7524C160.47 26.7844 160.463 26.8159 160.45 26.8449C160.437 26.8739 160.417 26.8998 160.393 26.9207C160.369 26.9416 160.341 26.9571 160.31 26.9661C160.28 26.9751 160.247 26.9775 160.216 26.973C160.184 26.9685 160.154 26.9573 160.127 26.9401C160.1 26.923 160.077 26.9002 160.06 26.8734C160.042 26.8466 160.031 26.8165 160.026 26.7849ZM161.366 26.4367C161.36 26.4074 161.36 26.3772 161.365 26.3478C161.371 26.3185 161.383 26.2906 161.399 26.2658C161.416 26.2409 161.437 26.2195 161.462 26.2029C161.487 26.1863 161.515 26.1747 161.544 26.1688C161.573 26.1629 161.604 26.1629 161.633 26.1687C161.662 26.1745 161.69 26.186 161.715 26.2026C161.74 26.2192 161.761 26.2405 161.778 26.2654C161.795 26.2902 161.806 26.3181 161.812 26.3474C161.824 26.4066 161.812 26.4681 161.778 26.5183C161.745 26.5685 161.693 26.6034 161.633 26.6152C161.574 26.6271 161.513 26.6149 161.463 26.5814C161.412 26.5479 161.377 26.4959 161.366 26.4367ZM166.839 26.6018C166.85 26.5746 166.866 26.5497 166.886 26.5286C166.907 26.5076 166.931 26.4908 166.958 26.4792C166.985 26.4676 167.014 26.4614 167.043 26.461C167.073 26.4606 167.102 26.466 167.129 26.4768C167.156 26.4877 167.181 26.5038 167.202 26.5243C167.223 26.5447 167.24 26.5691 167.252 26.596C167.263 26.623 167.269 26.652 167.27 26.6813C167.27 26.7106 167.265 26.7398 167.254 26.767C167.243 26.7943 167.227 26.8191 167.207 26.8402C167.186 26.8612 167.162 26.878 167.135 26.8896C167.108 26.9012 167.079 26.9074 167.049 26.9078C167.02 26.9082 166.991 26.9029 166.964 26.892C166.934 26.8814 166.907 26.8647 166.885 26.843C166.862 26.8212 166.844 26.795 166.832 26.7659C166.821 26.7369 166.815 26.7056 166.816 26.6743C166.817 26.6429 166.825 26.6122 166.839 26.584V26.6018ZM158.723 27.2313C158.706 27.1906 158.702 27.1459 158.71 27.1028C158.719 27.0596 158.74 27.02 158.771 26.9889C158.802 26.9578 158.842 26.9366 158.885 26.9279C158.928 26.9192 158.973 26.9235 159.014 26.9401C159.054 26.9568 159.089 26.9851 159.114 27.0215C159.139 27.0579 159.152 27.1008 159.152 27.1448C159.153 27.1888 159.14 27.2319 159.116 27.2687C159.092 27.3056 159.058 27.3345 159.017 27.3518C158.962 27.3731 158.901 27.3724 158.846 27.35C158.791 27.3276 158.747 27.2852 158.723 27.2313ZM162.741 26.1777C162.735 26.1185 162.754 26.0596 162.792 26.014C162.83 25.9684 162.884 25.9398 162.944 25.9344C163.003 25.9291 163.062 25.9475 163.107 25.9856C163.153 26.0237 163.182 26.0784 163.187 26.1376C163.189 26.1669 163.186 26.1964 163.177 26.2244C163.168 26.2525 163.154 26.2784 163.134 26.3008C163.115 26.3232 163.092 26.3416 163.066 26.355C163.04 26.3683 163.011 26.3764 162.982 26.3786C162.925 26.3853 162.867 26.3701 162.821 26.3362C162.774 26.3022 162.743 26.252 162.732 26.1956L162.741 26.1777ZM165.504 26.2313C165.512 26.1879 165.532 26.1478 165.562 26.1159C165.593 26.084 165.632 26.0619 165.675 26.0523C165.718 26.0426 165.763 26.0459 165.804 26.0618C165.845 26.0776 165.881 26.1052 165.906 26.1412C165.931 26.1772 165.946 26.2199 165.947 26.264C165.948 26.308 165.936 26.3514 165.913 26.3887C165.889 26.4261 165.855 26.4556 165.815 26.4737C165.775 26.4917 165.73 26.4975 165.687 26.4902C165.63 26.4824 165.578 26.453 165.543 26.4081C165.507 26.3633 165.49 26.3063 165.495 26.2492L165.504 26.2313ZM157.915 27.776C157.913 27.8348 157.89 27.8909 157.848 27.9325C157.806 27.9741 157.75 27.998 157.691 27.9992C157.632 27.9992 157.575 27.9756 157.534 27.9338C157.492 27.8919 157.468 27.8352 157.468 27.776C157.468 27.7168 157.492 27.66 157.534 27.6181C157.575 27.5763 157.632 27.5527 157.691 27.5527C157.723 27.5514 157.755 27.5567 157.784 27.5685C157.813 27.5802 157.84 27.5981 157.862 27.6209C157.884 27.6437 157.901 27.6709 157.911 27.7007C157.922 27.7305 157.926 27.7623 157.924 27.7938L157.915 27.776Z" fill="#1F1F1F"/>
</g>
</svg>
