<svg width="14" height="14" viewBox="0 0 14 14" fill="none" xmlns="http://www.w3.org/2000/svg">
<path d="M4.15625 0H4.21641C5.08867 0 5.89805 0.462383 6.34102 1.21543L7 2.3368L7.65898 1.21543C8.10195 0.462383 8.91133 0 9.78359 0H9.84375C11.1727 0 12.25 1.07734 12.25 2.40625C12.25 2.8 12.1543 3.14727 11.9875 3.5H13.125C13.609 3.5 14 3.89102 14 4.375V6.125C14 6.60898 13.609 7 13.125 7H0.875C0.391836 7 0 6.60898 0 6.125V4.375C0 3.89102 0.391836 3.5 0.875 3.5H2.0125C1.84461 3.14727 1.75 2.8 1.75 2.40625C1.75 1.07734 2.82734 0 4.15625 0ZM5.20898 1.8807C5.00117 1.52879 4.62383 1.3125 4.21641 1.3125H4.15625C3.55195 1.3125 3.0625 1.80223 3.0625 2.40625C3.0625 3.01055 3.55195 3.5 4.15625 3.5H6.16055L5.20898 1.8807ZM9.84375 1.3125H9.78359C9.37617 1.3125 8.99883 1.52879 8.79102 1.8807L7.83945 3.5H9.84375C10.448 3.5 10.9375 3.01055 10.9375 2.40625C10.9375 1.80223 10.448 1.3125 9.84375 1.3125ZM0.875 7.875H6.125V14H2.1875C1.46262 14 0.875 13.4121 0.875 12.6875V7.875ZM7.875 14V7.875H13.125V12.6875C13.125 13.4121 12.5371 14 11.8125 14H7.875Z" fill="#161514"/>
</svg>
