<svg width="201" height="31" viewBox="0 0 201 31" fill="none" xmlns="http://www.w3.org/2000/svg">
<path fill-rule="evenodd" clip-rule="evenodd" d="M98.1484 24.3559L97.3915 20.9512L83.8213 20.9512V24.3559H98.1484Z" fill="#F9F1DF"/>
<path fill-rule="evenodd" clip-rule="evenodd" d="M91.507 19.8563H87.5486L95.6034 14.5976C96.0284 12.9889 96.0012 10.7451 93.8521 10.0287L89.554 15.0432L86.998 13.5697L88.1212 7.87962L83.8231 5.78266C89.786 4.6206 94.513 6.59724 96.0842 8.34198C98.028 10.5021 98.4771 13.1641 97.5813 15.9457L91.5095 19.8555L91.507 19.8563Z" fill="#F9F1DF"/>
<path d="M85.2559 8.59619H88.1213V10.0289L85.2559 8.59619Z" fill="#F9F1DF"/>
<path d="M16.1889 15.6129C17.6588 14.8392 18.5872 13.4466 18.5872 11.6414C18.5872 8.83041 16.2662 6.94783 11.7532 6.94783H2.93342V25H12.269C17.0141 25 19.4898 23.1948 19.4898 20.0743C19.4898 17.8049 18.2004 16.2576 16.1889 15.6129ZM11.2374 10.0941C13.2747 10.0941 14.3837 10.7904 14.3837 12.2087C14.3837 13.6271 13.2747 14.3492 11.2374 14.3492H7.08542V10.0941H11.2374ZM11.9595 21.8538H7.08542V17.3923H11.9595C14.1258 17.3923 15.2863 18.1144 15.2863 19.6359C15.2863 21.1833 14.1258 21.8538 11.9595 21.8538ZM31.3952 25.3095C37.0687 25.3095 41.2723 21.3638 41.2723 15.9739C41.2723 10.5841 37.0687 6.63836 31.3952 6.63836C25.6959 6.63836 21.5181 10.6098 21.5181 15.9739C21.5181 21.338 25.6959 25.3095 31.3952 25.3095ZM31.3952 21.7506C28.1716 21.7506 25.7475 19.4038 25.7475 15.9739C25.7475 12.544 28.1716 10.1972 31.3952 10.1972C34.6188 10.1972 37.043 12.544 37.043 15.9739C37.043 19.4038 34.6188 21.7506 31.3952 21.7506ZM57.6478 25H62.0319L53.96 6.94783H49.8338L41.7877 25H46.0686L47.6675 21.1317H56.0489L57.6478 25ZM49.0086 17.9597L51.8711 11.0483L54.7337 17.9597H49.0086ZM79.8939 25L75.845 19.1975C78.1918 18.1918 79.5586 16.206 79.5586 13.4982C79.5586 9.44934 76.5413 6.94783 71.7188 6.94783H63.9048V25H68.0826V19.9712H71.7188H71.9251L75.4066 25H79.8939ZM75.3293 13.4982C75.3293 15.4581 74.0398 16.6444 71.4867 16.6444H68.0826V10.352H71.4867C74.0398 10.352 75.3293 11.5124 75.3293 13.4982ZM116.977 20.9769C115.92 21.5443 114.863 21.7506 113.728 21.7506C110.272 21.7506 107.874 19.3522 107.874 15.9739C107.874 12.544 110.272 10.1972 113.779 10.1972C115.61 10.1972 117.132 10.8419 118.447 12.2345L121.129 9.75881C119.376 7.72149 116.745 6.63836 113.573 6.63836C107.822 6.63836 103.644 10.5325 103.644 15.9739C103.644 21.4154 107.822 25.3095 113.496 25.3095C116.075 25.3095 118.808 24.51 120.794 23.0143V15.6902H116.977V20.9769ZM138.162 25H142.546L134.475 6.94783H130.348L122.302 25H126.583L128.182 21.1317H136.563L138.162 25ZM129.523 17.9597L132.386 11.0483L135.248 17.9597H129.523ZM164.767 25L164.715 6.94783H161.285L154.632 18.166L147.875 6.94783H144.419V25H148.339V14.4008L153.626 23.0916H155.509L160.821 14.1687L160.847 25H164.767ZM173.202 21.6475V17.4697H181.583V14.2203H173.202V10.3004H182.692V6.94783H169.05V25H183.027V21.6475H173.202ZM192.283 25.3095C197.441 25.3095 199.942 22.7306 199.942 19.7133C199.942 13.0856 189.446 15.3808 189.446 12.054C189.446 10.9193 190.4 9.99091 192.876 9.99091C194.475 9.99091 196.203 10.4551 197.879 11.4093L199.168 8.23727C197.492 7.17993 195.171 6.63836 192.902 6.63836C187.77 6.63836 185.294 9.19145 185.294 12.2603C185.294 18.9654 195.79 16.6444 195.79 20.0228C195.79 21.1317 194.784 21.9569 192.309 21.9569C190.142 21.9569 187.873 21.1833 186.351 20.0743L184.933 23.2206C186.532 24.4584 189.42 25.3095 192.283 25.3095Z" fill="#F9F1DF"/>
</svg>
