<svg width="48" height="46" viewBox="0 0 48 46" fill="none" xmlns="http://www.w3.org/2000/svg">
<path d="M13.6183 44.7034C11.0456 44.7034 8.95591 42.6117 8.95591 40.0425V39.6987C8.95591 38.3042 9.59669 37.0005 10.6344 36.1266C10.1466 35.7159 9.66842 35.2765 9.20457 34.8181C6.14413 31.7617 4.11659 28.0177 3.49972 24.2833C2.86372 20.4294 3.78664 17.034 6.10587 14.7227C7.93736 12.8936 10.4527 11.929 13.3792 11.929C15.2346 11.929 17.2191 12.3349 19.1558 13.1038C19.6914 12.3779 20.3847 11.7809 21.1881 11.3607V10.7972H19.8396C18.7111 10.7972 17.7929 9.88027 17.7929 8.75325V7.25373C17.7929 6.12671 18.7111 5.20981 19.8396 5.20981H21.1881V4.46482C21.1881 3.3378 22.1062 2.4209 23.2348 2.4209H24.7411C25.8696 2.4209 26.7878 3.3378 26.7878 4.46482V5.20981H28.1363C29.2648 5.20981 30.1829 6.12671 30.1829 7.25373V8.75325C30.1829 9.88027 29.2648 10.7972 28.1363 10.7972H26.7878V11.3607C27.6198 11.7953 28.3371 12.4208 28.8822 13.1849C30.8859 12.3635 32.9421 11.929 34.8644 11.929C37.791 11.929 40.3063 12.8936 42.1378 14.7227C46.8288 19.4074 45.4373 28.4236 39.0343 34.8181C38.5226 35.329 37.987 35.8162 37.4371 36.2698C38.3887 37.139 38.9578 38.3806 38.9578 39.7034V40.0473C38.9578 42.6165 36.8681 44.7082 34.2954 44.7082H13.6087L13.6183 44.7034Z" fill="black"/>
<path d="M24.7461 3.37115C25.3438 3.37115 25.8364 3.85825 25.8364 4.45997V6.16006H28.1413C28.7438 6.16006 29.2315 6.64716 29.2315 7.24888V8.74839C29.2315 9.34533 28.7438 9.83721 28.1413 9.83721H25.8364V11.9671C26.9936 12.416 27.9452 13.2851 28.5047 14.3883C30.647 13.395 32.8323 12.8792 34.8694 12.8792C37.4373 12.8792 39.7661 13.6958 41.4685 15.3959C45.7914 19.713 44.4046 28.1084 38.365 34.1399C37.5521 34.9517 36.6961 35.6824 35.8115 36.3223C37.1026 36.9001 38.0112 38.1991 38.0112 39.6986V40.0424C38.0112 42.0816 36.3423 43.7482 34.3052 43.7482H13.6185C11.5814 43.7482 9.91251 42.0816 9.91251 40.0424V39.6986C9.91251 38.1179 10.9167 36.7616 12.3178 36.2315C11.4762 35.6155 10.6585 34.9135 9.88381 34.1399C3.84423 28.1084 2.45747 19.713 6.78512 15.3959C8.48749 13.6958 10.8163 12.8792 13.3842 12.8792C15.3544 12.8792 17.4632 13.3616 19.5338 14.2928C20.0933 13.2374 21.021 12.4064 22.1495 11.9671V9.83721H19.8446C19.2421 9.83721 18.7543 9.34533 18.7543 8.74839V7.24888C18.7543 6.64716 19.2421 6.16006 19.8446 6.16006H22.1495V4.45997C22.1495 3.85825 22.642 3.37115 23.2398 3.37115H24.7461ZM24.7461 1.46094H23.2398C21.6569 1.46094 20.3515 2.69302 20.2463 4.24984H19.8446C18.19 4.24984 16.8415 5.59654 16.8415 7.24888V8.74839C16.8415 10.1619 17.8266 11.3511 19.1464 11.6662C19.046 11.7617 18.9504 11.862 18.8547 11.9623C17.0137 11.3081 15.1487 10.969 13.3794 10.969C10.1899 10.969 7.44024 12.034 5.42705 14.0444C2.88784 16.5803 1.86451 20.2717 2.55311 24.436C3.20345 28.3663 5.32185 32.2917 8.52575 35.4913C8.76006 35.7253 9.00394 35.9593 9.24782 36.179C8.4588 37.158 7.99495 38.3949 7.99495 39.6986V40.0424C7.99495 43.137 10.515 45.6584 13.6137 45.6584H34.3004C37.3991 45.6584 39.9192 43.137 39.9192 40.0424V39.6986C39.9192 38.4713 39.5127 37.3013 38.805 36.3509C39.1158 36.074 39.4171 35.7874 39.7135 35.4913C42.9127 32.2965 45.0358 28.371 45.6862 24.436C46.3748 20.2717 45.3562 16.5803 42.817 14.0444C40.8038 12.034 38.0542 10.969 34.8647 10.969C33.0332 10.969 31.0965 11.3367 29.1885 12.034C29.0737 11.905 28.9542 11.7856 28.8346 11.6662C30.1544 11.3511 31.1395 10.1619 31.1395 8.74839V7.24888C31.1395 5.59654 29.791 4.24984 28.1365 4.24984H27.7348C27.6248 2.69302 26.3241 1.46094 24.7413 1.46094H24.7461Z" fill="white"/>
<path opacity="0.2" d="M30.9531 18.1607C33.9179 16.5418 37.0931 16.7376 38.6712 18.4043C40.5122 20.3479 39.5176 23.6048 39.092 24.9897C37.7052 29.5217 33.7362 31.7853 32.4021 32.4682" stroke="white" stroke-width="2" stroke-miterlimit="10" stroke-linecap="round"/>
<path opacity="0.2" d="M19.4717 36.2168H28.7773" stroke="white" stroke-width="2" stroke-miterlimit="10" stroke-linecap="round"/>
</svg>
