<svg width="47" height="46" viewBox="0 0 47 46" fill="none" xmlns="http://www.w3.org/2000/svg">
<path d="M13.1698 44.5842C10.5971 44.5842 8.50262 42.4973 8.50262 39.928V39.5842C8.50262 37.4877 9.89417 35.7113 11.8022 35.1286L5.85343 21.3799C5.70041 21.3942 5.54738 21.4038 5.39436 21.4038C3.01774 21.4038 1.08105 19.4697 1.08105 17.0915C1.08105 14.7133 3.01774 12.7839 5.39436 12.7839C7.77099 12.7839 9.70767 14.718 9.70767 17.0915C9.70767 17.7983 9.53552 18.4812 9.21991 19.0876L13.0072 22.3063L13.3228 14.6942C11.477 14.2023 10.138 12.5308 10.138 10.5395C10.138 8.16124 12.0747 6.22715 14.4514 6.22715C16.828 6.22715 18.7694 8.16124 18.7694 10.5395C18.7694 11.7047 18.3104 12.7887 17.5022 13.5862L19.305 16.442L21.433 9.03039C20.0797 8.2854 19.195 6.84797 19.195 5.25772C19.195 2.88428 21.1317 0.950195 23.5083 0.950195C25.885 0.950195 27.8264 2.88428 27.8264 5.25772C27.8264 6.84797 26.9418 8.2854 25.5837 9.03039L27.7164 16.442L29.5192 13.5862C28.7159 12.7935 28.252 11.7047 28.252 10.5395C28.252 8.16124 30.1887 6.22715 32.5701 6.22715C34.9515 6.22715 36.8834 8.16124 36.8834 10.5395C36.8834 12.5308 35.5445 14.2071 33.6987 14.6942L34.0143 22.3016L37.8016 19.0781C37.4812 18.4668 37.3138 17.7839 37.3138 17.0819C37.3138 14.7085 39.2505 12.7744 41.6271 12.7744C44.0037 12.7744 45.9404 14.7085 45.9404 17.0819C45.9404 19.4554 44.0037 21.3942 41.6271 21.3942C41.4741 21.3942 41.3211 21.3847 41.168 21.3703L35.2193 35.1191C37.1273 35.7065 38.5141 37.483 38.5141 39.5747V39.9185C38.5141 42.4877 36.4244 44.5746 33.8517 44.5746H13.1698V44.5842Z" fill="black"/>
<path d="M23.5087 1.91021C25.3641 1.91021 26.8704 3.40973 26.8704 5.26263C26.8704 6.79557 25.8375 8.08497 24.4316 8.48133L27.3868 18.763L30.782 13.3762C29.8352 12.7889 29.2087 11.7382 29.2087 10.5444C29.2087 8.69146 30.7151 7.18717 32.5704 7.18717C34.4258 7.18717 35.9274 8.69146 35.9274 10.5444C35.9274 12.3973 34.5023 13.8204 32.7091 13.8872L33.1443 24.3074L39.0691 19.2645C38.5718 18.6819 38.2705 17.9226 38.2705 17.0916C38.2705 15.2435 39.772 13.7392 41.6274 13.7392C43.4828 13.7392 44.9844 15.2435 44.9844 17.0916C44.9844 18.9397 43.4828 20.4488 41.6274 20.4488C41.2688 20.4488 40.9245 20.3915 40.5993 20.2864L33.852 35.8785C35.8939 35.8785 37.558 37.5452 37.558 39.5843V39.9282C37.558 41.9673 35.8939 43.6292 33.852 43.6292H13.1701C11.1282 43.6292 9.45934 41.9673 9.45934 39.9282V39.5843C9.45934 37.5452 11.1282 35.8785 13.1701 35.8785L6.42281 20.2864C6.09764 20.3915 5.75334 20.4488 5.3947 20.4488C3.5393 20.4488 2.03777 18.9445 2.03777 17.0916C2.03777 15.2387 3.5393 13.7392 5.3947 13.7392C7.25009 13.7392 8.75162 15.2435 8.75162 17.0916C8.75162 17.9226 8.45514 18.6819 7.94825 19.2645L13.8779 24.3074L14.313 13.8872C12.5198 13.8204 11.0948 12.3495 11.0948 10.5444C11.0948 8.73921 12.5963 7.18717 14.4517 7.18717C16.3071 7.18717 17.8134 8.69146 17.8134 10.5444C17.8134 11.7382 17.187 12.7889 16.2401 13.3762L19.6353 18.763L22.5858 8.48133C21.1847 8.08497 20.1518 6.79557 20.1518 5.26263C20.1518 3.40973 21.6581 1.91021 23.5087 1.91021ZM23.5087 0C20.6013 0 18.239 2.35911 18.239 5.26263C18.239 6.03627 18.4111 6.78602 18.722 7.45937C17.7608 6.13655 16.2067 5.27696 14.4517 5.27696C11.5443 5.27696 9.18199 7.64084 9.18199 10.5444C9.18199 12.7077 10.4683 14.5606 12.3381 15.3676L12.1324 20.3151L10.3775 18.8203C10.5688 18.2712 10.6692 17.6885 10.6692 17.0916C10.6692 14.1881 8.30689 11.829 5.39948 11.829C2.49206 11.829 0.125 14.1881 0.125 17.0916C0.125 19.9951 2.4012 22.2731 5.23689 22.359L10.5448 34.6226C8.76596 35.5681 7.55135 37.4353 7.55135 39.5843V39.9282C7.55135 43.0227 10.0762 45.5394 13.1749 45.5394H33.8568C36.9555 45.5394 39.4756 43.0227 39.4756 39.9282V39.5843C39.4756 37.4353 38.261 35.5633 36.4869 34.6226L41.7948 22.359C44.6257 22.2731 46.9067 19.9474 46.9067 17.0916C46.9067 14.2358 44.5444 11.829 41.637 11.829C38.7296 11.829 36.3673 14.1881 36.3673 17.0916C36.3673 17.6838 36.4677 18.2664 36.659 18.8156L34.904 20.3103L34.6984 15.3676C36.5634 14.5606 37.8545 12.7077 37.8545 10.5444C37.8545 7.64084 35.4922 5.27696 32.5848 5.27696C30.8298 5.27696 29.2709 6.13655 28.3097 7.45937C28.6206 6.78602 28.7975 6.03627 28.7975 5.26263C28.7975 2.35911 26.4304 0 23.523 0L23.5087 0ZM26.6982 9.44599C27.1143 9.13081 27.4777 8.75832 27.7789 8.33807C27.4681 9.00664 27.296 9.7564 27.296 10.5396C27.296 11.6953 27.6642 12.7841 28.3289 13.6771L28.042 14.1308L26.6934 9.44599H26.6982ZM18.6885 13.6771C19.3532 12.7889 19.7214 11.6953 19.7214 10.5396C19.7214 9.7564 19.5492 9.01142 19.2384 8.33807C19.5397 8.75354 19.9031 9.12603 20.3143 9.44122L18.9706 14.126L18.6885 13.6771Z" fill="white"/>
<path opacity="0.2" d="M19.2002 36.2607H28.5106" stroke="white" stroke-width="2" stroke-miterlimit="10" stroke-linecap="round"/>
<path opacity="0.2" d="M35.0527 26.4229L31.5332 34.5556" stroke="white" stroke-width="2" stroke-miterlimit="10" stroke-linecap="round"/>
</svg>
