<svg width="47" height="46" viewBox="0 0 47 46" fill="none" xmlns="http://www.w3.org/2000/svg">
<path d="M12.7667 42.7123C10.4522 42.7123 8.46293 41.06 8.03255 38.7868C7.97995 38.4669 7.95605 38.1851 7.95605 37.9081C7.95605 36.6331 8.45814 35.4249 9.37149 34.5175C10.2848 33.6101 11.4947 33.1087 12.7667 33.1087H13.2018C15.3728 31.7286 16.6926 29.5605 17.4817 27.6694C16.2001 27.2492 15.2676 26.0409 15.2676 24.6226V23.8538C15.2676 23.295 15.4159 22.7506 15.6884 22.2778C13.6609 20.3103 12.5132 17.6217 12.5132 14.7611C12.5132 8.97321 17.2282 4.25977 23.0239 4.25977C28.8196 4.25977 33.5394 8.96844 33.5394 14.7611C33.5394 17.6169 32.3917 20.3103 30.3642 22.2778C30.6368 22.7554 30.785 23.295 30.785 23.8538V24.6226C30.785 26.0409 29.8573 27.2492 28.571 27.6694C29.36 29.5605 30.6798 31.7286 32.8508 33.1087H33.1521C35.806 33.1087 37.9627 35.2625 37.9627 37.9081C37.9627 38.0514 37.9579 38.1851 37.9436 38.3236C37.8431 39.4458 37.3506 40.506 36.5472 41.3035C35.6387 42.2109 34.4336 42.7123 33.1521 42.7123H12.7619H12.7667Z" fill="black"/>
<path d="M23.0242 5.2149C28.3035 5.2149 32.5834 9.48899 32.5834 14.7612C32.5834 17.7507 31.2109 20.4154 29.0543 22.1632C29.5277 22.5739 29.829 23.1804 29.829 23.8538V24.6226C29.829 25.8595 28.8152 26.8719 27.5767 26.8719H27.2515C28.2557 29.8518 29.982 32.5166 32.5834 34.0639H33.1572C35.2756 34.0639 37.0114 35.7926 37.0114 37.9081C37.0114 38.0228 37.0114 38.1326 36.9971 38.2424C36.9158 39.1689 36.4997 40.0094 35.8781 40.6302C35.1799 41.3274 34.2188 41.7572 33.1572 41.7572H12.767C10.8877 41.7572 9.30965 40.3962 8.97491 38.6101C8.93666 38.3809 8.91277 38.1469 8.91277 37.9081C8.91277 36.848 9.34793 35.8881 10.0461 35.1909C10.7443 34.4984 11.7054 34.0639 12.767 34.0639H13.4747C16.0713 32.5166 17.7976 29.8518 18.8018 26.8719H18.4766C17.2381 26.8719 16.2243 25.8595 16.2243 24.6226V23.8538C16.2243 23.1804 16.5256 22.5739 16.999 22.1632C14.8424 20.4154 13.4699 17.7507 13.4699 14.7612C13.4699 9.48899 17.745 5.2149 23.0242 5.2149ZM23.0242 3.30469C16.7025 3.30469 11.5572 8.44315 11.5572 14.7612C11.5572 17.6504 12.6331 20.382 14.5507 22.4736C14.3976 22.913 14.3116 23.3762 14.3116 23.8538V24.6226C14.3116 26.0887 15.0767 27.3829 16.2291 28.1231C15.5166 29.5796 14.4598 31.0982 12.9153 32.1536H12.767C11.2368 32.1536 9.79265 32.7506 8.69758 33.8346C7.60252 34.9282 7 36.3752 7 37.9081C7 38.2377 7.02869 38.5672 7.08607 38.9253V38.9635C7.60252 41.6904 9.98871 43.6674 12.767 43.6674H33.1572C34.697 43.6674 36.1411 43.0705 37.2314 41.9817C38.1926 41.0218 38.7855 39.7563 38.9051 38.4096C38.9194 38.2424 38.929 38.0801 38.929 37.9081C38.929 34.7372 36.3419 32.1536 33.162 32.1536H33.1476C31.6031 31.0982 30.5463 29.5796 29.8337 28.1231C30.9862 27.3829 31.7513 26.0887 31.7513 24.6226V23.8538C31.7513 23.381 31.67 22.913 31.5122 22.4736C33.4297 20.382 34.5057 17.6504 34.5057 14.7612C34.5057 8.44315 29.3603 3.30469 23.0338 3.30469H23.0242Z" fill="white"/>
<path opacity="0.2" d="M21.4316 7.93699C21.7186 7.85103 24.8794 6.97233 27.5334 9.08789C29.4318 10.6017 30.3452 13.0659 29.9196 15.4966" stroke="white" stroke-width="2" stroke-miterlimit="10" stroke-linecap="round"/>
<path opacity="0.2" d="M18.6201 34.0498H27.9257" stroke="white" stroke-width="2" stroke-miterlimit="10" stroke-linecap="round"/>
</svg>
