<svg width="48" height="46" viewBox="0 0 48 46" fill="none" xmlns="http://www.w3.org/2000/svg">
<path d="M13.5682 43.0816C10.9955 43.0816 8.90577 40.9947 8.90577 38.4255V38.0673C8.91533 35.5029 11.0098 33.4207 13.5682 33.4207H14.3715C15.3949 31.7541 16.6477 30.1543 18.2831 28.416C22.9216 23.4924 25.1835 19.8726 25.566 18.8124C25.4656 18.8363 25.3365 18.8888 25.1978 18.9795L16.0165 25.5889L15.9591 25.6175C15.2418 26.0043 14.3667 26.2145 13.4869 26.2145C11.9519 26.2145 10.6368 25.6128 9.8765 24.5574L9.77607 24.4189C8.48017 22.7379 8.37974 20.2594 9.55132 18.4113L15.0458 10.4457C15.83 8.93184 15.8252 8.92229 15.2944 8.04359C15.0601 7.65677 14.7397 7.12191 14.3763 6.37216C14.1755 5.95191 14.2089 5.46481 14.4624 5.06844C14.7445 4.62431 15.2657 4.33301 15.7918 4.33301H23.3329C23.7489 4.33301 24.1028 4.33301 24.3945 4.36166V4.33778H24.5857C31.0987 4.33778 38.1282 10.3502 38.1282 20.0684C38.1282 24.4427 37.5687 29.1132 36.4593 33.9747C37.9513 34.7722 38.9076 36.3243 38.9124 38.0626V38.4255C38.9124 40.9947 36.8227 43.0816 34.25 43.0816H13.5634H13.5682Z" fill="black"/>
<path d="M15.7969 5.29302C17.7097 5.29302 24.4139 5.29302 24.4139 5.2978C24.4713 5.2978 24.5335 5.2978 24.5909 5.2978C30.64 5.2978 37.1769 10.8899 37.1769 20.0733C37.1769 25.312 36.3544 30.3454 35.3502 34.5431C36.8518 35.0111 37.9564 36.4151 37.9612 38.0675V38.4256C37.9612 40.46 36.2923 42.1267 34.2552 42.1267H13.5685C11.5314 42.1267 9.86251 40.46 9.86251 38.4256V38.0675C9.87207 36.0331 11.5362 34.376 13.5685 34.376H14.917C16.0312 32.4658 17.3941 30.7561 18.9817 29.0704C23.8975 23.8507 26.8145 19.3235 26.5658 18.5212C26.4224 18.0532 26.0828 17.8431 25.6716 17.8431C25.3608 17.8431 25.0117 17.9625 24.6769 18.1822L15.51 24.7819C14.9218 25.0971 14.2045 25.2643 13.492 25.2643C12.3874 25.2643 11.2827 24.8679 10.6563 24.0035L10.5511 23.8603C9.39388 22.3608 9.47995 20.3216 10.3646 18.9272L15.8734 10.9425C17.2841 8.22042 16.6098 8.79348 15.2422 5.9616C15.0892 5.64164 15.443 5.29302 15.7969 5.29302ZM15.7969 3.38281C14.9361 3.38281 14.1136 3.83649 13.6546 4.56237C13.2242 5.24049 13.1716 6.07143 13.5159 6.78776C13.8985 7.58528 14.2332 8.13924 14.4771 8.54038C14.5536 8.66932 14.6492 8.82214 14.7066 8.93197C14.6492 9.09434 14.5153 9.39997 14.2236 9.95871L8.78179 17.8431L8.76266 17.8718L8.74354 17.9052C7.36634 20.0781 7.47632 22.9959 9.0161 25.0064L9.10696 25.1353C10.0394 26.4295 11.6414 27.1793 13.4824 27.1793C14.5345 27.1793 15.5435 26.9357 16.409 26.4677L16.519 26.4104L16.6194 26.3388L22.2286 22.2987C21.0761 23.8268 19.5268 25.6988 17.5758 27.7666C16.0455 29.3951 14.8357 30.9089 13.8315 32.4705H13.5542C10.4698 32.4705 7.94974 34.9777 7.93539 38.0627V38.4304C7.93539 41.5249 10.4555 44.0416 13.5542 44.0416H34.2408C37.3395 44.0416 39.8596 41.5249 39.8596 38.4304V38.0722C39.8548 36.2289 38.9654 34.5622 37.5308 33.5307C38.5541 28.8411 39.0754 24.3235 39.0754 20.0781C39.0754 9.77247 31.5486 3.39236 24.5765 3.39236C24.5048 3.39236 24.4331 3.39236 24.3661 3.39236V3.40191C24.2848 3.39714 24.1988 3.39236 24.1127 3.39236H15.7825L15.7969 3.38281Z" fill="white"/>
<path opacity="0.2" d="M20.2393 34.0557H29.5449" stroke="white" stroke-width="2" stroke-miterlimit="10" stroke-linecap="round"/>
<path opacity="0.2" d="M26.5605 8.34961C28.6168 9.32382 29.9653 10.5368 30.8356 11.5206C36.5978 18.0535 33.2074 28.1537 32.911 28.999" stroke="white" stroke-width="2" stroke-miterlimit="10" stroke-linecap="round"/>
</svg>
