<svg width="48" height="46" viewBox="0 0 48 46" fill="none" xmlns="http://www.w3.org/2000/svg">
<path d="M13.1906 42.9751C10.6179 42.9751 8.52344 40.8882 8.52344 38.319V37.9704C8.52344 35.4011 10.6179 33.3142 13.1906 33.3142H15.988C14.08 30.5015 13.0471 27.1681 13.0471 23.7393C13.0471 18.959 15.0317 14.4414 18.5225 11.2036C17.8673 10.2293 17.5183 9.07845 17.5183 7.87979C17.5183 4.57035 20.2153 1.87695 23.5292 1.87695C26.843 1.87695 29.5448 4.57035 29.5448 7.87979C29.5448 9.07845 29.191 10.2341 28.5406 11.2083C29.5353 12.1252 30.4151 13.1615 31.1707 14.2933L31.6059 14.9428L24.8729 21.662C24.6625 21.8721 24.6625 22.235 24.8729 22.4499C24.9733 22.5502 25.112 22.6075 25.265 22.6075C25.418 22.6075 25.5519 22.5502 25.6571 22.4451L25.7002 22.4022L32.3997 16.4948L32.9113 17.7317C33.7051 19.6467 34.0112 21.3324 34.0112 23.7298C34.0112 27.1586 32.9783 30.4919 31.075 33.3047H33.8725C36.4452 33.3047 38.5349 35.3916 38.5349 37.9608V38.3094C38.5349 40.8787 36.4452 42.9656 33.8725 42.9656H13.1906V42.9751Z" fill="black"/>
<path d="M23.5294 2.83209C26.3268 2.83209 28.5887 5.09091 28.5887 7.87982C28.5887 9.21219 28.0722 10.4299 27.2258 11.3277C28.4357 12.3306 29.4972 13.5102 30.3723 14.8234L24.1941 20.9886C23.6107 21.576 23.6107 22.5359 24.1941 23.1233C24.4858 23.4146 24.8731 23.5626 25.2604 23.5626C25.6478 23.5626 26.0351 23.4146 26.3268 23.1233L32.0221 18.1042C32.8016 19.9906 33.0502 21.5712 33.0502 23.7393C33.0502 27.7603 31.5774 31.4423 29.1338 34.2694H33.8679C35.9098 34.2694 37.5739 35.936 37.5739 37.9704V38.319C37.5739 40.3534 35.9098 42.0201 33.8679 42.0201H13.1861C11.1442 42.0201 9.47528 40.3534 9.47528 38.319V37.9704C9.47528 35.936 11.1442 34.2694 13.1861 34.2694H17.9202C15.4766 31.4423 13.999 27.7603 13.999 23.7393C13.999 18.7489 16.2704 14.2838 19.8329 11.323C18.9818 10.4252 18.4701 9.21219 18.4701 7.87982C18.4701 5.09091 20.732 2.83209 23.5246 2.83209M23.5246 0.921875C19.6847 0.921875 16.5573 4.04507 16.5573 7.87982C16.5573 8.99729 16.8203 10.0766 17.3129 11.0412C13.9703 14.4127 12.0862 18.9495 12.0862 23.7393C12.0862 26.7718 12.8513 29.7326 14.2859 32.3592H13.1861C10.0874 32.3592 7.5625 34.8759 7.5625 37.9704V38.319C7.5625 41.4136 10.0874 43.9303 13.1861 43.9303H33.8679C36.9666 43.9303 39.4867 41.4136 39.4867 38.319V37.9704C39.4867 34.8759 36.9666 32.3592 33.8679 32.3592H32.7681C34.1979 29.7326 34.963 26.7718 34.963 23.7393C34.963 21.2035 34.6331 19.4175 33.7914 17.3736L32.7681 14.8998L32.7346 14.9285L31.9599 13.768C31.3048 12.7891 30.5636 11.8769 29.7411 11.046C30.2385 10.0766 30.4967 8.99729 30.4967 7.88459C30.4967 4.04984 27.3693 0.926651 23.5246 0.926651V0.921875Z" fill="white"/>
<path opacity="0.2" d="M23.2236 4.78027C24.4287 4.90921 25.4664 5.68762 25.9111 6.79077C26.5375 8.36192 25.6194 9.73249 25.5429 9.83756" stroke="white" stroke-width="1.5" stroke-miterlimit="10" stroke-linecap="round"/>
<path opacity="0.2" d="M21.3301 34.1408C21.3301 34.1408 24.0606 34.1551 26.2363 34.1599C27.3266 33.0042 29.1294 30.7645 30.1002 27.4455C30.7218 25.3347 30.8031 23.4722 30.7505 22.1494" stroke="white" stroke-width="1.5" stroke-miterlimit="10" stroke-linecap="round"/>
</svg>
