<svg width="48" height="46" viewBox="0 0 48 46" fill="none" xmlns="http://www.w3.org/2000/svg">
<path d="M13.339 42.9673C10.7664 42.9673 8.67188 40.8804 8.67188 38.3112V37.9626C8.67188 35.3933 10.7664 33.3064 13.339 33.3064H16.1365C14.2285 30.4937 13.1956 27.1603 13.1956 23.7315C13.1956 18.9512 15.1801 14.4335 18.6709 11.1957C18.0158 10.2215 17.6667 9.07064 17.6667 7.87198C17.6667 4.56254 20.3637 1.86914 23.6776 1.86914C26.9915 1.86914 29.6933 4.56254 29.6933 7.87198C29.6933 9.07064 29.3394 10.2263 28.6891 11.2005C29.6837 12.1174 30.5636 13.1537 31.3191 14.2855L31.7543 14.935L25.0213 21.6542C24.8109 21.8643 24.8109 22.2272 25.0213 22.4421C25.1217 22.5424 25.2604 22.5997 25.4134 22.5997C25.5665 22.5997 25.7004 22.5424 25.8056 22.4373L25.8486 22.3944L32.5481 16.4918L33.0597 17.7287C33.8535 19.6437 34.1596 21.3294 34.1596 23.7267C34.1596 27.1556 33.1267 30.4889 31.2235 33.3017H34.0209C36.5936 33.3017 38.6833 35.3886 38.6833 37.9578V38.3064C38.6833 40.8756 36.5936 42.9626 34.0209 42.9626H13.339V42.9673Z" fill="white"/>
<path d="M23.6778 2.82427C26.4753 2.82427 28.7371 5.0831 28.7371 7.87201C28.7371 9.20438 28.2207 10.4221 27.3743 11.3199C28.5841 12.3228 29.6457 13.5024 30.5208 14.8156L24.3425 20.9808C23.7591 21.5682 23.7591 22.5281 24.3425 23.1155C24.6342 23.4068 25.0215 23.5548 25.4089 23.5548C25.7962 23.5548 26.1836 23.4068 26.4753 23.1155L32.1705 18.0964C32.95 19.9827 33.1987 21.5634 33.1987 23.7315C33.1987 27.7525 31.7258 31.4345 29.2823 34.2616H34.0164C36.0583 34.2616 37.7224 35.9282 37.7224 37.9626V38.3112C37.7224 40.3456 36.0583 42.0122 34.0164 42.0122H13.3345C11.2926 42.0122 9.62371 40.3456 9.62371 38.3112V37.9626C9.62371 35.9282 11.2926 34.2616 13.3345 34.2616H18.0686C15.625 31.4345 14.1474 27.7525 14.1474 23.7315C14.1474 18.7411 16.4188 14.276 19.9814 11.3152C19.1302 10.4174 18.6185 9.20438 18.6185 7.87201C18.6185 5.0831 20.8804 2.82427 23.673 2.82427M23.673 0.914062C19.8332 0.914062 16.7058 4.03726 16.7058 7.87201C16.7058 8.98948 16.9688 10.0687 17.4613 11.0334C14.1187 14.4049 12.2346 18.9417 12.2346 23.7315C12.2346 26.764 12.9998 29.7248 14.4343 32.3514H13.3345C10.2358 32.3514 7.71094 34.8681 7.71094 37.9626V38.3112C7.71094 41.4057 10.2358 43.9225 13.3345 43.9225H34.0164C37.1151 43.9225 39.6351 41.4057 39.6351 38.3112V37.9626C39.6351 34.8681 37.1151 32.3514 34.0164 32.3514H32.9165C34.3463 29.7248 35.1114 26.764 35.1114 23.7315C35.1114 21.1957 34.7815 19.4097 33.9399 17.3658L32.9165 14.892L32.883 14.9207L32.1084 13.7602C31.4533 12.7812 30.7121 11.8691 29.8896 11.0382C30.3869 10.0688 30.6451 8.98949 30.6451 7.87679C30.6451 4.04204 27.5177 0.918843 23.673 0.918843V0.914062Z" fill="#40392E"/>
<path opacity="0.2" d="M23.3721 4.77246C24.5771 4.9014 25.6148 5.67981 26.0595 6.78295C26.686 8.3541 25.7678 9.72468 25.6913 9.82974" stroke="black" stroke-width="2" stroke-miterlimit="10" stroke-linecap="round"/>
<path opacity="0.2" d="M21.4785 34.1329C21.4785 34.1329 24.209 34.1473 26.3848 34.152C27.4751 32.9964 29.2779 30.7566 30.2486 27.4377C30.8702 25.3269 30.9515 23.4644 30.8989 22.1416" stroke="black" stroke-width="2" stroke-miterlimit="10" stroke-linecap="round"/>
</svg>
