<svg width="47" height="46" viewBox="0 0 47 46" fill="none" xmlns="http://www.w3.org/2000/svg">
<path d="M12.8409 42.2104C10.5264 42.2104 8.53715 40.558 8.10677 38.2849C8.05417 37.9649 8.03027 37.6832 8.03027 37.4062C8.03027 36.1263 8.53236 34.9229 9.44571 34.0156C10.3638 33.1082 11.5689 32.6068 12.8409 32.6068H13.276C15.447 31.2266 16.7669 29.0586 17.5559 27.1674C16.2743 26.7472 15.3418 25.539 15.3418 24.1207V23.3518C15.3418 22.7931 15.4901 22.2487 15.7627 21.7759C13.7351 19.8084 12.5874 17.1197 12.5874 14.2592C12.5874 8.47127 17.3024 3.75781 23.0981 3.75781C28.8938 3.75781 33.6136 8.47127 33.6136 14.2592C33.6136 17.115 32.466 19.8084 30.4384 21.7759C30.711 22.2534 30.8592 22.7931 30.8592 23.3518V24.1207C30.8592 25.539 29.9315 26.7472 28.6452 27.1674C29.4342 29.0586 30.754 31.2266 32.925 32.6068H33.2263C35.8802 32.6068 38.0369 34.7605 38.0369 37.4062C38.0369 37.5494 38.0321 37.6832 38.0178 37.8216C37.9174 38.9439 37.4248 40.0041 36.6215 40.8064C35.7129 41.7137 34.5078 42.2151 33.2263 42.2151H12.8361L12.8409 42.2104Z" fill="white"/>
<path d="M23.0985 4.71294C28.3777 4.71294 32.6576 8.98705 32.6576 14.2592C32.6576 17.2487 31.2852 19.9135 29.1285 21.6613C29.6019 22.072 29.9032 22.6785 29.9032 23.3518V24.1207C29.9032 25.3575 28.8894 26.37 27.6509 26.37H27.3257C28.3299 29.3499 30.0562 32.0146 32.6576 33.5619H33.2314C35.3498 33.5619 37.0856 35.2906 37.0856 37.4062C37.0856 37.5208 37.0856 37.6306 37.0713 37.7405C36.99 38.6669 36.574 39.5074 35.9523 40.1282C35.2542 40.8255 34.293 41.2553 33.2314 41.2553H12.8412C10.9619 41.2553 9.38387 39.8943 9.04913 38.1082C9.01088 37.879 8.98699 37.645 8.98699 37.4062C8.98699 36.346 9.42215 35.3862 10.1203 34.6889C10.8185 33.9965 11.7796 33.5619 12.8412 33.5619H13.549C16.1455 32.0146 17.8718 29.3499 18.876 26.37H18.5509C17.3123 26.37 16.2986 25.3575 16.2986 24.1207V23.3518C16.2986 22.6785 16.5998 22.072 17.0732 21.6613C14.9166 19.9135 13.5442 17.2487 13.5442 14.2592C13.5442 8.98705 17.8192 4.71294 23.0985 4.71294ZM23.0985 2.80273C16.7767 2.80273 11.6314 7.94121 11.6314 14.2592C11.6314 17.1484 12.7073 19.88 14.6249 21.9717C14.4719 22.4111 14.3858 22.8743 14.3858 23.3518V24.1207C14.3858 25.5868 15.1509 26.8809 16.3034 27.6211C15.5908 29.0777 14.534 30.5963 12.9895 31.6517H12.8412C11.311 31.6517 9.86686 32.2486 8.7718 33.3327C7.67674 34.4263 7.07422 35.8733 7.07422 37.4062C7.07422 37.7357 7.10291 38.0652 7.16029 38.4234V38.4616C7.67674 41.1884 10.0629 43.1655 12.8412 43.1655H33.2314C34.7712 43.1655 36.2153 42.5686 37.3056 41.4797C38.2668 40.5198 38.8597 39.2543 38.9793 37.9076C38.9936 37.7405 39.0032 37.5781 39.0032 37.4062C39.0032 34.2353 36.4162 31.6517 33.2362 31.6517H33.2218C31.6773 30.5963 30.6205 29.0777 29.908 27.6211C31.0604 26.8809 31.8255 25.5868 31.8255 24.1207V23.3518C31.8255 22.879 31.7442 22.4111 31.5864 21.9717C33.504 19.88 34.5799 17.1484 34.5799 14.2592C34.5799 7.94121 29.4345 2.80273 23.108 2.80273H23.0985Z" fill="#40392E"/>
<path opacity="0.2" d="M21.5059 7.43015C21.7928 7.34419 24.9536 6.4655 27.6076 8.58106C29.506 10.0949 30.4194 12.5591 29.9938 14.9898" stroke="black" stroke-width="2" stroke-miterlimit="10" stroke-linecap="round"/>
<path opacity="0.2" d="M18.6943 33.543H28" stroke="black" stroke-width="2" stroke-miterlimit="10" stroke-linecap="round"/>
</svg>
