<svg width="100" height="38" viewBox="0 0 100 38" fill="none" xmlns="http://www.w3.org/2000/svg">
<g clip-path="url(#clip0_579_9901)">
<path d="M21.0153 5.10173L30.0822 8.38434L35.0433 16.9332C34.4657 20.17 33.8913 23.4081 33.3215 26.6462L25.7195 32.9906H15.8016L8.19978 26.6462L6.47803 16.9332C8.12961 14.0829 9.78172 11.2313 11.4388 8.38434C14.5446 7.25568 17.6529 6.13326 20.7605 5.00928L21.0155 5.10147L21.0153 5.10173ZM20.139 22.0773H22.1691V25.5792C21.6478 25.9704 21.0446 26.2704 20.3586 26.4797C19.6726 26.6891 18.9822 26.7936 18.2873 26.7936C17.2906 26.7936 16.3944 26.5821 15.5989 26.1589C14.803 25.7357 14.1791 25.1493 13.7261 24.3987C13.2737 23.6482 13.0472 22.8002 13.0472 21.8541C13.0472 20.9083 13.2737 20.0598 13.7261 19.3093C14.1791 18.559 14.8077 17.9723 15.6123 17.5496C17.0539 16.7918 18.1046 16.8637 19.4635 17.0087V18.8796C18.5531 18.7791 17.6778 18.7127 16.8057 19.1799C16.3299 19.4346 15.96 19.7937 15.6948 20.2578C15.4293 20.7218 15.2968 21.2536 15.2968 21.8541C15.2968 22.4453 15.4295 22.9732 15.6948 23.437C15.96 23.9011 16.3278 24.2623 16.7989 24.5216C17.2696 24.781 17.8069 24.9107 18.4107 24.9107C19.0506 24.9107 19.6268 24.7742 20.139 24.5016V22.0773ZM20.1468 17.0814H20.1476V12.3625H24.0899C24.9403 12.3625 25.6786 12.5037 26.3052 12.7852C26.9312 13.0675 27.4137 13.4675 27.7525 13.986C28.0905 14.5045 28.26 15.1183 28.26 15.828C28.26 16.5283 28.0905 17.14 27.7525 17.6629C27.4137 18.1856 26.9317 18.5861 26.3052 18.8635C25.1131 19.3911 24.01 19.3213 22.8261 19.2056V17.3679C23.7377 17.4884 24.8183 17.602 25.4891 17.0488C25.8362 16.7621 26.0104 16.3556 26.0104 15.828C26.0104 15.291 25.8362 14.8795 25.4891 14.5931C25.1414 14.3063 24.6339 14.1631 23.966 14.1631H22.1555V16.4017H22.143V19.5794H22.1555V21.433H20.1476V18.9525H20.1468V17.0809V17.0814ZM28.9315 11.3008C26.8403 9.22108 23.9511 7.93433 20.7605 7.93433C17.5699 7.93433 14.6807 9.22108 12.5895 11.3008C10.4986 13.3808 9.20492 16.2545 9.20492 19.428C9.20492 22.6015 10.4986 25.4753 12.5895 27.555C14.6807 29.6348 17.5699 30.9215 20.7605 30.9215C23.9511 30.9215 26.8403 29.6348 28.9315 27.555C31.0225 25.4753 32.3161 22.6015 32.3161 19.428C32.3161 16.2545 31.0225 13.3808 28.9315 11.3008Z" fill="#F9F1DF"/>
<path d="M43.7919 8.17093C44.6929 8.17093 45.4749 8.32015 46.1384 8.61886C46.8019 8.91756 47.3127 9.34153 47.6711 9.8905C48.0296 10.4395 48.2086 11.09 48.2086 11.8413C48.2086 12.5833 48.0296 13.2309 47.6711 13.7848C47.3127 14.3388 46.8019 14.7627 46.1384 15.0565C45.4749 15.3502 44.6929 15.4971 43.7919 15.4971H41.7434V18.286H39.3899V8.17067H43.7919V8.17093ZM43.6613 13.5898C44.3682 13.5898 44.9057 13.438 45.2739 13.1346C45.642 12.8312 45.8258 12.4002 45.8258 11.8413C45.8258 11.2731 45.6417 10.8371 45.2739 10.5335C44.9057 10.2301 44.3682 10.0783 43.6613 10.0783H41.7434V13.5898H43.6613ZM56.359 18.286L54.3976 15.4682H54.2814H52.2329V18.286H49.8793V8.17067H54.2814C55.1823 8.17067 55.9644 8.31989 56.6279 8.6186C57.2913 8.9173 57.8021 9.34127 58.1606 9.89024C58.519 10.4392 58.6981 11.0897 58.6981 11.8411C58.6981 12.5926 58.5164 13.2403 58.1532 13.7846C57.7901 14.3289 57.2743 14.7455 56.6059 15.0346L58.8869 18.286H56.359ZM56.3152 11.8411C56.3152 11.2728 56.1312 10.8369 55.7633 10.5332C55.3952 10.2298 54.8577 10.078 54.1507 10.078H52.2329V13.6038H54.1507C54.8577 13.6038 55.3952 13.4497 55.7633 13.1413C56.1314 12.833 56.3152 12.3997 56.3152 11.8408V11.8411ZM60.5576 8.17067H62.9111V18.286H60.5576V8.17067ZM81.8847 16.1182H77.1632L76.2623 18.2857H73.8506L78.3833 8.17041H80.7078L85.2552 18.2857H82.7854L81.8844 16.1182H81.8847ZM81.1437 14.3408L79.5312 10.4681L77.9186 14.3408H81.1437ZM87.914 10.078H84.6598V8.17041H93.522V10.078H90.2675V18.2857H87.914V10.078Z" fill="#F9F1DF"/>
<path d="M45.7257 25.9492H47.851V30.0052C47.3053 30.4146 46.6735 30.7289 45.9556 30.9479C45.2377 31.167 44.5151 31.2763 43.7875 31.2763C42.7441 31.2763 41.806 31.055 40.9731 30.6123C40.1403 30.1695 39.487 29.5555 39.0131 28.7698C38.5392 27.9843 38.3022 27.0966 38.3022 26.1062C38.3022 25.1158 38.5392 24.228 39.0131 23.4426C39.487 22.6569 40.1452 22.0428 40.9875 21.6001C41.8301 21.1574 42.7776 20.936 43.8307 20.936C44.7114 20.936 45.5105 21.0837 46.2287 21.3788C46.9466 21.6741 47.5496 22.1025 48.0379 22.6642L46.5447 24.0353C45.8268 23.283 44.9604 22.9069 43.9459 22.9069C43.3044 22.9069 42.7349 23.0402 42.2372 23.3067C41.7395 23.5733 41.3517 23.9494 41.0742 24.4351C40.7966 24.9207 40.6579 25.4778 40.6579 26.1062C40.6579 26.7252 40.7966 27.2773 41.0742 27.763C41.352 28.2484 41.7371 28.6271 42.2301 28.8984C42.7231 29.1698 43.2855 29.3055 43.9173 29.3055C44.5873 29.3055 45.1906 29.1628 45.7265 28.8771V25.9494L45.7257 25.9492ZM71.3426 31.2477L71.3282 25.2491L68.3701 30.1909H67.3218L64.3781 25.3778V31.2477H62.1955V21.2501H64.1197L67.8818 27.463L71.5864 21.2501H73.4961L73.5249 31.2477H71.3423H71.3426ZM83.6913 29.3909V31.2477H75.9085V21.2501H83.5046V23.1069H78.2205V25.2778H82.8872V27.0773H78.2205V29.3911H83.6913V29.3909ZM88.8461 31.4191C88.0514 31.4191 87.2832 31.312 86.5415 31.0977C85.7995 30.8834 85.2036 30.605 84.7537 30.262L85.5434 28.5198C85.9741 28.8338 86.4862 29.0862 87.0798 29.2768C87.6733 29.4672 88.2669 29.5625 88.8605 29.5625C89.521 29.5625 90.0091 29.4648 90.3251 29.2698C90.6409 29.0747 90.7987 28.8151 90.7987 28.4914C90.7987 28.2534 90.7055 28.0557 90.5188 27.8987C90.3322 27.7414 90.0929 27.6153 89.8009 27.52C89.509 27.4247 89.1142 27.32 88.6162 27.2057C87.8503 27.0247 87.2233 26.844 86.7352 26.663C86.2469 26.482 85.8283 26.1916 85.4787 25.7916C85.1292 25.3919 84.9546 24.8585 84.9546 24.1921C84.9546 23.6113 85.1124 23.0853 85.4285 22.6139C85.7442 22.1426 86.2205 21.7689 86.8572 21.4928C87.4937 21.2168 88.2716 21.0787 89.1906 21.0787C89.8321 21.0787 90.4589 21.1548 91.0716 21.3071C91.6842 21.4595 92.2202 21.6785 92.6797 21.9642L91.9618 23.721C91.0333 23.1973 90.1046 22.9356 89.1762 22.9356C88.5253 22.9356 88.0441 23.0402 87.733 23.2496C87.422 23.459 87.2665 23.7353 87.2665 24.078C87.2665 24.4207 87.4458 24.6754 87.805 24.8421C88.164 25.0088 88.712 25.1728 89.449 25.3348C90.2149 25.5158 90.8419 25.6968 91.33 25.8775C91.8183 26.0585 92.2369 26.3442 92.5865 26.7346C92.936 27.125 93.1106 27.6534 93.1106 28.3198C93.1106 28.8911 92.9504 29.4125 92.6297 29.8836C92.3089 30.355 91.828 30.7287 91.1865 31.0047C90.545 31.2808 89.7651 31.4188 88.8461 31.4188V31.4191Z" fill="#F9F1DF"/>
<path d="M68.8335 17.7869C67.8509 16.7718 65.0873 14.9553 64.0761 12.6105C63.4923 11.2555 63.4239 9.51616 64.9891 8.62083C67.1413 7.43383 68.8335 9.69116 68.8335 9.69116C68.8335 9.69116 70.5262 7.43383 72.6784 8.62083C74.2435 9.51616 74.1757 11.2555 73.5916 12.6105C72.5802 14.9553 69.7402 16.7715 68.8332 17.7869H68.8335Z" fill="#D93C44"/>
<path d="M55.1443 31.9858C55.1443 31.9858 53.0963 28.361 49.4946 26.3659C53.0965 24.42 55.1443 20.7515 55.1443 20.7515C55.1443 20.7515 57.1933 24.42 60.795 26.3659C57.1933 28.361 55.1443 31.9858 55.1443 31.9858Z" fill="#D93C44"/>
</g>
<defs>
<clipPath id="clip0_579_9901">
<rect width="100" height="38" fill="white"/>
</clipPath>
</defs>
</svg>
