<svg width="18" height="18" viewBox="0 0 18 18" fill="none" xmlns="http://www.w3.org/2000/svg">
<path d="M14.9453 14.8328C16.4759 13.2772 17.3337 11.1823 17.3337 9.00002C17.3337 6.8177 16.4759 4.72282 14.9453 3.16722C14.9309 3.14467 14.9118 3.12554 14.8892 3.11113C14.8748 3.08859 14.8557 3.06945 14.8331 3.05505C13.2775 1.52448 11.1826 0.666687 9.00033 0.666687C6.818 0.666687 4.72312 1.52448 3.16752 3.05505C3.14498 3.06945 3.12584 3.08859 3.11144 3.11113C3.08889 3.12554 3.06976 3.14467 3.05535 3.16722C1.52478 4.72282 0.666992 6.8177 0.666992 9.00002C0.666992 11.1823 1.52478 13.2772 3.05535 14.8328L3.11144 14.8889C3.12584 14.9115 3.14498 14.9306 3.16752 14.945C4.72312 16.4756 6.818 17.3334 9.00033 17.3334C11.1826 17.3334 13.2775 16.4756 14.8331 14.945C14.8557 14.9306 14.8748 14.9115 14.8892 14.8889C14.9118 14.8745 14.9309 14.8554 14.9453 14.8328ZM1.98173 9.64099H3.91265C4.02801 10.5529 4.38791 11.4167 4.95422 12.1408L3.58415 13.5108C2.66815 12.4143 2.10905 11.0641 1.98173 9.64099ZM3.58415 4.48921L4.95422 5.85928C4.38791 6.58334 4.02801 7.4471 3.91265 8.35905H1.98173C2.10905 6.93596 2.66815 5.58573 3.58415 4.48921ZM16.0189 8.35905H14.088C13.9726 7.4471 13.6127 6.58334 13.0464 5.85928L14.4165 4.48921C15.3325 5.58573 15.8916 6.93596 16.0189 8.35905ZM12.1411 4.95391C11.417 4.38761 10.5532 4.02771 9.64129 3.91234V1.98143C11.0644 2.10874 12.4146 2.66784 13.5111 3.58385L12.1411 4.95391ZM8.35936 3.91234C7.44741 4.02771 6.58365 4.38761 5.85959 4.95391L4.48952 3.58385C5.58604 2.66784 6.93626 2.10874 8.35936 1.98143V3.91234ZM5.85959 13.0461C6.58365 13.6124 7.44741 13.9723 8.35936 14.0877V16.0186C6.93626 15.8913 5.58604 15.3322 4.48952 14.4162L5.85959 13.0461ZM9.64129 14.0877C10.5532 13.9723 11.417 13.6124 12.1411 13.0461L13.5111 14.4162C12.4146 15.3322 11.0644 15.8913 9.64129 16.0186V14.0877ZM13.0464 12.1408C13.6127 11.4167 13.9726 10.5529 14.088 9.64099H16.0189C15.8916 11.0641 15.3325 12.4143 14.4165 13.5108L13.0464 12.1408Z" fill="#21201E"/>
</svg>
