<svg width="16" height="13" viewBox="0 0 16 13" fill="none" xmlns="http://www.w3.org/2000/svg">
<path d="M1.35167 1.36761C3.56667 1.99935 5.78333 1.40998 8 0.819732C10.4167 0.176383 12.8333 -0.467256 15.25 0.475278C15.7194 0.658387 16 1.14968 16 1.67318V10.6644C16 11.3579 15.2889 11.8164 14.6472 11.6336C12.4333 11.001 10.2167 11.5901 8 12.1792C5.55833 12.8234 3.14167 13.4676 0.749167 12.5245C0.279444 12.3417 0 11.8513 0 11.326V2.33597C0 1.64213 0.711389 1.18479 1.35167 1.36761ZM7.975 9.286C9.22778 9.286 10.2222 8.03818 10.2222 6.47407C10.2222 4.93606 9.22778 3.68825 7.975 3.68825C6.77222 3.68825 5.75278 4.93606 5.75278 6.47407C5.75278 8.03818 6.77222 9.286 7.975 9.286ZM1.75278 11.1432H3.53056C3.53056 10.1188 2.75972 9.286 1.75278 9.286V11.1432ZM1.75278 3.22395V5.08116C2.75972 5.08116 3.53056 4.27443 3.53056 3.22395H1.75278ZM14.2222 7.86697C13.2417 7.86697 12.4444 8.72593 12.4444 9.7503H14.2222V7.86697ZM12.4444 1.83104C12.4444 2.88153 13.2417 3.68825 14.2222 3.68825V1.83104H12.4444Z" fill="#21201E"/>
</svg>
