<svg width="44" height="45" viewBox="0 0 44 45" fill="none" xmlns="http://www.w3.org/2000/svg">
<g filter="url(#filter0_d_49_29068)">
<circle cx="22" cy="18.7676" r="18" fill="#1F1F1F"/>
<circle cx="22" cy="18.7676" r="15" fill="#444444"/>
<circle cx="22" cy="18.7676" r="14.5" stroke="url(#paint0_linear_49_29068)" stroke-opacity="0.2"/>
<ellipse cx="22" cy="18.7676" rx="11" ry="11" transform="rotate(-180 22 18.7676)" fill="#444444"/>
<path d="M11.5 18.7676C11.5 12.9686 16.201 8.26758 22 8.26758C27.799 8.26758 32.5 12.9686 32.5 18.7676C32.5 24.5666 27.799 29.2676 22 29.2676C16.201 29.2676 11.5 24.5666 11.5 18.7676Z" stroke="url(#paint1_linear_49_29068)" stroke-opacity="0.2"/>
<g clip-path="url(#clip0_49_29068)">
<path d="M16.332 18.4195L17.1647 21.3408C18.3547 20.9802 20.0969 20.7534 22.0393 20.7534C23.9817 20.7534 25.7248 20.9802 26.9138 21.3408C27.1917 20.3665 27.4696 19.393 27.7474 18.4195C24.7566 18.4195 22.0686 16.6816 22.0686 16.6816C22.0686 16.6816 19.5023 18.4195 16.332 18.4195V18.4195Z" fill="white"/>
<path d="M22.4984 21.466C22.3854 21.4643 22.2723 21.4626 22.1584 21.4618C22.1032 21.4609 22.0471 21.4609 21.991 21.4609C21.9505 21.4609 21.9108 21.4609 21.8711 21.4618C21.7572 21.4626 21.6433 21.4635 21.5311 21.466C20.153 21.4914 18.8941 21.6311 17.8871 21.8503C17.6765 21.896 17.4763 21.9451 17.2891 21.9976L17.2925 22.0103L17.5298 22.8551C18.5886 22.5885 19.9848 22.4158 21.5311 22.3879C21.6433 22.3853 21.7572 22.3845 21.8711 22.3836C21.9108 22.3828 21.9505 22.3828 21.991 22.3828C22.0471 22.3828 22.1032 22.3828 22.1584 22.3836C22.2723 22.3845 22.3854 22.3862 22.4984 22.3879C24.0465 22.42 25.4427 22.5961 26.4963 22.867L26.737 22.0103C26.536 21.9536 26.3211 21.8994 26.0933 21.8503C25.0975 21.6336 23.8566 21.494 22.4984 21.466V21.466Z" fill="white"/>
<path d="M22.0392 15.8031C22.9476 15.8031 23.6839 15.0807 23.6839 14.1896C23.6839 13.2985 22.9476 12.5762 22.0392 12.5762C21.1309 12.5762 20.3945 13.2985 20.3945 14.1896C20.3945 15.0807 21.1309 15.8031 22.0392 15.8031Z" fill="white"/>
<path d="M28.3556 17.6429C29.264 17.6429 30.0003 16.9206 30.0003 16.0295C30.0003 15.1384 29.264 14.416 28.3556 14.416C27.4473 14.416 26.7109 15.1384 26.7109 16.0295C26.7109 16.9206 27.4473 17.6429 28.3556 17.6429Z" fill="white"/>
<path d="M17.1645 16.6466C17.5121 15.8233 17.1136 14.8795 16.2744 14.5385C15.4352 14.1975 14.4731 14.5885 14.1255 15.4117C13.7779 16.235 14.1764 17.1788 15.0156 17.5198C15.8548 17.8608 16.8169 17.4698 17.1645 16.6466Z" fill="white"/>
</g>
</g>
<defs>
<filter id="filter0_d_49_29068" x="0" y="0.767578" width="44" height="44.2324" filterUnits="userSpaceOnUse" color-interpolation-filters="sRGB">
<feFlood flood-opacity="0" result="BackgroundImageFix"/>
<feColorMatrix in="SourceAlpha" type="matrix" values="0 0 0 0 0 0 0 0 0 0 0 0 0 0 0 0 0 0 127 0" result="hardAlpha"/>
<feOffset dy="4"/>
<feGaussianBlur stdDeviation="2"/>
<feComposite in2="hardAlpha" operator="out"/>
<feColorMatrix type="matrix" values="0 0 0 0 0 0 0 0 0 0 0 0 0 0 0 0 0 0 0.15 0"/>
<feBlend mode="normal" in2="BackgroundImageFix" result="effect1_dropShadow_49_29068"/>
<feBlend mode="normal" in="SourceGraphic" in2="effect1_dropShadow_49_29068" result="shape"/>
</filter>
<linearGradient id="paint0_linear_49_29068" x1="22" y1="3.76758" x2="22" y2="33.7676" gradientUnits="userSpaceOnUse">
<stop stop-color="white"/>
<stop offset="1"/>
</linearGradient>
<linearGradient id="paint1_linear_49_29068" x1="22" y1="29.7676" x2="22" y2="7.76758" gradientUnits="userSpaceOnUse">
<stop stop-color="white"/>
<stop offset="1"/>
</linearGradient>
<clipPath id="clip0_49_29068">
<rect width="16" height="10.2902" fill="white" transform="translate(14 12.5762)"/>
</clipPath>
</defs>
</svg>
