<svg width="44" height="45" viewBox="0 0 44 45" fill="none" xmlns="http://www.w3.org/2000/svg">
<g filter="url(#filter0_d_49_29078)">
<circle cx="22" cy="18.7676" r="18" fill="#EEEEEE"/>
<circle r="15" transform="matrix(-1 0 0 1 22 18.7676)" fill="white"/>
<circle r="14.5" transform="matrix(-1 0 0 1 22 18.7676)" stroke="url(#paint0_linear_49_29078)" stroke-opacity="0.1"/>
<ellipse rx="10.9067" ry="11" transform="matrix(1 -8.43373e-08 -9.06212e-08 -1 21.9067 18.7676)" fill="white"/>
<path d="M32.3134 18.7676C32.3134 12.9646 27.6501 8.26758 21.9067 8.26758C16.1632 8.26758 11.5 12.9646 11.5 18.7676C11.5 24.5706 16.1632 29.2676 21.9067 29.2676C27.6501 29.2676 32.3134 24.5706 32.3134 18.7676Z" stroke="url(#paint1_linear_49_29078)" stroke-opacity="0.1"/>
<g clip-path="url(#clip0_49_29078)">
<path d="M27.668 19.3844L26.8353 22.3057C25.6453 21.9451 23.9031 21.7182 21.9607 21.7182C20.0183 21.7182 18.2752 21.9451 17.0862 22.3057C16.8083 21.3314 16.5304 20.3579 16.2526 19.3844C19.2434 19.3844 21.9314 17.6465 21.9314 17.6465C21.9314 17.6465 24.4977 19.3844 27.668 19.3844V19.3844Z" fill="#444444"/>
<path d="M21.5016 22.4309C21.6146 22.4292 21.7277 22.4275 21.8416 22.4266C21.8968 22.4258 21.9529 22.4258 22.009 22.4258C22.0495 22.4258 22.0892 22.4258 22.1289 22.4266C22.2428 22.4275 22.3567 22.4283 22.4689 22.4309C23.847 22.4563 25.1059 22.5959 26.1129 22.8152C26.3235 22.8609 26.5237 22.91 26.7109 22.9625L26.7075 22.9752L26.4702 23.82C25.4114 23.5533 24.0152 23.3806 22.4689 23.3527C22.3567 23.3502 22.2428 23.3493 22.1289 23.3485C22.0892 23.3476 22.0495 23.3476 22.009 23.3476C21.9529 23.3476 21.8968 23.3476 21.8416 23.3485C21.7277 23.3493 21.6146 23.351 21.5016 23.3527C19.9535 23.3849 18.5573 23.561 17.5037 23.8318L17.263 22.9752C17.464 22.9185 17.6789 22.8643 17.9067 22.8152C18.9025 22.5985 20.1434 22.4588 21.5016 22.4309V22.4309Z" fill="#444444"/>
<path d="M21.9608 16.7679C21.0524 16.7679 20.3161 16.0456 20.3161 15.1545C20.3161 14.2634 21.0524 13.541 21.9608 13.541C22.8691 13.541 23.6055 14.2634 23.6055 15.1545C23.6055 16.0456 22.8691 16.7679 21.9608 16.7679Z" fill="#444444"/>
<path d="M15.6444 18.6078C14.736 18.6078 13.9997 17.8854 13.9997 16.9943C13.9997 16.1032 14.736 15.3809 15.6444 15.3809C16.5527 15.3809 17.2891 16.1032 17.2891 16.9943C17.2891 17.8854 16.5527 18.6078 15.6444 18.6078Z" fill="#444444"/>
<path d="M26.8355 17.6114C26.4879 16.7882 26.8864 15.8444 27.7256 15.5034C28.5648 15.1624 29.5269 15.5533 29.8745 16.3766C30.2221 17.1998 29.8236 18.1436 28.9844 18.4846C28.1452 18.8256 27.1831 18.4347 26.8355 17.6114Z" fill="#444444"/>
</g>
</g>
<defs>
<filter id="filter0_d_49_29078" x="0" y="0.767578" width="44" height="44.2324" filterUnits="userSpaceOnUse" color-interpolation-filters="sRGB">
<feFlood flood-opacity="0" result="BackgroundImageFix"/>
<feColorMatrix in="SourceAlpha" type="matrix" values="0 0 0 0 0 0 0 0 0 0 0 0 0 0 0 0 0 0 127 0" result="hardAlpha"/>
<feOffset dy="4"/>
<feGaussianBlur stdDeviation="2"/>
<feComposite in2="hardAlpha" operator="out"/>
<feColorMatrix type="matrix" values="0 0 0 0 0 0 0 0 0 0 0 0 0 0 0 0 0 0 0.15 0"/>
<feBlend mode="normal" in2="BackgroundImageFix" result="effect1_dropShadow_49_29078"/>
<feBlend mode="normal" in="SourceGraphic" in2="effect1_dropShadow_49_29078" result="shape"/>
</filter>
<linearGradient id="paint0_linear_49_29078" x1="15" y1="0" x2="15" y2="30" gradientUnits="userSpaceOnUse">
<stop stop-color="white"/>
<stop offset="1"/>
</linearGradient>
<linearGradient id="paint1_linear_49_29078" x1="21.9067" y1="29.7676" x2="21.9067" y2="7.76758" gradientUnits="userSpaceOnUse">
<stop stop-color="white"/>
<stop offset="1"/>
</linearGradient>
<clipPath id="clip0_49_29078">
<rect width="16" height="10.2902" fill="white" transform="matrix(-1 0 0 1 30 13.541)"/>
</clipPath>
</defs>
</svg>
