<svg width="36" height="37" viewBox="0 0 36 37" fill="none" xmlns="http://www.w3.org/2000/svg">
<circle cx="18" cy="18.7676" r="18" fill="#1F1F1F"/>
<circle cx="18" cy="18.7676" r="15" fill="#444444"/>
<circle cx="18" cy="18.7676" r="14.5" stroke="url(#paint0_linear_49_29068)" stroke-opacity="0.2"/>
<ellipse cx="18" cy="18.7676" rx="11" ry="11" transform="rotate(-180 18 18.7676)" fill="#444444"/>
<path d="M7.5 18.7676C7.5 12.9686 12.201 8.26758 18 8.26758C23.799 8.26758 28.5 12.9686 28.5 18.7676C28.5 24.5666 23.799 29.2676 18 29.2676C12.201 29.2676 7.5 24.5666 7.5 18.7676Z" stroke="url(#paint1_linear_49_29068)" stroke-opacity="0.2"/>
<g clip-path="url(#clip0_49_29068)">
<path d="M12.332 18.4195L13.1647 21.3408C14.3547 20.9802 16.0969 20.7534 18.0393 20.7534C19.9817 20.7534 21.7248 20.9802 22.9138 21.3408C23.1917 20.3665 23.4696 19.393 23.7474 18.4195C20.7566 18.4195 18.0686 16.6816 18.0686 16.6816C18.0686 16.6816 15.5023 18.4195 12.332 18.4195Z" fill="white"/>
<path d="M18.4984 21.466C18.3854 21.4643 18.2723 21.4626 18.1584 21.4618C18.1032 21.4609 18.0471 21.4609 17.991 21.4609C17.9505 21.4609 17.9108 21.4609 17.8711 21.4618C17.7572 21.4626 17.6433 21.4635 17.5311 21.466C16.153 21.4914 14.8941 21.6311 13.8871 21.8503C13.6765 21.896 13.4763 21.9451 13.2891 21.9976L13.2925 22.0103L13.5298 22.8551C14.5886 22.5885 15.9848 22.4158 17.5311 22.3879C17.6433 22.3853 17.7572 22.3845 17.8711 22.3836C17.9108 22.3828 17.9505 22.3828 17.991 22.3828C18.0471 22.3828 18.1032 22.3828 18.1584 22.3836C18.2723 22.3845 18.3854 22.3862 18.4984 22.3879C20.0465 22.42 21.4427 22.5961 22.4963 22.867L22.737 22.0103C22.536 21.9536 22.3211 21.8994 22.0933 21.8503C21.0975 21.6336 19.8566 21.494 18.4984 21.466Z" fill="white"/>
<path d="M18.0392 15.8031C18.9476 15.8031 19.6839 15.0807 19.6839 14.1896C19.6839 13.2985 18.9476 12.5762 18.0392 12.5762C17.1309 12.5762 16.3945 13.2985 16.3945 14.1896C16.3945 15.0807 17.1309 15.8031 18.0392 15.8031Z" fill="white"/>
<path d="M24.3556 17.6429C25.264 17.6429 26.0003 16.9206 26.0003 16.0295C26.0003 15.1384 25.264 14.416 24.3556 14.416C23.4473 14.416 22.7109 15.1384 22.7109 16.0295C22.7109 16.9206 23.4473 17.6429 24.3556 17.6429Z" fill="white"/>
<path d="M13.1645 16.6466C13.5121 15.8233 13.1136 14.8795 12.2744 14.5385C11.4352 14.1975 10.4731 14.5885 10.1255 15.4117C9.77789 16.235 10.1764 17.1788 11.0156 17.5198C11.8548 17.8608 12.8169 17.4698 13.1645 16.6466Z" fill="white"/>
</g>
<defs>
<linearGradient id="paint0_linear_49_29068" x1="18" y1="3.76758" x2="18" y2="33.7676" gradientUnits="userSpaceOnUse">
<stop stop-color="white"/>
<stop offset="1"/>
</linearGradient>
<linearGradient id="paint1_linear_49_29068" x1="18" y1="29.7676" x2="18" y2="7.76758" gradientUnits="userSpaceOnUse">
<stop stop-color="white"/>
<stop offset="1"/>
</linearGradient>
<clipPath id="clip0_49_29068">
<rect width="16" height="10.2902" fill="white" transform="translate(10 12.5762)"/>
</clipPath>
</defs>
</svg>
