<svg width="36" height="37" viewBox="0 0 36 37" fill="none" xmlns="http://www.w3.org/2000/svg">
<circle cx="18" cy="18.7676" r="18" fill="#EEEEEE"/>
<circle r="15" transform="matrix(-1 0 0 1 18 18.7676)" fill="white"/>
<circle r="14.5" transform="matrix(-1 0 0 1 18 18.7676)" stroke="url(#paint0_linear_49_29078)" stroke-opacity="0.1"/>
<ellipse rx="10.9067" ry="11" transform="matrix(1 -8.43373e-08 -9.06212e-08 -1 17.9067 18.7676)" fill="white"/>
<path d="M28.3134 18.7676C28.3134 12.9646 23.6501 8.26758 17.9067 8.26758C12.1632 8.26758 7.5 12.9646 7.5 18.7676C7.5 24.5706 12.1632 29.2676 17.9067 29.2676C23.6501 29.2676 28.3134 24.5706 28.3134 18.7676Z" stroke="url(#paint1_linear_49_29078)" stroke-opacity="0.1"/>
<g clip-path="url(#clip0_49_29078)">
<path d="M23.668 19.3844L22.8353 22.3057C21.6453 21.9451 19.9031 21.7182 17.9607 21.7182C16.0183 21.7182 14.2752 21.9451 13.0862 22.3057C12.8083 21.3314 12.5304 20.3579 12.2526 19.3844C15.2434 19.3844 17.9314 17.6465 17.9314 17.6465C17.9314 17.6465 20.4977 19.3844 23.668 19.3844Z" fill="#444444"/>
<path d="M17.5016 22.4309C17.6146 22.4292 17.7277 22.4275 17.8416 22.4266C17.8968 22.4258 17.9529 22.4258 18.009 22.4258C18.0495 22.4258 18.0892 22.4258 18.1289 22.4266C18.2428 22.4275 18.3567 22.4283 18.4689 22.4309C19.847 22.4563 21.1059 22.5959 22.1129 22.8152C22.3235 22.8609 22.5237 22.91 22.7109 22.9625L22.7075 22.9752L22.4702 23.82C21.4114 23.5533 20.0152 23.3806 18.4689 23.3527C18.3567 23.3502 18.2428 23.3493 18.1289 23.3485C18.0892 23.3476 18.0495 23.3476 18.009 23.3476C17.9529 23.3476 17.8968 23.3476 17.8416 23.3485C17.7277 23.3493 17.6146 23.351 17.5016 23.3527C15.9535 23.3849 14.5573 23.561 13.5037 23.8318L13.263 22.9752C13.464 22.9185 13.6789 22.8643 13.9067 22.8152C14.9025 22.5985 16.1434 22.4588 17.5016 22.4309Z" fill="#444444"/>
<path d="M17.9608 16.7679C17.0524 16.7679 16.3161 16.0456 16.3161 15.1545C16.3161 14.2634 17.0524 13.541 17.9608 13.541C18.8691 13.541 19.6055 14.2634 19.6055 15.1545C19.6055 16.0456 18.8691 16.7679 17.9608 16.7679Z" fill="#444444"/>
<path d="M11.6444 18.6078C10.736 18.6078 9.99967 17.8854 9.99967 16.9943C9.99967 16.1032 10.736 15.3809 11.6444 15.3809C12.5527 15.3809 13.2891 16.1032 13.2891 16.9943C13.2891 17.8854 12.5527 18.6078 11.6444 18.6078Z" fill="#444444"/>
<path d="M22.8355 17.6114C22.4879 16.7882 22.8864 15.8444 23.7256 15.5034C24.5648 15.1624 25.5269 15.5533 25.8745 16.3766C26.2221 17.1998 25.8236 18.1436 24.9844 18.4846C24.1452 18.8256 23.1831 18.4347 22.8355 17.6114Z" fill="#444444"/>
</g>
<defs>
<linearGradient id="paint0_linear_49_29078" x1="15" y1="0" x2="15" y2="30" gradientUnits="userSpaceOnUse">
<stop stop-color="white"/>
<stop offset="1"/>
</linearGradient>
<linearGradient id="paint1_linear_49_29078" x1="17.9067" y1="29.7676" x2="17.9067" y2="7.76758" gradientUnits="userSpaceOnUse">
<stop stop-color="white"/>
<stop offset="1"/>
</linearGradient>
<clipPath id="clip0_49_29078">
<rect width="16" height="10.2902" fill="white" transform="matrix(-1 0 0 1 26 13.541)"/>
</clipPath>
</defs>
</svg>
