<svg width="16" height="11" viewBox="0 0 16 11" fill="none" xmlns="http://www.w3.org/2000/svg">
<g clip-path="url(#clip0_202_10935)">
<path d="M2.33203 6.41953L3.16474 9.34084C4.35468 8.98023 6.09689 8.75336 8.03929 8.75336C9.98169 8.75336 11.7248 8.98023 12.9138 9.34084C13.1917 8.36651 13.4696 7.39302 13.7474 6.41953C10.7566 6.41953 8.06863 4.68164 8.06863 4.68164C8.06863 4.68164 5.50235 6.41953 2.33203 6.41953Z" fill="white"/>
<path d="M8.49843 9.46602C8.38538 9.46432 8.27234 9.46263 8.15844 9.46178C8.10321 9.46094 8.04713 9.46094 7.99104 9.46094C7.95048 9.46094 7.91079 9.46094 7.87109 9.46178C7.75719 9.46263 7.64329 9.46348 7.53111 9.46602C6.15305 9.49141 4.89407 9.63109 3.88706 9.85033C3.67651 9.89605 3.47631 9.94514 3.28906 9.99763L3.29251 10.0103L3.52981 10.8551C4.5886 10.5885 5.98478 10.4158 7.53111 10.3879C7.64329 10.3853 7.75719 10.3845 7.87109 10.3836C7.91079 10.3828 7.95048 10.3828 7.99104 10.3828C8.04713 10.3828 8.10321 10.3828 8.15844 10.3836C8.27234 10.3845 8.38538 10.3862 8.49843 10.3879C10.0465 10.42 11.4427 10.5961 12.4963 10.867L12.737 10.0103C12.536 9.95361 12.3211 9.89943 12.0933 9.85033C11.0975 9.63363 9.85664 9.49395 8.49843 9.46602Z" fill="white"/>
<path d="M8.03923 3.80307C8.94757 3.80307 9.68393 3.08071 9.68393 2.18962C9.68393 1.29854 8.94757 0.576172 8.03923 0.576172C7.13089 0.576172 6.39453 1.29854 6.39453 2.18962C6.39453 3.08071 7.13089 3.80307 8.03923 3.80307Z" fill="white"/>
<path d="M14.3556 5.64292C15.264 5.64292 16.0003 4.92055 16.0003 4.02947C16.0003 3.13838 15.264 2.41602 14.3556 2.41602C13.4473 2.41602 12.7109 3.13838 12.7109 4.02947C12.7109 4.92055 13.4473 5.64292 14.3556 5.64292Z" fill="white"/>
<path d="M3.1645 4.64659C3.51211 3.82334 3.11359 2.87952 2.27439 2.53852C1.4352 2.19751 0.4731 2.58845 0.125493 3.41171C-0.222115 4.23496 0.176399 5.17878 1.0156 5.51978C1.8548 5.86079 2.81689 5.46985 3.1645 4.64659Z" fill="white"/>
</g>
<defs>
<clipPath id="clip0_202_10935">
<rect width="16" height="10.2902" fill="white" transform="translate(0 0.576172)"/>
</clipPath>
</defs>
</svg>
