<svg width="61" height="62" viewBox="0 0 61 62" fill="none" xmlns="http://www.w3.org/2000/svg">
<path d="M56.505 26.7846C54.1072 24.3898 50.857 23.0448 47.4681 23.0448C44.0792 23.0448 40.8289 24.3898 38.4312 26.7846L32.9321 32.2836C34.1267 28.4664 36.3901 25.0715 39.4542 22.5007C41.2378 20.7148 42.4531 18.4411 42.947 15.9658C43.4409 13.4906 43.1912 10.9247 42.2295 8.59105C41.2678 6.25743 39.6371 4.26053 37.5427 2.85197C35.4482 1.44341 32.9839 0.686149 30.4599 0.675537C27.9341 0.681961 25.4668 1.43624 23.3691 2.84319C21.2714 4.25013 19.6373 6.24675 18.6729 8.58122C17.7086 10.9157 17.4572 13.4834 17.9504 15.9606C18.4436 18.4378 19.6594 20.7135 21.4443 22.5007C24.5084 25.0715 26.7716 28.4664 27.9661 32.2836L22.4673 26.7846C20.6783 24.9976 18.3995 23.7811 15.9192 23.2888C13.439 22.7965 10.8685 23.0506 8.5326 24.0189C6.1967 24.9872 4.20028 26.6264 2.79573 28.7291C1.39118 30.8318 0.641479 33.3036 0.641479 35.8322C0.641479 38.3609 1.39118 40.8328 2.79573 42.9355C4.20028 45.0382 6.1967 46.6773 8.5326 47.6456C10.8685 48.614 13.439 48.868 15.9192 48.3758C18.3995 47.8835 20.6783 46.6669 22.4673 44.8799L28.8614 38.4858C28.8614 38.6137 28.8614 38.7202 28.8614 38.8481C28.8614 44.3897 28.0942 53.1282 21.9985 59.2239V61.3552H39.0493V59.2239C32.9963 53.1495 32.1435 44.4962 32.1862 38.9334C32.1862 38.7842 32.1862 38.6563 32.1862 38.4858L38.5802 44.8799C40.9865 47.2445 44.2295 48.5626 47.6031 48.5469C50.9767 48.5312 54.2075 47.1831 56.5917 44.7961C58.9758 42.4092 60.3202 39.1769 60.3319 35.8033C60.3437 32.4297 59.0216 29.1881 56.6541 26.7846H56.505Z" fill="#1F1F1F"/>
</svg>
