<svg width="61" height="55" viewBox="0 0 61 55" fill="none" xmlns="http://www.w3.org/2000/svg">
<path d="M44.5677 0.0695801C41.7439 0.0762169 38.9727 0.83376 36.5382 2.26448C34.1037 3.69521 32.0936 5.74765 30.7139 8.21138C28.985 5.13653 26.285 2.72194 23.0369 1.34574C19.7888 -0.0304594 16.1761 -0.290529 12.7644 0.606257C9.35271 1.50304 6.33479 3.50605 4.18329 6.30156C2.0318 9.09707 0.868321 12.5272 0.874906 16.0548C0.874906 33.7024 26.0249 43.1656 30.7139 54.4192C35.4242 43.1656 60.5529 33.7024 60.5529 16.0548C60.5529 11.8152 58.8686 7.74937 55.8708 4.75156C52.873 1.75376 48.8072 0.0695801 44.5677 0.0695801Z" fill="#C93112"/>
</svg>
