<svg width="26" height="52" viewBox="0 0 26 52" fill="none" xmlns="http://www.w3.org/2000/svg">
<rect width="26" height="52" rx="4" fill="#D9D9D9"/>
<rect x="1" y="1" width="24" height="50" rx="3" fill="white"/>
<rect x="1.5" y="1.5" width="23" height="49" rx="2.5" stroke="url(#paint0_linear_48_15994)" stroke-opacity="0.1"/>
<rect x="3" y="26" width="20" height="1" fill="#444444"/>
<circle cx="13" cy="13.5352" r="2.5" fill="#444444"/>
<circle cx="13" cy="13.5352" r="2" stroke="url(#paint1_linear_48_15994)" stroke-opacity="0.2"/>
<circle cx="8.5" cy="31.5" r="2.5" fill="#444444"/>
<circle cx="8.5" cy="31.5" r="2" stroke="url(#paint2_linear_48_15994)" stroke-opacity="0.2"/>
<circle cx="8.5" cy="38.5" r="2.5" fill="#444444"/>
<circle cx="8.5" cy="38.5" r="2" stroke="url(#paint3_linear_48_15994)" stroke-opacity="0.2"/>
<circle cx="8.5" cy="45.5" r="2.5" fill="#444444"/>
<circle cx="8.5" cy="45.5" r="2" stroke="url(#paint4_linear_48_15994)" stroke-opacity="0.2"/>
<circle cx="17.5" cy="31.5" r="2.5" fill="#444444"/>
<circle cx="17.5" cy="31.5" r="2" stroke="url(#paint5_linear_48_15994)" stroke-opacity="0.2"/>
<circle cx="17.5" cy="38.5" r="2.5" fill="#444444"/>
<circle cx="17.5" cy="38.5" r="2" stroke="url(#paint6_linear_48_15994)" stroke-opacity="0.2"/>
<circle cx="17.5" cy="45.5" r="2.5" fill="#444444"/>
<circle cx="17.5" cy="45.5" r="2" stroke="url(#paint7_linear_48_15994)" stroke-opacity="0.2"/>
<defs>
<linearGradient id="paint0_linear_48_15994" x1="13" y1="1" x2="13" y2="51" gradientUnits="userSpaceOnUse">
<stop stop-color="white"/>
<stop offset="1"/>
</linearGradient>
<linearGradient id="paint1_linear_48_15994" x1="13" y1="11.0352" x2="13" y2="16.0352" gradientUnits="userSpaceOnUse">
<stop stop-color="white"/>
<stop offset="1"/>
</linearGradient>
<linearGradient id="paint2_linear_48_15994" x1="8.5" y1="29" x2="8.5" y2="34" gradientUnits="userSpaceOnUse">
<stop stop-color="white"/>
<stop offset="1"/>
</linearGradient>
<linearGradient id="paint3_linear_48_15994" x1="8.5" y1="36" x2="8.5" y2="41" gradientUnits="userSpaceOnUse">
<stop stop-color="white"/>
<stop offset="1"/>
</linearGradient>
<linearGradient id="paint4_linear_48_15994" x1="8.5" y1="43" x2="8.5" y2="48" gradientUnits="userSpaceOnUse">
<stop stop-color="white"/>
<stop offset="1"/>
</linearGradient>
<linearGradient id="paint5_linear_48_15994" x1="17.5" y1="29" x2="17.5" y2="34" gradientUnits="userSpaceOnUse">
<stop stop-color="white"/>
<stop offset="1"/>
</linearGradient>
<linearGradient id="paint6_linear_48_15994" x1="17.5" y1="36" x2="17.5" y2="41" gradientUnits="userSpaceOnUse">
<stop stop-color="white"/>
<stop offset="1"/>
</linearGradient>
<linearGradient id="paint7_linear_48_15994" x1="17.5" y1="43" x2="17.5" y2="48" gradientUnits="userSpaceOnUse">
<stop stop-color="white"/>
<stop offset="1"/>
</linearGradient>
</defs>
</svg>
