<svg width="52" height="104" viewBox="0 0 52 104" fill="none" xmlns="http://www.w3.org/2000/svg">
<rect width="52" height="104" rx="4" fill="#D9D9D9"/>
<rect x="2" y="2" width="48" height="100" rx="3" fill="white"/>
<rect x="2.5" y="2.5" width="47" height="99" rx="2.5" stroke="url(#paint0_linear_49_56874)" stroke-opacity="0.1"/>
<rect x="6" y="52" width="40" height="2" fill="#444444"/>
<circle cx="26" cy="27.0703" r="5" fill="#444444"/>
<circle cx="26" cy="27.0703" r="4.5" stroke="url(#paint1_linear_49_56874)" stroke-opacity="0.2"/>
<circle cx="37" cy="17" r="5" fill="#444444"/>
<circle cx="37" cy="17" r="4.5" stroke="url(#paint2_linear_49_56874)" stroke-opacity="0.2"/>
<circle cx="15" cy="37" r="5" fill="#444444"/>
<circle cx="15" cy="37" r="4.5" stroke="url(#paint3_linear_49_56874)" stroke-opacity="0.2"/>
<circle cx="26" cy="77.0703" r="5" fill="#444444"/>
<circle cx="26" cy="77.0703" r="4.5" stroke="url(#paint4_linear_49_56874)" stroke-opacity="0.2"/>
<defs>
<linearGradient id="paint0_linear_49_56874" x1="26" y1="2" x2="26" y2="102" gradientUnits="userSpaceOnUse">
<stop stop-color="white"/>
<stop offset="1"/>
</linearGradient>
<linearGradient id="paint1_linear_49_56874" x1="26" y1="22.0703" x2="26" y2="32.0703" gradientUnits="userSpaceOnUse">
<stop stop-color="white"/>
<stop offset="1"/>
</linearGradient>
<linearGradient id="paint2_linear_49_56874" x1="37" y1="12" x2="37" y2="22" gradientUnits="userSpaceOnUse">
<stop stop-color="white"/>
<stop offset="1"/>
</linearGradient>
<linearGradient id="paint3_linear_49_56874" x1="15" y1="32" x2="15" y2="42" gradientUnits="userSpaceOnUse">
<stop stop-color="white"/>
<stop offset="1"/>
</linearGradient>
<linearGradient id="paint4_linear_49_56874" x1="26" y1="72.0703" x2="26" y2="82.0703" gradientUnits="userSpaceOnUse">
<stop stop-color="white"/>
<stop offset="1"/>
</linearGradient>
</defs>
</svg>
