<svg width="18" height="18" viewBox="0 0 18 18" fill="none" xmlns="http://www.w3.org/2000/svg">
<path d="M9.45005 1.7998C9.3307 1.7998 9.21624 1.84722 9.13185 1.93161C9.04746 2.016 9.00005 2.13046 9.00005 2.2498V4.5898C9.00005 5.8291 9.83435 6.8722 10.971 7.1908C10.773 9.65681 10.0602 11.4973 9.47615 12.6322C9.64175 12.8266 9.79745 12.9715 9.91895 13.0732C10.386 13.4638 10.8 14.1001 10.8 14.8939C10.8007 15.3638 10.6505 15.8216 10.3716 16.1998H15.3C15.6581 16.1998 16.0015 16.0576 16.2546 15.8044C16.5078 15.5512 16.65 15.2078 16.65 14.8498V14.5735C16.65 14.2603 16.5429 13.9714 16.3782 13.7347C15.8922 13.0354 14.5161 10.7737 14.2281 7.1899C14.7954 7.03089 15.2952 6.69075 15.6512 6.22132C16.0072 5.7519 16.1999 5.17895 16.2 4.5898V2.2498C16.2 2.13046 16.1526 2.016 16.0682 1.93161C15.9839 1.84722 15.8694 1.7998 15.75 1.7998H15.075C14.896 1.7998 14.7243 1.87092 14.5978 1.99751C14.4712 2.12409 14.4 2.29578 14.4 2.4748V3.1498C14.4002 3.2089 14.3886 3.26744 14.3661 3.32208C14.3436 3.37672 14.3106 3.4264 14.2689 3.46827C14.1847 3.55283 14.0703 3.60047 13.9509 3.6007C13.8316 3.60094 13.717 3.55376 13.6325 3.46954C13.5479 3.38532 13.5003 3.27095 13.5 3.1516V3.1498L13.4964 2.4712C13.4955 2.29281 13.424 2.12204 13.2975 1.99623C13.171 1.87042 12.9998 1.7998 12.8214 1.7998H12.3786C12.2002 1.7998 12.0291 1.87042 11.9026 1.99623C11.7761 2.12204 11.7046 2.29281 11.7036 2.4712L11.7 3.1516C11.6998 3.27095 11.6522 3.38532 11.5676 3.46954C11.4831 3.55376 11.3685 3.60094 11.2491 3.6007C11.1298 3.60047 11.0154 3.55283 10.9312 3.46827C10.847 3.38371 10.7998 3.26915 10.8 3.1498V2.4748C10.8 2.29578 10.7289 2.12409 10.6023 1.99751C10.4758 1.87092 10.3041 1.7998 10.125 1.7998H9.45005ZM5.85005 4.4998C5.32884 4.49982 4.81877 4.65069 4.38142 4.9342C3.94407 5.21772 3.59812 5.62176 3.38535 6.09756C3.17257 6.57336 3.10205 7.10058 3.18231 7.61557C3.26257 8.13056 3.49018 8.61132 3.83765 8.9998H3.60005C3.36135 8.9998 3.13244 9.09463 2.96365 9.26341C2.79487 9.43219 2.70005 9.66111 2.70005 9.89981C2.70005 10.1385 2.79487 10.3674 2.96365 10.5362C3.13244 10.705 3.36135 10.7998 3.60005 10.7998H4.06805C3.73325 12.418 2.85035 13.3522 2.35805 13.7635C2.04665 14.0245 1.80005 14.4259 1.80005 14.8939C1.80005 15.6148 2.38505 16.1998 3.10595 16.1998H8.59505C9.31505 16.1998 9.90005 15.6148 9.90005 14.8939C9.90005 14.4259 9.65345 14.0245 9.34205 13.7635C8.84975 13.3522 7.96685 12.418 7.63205 10.7998H8.10005C8.33874 10.7998 8.56766 10.705 8.73644 10.5362C8.90523 10.3674 9.00005 10.1385 9.00005 9.89981C9.00005 9.66111 8.90523 9.43219 8.73644 9.26341C8.56766 9.09463 8.33874 8.9998 8.10005 8.9998H7.86245C8.20992 8.61132 8.43752 8.13056 8.51778 7.61557C8.59804 7.10058 8.52753 6.57336 8.31475 6.09756C8.10197 5.62176 7.75603 5.21772 7.31868 4.9342C6.88132 4.65069 6.37126 4.49982 5.85005 4.4998Z" fill="#F9F1DF"/>
</svg>
