<svg width="18" height="18" viewBox="0 0 18 18" fill="none" xmlns="http://www.w3.org/2000/svg">
<g clip-path="url(#clip0_217_902)">
<path d="M11.67 3.13065C10.5761 3.4017 9.62349 4.07282 9.00003 5.01165C8.37658 4.07282 7.42394 3.4017 6.33003 3.13065C6.58179 2.63925 6.96427 2.22685 7.43537 1.93888C7.90646 1.65091 8.44789 1.49854 9.00003 1.49854C9.55217 1.49854 10.0936 1.65091 10.5647 1.93888C11.0358 2.22685 11.4183 2.63925 11.67 3.13065ZM3.04278 10.5317C3.20406 9.19825 3.80785 7.95744 4.75759 7.00771C5.70732 6.05797 6.94812 5.45418 8.28153 5.2929C7.96246 4.8554 7.55241 4.49219 7.0796 4.22824C6.60679 3.96429 6.08242 3.80587 5.54255 3.76388C5.00268 3.72188 4.46012 3.7973 3.95218 3.98495C3.44424 4.1726 2.98296 4.46803 2.60006 4.85093C2.21716 5.23383 1.92173 5.69511 1.73408 6.20305C1.54643 6.711 1.47101 7.25355 1.513 7.79342C1.555 8.33329 1.71342 8.85766 1.97737 9.33047C2.24131 9.80329 2.60453 10.2133 3.04203 10.5324L3.04278 10.5317ZM14.9573 10.5317C15.3948 10.2126 15.758 9.80254 16.0219 9.32972C16.2859 8.85691 16.4443 8.33254 16.4863 7.79267C16.5283 7.2528 16.4529 6.71025 16.2652 6.2023C16.0776 5.69436 15.7822 5.23308 15.3993 4.85018C15.0164 4.46728 14.5551 4.17185 14.0471 3.9842C13.5392 3.79655 12.9966 3.72113 12.4568 3.76313C11.9169 3.80512 11.3925 3.96354 10.9197 4.22749C10.4469 4.49144 10.0369 4.85465 9.71778 5.29215C11.0514 5.45331 12.2925 6.05714 13.2424 7.00704C14.1923 7.95694 14.7961 9.198 14.9573 10.5317ZM9.00003 16.5002C10.3924 16.5002 11.7278 15.947 12.7123 14.9625C13.6969 13.9779 14.25 12.6425 14.25 11.2502C14.25 9.85777 13.6969 8.52241 12.7123 7.53784C11.7278 6.55328 10.3924 6.00015 9.00003 6.00015C7.60765 6.00015 6.27229 6.55328 5.28772 7.53784C4.30316 8.52241 3.75003 9.85777 3.75003 11.2502C3.75003 12.6425 4.30316 13.9779 5.28772 14.9625C6.27229 15.947 7.60765 16.5002 9.00003 16.5002ZM7.12503 9.93765C7.12503 9.78847 7.1843 9.6454 7.28979 9.53991C7.39527 9.43442 7.53835 9.37515 7.68753 9.37515H10.875C10.9893 9.37523 11.1008 9.41011 11.1948 9.47515C11.2888 9.54019 11.3607 9.6323 11.401 9.73922C11.4413 9.84615 11.4481 9.96282 11.4205 10.0737C11.3928 10.1846 11.3321 10.2844 11.2463 10.3599V10.3607L11.2365 10.3689L11.1968 10.4064C10.9466 10.6511 10.7148 10.9138 10.503 11.1924C10.0853 11.7407 9.61203 12.5199 9.35553 13.4604C9.33613 13.5317 9.30287 13.5985 9.25766 13.657C9.21244 13.7154 9.15616 13.7644 9.09202 13.8011C9.02787 13.8378 8.95713 13.8615 8.88383 13.8709C8.81052 13.8802 8.73609 13.8751 8.66478 13.8557C8.59347 13.8363 8.52669 13.803 8.46823 13.7578C8.40978 13.7126 8.3608 13.6563 8.3241 13.5921C8.2874 13.528 8.26369 13.4573 8.25432 13.3839C8.24496 13.3106 8.25013 13.2362 8.26953 13.1649C8.57553 12.0429 9.13353 11.1347 9.60678 10.5114L9.61503 10.5002H7.68753C7.53835 10.5002 7.39527 10.4409 7.28979 10.3354C7.1843 10.2299 7.12503 10.0868 7.12503 9.93765Z" fill="#F9F1DF"/>
</g>
<defs>
<clipPath id="clip0_217_902">
<rect width="18" height="18" fill="white"/>
</clipPath>
</defs>
</svg>
