<svg width="16" height="17" viewBox="0 0 16 17" fill="none" xmlns="http://www.w3.org/2000/svg">
<path d="M13.5644 14.0413C15.0184 12.5635 15.8333 10.5734 15.8333 8.50016C15.8333 6.42696 15.0184 4.43682 13.5644 2.959C13.5507 2.93758 13.5325 2.9194 13.5111 2.90572C13.4974 2.8843 13.4792 2.86612 13.4578 2.85244C11.98 1.3984 9.98987 0.583496 7.91667 0.583496C5.84346 0.583496 3.85332 1.3984 2.3755 2.85244C2.35409 2.86612 2.33591 2.8843 2.32222 2.90572C2.30081 2.9194 2.28263 2.93758 2.26894 2.959C0.814902 4.43682 0 6.42696 0 8.50016C0 10.5734 0.814902 12.5635 2.26894 14.0413L2.32222 14.0946C2.33591 14.116 2.35409 14.1342 2.3755 14.1479C3.85332 15.6019 5.84346 16.4168 7.91667 16.4168C9.98987 16.4168 11.98 15.6019 13.4578 14.1479C13.4792 14.1342 13.4974 14.116 13.5111 14.0946C13.5325 14.0809 13.5507 14.0627 13.5644 14.0413ZM1.249 9.10908H3.08337C3.19297 9.97544 3.53488 10.796 4.07287 11.4839L2.7713 12.7854C1.9011 11.7437 1.36995 10.461 1.249 9.10908ZM2.7713 4.2149L4.07287 5.51646C3.53488 6.20432 3.19297 7.02489 3.08337 7.89124H1.249C1.36995 6.5393 1.9011 5.25659 2.7713 4.2149ZM14.5843 7.89124H12.75C12.6404 7.02489 12.2985 6.20432 11.7605 5.51646L13.062 4.2149C13.9322 5.25659 14.4634 6.5393 14.5843 7.89124ZM10.9004 4.65636C10.2125 4.11837 9.39194 3.77647 8.52559 3.66687V1.8325C9.87753 1.95345 11.1602 2.48459 12.2019 3.3548L10.9004 4.65636ZM7.30775 3.66687C6.44139 3.77647 5.62082 4.11837 4.93296 4.65636L3.6314 3.3548C4.67309 2.48459 5.9558 1.95345 7.30775 1.8325V3.66687ZM4.93296 12.344C5.62082 12.882 6.44139 13.2239 7.30775 13.3335V15.1678C5.9558 15.0469 4.67309 14.5157 3.6314 13.6455L4.93296 12.344ZM8.52559 13.3335C9.39194 13.2239 10.2125 12.882 10.9004 12.344L12.2019 13.6455C11.1602 14.5157 9.87753 15.0469 8.52559 15.1678V13.3335ZM11.7605 11.4839C12.2985 10.796 12.6404 9.97544 12.75 9.10908H14.5843C14.4634 10.461 13.9322 11.7437 13.062 12.7854L11.7605 11.4839Z" fill="#F9F1DF"/>
</svg>
