<svg width="16" height="14" viewBox="0 0 16 14" fill="none" xmlns="http://www.w3.org/2000/svg">
<g clip-path="url(#clip0_284_3941)">
<path d="M0.444445 12.25H2.66667V1.3877C2.66667 0.62207 3.26389 0 4 0H12C12.7361 0 13.3333 0.62207 13.3333 1.3877V12.25H15.5556C15.8021 12.25 16 12.4441 16 12.6875V13.5625C16 13.8059 15.8021 14 15.5556 14H0.444445C0.197917 14 0 13.8052 0 13.5625V12.6875C0 12.4441 0.197222 12.25 0.444445 12.25ZM5.33333 7.875C5.82278 7.875 6.22222 7.4818 6.22222 7C6.22222 6.5182 5.82278 6.125 5.33333 6.125C4.84389 6.125 4.44444 6.5182 4.44444 7C4.44444 7.4818 4.84444 7.875 5.33333 7.875Z" fill="#F9F1DF"/>
</g>
<defs>
<clipPath id="clip0_284_3941">
<rect width="16" height="14" fill="white" transform="matrix(-1 0 0 1 16 0)"/>
</clipPath>
</defs>
</svg>
