<svg width="18" height="18" viewBox="0 0 18 18" fill="none" xmlns="http://www.w3.org/2000/svg">
<g clip-path="url(#clip0_486_24517)">
<path d="M17.8003 14.6602L10.3015 1.86328C9.72742 0.878906 8.27863 0.878906 7.70066 1.86328L0.205344 14.6602C-0.37157 15.641 0.346989 16.875 1.50331 16.875H16.501C17.6527 16.875 18.3734 15.6445 17.8003 14.6602ZM8.15699 5.90625C8.15699 5.44043 8.53491 5.0625 9.00074 5.0625C9.46656 5.0625 9.84449 5.44219 9.84449 5.90625V10.4062C9.84449 10.8721 9.46656 11.25 9.03238 11.25C8.5982 11.25 8.15699 10.8738 8.15699 10.4062V5.90625ZM9.00074 14.625C8.39042 14.625 7.89542 14.13 7.89542 13.5197C7.89542 12.9094 8.39007 12.4144 9.00074 12.4144C9.6114 12.4144 10.106 12.9094 10.106 13.5197C10.1046 14.1293 9.61245 14.625 9.00074 14.625Z" fill="#D93C44"/>
</g>
<defs>
<clipPath id="clip0_486_24517">
<rect width="18" height="18" fill="white"/>
</clipPath>
</defs>
</svg>
