<svg width="13" height="13" viewBox="0 0 13 13" fill="none" xmlns="http://www.w3.org/2000/svg">
<g clip-path="url(#clip0_217_1202)">
<path d="M1.65278 7.61132C1.80169 5.67252 2.70438 4.45755 3.50073 3.38541C4.23813 2.39284 4.875 1.5357 4.875 0.271297C4.875 0.169735 4.93187 0.0769066 5.02206 0.0303656C5.11253 -0.0164547 5.22123 -0.00878677 5.30347 0.0509828C6.49947 0.906799 7.49737 2.34922 7.84596 3.72549C8.08795 4.68365 8.11997 5.76083 8.12447 6.47225C9.22896 6.23634 9.47916 4.58423 9.4818 4.56622C9.49424 4.48053 9.5466 4.40596 9.62277 4.36523C9.69973 4.32504 9.79019 4.32212 9.86822 4.36074C9.92613 4.38877 11.2898 5.08168 11.3692 7.84827C11.3747 7.94031 11.375 8.03263 11.375 8.12492C11.375 10.8127 9.18798 12.9996 6.5 12.9996C6.49629 12.9998 6.49233 13.0004 6.48916 12.9996C6.48809 12.9996 6.48705 12.9996 6.48573 12.9996C3.80435 12.9919 1.625 10.808 1.625 8.12492C1.625 7.98977 1.65278 7.61132 1.65278 7.61132ZM6.5 12.458C7.39609 12.458 8.125 11.6815 8.125 10.727C8.125 10.6945 8.12525 10.6617 8.12289 10.6215C8.11205 10.219 8.0356 9.94421 7.95176 9.76145C7.79464 10.0989 7.51377 10.4091 7.05753 10.4091C6.90782 10.4091 6.78669 10.288 6.78669 10.1383C6.78669 9.75274 6.77874 9.3079 6.68274 8.90642C6.5973 8.55044 6.39313 8.17172 6.13445 7.86812C6.01941 8.26218 5.79511 8.58112 5.57611 8.8924C5.26269 9.33776 4.93871 9.79822 4.88183 10.5834C4.8784 10.63 4.87495 10.6768 4.87495 10.727C4.875 11.6815 5.60391 12.458 6.5 12.458Z" fill="#F9F1DF"/>
</g>
<defs>
<clipPath id="clip0_217_1202">
<rect width="13" height="13" fill="white" transform="matrix(-1 0 0 1 13 0)"/>
</clipPath>
</defs>
</svg>
