<svg width="65" height="37" viewBox="0 0 65 37" fill="none" xmlns="http://www.w3.org/2000/svg">
<path fill-rule="evenodd" clip-rule="evenodd" d="M63.1194 16.8084L62.6226 14.5737L53.7161 14.5737V16.8084H63.1194Z" fill="#F9F1DF"/>
<path fill-rule="evenodd" clip-rule="evenodd" d="M58.7592 13.855H56.1612L61.4478 10.4036C61.7268 9.34777 61.7089 7.87506 60.2984 7.4049L57.4774 10.696L55.7998 9.72894L56.5371 5.9944L53.7161 4.61811C57.6297 3.85542 60.7321 5.15274 61.7633 6.29786C63.0391 7.71562 63.3339 9.46271 62.746 11.2884L58.7608 13.8545L58.7592 13.855Z" fill="#F9F1DF"/>
<path d="M54.6565 6.46436H56.5371V7.40468L54.6565 6.46436Z" fill="#F9F1DF"/>
<path d="M10.1047 10.839C11.0695 10.3312 11.6788 9.41721 11.6788 8.2324C11.6788 6.38749 10.1555 5.1519 7.19349 5.1519H1.40485V17H7.53201C10.6464 17 12.2712 15.8152 12.2712 13.7672C12.2712 12.2777 11.425 11.2621 10.1047 10.839ZM6.85497 7.21685C8.19212 7.21685 8.91993 7.67385 8.91993 8.60477C8.91993 9.5357 8.19212 10.0096 6.85497 10.0096H4.12991V7.21685H6.85497ZM7.3289 14.935H4.12991V12.0069H7.3289C8.75067 12.0069 9.51233 12.4808 9.51233 13.4794C9.51233 14.495 8.75067 14.935 7.3289 14.935ZM20.085 17.2031C23.8087 17.2031 26.5677 14.6135 26.5677 11.0759C26.5677 7.53844 23.8087 4.94879 20.085 4.94879C16.3444 4.94879 13.6024 7.55537 13.6024 11.0759C13.6024 14.5965 16.3444 17.2031 20.085 17.2031ZM20.085 14.8673C17.9693 14.8673 16.3783 13.3271 16.3783 11.0759C16.3783 8.82481 17.9693 7.28456 20.085 7.28456C22.2008 7.28456 23.7918 8.82481 23.7918 11.0759C23.7918 13.3271 22.2008 14.8673 20.085 14.8673ZM37.3153 17H40.1927L34.8949 5.1519H32.1868L26.9059 17H29.7156L30.765 14.4611H36.2659L37.3153 17ZM31.6451 12.3792L33.5239 7.84311L35.4027 12.3792H31.6451ZM51.916 17L49.2586 13.1917C50.7989 12.5316 51.6959 11.2283 51.6959 9.45107C51.6959 6.79371 49.7156 5.1519 46.5505 5.1519H41.4219V17H44.1639V13.6995H46.5505H46.6859L48.9709 17H51.916ZM48.9201 9.45107C48.9201 10.7374 48.0738 11.516 46.3981 11.516H44.1639V7.38611H46.3981C48.0738 7.38611 48.9201 8.14778 48.9201 9.45107Z" fill="#F9F1DF"/>
<path d="M9.41078 29.9924C8.71682 30.3647 8.02286 30.5002 7.27812 30.5002C5.01005 30.5002 3.43595 28.926 3.43595 26.7088C3.43595 24.4576 5.01005 22.9174 7.31197 22.9174C8.51371 22.9174 9.51233 23.3405 10.3756 24.2545L12.1358 22.6296C10.9849 21.2925 9.25845 20.5816 7.17656 20.5816C3.4021 20.5816 0.660109 23.1374 0.660109 26.7088C0.660109 30.2801 3.4021 32.8359 7.12579 32.8359C8.81837 32.8359 10.6125 32.3112 11.9158 31.3295V26.5226H9.41078V29.9924ZM23.3151 32.6328H26.1925L20.8947 20.7847H18.1866L12.9057 32.6328H15.7154L16.7648 30.0939H22.2657L23.3151 32.6328ZM17.6449 28.0121L19.5237 23.4759L21.4025 28.0121H17.6449ZM40.7762 32.6328L40.7424 20.7847H38.4913L34.1244 28.1475L29.6898 20.7847H27.4217V32.6328H29.9945V25.6763L33.4643 31.3803H34.6999L38.1866 25.524L38.2035 32.6328H40.7762ZM46.3123 30.4325V27.6905H51.8132V25.5578H46.3123V22.9851H52.541V20.7847H43.5873V32.6328H52.7611V30.4325H46.3123ZM58.8357 32.8359C62.2209 32.8359 63.8627 31.1433 63.8627 29.163C63.8627 24.8131 56.9739 26.3195 56.9739 24.136C56.9739 23.3913 57.6002 22.782 59.225 22.782C60.2744 22.782 61.4085 23.0866 62.5087 23.7129L63.3549 21.631C62.2548 20.937 60.7314 20.5816 59.242 20.5816C55.8737 20.5816 54.2488 22.2573 54.2488 24.2714C54.2488 28.6722 61.1377 27.1488 61.1377 29.3661C61.1377 30.0939 60.4776 30.6356 58.8527 30.6356C57.4309 30.6356 55.9414 30.1278 54.9428 29.4L54.0119 31.4649C55.0613 32.2774 56.957 32.8359 58.8357 32.8359Z" fill="#F9F1DF"/>
</svg>
