<svg width="183" height="50" viewBox="0 0 183 50" fill="none" xmlns="http://www.w3.org/2000/svg">
<path d="M33.4821 0H2.23214C0.999364 0 0 0.999364 0 2.23214V47.7679C0 49.0006 0.999364 50 2.23214 50H33.4821C34.7149 50 35.7143 49.0006 35.7143 47.7679V2.23214C35.7143 0.999364 34.7149 0 33.4821 0Z" fill="#F9F1DF"/>
<path d="M5.35779 11.9414C4.95456 11.3149 4.42177 10.7821 3.79529 10.3789C4.42177 9.97568 4.95456 9.44289 5.35779 8.81641C5.76101 9.44289 6.29381 9.97568 6.92029 10.3789C6.29381 10.7821 5.76101 11.3149 5.35779 11.9414Z" fill="#C93112"/>
<path d="M30.3577 37.3887C30.7609 38.0152 31.2937 38.5479 31.9202 38.9512C31.2937 39.3544 30.7609 39.8872 30.3577 40.5137C29.9544 39.8872 29.4216 39.3544 28.7952 38.9512C29.4216 38.5479 29.9544 38.0152 30.3577 37.3887Z" fill="#C93112"/>
<path d="M4.81403 6.95563V7.25474H3.40332V6.95563L3.73814 6.87082C3.77207 6.86484 3.80416 6.85108 3.83189 6.83063C3.85582 6.80496 3.87407 6.77454 3.88546 6.74135L5.10421 3.16992H5.80511L7.06403 6.74135C7.07425 6.77378 7.09271 6.80301 7.11761 6.82617C7.14389 6.84979 7.17645 6.8653 7.21136 6.87082L7.51939 6.95563V7.25474H5.80511V6.95563L6.30957 6.86188L6.03278 6.03599H4.5685L4.30511 6.86188L4.81403 6.95563ZM5.93011 5.67438L5.29171 3.7726L4.68457 5.67438H5.93011Z" fill="#C93112"/>
<path d="M30.9076 42.3797V42.0762H32.3138V42.3797L31.979 42.4601C31.9451 42.4661 31.913 42.4798 31.8853 42.5003C31.8613 42.526 31.8431 42.5564 31.8317 42.5896L30.613 46.161H29.9344L28.6755 42.5896C28.6668 42.5564 28.6481 42.5268 28.6219 42.5047C28.5956 42.4811 28.563 42.4656 28.5281 42.4601L28.2201 42.3797V42.0762H29.9121V42.3797L29.4076 42.469L29.6844 43.2949H31.1665L31.4299 42.469L30.9076 42.3797ZM29.7871 43.6565L30.4255 45.5583L31.0326 43.6565H29.7871Z" fill="#C93112"/>
<path d="M17.8577 30.916C16.2496 28.4062 14.1175 26.2741 11.6077 24.666C14.1165 23.0567 16.2484 20.9248 17.8577 18.416C19.467 20.9248 21.5988 23.0567 24.1077 24.666C21.5979 26.2741 19.4658 28.4062 17.8577 30.916Z" fill="#C93112"/>
<g opacity="0.5">
<path d="M70.1965 0H38.9465C37.7137 0 36.7144 0.999364 36.7144 2.23214V47.7679C36.7144 49.0006 37.7137 50 38.9465 50H70.1965C71.4293 50 72.4286 49.0006 72.4286 47.7679V2.23214C72.4286 0.999364 71.4293 0 70.1965 0Z" fill="#F9F1DF"/>
<path d="M42.0704 11.9414C41.6684 11.314 41.1354 10.7809 40.5079 10.3789C41.1354 9.97688 41.6684 9.44385 42.0704 8.81641C42.4737 9.44289 43.0065 9.97568 43.6329 10.3789C43.0065 10.7821 42.4737 11.3149 42.0704 11.9414Z" fill="#C93112"/>
<path d="M67.0706 37.3887C67.4738 38.0152 68.0066 38.5479 68.6331 38.9512C68.0066 39.3544 67.4738 39.8872 67.0706 40.5137C66.6685 39.8862 66.1355 39.3532 65.5081 38.9512C66.1355 38.5491 66.6685 38.0161 67.0706 37.3887Z" fill="#C93112"/>
<path d="M43.3029 6.21812C43.3033 6.37334 43.2666 6.52641 43.1957 6.66454C43.12 6.79923 43.0184 6.91758 42.8966 7.01276C42.7635 7.11606 42.612 7.19331 42.4502 7.24044C42.2768 7.29431 42.0961 7.32141 41.9145 7.32079C41.6784 7.32609 41.4439 7.28041 41.227 7.18687C41.0535 7.1107 40.8937 7.00664 40.7538 6.87883L40.9324 6.62437C41.0483 6.70357 41.1744 6.76666 41.3074 6.81187C41.451 6.86159 41.6018 6.88722 41.7538 6.88776C41.8519 6.88849 41.9497 6.87496 42.044 6.84758C42.133 6.82643 42.2166 6.78689 42.2895 6.73151C42.3596 6.67663 42.4161 6.60637 42.4547 6.52615C42.5017 6.43044 42.5247 6.32471 42.5216 6.21812C42.5282 6.13279 42.5169 6.04705 42.4884 5.96635C42.46 5.88564 42.415 5.81175 42.3565 5.74937C42.2384 5.62634 42.0798 5.55021 41.91 5.53508C41.8454 5.55353 41.7798 5.56843 41.7136 5.57973L41.5172 5.6199L41.4324 5.294C41.5561 5.26834 41.6772 5.23097 41.794 5.1824C41.8985 5.14139 41.9975 5.0874 42.0886 5.02169C42.1691 4.96246 42.2373 4.88817 42.2895 4.80294C42.34 4.71626 42.3662 4.61755 42.3654 4.51722C42.3652 4.45709 42.3528 4.39762 42.329 4.34239C42.3052 4.28715 42.2705 4.23729 42.227 4.19579C42.1781 4.1501 42.1204 4.1147 42.0576 4.09169C41.9947 4.06869 41.9278 4.05855 41.8609 4.06187C41.7132 4.06233 41.5683 4.1024 41.4413 4.17793C41.3204 4.24584 41.2106 4.33164 41.1154 4.4324L40.9056 4.22705C41.0134 4.04224 41.1672 3.88846 41.352 3.78062C41.6885 3.59485 42.0843 3.54837 42.4547 3.65115C42.5705 3.68314 42.6794 3.7361 42.7761 3.8074C42.8685 3.87456 42.9448 3.9615 42.9993 4.06187C43.0546 4.17105 43.0822 4.29218 43.0797 4.41455C43.0806 4.52573 43.0561 4.63564 43.0082 4.73597C42.9636 4.8354 42.9016 4.9261 42.8252 5.00383C42.7497 5.08313 42.6642 5.15218 42.5707 5.2092C42.4823 5.2619 42.3879 5.30386 42.2895 5.3342C42.4042 5.33203 42.5186 5.34707 42.6288 5.37883C42.7429 5.41168 42.8502 5.46459 42.9457 5.53508C43.0428 5.61011 43.1233 5.70433 43.1824 5.81186C43.2582 5.93406 43.2998 6.07435 43.3029 6.21812Z" fill="#C93112"/>
<path d="M65.8433 43.1108C65.8429 42.9556 65.8796 42.8025 65.9504 42.6644C66.0232 42.5289 66.1235 42.4103 66.245 42.3161C66.3787 42.2136 66.53 42.1365 66.6915 42.0885C66.8649 42.0346 67.0456 42.0075 67.2272 42.0081C67.4632 42.0036 67.6976 42.0493 67.9147 42.142C68.0878 42.219 68.2475 42.3229 68.3879 42.4501L68.2093 42.7045C68.0929 42.6262 67.9668 42.5632 67.8343 42.517C67.6906 42.4676 67.5399 42.442 67.3879 42.4411C67.2883 42.4407 67.1891 42.4542 67.0933 42.4813C67.0053 42.5016 66.9229 42.5413 66.8522 42.5974C66.7807 42.652 66.7227 42.7223 66.6826 42.8028C66.6397 42.8999 66.6169 43.0046 66.6156 43.1108C66.6066 43.2827 66.666 43.4512 66.7808 43.5795C66.8995 43.7016 67.0577 43.7775 67.2272 43.7938L67.4236 43.7447L67.62 43.709L67.7093 44.0349C67.5852 44.0592 67.464 44.0966 67.3477 44.1465C67.2412 44.1864 67.1406 44.2404 67.0486 44.3072C66.9706 44.3678 66.9041 44.4419 66.8522 44.526C66.8017 44.6126 66.7755 44.7114 66.7763 44.8117C66.7743 44.8721 66.7856 44.9323 66.8095 44.9879C66.8335 45.0434 66.8694 45.093 66.9147 45.1331C66.9627 45.1789 67.0195 45.2144 67.0817 45.2374C67.1438 45.2604 67.2101 45.2705 67.2763 45.267C67.433 45.2706 67.5876 45.2304 67.7227 45.151C67.8428 45.0819 67.9525 44.9962 68.0486 44.8965L68.2584 45.1019C68.1491 45.2855 67.9956 45.4389 67.812 45.5483C67.5933 45.6724 67.3447 45.7342 67.0933 45.7269C66.9619 45.7272 66.8312 45.7092 66.7049 45.6733C66.5898 45.6395 66.4811 45.5867 66.3834 45.517C66.2923 45.4497 66.2176 45.3627 66.1647 45.2626C66.1094 45.1534 66.0818 45.0323 66.0843 44.9099C66.0842 44.7993 66.107 44.6898 66.1513 44.5885C66.1992 44.4909 66.2608 44.4007 66.3343 44.3206C66.4098 44.2413 66.4954 44.1723 66.5888 44.1153C66.6792 44.0633 66.775 44.0214 66.8745 43.9903C66.7598 43.9928 66.6454 43.9777 66.5352 43.9456C66.4188 43.9131 66.3097 43.8585 66.2138 43.7849C66.1172 43.7112 66.0367 43.6185 65.9772 43.5126C65.8974 43.393 65.8512 43.2543 65.8433 43.1108Z" fill="#C93112"/>
<path d="M53.6963 15.1113C52.6503 13.4806 51.2646 12.0948 49.6338 11.0488C51.2646 10.0028 52.6503 8.61709 53.6963 6.98633C54.7423 8.61709 56.128 10.0028 57.7588 11.0488C56.128 12.0948 54.7423 13.4806 53.6963 15.1113Z" fill="#C93112"/>
<path d="M53.696 28.5039C52.65 26.8731 51.2643 25.4874 49.6335 24.4414C51.2643 23.3954 52.65 22.0097 53.696 20.3789C54.742 22.0097 56.1278 23.3954 57.7585 24.4414C56.1278 25.4874 54.742 26.8731 53.696 28.5039Z" fill="#C93112"/>
<path d="M57.7585 38.2813C56.1278 39.3273 54.742 40.713 53.696 42.3438C52.65 40.713 51.2643 39.3273 49.6335 38.2813C51.2643 37.2352 52.65 35.8495 53.696 34.2188C54.742 35.8495 56.1278 37.2352 57.7585 38.2813Z" fill="#C93112"/>
</g>
<g opacity="0.5">
<path d="M106.911 0H75.6607C74.428 0 73.4286 0.999364 73.4286 2.23214V47.7679C73.4286 49.0006 74.428 50 75.6607 50H106.911C108.144 50 109.143 49.0006 109.143 47.7679V2.23214C109.143 0.999364 108.144 0 106.911 0Z" fill="#F9F1DF"/>
<path d="M78.7857 8.65234C78.5402 9.26395 77.3348 9.49163 77.3348 10.4381C77.3348 10.5404 77.3551 10.6418 77.3944 10.7364C77.4337 10.8309 77.4913 10.9167 77.5639 10.9889C77.6365 11.0611 77.7227 11.1182 77.8175 11.157C77.9122 11.1958 78.0137 11.2154 78.1161 11.2148C78.2233 11.2141 78.3293 11.1916 78.4275 11.1486C78.5257 11.1056 78.6142 11.0431 78.6875 10.9648C78.6667 11.2673 78.544 11.5537 78.3393 11.7773V11.8845H79.2322V11.7773C79.0259 11.5543 78.9015 11.2678 78.8795 10.9648C78.9533 11.0436 79.0425 11.1065 79.1415 11.1495C79.2406 11.1925 79.3474 11.2147 79.4554 11.2148C79.6618 11.2148 79.8598 11.1332 80.0062 10.9876C80.1526 10.8421 80.2354 10.6445 80.2366 10.4381C80.2366 9.49163 79.0268 9.26395 78.7857 8.65234Z" fill="#1F1F1F"/>
<path d="M103.786 40.9021C104.027 40.2905 105.237 40.0628 105.237 39.1163C105.235 38.9099 105.153 38.7123 105.006 38.5668C104.86 38.4212 104.662 38.3396 104.455 38.3396C104.347 38.3397 104.24 38.3619 104.141 38.4049C104.042 38.4479 103.953 38.5108 103.879 38.5896C103.901 38.2866 104.026 38.0001 104.232 37.7771V37.6699H103.339V37.7771C103.544 38.0007 103.667 38.2871 103.687 38.5896C103.58 38.4798 103.443 38.4042 103.292 38.3721C103.142 38.34 102.986 38.3528 102.843 38.409C102.7 38.4652 102.577 38.5623 102.489 38.6881C102.401 38.8139 102.352 38.9628 102.348 39.1163C102.335 40.0628 103.545 40.2905 103.786 40.9021Z" fill="#1F1F1F"/>
<path d="M77.6562 6.69587C77.7684 6.78282 77.8915 6.85485 78.0222 6.91016C78.1638 6.96865 78.3155 6.99898 78.4687 6.99944C78.6806 7.00689 78.8871 6.93165 79.0446 6.78963C79.1223 6.7161 79.183 6.62643 79.2223 6.52694C79.2616 6.42744 79.2787 6.32053 79.2723 6.21373C79.2795 6.0206 79.2124 5.83204 79.0847 5.68695C79.0175 5.61753 78.9359 5.56359 78.8457 5.5289C78.7555 5.4942 78.6589 5.47958 78.5624 5.48605C78.4611 5.48588 78.3602 5.50094 78.2633 5.53069C78.158 5.56155 78.0563 5.60345 77.9598 5.65569L77.7142 5.48605L77.8348 3.78516H79.8437L79.7812 4.30302H78.2633L78.1651 5.26283C78.2681 5.18266 78.3867 5.12489 78.5133 5.0932C78.6345 5.06322 78.759 5.04822 78.8839 5.04855C79.1921 5.03411 79.4935 5.14155 79.7231 5.34766C79.8271 5.45219 79.9082 5.57722 79.9612 5.7148C80.0143 5.85238 80.0381 5.99949 80.0312 6.14677C80.0328 6.32749 79.9979 6.50668 79.9285 6.67355C79.8597 6.82816 79.761 6.96772 79.6383 7.08426C79.5066 7.19721 79.3553 7.28498 79.1919 7.3432C79.0104 7.40286 78.8205 7.433 78.6294 7.43248C78.3963 7.43595 78.1651 7.39033 77.9508 7.29855C77.7668 7.22302 77.6032 7.10527 77.4731 6.9548L77.6562 6.69587Z" fill="#1F1F1F"/>
<path d="M104.911 42.8559C104.799 42.768 104.676 42.6959 104.545 42.6416C104.403 42.5825 104.251 42.5522 104.098 42.5523C103.885 42.5446 103.677 42.6198 103.518 42.7621C103.44 42.8357 103.379 42.9253 103.34 43.0248C103.301 43.1243 103.284 43.2312 103.29 43.338C103.283 43.5312 103.35 43.7197 103.478 43.8648C103.545 43.9335 103.627 43.987 103.717 44.0216C103.807 44.0563 103.904 44.0713 104 44.0657C104.101 44.0659 104.202 44.0508 104.299 44.0211C104.404 43.9902 104.506 43.9483 104.603 43.8961L104.848 44.0657L104.732 45.7666H102.719L102.781 45.2487H104.303L104.402 44.2889C104.299 44.3703 104.181 44.4282 104.053 44.4586C103.934 44.4883 103.811 44.5033 103.687 44.5032C103.378 44.5174 103.075 44.4101 102.844 44.2041C102.74 44.0996 102.659 43.9745 102.606 43.837C102.553 43.6994 102.529 43.5523 102.536 43.405C102.534 43.2243 102.569 43.0451 102.638 42.8782C102.707 42.7225 102.807 42.5827 102.933 42.4675C103.064 42.3541 103.216 42.2663 103.379 42.2086C103.561 42.1489 103.751 42.1188 103.942 42.1193C104.176 42.1162 104.409 42.1618 104.625 42.2532C104.808 42.3299 104.972 42.4475 105.103 42.597L104.911 42.8559Z" fill="#1F1F1F"/>
<path d="M85.0313 6.36133C84.5492 7.59347 82.1295 8.0399 82.1295 9.93276C82.1295 10.3472 82.2941 10.7446 82.5872 11.0376C82.8802 11.3306 83.2776 11.4953 83.692 11.4953C83.9082 11.4952 84.1219 11.4498 84.3195 11.3622C84.5171 11.2745 84.6942 11.1465 84.8393 10.9863C84.8003 11.5918 84.5544 12.1655 84.1429 12.6113V12.8345H85.9286V12.6113C85.5149 12.1683 85.2672 11.5957 85.2277 10.9908C85.4402 11.2221 85.7177 11.3838 86.0237 11.4546C86.3297 11.5254 86.65 11.5021 86.9425 11.3877C87.2351 11.2733 87.4862 11.0732 87.663 10.8135C87.8397 10.5539 87.9339 10.2469 87.9331 9.93276C87.9331 8.03544 85.5179 7.58901 85.0313 6.36133Z" fill="#1F1F1F"/>
<path d="M97.5313 6.36133C97.0492 7.59347 94.6295 8.0399 94.6295 9.93276C94.6295 10.3472 94.7941 10.7446 95.0872 11.0376C95.3802 11.3306 95.7776 11.4953 96.192 11.4953C96.4082 11.4952 96.6219 11.4498 96.8195 11.3622C97.0171 11.2745 97.1942 11.1465 97.3393 10.9863C97.3003 11.5918 97.0544 12.1655 96.6429 12.6113V12.8345H98.4286V12.6113C98.0149 12.1683 97.7672 11.5957 97.7277 10.9908C97.9402 11.2221 98.2177 11.3838 98.5237 11.4546C98.8297 11.5254 99.15 11.5021 99.4425 11.3877C99.7351 11.2733 99.9862 11.0732 100.163 10.8135C100.34 10.5539 100.434 10.2469 100.433 9.93276C100.433 8.03544 98.0179 7.58901 97.5313 6.36133Z" fill="#1F1F1F"/>
<path d="M91.2813 20.8711C90.7992 22.1032 88.3795 22.5497 88.3795 24.4425C88.3795 24.8569 88.5441 25.2544 88.8372 25.5474C89.1302 25.8404 89.5276 26.005 89.942 26.005C90.1582 26.0049 90.3719 25.9596 90.5695 25.872C90.7671 25.7843 90.9442 25.6563 91.0893 25.4961C91.0503 26.1016 90.8044 26.6752 90.3929 27.1211V27.3443H92.1786V27.1211C91.7649 26.678 91.5172 26.1055 91.4777 25.5006C91.6902 25.7319 91.9677 25.8935 92.2737 25.9644C92.5797 26.0352 92.9 26.0119 93.1925 25.8975C93.4851 25.7831 93.7362 25.5829 93.913 25.3233C94.0897 25.0636 94.1839 24.7566 94.1831 24.4425C94.1831 22.5497 91.7679 22.1032 91.2813 20.8711Z" fill="#1F1F1F"/>
<path d="M85.0313 43.192C84.5492 41.9598 82.1295 41.5134 82.1295 39.6205C82.1295 39.2061 82.2941 38.8087 82.5872 38.5157C82.8802 38.2227 83.2776 38.058 83.692 38.058C83.9082 38.0581 84.1219 38.1035 84.3195 38.1911C84.5171 38.2788 84.6942 38.4068 84.8393 38.567C84.8003 37.9615 84.5544 37.3878 84.1429 36.942V36.7188H85.9286V36.942C85.5149 37.385 85.2672 37.9576 85.2277 38.5625C85.4402 38.3312 85.7177 38.1695 86.0237 38.0987C86.3297 38.0279 86.65 38.0512 86.9425 38.1656C87.2351 38.28 87.4862 38.4801 87.663 38.7398C87.8397 38.9994 87.9339 39.3064 87.9331 39.6205C87.9331 41.5179 85.5179 41.9643 85.0313 43.192Z" fill="#1F1F1F"/>
<path d="M97.5313 43.192C97.0492 41.9598 94.6295 41.5134 94.6295 39.6205C94.6295 39.2061 94.7941 38.8087 95.0872 38.5157C95.3802 38.2227 95.7776 38.058 96.192 38.058C96.4082 38.0581 96.6219 38.1035 96.8195 38.1911C97.0171 38.2788 97.1942 38.4068 97.3393 38.567C97.3003 37.9615 97.0544 37.3878 96.6429 36.942V36.7188H98.4286V36.942C98.0149 37.385 97.7672 37.9576 97.7277 38.5625C97.9402 38.3312 98.2177 38.1695 98.5237 38.0987C98.8297 38.0279 99.15 38.0512 99.4425 38.1656C99.7351 38.28 99.9862 38.4801 100.163 38.7398C100.34 38.9994 100.434 39.3064 100.433 39.6205C100.433 41.5179 98.0179 41.9643 97.5313 43.192Z" fill="#1F1F1F"/>
</g>
<g opacity="0.5">
<path d="M143.625 0H112.375C111.142 0 110.143 0.999364 110.143 2.23214V47.7679C110.143 49.0006 111.142 50 112.375 50H143.625C144.858 50 145.857 49.0006 145.857 47.7679V2.23214C145.857 0.999364 144.858 0 143.625 0Z" fill="#F9F1DF"/>
<path d="M115.499 11.9414C115.096 11.3149 114.563 10.7821 113.936 10.3789C114.563 9.97568 115.096 9.44289 115.499 8.81641C115.902 9.44289 116.435 9.97568 117.061 10.3789C116.435 10.7821 115.902 11.3149 115.499 11.9414Z" fill="#C93112"/>
<path d="M140.499 37.3887C140.902 38.0152 141.435 38.5479 142.062 38.9512C141.435 39.3544 140.902 39.8872 140.499 40.5137C140.096 39.8872 139.563 39.3544 138.937 38.9512C139.563 38.5479 140.096 38.0152 140.499 37.3887Z" fill="#C93112"/>
<path d="M116.392 4.13782H115.619C115.49 4.13782 115.369 4.13782 115.262 4.13782C115.174 4.14258 115.086 4.15453 114.999 4.17355C114.959 4.1793 114.92 4.19461 114.887 4.21819C114.856 4.24379 114.833 4.2779 114.82 4.31641L114.633 4.89676H114.267C114.253 4.68417 114.253 4.47096 114.267 4.25837C114.279 4.05792 114.301 3.85824 114.334 3.66016H116.686L116.861 4.03961C116.532 4.46711 116.261 4.93529 116.052 5.43248C115.822 6.00188 115.687 6.60506 115.651 7.21819H115.052L114.95 7.08872C114.974 6.80192 115.031 6.51883 115.119 6.24497C115.205 5.96825 115.314 5.69941 115.445 5.4414C115.575 5.18764 115.724 4.94435 115.892 4.71372C116.042 4.50797 116.209 4.31531 116.392 4.13782Z" fill="#C93112"/>
<path d="M139.606 45.1917H140.378C140.508 45.1917 140.628 45.1917 140.736 45.1917C140.823 45.1873 140.909 45.1754 140.995 45.156C141.036 45.1509 141.076 45.1356 141.111 45.1113C141.142 45.0865 141.164 45.0519 141.173 45.0131L141.365 44.4328H141.731C141.747 44.6453 141.747 44.8586 141.731 45.0712C141.731 45.2854 141.695 45.4863 141.669 45.6694H139.311L139.142 45.2899C139.469 44.8622 139.739 44.394 139.945 43.897C140.176 43.3276 140.311 42.7245 140.347 42.1113H140.945L141.053 42.2408C141.026 42.5273 140.969 42.8101 140.883 43.0846C140.798 43.3621 140.687 43.6311 140.553 43.8881C140.423 44.1419 140.274 44.3852 140.106 44.6158C139.955 44.8206 139.788 45.0132 139.606 45.1917Z" fill="#C93112"/>
<path d="M121.75 13.0586C120.945 11.8037 119.879 10.7376 118.625 9.93359C119.879 9.12955 120.945 8.06349 121.75 6.80859C122.554 8.06349 123.62 9.12955 124.875 9.93359C123.62 10.7376 122.554 11.8037 121.75 13.0586Z" fill="#C93112"/>
<path d="M128 20.4238C127.195 19.1689 126.129 18.1029 124.875 17.2988C126.129 16.4948 127.195 15.4287 128 14.1738C128.804 15.4287 129.87 16.4948 131.125 17.2988C129.87 18.1029 128.804 19.1689 128 20.4238Z" fill="#C93112"/>
<path d="M134.25 13.0586C133.445 11.8037 132.379 10.7376 131.125 9.93359C132.379 9.12955 133.445 8.06349 134.25 6.80859C135.054 8.06349 136.12 9.12955 137.375 9.93359C136.12 10.7376 135.054 11.8037 134.25 13.0586Z" fill="#C93112"/>
<path d="M134.25 27.5684C133.445 26.3135 132.379 25.2474 131.125 24.4434C132.379 23.6393 133.445 22.5733 134.25 21.3184C135.054 22.5733 136.12 23.6393 137.375 24.4434C136.12 25.2474 135.054 26.3135 134.25 27.5684Z" fill="#C93112"/>
<path d="M121.75 27.5684C120.945 26.3135 119.879 25.2474 118.625 24.4434C119.879 23.6393 120.945 22.5733 121.75 21.3184C122.554 22.5733 123.62 23.6393 124.875 24.4434C123.62 25.2474 122.554 26.3135 121.75 27.5684Z" fill="#C93112"/>
<path d="M124.875 39.3984C123.62 40.2025 122.554 41.2685 121.75 42.5234C120.945 41.2685 119.879 40.2025 118.625 39.3984C119.879 38.5944 120.945 37.5283 121.75 36.2734C122.554 37.5283 123.62 38.5944 124.875 39.3984Z" fill="#C93112"/>
<path d="M137.375 39.3984C136.12 40.2025 135.054 41.2685 134.25 42.5234C133.445 41.2685 132.379 40.2025 131.125 39.3984C132.379 38.5944 133.445 37.5283 134.25 36.2734C135.054 37.5283 136.12 38.5944 137.375 39.3984Z" fill="#C93112"/>
</g>
<g opacity="0.5">
<path d="M180.339 0H149.089C147.857 0 146.857 0.999364 146.857 2.23214V47.7679C146.857 49.0006 147.857 50 149.089 50H180.339C181.572 50 182.571 49.0006 182.571 47.7679V2.23214C182.571 0.999364 181.572 0 180.339 0Z" fill="#F9F1DF"/>
<path d="M153.58 10.2938C153.454 10.1695 153.284 10.0998 153.107 10.0998C152.93 10.0998 152.76 10.1695 152.634 10.2938L152.348 10.584C152.409 10.3837 152.527 10.2054 152.687 10.0706C152.781 9.97694 152.845 9.85768 152.87 9.72786C152.896 9.59804 152.883 9.46348 152.832 9.3412C152.782 9.21891 152.696 9.11437 152.586 9.04078C152.476 8.96719 152.347 8.92785 152.214 8.92773C152.037 8.92838 151.867 8.99896 151.741 9.12416C151.678 9.18603 151.629 9.25972 151.595 9.34095C151.561 9.42218 151.543 9.50934 151.543 9.59738C151.543 9.68541 151.561 9.77257 151.595 9.8538C151.629 9.93504 151.678 10.0087 151.741 10.0706C151.901 10.2054 152.019 10.3837 152.08 10.584L151.795 10.2938C151.701 10.2007 151.581 10.1375 151.452 10.1121C151.322 10.0867 151.188 10.1003 151.065 10.1511C150.943 10.202 150.839 10.2878 150.766 10.3978C150.692 10.5078 150.653 10.637 150.653 10.7693C150.653 10.9015 150.692 11.0307 150.766 11.1407C150.839 11.2507 150.943 11.3366 151.065 11.3874C151.188 11.4382 151.322 11.4518 151.452 11.4264C151.581 11.401 151.701 11.3378 151.795 11.2447L152.125 10.9099C152.139 11.1025 152.115 11.2961 152.054 11.4793C151.992 11.6625 151.895 11.8316 151.768 11.9768V12.084H152.661V11.9768C152.405 11.6843 152.275 11.3023 152.299 10.9143V10.8876L152.629 11.2224C152.692 11.2845 152.766 11.3338 152.847 11.3673C152.929 11.4008 153.016 11.4179 153.104 11.4177C153.192 11.4175 153.279 11.4 153.361 11.3661C153.442 11.3322 153.516 11.2826 153.578 11.2201C153.64 11.1577 153.689 11.0836 153.723 11.0022C153.756 10.9207 153.774 10.8334 153.773 10.7454C153.773 10.6573 153.756 10.5701 153.722 10.4888C153.688 10.4075 153.638 10.3336 153.576 10.2715L153.58 10.2938Z" fill="#1F1F1F"/>
<path d="M175.848 39.7042C175.974 39.8286 176.144 39.8983 176.321 39.8983C176.498 39.8983 176.668 39.8286 176.795 39.7042L177.08 39.4141C177.019 39.6144 176.901 39.7927 176.741 39.9275C176.647 40.0211 176.584 40.1404 176.558 40.2702C176.532 40.4 176.545 40.5346 176.596 40.6569C176.647 40.7791 176.732 40.8837 176.842 40.9573C176.953 41.0309 177.082 41.0702 177.214 41.0703C177.392 41.0697 177.562 40.9991 177.687 40.8739C177.75 40.812 177.8 40.7383 177.834 40.6571C177.868 40.5759 177.885 40.4887 177.885 40.4007C177.885 40.3126 177.868 40.2255 177.834 40.1442C177.8 40.063 177.75 39.9893 177.687 39.9275C177.527 39.7927 177.409 39.6144 177.348 39.4141L177.634 39.7042C177.728 39.7973 177.847 39.8606 177.977 39.886C178.107 39.9114 178.241 39.8978 178.363 39.8469C178.485 39.7961 178.589 39.7103 178.663 39.6003C178.736 39.4903 178.775 39.361 178.775 39.2288C178.775 39.0966 178.736 38.9673 178.663 38.8573C178.589 38.7473 178.485 38.6615 178.363 38.6107C178.241 38.5598 178.107 38.5462 177.977 38.5716C177.847 38.597 177.728 38.6602 177.634 38.7533L177.303 39.0882C177.289 38.8955 177.313 38.702 177.375 38.5188C177.436 38.3356 177.533 38.1664 177.661 38.0212V37.9141H176.768V38.0212C177.024 38.3138 177.154 38.6957 177.129 39.0837V39.1105L176.799 38.7757C176.737 38.7135 176.663 38.6643 176.581 38.6308C176.5 38.5972 176.412 38.5801 176.324 38.5803C176.146 38.5807 175.976 38.6518 175.85 38.7779C175.725 38.904 175.655 39.0748 175.655 39.2527C175.655 39.4306 175.726 39.6011 175.853 39.7266L175.848 39.7042Z" fill="#1F1F1F"/>
<path d="M152.214 7.29018V7.58929H150.429V7.29018L150.835 7.20982C150.873 7.20369 150.909 7.18664 150.938 7.16071C150.961 7.13168 150.974 7.09537 150.973 7.05804V4.08036C150.975 4.0415 150.962 4.00343 150.938 3.97321C150.912 3.9448 150.877 3.92721 150.839 3.92411L150.429 3.83929V3.53125H152.214V3.83929L151.799 3.92411C151.781 3.92523 151.763 3.93018 151.747 3.93864C151.731 3.94711 151.717 3.95889 151.705 3.97321C151.681 4.00343 151.668 4.0415 151.67 4.08036V5.71429L153.196 3.92857L152.75 3.83929V3.53125H154.223V3.83929L153.839 3.92411C153.808 3.92829 153.777 3.93892 153.75 3.95536C153.72 3.96904 153.692 3.98879 153.67 4.01339L152.661 5.13393C152.754 5.24612 152.841 5.3639 152.92 5.48661C153 5.61756 153.094 5.77381 153.201 5.95536L153.826 7.02679C153.855 7.07284 153.887 7.11617 153.924 7.15625C153.964 7.18831 154.012 7.20979 154.063 7.21875L154.335 7.29018V7.58929H153.406C153.339 7.58929 153.272 7.54018 153.201 7.4375C153.111 7.30932 153.031 7.17507 152.96 7.03571C152.96 7.03571 152.415 6.00893 152.362 5.91518C152.308 5.82143 152.254 5.72768 152.201 5.64732L151.687 6.22768V7.0625C151.686 7.09996 151.699 7.13654 151.723 7.16518C151.751 7.19288 151.787 7.21023 151.826 7.21429L152.214 7.29018Z" fill="#1F1F1F"/>
<path d="M177.214 42.7093V42.4102H179V42.7093L178.594 42.7896C178.557 42.7958 178.523 42.8129 178.496 42.8387C178.483 42.8525 178.473 42.8688 178.467 42.8864C178.461 42.9041 178.459 42.9228 178.46 42.9414V45.9191C178.457 45.9574 178.468 45.9954 178.491 46.0262C178.516 46.0546 178.552 46.0722 178.589 46.0753L179 46.1602V46.4682H177.214V46.1602L177.625 46.0753C177.644 46.0743 177.662 46.0694 177.679 46.0609C177.696 46.0525 177.711 46.0407 177.723 46.0262C177.746 45.9954 177.757 45.9574 177.755 45.9191V44.2852L176.228 46.0709L176.674 46.1602V46.4682H175.201V46.1602L175.585 46.0753C175.618 46.0704 175.65 46.0598 175.679 46.0441C175.707 46.0291 175.733 46.0095 175.755 45.9861L176.764 44.8655C176.669 44.7534 176.581 44.6356 176.5 44.5128C176.42 44.3834 176.326 44.2271 176.223 44.0664L175.594 42.995C175.567 42.9479 175.534 42.9044 175.496 42.8655C175.457 42.8343 175.411 42.8128 175.362 42.803L175.085 42.7316V42.4102H176.018C176.08 42.4102 176.147 42.4593 176.219 42.5619C176.312 42.6888 176.394 42.8232 176.464 42.9637C176.464 42.9637 177.005 43.9905 177.058 44.0843C177.112 44.178 177.17 44.2718 177.223 44.3521L177.732 43.7718V42.9369C177.734 42.9183 177.731 42.8995 177.725 42.8818C177.719 42.8641 177.709 42.8479 177.697 42.8343C177.669 42.8066 177.633 42.7892 177.594 42.7852L177.214 42.7093Z" fill="#1F1F1F"/>
<path d="M176.822 7.64754C176.57 7.39673 176.23 7.25586 175.875 7.25586C175.52 7.25586 175.18 7.39673 174.929 7.64754L174.353 8.22343C174.48 7.82382 174.716 7.46797 175.036 7.19665C175.287 6.94553 175.428 6.60513 175.428 6.25022C175.428 5.8953 175.287 5.5549 175.036 5.30379C174.785 5.05298 174.444 4.91211 174.089 4.91211C173.735 4.91211 173.394 5.05298 173.143 5.30379C172.892 5.5549 172.751 5.8953 172.751 6.25022C172.751 6.60513 172.892 6.94553 173.143 7.19665C173.465 7.46563 173.703 7.82231 173.826 8.22343L173.25 7.64754C173.063 7.46007 172.824 7.33235 172.564 7.28054C172.305 7.22873 172.035 7.25515 171.79 7.35647C171.546 7.45779 171.336 7.62945 171.189 7.84973C171.042 8.07001 170.963 8.32901 170.963 8.59397C170.963 8.85892 171.042 9.11793 171.189 9.33821C171.336 9.55849 171.546 9.73015 171.79 9.83146C172.035 9.93278 172.305 9.95921 172.564 9.9074C172.824 9.85558 173.063 9.72786 173.25 9.5404L173.915 8.87968V8.92879C173.943 9.31437 173.894 9.7016 173.77 10.0679C173.647 10.4343 173.452 10.7724 173.197 11.0627V11.2859H174.982V11.0627C174.472 10.4769 174.214 9.71311 174.264 8.93772C174.264 8.93772 174.264 8.91093 174.264 8.89307L174.924 9.55379C175.178 9.79036 175.514 9.91915 175.861 9.91303C176.208 9.90691 176.539 9.76635 176.784 9.52097C177.03 9.27559 177.17 8.94454 177.176 8.59758C177.182 8.25061 177.054 7.91481 176.817 7.66093L176.822 7.64754Z" fill="#1F1F1F"/>
<path d="M158.072 42.3571C157.821 42.6079 157.48 42.7488 157.125 42.7488C156.77 42.7488 156.43 42.6079 156.179 42.3571L155.603 41.7812C155.73 42.1792 155.967 42.5335 156.286 42.8036C156.473 42.9909 156.6 43.2294 156.652 43.489C156.703 43.7487 156.677 44.0178 156.576 44.2624C156.474 44.5069 156.303 44.716 156.083 44.8632C155.863 45.0104 155.604 45.0891 155.339 45.0893C155.073 45.0908 154.813 45.0131 154.591 44.8661C154.37 44.719 154.197 44.5093 154.095 44.2636C153.993 44.0179 153.966 43.7474 154.019 43.4866C154.071 43.2258 154.2 42.9864 154.389 42.7991C154.711 42.532 154.948 42.1767 155.072 41.7768L154.496 42.3527C154.308 42.5395 154.07 42.6666 153.81 42.7179C153.55 42.7692 153.281 42.7424 153.037 42.6409C152.792 42.5394 152.583 42.3677 152.436 42.1476C152.289 41.9275 152.211 41.6687 152.211 41.404C152.211 41.1393 152.289 40.8806 152.436 40.6604C152.583 40.4403 152.792 40.2686 153.037 40.1671C153.281 40.0656 153.55 40.0388 153.81 40.0901C154.07 40.1414 154.308 40.2685 154.496 40.4554L155.161 41.1205V41.0714C155.189 40.6865 155.14 40.2998 155.016 39.9342C154.893 39.5685 154.698 39.2311 154.442 38.942V38.7188H156.228V38.942C155.718 39.5262 155.459 40.2885 155.509 41.0625C155.509 41.0625 155.509 41.0937 155.509 41.1116L156.17 40.4464C156.421 40.1954 156.762 40.0546 157.118 40.0551C157.473 40.0555 157.814 40.1971 158.065 40.4487C158.316 40.7003 158.457 41.0413 158.456 41.3967C158.456 41.7521 158.314 42.0927 158.063 42.3437L158.072 42.3571Z" fill="#1F1F1F"/>
<path d="M179 35.7151H178.554V4.01869H156.679V3.57227H178.777L179 3.79548V35.7151ZM150.429 14.2866V46.2062L150.652 46.4294H172.75V45.983H150.875V14.2866H150.429Z" fill="#1F1F1F"/>
<path d="M167.393 44.0359C166.703 44.0427 166.028 43.8232 165.474 43.4109C165.581 43.2323 165.697 43.0627 165.795 42.8663L165.385 42.6788C165.19 43.1463 164.89 43.5623 164.507 43.8939C164.124 44.2255 163.67 44.4636 163.179 44.5895C162.795 44.262 162.492 43.8493 162.295 43.3843C162.098 42.9193 162.013 42.4148 162.045 41.9109H161.599C161.596 42.1201 161.611 42.3293 161.643 42.5359C160.973 42.836 160.219 42.8959 159.51 42.7055C160.022 42.1666 160.396 41.5107 160.599 40.7948C162.648 40.6252 163.768 40.46 166.733 41.893C166.83 42.6396 167.053 43.3642 167.393 44.0359Z" fill="#CBBD9F"/>
<path d="M174.858 35.4741C174.621 35.2094 174.406 34.9257 174.215 34.6259L173.813 34.7151C173.693 35.357 173.437 35.9658 173.063 36.5009C172.682 35.9685 172.423 35.3588 172.304 34.7151L171.902 34.6259C171.713 34.9235 171.498 35.2043 171.26 35.4651C171.289 35.067 171.421 34.683 171.641 34.3501C171.861 34.0171 172.164 33.7463 172.519 33.5634L172.331 33.1526C172.204 33.2185 172.082 33.2931 171.965 33.3759C171.953 33.2293 171.969 33.0817 172.014 32.9416C172.059 32.8015 172.131 32.6716 172.226 32.5592C172.321 32.4469 172.437 32.3543 172.567 32.2869C172.698 32.2194 172.841 32.1784 172.987 32.166C173.134 32.1537 173.281 32.1704 173.422 32.2151C173.562 32.2598 173.692 32.3317 173.804 32.4266C173.916 32.5216 174.009 32.6377 174.076 32.7684C174.144 32.8991 174.185 33.0418 174.197 33.1884C174.193 33.2514 174.184 33.3141 174.17 33.3759C174.054 33.2931 173.931 33.2185 173.804 33.1526L173.617 33.5634C173.97 33.7483 174.27 34.0213 174.488 34.356C174.705 34.6907 174.833 35.0758 174.858 35.4741Z" fill="#CBBD9F"/>
<path d="M173.563 28.5452V31.697C173.237 31.5786 172.88 31.5786 172.554 31.697V28.5273L173.563 28.5452Z" fill="#CBBD9F"/>
<path d="M171.786 29.5541C170.638 30.2649 169.569 31.0971 168.599 32.0363C168.277 31.9426 167.943 31.8915 167.608 31.8845C168.643 30.8898 169.787 30.0152 171.019 29.2773C171.257 29.4127 171.516 29.5064 171.786 29.5541Z" fill="#2D6B67"/>
<path d="M163.777 40.3044C163.599 40.2776 163.42 40.2508 163.251 40.233C163.492 39.3848 163.045 38.5008 162.027 37.9026C161.081 37.3401 159.92 36.4741 160.063 35.1348C160.509 36.8669 162.572 37.1035 163.465 38.3223C163.665 38.6068 163.797 38.9335 163.851 39.2771C163.905 39.6207 163.88 39.9721 163.777 40.3044Z" fill="#CBBD9F"/>
<path d="M162.795 40.1791C162.59 40.1791 162.384 40.1791 162.197 40.1791C162.465 38.6568 159.902 38.2684 159.938 36.5273C160.392 37.2653 161.036 37.8669 161.804 38.2684C162.661 38.7952 163.036 39.5273 162.795 40.1791Z" fill="#CBBD9F"/>
<path d="M161.733 40.2227C161.572 40.2227 161.402 40.2494 161.251 40.2673C160.661 39.8744 160.121 38.6066 159.911 37.8477C160.648 38.8387 162.001 39.3164 161.733 40.2227Z" fill="#CBBD9F"/>
<path d="M170.608 29.0173C169.275 29.8331 168.046 30.8075 166.947 31.9191C165.709 32.0911 164.548 32.6214 163.607 33.4448C162.666 34.2681 161.987 35.3485 161.652 36.553C161.241 36.3157 160.878 36.0038 160.581 35.6334C160.422 35.4373 160.314 35.2054 160.266 34.9579C160.218 34.7105 160.231 34.455 160.304 34.2137C162.892 31.3375 166.292 29.3139 170.054 28.4102C170.215 28.6327 170.401 28.8364 170.608 29.0173Z" fill="#C93112"/>
<path d="M158.465 22.0547C157.216 22.9122 156.192 24.0575 155.479 25.3939C154.765 26.7302 154.384 28.2185 154.367 29.7333C154.367 31.9029 156.152 33.5904 158.465 33.5904C160.777 33.5904 162.563 31.9029 162.563 29.7333C162.547 28.2183 162.166 26.7294 161.453 25.3928C160.74 24.0562 159.715 22.9111 158.465 22.0547ZM158.322 23.394H158.608C159.66 24.2823 160.481 25.4129 161.001 26.6886L160.581 26.8493C160.118 25.7012 159.393 24.6769 158.465 23.8583C157.536 24.6769 156.812 25.7012 156.349 26.8493L155.929 26.6886C156.448 25.4203 157.266 24.2962 158.313 23.4118L158.322 23.394ZM155.733 29.8493L155.286 29.9297C155.174 29.3149 155.236 28.6808 155.465 28.0993L155.876 28.269C155.671 28.7758 155.619 29.331 155.724 29.8672L155.733 29.8493ZM156.688 32.01C156.32 31.7714 156.007 31.4581 155.768 31.0904L156.143 30.8493C156.352 31.1651 156.622 31.4354 156.938 31.644L156.688 32.01ZM157.849 32.4833L157.929 32.0368C158.28 32.1078 158.641 32.1078 158.992 32.0368L159.081 32.4833C158.673 32.5753 158.25 32.5814 157.84 32.5011L157.849 32.4833ZM158.465 31.2511C158.214 31.2505 157.967 31.2006 157.736 31.1043C157.505 31.008 157.295 30.8671 157.118 30.6896C156.942 30.5122 156.802 30.3017 156.706 30.0702C156.611 29.8387 156.562 29.5907 156.563 29.3404H157.009C157.009 29.7264 157.163 30.0966 157.436 30.3695C157.709 30.6424 158.079 30.7958 158.465 30.7958C158.851 30.7958 159.221 30.6424 159.494 30.3695C159.767 30.0966 159.92 29.7264 159.92 29.3404H160.367C160.367 29.5907 160.318 29.8387 160.223 30.0702C160.128 30.3017 159.988 30.5122 159.811 30.6896C159.635 30.8671 159.425 31.008 159.194 31.1043C158.963 31.2006 158.715 31.2505 158.465 31.2511ZM160.251 32.0368L160.001 31.6708C160.317 31.4635 160.588 31.193 160.795 30.8761L161.17 31.1172C160.925 31.477 160.613 31.7862 160.251 32.0279V32.0368ZM161.206 29.8761C161.304 29.3455 161.251 28.7981 161.054 28.2958L161.465 28.1261C161.694 28.7075 161.756 29.3417 161.643 29.9565L161.206 29.8761Z" fill="#CBBD9F"/>
<path d="M167.84 26.3839C166.108 27.0123 164.473 27.8809 162.983 28.9643C162.951 28.5135 162.886 28.0658 162.786 27.625L165.965 22.875C166.339 24.1623 166.978 25.3574 167.84 26.3839Z" fill="#2D6B67"/>
<path d="M166.688 22.3217L163.519 27.0806C163.138 25.7985 162.5 24.6075 161.644 23.5806C163.378 22.951 165.014 22.0761 166.501 20.9824C166.533 21.4326 166.596 21.88 166.688 22.3217Z" fill="#C93112"/>
<path d="M171.001 16.3574C168.706 16.3574 166.902 18.0539 166.902 20.2146C166.917 21.7299 167.297 23.2192 168.01 24.5561C168.724 25.893 169.75 27.0378 171.001 27.8931C172.253 27.039 173.281 25.8947 173.996 24.5577C174.711 23.2208 175.093 21.7307 175.108 20.2146C175.108 18.0539 173.304 16.3574 171.001 16.3574ZM172.786 17.9199C173.156 18.1558 173.47 18.4696 173.706 18.8396L173.34 19.0896C173.133 18.7727 172.862 18.5022 172.545 18.2949L172.786 17.9199ZM171.634 17.4467L171.545 17.8931C171.194 17.8307 170.834 17.8307 170.483 17.8931L170.393 17.4467C170.801 17.3763 171.218 17.3763 171.626 17.4467H171.634ZM171.009 18.7146C171.26 18.714 171.508 18.7627 171.739 18.858C171.971 18.9532 172.181 19.0931 172.359 19.2697C172.536 19.4463 172.677 19.6561 172.773 19.8872C172.87 20.1183 172.92 20.366 172.92 20.6164H172.474C172.474 20.2292 172.32 19.8579 172.046 19.5841C171.772 19.3103 171.401 19.1565 171.014 19.1565C170.627 19.1565 170.255 19.3103 169.982 19.5841C169.708 19.8579 169.554 20.2292 169.554 20.6164H169.108C169.108 20.1135 169.307 19.6311 169.662 19.2747C170.016 18.9183 170.498 18.7169 171.001 18.7146H171.009ZM169.224 17.9199L169.465 18.2949C169.149 18.5035 168.879 18.7738 168.67 19.0896L168.304 18.8396C168.545 18.471 168.862 18.1576 169.233 17.9199H169.224ZM168.009 21.8306C167.771 21.2514 167.709 20.6147 167.831 20.0003L168.277 20.0896C168.174 20.617 168.226 21.1632 168.429 21.661L168.009 21.8306ZM171.134 26.5449H170.84C169.79 25.6563 168.972 24.5256 168.456 23.2503L168.867 23.0806C169.335 24.2282 170.059 25.2541 170.983 26.0806C171.912 25.2568 172.639 24.2303 173.108 23.0806L173.518 23.2503C173.005 24.522 172.193 25.6518 171.152 26.5449H171.134ZM173.974 21.8306L173.563 21.661C173.766 21.1633 173.819 20.617 173.715 20.0896L174.161 20.0003C174.288 20.6137 174.229 21.2509 173.992 21.8306H173.974Z" fill="#CBBD9F"/>
<path d="M169.179 15.7319C166.595 18.6123 163.194 20.6368 159.429 21.5354C159.261 21.3155 159.066 21.1175 158.849 20.9461C160.191 20.1251 161.429 19.1448 162.536 18.0265C163.777 17.8578 164.941 17.3288 165.883 16.5051C166.826 15.6814 167.506 14.5992 167.84 13.3926C168.254 13.6185 168.621 13.9216 168.92 14.2854C169.078 14.4872 169.184 14.7244 169.229 14.9765C169.274 15.2286 169.257 15.4879 169.179 15.7319Z" fill="#2D6B67"/>
<path d="M161.858 18.0619C160.829 19.0562 159.69 19.9308 158.465 20.6691C158.22 20.54 157.959 20.4468 157.688 20.3923C158.84 19.6822 159.911 18.85 160.884 17.9102C161.201 18.001 161.528 18.052 161.858 18.0619Z" fill="#C93112"/>
<path d="M156.902 18.2324V21.4021H155.902V18.2324C156.225 18.3509 156.58 18.3509 156.902 18.2324Z" fill="#CBBD9F"/>
<path d="M158.197 14.483C158.16 14.7299 158.097 14.9723 158.009 15.2062C157.919 15.4642 157.779 15.7019 157.596 15.9057C157.414 16.1095 157.193 16.2753 156.947 16.3937L157.126 16.7955C157.257 16.7363 157.383 16.6646 157.501 16.5812C157.525 16.7398 157.516 16.9019 157.472 17.0563C157.428 17.2108 157.351 17.3539 157.247 17.4759C157.143 17.5979 157.013 17.6958 156.867 17.7629C156.721 17.8301 156.563 17.8648 156.402 17.8648C156.242 17.8648 156.083 17.8301 155.937 17.7629C155.792 17.6958 155.662 17.5979 155.558 17.4759C155.453 17.3539 155.377 17.2108 155.333 17.0563C155.289 16.9019 155.279 16.7398 155.304 16.5812C155.419 16.6644 155.541 16.7362 155.67 16.7955L155.858 16.3937C155.505 16.2057 155.205 15.9323 154.985 15.5986C154.765 15.2648 154.632 14.8813 154.599 14.483C154.84 14.7414 155.055 15.0224 155.242 15.3223L155.652 15.233C155.771 14.5908 156.027 13.9818 156.402 13.4473C156.778 13.9818 157.033 14.5908 157.152 15.233L157.554 15.3223C157.747 15.0268 157.962 14.7462 158.197 14.483Z" fill="#CBBD9F"/>
<path d="M169.545 12.1083C168.777 11.0681 167.46 10.6217 167.724 9.72433C167.893 9.72433 168.054 9.69754 168.206 9.67969C168.795 10.0725 169.344 11.3538 169.545 12.1083Z" fill="#CBBD9F"/>
<path d="M169.527 13.3931C169.066 12.6641 168.423 12.0673 167.661 11.661C166.795 11.1431 166.42 10.411 166.67 9.73242C166.869 9.75022 167.069 9.75022 167.268 9.73242C166.987 11.2503 169.545 11.6833 169.527 13.3931Z" fill="#CBBD9F"/>
<path d="M169.393 14.8211C168.947 13.0756 166.911 12.8658 166 11.6247C165.796 11.3424 165.66 11.016 165.604 10.6718C165.548 10.3276 165.574 9.97511 165.679 9.64258C165.866 9.67829 166.045 9.69615 166.215 9.71401C165.965 10.5711 166.411 11.4461 167.429 12.0533C168.375 12.6069 169.536 13.4819 169.393 14.8211Z" fill="#CBBD9F"/>
<path d="M169.965 7.27706C169.454 7.81272 169.083 8.46586 168.885 9.17885C166.393 9.59403 164.751 9.03153 162.742 8.08064C162.647 7.32489 162.424 6.59099 162.081 5.91099C162.776 5.90179 163.455 6.12487 164.01 6.54492C163.885 6.71556 163.777 6.89797 163.688 7.08956L164.09 7.27706C164.286 6.80515 164.591 6.38577 164.978 6.05245C165.366 5.71912 165.826 5.4811 166.322 5.35742C166.703 5.68734 167.004 6.1004 167.201 6.5648C167.397 7.02919 167.485 7.53251 167.456 8.03599H167.902C167.898 7.82671 167.88 7.61793 167.849 7.41099C168.518 7.12689 169.265 7.07965 169.965 7.27706Z" fill="#CBBD9F"/>
<path d="M163.451 10.714V11.0667C163.452 11.096 163.448 11.1253 163.438 11.1528C163.428 11.1804 163.412 11.2056 163.392 11.2272C163.372 11.2487 163.348 11.2662 163.322 11.2785C163.295 11.2908 163.266 11.2977 163.237 11.2988C163.177 11.3 163.12 11.2778 163.076 11.2369C163.033 11.196 163.007 11.1397 163.005 11.0801V10.7274C163.005 10.6682 163.028 10.6114 163.07 10.5696C163.112 10.5277 163.169 10.5042 163.228 10.5042C163.287 10.5042 163.344 10.5277 163.386 10.5696C163.428 10.6114 163.451 10.6682 163.451 10.7274V10.714ZM175.313 34.5935C175.436 34.9172 175.511 35.257 175.536 35.6024C175.536 36.022 175.237 36.1426 174.947 35.9372C174.722 35.7472 174.524 35.528 174.357 35.2854C174.176 35.917 173.873 36.5069 173.465 37.022H173.116C172.707 36.5058 172.404 35.9143 172.223 35.281C171.973 35.6247 171.532 36.2229 171.197 35.9729C171.144 35.9268 171.102 35.8688 171.076 35.8036C171.05 35.7385 171.039 35.668 171.045 35.5979C171.07 35.2541 171.146 34.9158 171.268 34.5935C171.39 34.2603 171.58 33.9562 171.826 33.7006C171.718 33.3907 171.71 33.0544 171.805 32.74C171.9 32.4256 172.091 32.1492 172.353 31.9506V30.0087C171.344 30.6517 170.398 31.3886 169.527 32.2095C169.823 32.3454 170.09 32.5346 170.317 32.7676L170.228 33.1337C169.98 33.2098 169.739 33.3038 169.505 33.4149C169.256 33.5145 169.048 33.6951 168.914 33.9276C168.78 34.1601 168.729 34.4309 168.768 34.6962C168.817 35.0433 168.77 35.3973 168.631 35.7193C168.493 36.0414 168.268 36.3191 167.982 36.522C168.089 36.7004 168.124 36.9121 168.082 37.1154C168.04 37.3187 167.923 37.4988 167.755 37.6203L168.058 37.7587L168.13 38.1158C167.282 39.0087 167.331 39.2051 167.331 40.1203C167.366 40.5378 167.28 40.9567 167.081 41.3256L167.482 41.5131C167.519 41.5308 167.549 41.558 167.571 41.5918C167.593 41.6256 167.606 41.6648 167.607 41.7051C167.699 42.5608 167.968 43.388 168.398 44.1337L168.223 44.4685C167.318 44.5668 166.408 44.3249 165.67 43.7899C165.145 44.4288 164.423 44.8749 163.616 45.0578L163.424 45.0087C162.783 44.4942 162.333 43.7787 162.148 42.9774C161.286 43.3136 160.33 43.3136 159.469 42.9774L159.398 42.6024C159.967 42.0828 160.384 41.4175 160.603 40.6783L160.648 40.5042C160.658 40.4596 160.682 40.4194 160.717 40.3891C160.751 40.3587 160.794 40.3397 160.84 40.3345H160.907C159.782 39.0712 159.344 36.4953 158.375 35.1158C157.549 33.9417 156.304 33.5756 155.353 32.4372C154.72 31.6784 154.375 30.7202 154.38 29.7319C154.368 28.1246 154.769 26.5412 155.545 25.1337C155.067 25.1088 154.615 24.9104 154.273 24.5756C154.189 24.4734 154.135 24.3502 154.117 24.2195C154.099 24.0888 154.117 23.9556 154.17 23.8345C154.201 23.7676 154.21 23.7899 154.17 23.7676C154.032 23.6532 153.942 23.4916 153.916 23.3143C153.89 23.137 153.932 22.9565 154.032 22.8078C153.942 22.6792 153.899 22.5246 153.908 22.3685C153.917 22.2124 153.978 22.0637 154.081 21.9462C154.025 21.8481 154 21.7355 154.01 21.6231C154.019 21.5107 154.063 21.4039 154.134 21.3167C154.427 21.0198 154.825 20.8499 155.241 20.8435C155.241 17.9551 155.241 18.0087 155.241 17.9997C154.98 17.802 154.788 17.5267 154.692 17.2132C154.597 16.8996 154.603 16.564 154.71 16.2542C154.341 15.853 154.094 15.354 154 14.8167C153.933 14.531 153.853 14.1292 154.081 13.964C154.128 13.9323 154.182 13.9136 154.238 13.9097C154.295 13.9057 154.351 13.9168 154.402 13.9417C154.687 14.1288 154.928 14.3737 155.112 14.6604C155.292 14.0282 155.595 13.4379 156.005 12.9238H156.353C156.764 13.4388 157.067 14.0308 157.246 14.6649C157.396 14.4525 157.566 14.2551 157.755 14.0756C157.846 13.9822 157.968 13.9251 158.099 13.9149C158.159 13.9141 158.218 13.931 158.269 13.9635C158.32 13.9961 158.36 14.0428 158.384 14.0979C158.451 14.3344 158.451 14.5846 158.384 14.8212C158.287 15.357 158.039 15.8541 157.67 16.2542C157.779 16.5634 157.786 16.8992 157.692 17.213C157.597 17.5268 157.405 17.8023 157.143 17.9997V19.9417C158.152 19.2987 159.098 18.5618 159.969 17.7408C159.673 17.6039 159.404 17.4149 159.174 17.1828L159.268 16.8122C159.709 16.7086 160.117 16.4969 160.456 16.1961C160.571 16.0384 160.654 15.8594 160.7 15.6693C160.746 15.4793 160.754 15.2821 160.724 15.089C160.698 14.7677 160.758 14.4454 160.895 14.1541C161.033 13.8628 161.245 13.6126 161.509 13.4283C161.403 13.2494 161.369 13.0373 161.412 12.834C161.455 12.6307 161.572 12.4509 161.741 12.3301L161.438 12.1917L161.366 11.8345C161.526 11.6639 161.675 11.4835 161.813 11.2944C162.069 10.9611 162.188 10.543 162.148 10.1247C162.084 9.61107 162.171 9.09007 162.398 8.62472L161.996 8.43722C161.959 8.42033 161.928 8.39332 161.906 8.35934C161.883 8.32536 161.871 8.2858 161.871 8.24526C161.776 7.3889 161.507 6.56096 161.081 5.81222L161.255 5.48186C162.165 5.37972 163.081 5.62177 163.822 6.16044C164.344 5.5208 165.065 5.07446 165.871 4.89258L166.067 4.94169C166.709 5.45612 167.159 6.17165 167.344 6.97294C168.205 6.63675 169.161 6.63675 170.023 6.97294L170.094 7.34793C169.523 7.86699 169.104 8.53236 168.884 9.27204L168.844 9.44615C168.833 9.49042 168.808 9.53028 168.774 9.56053C168.74 9.59079 168.697 9.61004 168.652 9.61579H168.581C169.71 10.8792 170.148 13.4551 171.116 14.8345C171.933 15.9953 173.174 16.3747 174.107 17.4774C174.76 18.2396 175.118 19.2105 175.116 20.214C175.125 21.8229 174.723 23.4072 173.947 24.8167C174.599 24.897 175.375 25.1828 175.38 25.839C175.381 25.9553 175.35 26.0697 175.29 26.1694C175.435 26.2818 175.531 26.4447 175.56 26.6252C175.589 26.8058 175.549 26.9907 175.447 27.1426C175.534 27.2716 175.577 27.426 175.568 27.5817C175.559 27.7374 175.499 27.8859 175.398 28.0042C175.438 28.0854 175.461 28.1744 175.465 28.2652C175.469 28.356 175.453 28.4465 175.42 28.5309C175.386 28.6153 175.335 28.6915 175.269 28.7546C175.204 28.8177 175.126 28.8663 175.04 28.897C174.789 29.0217 174.516 29.096 174.237 29.1158V31.9551C174.499 32.1535 174.691 32.4296 174.786 32.7439C174.882 33.0582 174.875 33.3946 174.768 33.7051C175.008 33.9629 175.193 34.2666 175.313 34.5979V34.5935ZM173.67 17.6604C172.916 16.8779 171.894 16.4076 170.809 16.3431C169.724 16.2786 168.655 16.6246 167.813 17.3122C167.732 17.3792 167.657 17.4506 167.581 17.522C167.22 17.8681 166.935 18.2843 166.741 18.7449C166.548 19.2056 166.45 19.701 166.456 20.2006C166.451 22.3202 167.19 24.3742 168.545 26.0042C169.122 26.7178 169.8 27.3434 170.558 27.8613C172.085 26.8199 173.279 25.3617 174 23.6604C174.443 22.5703 174.668 21.404 174.661 20.2274C174.665 19.279 174.311 18.3641 173.67 17.6649V17.6604ZM163.478 40.2274C163.652 40.2274 163.831 40.2676 164.018 40.2988C164.118 39.9649 164.139 39.6125 164.081 39.2688C164.023 38.9252 163.887 38.5994 163.683 38.3167C162.79 37.1247 160.755 36.8301 160.286 35.1604C160.174 36.397 161.179 37.2631 162.25 37.8926C163.13 38.4194 163.75 39.2854 163.478 40.2319V40.2274ZM162.429 40.1917C162.625 40.1806 162.822 40.1806 163.018 40.1917C163.088 39.9945 163.109 39.7833 163.078 39.5764C163.048 39.3694 162.967 39.173 162.844 39.0042C162.398 38.3435 161.817 38.2676 160.978 37.5399C160.647 37.2616 160.368 36.9278 160.152 36.5533C160.125 38.2587 162.692 38.6828 162.429 40.1783V40.1917ZM162.067 36.5399C162.41 35.3346 163.096 34.2551 164.042 33.433C164.987 32.611 166.152 32.0819 167.393 31.9104C168.492 30.7995 169.721 29.8252 171.054 29.0087C170.839 28.8329 170.645 28.6321 170.478 28.4104C167.391 29.115 164.539 30.6086 162.201 32.7453C161.689 33.2008 161.203 33.6853 160.746 34.1962C160.67 34.4397 160.655 34.6982 160.702 34.949C160.75 35.1997 160.858 35.4348 161.018 35.6337C161.308 36.0003 161.664 36.3092 162.067 36.5444V36.5399ZM165.982 9.71401C165.808 9.71401 165.63 9.67383 165.442 9.64258C165.342 9.97648 165.32 10.329 165.378 10.6728C165.436 11.0165 165.573 11.3423 165.777 11.6247C166.648 12.8167 168.706 13.1069 169.174 14.781C169.286 13.5488 168.282 12.6783 167.21 12.0488C166.335 11.5354 165.71 10.6872 165.982 9.71847V9.71401ZM167.032 9.74972C166.835 9.74972 166.657 9.74972 166.438 9.74972C166.37 9.94748 166.351 10.1586 166.382 10.3653C166.413 10.5719 166.494 10.7681 166.616 10.9372C167.063 11.5979 167.639 11.6738 168.482 12.4015C168.813 12.6798 169.093 13.0137 169.308 13.3881C169.335 11.6917 166.768 11.2676 167.032 9.75419V9.74972ZM167.393 13.3926C167.051 14.5963 166.367 15.6749 165.424 16.4974C164.481 17.32 163.32 17.8512 162.081 18.0265C160.982 19.1375 159.752 20.1118 158.42 20.9283C158.634 21.1036 158.827 21.3028 158.996 21.522C162.083 20.8215 164.934 19.3291 167.268 17.1917C167.782 16.7375 168.268 16.253 168.723 15.7408C168.801 15.4978 168.818 15.2391 168.771 14.9882C168.724 14.7373 168.616 14.5019 168.456 14.3033C168.16 13.9374 167.8 13.6287 167.393 13.3926ZM168.246 26.3658C167.393 25.3454 166.759 24.16 166.384 22.8836L163.224 27.6203C163.321 28.0524 163.386 28.4911 163.42 28.9328C164.902 27.862 166.527 27.0026 168.246 26.3792V26.3658ZM163.447 29.4908C163.483 30.1531 163.366 30.8148 163.103 31.4238C165.165 29.8619 167.515 28.7225 170.018 28.0712C169.488 27.6757 169.001 27.227 168.563 26.7319C166.729 27.3787 165.004 28.2999 163.447 29.464V29.4908ZM159.429 21.9015C159.957 22.2992 160.444 22.7478 160.884 23.2408C162.718 22.5894 164.442 21.6653 166 20.4997C165.963 19.8374 166.081 19.1756 166.344 18.5667C164.282 20.1096 161.937 21.2335 159.442 21.8747L159.429 21.9015ZM161.215 23.5845C162.07 24.6038 162.704 25.7895 163.076 27.0667L166.237 22.3212C166.139 21.8801 166.073 21.4325 166.04 20.9819C164.561 22.0667 162.937 22.9383 161.215 23.5711V23.5845ZM169.424 15.6247C169.366 15.714 169.018 16.0712 168.947 16.1738C169.81 15.8854 170.735 15.833 171.625 16.022C170.847 15.3603 170.266 14.4968 169.947 13.5265C169.943 14.2576 169.764 14.9772 169.424 15.6247ZM167.991 9.68276L167.496 9.73186C167.232 10.6247 168.576 11.0935 169.317 12.089C169.215 11.7056 169.08 11.3321 168.911 10.9729C168.7 10.4822 168.386 10.0422 167.991 9.68276ZM163.898 8.7899C164.378 8.9626 164.87 9.09841 165.371 9.19615C166.386 9.36808 167.423 9.36808 168.438 9.19615C168.634 8.48085 169.005 7.8257 169.518 7.2899C168.818 7.09522 168.073 7.14724 167.407 7.43722C167.431 7.65058 167.44 7.86543 167.433 8.08008H166.987C167.017 7.57644 166.93 7.07269 166.733 6.60808C166.537 6.14347 166.235 5.73055 165.853 5.40151C165.357 5.52584 164.897 5.76409 164.51 6.09734C164.122 6.43058 163.818 6.84962 163.621 7.32115L163.219 7.13365C163.307 6.9368 163.41 6.74722 163.527 6.56669C162.972 6.16039 162.3 5.94572 161.612 5.95508C161.96 6.63672 162.187 7.374 162.282 8.13365C162.835 8.33901 163.375 8.58454 163.898 8.77651V8.7899ZM166.991 13.1738C166.387 12.86 165.851 12.429 165.415 11.906C165.175 11.574 165.013 11.1919 164.941 10.7883C164.869 10.3848 164.889 9.97022 165 9.57561C164.247 9.40422 163.514 9.15434 162.813 8.83008C162.769 8.88253 162.733 8.9412 162.706 9.00419C162.672 9.13605 162.672 9.27411 162.706 9.40597C162.714 9.41957 162.727 9.43041 162.741 9.43722C162.812 9.46796 162.888 9.48754 162.965 9.49526C163.366 9.50838 163.761 9.60253 164.125 9.77204C164.181 9.79219 164.226 9.8336 164.251 9.88718C164.277 9.94075 164.279 10.0021 164.259 10.0578C164.237 10.113 164.195 10.1577 164.141 10.1826C164.087 10.2075 164.025 10.2108 163.969 10.1917L163.621 10.0622C163.264 9.92829 162.889 9.9774 162.607 9.87026C162.607 10.7631 162.607 11.1381 161.902 11.9283L162.773 12.3211C163.728 12.7676 163.563 13.5622 163.768 13.8345C163.837 13.9286 163.934 13.9984 164.045 14.0341C164.156 14.0699 164.275 14.0697 164.386 14.0335C164.497 13.9974 164.594 13.9272 164.662 13.833C164.731 13.7387 164.768 13.6252 164.768 13.5086C164.768 13.4364 164.751 13.3651 164.72 13.3001C164.688 13.2351 164.642 13.1782 164.585 13.1336L164.88 12.7988C165.031 12.9338 165.136 13.1125 165.182 13.3101C165.227 13.5077 165.209 13.7144 165.132 13.9017C165.054 14.089 164.921 14.2476 164.749 14.3555C164.578 14.4634 164.377 14.5154 164.174 14.5042C163.375 14.4774 162.389 14.3301 161.795 13.7944C161.563 13.9513 161.382 14.1715 161.272 14.4287C161.162 14.686 161.128 14.9694 161.174 15.2453C161.223 16.2676 160.728 16.7676 159.777 17.1247C161.808 18.6024 166.143 16.7631 166.991 13.1604V13.1738ZM162.371 13.6694C162.666 13.8267 162.986 13.9324 163.317 13.9819C163.103 13.5354 163.255 13.0399 162.572 12.7274L162.215 12.5667C161.59 12.8256 161.773 13.3256 162.371 13.656V13.6694ZM157.246 20.406C157.515 20.4534 157.775 20.5454 158.014 20.6783C159.24 19.9447 160.38 19.0745 161.411 18.0845C161.072 18.078 160.736 18.0269 160.411 17.9328C159.445 18.8612 158.384 19.6856 157.246 20.3926V20.406ZM156.179 17.8926C156.341 17.8922 156.5 17.8566 156.647 17.7883C156.794 17.72 156.924 17.6206 157.028 17.497C157.133 17.3735 157.209 17.2286 157.252 17.0726C157.295 16.9166 157.304 16.7531 157.277 16.5935C157.161 16.6776 157.037 16.7495 156.907 16.8078L156.719 16.4015C156.966 16.2847 157.188 16.12 157.371 15.9169C157.554 15.7138 157.695 15.4764 157.786 15.2185C157.872 14.9858 157.935 14.745 157.974 14.4997C157.737 14.7593 157.524 15.0386 157.335 15.3345L156.929 15.2497C156.81 14.6075 156.554 13.9984 156.179 13.464C155.8 13.9972 155.543 14.6066 155.424 15.2497L155.023 15.3345C154.83 15.0389 154.615 14.7583 154.38 14.4953C154.42 14.7415 154.483 14.9836 154.567 15.2185C154.753 15.738 155.137 16.1632 155.634 16.4015L155.451 16.8078C155.321 16.7495 155.196 16.6776 155.081 16.5935C155.056 16.7521 155.066 16.9141 155.11 17.0685C155.154 17.2229 155.231 17.366 155.335 17.488C155.439 17.61 155.569 17.7082 155.714 17.7757C155.86 17.8432 156.018 17.8785 156.179 17.8792V17.8926ZM155.679 18.2542V21.4149H156.679V18.2408C156.355 18.3524 156.003 18.3524 155.679 18.2408V18.2542ZM155.768 24.7229C156.495 23.5505 157.452 22.5376 158.581 21.7453C158.225 21.2749 157.706 20.956 157.125 20.8524V21.6515L156.902 21.8747H155.456L155.232 21.6515V21.3167C154.956 21.3277 154.692 21.4315 154.482 21.6113C154.47 21.6234 154.46 21.638 154.453 21.6541C154.446 21.6702 154.442 21.6875 154.442 21.7051C154.442 21.7226 154.446 21.74 154.453 21.7561C154.46 21.7722 154.47 21.7867 154.482 21.7988C154.719 22.0979 155.523 22.1381 155.907 22.1381C155.966 22.1381 156.023 22.1616 156.064 22.2035C156.106 22.2454 156.13 22.3021 156.13 22.3613C156.13 22.4205 156.106 22.4773 156.064 22.5192C156.023 22.561 155.966 22.5845 155.907 22.5845C155.383 22.6128 154.86 22.5116 154.384 22.2899C154.345 22.3503 154.331 22.4233 154.345 22.4938C154.358 22.5644 154.398 22.6272 154.456 22.6694C154.825 22.9104 155.261 23.0277 155.701 23.0042C155.76 23.0042 155.817 23.0277 155.859 23.0696C155.901 23.1114 155.924 23.1682 155.924 23.2274C155.924 23.2866 155.901 23.3434 155.859 23.3852C155.817 23.4271 155.76 23.4506 155.701 23.4506C155.495 23.4437 155.289 23.4244 155.085 23.3926C154.831 23.3619 154.586 23.2782 154.366 23.147C154.29 23.3613 154.496 23.5176 154.701 23.6203C154.933 23.7215 155.178 23.7877 155.429 23.8167C155.487 23.8266 155.539 23.8586 155.574 23.9061C155.609 23.9535 155.624 24.0127 155.616 24.0711C155.612 24.1002 155.602 24.1281 155.587 24.1532C155.572 24.1784 155.552 24.2003 155.528 24.2177C155.504 24.2351 155.478 24.2477 155.449 24.2547C155.421 24.2618 155.391 24.2631 155.362 24.2587C155.085 24.2246 154.815 24.1525 154.558 24.0444C154.541 24.0904 154.536 24.1402 154.544 24.1887C154.552 24.2373 154.572 24.2829 154.603 24.3212C154.939 24.5856 155.358 24.7231 155.786 24.7095L155.768 24.7229ZM155.768 32.3122C156.523 33.0948 157.544 33.565 158.629 33.6295C159.714 33.694 160.783 33.3481 161.625 32.6604L161.857 32.4506C162.218 32.1044 162.503 31.6882 162.697 31.2276C162.89 30.7669 162.987 30.2716 162.982 29.772C162.987 27.6525 162.248 25.5986 160.893 23.9685C160.328 23.2376 159.661 22.5925 158.911 22.0533C157.377 23.1072 156.181 24.5835 155.469 26.3033C155.027 27.392 154.802 28.5568 154.808 29.7319C154.802 30.6757 155.151 31.5874 155.786 32.2854L155.768 32.3122ZM160.014 34.3524C160.076 34.2586 160.42 33.906 160.491 33.8033C159.628 34.0917 158.703 34.1441 157.813 33.9551C158.478 34.5086 158.915 35.0444 159.491 36.4462C159.498 35.7055 159.685 34.9776 160.036 34.3256L160.014 34.3524ZM161.447 40.2944L161.942 40.2453C162.206 39.3524 160.857 38.8792 160.121 37.8881C160.269 38.4719 160.504 39.0302 160.817 39.5444C160.989 39.8232 161.209 40.0683 161.469 40.2676L161.447 40.2944ZM165.54 41.1872C165.059 41.0135 164.565 40.8777 164.063 40.781C163.049 40.609 162.014 40.609 161 40.781C160.804 41.4963 160.433 42.1514 159.92 42.6872C160.62 42.8797 161.365 42.8278 162.032 42.5399C162.005 42.3267 161.996 42.1117 162.005 41.897H162.451C162.421 42.4002 162.508 42.9036 162.704 43.368C162.899 43.8325 163.2 44.2457 163.581 44.5756C164.077 44.4526 164.537 44.2148 164.925 43.8814C165.313 43.548 165.617 43.1283 165.813 42.656L166.219 42.8435C166.132 43.0403 166.029 43.2299 165.911 43.4104C166.466 43.817 167.138 44.0317 167.826 44.022C167.476 43.341 167.25 42.6034 167.157 41.8435C166.625 41.6113 166.103 41.3658 165.563 41.1738L165.54 41.1872ZM162.482 36.7899C163.089 37.1024 163.626 37.5336 164.063 38.0578C164.303 38.3898 164.465 38.7718 164.537 39.1754C164.609 39.5789 164.589 39.9935 164.478 40.3881C165.231 40.5609 165.964 40.8107 166.665 41.1337C166.711 41.0804 166.747 41.0201 166.773 40.9551C166.804 40.8245 166.804 40.6884 166.773 40.5578C166.764 40.5442 166.752 40.5333 166.737 40.5265C166.665 40.4952 166.588 40.4756 166.509 40.4685C166.109 40.4526 165.717 40.3586 165.353 40.1917C165.299 40.1704 165.255 40.1288 165.231 40.0759C165.207 40.0229 165.205 39.9627 165.225 39.9081C165.245 39.8535 165.285 39.8087 165.337 39.7833C165.389 39.7579 165.45 39.7538 165.505 39.772L165.857 39.9015C166.215 40.0354 166.59 39.9863 166.866 40.0935C166.866 39.2006 166.866 38.8301 167.576 38.0354L166.683 37.6426C165.728 37.1962 165.893 36.4015 165.688 36.1292C165.619 36.0352 165.522 35.9653 165.411 35.9296C165.3 35.8939 165.181 35.8941 165.07 35.9302C164.959 35.9663 164.862 36.0365 164.794 36.1307C164.725 36.225 164.688 36.3385 164.688 36.4551C164.689 36.5273 164.705 36.5983 164.737 36.6632C164.769 36.7281 164.814 36.7851 164.871 36.8301L164.576 37.1649C164.425 37.0299 164.32 36.8512 164.274 36.6537C164.229 36.4561 164.247 36.2493 164.324 36.062C164.401 35.8748 164.535 35.7162 164.707 35.6082C164.878 35.5003 165.079 35.4483 165.282 35.4595C166.076 35.4863 167.067 35.6336 167.661 36.1694C167.892 36.012 168.073 35.7918 168.183 35.5347C168.293 35.2775 168.327 34.9943 168.282 34.7185C168.232 33.7006 168.728 33.1961 169.679 32.839C167.665 31.3569 163.322 33.1694 162.482 36.7899ZM166.161 35.9819C166.375 36.4283 166.224 36.9238 166.907 37.2363L167.264 37.397C168.085 37.0533 167.5 36.2185 166.143 35.9819H166.161ZM172.232 29.5578C171.964 29.5063 171.705 29.4145 171.465 29.2854C170.237 30.0177 169.097 30.8879 168.067 31.8792C168.406 31.8861 168.742 31.9372 169.067 32.031C170.028 31.0999 171.083 30.2711 172.215 29.5578H172.232ZM172.576 28.0979H174.023L174.246 28.3211V28.6604C174.523 28.6499 174.788 28.5443 174.996 28.3613C175.008 28.3496 175.018 28.3355 175.025 28.3197C175.032 28.304 175.036 28.287 175.036 28.2698C175.036 28.2526 175.032 28.2356 175.025 28.2199C175.018 28.2042 175.008 28.19 174.996 28.1783C174.759 27.8792 173.956 27.839 173.572 27.839C173.512 27.839 173.456 27.8155 173.414 27.7736C173.372 27.7318 173.348 27.675 173.348 27.6158C173.348 27.5566 173.372 27.4998 173.414 27.458C173.456 27.4161 173.512 27.3926 173.572 27.3926C174.096 27.3644 174.618 27.4656 175.094 27.6872C175.133 27.6268 175.147 27.5538 175.134 27.4833C175.12 27.4127 175.081 27.3499 175.023 27.3078C174.653 27.0649 174.214 26.9476 173.773 26.9729C173.713 26.9729 173.657 26.9494 173.615 26.9076C173.573 26.8657 173.549 26.8089 173.549 26.7497C173.549 26.6905 173.573 26.6337 173.615 26.5919C173.657 26.55 173.713 26.5265 173.773 26.5265C173.979 26.5334 174.185 26.5528 174.389 26.5845C174.642 26.6145 174.885 26.6982 175.103 26.8301C175.183 26.6158 174.978 26.4595 174.773 26.3569C174.541 26.2562 174.296 26.19 174.045 26.1604C173.987 26.1505 173.935 26.1185 173.9 26.071C173.865 26.0236 173.85 25.9644 173.857 25.906C173.866 25.8482 173.897 25.7962 173.944 25.7612C173.991 25.7261 174.05 25.7108 174.107 25.7185C174.385 25.7525 174.657 25.823 174.915 25.9283C174.933 25.883 174.938 25.8339 174.93 25.7861C174.922 25.7382 174.902 25.6933 174.871 25.656C174.542 25.3849 174.128 25.238 173.701 25.2408C172.973 26.4122 172.017 27.4249 170.889 28.2185C171.245 28.6882 171.764 29.0069 172.344 29.1113V28.3078L172.576 28.0979ZM172.799 28.5444V31.6962C173.123 31.5846 173.475 31.5846 173.799 31.6962V28.5444H172.799ZM175.099 35.4685C175.058 35.2222 174.995 34.9801 174.911 34.7453C174.725 34.2257 174.342 33.8006 173.844 33.5622L174.027 33.156C174.158 33.2143 174.282 33.2861 174.398 33.3703C174.422 33.2117 174.413 33.0496 174.369 32.8951C174.325 32.7407 174.248 32.5976 174.144 32.4756C174.04 32.3536 173.91 32.2557 173.764 32.1885C173.619 32.1214 173.46 32.0866 173.299 32.0866C173.139 32.0866 172.98 32.1214 172.834 32.1885C172.689 32.2557 172.559 32.3536 172.455 32.4756C172.35 32.5976 172.274 32.7407 172.23 32.8951C172.186 33.0496 172.176 33.2117 172.201 33.3703C172.317 33.2861 172.441 33.2143 172.572 33.156L172.759 33.5622C172.512 33.679 172.29 33.8437 172.107 34.0468C171.924 34.2499 171.783 34.4873 171.692 34.7453C171.606 34.9781 171.544 35.2189 171.505 35.464C171.739 35.2024 171.952 34.9233 172.143 34.6292L172.549 34.714C172.667 35.3565 172.923 35.9658 173.299 36.4997C173.677 35.9662 173.935 35.3569 174.054 34.714L174.456 34.6292C174.643 34.9242 174.852 35.2048 175.081 35.4685H175.099ZM158.92 23.8613C159.847 24.6838 160.573 25.7088 161.04 26.8569L161.456 26.6917C160.936 25.4152 160.115 24.2833 159.063 23.3926H158.777C157.725 24.2833 156.904 25.4152 156.384 26.6917L156.799 26.8569C157.265 25.7139 157.987 24.6934 158.911 23.8747L158.92 23.8613ZM160.826 29.3167H160.38C160.391 29.5149 160.361 29.7132 160.293 29.8996C160.225 30.086 160.119 30.2565 159.983 30.4007C159.846 30.5449 159.682 30.6597 159.499 30.7382C159.317 30.8167 159.121 30.8572 158.922 30.8572C158.724 30.8572 158.527 30.8167 158.345 30.7382C158.163 30.6597 157.998 30.5449 157.862 30.4007C157.725 30.2565 157.62 30.086 157.551 29.8996C157.483 29.7132 157.454 29.5149 157.465 29.3167H157.018C157.006 29.5745 157.046 29.8321 157.136 30.074C157.226 30.3159 157.364 30.537 157.542 30.7238C157.72 30.9107 157.934 31.0595 158.171 31.1611C158.409 31.2627 158.664 31.3152 158.922 31.3152C159.18 31.3152 159.436 31.2627 159.673 31.1611C159.91 31.0595 160.124 30.9107 160.302 30.7238C160.48 30.537 160.619 30.3159 160.709 30.074C160.799 29.8321 160.839 29.5745 160.826 29.3167ZM159.536 32.4863L159.451 32.0399C159.1 32.1091 158.739 32.1091 158.389 32.0399L158.304 32.4863C158.704 32.5688 159.116 32.5733 159.518 32.4997L159.536 32.4863ZM160.451 31.6426L160.697 32.0176C161.061 31.7743 161.373 31.4618 161.616 31.0979L161.241 30.8524C161.03 31.1732 160.755 31.4469 160.433 31.656L160.451 31.6426ZM161.648 29.8569L162.094 29.9417C162.21 29.327 162.148 28.692 161.915 28.1113L161.5 28.2765C161.696 28.7826 161.741 29.3347 161.63 29.8658L161.648 29.8569ZM156.344 28.2765L155.929 28.1113C155.694 28.6915 155.632 29.3271 155.75 29.9417L156.197 29.8569C156.088 29.3315 156.133 28.7859 156.326 28.2854L156.344 28.2765ZM156.598 30.8569L156.223 31.1024C156.466 31.4672 156.778 31.7799 157.143 32.022L157.389 31.647C157.069 31.4444 156.794 31.1786 156.581 30.8658L156.598 30.8569ZM165.67 20.1426L165.42 19.7676L165.049 20.0176L165.299 20.3881L165.67 20.1426ZM164.652 20.8122L164.424 20.4328L164.04 20.6604L164.268 21.0444L164.652 20.8122ZM163.572 21.4283L163.371 21.031L162.973 21.2319L163.174 21.6292L163.572 21.4283ZM162.482 21.9462L162.304 21.5354L161.893 21.714L162.067 22.1247L162.482 21.9462ZM161.344 22.3926L161.197 21.9729L160.777 22.1203L160.924 22.5399L161.344 22.3926ZM166.255 39.4417C166.284 39.4405 166.313 39.4336 166.34 39.4213C166.366 39.409 166.39 39.3916 166.41 39.37C166.43 39.3485 166.445 39.3232 166.455 39.2957C166.466 39.2681 166.47 39.2389 166.469 39.2095C166.469 39.0935 166.469 38.9729 166.469 38.8569C166.469 38.7977 166.446 38.7409 166.404 38.699C166.362 38.6572 166.305 38.6337 166.246 38.6337C166.187 38.6337 166.13 38.6572 166.088 38.699C166.046 38.7409 166.023 38.7977 166.023 38.8569C166.023 38.9729 166.023 39.0935 166.023 39.2095C166.02 39.24 166.024 39.2705 166.034 39.2994C166.044 39.3283 166.059 39.3548 166.08 39.3774C166.1 39.4 166.125 39.4182 166.153 39.4308C166.181 39.4433 166.211 39.4501 166.241 39.4506L166.255 39.4417ZM170.572 26.0488C169.643 25.2273 168.917 24.202 168.451 23.0533L168.036 23.2185C168.557 24.4943 169.378 25.6259 170.429 26.5176H170.715C171.765 25.6259 172.586 24.4943 173.107 23.2185L172.692 23.0533C172.225 24.2124 171.494 25.247 170.558 26.0756L170.572 26.0488ZM168.665 20.589H169.112C169.112 20.2018 169.266 19.8305 169.539 19.5568C169.813 19.283 170.185 19.1292 170.572 19.1292C170.959 19.1292 171.33 19.283 171.604 19.5568C171.878 19.8305 172.032 20.2018 172.032 20.589H172.478C172.478 20.0834 172.277 19.5986 171.92 19.2411C171.562 18.8836 171.077 18.6828 170.572 18.6828C170.066 18.6828 169.581 18.8836 169.224 19.2411C168.866 19.5986 168.665 20.0834 168.665 20.589ZM169.956 17.4194L170.04 17.8658C170.391 17.7966 170.752 17.7966 171.103 17.8658L171.188 17.4194C170.775 17.3506 170.352 17.3597 169.942 17.4462L169.956 17.4194ZM169.063 18.2676L168.817 17.8926C168.453 18.1359 168.141 18.4484 167.898 18.8122L168.273 19.0578C168.474 18.7608 168.73 18.5048 169.027 18.3033L169.063 18.2676ZM167.84 20.089L167.393 20.0042C167.275 20.6188 167.337 21.2543 167.572 21.8345L167.987 21.6649C167.784 21.1654 167.733 20.6174 167.84 20.089ZM173.143 21.6649L173.558 21.8345C173.793 21.2543 173.855 20.6188 173.737 20.0042L173.29 20.089C173.394 20.6168 173.34 21.1634 173.134 21.6604L173.143 21.6649ZM172.889 19.089L173.264 18.8435C173.02 18.4796 172.708 18.1671 172.344 17.9238L172.099 18.2988C172.409 18.5056 172.675 18.7728 172.88 19.0845L172.889 19.089ZM164.438 29.9462L164.188 29.5756L163.817 29.8212L164.063 30.1962L164.438 29.9462ZM166.496 28.7363L166.295 28.339L165.893 28.5399L166.098 28.9372L166.496 28.7363ZM167.585 28.2408L167.407 27.8301L166.996 28.0087L167.17 28.4194L167.585 28.2408ZM165.447 29.3033L165.215 28.9194L164.831 29.1515L165.063 29.531L165.447 29.3033ZM168.697 27.839L168.567 27.3926L168.121 27.522L168.25 27.9685L168.697 27.839Z" fill="#1F1F1F"/>
</g>
</svg>
