<svg width="183" height="50" viewBox="0 0 183 50" fill="none" xmlns="http://www.w3.org/2000/svg">
<path d="M33.4821 0H2.23214C0.999364 0 0 0.999364 0 2.23214V47.7679C0 49.0006 0.999364 50 2.23214 50H33.4821C34.7149 50 35.7143 49.0006 35.7143 47.7679V2.23214C35.7143 0.999364 34.7149 0 33.4821 0Z" fill="#F9F1DF"/>
<path d="M6.10292 9.37695C5.95279 9.37947 5.80608 9.42221 5.67809 9.50073C5.5501 9.57926 5.44551 9.69068 5.37524 9.82338C5.30609 9.69072 5.20238 9.57921 5.07508 9.50062C4.94778 9.42204 4.80162 9.37931 4.65203 9.37695C4.42944 9.37695 4.21597 9.46538 4.05857 9.62278C3.90118 9.78017 3.81274 9.99365 3.81274 10.2162C3.81274 11.1403 5.12971 11.6359 5.37524 12.2252C5.62078 11.6359 6.93774 11.1403 6.93774 10.2162C6.93775 9.99442 6.84994 9.78162 6.69351 9.62435C6.53708 9.46708 6.32474 9.37813 6.10292 9.37695Z" fill="#C93112"/>
<path d="M29.6342 40.4032C29.7837 40.4008 29.9299 40.3581 30.0572 40.2795C30.1845 40.2009 30.2882 40.0894 30.3574 39.9568C30.4479 40.1178 30.5893 40.2442 30.7594 40.3163C30.9295 40.3883 31.1186 40.402 31.2973 40.355C31.4759 40.308 31.634 40.2031 31.7466 40.0568C31.8593 39.9104 31.9202 39.7308 31.9199 39.546C31.9199 38.6219 30.6029 38.1264 30.3574 37.5371C30.1118 38.1264 28.7949 38.6219 28.7949 39.546C28.7925 39.6577 28.8124 39.7688 28.8536 39.8727C28.8947 39.9766 28.9561 40.0712 29.0343 40.1511C29.1125 40.2309 29.2058 40.2943 29.3088 40.3376C29.4118 40.3809 29.5224 40.4032 29.6342 40.4032Z" fill="#C93112"/>
<path d="M6.74095 6.25102C6.74308 6.42515 6.71124 6.59802 6.6472 6.75995C6.58787 6.9129 6.49654 7.05141 6.37934 7.1662C6.26039 7.28468 6.11724 7.37604 5.9597 7.43405C5.78176 7.50248 5.59227 7.53584 5.40166 7.53227C5.20601 7.53428 5.01187 7.49788 4.83024 7.42513C4.65877 7.35569 4.5059 7.24715 4.38381 7.10816C4.25763 6.95594 4.16349 6.7798 4.10702 6.59031C4.03756 6.36178 4.00442 6.12376 4.00881 5.88495C4.00508 5.60028 4.04728 5.31689 4.13381 5.04567C4.20942 4.80684 4.32904 4.58426 4.48649 4.38942C4.63512 4.20268 4.82245 4.05038 5.03559 3.94299C5.25767 3.83937 5.50038 3.78748 5.74542 3.7912C5.8882 3.79133 6.03049 3.80781 6.16952 3.84031C6.29777 3.87225 6.42097 3.92182 6.5356 3.98763L6.42846 4.30013C6.34232 4.26379 6.25251 4.23684 6.1606 4.21977C6.08285 4.20279 6.00357 4.19381 5.92399 4.19299C5.77686 4.18885 5.63062 4.21709 5.49561 4.27572C5.36061 4.33435 5.24015 4.42193 5.14274 4.53227C4.92841 4.78394 4.7974 5.09589 4.76774 5.42513C4.8719 5.31194 5.00446 5.2287 5.15166 5.18406C5.31063 5.12707 5.47834 5.09837 5.64721 5.09924C5.79979 5.0972 5.95134 5.12448 6.09364 5.1796C6.22134 5.2331 6.33678 5.31208 6.43291 5.41173C6.52859 5.51355 6.60297 5.63346 6.65167 5.76442C6.71233 5.9194 6.74263 6.0846 6.74095 6.25102ZM5.44184 7.18852C5.52971 7.19321 5.61725 7.17463 5.69564 7.13465C5.77403 7.09467 5.84047 7.03472 5.88827 6.96084C5.9984 6.78293 6.05281 6.57616 6.04452 6.36709C6.05911 6.15475 5.99737 5.94418 5.87042 5.77334C5.81454 5.7034 5.74299 5.64757 5.66157 5.61035C5.58015 5.57313 5.49112 5.55556 5.40166 5.55906C5.28993 5.56158 5.17895 5.57807 5.07131 5.60816C4.96044 5.63564 4.85587 5.68414 4.76327 5.75102V5.98763C4.76224 6.15366 4.77568 6.31947 4.80345 6.48317C4.82961 6.61544 4.87473 6.74324 4.93739 6.86263C4.98924 6.95846 5.06258 7.04097 5.15166 7.1037C5.23547 7.16706 5.33683 7.20293 5.44184 7.20638V7.18852Z" fill="#C93112"/>
<path d="M28.9775 43.5102C28.9754 43.3361 29.0072 43.1632 29.0713 43.0013C29.1307 42.8494 29.2203 42.7112 29.3347 42.595C29.4553 42.4766 29.5999 42.3852 29.7588 42.3272C30.1213 42.1904 30.5212 42.1904 30.8838 42.3272C31.0559 42.3954 31.209 42.5041 31.3302 42.6441C31.4578 42.7961 31.5534 42.9722 31.6114 43.162C31.6787 43.391 31.7118 43.6287 31.7097 43.8674C31.7119 44.1523 31.6682 44.4357 31.5802 44.7066C31.5064 44.9462 31.3866 45.1691 31.2275 45.3629C31.0789 45.5496 30.8915 45.7019 30.6784 45.8093C30.4563 45.9129 30.2136 45.9648 29.9686 45.9611C29.8258 45.9607 29.6836 45.9442 29.5445 45.912C29.4162 45.8801 29.293 45.8305 29.1784 45.7647L29.2855 45.4522C29.3719 45.4879 29.4616 45.5148 29.5534 45.5325C29.6326 45.5498 29.7134 45.5588 29.7945 45.5593C29.9416 45.5632 30.0877 45.5348 30.2227 45.4762C30.3576 45.4175 30.4781 45.3301 30.5757 45.22C30.7867 44.9663 30.9172 44.6554 30.9507 44.3272C30.8444 44.4399 30.7105 44.523 30.5623 44.5682C30.4034 44.6252 30.2357 44.6539 30.0668 44.6531C29.9143 44.6547 29.7628 44.6274 29.6204 44.5727C29.4927 44.5192 29.3772 44.4402 29.2811 44.3406C29.1853 44.2397 29.1122 44.1194 29.0668 43.9879C29.0048 43.8364 28.9744 43.6739 28.9775 43.5102ZM30.2722 42.5727C30.1844 42.5685 30.097 42.5873 30.0187 42.6272C29.9404 42.6671 29.8739 42.7268 29.8257 42.8004C29.7156 42.9783 29.6612 43.1851 29.6695 43.3941C29.6562 43.607 29.7195 43.8177 29.8481 43.9879C29.9039 44.0578 29.9755 44.1137 30.0569 44.1509C30.1383 44.1881 30.2273 44.2057 30.3168 44.2022C30.4285 44.1993 30.5394 44.1828 30.6472 44.1531C30.758 44.1256 30.8626 44.0771 30.9552 44.0102V43.7736C30.9548 43.6074 30.9399 43.4416 30.9106 43.2781C30.8838 43.1466 30.8403 43.019 30.7811 42.8986C30.7276 42.8026 30.6527 42.7201 30.5623 42.6575C30.4764 42.6005 30.3752 42.5709 30.2722 42.5727Z" fill="#C93112"/>
<path d="M13.0581 7.70117C12.7625 7.70256 12.4725 7.78218 12.2177 7.93195C11.9629 8.08171 11.7522 8.29629 11.6072 8.55385C11.4261 8.23183 11.1434 7.97895 10.8032 7.83482C10.463 7.69069 10.0847 7.66345 9.72737 7.75737C9.37006 7.85129 9.054 8.06106 8.82868 8.35383C8.60335 8.6466 8.48149 9.00584 8.48218 9.37528C8.48218 11.2235 11.1161 12.2146 11.6072 13.3931C12.1027 12.2146 14.7322 11.2235 14.7322 9.37528C14.7322 8.93128 14.5558 8.50546 14.2419 8.1915C13.9279 7.87755 13.5021 7.70117 13.0581 7.70117Z" fill="#C93112"/>
<path d="M25.5581 7.70117C25.2625 7.70256 24.9725 7.78218 24.7177 7.93195C24.4629 8.08171 24.2522 8.29629 24.1072 8.55385C23.9261 8.23183 23.6434 7.97895 23.3032 7.83482C22.963 7.69069 22.5847 7.66345 22.2274 7.75737C21.8701 7.85129 21.554 8.06106 21.3287 8.35383C21.1034 8.6466 20.9815 9.00584 20.9822 9.37528C20.9822 11.2235 23.6161 12.2146 24.1072 13.3931C24.6027 12.2146 27.2322 11.2235 27.2322 9.37528C27.2322 8.93128 27.0558 8.50546 26.7419 8.1915C26.4279 7.87755 26.0021 7.70117 25.5581 7.70117Z" fill="#C93112"/>
<path d="M25.5581 22.2109C25.2625 22.2123 24.9725 22.2919 24.7177 22.4417C24.4629 22.5915 24.2522 22.8061 24.1072 23.0636C23.9261 22.7416 23.6434 22.4887 23.3032 22.3446C22.963 22.2005 22.5847 22.1732 22.2274 22.2671C21.8701 22.3611 21.554 22.5708 21.3287 22.8636C21.1034 23.1564 20.9815 23.5156 20.9822 23.885C20.9822 25.7333 23.6161 26.7243 24.1072 27.9029C24.6027 26.7243 27.2322 25.7333 27.2322 23.885C27.2322 23.441 27.0558 23.0152 26.7419 22.7013C26.4279 22.3873 26.0021 22.2109 25.5581 22.2109Z" fill="#C93112"/>
<path d="M13.0581 22.2109C12.7625 22.2123 12.4725 22.2919 12.2177 22.4417C11.9629 22.5915 11.7522 22.8061 11.6072 23.0636C11.4261 22.7416 11.1434 22.4887 10.8032 22.3446C10.463 22.2005 10.0847 22.1732 9.72737 22.2671C9.37006 22.3611 9.054 22.5708 8.82868 22.8636C8.60335 23.1564 8.48149 23.5156 8.48218 23.885C8.48218 25.7333 11.1161 26.7243 11.6072 27.9029C12.1027 26.7243 14.7322 25.7333 14.7322 23.885C14.7322 23.441 14.5558 23.0152 14.2419 22.7013C13.9279 22.3873 13.5021 22.2109 13.0581 22.2109Z" fill="#C93112"/>
<path d="M13.0581 42.0767C12.7625 42.0753 12.4725 41.9957 12.2177 41.846C11.9629 41.6962 11.7522 41.4816 11.6072 41.224C11.4261 41.5461 11.1434 41.799 10.8032 41.9431C10.463 42.0872 10.0847 42.1145 9.72737 42.0205C9.37006 41.9266 9.054 41.7168 8.82868 41.4241C8.60335 41.1313 8.48149 40.7721 8.48218 40.4026C8.48218 38.5544 11.1161 37.5633 11.6072 36.3848C12.1027 37.5633 14.7322 38.5544 14.7322 40.4026C14.7322 40.8466 14.5558 41.2724 14.2419 41.5864C13.9279 41.9004 13.5021 42.0767 13.0581 42.0767Z" fill="#C93112"/>
<path d="M25.5581 42.0767C25.2625 42.0753 24.9725 41.9957 24.7177 41.846C24.4629 41.6962 24.2522 41.4816 24.1072 41.224C23.9261 41.5461 23.6434 41.799 23.3032 41.9431C22.963 42.0872 22.5847 42.1145 22.2274 42.0205C21.8701 41.9266 21.554 41.7168 21.3287 41.4241C21.1034 41.1313 20.9815 40.7721 20.9822 40.4026C20.9822 38.5544 23.6161 37.5633 24.1072 36.3848C24.6027 37.5633 27.2322 38.5544 27.2322 40.4026C27.2322 40.8466 27.0558 41.2724 26.7419 41.5864C26.4279 41.9004 26.0021 42.0767 25.5581 42.0767Z" fill="#C93112"/>
<path d="M70.1965 0H38.9465C37.7137 0 36.7144 0.999364 36.7144 2.23214V47.7679C36.7144 49.0006 37.7137 50 38.9465 50H70.1965C71.4293 50 72.4286 49.0006 72.4286 47.7679V2.23214C72.4286 0.999364 71.4293 0 70.1965 0Z" fill="#F9F1DF"/>
<path d="M42.7936 9.375C42.7217 9.50425 42.6165 9.61191 42.4889 9.68687C42.3614 9.76183 42.2161 9.80135 42.0682 9.80135C41.9203 9.80135 41.775 9.76183 41.6475 9.68687C41.5199 9.61191 41.4147 9.50425 41.3428 9.375C41.1209 9.37618 40.9086 9.46513 40.7522 9.6224C40.5958 9.77967 40.5079 9.99247 40.5079 10.2143C40.5079 11.1384 41.8472 11.6339 42.0704 12.2232C42.316 11.6339 43.6329 11.1384 43.6329 10.2143C43.6329 9.9917 43.5445 9.77822 43.3871 9.62082C43.2297 9.46343 43.0162 9.375 42.7936 9.375Z" fill="#C93112"/>
<path d="M66.3429 40.401C66.4149 40.2717 66.52 40.164 66.6476 40.0891C66.7751 40.0141 66.9204 39.9746 67.0683 39.9746C67.2163 39.9746 67.3615 40.0141 67.4891 40.0891C67.6166 40.164 67.7218 40.2717 67.7938 40.401C68.0164 40.401 68.2298 40.3125 68.3872 40.1551C68.5446 39.9977 68.6331 39.7843 68.6331 39.5617C68.6331 38.6376 67.2938 38.142 67.0706 37.5527C66.825 38.142 65.5081 38.6376 65.5081 39.5617C65.5081 39.7835 65.5959 39.9963 65.7523 40.1536C65.9087 40.3108 66.1211 40.3998 66.3429 40.401Z" fill="#C93112"/>
<path d="M42.9633 4.36245H42.191C42.0615 4.36245 41.941 4.36245 41.8338 4.36245C41.7452 4.3672 41.6571 4.37914 41.5704 4.39816C41.5302 4.40392 41.4919 4.41922 41.4588 4.4428C41.4275 4.4684 41.4042 4.50251 41.3919 4.54102L41.2044 5.12137H40.8383C40.8249 4.90879 40.8249 4.69557 40.8383 4.48298C40.85 4.28253 40.8724 4.08285 40.9053 3.88477H43.2579L43.432 4.26423C43.1038 4.69173 42.8322 5.1599 42.624 5.65709C42.3938 6.22649 42.2581 6.82966 42.2222 7.4428H41.624L41.5213 7.31334C41.5455 7.02654 41.6024 6.74345 41.691 6.46959C41.7764 6.19288 41.8854 5.92402 42.0169 5.66602C42.1466 5.41226 42.2959 5.16896 42.4633 4.93834C42.6134 4.73258 42.7807 4.53993 42.9633 4.36245Z" fill="#C93112"/>
<path d="M66.1777 45.4163H66.95C67.0794 45.4163 67.2 45.4163 67.3071 45.4163C67.3943 45.4119 67.4809 45.4 67.566 45.3806C67.6078 45.3755 67.6477 45.3602 67.6821 45.3359C67.7133 45.3111 67.7353 45.2765 67.7446 45.2377L67.9366 44.6574H68.3027C68.3183 44.8699 68.3183 45.0832 68.3027 45.2958C68.3027 45.51 68.2669 45.7109 68.2402 45.894H65.883L65.7134 45.5145C66.0401 45.0868 66.3102 44.6186 66.5169 44.1217C66.7472 43.5522 66.8829 42.9491 66.9187 42.3359H67.5169L67.6241 42.4654C67.5977 42.7519 67.5409 43.0347 67.4544 43.3091C67.3695 43.5867 67.2589 43.8557 67.1241 44.1127C66.9944 44.3665 66.8452 44.6098 66.6777 44.8404C66.5264 45.0452 66.3592 45.2378 66.1777 45.4163Z" fill="#C93112"/>
<path d="M49.7719 7.70117C49.4763 7.7021 49.1861 7.78153 48.9312 7.93134C48.6763 8.08116 48.4657 8.29598 48.321 8.55385C48.14 8.23183 47.8572 7.97895 47.517 7.83482C47.1769 7.69069 46.7985 7.66345 46.4412 7.75737C46.0839 7.85129 45.7679 8.06106 45.5425 8.35383C45.3172 8.6466 45.1954 9.00584 45.196 9.37528C45.196 11.2235 47.83 12.2146 48.321 13.3931C48.8121 12.2146 51.446 11.2235 51.446 9.37528C51.446 8.93128 51.2697 8.50546 50.9557 8.1915C50.6418 7.87755 50.2159 7.70117 49.7719 7.70117Z" fill="#C93112"/>
<path d="M56.0219 15.0664C55.7263 15.0673 55.4361 15.1468 55.1812 15.2966C54.9263 15.4464 54.7157 15.6612 54.571 15.9191C54.39 15.5971 54.1072 15.3442 53.767 15.2001C53.4269 15.0559 53.0485 15.0287 52.6912 15.1226C52.3339 15.2165 52.0179 15.4263 51.7925 15.7191C51.5672 16.0118 51.4454 16.3711 51.446 16.7405C51.446 18.5887 54.08 19.5798 54.571 20.7584C55.0621 19.5798 57.696 18.5887 57.696 16.7405C57.696 16.2965 57.5197 15.8707 57.2057 15.5567C56.8918 15.2428 56.4659 15.0664 56.0219 15.0664Z" fill="#C93112"/>
<path d="M62.2719 7.70117C61.9763 7.7021 61.6861 7.78153 61.4312 7.93134C61.1763 8.08116 60.9657 8.29598 60.821 8.55385C60.64 8.23183 60.3572 7.97895 60.017 7.83482C59.6769 7.69069 59.2985 7.66345 58.9412 7.75737C58.5839 7.85129 58.2679 8.06106 58.0425 8.35383C57.8172 8.6466 57.6954 9.00584 57.696 9.37528C57.696 11.2235 60.33 12.2146 60.821 13.3931C61.3121 12.2146 63.946 11.2235 63.946 9.37528C63.946 8.93128 63.7697 8.50546 63.4557 8.1915C63.1418 7.87755 62.7159 7.70117 62.2719 7.70117Z" fill="#C93112"/>
<path d="M62.2719 22.2109C61.9763 22.2119 61.6861 22.2913 61.4312 22.4411C61.1763 22.5909 60.9657 22.8057 60.821 23.0636C60.64 22.7416 60.3572 22.4887 60.017 22.3446C59.6769 22.2005 59.2985 22.1732 58.9412 22.2671C58.5839 22.3611 58.2679 22.5708 58.0425 22.8636C57.8172 23.1564 57.6954 23.5156 57.696 23.885C57.696 25.7333 60.33 26.7243 60.821 27.9029C61.3121 26.7243 63.946 25.7333 63.946 23.885C63.946 23.441 63.7697 23.0152 63.4557 22.7013C63.1418 22.3873 62.7159 22.2109 62.2719 22.2109Z" fill="#C93112"/>
<path d="M49.7719 22.2109C49.4763 22.2119 49.1861 22.2913 48.9312 22.4411C48.6763 22.5909 48.4657 22.8057 48.321 23.0636C48.14 22.7416 47.8572 22.4887 47.517 22.3446C47.1769 22.2005 46.7985 22.1732 46.4412 22.2671C46.0839 22.3611 45.7679 22.5708 45.5425 22.8636C45.3172 23.1564 45.1954 23.5156 45.196 23.885C45.196 25.7333 47.83 26.7243 48.321 27.9029C48.8121 26.7243 51.446 25.7333 51.446 23.885C51.446 23.441 51.2697 23.0152 50.9557 22.7013C50.6418 22.3873 50.2159 22.2109 49.7719 22.2109Z" fill="#C93112"/>
<path d="M49.7719 42.0767C49.4763 42.0758 49.1861 41.9964 48.9312 41.8466C48.6763 41.6967 48.4657 41.4819 48.321 41.224C48.14 41.5461 47.8572 41.799 47.517 41.9431C47.1769 42.0872 46.7985 42.1145 46.4412 42.0205C46.0839 41.9266 45.7679 41.7168 45.5425 41.4241C45.3172 41.1313 45.1954 40.7721 45.196 40.4026C45.196 38.5544 47.83 37.5633 48.321 36.3848C48.8121 37.5633 51.446 38.5544 51.446 40.4026C51.446 40.8466 51.2697 41.2724 50.9557 41.5864C50.6418 41.9004 50.2159 42.0767 49.7719 42.0767Z" fill="#C93112"/>
<path d="M62.2719 42.0767C61.9763 42.0758 61.6861 41.9964 61.4312 41.8466C61.1763 41.6967 60.9657 41.4819 60.821 41.224C60.64 41.5461 60.3572 41.799 60.017 41.9431C59.6769 42.0872 59.2985 42.1145 58.9412 42.0205C58.5839 41.9266 58.2679 41.7168 58.0425 41.4241C57.8172 41.1313 57.6954 40.7721 57.696 40.4026C57.696 38.5544 60.33 37.5633 60.821 36.3848C61.3121 37.5633 63.946 38.5544 63.946 40.4026C63.946 40.8466 63.7697 41.2724 63.4557 41.5864C63.1418 41.9004 62.7159 42.0767 62.2719 42.0767Z" fill="#C93112"/>
<path d="M106.911 0H75.6607C74.428 0 73.4286 0.999364 73.4286 2.23214V47.7679C73.4286 49.0006 74.428 50 75.6607 50H106.911C108.144 50 109.143 49.0006 109.143 47.7679V2.23214C109.143 0.999364 108.144 0 106.911 0Z" fill="#F9F1DF"/>
<path d="M79.4815 9.42383C79.4129 9.54857 79.3121 9.65262 79.1896 9.72509C79.0671 9.79756 78.9274 9.83579 78.785 9.83579C78.6427 9.83579 78.503 9.79756 78.3805 9.72509C78.2579 9.65262 78.1571 9.54857 78.0886 9.42383C77.8755 9.42383 77.6711 9.50849 77.5204 9.65919C77.3697 9.80989 77.285 10.0143 77.285 10.2274C77.285 11.1203 78.5484 11.589 78.785 12.156C79.0216 11.589 80.285 11.1158 80.285 10.2274C80.2839 10.0146 80.1988 9.81093 80.0484 9.66048C79.8979 9.51004 79.6942 9.425 79.4815 9.42383Z" fill="#C93112"/>
<path d="M103.039 40.401C103.19 40.3984 103.336 40.3557 103.464 40.2772C103.592 40.1986 103.697 40.0872 103.767 39.9545C103.836 40.0872 103.94 40.1987 104.067 40.2773C104.195 40.3559 104.341 40.3986 104.49 40.401C104.713 40.401 104.926 40.3125 105.084 40.1551C105.241 39.9977 105.33 39.7843 105.33 39.5617C105.33 38.6376 104.013 38.142 103.767 37.5527C103.522 38.142 102.205 38.6376 102.205 39.5617C102.205 39.7835 102.292 39.9963 102.449 40.1536C102.605 40.3108 102.818 40.3998 103.039 40.401Z" fill="#C93112"/>
<path d="M78.7582 7.54902C78.5749 7.5499 78.392 7.52892 78.2136 7.48652C78.0553 7.44955 77.9044 7.38616 77.7672 7.29902C77.6506 7.22358 77.5541 7.12092 77.4859 6.99991C77.4181 6.87708 77.3842 6.7384 77.3877 6.59813C77.385 6.38853 77.4561 6.18467 77.5886 6.02224C77.734 5.85242 77.9243 5.72708 78.1377 5.66062C77.9871 5.56343 77.853 5.44288 77.7404 5.30349C77.6265 5.15547 77.5681 4.97224 77.5752 4.78563C77.5733 4.64993 77.6023 4.51557 77.66 4.39277C77.7216 4.27672 77.8068 4.17484 77.91 4.09366C78.0259 4.00521 78.1578 3.94003 78.2984 3.9017C78.4603 3.85176 78.629 3.82765 78.7984 3.83027C78.9583 3.82922 79.1175 3.85025 79.2716 3.89277C79.4051 3.92836 79.5318 3.98568 79.6466 4.06242C79.746 4.13253 79.8284 4.22406 79.8877 4.33027C79.9453 4.43393 79.9746 4.55097 79.9725 4.66956C79.9733 4.85972 79.9051 5.04371 79.7806 5.18741C79.6506 5.33881 79.4848 5.45542 79.2984 5.5267C79.41 5.58474 79.5172 5.64277 79.6198 5.70973C79.7183 5.76887 79.8084 5.84095 79.8877 5.92402C79.9641 6.00176 80.0261 6.09245 80.0707 6.19187C80.1217 6.31383 80.1449 6.44557 80.1387 6.57759C80.1325 6.7096 80.0971 6.8386 80.035 6.95527C79.9661 7.0832 79.8683 7.19327 79.7493 7.2767C79.6151 7.37223 79.4634 7.44048 79.3029 7.47759C79.1253 7.52542 78.9421 7.54944 78.7582 7.54902ZM78.8029 7.21866C78.9658 7.22262 79.1245 7.16707 79.2493 7.06242C79.3039 7.01367 79.3472 6.95374 79.3765 6.88671C79.4058 6.81969 79.4203 6.74714 79.419 6.67402C79.4213 6.58114 79.3964 6.48961 79.3475 6.41063C79.2988 6.33473 79.2368 6.2682 79.1645 6.2142C79.0811 6.15006 78.9914 6.09471 78.8966 6.04902L78.4502 5.82581C78.3237 5.90049 78.2202 6.00862 78.1511 6.13831C78.0838 6.25993 78.0485 6.39663 78.0484 6.53563C78.047 6.63871 78.0683 6.74084 78.1109 6.83473C78.149 6.91776 78.2055 6.99103 78.2761 7.04902C78.3463 7.1054 78.4266 7.14784 78.5127 7.17402C78.6063 7.20481 78.7044 7.21989 78.8029 7.21866ZM78.227 4.62491C78.224 4.70764 78.2441 4.78956 78.285 4.86152C78.3273 4.93549 78.3834 5.00067 78.4502 5.05349C78.5239 5.11765 78.6048 5.17308 78.6913 5.21866C78.7895 5.27224 78.8877 5.32134 78.9949 5.37045C79.1148 5.29962 79.2135 5.19786 79.2806 5.0758C79.3403 4.96955 79.3711 4.84947 79.3698 4.72759C79.3781 4.6459 79.368 4.56338 79.3402 4.48612C79.3124 4.40886 79.2676 4.33882 79.2091 4.28116C79.1485 4.22758 79.0778 4.18658 79.0011 4.16052C78.9245 4.13447 78.8435 4.12388 78.7627 4.12938C78.6152 4.12067 78.4699 4.16857 78.3565 4.26331C78.3093 4.31015 78.2733 4.36691 78.2509 4.42947C78.2285 4.49203 78.2203 4.5588 78.227 4.62491Z" fill="#C93112"/>
<path d="M103.807 42.2279C103.991 42.227 104.174 42.248 104.352 42.2904C104.51 42.3274 104.661 42.3908 104.799 42.4779C104.913 42.5558 105.009 42.6579 105.08 42.777C105.148 42.8999 105.181 43.0385 105.178 43.1788C105.181 43.3884 105.11 43.5923 104.977 43.7547C104.832 43.9245 104.641 44.0499 104.428 44.1163C104.579 44.2135 104.713 44.3341 104.825 44.4734C104.939 44.6215 104.998 44.8047 104.99 44.9913C104.992 45.127 104.963 45.2614 104.906 45.3842C104.844 45.5002 104.759 45.6021 104.656 45.6833C104.54 45.7717 104.408 45.8369 104.267 45.8752C104.105 45.9252 103.937 45.9493 103.767 45.9467C103.607 45.9477 103.448 45.9267 103.294 45.8842C103.161 45.8486 103.034 45.7913 102.919 45.7145C102.82 45.6444 102.737 45.5529 102.678 45.4467C102.617 45.3378 102.588 45.2141 102.593 45.0895C102.592 44.8994 102.661 44.7154 102.785 44.5717C102.915 44.4203 103.081 44.3037 103.267 44.2324C103.156 44.1743 103.049 44.1163 102.946 44.0493C102.847 43.9902 102.757 43.9181 102.678 43.8351C102.602 43.7573 102.54 43.6666 102.495 43.5672C102.444 43.4452 102.421 43.3135 102.427 43.1815C102.433 43.0495 102.469 42.9205 102.531 42.8038C102.599 42.677 102.695 42.5671 102.812 42.4824C102.947 42.3886 103.098 42.3205 103.258 42.2815C103.438 42.2393 103.623 42.2213 103.807 42.2279ZM103.763 42.5583C103.6 42.5543 103.441 42.6099 103.316 42.7145C103.262 42.7633 103.218 42.8232 103.189 42.8902C103.16 42.9572 103.145 43.0298 103.147 43.1029C103.144 43.1958 103.169 43.2873 103.218 43.3663C103.267 43.4422 103.329 43.5087 103.401 43.5627C103.484 43.6279 103.574 43.6833 103.669 43.7279L104.115 43.9511C104.242 43.8764 104.346 43.7683 104.415 43.6386C104.482 43.517 104.517 43.3803 104.517 43.2413C104.519 43.1382 104.497 43.0361 104.455 42.9422C104.417 42.8592 104.36 42.7859 104.29 42.7279C104.219 42.6715 104.139 42.6291 104.053 42.6029C103.959 42.5721 103.861 42.557 103.763 42.5583ZM104.339 45.152C104.342 45.0693 104.322 44.9874 104.281 44.9154C104.238 44.8414 104.182 44.7763 104.115 44.7234C104.04 44.6593 103.958 44.6039 103.87 44.5583C103.776 44.5047 103.678 44.4556 103.571 44.4065C103.451 44.4773 103.352 44.5791 103.285 44.7011C103.225 44.8074 103.195 44.9275 103.196 45.0493C103.188 45.131 103.198 45.2136 103.225 45.2908C103.253 45.3681 103.298 45.4381 103.357 45.4958C103.417 45.5494 103.488 45.5904 103.565 45.6164C103.641 45.6425 103.722 45.6531 103.803 45.6476C103.951 45.6563 104.096 45.6084 104.209 45.5136C104.256 45.4668 104.292 45.41 104.315 45.3475C104.337 45.2849 104.345 45.2181 104.339 45.152Z" fill="#C93112"/>
<path d="M86.4858 7.70117C86.1901 7.7021 85.9 7.78153 85.6451 7.93134C85.3902 8.08116 85.1796 8.29598 85.0349 8.55385C84.8538 8.23183 84.5711 7.97895 84.2309 7.83482C83.8908 7.69069 83.5124 7.66345 83.1551 7.75737C82.7978 7.85129 82.4817 8.06106 82.2564 8.35383C82.0311 8.6466 81.9092 9.00584 81.9099 9.37528C81.9099 11.2235 84.5394 12.2146 85.0349 13.3931C85.526 12.2146 88.1599 11.2235 88.1599 9.37528C88.1599 8.93128 87.9835 8.50546 87.6696 8.1915C87.3556 7.87755 86.9298 7.70117 86.4858 7.70117Z" fill="#C93112"/>
<path d="M92.7358 15.0664C92.4401 15.0673 92.15 15.1468 91.8951 15.2966C91.6402 15.4464 91.4296 15.6612 91.2849 15.9191C91.1038 15.5971 90.8211 15.3442 90.4809 15.2001C90.1408 15.0559 89.7624 15.0287 89.4051 15.1226C89.0478 15.2165 88.7317 15.4263 88.5064 15.7191C88.2811 16.0118 88.1592 16.3711 88.1599 16.7405C88.1599 18.5887 90.7894 19.5798 91.2849 20.7584C91.776 19.5798 94.4099 18.5887 94.4099 16.7405C94.4099 16.2965 94.2335 15.8707 93.9196 15.5567C93.6056 15.2428 93.1798 15.0664 92.7358 15.0664Z" fill="#C93112"/>
<path d="M92.7358 34.7095C92.4401 34.7086 92.15 34.6292 91.8951 34.4794C91.6402 34.3296 91.4296 34.1147 91.2849 33.8569C91.1038 34.1789 90.8211 34.4318 90.4809 34.5759C90.1408 34.72 89.7624 34.7473 89.4051 34.6533C89.0478 34.5594 88.7317 34.3497 88.5064 34.0569C88.2811 33.7641 88.1592 33.4049 88.1599 33.0354C88.1599 31.1872 90.7894 30.1961 91.2849 29.0176C91.776 30.1961 94.4099 31.1872 94.4099 33.0354C94.4099 33.4794 94.2335 33.9053 93.9196 34.2192C93.6056 34.5332 93.1798 34.7095 92.7358 34.7095Z" fill="#C93112"/>
<path d="M98.9858 7.70117C98.8418 7.95966 98.6315 8.175 98.3764 8.32492C98.1213 8.47483 97.8308 8.55387 97.5349 8.55387C97.239 8.55387 96.9486 8.47483 96.6935 8.32492C96.4384 8.175 96.228 7.95966 96.084 7.70117C95.64 7.70117 95.2142 7.87755 94.9003 8.1915C94.5863 8.50546 94.4099 8.93128 94.4099 9.37528C94.4099 11.2235 97.0394 12.2146 97.5349 13.3931C98.026 12.2146 100.66 11.2235 100.66 9.37528C100.66 8.93128 100.484 8.50546 100.17 8.1915C99.8556 7.87755 99.4298 7.70117 98.9858 7.70117Z" fill="#C93112"/>
<path d="M98.9858 22.2109C98.8418 22.4694 98.6315 22.6848 98.3764 22.8347C98.1213 22.9846 97.8308 23.0636 97.5349 23.0636C97.239 23.0636 96.9486 22.9846 96.6935 22.8347C96.4384 22.6848 96.228 22.4694 96.084 22.2109C95.64 22.2109 95.2142 22.3873 94.9003 22.7013C94.5863 23.0152 94.4099 23.441 94.4099 23.885C94.4099 25.7333 97.0394 26.7243 97.5349 27.9029C98.026 26.7243 100.66 25.7333 100.66 23.885C100.66 23.441 100.484 23.0152 100.17 22.7013C99.8556 22.3873 99.4298 22.2109 98.9858 22.2109Z" fill="#C93112"/>
<path d="M86.4858 22.2109C86.1901 22.2119 85.9 22.2913 85.6451 22.4411C85.3902 22.5909 85.1796 22.8057 85.0349 23.0636C84.8538 22.7416 84.5711 22.4887 84.2309 22.3446C83.8908 22.2005 83.5124 22.1732 83.1551 22.2671C82.7978 22.3611 82.4817 22.5708 82.2564 22.8636C82.0311 23.1564 81.9092 23.5156 81.9099 23.885C81.9099 25.7333 84.5394 26.7243 85.0349 27.9029C85.526 26.7243 88.1599 25.7333 88.1599 23.885C88.1599 23.441 87.9835 23.0152 87.6696 22.7013C87.3556 22.3873 86.9298 22.2109 86.4858 22.2109Z" fill="#C93112"/>
<path d="M86.4858 42.0767C86.1901 42.0758 85.9 41.9964 85.6451 41.8466C85.3902 41.6967 85.1796 41.4819 85.0349 41.224C84.8538 41.5461 84.5711 41.799 84.2309 41.9431C83.8908 42.0872 83.5124 42.1145 83.1551 42.0205C82.7978 41.9266 82.4817 41.7168 82.2564 41.4241C82.0311 41.1313 81.9092 40.7721 81.9099 40.4026C81.9099 38.5544 84.5394 37.5633 85.0349 36.3848C85.526 37.5633 88.1599 38.5544 88.1599 40.4026C88.1599 40.8466 87.9835 41.2724 87.6696 41.5864C87.3556 41.9004 86.9298 42.0767 86.4858 42.0767Z" fill="#C93112"/>
<path d="M98.9858 42.0767C98.8418 41.8182 98.6315 41.6029 98.3764 41.453C98.1213 41.3031 97.8308 41.224 97.5349 41.224C97.239 41.224 96.9486 41.3031 96.6935 41.453C96.4384 41.6029 96.228 41.8182 96.084 42.0767C95.64 42.0767 95.2142 41.9004 94.9003 41.5864C94.5863 41.2724 94.4099 40.8466 94.4099 40.4026C94.4099 38.5544 97.0394 37.5633 97.5349 36.3848C98.026 37.5633 100.66 38.5544 100.66 40.4026C100.66 40.8466 100.484 41.2724 100.17 41.5864C99.8556 41.9004 99.4298 42.0767 98.9858 42.0767Z" fill="#C93112"/>
<path d="M143.625 0H112.375C111.142 0 110.143 0.999364 110.143 2.23214V47.7679C110.143 49.0006 111.142 50 112.375 50H143.625C144.858 50 145.857 49.0006 145.857 47.7679V2.23214C145.857 0.999364 144.858 0 143.625 0Z" fill="#F9F1DF"/>
<path d="M116.245 9.375C116.095 9.37751 115.948 9.42026 115.82 9.49878C115.692 9.5773 115.588 9.68873 115.517 9.82143C115.448 9.68877 115.345 9.57725 115.217 9.49867C115.09 9.42009 114.944 9.37736 114.794 9.375C114.572 9.375 114.358 9.46343 114.201 9.62082C114.043 9.77822 113.955 9.9917 113.955 10.2143C113.955 11.1384 115.272 11.6339 115.517 12.2232C115.763 11.6339 117.08 11.1384 117.08 10.2143C117.08 9.99247 116.992 9.77967 116.836 9.6224C116.679 9.46513 116.467 9.37618 116.245 9.375Z" fill="#C93112"/>
<path d="M139.776 40.4012C139.926 40.3989 140.072 40.3561 140.199 40.2776C140.327 40.199 140.43 40.0875 140.499 39.9548C140.59 40.1158 140.731 40.2422 140.901 40.3143C141.072 40.3864 141.261 40.4 141.439 40.353C141.618 40.3061 141.776 40.2012 141.889 40.0548C142.001 39.9084 142.062 39.7288 142.062 39.5441C142.062 38.62 140.723 38.1244 140.499 37.5352C140.254 38.1244 138.937 38.62 138.937 39.5441C138.935 39.6558 138.955 39.7669 138.996 39.8708C139.037 39.9746 139.098 40.0693 139.176 40.1491C139.255 40.229 139.348 40.2924 139.451 40.3357C139.554 40.379 139.665 40.4013 139.776 40.4012Z" fill="#C93112"/>
<path d="M115.196 7.54959C115.025 7.5509 114.855 7.52683 114.691 7.47815C114.546 7.43829 114.411 7.36832 114.294 7.27279L114.419 6.97816C114.51 7.02345 114.604 7.06223 114.7 7.09423C114.818 7.12702 114.94 7.14354 115.062 7.14333C115.193 7.14355 115.323 7.11486 115.441 7.0593C115.56 7.00375 115.665 6.92269 115.749 6.8219C115.956 6.55714 116.073 6.23354 116.084 5.8978C115.977 6.00125 115.849 6.08174 115.709 6.13441C115.549 6.19325 115.38 6.22347 115.209 6.22369C115.056 6.22523 114.905 6.19639 114.763 6.13887C114.633 6.08911 114.515 6.0113 114.419 5.91099C114.322 5.81068 114.249 5.69032 114.205 5.55851C114.153 5.41541 114.127 5.26422 114.129 5.11208C114.128 4.93658 114.159 4.76242 114.223 4.59869C114.282 4.44574 114.373 4.30724 114.49 4.19244C114.609 4.07554 114.75 3.98435 114.906 3.92458C115.084 3.85658 115.273 3.82325 115.464 3.82637C115.659 3.82353 115.854 3.85996 116.035 3.93351C116.208 4.00173 116.362 4.11223 116.482 4.25494C116.61 4.40963 116.706 4.58887 116.763 4.78173C116.833 5.01779 116.866 5.26324 116.861 5.5094C116.865 5.79814 116.824 6.08575 116.74 6.36208C116.671 6.59551 116.556 6.81262 116.401 7.00047C116.26 7.17183 116.083 7.31045 115.883 7.40672C115.668 7.50604 115.433 7.5549 115.196 7.54959ZM115.468 5.80405C115.578 5.80144 115.688 5.78494 115.794 5.75494C115.902 5.72422 116.004 5.67757 116.098 5.61655V5.37994C116.099 5.22109 116.084 5.06251 116.053 4.90673C116.03 4.77275 115.987 4.64319 115.923 4.5228C115.872 4.42317 115.799 4.33626 115.709 4.26833C115.62 4.20605 115.514 4.17326 115.406 4.17459C115.315 4.17348 115.226 4.19497 115.147 4.23709C115.073 4.28062 115.011 4.34013 114.964 4.41119C114.911 4.49137 114.873 4.58067 114.852 4.67458C114.824 4.78099 114.811 4.89055 114.812 5.00047C114.799 5.20981 114.861 5.41685 114.986 5.5853C115.043 5.65766 115.117 5.7153 115.2 5.75337C115.284 5.79143 115.376 5.80881 115.468 5.80405Z" fill="#C93112"/>
<path d="M140.799 42.2289C140.969 42.2276 141.139 42.2517 141.303 42.3003C141.449 42.3413 141.586 42.4111 141.705 42.5057L141.575 42.8003C141.484 42.755 141.391 42.7163 141.294 42.6843C141.176 42.6515 141.055 42.635 140.933 42.6352C140.801 42.6349 140.672 42.6636 140.553 42.7192C140.434 42.7747 140.329 42.8558 140.245 42.9566C140.038 43.2214 139.921 43.545 139.91 43.8807C140.019 43.7763 140.148 43.6957 140.29 43.6441C140.448 43.5849 140.616 43.5547 140.785 43.5548C140.938 43.5533 141.09 43.5821 141.232 43.6396C141.362 43.6888 141.479 43.7666 141.575 43.8673C141.671 43.9682 141.744 44.0885 141.79 44.22C141.841 44.3631 141.867 44.5143 141.866 44.6664C141.867 44.8419 141.835 45.0161 141.772 45.1798C141.712 45.3316 141.623 45.4698 141.508 45.5861C141.388 45.703 141.245 45.7941 141.089 45.8539C140.911 45.9223 140.721 45.9557 140.531 45.9521C140.335 45.955 140.141 45.9185 139.959 45.845C139.787 45.7755 139.634 45.6652 139.513 45.5236C139.384 45.3689 139.289 45.1896 139.232 44.9968C139.164 44.7602 139.131 44.5151 139.133 44.2691C139.13 43.9804 139.17 43.6927 139.254 43.4164C139.325 43.1837 139.44 42.967 139.593 42.778C139.734 42.6067 139.911 42.468 140.111 42.3718C140.326 42.2725 140.562 42.2236 140.799 42.2289ZM140.526 43.9744C140.417 43.9767 140.309 43.9933 140.205 44.0236C140.096 44.0534 139.992 44.1001 139.897 44.1619V44.3986C139.895 44.5574 139.91 44.716 139.941 44.8718C139.966 45.0052 140.01 45.1345 140.071 45.2557C140.123 45.3566 140.198 45.4438 140.29 45.5102C140.377 45.573 140.482 45.6058 140.589 45.6039C140.679 45.605 140.768 45.5835 140.848 45.5414C140.922 45.4979 140.986 45.4385 141.035 45.3673C141.086 45.2861 141.124 45.1971 141.147 45.1039C141.171 44.9969 141.183 44.8876 141.183 44.778C141.195 44.5687 141.133 44.3616 141.008 44.1932C140.952 44.1215 140.879 44.0642 140.796 44.0262C140.713 43.9881 140.622 43.9704 140.531 43.9744H140.526Z" fill="#C93112"/>
<path d="M123.2 7.70117C123.056 7.95966 122.846 8.175 122.591 8.32492C122.336 8.47483 122.045 8.55387 121.749 8.55387C121.453 8.55387 121.163 8.47483 120.908 8.32492C120.653 8.175 120.442 7.95966 120.298 7.70117C119.854 7.70117 119.429 7.87755 119.115 8.1915C118.801 8.50546 118.624 8.93128 118.624 9.37528C118.624 11.2235 121.258 12.2146 121.749 13.3931C122.245 12.2146 124.874 11.2235 124.874 9.37528C124.874 8.93128 124.698 8.50546 124.384 8.1915C124.07 7.87755 123.644 7.70117 123.2 7.70117Z" fill="#C93112"/>
<path d="M135.7 7.70117C135.556 7.95966 135.346 8.175 135.091 8.32492C134.836 8.47483 134.545 8.55387 134.249 8.55387C133.953 8.55387 133.663 8.47483 133.408 8.32492C133.153 8.175 132.942 7.95966 132.798 7.70117C132.354 7.70117 131.929 7.87755 131.615 8.1915C131.301 8.50546 131.124 8.93128 131.124 9.37528C131.124 11.2235 133.758 12.2146 134.249 13.3931C134.745 12.2146 137.374 11.2235 137.374 9.37528C137.374 8.93128 137.198 8.50546 136.884 8.1915C136.57 7.87755 136.144 7.70117 135.7 7.70117Z" fill="#C93112"/>
<path d="M129.45 22.4336C129.306 22.6921 129.096 22.9074 128.841 23.0573C128.586 23.2073 128.295 23.2863 127.999 23.2863C127.703 23.2863 127.413 23.2073 127.158 23.0573C126.903 22.9074 126.692 22.6921 126.548 22.4336C126.104 22.4336 125.679 22.61 125.365 22.9239C125.051 23.2379 124.874 23.6637 124.874 24.1077C124.874 25.9559 127.508 26.947 127.999 28.1256C128.495 26.947 131.124 25.9559 131.124 24.1077C131.124 23.6637 130.948 23.2379 130.634 22.9239C130.32 22.61 129.894 22.4336 129.45 22.4336Z" fill="#C93112"/>
<path d="M123.2 17.5234C123.056 17.7819 122.846 17.9973 122.591 18.1472C122.336 18.2971 122.045 18.3761 121.749 18.3761C121.453 18.3761 121.163 18.2971 120.908 18.1472C120.653 17.9973 120.442 17.7819 120.298 17.5234C119.854 17.5234 119.429 17.6998 119.115 18.0138C118.801 18.3277 118.624 18.7535 118.624 19.1975C118.624 21.0458 121.258 22.0368 121.749 23.2154C122.245 22.0368 124.874 21.0458 124.874 19.1975C124.874 18.7535 124.698 18.3277 124.384 18.0138C124.07 17.6998 123.644 17.5234 123.2 17.5234Z" fill="#C93112"/>
<path d="M135.7 17.5234C135.556 17.7819 135.346 17.9973 135.091 18.1472C134.836 18.2971 134.545 18.3761 134.249 18.3761C133.953 18.3761 133.663 18.2971 133.408 18.1472C133.153 17.9973 132.942 17.7819 132.798 17.5234C132.354 17.5234 131.929 17.6998 131.615 18.0138C131.301 18.3277 131.124 18.7535 131.124 19.1975C131.124 21.0458 133.758 22.0368 134.249 23.2154C134.745 22.0368 137.374 21.0458 137.374 19.1975C137.374 18.7535 137.198 18.3277 136.884 18.0138C136.57 17.6998 136.144 17.5234 135.7 17.5234Z" fill="#C93112"/>
<path d="M123.2 42.0767C123.056 41.8182 122.846 41.6029 122.591 41.453C122.336 41.3031 122.045 41.224 121.749 41.224C121.453 41.224 121.163 41.3031 120.908 41.453C120.653 41.6029 120.442 41.8182 120.298 42.0767C119.854 42.0767 119.429 41.9004 119.115 41.5864C118.801 41.2724 118.624 40.8466 118.624 40.4026C118.624 38.5544 121.258 37.5633 121.749 36.3848C122.245 37.5633 124.874 38.5544 124.874 40.4026C124.874 40.8466 124.698 41.2724 124.384 41.5864C124.07 41.9004 123.644 42.0767 123.2 42.0767Z" fill="#C93112"/>
<path d="M135.7 42.0767C135.556 41.8182 135.346 41.6029 135.091 41.453C134.836 41.3031 134.545 41.224 134.249 41.224C133.953 41.224 133.663 41.3031 133.408 41.453C133.153 41.6029 132.942 41.8182 132.798 42.0767C132.354 42.0767 131.929 41.9004 131.615 41.5864C131.301 41.2724 131.124 40.8466 131.124 40.4026C131.124 38.5544 133.758 37.5633 134.249 36.3848C134.745 37.5633 137.374 38.5544 137.374 40.4026C137.374 40.8466 137.198 41.2724 136.884 41.5864C136.57 41.9004 136.144 42.0767 135.7 42.0767Z" fill="#C93112"/>
<path d="M123.2 32.2545C123.056 31.996 122.846 31.7806 122.591 31.6307C122.336 31.4808 122.045 31.4018 121.749 31.4018C121.453 31.4018 121.163 31.4808 120.908 31.6307C120.653 31.7806 120.442 31.996 120.298 32.2545C119.854 32.2545 119.429 32.0781 119.115 31.7641C118.801 31.4502 118.624 31.0244 118.624 30.5804C118.624 28.7321 121.258 27.7411 121.749 26.5625C122.245 27.7411 124.874 28.7321 124.874 30.5804C124.874 31.0244 124.698 31.4502 124.384 31.7641C124.07 32.0781 123.644 32.2545 123.2 32.2545Z" fill="#C93112"/>
<path d="M135.7 32.2545C135.556 31.996 135.346 31.7806 135.091 31.6307C134.836 31.4808 134.545 31.4018 134.249 31.4018C133.953 31.4018 133.663 31.4808 133.408 31.6307C133.153 31.7806 132.942 31.996 132.798 32.2545C132.354 32.2545 131.929 32.0781 131.615 31.7641C131.301 31.4502 131.124 31.0244 131.124 30.5804C131.124 28.7321 133.758 27.7411 134.249 26.5625C134.745 27.7411 137.374 28.7321 137.374 30.5804C137.374 31.0244 137.198 31.4502 136.884 31.7641C136.57 32.0781 136.144 32.2545 135.7 32.2545Z" fill="#C93112"/>
<path d="M180.339 0H149.089C147.857 0 146.857 0.999364 146.857 2.23214V47.7679C146.857 49.0006 147.857 50 149.089 50H180.339C181.572 50 182.571 49.0006 182.571 47.7679V2.23214C182.571 0.999364 181.572 0 180.339 0Z" fill="#F9F1DF"/>
<path d="M152.938 9.375C152.866 9.50425 152.761 9.61191 152.633 9.68687C152.506 9.76183 152.36 9.80135 152.212 9.80135C152.065 9.80135 151.919 9.76183 151.792 9.68687C151.664 9.61191 151.559 9.50425 151.487 9.375C151.265 9.37618 151.053 9.46513 150.896 9.6224C150.74 9.77967 150.652 9.99247 150.652 10.2143C150.652 11.1384 151.992 11.6339 152.215 12.2232C152.46 11.6339 153.777 11.1384 153.777 10.2143C153.777 9.9917 153.689 9.77822 153.531 9.62082C153.374 9.46343 153.161 9.375 152.938 9.375Z" fill="#C93112"/>
<path d="M176.487 40.401C176.559 40.2717 176.664 40.164 176.792 40.0891C176.919 40.0141 177.064 39.9746 177.212 39.9746C177.36 39.9746 177.506 40.0141 177.633 40.0891C177.761 40.164 177.866 40.2717 177.938 40.401C178.16 40.401 178.374 40.3125 178.531 40.1551C178.689 39.9977 178.777 39.7843 178.777 39.5617C178.777 38.6376 177.438 38.142 177.215 37.5527C176.969 38.142 175.652 38.6376 175.652 39.5617C175.652 39.7835 175.74 39.9963 175.896 40.1536C176.053 40.3108 176.265 40.3998 176.487 40.401Z" fill="#C93112"/>
<path d="M150.952 3.88756V6.94113C150.95 6.97872 150.963 7.01562 150.988 7.0438C151.014 7.0712 151.049 7.08858 151.086 7.09291L151.613 7.17773V7.47684H149.537V7.17773L150.14 7.09291C150.179 7.08762 150.217 7.07052 150.247 7.0438C150.262 7.03134 150.273 7.01556 150.281 6.99774C150.289 6.97992 150.292 6.96053 150.291 6.94113V4.53488L150.144 4.57505L149.952 4.6197L149.751 4.65541H149.573L149.51 4.33845C149.61 4.31405 149.709 4.28272 149.805 4.24469C149.907 4.20898 150.006 4.16434 150.104 4.11969C150.202 4.07505 150.291 4.02148 150.376 3.96791C150.454 3.91827 150.529 3.86307 150.599 3.80273L150.952 3.88756Z" fill="#C93112"/>
<path d="M153.421 7.54297C153.195 7.54972 152.971 7.49904 152.769 7.39565C152.589 7.30763 152.435 7.17367 152.323 7.00726C152.214 6.82821 152.137 6.63192 152.095 6.4269C152.05 6.19458 152.027 5.9583 152.028 5.72155C152.025 5.43992 152.059 5.15909 152.131 4.88672C152.191 4.67329 152.291 4.47326 152.426 4.29744C152.545 4.14642 152.697 4.02559 152.872 3.94475C153.061 3.86614 153.265 3.82666 153.47 3.82869C153.696 3.82225 153.92 3.8713 154.122 3.97154C154.293 4.06287 154.437 4.19662 154.542 4.35994C154.654 4.53708 154.731 4.73408 154.769 4.9403C154.815 5.17258 154.838 5.40888 154.836 5.64565C154.842 5.92888 154.808 6.21153 154.734 6.48493C154.678 6.69979 154.577 6.90053 154.439 7.07422C154.32 7.2256 154.167 7.3465 153.992 7.4269C153.811 7.50205 153.617 7.54146 153.421 7.54297ZM153.421 4.16797C153.313 4.16578 153.208 4.1985 153.12 4.26125C153.032 4.32401 152.967 4.41343 152.934 4.51618C152.824 4.85896 152.775 5.21883 152.792 5.57869C152.778 5.98243 152.826 6.38586 152.934 6.77511C152.961 6.89595 153.028 7.00402 153.125 7.08121C153.222 7.15841 153.342 7.20007 153.466 7.19922C153.574 7.20113 153.68 7.16776 153.768 7.10415C153.856 7.04054 153.92 6.95013 153.952 6.84654C154.068 6.50473 154.117 6.14431 154.1 5.78405C154.114 5.38141 154.065 4.97898 153.952 4.59207C153.928 4.47345 153.864 4.36674 153.77 4.2896C153.677 4.21247 153.56 4.16955 153.439 4.16797H153.421Z" fill="#C93112"/>
<path d="M178.474 45.8873V42.856C178.478 42.819 178.466 42.7822 178.443 42.7533C178.416 42.7256 178.379 42.7083 178.34 42.7042L177.818 42.6194V42.3203H179.894V42.6194L179.291 42.7042C179.252 42.7095 179.214 42.7266 179.184 42.7533C179.171 42.7666 179.16 42.7827 179.153 42.8004C179.146 42.8181 179.143 42.837 179.144 42.856V45.2623L179.291 45.2221L179.479 45.1775L179.684 45.1417H179.863L179.925 45.4587C179.823 45.4824 179.723 45.5138 179.626 45.5525C179.528 45.5882 179.425 45.6328 179.332 45.6775C179.238 45.7235 179.147 45.7741 179.059 45.8292C178.98 45.88 178.904 45.9352 178.832 45.9944L178.474 45.8873Z" fill="#C93112"/>
<path d="M176.006 42.2312C176.233 42.2237 176.459 42.2744 176.662 42.3785C176.833 42.4698 176.977 42.6036 177.082 42.7669C177.194 42.9441 177.271 43.1411 177.309 43.3473C177.355 43.5796 177.377 43.8159 177.376 44.0526C177.382 44.3344 177.348 44.6155 177.274 44.8874C177.218 45.1023 177.117 45.303 176.979 45.4767C176.86 45.6281 176.707 45.749 176.533 45.8294C176.343 45.9077 176.139 45.9471 175.934 45.9455C175.709 45.9525 175.485 45.9034 175.283 45.8026C175.11 45.7114 174.964 45.5777 174.858 45.4142C174.746 45.2371 174.669 45.0401 174.631 44.8339C174.585 44.6016 174.562 44.3653 174.564 44.1285C174.56 43.8454 174.594 43.563 174.666 43.2892C174.726 43.0758 174.826 42.8758 174.961 42.6999C175.079 42.5479 175.232 42.4269 175.408 42.3473C175.597 42.2681 175.8 42.2285 176.006 42.2312ZM176.006 45.6062C176.114 45.6091 176.22 45.5767 176.308 45.5138C176.395 45.451 176.46 45.3611 176.492 45.258C176.607 44.9161 176.657 44.5557 176.64 44.1955C176.654 43.7914 176.604 43.3876 176.492 42.9991C176.467 42.8778 176.399 42.7693 176.303 42.6919C176.206 42.6146 176.085 42.5733 175.961 42.5749C175.853 42.5725 175.747 42.6058 175.66 42.6695C175.573 42.7333 175.509 42.824 175.479 42.9276C175.364 43.2694 175.314 43.6299 175.332 43.9901C175.318 44.3924 175.366 44.7944 175.474 45.1821C175.5 45.3003 175.564 45.4066 175.657 45.4836C175.751 45.5606 175.867 45.6038 175.988 45.6062H176.006Z" fill="#C93112"/>
<path d="M159.915 7.69922C159.772 7.95771 159.561 8.17305 159.306 8.32296C159.051 8.47288 158.76 8.55192 158.465 8.55192C158.169 8.55192 157.878 8.47288 157.623 8.32296C157.368 8.17305 157.158 7.95771 157.014 7.69922C156.57 7.69922 156.144 7.87559 155.83 8.18955C155.516 8.50351 155.34 8.92933 155.34 9.37333C155.34 11.2215 157.974 12.2126 158.465 13.3912C158.956 12.2126 161.59 11.2215 161.59 9.37333C161.59 8.92933 161.413 8.50351 161.099 8.18955C160.785 7.87559 160.359 7.69922 159.915 7.69922Z" fill="#C93112"/>
<path d="M172.415 7.69922C172.272 7.95771 172.061 8.17305 171.806 8.32296C171.551 8.47288 171.26 8.55192 170.965 8.55192C170.669 8.55192 170.378 8.47288 170.123 8.32296C169.868 8.17305 169.658 7.95771 169.514 7.69922C169.07 7.69922 168.644 7.87559 168.33 8.18955C168.016 8.50351 167.84 8.92933 167.84 9.37333C167.84 11.2215 170.474 12.2126 170.965 13.3912C171.456 12.2126 174.09 11.2215 174.09 9.37333C174.09 8.92933 173.913 8.50351 173.599 8.18955C173.285 7.87559 172.859 7.69922 172.415 7.69922Z" fill="#C93112"/>
<path d="M166.165 12.834C166.022 13.0925 165.811 13.3078 165.556 13.4577C165.301 13.6076 165.01 13.6867 164.715 13.6867C164.419 13.6867 164.128 13.6076 163.873 13.4577C163.618 13.3078 163.408 13.0925 163.264 12.834C162.82 12.834 162.394 13.0104 162.08 13.3243C161.766 13.6383 161.59 14.0641 161.59 14.5081C161.59 16.3563 164.224 17.3474 164.715 18.5259C165.206 17.3474 167.84 16.3563 167.84 14.5081C167.84 14.0641 167.663 13.6383 167.349 13.3243C167.035 13.0104 166.609 12.834 166.165 12.834Z" fill="#C93112"/>
<path d="M159.915 17.5215C159.772 17.78 159.561 17.9953 159.306 18.1452C159.051 18.2951 158.76 18.3742 158.465 18.3742C158.169 18.3742 157.878 18.2951 157.623 18.1452C157.368 17.9953 157.158 17.78 157.014 17.5215C156.57 17.5215 156.144 17.6979 155.83 18.0118C155.516 18.3258 155.34 18.7516 155.34 19.1956C155.34 21.0438 157.974 22.0349 158.465 23.2134C158.956 22.0349 161.59 21.0438 161.59 19.1956C161.59 18.7516 161.413 18.3258 161.099 18.0118C160.785 17.6979 160.359 17.5215 159.915 17.5215Z" fill="#C93112"/>
<path d="M172.415 17.5215C172.272 17.78 172.061 17.9953 171.806 18.1452C171.551 18.2951 171.26 18.3742 170.965 18.3742C170.669 18.3742 170.378 18.2951 170.123 18.1452C169.868 17.9953 169.658 17.78 169.514 17.5215C169.07 17.5215 168.644 17.6979 168.33 18.0118C168.016 18.3258 167.84 18.7516 167.84 19.1956C167.84 21.0438 170.474 22.0349 170.965 23.2134C171.456 22.0349 174.09 21.0438 174.09 19.1956C174.09 18.7516 173.913 18.3258 173.599 18.0118C173.285 17.6979 172.859 17.5215 172.415 17.5215Z" fill="#C93112"/>
<path d="M159.915 42.0748C159.772 41.8163 159.561 41.6009 159.306 41.451C159.051 41.3011 158.76 41.2221 158.465 41.2221C158.169 41.2221 157.878 41.3011 157.623 41.451C157.368 41.6009 157.158 41.8163 157.014 42.0748C156.57 42.0748 156.144 41.8984 155.83 41.5844C155.516 41.2705 155.34 40.8447 155.34 40.4007C155.34 38.5525 157.974 37.5614 158.465 36.3828C158.956 37.5614 161.59 38.5525 161.59 40.4007C161.59 40.8447 161.413 41.2705 161.099 41.5844C160.785 41.8984 160.359 42.0748 159.915 42.0748Z" fill="#C93112"/>
<path d="M172.415 42.0748C172.272 41.8163 172.061 41.6009 171.806 41.451C171.551 41.3011 171.26 41.2221 170.965 41.2221C170.669 41.2221 170.378 41.3011 170.123 41.451C169.868 41.6009 169.658 41.8163 169.514 42.0748C169.07 42.0748 168.644 41.8984 168.33 41.5844C168.016 41.2705 167.84 40.8447 167.84 40.4007C167.84 38.5525 170.474 37.5614 170.965 36.3828C171.456 37.5614 174.09 38.5525 174.09 40.4007C174.09 40.8447 173.913 41.2705 173.599 41.5844C173.285 41.8984 172.859 42.0748 172.415 42.0748Z" fill="#C93112"/>
<path d="M166.165 36.94C166.022 36.6815 165.811 36.4662 165.556 36.3163C165.301 36.1664 165.01 36.0873 164.715 36.0873C164.419 36.0873 164.128 36.1664 163.873 36.3163C163.618 36.4662 163.408 36.6815 163.264 36.94C162.82 36.94 162.394 36.7636 162.08 36.4497C161.766 36.1357 161.59 35.7099 161.59 35.2659C161.59 33.4177 164.224 32.4266 164.715 31.248C165.206 32.4266 167.84 33.4177 167.84 35.2659C167.84 35.7099 167.663 36.1357 167.349 36.4497C167.035 36.7636 166.609 36.94 166.165 36.94Z" fill="#C93112"/>
<path d="M159.915 32.2525C159.772 31.994 159.561 31.7787 159.306 31.6288C159.051 31.4789 158.76 31.3998 158.465 31.3998C158.169 31.3998 157.878 31.4789 157.623 31.6288C157.368 31.7787 157.158 31.994 157.014 32.2525C156.57 32.2525 156.144 32.0761 155.83 31.7622C155.516 31.4482 155.34 31.0224 155.34 30.5784C155.34 28.7302 157.974 27.7391 158.465 26.5605C158.956 27.7391 161.59 28.7302 161.59 30.5784C161.59 31.0224 161.413 31.4482 161.099 31.7622C160.785 32.0761 160.359 32.2525 159.915 32.2525Z" fill="#C93112"/>
<path d="M172.415 32.2525C172.272 31.994 172.061 31.7787 171.806 31.6288C171.551 31.4789 171.26 31.3998 170.965 31.3998C170.669 31.3998 170.378 31.4789 170.123 31.6288C169.868 31.7787 169.658 31.994 169.514 32.2525C169.07 32.2525 168.644 32.0761 168.33 31.7622C168.016 31.4482 167.84 31.0224 167.84 30.5784C167.84 28.7302 170.474 27.7391 170.965 26.5605C171.456 27.7391 174.09 28.7302 174.09 30.5784C174.09 31.0224 173.913 31.4482 173.599 31.7622C173.285 32.0761 172.859 32.2525 172.415 32.2525Z" fill="#C93112"/>
</svg>
