<svg width="183" height="50" viewBox="0 0 183 50" fill="none" xmlns="http://www.w3.org/2000/svg">
<path d="M33.4821 0H2.23214C0.999364 0 0 0.999364 0 2.23214V47.7679C0 49.0006 0.999364 50 2.23214 50H33.4821C34.7149 50 35.7143 49.0006 35.7143 47.7679V2.23214C35.7143 0.999364 34.7149 0 33.4821 0Z" fill="#F9F1DF"/>
<path d="M6.72197 10.2949C6.59584 10.1706 6.42585 10.1009 6.24875 10.1009C6.07165 10.1009 5.90165 10.1706 5.77553 10.2949L5.48535 10.5851C5.5463 10.3835 5.666 10.2048 5.82911 10.0717C5.8949 10.0104 5.94767 9.93644 5.98427 9.85429C6.02087 9.77215 6.04055 9.68348 6.04213 9.59357C6.04372 9.50365 6.02717 9.41434 5.99349 9.33096C5.95982 9.24758 5.90969 9.17183 5.8461 9.10824C5.78251 9.04466 5.70677 8.99453 5.62339 8.96085C5.54001 8.92717 5.4507 8.91063 5.36079 8.91221C5.27087 8.9138 5.18219 8.93348 5.10005 8.97008C5.01791 9.00668 4.94397 9.05945 4.88267 9.12524C4.82004 9.18711 4.77033 9.2608 4.73639 9.34203C4.70245 9.42326 4.68497 9.51042 4.68497 9.59846C4.68497 9.68649 4.70245 9.77365 4.73639 9.85488C4.77033 9.93611 4.82004 10.0098 4.88267 10.0717C5.04295 10.2065 5.16079 10.3848 5.22196 10.5851L4.93625 10.2949C4.84238 10.2018 4.72306 10.1386 4.59331 10.1132C4.46356 10.0878 4.3292 10.1013 4.20715 10.1522C4.08511 10.203 3.98085 10.2889 3.90751 10.3989C3.83417 10.5089 3.79504 10.6381 3.79504 10.7703C3.79504 10.9025 3.83417 11.0318 3.90751 11.1418C3.98085 11.2518 4.08511 11.3376 4.20715 11.3885C4.3292 11.4393 4.46356 11.4529 4.59331 11.4275C4.72306 11.4021 4.84238 11.3389 4.93625 11.2458L5.2666 10.911C5.29292 11.2998 5.16456 11.6833 4.90947 11.9779V12.0851H5.80232V11.9779C5.54632 11.6853 5.41633 11.3034 5.4407 10.9154V10.8886L5.77553 11.2235C5.83796 11.2856 5.91203 11.3348 5.99349 11.3684C6.07496 11.4019 6.16223 11.419 6.25032 11.4188C6.33841 11.4186 6.42561 11.4011 6.50691 11.3671C6.58822 11.3332 6.66204 11.2837 6.72419 11.2212C6.78633 11.1588 6.83557 11.0847 6.86909 11.0033C6.90261 10.9218 6.91976 10.8345 6.91955 10.7464C6.91935 10.6583 6.90179 10.5712 6.86789 10.4898C6.83399 10.4085 6.7844 10.3347 6.72197 10.2726V10.2949Z" fill="#1F1F1F"/>
<path d="M28.9898 39.7062C29.116 39.8305 29.286 39.9002 29.4631 39.9002C29.6402 39.9002 29.8101 39.8305 29.9363 39.7062L30.222 39.416C30.1608 39.6163 30.043 39.7946 29.8827 39.9294C29.7894 40.0228 29.7258 40.1416 29.6999 40.2711C29.674 40.4005 29.6868 40.5346 29.7369 40.6568C29.787 40.7789 29.8721 40.8835 29.9814 40.9574C30.0907 41.0313 30.2195 41.0713 30.3514 41.0723C30.4842 41.073 30.6141 41.0343 30.7248 40.9611C30.8355 40.8878 30.922 40.7833 30.9732 40.6609C31.0244 40.5384 31.038 40.4035 31.0124 40.2732C30.9867 40.143 30.9229 40.0233 30.8291 39.9294C30.666 39.7963 30.5463 39.6175 30.4854 39.416L30.7755 39.7062C30.8694 39.7993 30.9887 39.8625 31.1185 39.8879C31.2482 39.9133 31.3826 39.8997 31.5046 39.8489C31.6267 39.798 31.7309 39.7122 31.8043 39.6022C31.8776 39.4922 31.9167 39.363 31.9167 39.2307C31.9167 39.0985 31.8776 38.9693 31.8043 38.8593C31.7309 38.7493 31.6267 38.6635 31.5046 38.6126C31.3826 38.5618 31.2482 38.5482 31.1185 38.5736C30.9887 38.599 30.8694 38.6622 30.7755 38.7553L30.4407 39.0901C30.4276 38.8972 30.4527 38.7036 30.5148 38.5205C30.5769 38.3373 30.6746 38.1683 30.8023 38.0232V37.916H29.9095V38.0232C30.0359 38.1681 30.1325 38.3366 30.1937 38.5189C30.255 38.7012 30.2798 38.8938 30.2666 39.0857V39.1124L29.9363 38.7776C29.8102 38.6521 29.6394 38.5818 29.4615 38.5823C29.2836 38.5827 29.1131 38.6538 28.9876 38.7799C28.8621 38.906 28.7918 39.0767 28.7922 39.2546C28.7927 39.4326 28.8637 39.603 28.9898 39.7285V39.7062Z" fill="#1F1F1F"/>
<path d="M4.22674 6.92578C4.34428 7.01565 4.47342 7.08924 4.61066 7.14453C4.75225 7.20303 4.90389 7.23335 5.05709 7.23382C5.26901 7.24127 5.47553 7.16602 5.63299 7.024C5.71071 6.95047 5.77137 6.8608 5.81071 6.76131C5.85005 6.66181 5.86709 6.5549 5.86066 6.4481C5.86793 6.25497 5.80083 6.06642 5.67316 5.92132C5.60592 5.8519 5.52436 5.79796 5.43416 5.76327C5.34395 5.72857 5.24726 5.71395 5.15084 5.72042C5.04946 5.72026 4.94864 5.73531 4.85174 5.76507C4.74643 5.79593 4.64466 5.83783 4.54815 5.89007L4.30262 5.72042L4.40976 4.01953H6.41869L6.3562 4.53739H4.83387L4.73566 5.49721C4.83866 5.41704 4.95726 5.35926 5.08387 5.32757C5.2051 5.29759 5.32954 5.2826 5.45442 5.28292C5.76261 5.26848 6.0641 5.37593 6.29369 5.58203C6.39767 5.68657 6.47876 5.8116 6.5318 5.94917C6.58483 6.08675 6.60864 6.23386 6.60173 6.38114C6.6034 6.56186 6.56848 6.74106 6.49906 6.90792C6.43021 7.06254 6.3316 7.20209 6.20887 7.31864C6.07719 7.43158 5.92586 7.51935 5.76244 7.57757C5.58092 7.63723 5.39102 7.66738 5.19995 7.66685C4.96687 7.67033 4.73565 7.6247 4.52137 7.53292C4.33739 7.45739 4.17376 7.33964 4.0437 7.18917L4.22674 6.92578Z" fill="#1F1F1F"/>
<path d="M31.4812 43.0785C31.3695 42.9907 31.2463 42.9186 31.1151 42.8643C30.9737 42.8052 30.8219 42.7749 30.6686 42.775C30.4554 42.7673 30.2474 42.8425 30.0883 42.9848C30.0106 43.0583 29.9499 43.148 29.9106 43.2475C29.8712 43.347 29.8542 43.4539 29.8606 43.5607C29.8533 43.7538 29.9205 43.9424 30.0481 44.0875C30.1159 44.1562 30.1975 44.2096 30.2876 44.2443C30.3777 44.2789 30.4741 44.2939 30.5704 44.2884C30.6718 44.2885 30.7726 44.2735 30.8695 44.2437C30.9749 44.2129 31.0766 44.171 31.1731 44.1187L31.4186 44.2884L31.3026 45.9893H29.2892L29.3517 45.4714H30.874L30.9722 44.5116C30.87 44.5929 30.7511 44.6508 30.624 44.6812C30.5042 44.7109 30.3813 44.7259 30.2579 44.7259C29.9484 44.7401 29.6456 44.6327 29.4142 44.4268C29.3102 44.3222 29.2291 44.1972 29.1761 44.0596C29.1231 43.922 29.0992 43.7749 29.1061 43.6277C29.1045 43.4469 29.1394 43.2677 29.2088 43.1009C29.2777 42.9451 29.378 42.8053 29.5035 42.6902C29.6349 42.5768 29.7863 42.489 29.9499 42.4312C30.1314 42.3716 30.3213 42.3414 30.5124 42.3419C30.7469 42.3389 30.9795 42.3845 31.1954 42.4759C31.3788 42.5525 31.5422 42.6701 31.6731 42.8196L31.4812 43.0785Z" fill="#1F1F1F"/>
<path d="M14.3384 9.43505C14.0873 9.18425 13.7469 9.04337 13.392 9.04337C13.0371 9.04337 12.6967 9.18425 12.4456 9.43505L11.8697 10.0109C11.9932 9.60982 12.2305 9.25315 12.5527 8.98416C12.7402 8.79692 12.8679 8.55829 12.9197 8.29845C12.9715 8.0386 12.9451 7.76923 12.8438 7.52441C12.7425 7.27959 12.5708 7.07033 12.3505 6.92309C12.1302 6.77586 11.8712 6.69727 11.6063 6.69727C11.3413 6.69727 11.0823 6.77586 10.862 6.92309C10.6418 7.07033 10.4701 7.27959 10.3688 7.52441C10.2675 7.76923 10.241 8.0386 10.2928 8.29845C10.3447 8.55829 10.4724 8.79692 10.6598 8.98416C10.9794 9.25549 11.2161 9.61133 11.3429 10.0109L10.767 9.43505C10.5798 9.24758 10.3411 9.11986 10.0813 9.06805C9.82144 9.01624 9.55207 9.04266 9.30725 9.14398C9.06243 9.2453 8.85317 9.41696 8.70593 9.63724C8.5587 9.85752 8.4801 10.1165 8.4801 10.3815C8.4801 10.6464 8.5587 10.9054 8.70593 11.1257C8.85317 11.346 9.06243 11.5177 9.30725 11.619C9.55207 11.7203 9.82144 11.7467 10.0813 11.6949C10.3411 11.6431 10.5798 11.5154 10.767 11.3279L11.4277 10.6672V10.7163C11.4565 11.1016 11.4081 11.4888 11.2855 11.8552C11.1628 12.2216 10.9684 12.5599 10.7134 12.8502V13.0734H12.4991V12.8502C12.2443 12.5597 12.0495 12.2215 11.9261 11.8552C11.8028 11.4889 11.7532 11.1018 11.7804 10.7163V10.6717L12.4456 11.3324C12.6994 11.5689 13.0353 11.6977 13.3822 11.6916C13.7292 11.6855 14.0602 11.5449 14.3056 11.2996C14.551 11.0542 14.6915 10.7231 14.6977 10.3762C14.7038 10.0292 14.575 9.6934 14.3384 9.43952V9.43505Z" fill="#1F1F1F"/>
<path d="M26.8384 9.43505C26.5873 9.18425 26.2469 9.04337 25.892 9.04337C25.5371 9.04337 25.1967 9.18425 24.9456 9.43505L24.3697 10.0109C24.4932 9.60982 24.7305 9.25315 25.0527 8.98416C25.2402 8.79692 25.3679 8.55829 25.4197 8.29845C25.4715 8.0386 25.4451 7.76923 25.3438 7.52441C25.2425 7.27959 25.0708 7.07033 24.8505 6.92309C24.6302 6.77586 24.3712 6.69727 24.1063 6.69727C23.8413 6.69727 23.5823 6.77586 23.362 6.92309C23.1418 7.07033 22.9701 7.27959 22.8688 7.52441C22.7675 7.76923 22.741 8.0386 22.7928 8.29845C22.8447 8.55829 22.9724 8.79692 23.1598 8.98416C23.4794 9.25549 23.7161 9.61133 23.8429 10.0109L23.267 9.43505C23.0798 9.24758 22.8411 9.11986 22.5813 9.06805C22.3214 9.01624 22.0521 9.04266 21.8073 9.14398C21.5624 9.2453 21.3532 9.41696 21.2059 9.63724C21.0587 9.85752 20.9801 10.1165 20.9801 10.3815C20.9801 10.6464 21.0587 10.9054 21.2059 11.1257C21.3532 11.346 21.5624 11.5177 21.8073 11.619C22.0521 11.7203 22.3214 11.7467 22.5813 11.6949C22.8411 11.6431 23.0798 11.5154 23.267 11.3279L23.9277 10.6672V10.7163C23.9565 11.1016 23.9081 11.4888 23.7855 11.8552C23.6628 12.2216 23.4684 12.5599 23.2134 12.8502V13.0734H24.9991V12.8502C24.7443 12.5597 24.5495 12.2215 24.4261 11.8552C24.3028 11.4889 24.2532 11.1018 24.2804 10.7163V10.6717L24.9456 11.3324C25.1994 11.5689 25.5353 11.6977 25.8822 11.6916C26.2292 11.6855 26.5602 11.5449 26.8056 11.2996C27.051 11.0542 27.1915 10.7231 27.1977 10.3762C27.2038 10.0292 27.075 9.6934 26.8384 9.43952V9.43505Z" fill="#1F1F1F"/>
<path d="M20.5884 23.9448C20.3373 23.694 19.9969 23.5531 19.642 23.5531C19.2871 23.5531 18.9467 23.694 18.6956 23.9448L18.1197 24.5207C18.2432 24.1196 18.4805 23.7629 18.8027 23.4939C18.9902 23.3067 19.1179 23.0681 19.1697 22.8082C19.2215 22.5484 19.1951 22.279 19.0938 22.0342C18.9925 21.7894 18.8208 21.5801 18.6005 21.4329C18.3802 21.2856 18.1212 21.207 17.8563 21.207C17.5913 21.207 17.3323 21.2856 17.112 21.4329C16.8918 21.5801 16.7201 21.7894 16.6188 22.0342C16.5175 22.279 16.491 22.5484 16.5428 22.8082C16.5947 23.0681 16.7224 23.3067 16.9098 23.4939C17.2294 23.7653 17.4661 24.1211 17.5929 24.5207L17.017 23.9448C16.8298 23.7573 16.5911 23.6296 16.3313 23.5778C16.0714 23.526 15.8021 23.5524 15.5573 23.6537C15.3124 23.7551 15.1032 23.9267 14.9559 24.147C14.8087 24.3673 14.7301 24.6263 14.7301 24.8912C14.7301 25.1562 14.8087 25.4152 14.9559 25.6355C15.1032 25.8558 15.3124 26.0274 15.5573 26.1287C15.8021 26.2301 16.0714 26.2565 16.3313 26.2047C16.5911 26.1529 16.8298 26.0251 17.017 25.8377L17.6777 25.177V25.2127C17.7065 25.598 17.6581 25.9852 17.5355 26.3516C17.4128 26.718 17.2184 27.0563 16.9634 27.3466V27.5698H18.7491V27.3466C18.4954 27.0571 18.3012 26.7204 18.1779 26.3558C18.0545 25.9911 18.0044 25.6057 18.0304 25.2216V25.177L18.6956 25.8377C18.9494 26.0742 19.2853 26.203 19.6322 26.1969C19.9792 26.1908 20.3102 26.0502 20.5556 25.8049C20.801 25.5595 20.9415 25.2284 20.9477 24.8815C20.9538 24.5345 20.825 24.1987 20.5884 23.9448Z" fill="#1F1F1F"/>
<path d="M14.3384 40.5681C14.0873 40.8189 13.7469 40.9598 13.392 40.9598C13.0371 40.9598 12.6967 40.8189 12.4456 40.5681L11.8697 39.9922C11.9932 40.3933 12.2305 40.75 12.5527 41.019C12.7402 41.2062 12.8679 41.4448 12.9197 41.7047C12.9715 41.9645 12.9451 42.2339 12.8438 42.4787C12.7425 42.7235 12.5708 42.9328 12.3505 43.08C12.1302 43.2273 11.8712 43.3059 11.6063 43.3059C11.3413 43.3059 11.0823 43.2273 10.862 43.08C10.6418 42.9328 10.4701 42.7235 10.3688 42.4787C10.2675 42.2339 10.241 41.9645 10.2928 41.7047C10.3447 41.4448 10.4724 41.2062 10.6598 41.019C10.9794 40.7476 11.2161 40.3918 11.3429 39.9922L10.767 40.5681C10.5798 40.7556 10.3411 40.8833 10.0813 40.9351C9.82144 40.9869 9.55207 40.9605 9.30725 40.8591C9.06243 40.7578 8.85317 40.5862 8.70593 40.3659C8.5587 40.1456 8.4801 39.8866 8.4801 39.6217C8.4801 39.3567 8.5587 39.0977 8.70593 38.8774C8.85317 38.6571 9.06243 38.4855 9.30725 38.3842C9.55207 38.2828 9.82144 38.2564 10.0813 38.3082C10.3411 38.36 10.5798 38.4878 10.767 38.6752L11.4277 39.3359V39.2868C11.4565 38.9015 11.4081 38.5143 11.2855 38.1479C11.1628 37.7815 10.9684 37.4433 10.7134 37.1529V36.9297H12.4991V37.1529C12.2443 37.4434 12.0495 37.7816 11.9261 38.1479C11.8028 38.5142 11.7532 38.9013 11.7804 39.2868V39.3315L12.4456 38.6708C12.6994 38.4342 13.0353 38.3054 13.3822 38.3115C13.7292 38.3176 14.0602 38.4582 14.3056 38.7036C14.551 38.949 14.6915 39.28 14.6977 39.627C14.7038 39.9739 14.575 40.3097 14.3384 40.5636V40.5681Z" fill="#1F1F1F"/>
<path d="M26.8384 40.5681C26.5873 40.8189 26.2469 40.9598 25.892 40.9598C25.5371 40.9598 25.1967 40.8189 24.9456 40.5681L24.3697 39.9922C24.4932 40.3933 24.7305 40.75 25.0527 41.019C25.2402 41.2062 25.3679 41.4448 25.4197 41.7047C25.4715 41.9645 25.4451 42.2339 25.3438 42.4787C25.2425 42.7235 25.0708 42.9328 24.8505 43.08C24.6302 43.2273 24.3712 43.3059 24.1063 43.3059C23.8413 43.3059 23.5823 43.2273 23.362 43.08C23.1418 42.9328 22.9701 42.7235 22.8688 42.4787C22.7675 42.2339 22.741 41.9645 22.7928 41.7047C22.8447 41.4448 22.9724 41.2062 23.1598 41.019C23.4794 40.7476 23.7161 40.3918 23.8429 39.9922L23.267 40.5681C23.0798 40.7556 22.8411 40.8833 22.5813 40.9351C22.3214 40.9869 22.0521 40.9605 21.8073 40.8591C21.5624 40.7578 21.3532 40.5862 21.2059 40.3659C21.0587 40.1456 20.9801 39.8866 20.9801 39.6217C20.9801 39.3567 21.0587 39.0977 21.2059 38.8774C21.3532 38.6571 21.5624 38.4855 21.8073 38.3842C22.0521 38.2828 22.3214 38.2564 22.5813 38.3082C22.8411 38.36 23.0798 38.4878 23.267 38.6752L23.9277 39.3359V39.2868C23.9565 38.9015 23.9081 38.5143 23.7855 38.1479C23.6628 37.7815 23.4684 37.4433 23.2134 37.1529V36.9297H24.9991V37.1529C24.7443 37.4434 24.5495 37.7816 24.4261 38.1479C24.3028 38.5142 24.2532 38.9013 24.2804 39.2868V39.3315L24.9456 38.6708C25.1994 38.4342 25.5353 38.3054 25.8822 38.3115C26.2292 38.3176 26.5602 38.4582 26.8056 38.7036C27.051 38.949 27.1915 39.28 27.1977 39.627C27.2038 39.9739 27.075 40.3097 26.8384 40.5636V40.5681Z" fill="#1F1F1F"/>
<path d="M70.1964 0H38.9464C37.7136 0 36.7142 0.999364 36.7142 2.23214V47.7679C36.7142 49.0006 37.7136 50 38.9464 50H70.1964C71.4292 50 72.4285 49.0006 72.4285 47.7679V2.23214C72.4285 0.999364 71.4292 0 70.1964 0Z" fill="#F9F1DF"/>
<path d="M42.7935 9.37305C42.6439 9.37541 42.4978 9.41814 42.3705 9.49672C42.2432 9.5753 42.1395 9.68682 42.0703 9.81948C41.9798 9.65846 41.8384 9.53202 41.6683 9.45996C41.4982 9.3879 41.3091 9.37428 41.1304 9.42123C40.9517 9.46819 40.7937 9.57308 40.6811 9.71947C40.5684 9.86585 40.5075 10.0455 40.5078 10.2302C40.5078 11.1543 41.8248 11.6498 42.0703 12.2391C42.3158 11.6498 43.6328 11.1543 43.6328 10.2302C43.6352 10.1185 43.6152 10.0074 43.5741 9.90352C43.533 9.79962 43.4716 9.70499 43.3934 9.62515C43.3152 9.54531 43.2219 9.48189 43.1189 9.4386C43.0159 9.39531 42.9053 9.37302 42.7935 9.37305Z" fill="#C93112"/>
<path d="M66.3247 40.399C66.4748 40.3965 66.6215 40.3537 66.7495 40.2752C66.8775 40.1967 66.9821 40.0853 67.0524 39.9526C67.1215 40.0852 67.2252 40.1967 67.3525 40.2753C67.4798 40.3539 67.626 40.3966 67.7756 40.399C67.9982 40.399 68.2116 40.3106 68.369 40.1532C68.5264 39.9958 68.6149 39.7823 68.6149 39.5597C68.6149 38.6356 67.2979 38.1401 67.0524 37.5508C66.8068 38.1401 65.4899 38.6356 65.4899 39.5597C65.4899 39.7815 65.5777 39.9943 65.7341 40.1516C65.8905 40.3089 66.1029 40.3978 66.3247 40.399Z" fill="#C93112"/>
<path d="M40.9407 6.8111C41.053 6.89805 41.176 6.97008 41.3068 7.02539C41.4484 7.08388 41.6 7.11421 41.7532 7.11468C41.9651 7.12212 42.1717 7.04688 42.3291 6.90485C42.4068 6.83133 42.4675 6.74166 42.5068 6.64216C42.5462 6.54267 42.5632 6.43575 42.5568 6.32896C42.5641 6.13583 42.497 5.94727 42.3693 5.80217C42.302 5.73275 42.2205 5.67882 42.1303 5.64412C42.0401 5.60943 41.9434 5.59481 41.847 5.60128C41.7456 5.60112 41.6448 5.61616 41.5479 5.64592C41.4426 5.67678 41.3408 5.71868 41.2443 5.77092L40.9988 5.60128L41.1193 3.90039H43.1282L43.0657 4.41824H41.5479L41.4496 5.37807C41.5526 5.2979 41.6712 5.24011 41.7979 5.20842C41.9191 5.17845 42.0435 5.16346 42.1684 5.16378C42.4766 5.14934 42.7781 5.25679 43.0077 5.46289C43.1117 5.56743 43.1928 5.69245 43.2458 5.83003C43.2988 5.9676 43.3226 6.11471 43.3157 6.26199C43.3174 6.44272 43.2825 6.62192 43.213 6.78878C43.1453 6.94271 43.0465 7.081 42.9229 7.19503C42.7937 7.31253 42.6417 7.40219 42.4764 7.45843C42.2949 7.51809 42.105 7.54823 41.9139 7.54771C41.6809 7.55119 41.4496 7.50555 41.2354 7.41378C41.0514 7.33825 40.8878 7.22049 40.7577 7.07003L40.9407 6.8111Z" fill="#C93112"/>
<path d="M68.1951 42.9633C68.0835 42.8754 67.9603 42.8033 67.8291 42.749C67.6876 42.69 67.5359 42.6596 67.3826 42.6597C67.1693 42.6521 66.9614 42.7273 66.8023 42.8696C66.7246 42.9431 66.6639 43.0328 66.6246 43.1323C66.5852 43.2318 66.5682 43.3387 66.5746 43.4455C66.5673 43.6386 66.6344 43.8271 66.7621 43.9722C66.8299 44.0409 66.9115 44.0944 67.0016 44.129C67.0917 44.1637 67.1881 44.1787 67.2844 44.1731C67.3858 44.1733 67.4866 44.1583 67.5835 44.1285C67.6888 44.0976 67.7906 44.0557 67.8871 44.0035L68.1326 44.1731L68.0166 45.874H66.0032L66.0657 45.3562H67.588L67.6862 44.3963C67.5839 44.4777 67.4651 44.5356 67.338 44.566C67.2182 44.5957 67.0953 44.6107 66.9719 44.6106C66.6624 44.6248 66.3596 44.5175 66.1282 44.3115C66.0242 44.207 65.9431 44.082 65.8901 43.9444C65.8371 43.8068 65.8132 43.6597 65.8201 43.5124C65.8185 43.3317 65.8534 43.1525 65.9228 42.9856C65.9906 42.8306 66.0911 42.692 66.2175 42.5794C66.3463 42.4615 66.4984 42.3718 66.6639 42.316C66.8454 42.2563 67.0353 42.2262 67.2264 42.2267C67.4609 42.2237 67.6934 42.2693 67.9094 42.3606C68.0928 42.4373 68.2562 42.5549 68.3871 42.7044L68.1951 42.9633Z" fill="#C93112"/>
<path d="M49.7715 7.69922C49.4758 7.70014 49.1856 7.77957 48.9307 7.92939C48.6758 8.0792 48.4652 8.29403 48.3206 8.5519C48.1395 8.22987 47.8567 7.977 47.5166 7.83287C47.1764 7.68874 46.798 7.6615 46.4407 7.75542C46.0834 7.84934 45.7674 8.05911 45.542 8.35188C45.3167 8.64465 45.1949 9.00389 45.1956 9.37333C45.1956 11.2215 47.825 12.2126 48.3206 13.3912C48.8116 12.2126 51.4456 11.2215 51.4456 9.37333C51.4456 8.92933 51.2692 8.50351 50.9552 8.18955C50.6413 7.87559 50.2155 7.69922 49.7715 7.69922Z" fill="#C93112"/>
<path d="M62.2715 7.69922C61.9758 7.70014 61.6856 7.77957 61.4307 7.92939C61.1758 8.0792 60.9652 8.29403 60.8206 8.5519C60.6395 8.22987 60.3567 7.977 60.0166 7.83287C59.6764 7.68874 59.298 7.6615 58.9407 7.75542C58.5834 7.84934 58.2674 8.05911 58.042 8.35188C57.8167 8.64465 57.6949 9.00389 57.6956 9.37333C57.6956 11.2215 60.325 12.2126 60.8206 13.3912C61.3116 12.2126 63.9456 11.2215 63.9456 9.37333C63.9456 8.92933 63.7692 8.50351 63.4552 8.18955C63.1413 7.87559 62.7155 7.69922 62.2715 7.69922Z" fill="#C93112"/>
<path d="M56.0215 22.209C55.7258 22.2099 55.4356 22.2893 55.1807 22.4392C54.9258 22.589 54.7152 22.8038 54.5706 23.0617C54.3895 22.7396 54.1067 22.4868 53.7666 22.3426C53.4264 22.1985 53.048 22.1713 52.6907 22.2652C52.3334 22.3591 52.0174 22.5689 51.792 22.8616C51.5667 23.1544 51.4449 23.5137 51.4456 23.8831C51.4456 25.7313 54.075 26.7224 54.5706 27.9009C55.0616 26.7224 57.6956 25.7313 57.6956 23.8831C57.6956 23.4391 57.5192 23.0133 57.2052 22.6993C56.8913 22.3854 56.4655 22.209 56.0215 22.209Z" fill="#C93112"/>
<path d="M49.7715 42.0748C49.4758 42.0739 49.1856 41.9944 48.9307 41.8446C48.6758 41.6948 48.4652 41.48 48.3206 41.2221C48.1395 41.5441 47.8567 41.797 47.5166 41.9411C47.1764 42.0853 46.798 42.1125 46.4407 42.0186C46.0834 41.9247 45.7674 41.7149 45.542 41.4221C45.3167 41.1293 45.1949 40.7701 45.1956 40.4007C45.1956 38.5525 47.825 37.5614 48.3206 36.3828C48.8116 37.5614 51.4456 38.5525 51.4456 40.4007C51.4456 40.8447 51.2692 41.2705 50.9552 41.5844C50.6413 41.8984 50.2155 42.0748 49.7715 42.0748Z" fill="#C93112"/>
<path d="M62.2715 42.0748C61.9758 42.0739 61.6856 41.9944 61.4307 41.8446C61.1758 41.6948 60.9652 41.48 60.8206 41.2221C60.6395 41.5441 60.3567 41.797 60.0166 41.9411C59.6764 42.0853 59.298 42.1125 58.9407 42.0186C58.5834 41.9247 58.2674 41.7149 58.042 41.4221C57.8167 41.1293 57.6949 40.7701 57.6956 40.4007C57.6956 38.5525 60.325 37.5614 60.8206 36.3828C61.3116 37.5614 63.9456 38.5525 63.9456 40.4007C63.9456 40.8447 63.7692 41.2705 63.4552 41.5844C63.1413 41.8984 62.7155 42.0748 62.2715 42.0748Z" fill="#C93112"/>
<path d="M106.911 0H75.6609C74.4281 0 73.4287 0.999364 73.4287 2.23214V47.7679C73.4287 49.0006 74.4281 50 75.6609 50H106.911C108.144 50 109.143 49.0006 109.143 47.7679V2.23214C109.143 0.999364 108.144 0 106.911 0Z" fill="#F9F1DF"/>
<path d="M78.7859 8.65234C78.5403 9.26395 77.335 9.49163 77.335 10.4381C77.335 10.5404 77.3552 10.6418 77.3945 10.7364C77.4338 10.8309 77.4914 10.9167 77.564 10.9889C77.6367 11.0611 77.7228 11.1182 77.8176 11.157C77.9123 11.1958 78.0138 11.2154 78.1162 11.2148C78.2234 11.2141 78.3294 11.1916 78.4276 11.1486C78.5259 11.1056 78.6143 11.0431 78.6876 10.9648C78.6669 11.2673 78.5441 11.5537 78.3394 11.7773V11.8845H79.2323V11.7773C79.026 11.5543 78.9016 11.2678 78.8796 10.9648C78.9534 11.0436 79.0426 11.1065 79.1417 11.1495C79.2407 11.1925 79.3475 11.2147 79.4555 11.2148C79.6619 11.2148 79.86 11.1332 80.0063 10.9876C80.1527 10.8421 80.2356 10.6445 80.2367 10.4381C80.2367 9.49163 79.0269 9.26395 78.7859 8.65234Z" fill="#1F1F1F"/>
<path d="M103.786 40.9021C104.027 40.2905 105.237 40.0628 105.237 39.1163C105.235 38.9099 105.153 38.7123 105.006 38.5668C104.86 38.4212 104.662 38.3396 104.455 38.3396C104.347 38.3397 104.241 38.3619 104.142 38.4049C104.043 38.4479 103.953 38.5108 103.88 38.5896C103.902 38.2866 104.026 38.0001 104.232 37.7771V37.6699H103.339V37.7771C103.544 38.0007 103.667 38.2871 103.688 38.5896C103.58 38.4798 103.443 38.4042 103.293 38.3721C103.142 38.34 102.986 38.3528 102.843 38.409C102.7 38.4652 102.577 38.5623 102.489 38.6881C102.401 38.8139 102.352 38.9628 102.348 39.1163C102.335 40.0628 103.545 40.2905 103.786 40.9021Z" fill="#1F1F1F"/>
<path d="M77.6563 6.69587C77.7686 6.78282 77.8916 6.85485 78.0224 6.91016C78.164 6.96865 78.3156 6.99898 78.4688 6.99944C78.6807 7.00689 78.8872 6.93165 79.0447 6.78963C79.1224 6.7161 79.1831 6.62643 79.2224 6.52694C79.2618 6.42744 79.2788 6.32053 79.2724 6.21373C79.2797 6.0206 79.2125 5.83204 79.0849 5.68695C79.0176 5.61753 78.9361 5.56359 78.8459 5.5289C78.7557 5.4942 78.659 5.47958 78.5626 5.48605C78.4612 5.48588 78.3603 5.50094 78.2634 5.53069C78.1581 5.56155 78.0564 5.60345 77.9599 5.65569L77.7143 5.48605L77.8349 3.78516H79.8438L79.7813 4.30302H78.2634L78.1652 5.26283C78.2682 5.18266 78.3868 5.12489 78.5134 5.0932C78.6347 5.06322 78.7591 5.04822 78.884 5.04855C79.1922 5.03411 79.4937 5.14155 79.7233 5.34766C79.8272 5.45219 79.9083 5.57722 79.9614 5.7148C80.0144 5.85238 80.0382 5.99949 80.0313 6.14677C80.033 6.32749 79.998 6.50668 79.9286 6.67355C79.8598 6.82816 79.7612 6.96772 79.6384 7.08426C79.5068 7.19721 79.3554 7.28498 79.192 7.3432C79.0105 7.40286 78.8206 7.433 78.6295 7.43248C78.3964 7.43595 78.1652 7.39033 77.9509 7.29855C77.767 7.22302 77.6033 7.10527 77.4733 6.9548L77.6563 6.69587Z" fill="#1F1F1F"/>
<path d="M104.911 42.8559C104.799 42.768 104.676 42.6959 104.545 42.6416C104.403 42.5825 104.251 42.5522 104.098 42.5523C103.885 42.5446 103.677 42.6198 103.518 42.7621C103.44 42.8357 103.379 42.9253 103.34 43.0248C103.301 43.1243 103.284 43.2312 103.29 43.338C103.283 43.5312 103.35 43.7197 103.478 43.8648C103.545 43.9335 103.627 43.987 103.717 44.0216C103.807 44.0563 103.904 44.0713 104 44.0657C104.101 44.0659 104.202 44.0508 104.299 44.0211C104.404 43.9902 104.506 43.9483 104.603 43.8961L104.848 44.0657L104.732 45.7666H102.719L102.781 45.2487H104.304L104.402 44.2889C104.3 44.3703 104.181 44.4282 104.054 44.4586C103.934 44.4883 103.811 44.5033 103.688 44.5032C103.378 44.5174 103.075 44.4101 102.844 44.2041C102.74 44.0996 102.659 43.9745 102.606 43.837C102.553 43.6994 102.529 43.5523 102.536 43.405C102.534 43.2243 102.569 43.0451 102.638 42.8782C102.707 42.7225 102.808 42.5827 102.933 42.4675C103.064 42.3541 103.216 42.2663 103.379 42.2086C103.561 42.1489 103.751 42.1188 103.942 42.1193C104.176 42.1162 104.409 42.1618 104.625 42.2532C104.808 42.3299 104.972 42.4475 105.103 42.597L104.911 42.8559Z" fill="#1F1F1F"/>
<path d="M85.0314 6.36133C84.5493 7.59347 82.1296 8.0399 82.1296 9.93276C82.1296 10.3472 82.2943 10.7446 82.5873 11.0376C82.8803 11.3306 83.2777 11.4953 83.6921 11.4953C83.9083 11.4952 84.1221 11.4498 84.3197 11.3622C84.5173 11.2745 84.6943 11.1465 84.8395 10.9863C84.8004 11.5918 84.5545 12.1655 84.143 12.6113V12.8345H85.9288V12.6113C85.515 12.1683 85.2674 11.5957 85.2279 10.9908C85.4404 11.2221 85.7178 11.3838 86.0238 11.4546C86.3298 11.5254 86.6501 11.5021 86.9427 11.3877C87.2352 11.2733 87.4863 11.0732 87.6631 10.8135C87.8398 10.5539 87.934 10.2469 87.9332 9.93276C87.9332 8.03544 85.518 7.58901 85.0314 6.36133Z" fill="#1F1F1F"/>
<path d="M97.5314 6.36133C97.0493 7.59347 94.6296 8.0399 94.6296 9.93276C94.6296 10.3472 94.7943 10.7446 95.0873 11.0376C95.3803 11.3306 95.7777 11.4953 96.1921 11.4953C96.4083 11.4952 96.6221 11.4498 96.8197 11.3622C97.0173 11.2745 97.1943 11.1465 97.3395 10.9863C97.3004 11.5918 97.0545 12.1655 96.643 12.6113V12.8345H98.4288V12.6113C98.015 12.1683 97.7674 11.5957 97.7279 10.9908C97.9404 11.2221 98.2178 11.3838 98.5238 11.4546C98.8298 11.5254 99.1501 11.5021 99.4427 11.3877C99.7352 11.2733 99.9863 11.0732 100.163 10.8135C100.34 10.5539 100.434 10.2469 100.433 9.93276C100.433 8.03544 98.018 7.58901 97.5314 6.36133Z" fill="#1F1F1F"/>
<path d="M91.2814 20.8711C90.7993 22.1032 88.3796 22.5497 88.3796 24.4425C88.3796 24.8569 88.5443 25.2544 88.8373 25.5474C89.1303 25.8404 89.5277 26.005 89.9421 26.005C90.1583 26.0049 90.3721 25.9596 90.5697 25.872C90.7673 25.7843 90.9443 25.6563 91.0895 25.4961C91.0504 26.1016 90.8045 26.6752 90.393 27.1211V27.3443H92.1788V27.1211C91.765 26.678 91.5174 26.1055 91.4779 25.5006C91.6904 25.7319 91.9678 25.8935 92.2738 25.9644C92.5798 26.0352 92.9001 26.0119 93.1927 25.8975C93.4852 25.7831 93.7363 25.5829 93.9131 25.3233C94.0898 25.0636 94.184 24.7566 94.1832 24.4425C94.1832 22.5497 91.768 22.1032 91.2814 20.8711Z" fill="#1F1F1F"/>
<path d="M85.0314 43.192C84.5493 41.9598 82.1296 41.5134 82.1296 39.6205C82.1296 39.2061 82.2943 38.8087 82.5873 38.5157C82.8803 38.2227 83.2777 38.058 83.6921 38.058C83.9083 38.0581 84.1221 38.1035 84.3197 38.1911C84.5173 38.2788 84.6943 38.4068 84.8395 38.567C84.8004 37.9615 84.5545 37.3878 84.143 36.942V36.7188H85.9288V36.942C85.515 37.385 85.2674 37.9576 85.2279 38.5625C85.4404 38.3312 85.7178 38.1695 86.0238 38.0987C86.3298 38.0279 86.6501 38.0512 86.9427 38.1656C87.2352 38.28 87.4863 38.4801 87.6631 38.7398C87.8398 38.9994 87.934 39.3064 87.9332 39.6205C87.9332 41.5179 85.518 41.9643 85.0314 43.192Z" fill="#1F1F1F"/>
<path d="M97.5314 43.192C97.0493 41.9598 94.6296 41.5134 94.6296 39.6205C94.6296 39.2061 94.7943 38.8087 95.0873 38.5157C95.3803 38.2227 95.7777 38.058 96.1921 38.058C96.4083 38.0581 96.6221 38.1035 96.8197 38.1911C97.0173 38.2788 97.1943 38.4068 97.3395 38.567C97.3004 37.9615 97.0545 37.3878 96.643 36.942V36.7188H98.4288V36.942C98.015 37.385 97.7674 37.9576 97.7279 38.5625C97.9404 38.3312 98.2178 38.1695 98.5238 38.0987C98.8298 38.0279 99.1501 38.0512 99.4427 38.1656C99.7352 38.28 99.9863 38.4801 100.163 38.7398C100.34 38.9994 100.434 39.3064 100.433 39.6205C100.433 41.5179 98.018 41.9643 97.5314 43.192Z" fill="#1F1F1F"/>
<path d="M143.625 0H112.375C111.142 0 110.143 0.999364 110.143 2.23214V47.7679C110.143 49.0006 111.142 50 112.375 50H143.625C144.858 50 145.857 49.0006 145.857 47.7679V2.23214C145.857 0.999364 144.858 0 143.625 0Z" fill="#F9F1DF"/>
<path d="M115.499 11.9414C115.096 11.3149 114.563 10.7821 113.936 10.3789C114.563 9.97568 115.096 9.44289 115.499 8.81641C115.901 9.44385 116.434 9.97688 117.061 10.3789C116.434 10.7809 115.901 11.314 115.499 11.9414Z" fill="#C93112"/>
<path d="M140.499 37.3887C140.901 38.0161 141.434 38.5491 142.061 38.9512C141.434 39.3532 140.901 39.8862 140.499 40.5137C140.096 39.8872 139.563 39.3544 138.936 38.9512C139.563 38.5479 140.096 38.0152 140.499 37.3887Z" fill="#C93112"/>
<path d="M114.369 6.58846C114.482 6.67541 114.605 6.74743 114.735 6.80273C114.877 6.86123 115.029 6.89156 115.182 6.89203C115.394 6.89947 115.6 6.82423 115.758 6.6822C115.835 6.60868 115.896 6.519 115.935 6.41951C115.975 6.32001 115.992 6.2131 115.985 6.10631C115.993 5.91318 115.926 5.72462 115.798 5.57952C115.731 5.5101 115.649 5.45617 115.559 5.42147C115.469 5.38678 115.372 5.37216 115.276 5.37863C115.174 5.37846 115.073 5.39351 114.976 5.42327C114.871 5.45413 114.769 5.49603 114.673 5.54827L114.427 5.37863L114.548 3.67773H116.557L116.494 4.19559H114.976L114.878 5.15541C114.981 5.07524 115.1 5.01747 115.226 4.98578C115.348 4.9558 115.472 4.94081 115.597 4.94113C115.905 4.92669 116.207 5.03413 116.436 5.24023C116.54 5.34477 116.621 5.46981 116.674 5.60739C116.727 5.74496 116.751 5.89206 116.744 6.03935C116.746 6.22007 116.711 6.39926 116.642 6.56613C116.574 6.72005 116.475 6.85835 116.351 6.97238C116.222 7.08988 116.07 7.17954 115.905 7.23577C115.724 7.29543 115.534 7.32559 115.343 7.32506C115.109 7.32854 114.878 7.2829 114.664 7.19112C114.48 7.11559 114.316 6.99784 114.186 6.84738L114.369 6.58846Z" fill="#C93112"/>
<path d="M141.624 42.7407C141.512 42.6528 141.389 42.5807 141.258 42.5264C141.116 42.4673 140.965 42.437 140.811 42.4371C140.598 42.4294 140.39 42.5046 140.231 42.6469C140.093 42.7959 140.014 42.9897 140.009 43.1924C140.003 43.3951 140.071 43.593 140.2 43.7496C140.267 43.8183 140.349 43.8717 140.439 43.9064C140.529 43.941 140.626 43.9561 140.722 43.9505C140.823 43.9506 140.924 43.9356 141.021 43.9058C141.126 43.875 141.228 43.8331 141.325 43.7808L141.57 43.9505L141.454 45.6514H139.441L139.503 45.1335H141.026L141.124 44.1737C141.022 44.255 140.903 44.3129 140.776 44.3433C140.655 44.3708 140.533 44.3858 140.409 44.388C140.1 44.4022 139.797 44.2948 139.566 44.0889C139.462 43.984 139.381 43.8589 139.328 43.7214C139.275 43.5839 139.251 43.437 139.258 43.2898C139.256 43.109 139.291 42.9299 139.36 42.763C139.427 42.6073 139.528 42.4684 139.655 42.3567C139.784 42.2388 139.936 42.1491 140.101 42.0933C140.283 42.0337 140.473 42.0035 140.664 42.004C140.898 42.001 141.131 42.0466 141.347 42.138C141.53 42.2147 141.694 42.3322 141.825 42.4817L141.624 42.7407Z" fill="#C93112"/>
<path d="M121.749 13.0586C120.945 11.8037 119.879 10.7376 118.624 9.93359C119.879 9.12955 120.945 8.06349 121.749 6.80859C122.553 8.06349 123.619 9.12955 124.874 9.93359C123.619 10.7376 122.553 11.8037 121.749 13.0586Z" fill="#C93112"/>
<path d="M134.249 13.0586C133.445 11.8037 132.379 10.7376 131.124 9.93359C132.379 9.12955 133.445 8.06349 134.249 6.80859C135.053 8.06349 136.119 9.12955 137.374 9.93359C136.119 10.7376 135.053 11.8037 134.249 13.0586Z" fill="#C93112"/>
<path d="M127.999 27.5684C127.195 26.3135 126.129 25.2474 124.874 24.4434C126.129 23.6393 127.195 22.5733 127.999 21.3184C128.803 22.5733 129.869 23.6393 131.124 24.4434C129.869 25.2474 128.803 26.3135 127.999 27.5684Z" fill="#C93112"/>
<path d="M124.874 39.3984C123.619 40.2025 122.553 41.2685 121.749 42.5234C120.945 41.2685 119.879 40.2025 118.624 39.3984C119.879 38.5944 120.945 37.5283 121.749 36.2734C122.553 37.5283 123.619 38.5944 124.874 39.3984Z" fill="#C93112"/>
<path d="M137.374 39.3984C136.119 40.2025 135.053 41.2685 134.249 42.5234C133.445 41.2685 132.379 40.2025 131.124 39.3984C132.379 38.5944 133.445 37.5283 134.249 36.2734C135.053 37.5283 136.119 38.5944 137.374 39.3984Z" fill="#C93112"/>
<g opacity="0.5">
<path d="M180.339 0H149.089C147.857 0 146.857 0.999364 146.857 2.23214V47.7679C146.857 49.0006 147.857 50 149.089 50H180.339C181.572 50 182.571 49.0006 182.571 47.7679V2.23214C182.571 0.999364 181.572 0 180.339 0Z" fill="#F9F1DF"/>
<path d="M153.582 10.2929C153.456 10.1686 153.286 10.0989 153.109 10.0989C152.932 10.0989 152.762 10.1686 152.636 10.2929L152.345 10.5831C152.406 10.3816 152.526 10.2028 152.689 10.0697C152.755 10.0084 152.808 9.93448 152.844 9.85234C152.881 9.7702 152.901 9.68153 152.902 9.59161C152.904 9.5017 152.887 9.41239 152.853 9.32901C152.82 9.24562 152.77 9.16988 152.706 9.10629C152.642 9.0427 152.567 8.99257 152.483 8.95889C152.4 8.92521 152.311 8.90867 152.221 8.91026C152.131 8.91185 152.042 8.93153 151.96 8.96813C151.878 9.00473 151.804 9.0575 151.743 9.12329C151.68 9.18516 151.63 9.25885 151.596 9.34008C151.562 9.42131 151.545 9.50847 151.545 9.5965C151.545 9.68454 151.562 9.7717 151.596 9.85293C151.63 9.93416 151.68 10.0078 151.743 10.0697C151.903 10.2045 152.021 10.3828 152.082 10.5831L151.796 10.2929C151.702 10.1998 151.583 10.1366 151.453 10.1112C151.324 10.0858 151.189 10.0994 151.067 10.1502C150.945 10.2011 150.841 10.2869 150.768 10.3969C150.694 10.5069 150.655 10.6362 150.655 10.7684C150.655 10.9006 150.694 11.0298 150.768 11.1398C150.841 11.2498 150.945 11.3357 151.067 11.3865C151.189 11.4374 151.324 11.4509 151.453 11.4256C151.583 11.4002 151.702 11.3369 151.796 11.2438L152.127 10.909C152.153 11.2978 152.025 11.6813 151.769 11.976V12.0831H152.662V11.976C152.406 11.6834 152.276 11.3015 152.301 10.9135V10.8867L152.636 11.2215C152.762 11.347 152.932 11.4173 153.11 11.4169C153.288 11.4164 153.459 11.3454 153.584 11.2193C153.71 11.0932 153.78 10.9224 153.78 10.7445C153.779 10.5666 153.708 10.3961 153.582 10.2706V10.2929Z" fill="#1F1F1F"/>
<path d="M175.85 39.7042C175.976 39.8286 176.146 39.8983 176.323 39.8983C176.5 39.8983 176.67 39.8286 176.796 39.7042L177.082 39.4141C177.021 39.6144 176.903 39.7927 176.743 39.9275C176.651 40.0195 176.588 40.1363 176.561 40.2637C176.534 40.3912 176.545 40.5236 176.592 40.6449C176.64 40.7661 176.721 40.8709 176.828 40.9465C176.934 41.0221 177.059 41.0651 177.189 41.0703C177.322 41.0711 177.452 41.0324 177.563 40.9591C177.673 40.8859 177.76 40.7814 177.811 40.6589C177.862 40.5364 177.876 40.4015 177.85 40.2713C177.825 40.141 177.761 40.0214 177.667 39.9275C177.504 39.7943 177.384 39.6156 177.323 39.4141L177.613 39.7042C177.707 39.7973 177.827 39.8606 177.956 39.886C178.086 39.9114 178.221 39.8978 178.343 39.8469C178.465 39.7961 178.569 39.7103 178.642 39.6003C178.716 39.4903 178.755 39.361 178.755 39.2288C178.755 39.0966 178.716 38.9673 178.642 38.8573C178.569 38.7473 178.465 38.6615 178.343 38.6107C178.221 38.5598 178.086 38.5462 177.956 38.5716C177.827 38.597 177.707 38.6602 177.613 38.7533L177.279 39.0882C177.265 38.8953 177.291 38.7016 177.353 38.5185C177.415 38.3354 177.512 38.1664 177.64 38.0212V37.9141H176.747V38.0212C176.874 38.1662 176.97 38.3346 177.032 38.5169C177.093 38.6992 177.118 38.8918 177.105 39.0837V39.1105L176.774 38.7757C176.648 38.6502 176.477 38.5799 176.299 38.5803C176.121 38.5807 175.951 38.6518 175.825 38.7779C175.7 38.904 175.63 39.0748 175.63 39.2527C175.631 39.4306 175.702 39.6011 175.828 39.7266L175.85 39.7042Z" fill="#1F1F1F"/>
<path d="M152.716 3.92411C152.678 3.92963 152.643 3.94864 152.618 3.97768C152.594 4.00654 152.583 4.04337 152.586 4.08036V6.54911C152.59 6.80758 152.572 7.06587 152.533 7.32143C152.509 7.51741 152.443 7.70606 152.341 7.875C152.233 8.03818 152.091 8.17662 151.926 8.28125C151.702 8.41371 151.465 8.52433 151.22 8.61161L151.073 8.30804C151.218 8.21647 151.354 8.11187 151.479 7.99554C151.58 7.90199 151.662 7.78981 151.72 7.66518C151.784 7.52388 151.825 7.3731 151.841 7.21875C151.862 7.02602 151.872 6.83227 151.872 6.63839V4.08036C151.874 4.0415 151.861 4.00343 151.836 3.97321C151.825 3.95889 151.811 3.94711 151.795 3.93864C151.779 3.93018 151.761 3.92523 151.743 3.92411L151.332 3.83929V3.53125H153.077V3.83929L152.716 3.92411Z" fill="#1F1F1F"/>
<path d="M176.711 46.0762C176.75 46.0707 176.784 46.0516 176.81 46.0226C176.833 45.9937 176.844 45.9569 176.841 45.9199V43.4512C176.839 43.1929 176.855 42.9348 176.89 42.6789C176.918 42.4831 176.985 42.2949 177.086 42.1253C177.195 41.9621 177.336 41.8237 177.502 41.719C177.725 41.5857 177.961 41.475 178.207 41.3887L178.354 41.6922C178.21 41.7838 178.074 41.8884 177.948 42.0047C177.846 42.0981 177.762 42.2103 177.703 42.3351C177.642 42.4775 177.603 42.6279 177.586 42.7815C177.563 42.9741 177.553 43.168 177.555 43.3619V45.9422C177.555 45.9803 177.566 46.0176 177.586 46.0494C177.599 46.0638 177.614 46.0757 177.631 46.0841C177.647 46.0925 177.666 46.0974 177.685 46.0985L178.095 46.1833V46.4914H176.35V46.1833L176.711 46.0762Z" fill="#1F1F1F"/>
<path d="M176.822 7.64766C176.698 7.5228 176.55 7.42374 176.387 7.35614C176.225 7.28854 176.05 7.25375 175.874 7.25375C175.697 7.25375 175.523 7.28854 175.36 7.35614C175.197 7.42374 175.05 7.5228 174.925 7.64766L174.354 8.22355C174.477 7.82243 174.715 7.46576 175.037 7.19677C175.224 7.00928 175.351 6.77063 175.402 6.51097C175.453 6.2513 175.426 5.98225 175.325 5.7378C175.223 5.49335 175.052 5.28445 174.832 5.1375C174.611 4.99054 174.353 4.91211 174.088 4.91211C173.823 4.91211 173.565 4.99054 173.344 5.1375C173.124 5.28445 172.953 5.49335 172.851 5.7378C172.75 5.98225 172.723 6.2513 172.774 6.51097C172.825 6.77063 172.953 7.00928 173.139 7.19677C173.462 7.46576 173.699 7.82243 173.822 8.22355L173.251 7.64766C173.064 7.46019 172.825 7.33247 172.565 7.28066C172.305 7.22885 172.036 7.25527 171.791 7.35659C171.546 7.45791 171.337 7.62957 171.19 7.84985C171.043 8.07013 170.964 8.32913 170.964 8.59409C170.964 8.85905 171.043 9.11805 171.19 9.33833C171.337 9.55861 171.546 9.73027 171.791 9.83159C172.036 9.93291 172.305 9.95933 172.565 9.90752C172.825 9.85571 173.064 9.72799 173.251 9.54052L173.912 8.8798V8.92891C173.939 9.31449 173.89 9.70172 173.767 10.0681C173.643 10.4344 173.448 10.7726 173.193 11.0628V11.2861H174.979V11.0628C174.466 10.4747 174.208 9.70732 174.26 8.92891C174.26 8.92891 174.26 8.90212 174.26 8.88427L174.921 9.54498C175.172 9.79658 175.512 9.93816 175.868 9.93858C176.223 9.939 176.564 9.79822 176.816 9.54721C177.067 9.29621 177.209 8.95553 177.209 8.60013C177.21 8.24473 177.069 7.90372 176.818 7.65212L176.822 7.64766Z" fill="#1F1F1F"/>
<path d="M158.072 42.3571C157.948 42.482 157.8 42.5811 157.637 42.6487C157.474 42.7163 157.3 42.7511 157.123 42.7511C156.947 42.7511 156.773 42.7163 156.61 42.6487C156.447 42.5811 156.299 42.482 156.175 42.3571L155.603 41.7812C155.727 42.1812 155.964 42.5365 156.286 42.8036C156.475 42.9906 156.604 43.2295 156.656 43.49C156.709 43.7504 156.683 44.0205 156.581 44.266C156.48 44.5115 156.307 44.7213 156.086 44.8687C155.865 45.0161 155.606 45.0944 155.34 45.0937C154.984 45.0917 154.643 44.9508 154.389 44.7009C154.264 44.5765 154.165 44.4286 154.098 44.2658C154.03 44.103 153.995 43.9285 153.995 43.7522C153.995 43.576 154.03 43.4014 154.098 43.2386C154.165 43.0758 154.264 42.928 154.389 42.8036C154.711 42.5365 154.949 42.1812 155.072 41.7812L154.501 42.3571C154.313 42.544 154.075 42.6711 153.815 42.7224C153.555 42.7737 153.286 42.7469 153.042 42.6454C152.797 42.5439 152.588 42.3722 152.441 42.1521C152.295 41.9319 152.216 41.6732 152.216 41.4085C152.216 41.1438 152.295 40.885 152.441 40.6649C152.588 40.4448 152.797 40.2731 153.042 40.1716C153.286 40.0701 153.555 40.0433 153.815 40.0946C154.075 40.1459 154.313 40.273 154.501 40.4598L155.161 41.125V41.0714C155.19 40.6865 155.14 40.2998 155.017 39.9342C154.894 39.5685 154.698 39.2311 154.443 38.942V38.7188H156.228V38.942C155.716 39.5284 155.457 40.2944 155.51 41.0714C155.51 41.0714 155.51 41.1027 155.51 41.1205L156.17 40.4554C156.422 40.2038 156.763 40.0624 157.119 40.0624C157.475 40.0624 157.816 40.2038 158.068 40.4554C158.319 40.707 158.461 41.0482 158.461 41.404C158.461 41.7598 158.319 42.1011 158.068 42.3527L158.072 42.3571Z" fill="#1F1F1F"/>
<path d="M178.996 35.7132H178.549V4.01674H156.674V3.57031H178.772L178.996 3.79353V35.7132ZM150.424 14.2846V46.2042L150.647 46.4275H172.746V45.981H150.871V14.2846H150.424Z" fill="#1F1F1F"/>
<path d="M167.273 43.8482C166.778 44.1387 166.221 44.307 165.648 44.3393C165.791 43.4732 166.657 42.6875 167.139 42.3125L167.273 43.8482Z" fill="#C93112"/>
<path d="M166.576 42.1981C166.044 42.6302 165.619 43.1805 165.335 43.8052L164.666 42.0195C165.289 42.1809 165.934 42.2412 166.576 42.1981Z" fill="#C93112"/>
<path d="M165.068 44.3571C164.088 44.308 163.139 43.9999 162.318 43.4643L164.21 42.0625L165.068 44.3571Z" fill="#C93112"/>
<path d="M162.371 42.8583C162.47 42.191 162.415 41.5099 162.21 40.8672C162.53 41.1057 162.871 41.3149 163.228 41.4922C163.255 41.4922 163.273 41.5279 163.299 41.5368C163.477 41.6233 163.659 41.7008 163.844 41.769L162.371 42.8583Z" fill="#C93112"/>
<path d="M161.835 43.0887C161.337 42.6797 160.971 42.1332 160.781 41.5173L161.639 40.5977C161.844 41.1244 162.183 42.2584 161.835 43.0887Z" fill="#C93112"/>
<path d="M167.13 41.4468C167.13 42.2236 163.152 41.7013 163.639 38.4022C163.898 36.5629 163.916 35.6432 162.987 35.1164C163.173 35.0722 163.368 35.0795 163.551 35.1377C163.733 35.1959 163.896 35.3028 164.023 35.4468C165.304 36.6566 163.456 39.3263 164.844 40.3129C165.399 40.7524 166.057 41.0442 166.755 41.1611C167.005 41.1879 167.139 41.3307 167.13 41.4468Z" fill="#CBBD9F"/>
<path d="M164.255 41.3566C162.023 40.6066 162.295 38.0084 163.095 35.7852C163.407 36.1959 163.398 36.8834 163.193 38.3387C163.105 38.8377 163.134 39.3502 163.276 39.8364C163.419 40.3226 163.671 40.7694 164.014 41.1423C164.09 41.2184 164.171 41.2899 164.255 41.3566Z" fill="#CBBD9F"/>
<path d="M162.353 40.2327C160.929 38.8086 161.384 36.6613 162.719 35.5273C162.344 36.5184 161.701 38.6702 162.353 40.2327Z" fill="#CBBD9F"/>
<path d="M172.38 19.8672V25.4208C172.082 25.4053 171.784 25.4053 171.487 25.4208C171.487 20.2868 171.487 22.0458 171.487 21.6618C171.719 20.8749 171.851 20.062 171.88 19.2422C172.021 19.2759 172.147 19.3557 172.237 19.4689C172.328 19.5821 172.378 19.7222 172.38 19.8672Z" fill="#CBBD9F"/>
<path d="M172.38 28.8223H171.487V36.7598H172.38V28.8223Z" fill="#CBBD9F"/>
<path d="M169.612 29.7852C169.496 31.5352 167.443 33.4459 165.201 34.5619C164.945 34.6837 164.702 34.8334 164.478 35.0084C164.71 33.7048 165.844 32.5887 168.398 31.1155C168.951 30.8346 169.383 30.3616 169.612 29.7852Z" fill="#2D6B67"/>
<path d="M165.086 32.9827C164.514 33.5405 164.136 34.2662 164.005 35.0541C163.772 34.8254 163.468 34.6837 163.142 34.6528C162.817 34.6219 162.492 34.7037 162.22 34.8845C160.889 34.462 159.669 33.7483 158.648 32.7952C158.595 31.1177 158.974 29.4547 159.746 27.9648C160.156 29.1752 160.858 30.266 161.789 31.1411C162.72 32.0162 163.852 32.6487 165.086 32.9827Z" fill="#C93112"/>
<path d="M169.273 29.4648C168.594 31.5631 165.648 31.2997 163.835 29.9381C165.714 29.0534 167.387 27.7851 168.746 26.2148C169.523 27.7773 169.469 28.8398 169.273 29.4648Z" fill="#C93112"/>
<path d="M167.023 31.4381C166.466 31.7924 165.938 32.1894 165.442 32.6256C164.16 32.3208 162.982 31.6769 162.033 30.7611C161.085 29.8454 160.4 28.6915 160.05 27.4202C160.366 26.865 160.728 26.3364 161.13 25.8398C161.199 26.8048 161.493 27.7403 161.987 28.572V28.5988C161.999 28.6187 162.014 28.6368 162.032 28.6523C162.542 29.4791 163.248 30.1675 164.087 30.6565C164.926 31.1455 165.873 31.4201 166.844 31.4559C166.907 31.4559 166.96 31.4381 167.023 31.4381Z" fill="#CBBD9F"/>
<path d="M167.88 24.6705C166.687 26.0177 165.259 27.137 163.666 27.9741L167.237 21.9473C167.663 22.7918 167.883 23.7248 167.88 24.6705Z" fill="#2D6B67"/>
<path d="M165.755 22.0352L162.184 28.053C161.755 27.2089 161.529 26.2765 161.523 25.3298C162.722 23.9836 164.156 22.8671 165.755 22.0352Z" fill="#C93112"/>
<path d="M170.764 17.207C170.816 18.8873 170.438 20.5531 169.666 22.0463C169.256 20.8363 168.556 19.7453 167.627 18.8689C166.697 17.9925 165.567 17.3575 164.335 17.0195C164.912 16.468 165.294 15.7443 165.424 14.957C165.655 15.1906 165.961 15.3349 166.288 15.3643C166.615 15.3937 166.942 15.3064 167.21 15.1177C168.536 15.5407 169.75 16.2545 170.764 17.207Z" fill="#2D6B67"/>
<path d="M169.38 22.5812C169.063 23.1364 168.702 23.665 168.3 24.1616C168.238 23.1939 167.94 22.256 167.434 21.4294V21.4026C166.941 20.6203 166.283 19.9557 165.505 19.4562C164.588 18.8557 163.512 18.5446 162.416 18.5633C162.967 18.2121 163.489 17.818 163.978 17.3848C165.262 17.686 166.442 18.3276 167.392 19.2419C168.343 20.1563 169.029 21.3098 169.38 22.5812Z" fill="#CBBD9F"/>
<path d="M164.969 14.9824C164.737 16.2949 163.603 17.4021 161.049 18.8753C160.485 19.1542 160.044 19.6309 159.808 20.2146C159.924 18.4646 161.987 16.5628 164.228 15.4378C164.492 15.316 164.741 15.1632 164.969 14.9824Z" fill="#C93112"/>
<path d="M165.585 20.0639C163.708 20.9516 162.036 22.2195 160.675 23.7871C159.898 22.2246 159.951 21.1621 160.148 20.5371C160.844 18.4255 163.795 18.7202 165.585 20.0639Z" fill="#2D6B67"/>
<path d="M157.951 28.3488C157.72 29.1392 157.585 29.9546 157.55 30.7773C157.441 30.7454 157.341 30.6906 157.255 30.6166C156.974 30.3532 157.05 30.5854 157.05 24.5898C157.192 24.5898 156.907 24.5898 157.942 24.5898V28.3309L157.951 28.3488Z" fill="#CBBD9F"/>
<path d="M157.942 13.2422H157.05V21.1886H157.942V13.2422Z" fill="#CBBD9F"/>
<path d="M166.71 14.4749C167.076 13.4838 167.728 11.3499 167.076 9.76953C168.456 11.1624 168.067 13.3142 166.71 14.4749Z" fill="#CBBD9F"/>
<path d="M166.327 14.216C166.023 13.8052 166.023 13.1177 166.228 11.6713C166.322 11.1716 166.297 10.657 166.156 10.1686C166.015 9.68014 165.761 9.23158 165.416 8.85882C165.337 8.78267 165.253 8.71113 165.166 8.64453C165.353 8.71596 165.541 8.78739 165.719 8.87667C167.621 9.95703 166.8 12.9481 166.327 14.216Z" fill="#CBBD9F"/>
<path d="M166.443 14.894C166.255 14.9362 166.06 14.927 165.878 14.8672C165.696 14.8075 165.533 14.6995 165.407 14.5547C164.117 13.3583 165.983 10.6886 164.576 9.68862C164.026 9.24812 163.371 8.95883 162.675 8.84933C162.135 8.77344 162.152 8.30915 162.8 8.24219C164.791 8.24219 166.059 9.70647 165.791 11.6083C165.523 13.51 165.505 14.3583 166.443 14.894Z" fill="#CBBD9F"/>
<path d="M168.639 8.4827L167.781 9.41127C167.585 8.86663 167.264 7.7327 167.585 6.90234C168.087 7.31116 168.454 7.86193 168.639 8.4827Z" fill="#C93112"/>
<path d="M167.219 9.12444C166.87 8.88715 166.506 8.67243 166.13 8.48158C165.96 8.40123 165.773 8.32087 165.594 8.24944L167.067 7.16016C166.967 7.81793 167.019 8.4898 167.219 9.12444Z" fill="#C93112"/>
<path d="M167.094 6.5452L165.219 7.94699L164.362 5.65234C165.335 5.70649 166.277 6.01431 167.094 6.5452Z" fill="#C93112"/>
<path d="M164.755 7.99219C164.191 7.8547 163.612 7.7887 163.032 7.79576C163.032 7.79576 162.894 7.79576 162.844 7.79576C163.378 7.35827 163.805 6.80578 164.095 6.17969L164.755 7.99219Z" fill="#C93112"/>
<path d="M163.782 5.66016C163.63 6.52623 162.773 7.32087 162.291 7.68694L162.157 6.15123C162.651 5.85931 163.209 5.69086 163.782 5.66016Z" fill="#C93112"/>
<path d="M163.027 11.0007C163.027 11.1659 163.027 11.1659 163.027 11.3356C163.027 11.3948 163.004 11.4515 162.962 11.4934C162.92 11.5353 162.863 11.5588 162.804 11.5588C162.775 11.5594 162.746 11.5541 162.719 11.5434C162.692 11.5327 162.667 11.5167 162.647 11.4963C162.626 11.4759 162.609 11.4516 162.598 11.4248C162.587 11.3979 162.581 11.3691 162.581 11.34C162.581 11.1704 162.581 11.1704 162.581 11.0052C162.58 10.9759 162.585 10.9467 162.596 10.9194C162.607 10.8921 162.623 10.8672 162.643 10.846C162.663 10.8249 162.688 10.808 162.715 10.7962C162.741 10.7845 162.77 10.7781 162.8 10.7775C162.859 10.7775 162.917 10.8009 162.959 10.8426C163.002 10.8844 163.026 10.9411 163.027 11.0007ZM176.166 36.3445C175.973 36.6551 175.731 36.9312 175.447 37.1614H175.193L174.121 36.4472V36.0677C174.371 35.9293 174.518 35.7597 174.389 35.5052C174.268 35.3056 174.092 35.1449 173.882 35.0421C173.673 34.9393 173.438 34.8986 173.206 34.9248C173.171 34.937 173.14 34.957 173.114 34.9834C173.089 35.0097 173.07 35.0416 173.059 35.0766C173.018 35.1927 173.027 35.1793 173.027 36.9784L172.804 37.2016H171.465L171.242 36.9784V35.2686C171.248 35.1829 171.22 35.0982 171.166 35.032C171.046 34.9482 170.907 34.8967 170.761 34.8827C170.616 34.8686 170.469 34.8923 170.335 34.9516L170.05 34.8222C169.684 33.8534 169.697 33.8847 169.697 33.8757C169.686 33.852 169.68 33.8261 169.68 33.7998C169.68 33.7736 169.686 33.7477 169.697 33.7239C169.697 33.7239 169.697 33.7239 170.05 32.7775L170.335 32.6436C170.464 32.6989 170.603 32.7233 170.743 32.7147C170.883 32.7062 171.018 32.665 171.139 32.5945C171.174 32.5609 171.202 32.5199 171.22 32.4743C171.238 32.4288 171.245 32.3799 171.242 32.3311V30.2641C170.962 30.1275 170.708 29.9432 170.492 29.7195C170.434 31.5856 168.541 33.2909 166.965 34.3132C167.376 34.349 167.742 34.4873 167.858 34.8891C167.974 35.2909 167.8 35.5989 167.983 35.7284C168.012 35.749 168.036 35.7764 168.053 35.8082C168.069 35.8401 168.078 35.8755 168.078 35.9115C168.078 35.9474 168.069 35.9828 168.053 36.0147C168.036 36.0465 168.012 36.0739 167.983 36.0945C168.104 36.1195 168.22 36.1648 168.326 36.2284C168.349 36.2473 168.367 36.2704 168.38 36.2964C168.394 36.3224 168.401 36.3508 168.403 36.38C168.406 36.4091 168.402 36.4383 168.392 36.466C168.383 36.4936 168.368 36.5191 168.349 36.5409C168.291 36.6079 168.21 36.6123 168.13 36.7909C168.085 36.9031 168.062 37.0228 168.063 37.1436L168.46 37.2597L168.581 37.6034C168.276 37.9757 168.031 38.3928 167.853 38.84C167.715 39.2507 168.018 39.4427 168.018 39.9516C167.994 40.3284 167.861 40.6899 167.634 40.9918C167.718 41.0841 167.773 41.1982 167.794 41.3208C167.814 41.4434 167.799 41.5694 167.751 41.6838L167.996 41.8713L168.17 43.9293L168.076 44.1347C165.675 45.7731 161.349 44.1704 160.768 41.4561L160.822 41.2597L161.893 40.1034C161.721 39.8681 161.58 39.6115 161.474 39.34C161.241 38.6339 161.213 37.876 161.395 37.155C161.577 36.434 161.96 35.7797 162.501 35.2686C161.765 35.0413 161.059 34.7265 160.398 34.3311C159.126 33.592 158.072 32.5291 157.344 31.2507C157.075 31.2138 156.829 31.0801 156.652 30.8747C156.474 30.6692 156.377 30.4062 156.38 30.1347V24.5543C156.068 24.5125 155.783 24.3528 155.585 24.1079C155.521 23.9996 155.483 23.8775 155.475 23.7517C155.468 23.6259 155.49 23.5 155.541 23.3847C155.431 23.2662 155.361 23.1163 155.341 22.9562C155.321 22.796 155.352 22.6336 155.429 22.4918C155.363 22.3693 155.331 22.231 155.337 22.0918C155.344 21.9526 155.388 21.8177 155.465 21.7016C155.282 21.2954 155.55 20.7463 156.358 20.6614V17.6436C156.358 17.4025 156.264 17.2686 156.018 17.2686C155.527 17.2686 154.733 17.84 155.009 18.2329C155.077 18.3201 155.164 18.3904 155.264 18.4382V18.8222L154.197 19.5364H153.938C153.668 19.2996 153.437 19.0207 153.255 18.7106C152.798 17.9478 152.556 17.0753 152.556 16.186C152.556 15.2968 152.798 14.4242 153.255 13.6614C153.446 13.3497 153.689 13.0733 153.974 12.8445H154.233L155.3 13.5588V13.9427C155.2 13.9906 155.113 14.0608 155.045 14.1481C154.684 14.6659 156.166 15.4873 156.362 14.9293C156.407 14.8177 156.393 14.8266 156.393 13.032L156.617 12.8088H157.956L158.179 13.032V14.7329C158.174 14.8184 158.201 14.9028 158.255 14.9695C158.376 15.053 158.516 15.1038 158.662 15.1171C158.809 15.1304 158.956 15.1057 159.09 15.0454L159.376 15.1748C159.737 16.1481 159.728 16.1168 159.728 16.1257C159.746 16.1748 159.746 16.2285 159.728 16.2775C159.728 16.2775 159.728 16.2507 159.376 17.2239L159.09 17.3534C158.96 17.298 158.82 17.274 158.679 17.2833C158.539 17.2926 158.403 17.335 158.282 17.407C158.246 17.4395 158.218 17.4797 158.2 17.5246C158.183 17.5694 158.175 17.6178 158.179 17.6659V19.7552C158.459 19.8904 158.712 20.0732 158.929 20.2954C158.987 18.4338 160.88 16.7239 162.46 15.7016C162.045 15.6704 161.679 15.532 161.568 15.1257C161.456 14.7195 161.621 14.4159 161.438 14.2864C161.409 14.2664 161.384 14.2394 161.368 14.2079C161.351 14.1764 161.342 14.1413 161.342 14.1056C161.342 14.07 161.351 14.0349 161.368 14.0034C161.384 13.9719 161.409 13.9449 161.438 13.9248C161.329 13.8971 161.223 13.8597 161.121 13.8132C161.089 13.7927 161.062 13.7643 161.044 13.7307C161.025 13.6972 161.016 13.6595 161.016 13.6213C161.016 13.583 161.025 13.5454 161.044 13.5118C161.062 13.4783 161.089 13.4499 161.121 13.4293C161.2 13.3608 161.262 13.2745 161.302 13.1776C161.341 13.0806 161.357 12.9756 161.349 12.8713L160.951 12.7552L160.831 12.4159C161.141 12.0401 161.391 11.6184 161.572 11.1659C161.612 11.0426 161.612 10.9098 161.572 10.7864C161.426 10.5016 161.367 10.1797 161.405 9.86161C161.442 9.54356 161.573 9.24386 161.782 9.00073C161.697 8.91021 161.641 8.797 161.619 8.67492C161.598 8.55283 161.612 8.42716 161.661 8.31324L161.42 8.12127L161.242 6.06323L161.34 5.86234C163.751 4.21502 168.067 5.86234 168.643 8.51413L168.59 8.71502L167.541 9.86234C167.923 10.4095 168.143 11.054 168.174 11.721C168.205 12.388 168.045 13.0501 167.715 13.6302C167.513 14.0277 167.247 14.3895 166.929 14.7016C168.337 15.1549 169.626 15.9176 170.701 16.9338C171.252 17.4643 171.719 18.0754 172.085 18.7463C172.352 18.782 172.597 18.9135 172.775 19.1163C172.952 19.3191 173.05 19.5795 173.05 19.8489V25.4695C173.361 25.5138 173.644 25.6731 173.844 25.9159C173.91 26.0238 173.948 26.146 173.956 26.272C173.964 26.398 173.941 26.524 173.889 26.6391C173.998 26.7576 174.068 26.9075 174.088 27.0676C174.108 27.2278 174.078 27.3902 174.001 27.532C174.068 27.6534 174.1 27.7912 174.094 27.9299C174.088 28.0686 174.043 28.2029 173.965 28.3177C174.148 28.7239 173.88 29.2731 173.072 29.3623V32.3623C173.07 32.4512 173.091 32.5391 173.134 32.6168C173.335 32.9204 174.126 32.6168 174.393 32.1704C174.541 31.9472 174.527 31.7239 174.166 31.5454V31.1659L175.237 30.4472H175.492C175.776 30.676 176.02 30.9524 176.21 31.2641C176.667 32.0345 176.904 32.9151 176.896 33.8105C176.888 34.706 176.636 35.5822 176.166 36.3445ZM158.166 15.965H159.184L159.014 15.5186C158.731 15.5877 158.433 15.5626 158.166 15.4472V15.965ZM158.166 16.9293C158.434 16.8154 158.731 16.7919 159.014 16.8623L159.184 16.4159H158.166V16.9293ZM171.259 34.0409H170.242L170.411 34.4873C170.694 34.4183 170.992 34.4434 171.259 34.5588V34.0409ZM171.259 33.0722C170.992 33.1876 170.694 33.2127 170.411 33.1436L170.242 33.59H171.259V33.0722ZM171.706 25.407C172.451 25.407 172.465 25.407 172.599 25.407V19.8668C172.6 19.7204 172.552 19.5778 172.463 19.4614C172.374 19.3451 172.249 19.2615 172.108 19.2239C172.076 20.0617 171.941 20.8924 171.706 21.6972V25.407ZM162.969 28.5945C163.231 28.9813 163.541 29.3324 163.893 29.6391C168.179 27.6659 171.639 23.5811 171.666 18.9248C171.415 18.4725 171.116 18.0489 170.773 17.6614C170.706 22.407 167.251 26.5364 162.969 28.5945ZM169.844 25.407H171.259V22.9472C170.884 23.819 170.409 24.6445 169.844 25.407ZM167.862 24.1704C168.262 23.6712 168.622 23.1412 168.938 22.5856C168.589 21.3096 167.902 20.1517 166.948 19.2345C165.995 18.3174 164.811 17.6751 163.523 17.3757C163.034 17.8112 162.512 18.2068 161.96 18.5588C163.05 18.5477 164.118 18.8583 165.032 19.4516C165.844 19.957 166.525 20.6486 167.017 21.4691C167.509 22.2897 167.799 23.2156 167.862 24.1704ZM162.126 19.0007C161.702 18.9727 161.279 19.0556 160.898 19.2412C160.517 19.4267 160.19 19.7085 159.951 20.0588C159.282 21.157 159.679 22.6347 160.255 23.7864C161.619 22.2194 163.291 20.9491 165.166 20.0543C164.288 19.3922 163.224 19.0236 162.126 19.0007ZM166.777 21.9427L163.206 27.9739C164.803 27.1408 166.234 26.0227 167.429 24.6748C167.432 23.7252 167.209 22.7885 166.777 21.9427ZM166.21 22.032C164.613 22.8624 163.181 23.9791 161.987 25.3266C161.981 26.2755 162.201 27.2122 162.63 28.0588L166.21 22.032ZM161.563 25.8356C161.164 26.3355 160.805 26.8654 160.487 27.4204C160.835 28.6935 161.52 29.8492 162.47 30.7654C163.42 31.6816 164.6 32.3243 165.884 32.6257C166.373 32.1894 166.897 31.7951 167.451 31.4472C166.361 31.4581 165.291 31.1475 164.376 30.5543C163.566 30.0472 162.889 29.3548 162.4 28.5343C161.911 27.7138 161.624 26.7888 161.563 25.8356ZM169.496 29.9427C170.166 28.8489 169.773 27.3668 169.193 26.2195C167.829 27.7876 166.158 29.0581 164.282 29.9516C165.155 30.6091 166.212 30.9761 167.304 31.0007C167.73 31.0342 168.158 30.9539 168.543 30.768C168.928 30.5821 169.257 30.2973 169.496 29.9427ZM166.773 15.1213C166.503 15.3051 166.178 15.3904 165.853 15.3628C165.528 15.3351 165.222 15.1962 164.987 14.9695C164.854 15.7446 164.481 16.4583 163.92 17.0097C165.149 17.3472 166.277 17.9813 167.204 18.8561C168.131 19.731 168.829 20.82 169.237 22.0275C169.997 20.5367 170.37 18.8788 170.322 17.2061C169.307 16.258 168.095 15.5461 166.773 15.1213ZM166.009 11.6704C165.862 12.3916 165.834 13.1319 165.925 13.8623C165.958 13.9956 166.018 14.1204 166.103 14.2284C166.773 12.3847 167.197 9.82216 165.478 8.87127C165.317 8.79075 165.152 8.71921 164.983 8.65698C165.396 9.03033 165.708 9.50306 165.887 10.0304C166.067 10.5577 166.109 11.1222 166.009 11.6704ZM163.023 8.24627C162.874 8.23676 162.725 8.23676 162.576 8.24627C162.398 8.24627 162.152 8.3177 162.072 8.47841C162.053 8.52063 162.048 8.56808 162.058 8.61332C162.069 8.65856 162.094 8.69904 162.13 8.72841C162.407 8.98734 162.867 8.64806 164.362 9.6927C165.764 10.6838 163.916 13.3445 165.188 14.5588C165.314 14.702 165.476 14.8087 165.658 14.8676C165.839 14.9265 166.033 14.9355 166.219 14.8936C166.03 14.797 165.865 14.6583 165.737 14.4881C165.609 14.3178 165.522 14.1206 165.483 13.9114C165.391 13.1437 165.421 12.3662 165.572 11.6079C165.64 11.2198 165.629 10.822 165.539 10.4384C165.449 10.0548 165.283 9.69331 165.05 9.37573C164.805 9.06104 164.499 8.79885 164.151 8.6048C163.803 8.41075 163.419 8.28881 163.023 8.24627ZM167.335 9.42038L168.193 8.48288C168.008 7.85509 167.637 7.29792 167.13 6.88466C166.835 7.63913 167.063 8.67038 167.335 9.42038ZM166.844 9.7552C167.443 11.1525 167.009 13.0945 166.474 14.5052C166.855 14.1687 167.163 13.7572 167.378 13.2963C167.593 12.8354 167.711 12.3351 167.724 11.8266C167.732 11.0793 167.444 10.3591 166.925 9.82216L166.844 9.7552ZM166.773 9.1302C166.563 8.49484 166.502 7.81972 166.594 7.15699L165.139 8.23288C165.585 8.39359 165.675 8.47395 165.679 8.46502C166.064 8.65227 166.43 8.87496 166.773 9.1302ZM163.916 5.64806L164.773 7.94716L166.648 6.54984C165.832 6.01389 164.89 5.7028 163.916 5.64806ZM162.416 7.79984C162.621 7.78661 162.827 7.78661 163.032 7.79984C163.462 7.82606 163.889 7.88727 164.309 7.98288L163.652 6.22395C163.365 6.83614 162.942 7.375 162.416 7.79984ZM161.844 7.68823C162.478 7.20163 163.224 6.4427 163.353 5.65252C162.773 5.68569 162.209 5.85877 161.71 6.15698L161.844 7.68823ZM162.693 15.2507C163.382 15.2051 164.031 14.9062 164.514 14.4114C163.728 12.9561 165.059 10.7418 164.099 10.0543C163.547 9.61275 162.884 9.33028 162.184 9.23734C162.139 9.29984 162.103 9.36234 162.072 9.41591C162.022 9.54378 162.011 9.68364 162.041 9.8177C162.166 10.0766 163.273 9.74627 163.786 10.3847C163.823 10.4309 163.839 10.4897 163.833 10.5483C163.826 10.6068 163.797 10.6603 163.751 10.6972C163.728 10.7161 163.702 10.7303 163.674 10.7389C163.646 10.7476 163.617 10.7506 163.588 10.7477C163.559 10.7448 163.53 10.736 163.505 10.722C163.479 10.7079 163.456 10.6889 163.438 10.6659C163.117 10.2686 162.353 10.4963 161.907 10.2775C162.066 10.5907 162.104 10.9514 162.014 11.2909C161.868 11.6923 161.658 12.0676 161.393 12.4025L161.951 12.5677C162.173 12.6358 162.372 12.7623 162.527 12.9338C162.684 13.1324 162.82 13.3463 162.934 13.5722L162.992 13.5186C163.033 13.4777 163.089 13.4548 163.148 13.4548C163.206 13.4548 163.262 13.4777 163.304 13.5186C163.325 13.5393 163.342 13.564 163.353 13.5912C163.364 13.6184 163.37 13.6476 163.37 13.6771C163.37 13.7065 163.364 13.7357 163.353 13.7629C163.342 13.7901 163.325 13.8148 163.304 13.8356C163.253 13.8907 163.194 13.9388 163.13 13.9784C163.07 14.0165 163 14.0368 162.929 14.0368C162.858 14.0368 162.788 14.0165 162.728 13.9784C162.411 13.7909 162.407 13.1614 161.809 12.9829C161.796 13.1623 161.743 13.3365 161.652 13.4918C161.769 13.5069 161.888 13.5069 162.005 13.4918C162.064 13.4877 162.123 13.5072 162.167 13.5461C162.212 13.5851 162.24 13.6402 162.244 13.6994C162.248 13.7586 162.228 13.817 162.19 13.8618C162.151 13.9066 162.095 13.9341 162.036 13.9382C161.679 13.965 161.746 13.8713 161.862 14.0364C162.13 14.4204 161.862 14.9293 162.094 15.1079C162.278 15.2057 162.484 15.2548 162.693 15.2507ZM159.367 20.1882C159.603 19.6109 160.045 19.1416 160.608 18.8713C161.501 18.3777 162.345 17.8007 163.13 17.1481C163.827 16.6094 164.318 15.8485 164.523 14.9918C164.295 15.1679 164.048 15.3176 163.786 15.4382C162.942 15.8426 162.154 16.3559 161.443 16.965C160.501 17.7775 159.46 18.9516 159.367 20.1882ZM156.826 21.1838H157.719V13.2463H156.826V21.1838ZM156.38 16.8891V16.4114H154.742V16.8579C154.74 16.9167 154.717 16.9728 154.675 17.0144C154.633 17.0561 154.577 17.0799 154.518 17.0811C154.459 17.0811 154.402 17.0576 154.361 17.0157C154.319 16.9739 154.295 16.9171 154.295 16.8579V16.4114H153.626C153.566 16.4114 153.51 16.3879 153.468 16.3461C153.426 16.3042 153.402 16.2474 153.402 16.1882C153.402 16.129 153.426 16.0723 153.468 16.0304C153.51 15.9885 153.566 15.965 153.626 15.965H154.295V15.5186C154.295 15.4594 154.319 15.4026 154.361 15.3608C154.402 15.3189 154.459 15.2954 154.518 15.2954C154.578 15.2954 154.634 15.3189 154.676 15.3608C154.718 15.4026 154.742 15.4594 154.742 15.5186V15.965H156.38V15.4829C155.487 15.8445 153.88 14.59 154.791 13.7463L154.13 13.2998C152.63 14.7016 152.643 17.6748 154.13 19.0677L154.791 18.6213C154.708 18.5511 154.642 18.4643 154.596 18.3666C154.55 18.2688 154.525 18.1624 154.523 18.0543C154.527 17.3088 155.706 16.6123 156.38 16.8891ZM157.05 24.1481H159.916C159.418 23.2772 159.151 22.2938 159.139 21.2909C158.898 20.873 158.566 20.5157 158.166 20.2463V21.4293L157.943 21.6525H156.603L156.38 21.4293V21.1213C156.285 21.1256 156.193 21.1493 156.107 21.1907C156.022 21.2322 155.946 21.2906 155.884 21.3623C155.809 21.4873 155.884 21.6034 156.018 21.6838C156.076 21.7146 156.138 21.7371 156.201 21.7507C156.485 21.8115 156.773 21.8414 157.063 21.84C157.122 21.84 157.179 21.8635 157.221 21.9054C157.263 21.9473 157.286 22.004 157.286 22.0632C157.286 22.1224 157.263 22.1792 157.221 22.2211C157.179 22.2629 157.122 22.2864 157.063 22.2864C156.628 22.3043 156.194 22.2282 155.791 22.0632C155.78 22.1142 155.782 22.1669 155.795 22.2172C155.808 22.2675 155.833 22.3141 155.867 22.3534C156.007 22.5003 156.196 22.5908 156.398 22.6079C156.545 22.6322 156.695 22.6442 156.844 22.6436C156.903 22.6436 156.96 22.6671 157.002 22.709C157.044 22.7508 157.067 22.8076 157.067 22.8668C157.067 22.926 157.044 22.9828 157.002 23.0246C156.96 23.0665 156.903 23.09 156.844 23.09C156.48 23.104 156.117 23.0257 155.791 22.8623C155.788 22.9037 155.794 22.9452 155.808 22.9843C155.822 23.0233 155.843 23.0593 155.871 23.09C156.077 23.282 156.341 23.3999 156.621 23.4248C156.68 23.4248 156.737 23.4484 156.779 23.4902C156.821 23.5321 156.844 23.5889 156.844 23.6481C156.844 23.7073 156.821 23.764 156.779 23.8059C156.737 23.8478 156.68 23.8713 156.621 23.8713C156.38 23.8478 156.146 23.7765 155.934 23.6614C155.924 23.7026 155.924 23.7453 155.934 23.7864C155.94 23.8178 155.953 23.8474 155.971 23.8735C155.99 23.8996 156.013 23.9217 156.041 23.9382C156.352 24.098 156.701 24.1705 157.05 24.1481ZM158.166 24.5945V27.0588C158.54 26.185 159.015 25.358 159.581 24.5945H158.166ZM157.719 24.5945C156.992 24.5945 156.969 24.5945 156.826 24.5945V30.1347C156.821 30.2858 156.867 30.4343 156.957 30.5559C157.047 30.6775 157.176 30.7651 157.322 30.8043C157.35 29.9665 157.483 29.1355 157.719 28.3311V24.5945ZM166.456 21.4293C166.196 21.0442 165.887 20.6945 165.536 20.3891C161.251 22.3579 157.791 26.4472 157.759 31.1034C158.009 31.555 158.309 31.9772 158.652 32.3623C158.719 27.59 162.184 23.4606 166.456 21.4293ZM162.657 34.907C162.926 34.7215 163.251 34.6352 163.577 34.6629C163.903 34.6906 164.209 34.8305 164.443 35.0588C164.577 34.2829 164.95 33.5683 165.509 33.0141C164.279 32.679 163.149 32.0459 162.221 31.1707C161.293 30.2956 160.595 29.2053 160.188 27.9963C159.425 29.4862 159.052 31.1448 159.103 32.8177C160.121 33.7597 161.335 34.4654 162.657 34.8847V34.907ZM163.42 38.3579C163.573 37.6362 163.608 36.8943 163.523 36.1614C163.49 36.0305 163.43 35.9075 163.349 35.7998C162.675 37.6391 162.251 40.2016 163.969 41.157C164.134 41.2329 164.3 41.3043 164.469 41.3713C164.048 40.9981 163.73 40.5227 163.547 39.991C163.363 39.4592 163.319 38.8891 163.42 38.3356V38.3579ZM166.402 41.782C166.657 41.782 166.742 41.782 166.849 41.782C167.027 41.782 167.295 41.7106 167.353 41.5498C167.373 41.5078 167.379 41.4601 167.368 41.4147C167.358 41.3692 167.332 41.3287 167.295 41.2998C167.023 41.0409 166.559 41.3757 165.09 40.3311C163.621 39.2864 165.536 36.6838 164.259 35.465C164.134 35.321 163.972 35.2137 163.79 35.1548C163.609 35.0958 163.414 35.0873 163.228 35.1302C163.416 35.2267 163.58 35.3637 163.708 35.5312C163.836 35.6988 163.925 35.8927 163.969 36.099C164.059 36.8653 164.029 37.641 163.88 38.3981C163.811 38.7861 163.822 39.1841 163.912 39.5678C164.002 39.9515 164.168 40.313 164.402 40.6302C164.643 40.9426 164.944 41.2035 165.288 41.3975C165.631 41.5915 166.01 41.7147 166.402 41.7597V41.782ZM162.09 40.6079L161.233 41.5186C161.417 42.1475 161.79 42.7051 162.3 43.1168C162.59 42.3668 162.367 41.3311 162.09 40.5856V40.6079ZM162.581 40.2731C161.987 38.8757 162.42 36.9293 162.951 35.5186C162.571 35.8561 162.264 36.2678 162.049 36.7285C161.834 37.1892 161.716 37.689 161.701 38.1972C161.703 38.936 161.989 39.6458 162.501 40.1793L162.581 40.2731ZM162.657 40.8981C162.865 41.5337 162.925 42.2089 162.831 42.8713L164.291 41.7909C163.844 41.6302 163.751 41.5498 163.746 41.5588C163.362 41.3657 162.998 41.137 162.657 40.8757V40.8981ZM165.514 44.3802L164.657 42.0766L162.764 43.4784C163.587 44.0087 164.536 44.3121 165.514 44.3579V44.3802ZM167.009 42.2284C166.804 42.242 166.599 42.242 166.393 42.2284C165.965 42.2037 165.54 42.1439 165.121 42.0498L165.777 43.8088C166.059 43.1867 166.481 42.6382 167.009 42.2061V42.2284ZM167.585 42.3356C166.947 42.8266 166.201 43.5856 166.072 44.3757C166.652 44.3438 167.216 44.1706 167.715 43.8713L167.585 42.3356ZM166.737 34.7731C166.045 34.8184 165.394 35.119 164.911 35.6168C165.701 37.0722 164.362 39.282 165.331 39.9739C165.886 40.4181 166.554 40.6994 167.259 40.7864L167.371 40.6079C167.417 40.479 167.427 40.3404 167.402 40.2061C167.273 39.9472 166.166 40.282 165.657 39.6391C165.638 39.6165 165.624 39.5903 165.616 39.5621C165.608 39.534 165.605 39.5045 165.608 39.4753C165.612 39.4461 165.621 39.418 165.635 39.3924C165.65 39.3669 165.669 39.3445 165.692 39.3266C165.739 39.2901 165.798 39.2734 165.856 39.2801C165.915 39.2868 165.968 39.3163 166.005 39.3623C166.322 39.7597 167.085 39.5275 167.536 39.7507C167.376 39.4365 167.337 39.0737 167.429 38.7329C167.573 38.3314 167.781 37.9559 168.045 37.6213L167.487 37.4606C167.266 37.3924 167.067 37.266 166.911 37.0945C166.754 36.8971 166.62 36.683 166.509 36.4561C166.488 36.4695 166.468 36.4861 166.451 36.5052C166.431 36.5261 166.406 36.5427 166.379 36.5541C166.352 36.5654 166.322 36.5712 166.293 36.5712C166.263 36.5712 166.234 36.5654 166.207 36.5541C166.18 36.5427 166.155 36.5261 166.134 36.5052C166.094 36.4635 166.071 36.4074 166.071 36.3489C166.071 36.2905 166.094 36.2344 166.134 36.1927C166.186 36.1361 166.246 36.0879 166.313 36.0498C166.373 36.0127 166.443 35.9931 166.514 35.9931C166.585 35.9931 166.654 36.0127 166.715 36.0498C167.032 36.2418 167.032 36.8713 167.63 37.0498C167.646 36.8711 167.699 36.6977 167.786 36.5409C167.671 36.5252 167.554 36.5252 167.438 36.5409C167.409 36.543 167.379 36.5392 167.351 36.5299C167.324 36.5206 167.298 36.5059 167.276 36.4866C167.253 36.4673 167.235 36.4439 167.222 36.4176C167.209 36.3913 167.201 36.3626 167.199 36.3333C167.197 36.304 167.201 36.2746 167.21 36.2467C167.22 36.2188 167.234 36.1931 167.254 36.1709C167.273 36.1487 167.296 36.1306 167.323 36.1175C167.349 36.1043 167.377 36.0965 167.407 36.0945C167.759 36.0945 167.697 36.1659 167.581 35.9963C167.309 35.6123 167.581 35.1034 167.344 34.9248C167.161 34.8143 166.951 34.7542 166.737 34.7507V34.7731ZM170.059 29.8623C169.825 30.4389 169.384 30.9071 168.822 31.1748C167.926 31.666 167.081 32.2447 166.3 32.9025C165.602 33.4391 165.109 34.1985 164.902 35.0543C165.132 34.8804 165.379 34.7307 165.639 34.6079C166.487 34.1892 167.277 33.6609 167.987 33.0364C168.929 32.2284 169.965 31.0498 170.059 29.8177V29.8623ZM172.599 28.8623H171.706V36.7597H172.599V28.8623ZM173.045 28.6391V28.9516C173.14 28.9386 173.233 28.9146 173.322 28.8802C173.599 28.7597 173.67 28.5588 173.407 28.3891C173.071 28.2755 172.717 28.2211 172.362 28.2284C172.303 28.2284 172.246 28.2049 172.204 28.163C172.162 28.1212 172.139 28.0644 172.139 28.0052C172.14 27.9464 172.164 27.8902 172.206 27.8486C172.247 27.807 172.303 27.7831 172.362 27.782C172.797 27.767 173.231 27.843 173.634 28.0052C173.647 27.92 173.632 27.8331 173.591 27.7574C173.55 27.6817 173.485 27.6214 173.407 27.5856C173.149 27.4706 172.868 27.4171 172.585 27.4293C172.526 27.4293 172.469 27.4058 172.428 27.3639C172.386 27.3221 172.362 27.2653 172.362 27.2061C172.362 27.1469 172.386 27.0901 172.428 27.0483C172.469 27.0064 172.526 26.9829 172.585 26.9829C172.952 26.9672 173.316 27.0456 173.643 27.2106C173.64 27.1353 173.616 27.0624 173.574 26.9995C173.532 26.9367 173.475 26.8862 173.407 26.8534C173.226 26.7396 173.021 26.6693 172.809 26.6481C172.749 26.6481 172.693 26.6245 172.651 26.5827C172.609 26.5408 172.585 26.484 172.585 26.4248C172.585 26.3656 172.609 26.3089 172.651 26.267C172.693 26.2251 172.749 26.2016 172.809 26.2016C173.053 26.2166 173.292 26.2835 173.509 26.3981C173.514 26.3268 173.498 26.2557 173.465 26.1927C173.392 26.1108 173.298 26.0505 173.192 26.0186C172.93 25.9292 172.653 25.8884 172.376 25.8981H169.509C170.008 26.7686 170.277 27.7519 170.291 28.7552C170.53 29.1729 170.861 29.5303 171.259 29.7998V28.6391L171.483 28.4159H172.822L173.045 28.6391ZM175.277 30.9784L174.617 31.4248C175.509 32.2775 173.902 33.5231 173.023 33.1659V33.6436H174.684V33.1972C174.684 33.138 174.707 33.0812 174.749 33.0393C174.791 32.9975 174.848 32.9739 174.907 32.9739C174.966 32.9739 175.023 32.9975 175.065 33.0393C175.106 33.0812 175.13 33.138 175.13 33.1972V33.6436H175.8C175.859 33.6436 175.916 33.6671 175.957 33.709C175.999 33.7508 176.023 33.8076 176.023 33.8668C176.022 33.9256 175.998 33.9818 175.956 34.0234C175.915 34.065 175.858 34.0889 175.8 34.09H175.13V34.5365C175.129 34.5953 175.105 34.6514 175.063 34.693C175.022 34.7346 174.966 34.7585 174.907 34.7597C174.848 34.7597 174.791 34.7361 174.749 34.6943C174.707 34.6524 174.684 34.5956 174.684 34.5365V34.09H173.041V34.5677C173.934 34.2061 175.536 35.4606 174.634 36.3088L175.295 36.7552C176.791 35.3043 176.791 32.3266 175.3 30.9338L175.277 30.9784ZM171.384 19.2909L170.938 19.2016L170.849 19.6481L171.295 19.7329L171.384 19.2909ZM164.862 28.0766L165.108 28.4516L165.483 28.2106L165.242 27.8356L164.862 28.0766ZM165.969 27.3177L166.246 27.6704L166.599 27.3936L166.322 27.0409L165.969 27.3177ZM167.309 26.7864L167.634 26.4784L167.326 26.1525L167.001 26.4606L167.309 26.7864ZM170.139 23.1838L169.751 22.9695L169.532 23.3579L169.92 23.5766L170.139 23.1838ZM170.719 21.9248L170.304 21.7552C170.201 22.0141 170.237 21.9159 170.134 22.1704L170.55 22.3356L170.719 21.9248ZM168.581 25.4695L168.246 25.1748L167.947 25.5097L168.286 25.8043L168.581 25.4695ZM169.42 24.3713L169.059 24.1123L168.8 24.4739L169.161 24.7329L169.42 24.3713ZM171.134 20.5989L170.688 20.4829C170.617 20.7552 170.643 20.6525 170.572 20.9293L171.018 21.0454L171.134 20.5989ZM163.71 28.7418L163.925 29.1347L164.318 28.9159L164.099 28.5275L163.71 28.7418ZM166.648 39.2239C166.707 39.2239 166.764 39.2004 166.806 39.1586C166.848 39.1167 166.871 39.0599 166.871 39.0007C166.871 38.8311 166.871 38.8311 166.871 38.6659C166.87 38.6063 166.845 38.5495 166.803 38.5078C166.76 38.4661 166.703 38.4427 166.643 38.4427C166.614 38.4433 166.585 38.4496 166.558 38.4614C166.531 38.4731 166.507 38.4901 166.487 38.5112C166.467 38.5324 166.451 38.5573 166.44 38.5846C166.429 38.6119 166.424 38.6411 166.425 38.6704C166.425 38.8356 166.425 38.8356 166.425 39.0052C166.425 39.0343 166.43 39.0631 166.442 39.09C166.453 39.1168 166.469 39.1411 166.49 39.1615C166.511 39.1819 166.536 39.1979 166.563 39.2086C166.59 39.2193 166.619 39.2245 166.648 39.2239ZM158.041 30.8043L158.487 30.8489L158.527 30.4025L158.081 30.3623L158.041 30.8043ZM159.268 26.84L159.657 27.0588L159.876 26.6659L159.505 26.4293L159.268 26.84ZM159.987 25.657L160.353 25.9159L160.612 25.5498L160.246 25.2909L159.987 25.657ZM158.273 29.4293L158.719 29.5454C158.786 29.2909 158.764 29.3713 158.835 29.0989L158.389 28.9829L158.273 29.4293ZM158.693 28.09L159.103 28.2597L159.273 27.8445L158.862 27.6748L158.693 28.09ZM164.545 21.9382L164.304 21.5588L163.925 21.8043L164.17 22.1793L164.545 21.9382ZM163.438 22.6972L163.166 22.3222L162.813 22.5989L163.085 22.9516L163.438 22.6972ZM160.844 24.5543L161.179 24.8489L161.474 24.5097L161.139 24.215L160.844 24.5543ZM162.117 23.215L161.791 23.5231L162.094 23.8489L162.42 23.5409L162.117 23.215ZM165.733 21.2552L165.514 20.8668L165.126 21.0811L165.34 21.4739L165.733 21.2552Z" fill="#1F1F1F"/>
</g>
</svg>
