<svg width="183" height="50" viewBox="0 0 183 50" fill="none" xmlns="http://www.w3.org/2000/svg">
<path d="M33.4821 0H2.23214C0.999364 0 0 0.999364 0 2.23214V47.7679C0 49.0006 0.999364 50 2.23214 50H33.4821C34.7149 50 35.7143 49.0006 35.7143 47.7679V2.23214C35.7143 0.999364 34.7149 0 33.4821 0Z" fill="#F9F1DF"/>
<path d="M5.35645 11.9414C4.95442 11.314 4.42139 10.7809 3.79395 10.3789C4.42139 9.97688 4.95442 9.44385 5.35645 8.81641C5.75967 9.44289 6.29247 9.97568 6.91895 10.3789C6.29247 10.7821 5.75967 11.3149 5.35645 11.9414Z" fill="#C93112"/>
<path d="M30.3566 37.3887C30.7598 38.0152 31.2926 38.5479 31.9191 38.9512C31.2926 39.3544 30.7598 39.8872 30.3566 40.5137C29.9545 39.8862 29.4215 39.3532 28.7941 38.9512C29.4215 38.5491 29.9545 38.0161 30.3566 37.3887Z" fill="#C93112"/>
<path d="M6.58914 6.21812C6.58954 6.37334 6.55281 6.52641 6.482 6.66454C6.40628 6.79923 6.30461 6.91758 6.18289 7.01276C6.04973 7.11606 5.89827 7.19331 5.73646 7.24044C5.56302 7.29431 5.38237 7.32141 5.20075 7.32079C4.96462 7.32609 4.73013 7.28041 4.51325 7.18687C4.33977 7.1107 4.17992 7.00664 4.04004 6.87883L4.21861 6.62437C4.33453 6.70357 4.46069 6.76666 4.59361 6.81187C4.73722 6.86159 4.88806 6.88722 5.04003 6.88776C5.1382 6.88849 5.23595 6.87496 5.33022 6.84758C5.41926 6.82643 5.5029 6.78689 5.57575 6.73151C5.64583 6.67663 5.70235 6.60637 5.74093 6.52615C5.78795 6.43044 5.81093 6.32471 5.80789 6.21812C5.81442 6.13279 5.80311 6.04705 5.77467 5.96635C5.74623 5.88564 5.70129 5.81175 5.64272 5.74937C5.52469 5.62634 5.3661 5.55021 5.19629 5.53508C5.13167 5.55353 5.0661 5.56843 4.99986 5.57973L4.80343 5.6199L4.71861 5.294C4.8424 5.26834 4.96349 5.23097 5.08022 5.1824C5.18478 5.14139 5.28377 5.0874 5.37486 5.02169C5.45534 4.96246 5.52357 4.88817 5.57575 4.80294C5.62628 4.71626 5.65249 4.61755 5.65165 4.51722C5.65142 4.45709 5.63904 4.39762 5.61526 4.34239C5.59148 4.28715 5.55678 4.23729 5.51325 4.19579C5.46431 4.1501 5.40669 4.1147 5.34381 4.09169C5.28092 4.06869 5.21406 4.05855 5.14718 4.06187C4.99943 4.06233 4.85452 4.1024 4.72754 4.17793C4.6067 4.24584 4.49683 4.33164 4.40165 4.4324L4.19182 4.22705C4.29966 4.04224 4.45345 3.88846 4.63825 3.78062C4.97471 3.59485 5.37059 3.54837 5.74093 3.65115C5.85673 3.68314 5.96567 3.7361 6.06236 3.8074C6.15477 3.87456 6.23102 3.9615 6.28557 4.06187C6.3409 4.17105 6.3685 4.29218 6.36593 4.41455C6.36683 4.52573 6.3424 4.63564 6.2945 4.73597C6.24984 4.8354 6.18787 4.9261 6.11147 5.00383C6.036 5.08313 5.95045 5.15218 5.857 5.2092C5.76855 5.2619 5.67414 5.30386 5.57575 5.3342C5.69045 5.33203 5.80481 5.34707 5.91504 5.37883C6.02913 5.41168 6.13646 5.46459 6.232 5.53508C6.32904 5.61011 6.40959 5.70433 6.46861 5.81186C6.54441 5.93406 6.58604 6.07435 6.58914 6.21812Z" fill="#C93112"/>
<path d="M29.1299 43.1108C29.1295 42.9556 29.1662 42.8025 29.237 42.6644C29.3098 42.5289 29.4102 42.4103 29.5317 42.3161C29.6653 42.2136 29.8166 42.1365 29.9781 42.0885C30.1515 42.0346 30.3322 42.0075 30.5138 42.0081C30.7499 42.0036 30.9842 42.0493 31.2013 42.142C31.3744 42.219 31.5341 42.3229 31.6745 42.4501L31.496 42.7045C31.3795 42.6262 31.2535 42.5632 31.121 42.517C30.9773 42.4676 30.8265 42.442 30.6745 42.4411C30.5749 42.4407 30.4757 42.4542 30.3799 42.4813C30.2919 42.5016 30.2095 42.5413 30.1388 42.5974C30.0673 42.652 30.0093 42.7223 29.9692 42.8028C29.9263 42.8999 29.9035 43.0046 29.9022 43.1108C29.8932 43.2827 29.9526 43.4512 30.0674 43.5795C30.1861 43.7016 30.3443 43.7775 30.5138 43.7938L30.7102 43.7447L30.9067 43.709L30.996 44.0349C30.8718 44.0592 30.7506 44.0966 30.6343 44.1465C30.5279 44.1864 30.4273 44.2404 30.3352 44.3072C30.2572 44.3678 30.1907 44.4419 30.1388 44.526C30.0883 44.6126 30.0621 44.7114 30.0629 44.8117C30.0609 44.8721 30.0722 44.9323 30.0962 44.9879C30.1201 45.0434 30.156 45.093 30.2013 45.1331C30.2493 45.1789 30.3061 45.2144 30.3683 45.2374C30.4305 45.2604 30.4967 45.2705 30.5629 45.267C30.7196 45.2706 30.8742 45.2304 31.0093 45.151C31.1294 45.0819 31.2391 44.9962 31.3352 44.8965L31.5451 45.1019C31.4357 45.2855 31.2822 45.4389 31.0986 45.5483C30.8799 45.6724 30.6313 45.7342 30.3799 45.7269C30.2486 45.7272 30.1178 45.7092 29.9915 45.6733C29.8764 45.6395 29.7677 45.5867 29.6701 45.517C29.579 45.4497 29.5042 45.3627 29.4513 45.2626C29.396 45.1534 29.3684 45.0323 29.371 44.9099C29.3708 44.7993 29.3936 44.6898 29.4379 44.5885C29.4858 44.4909 29.5475 44.4007 29.621 44.3206C29.6964 44.2413 29.782 44.1723 29.8754 44.1153C29.9658 44.0633 30.0616 44.0214 30.1611 43.9903C30.0464 43.9928 29.932 43.9777 29.8219 43.9456C29.7054 43.9131 29.5963 43.8585 29.5004 43.7849C29.4038 43.7112 29.3233 43.6185 29.2638 43.5126C29.184 43.393 29.1378 43.2543 29.1299 43.1108Z" fill="#C93112"/>
<path d="M16.9824 15.1133C15.9364 13.4825 14.5507 12.0968 12.9199 11.0508C14.5507 10.0048 15.9364 8.61904 16.9824 6.98828C18.0284 8.61904 19.4142 10.0048 21.0449 11.0508C19.4142 12.0968 18.0284 13.4825 16.9824 15.1133Z" fill="#C93112"/>
<path d="M16.9824 28.5059C15.9364 26.8751 14.5507 25.4894 12.9199 24.4434C14.5507 23.3974 15.9364 22.0116 16.9824 20.3809C18.0284 22.0116 19.4142 23.3974 21.0449 24.4434C19.4142 25.4894 18.0284 26.8751 16.9824 28.5059Z" fill="#C93112"/>
<path d="M21.0447 38.2832C19.4139 39.3292 18.0282 40.7149 16.9822 42.3457C15.9362 40.7149 14.5504 39.3292 12.9197 38.2832C14.5504 37.2372 15.9362 35.8515 16.9822 34.2207C18.0282 35.8515 19.4139 37.2372 21.0447 38.2832Z" fill="#C93112"/>
<path d="M70.1964 0H38.9464C37.7136 0 36.7142 0.999364 36.7142 2.23214V47.7679C36.7142 49.0006 37.7136 50 38.9464 50H70.1964C71.4292 50 72.4285 49.0006 72.4285 47.7679V2.23214C72.4285 0.999364 71.4292 0 70.1964 0Z" fill="#F9F1DF"/>
<path d="M42.0714 8.65234C41.8303 9.26395 40.6205 9.49163 40.6205 10.4381C40.6244 10.5916 40.6734 10.7405 40.7614 10.8663C40.8495 10.9921 40.9726 11.0892 41.1155 11.1454C41.2584 11.2016 41.4147 11.2144 41.5648 11.1823C41.715 11.1502 41.8524 11.0746 41.9598 10.9648C41.939 11.2673 41.8162 11.5537 41.6116 11.7773V11.8845H42.5044V11.7773C42.2997 11.5537 42.177 11.2673 42.1562 10.9648C42.2636 11.0746 42.401 11.1502 42.5511 11.1823C42.7013 11.2144 42.8576 11.2016 43.0004 11.1454C43.1433 11.0892 43.2665 10.9921 43.3545 10.8663C43.4426 10.7405 43.4916 10.5916 43.4955 10.4381C43.5223 9.49163 42.3124 9.26395 42.0714 8.65234Z" fill="#1F1F1F"/>
<path d="M67.0714 40.9021C67.3125 40.2905 68.5223 40.0628 68.5223 39.1163C68.5184 38.9628 68.4694 38.8139 68.3814 38.6881C68.2933 38.5623 68.1701 38.4652 68.0273 38.409C67.8844 38.3528 67.7281 38.34 67.5779 38.3721C67.4278 38.4042 67.2904 38.4798 67.183 38.5896C67.2038 38.2871 67.3265 38.0007 67.5312 37.7771V37.6699H66.6384V37.7771C66.843 38.0007 66.9658 38.2871 66.9866 38.5896C66.8792 38.4798 66.7418 38.4042 66.5917 38.3721C66.4415 38.34 66.2852 38.3528 66.1423 38.409C65.9994 38.4652 65.8763 38.5623 65.7882 38.6881C65.7002 38.8139 65.6512 38.9628 65.6473 39.1163C65.6205 40.0628 66.8303 40.2905 67.0714 40.9021Z" fill="#1F1F1F"/>
<path d="M43.5044 6.69587H42.9642V7.36551H42.2946V6.69587H40.7321L40.558 6.35659C40.8124 5.95034 41.058 5.52623 41.2946 5.09319C41.5312 4.66016 41.7633 4.20033 41.9821 3.75391H42.6071L42.7008 3.90569C42.5357 4.21373 42.3839 4.49497 42.2544 4.74051C42.125 4.98605 41.9821 5.21372 41.8571 5.41015C41.7452 5.59257 41.623 5.76846 41.491 5.93694C41.3805 6.08226 41.258 6.21814 41.125 6.34319L42.3169 6.29409L42.3839 5.4548L42.9553 5.42354V6.24944L43.5178 6.22712L43.5044 6.69587Z" fill="#1F1F1F"/>
<path d="M65.6339 42.8571H66.2008V42.1875H66.8482V42.8571H68.4107L68.5848 43.1964C68.3303 43.6027 68.0848 44.0268 67.8482 44.4598C67.6116 44.8929 67.3794 45.3527 67.1562 45.7991H66.5357L66.4419 45.6473C66.6071 45.3393 66.7589 45.058 66.8883 44.8125C67.0178 44.567 67.1607 44.3393 67.2857 44.1429C67.3976 43.9604 67.5198 43.7846 67.6517 43.6161C67.7623 43.4708 67.8847 43.3349 68.0178 43.2098L66.8258 43.2589L66.7589 44.0982L66.1874 44.1295V43.3036H65.6205L65.6339 42.8571Z" fill="#1F1F1F"/>
<path d="M48.3211 6.36133C47.8345 7.59347 45.4193 8.0399 45.4193 9.93276C45.4193 10.3472 45.5839 10.7446 45.877 11.0376C46.17 11.3306 46.5674 11.4953 46.9818 11.4953C47.1974 11.4957 47.4106 11.4505 47.6076 11.3628C47.8045 11.2751 47.9807 11.1468 48.1247 10.9863C48.0896 11.5927 47.8432 12.1677 47.4282 12.6113V12.8345H49.214V12.6113C48.8002 12.1683 48.5526 11.5957 48.5131 10.9908C48.7262 11.2214 49.0039 11.3824 49.31 11.4528C49.616 11.5232 49.9362 11.4998 50.2287 11.3856C50.5212 11.2714 50.7725 11.0717 50.9499 10.8125C51.1272 10.5534 51.2224 10.2468 51.2229 9.93276C51.2229 8.03544 48.8032 7.58901 48.3211 6.36133Z" fill="#1F1F1F"/>
<path d="M60.8211 6.36133C60.3345 7.59347 57.9193 8.0399 57.9193 9.93276C57.9193 10.3472 58.0839 10.7446 58.377 11.0376C58.67 11.3306 59.0674 11.4953 59.4818 11.4953C59.6974 11.4957 59.9106 11.4505 60.1076 11.3628C60.3045 11.2751 60.4807 11.1468 60.6247 10.9863C60.5896 11.5927 60.3432 12.1677 59.9282 12.6113V12.8345H61.714V12.6113C61.3002 12.1683 61.0526 11.5957 61.0131 10.9908C61.2262 11.2214 61.5039 11.3824 61.81 11.4528C62.116 11.5232 62.4362 11.4998 62.7287 11.3856C63.0212 11.2714 63.2725 11.0717 63.4499 10.8125C63.6272 10.5534 63.7224 10.2468 63.7229 9.93276C63.7229 8.03544 61.3032 7.58901 60.8211 6.36133Z" fill="#1F1F1F"/>
<path d="M48.3212 43.5619C47.79 42.2226 45.1293 41.7093 45.1293 39.6289C45.1293 39.4032 45.1737 39.1797 45.2601 38.9712C45.3465 38.7626 45.4731 38.5732 45.6327 38.4136C45.7923 38.254 45.9817 38.1274 46.1903 38.041C46.3988 37.9546 46.6223 37.9102 46.848 37.9102C47.0856 37.9106 47.3204 37.9608 47.5372 38.0577C47.7541 38.1546 47.9482 38.296 48.1069 38.4727C48.0628 37.8071 47.7918 37.1768 47.3391 36.6869V36.4414H49.3034V36.6869C48.8501 37.1764 48.5789 37.8069 48.5355 38.4727C48.7691 38.218 49.0741 38.0399 49.4107 37.9616C49.7472 37.8834 50.0996 37.9086 50.4215 38.0341C50.7435 38.1596 51.02 38.3795 51.2148 38.6649C51.4096 38.9502 51.5136 39.2878 51.5132 39.6334C51.5132 41.7093 48.8525 42.2048 48.3212 43.5619Z" fill="#1F1F1F"/>
<path d="M60.8211 43.192C60.3345 41.9598 57.9193 41.5134 57.9193 39.6205C57.9193 39.2061 58.0839 38.8087 58.377 38.5157C58.67 38.2227 59.0674 38.058 59.4818 38.058C59.6974 38.0576 59.9106 38.1028 60.1076 38.1905C60.3045 38.2782 60.4807 38.4065 60.6247 38.567C60.5896 37.9605 60.3432 37.3856 59.9282 36.942V36.7188H61.714V36.942C61.3002 37.385 61.0526 37.9576 61.0131 38.5625C61.2262 38.3319 61.5039 38.1709 61.81 38.1005C62.116 38.0301 62.4362 38.0535 62.7287 38.1677C63.0212 38.2819 63.2725 38.4816 63.4499 38.7408C63.6272 38.9999 63.7224 39.3065 63.7229 39.6205C63.7229 41.5179 61.3032 41.9643 60.8211 43.192Z" fill="#1F1F1F"/>
<path d="M106.911 0H75.6607C74.428 0 73.4286 0.999364 73.4286 2.23214V47.7679C73.4286 49.0006 74.428 50 75.6607 50H106.911C108.144 50 109.143 49.0006 109.143 47.7679V2.23214C109.143 0.999364 108.144 0 106.911 0Z" fill="#F9F1DF"/>
<path d="M80.1504 10.2949C80.0243 10.1706 79.8543 10.1009 79.6772 10.1009C79.5001 10.1009 79.3301 10.1706 79.204 10.2949L78.9138 10.5851C78.9748 10.3835 79.0945 10.2048 79.2576 10.0717C79.3234 10.0104 79.3761 9.93644 79.4127 9.85429C79.4493 9.77215 79.469 9.68348 79.4706 9.59357C79.4722 9.50365 79.4556 9.41434 79.422 9.33096C79.3883 9.24758 79.3382 9.17183 79.2746 9.10824C79.211 9.04466 79.1352 8.99453 79.0519 8.96085C78.9685 8.92717 78.8792 8.91063 78.7893 8.91221C78.6993 8.9138 78.6107 8.93348 78.5285 8.97008C78.4464 9.00668 78.3724 9.05945 78.3111 9.12524C78.2485 9.18711 78.1988 9.2608 78.1649 9.34203C78.1309 9.42326 78.1134 9.51042 78.1134 9.59846C78.1134 9.68649 78.1309 9.77365 78.1649 9.85488C78.1988 9.93611 78.2485 10.0098 78.3111 10.0717C78.4714 10.2065 78.5893 10.3848 78.6504 10.5851L78.3647 10.2949C78.2708 10.2018 78.1515 10.1386 78.0218 10.1132C77.892 10.0878 77.7577 10.1013 77.6356 10.1522C77.5136 10.203 77.4093 10.2889 77.336 10.3989C77.2626 10.5089 77.2235 10.6381 77.2235 10.7703C77.2235 10.9025 77.2626 11.0318 77.336 11.1418C77.4093 11.2518 77.5136 11.3376 77.6356 11.3885C77.7577 11.4393 77.892 11.4529 78.0218 11.4275C78.1515 11.4021 78.2708 11.3389 78.3647 11.2458L78.6951 10.911C78.7214 11.2998 78.593 11.6833 78.3379 11.9779V12.0851H79.2308V11.9779C78.9748 11.6853 78.8448 11.3034 78.8692 10.9154V10.8886L79.204 11.2235C79.2664 11.2856 79.3405 11.3348 79.422 11.3684C79.5034 11.4019 79.5907 11.419 79.6788 11.4188C79.7669 11.4186 79.8541 11.4011 79.9354 11.3671C80.0167 11.3332 80.0905 11.2837 80.1527 11.2212C80.2148 11.1588 80.264 11.0847 80.2976 11.0033C80.3311 10.9218 80.3482 10.8345 80.348 10.7464C80.3478 10.6583 80.3303 10.5712 80.2964 10.4898C80.2625 10.4085 80.2129 10.3347 80.1504 10.2726V10.2949Z" fill="#1F1F1F"/>
<path d="M102.418 39.7042C102.544 39.8286 102.714 39.8983 102.891 39.8983C103.068 39.8983 103.238 39.8286 103.365 39.7042L103.65 39.4141C103.589 39.6144 103.471 39.7927 103.311 39.9275C103.218 40.0208 103.154 40.1397 103.128 40.2691C103.102 40.3985 103.115 40.5327 103.165 40.6548C103.215 40.7769 103.3 40.8815 103.41 40.9554C103.519 41.0294 103.648 41.0693 103.78 41.0703C103.913 41.0711 104.042 41.0324 104.153 40.9591C104.264 40.8859 104.35 40.7814 104.402 40.6589C104.453 40.5364 104.466 40.4015 104.441 40.2713C104.415 40.141 104.351 40.0214 104.257 39.9275C104.094 39.7943 103.975 39.6156 103.914 39.4141L104.204 39.7042C104.298 39.7973 104.417 39.8606 104.547 39.886C104.677 39.9114 104.811 39.8978 104.933 39.8469C105.055 39.7961 105.159 39.7103 105.233 39.6003C105.306 39.4903 105.345 39.361 105.345 39.2288C105.345 39.0966 105.306 38.9673 105.233 38.8573C105.159 38.7473 105.055 38.6615 104.933 38.6107C104.811 38.5598 104.677 38.5462 104.547 38.5716C104.417 38.597 104.298 38.6602 104.204 38.7533L103.869 39.0882C103.856 38.8953 103.881 38.7016 103.943 38.5185C104.005 38.3354 104.103 38.1664 104.231 38.0212V37.9141H103.338V38.0212C103.464 38.1662 103.561 38.3346 103.622 38.5169C103.683 38.6992 103.708 38.8918 103.695 39.0837V39.1105L103.365 38.7757C103.239 38.6502 103.068 38.5799 102.89 38.5803C102.712 38.5807 102.541 38.6518 102.416 38.7779C102.29 38.904 102.22 39.0748 102.221 39.2527C102.221 39.4306 102.292 39.6011 102.418 39.7266V39.7042Z" fill="#1F1F1F"/>
<path d="M77.6556 6.92578C77.7731 7.01565 77.9023 7.08924 78.0395 7.14453C78.1811 7.20303 78.3327 7.23335 78.4859 7.23382C78.6978 7.24127 78.9044 7.16602 79.0618 7.024C79.1395 6.95047 79.2002 6.8608 79.2395 6.76131C79.2789 6.66181 79.2959 6.5549 79.2895 6.4481C79.2968 6.25497 79.2297 6.06642 79.102 5.92132C79.0348 5.8519 78.9532 5.79796 78.863 5.76327C78.7728 5.72857 78.6761 5.71395 78.5797 5.72042C78.4783 5.72026 78.3775 5.73531 78.2806 5.76507C78.1753 5.79593 78.0735 5.83783 77.977 5.89007L77.7315 5.72042L77.8386 4.01953H79.8475L79.785 4.53739H78.2627L78.1645 5.49721C78.2675 5.41704 78.3861 5.35926 78.5127 5.32757C78.6339 5.29759 78.7584 5.2826 78.8833 5.28292C79.1914 5.26848 79.4929 5.37593 79.7225 5.58203C79.8265 5.68657 79.9076 5.8116 79.9606 5.94917C80.0137 6.08675 80.0375 6.23386 80.0306 6.38114C80.0322 6.56186 79.9973 6.74106 79.9279 6.90792C79.859 7.06254 79.7604 7.20209 79.6377 7.31864C79.506 7.43158 79.3547 7.51935 79.1913 7.57757C79.0098 7.63723 78.8199 7.66738 78.6288 7.66685C78.3957 7.67033 78.1645 7.6247 77.9502 7.53292C77.7662 7.45739 77.6026 7.33964 77.4725 7.18917L77.6556 6.92578Z" fill="#1F1F1F"/>
<path d="M104.91 43.0766C104.799 42.9887 104.675 42.9166 104.544 42.8623C104.403 42.8033 104.251 42.7729 104.098 42.773C103.884 42.7653 103.676 42.8405 103.517 42.9828C103.44 43.0564 103.379 43.146 103.34 43.2455C103.3 43.345 103.283 43.4519 103.29 43.5587C103.282 43.7519 103.35 43.9404 103.477 44.0855C103.545 44.1542 103.627 44.2077 103.717 44.2423C103.807 44.277 103.903 44.292 104 44.2864C104.101 44.2866 104.202 44.2715 104.299 44.2418C104.404 44.2109 104.506 44.169 104.602 44.1168L104.848 44.2864L104.732 45.9873H102.718L102.781 45.4695H104.303L104.401 44.5096C104.299 44.591 104.18 44.6489 104.053 44.6793C103.933 44.709 103.81 44.724 103.687 44.7239C103.378 44.7381 103.075 44.6308 102.843 44.4248C102.739 44.3203 102.658 44.1952 102.605 44.0577C102.552 43.9201 102.528 43.773 102.535 43.6257C102.534 43.445 102.568 43.2658 102.638 43.0989C102.707 42.9432 102.807 42.8034 102.933 42.6882C103.064 42.5748 103.215 42.487 103.379 42.4293C103.56 42.3696 103.75 42.3395 103.941 42.34C104.176 42.3369 104.409 42.3825 104.625 42.4739C104.808 42.5506 104.971 42.6682 105.102 42.8177L104.91 43.0766Z" fill="#1F1F1F"/>
<path d="M87.7664 9.4331C87.5153 9.18229 87.1749 9.04142 86.82 9.04142C86.4651 9.04142 86.1247 9.18229 85.8735 9.4331L85.2977 10.009C85.4212 9.60787 85.6585 9.25119 85.9807 8.98221C86.1682 8.79497 86.2959 8.55633 86.3477 8.29649C86.3995 8.03665 86.3731 7.76728 86.2718 7.52246C86.1704 7.27764 85.9988 7.06838 85.7785 6.92114C85.5582 6.7739 85.2992 6.69531 85.0343 6.69531C84.7693 6.69531 84.5103 6.7739 84.29 6.92114C84.0697 7.06838 83.8981 7.27764 83.7968 7.52246C83.6954 7.76728 83.669 8.03665 83.7208 8.29649C83.7726 8.55633 83.9004 8.79497 84.0878 8.98221C84.4074 9.25353 84.6441 9.60938 84.7709 10.009L84.195 9.4331C84.0077 9.24563 83.7691 9.11791 83.5093 9.0661C83.2494 9.01429 82.98 9.04071 82.7352 9.14203C82.4904 9.24335 82.2811 9.41501 82.1339 9.63529C81.9867 9.85557 81.9081 10.1146 81.9081 10.3795C81.9081 10.6445 81.9867 10.9035 82.1339 11.1238C82.2811 11.344 82.4904 11.5157 82.7352 11.617C82.98 11.7183 83.2494 11.7448 83.5093 11.693C83.7691 11.6411 84.0077 11.5134 84.195 11.326L84.8557 10.6652V10.7143C84.8845 11.0997 84.8361 11.4868 84.7135 11.8533C84.5908 12.2197 84.3963 12.5579 84.1414 12.8483V13.0715H85.9271V12.8483C85.6722 12.5577 85.4775 12.2195 85.3541 11.8533C85.2307 11.487 85.1812 11.0999 85.2084 10.7143V10.6697L85.8735 11.3304C86.1274 11.567 86.4632 11.6958 86.8102 11.6897C87.1572 11.6835 87.4882 11.543 87.7336 11.2976C87.979 11.0522 88.1195 10.7212 88.1256 10.3742C88.1318 10.0272 88.003 9.69145 87.7664 9.43756V9.4331Z" fill="#1F1F1F"/>
<path d="M100.266 9.4331C100.015 9.18229 99.6749 9.04142 99.32 9.04142C98.9651 9.04142 98.6247 9.18229 98.3735 9.4331L97.7977 10.009C97.9212 9.60787 98.1585 9.25119 98.4807 8.98221C98.6682 8.79497 98.7959 8.55633 98.8477 8.29649C98.8995 8.03665 98.8731 7.76728 98.7718 7.52246C98.6704 7.27764 98.4988 7.06838 98.2785 6.92114C98.0582 6.7739 97.7992 6.69531 97.5343 6.69531C97.2693 6.69531 97.0103 6.7739 96.79 6.92114C96.5697 7.06838 96.3981 7.27764 96.2968 7.52246C96.1954 7.76728 96.169 8.03665 96.2208 8.29649C96.2726 8.55633 96.4004 8.79497 96.5878 8.98221C96.9074 9.25353 97.1441 9.60938 97.2709 10.009L96.695 9.4331C96.5077 9.24563 96.2691 9.11791 96.0093 9.0661C95.7494 9.01429 95.48 9.04071 95.2352 9.14203C94.9904 9.24335 94.7811 9.41501 94.6339 9.63529C94.4867 9.85557 94.4081 10.1146 94.4081 10.3795C94.4081 10.6445 94.4867 10.9035 94.6339 11.1238C94.7811 11.344 94.9904 11.5157 95.2352 11.617C95.48 11.7183 95.7494 11.7448 96.0093 11.693C96.2691 11.6411 96.5077 11.5134 96.695 11.326L97.3557 10.6652V10.7143C97.3845 11.0997 97.3361 11.4868 97.2135 11.8533C97.0908 12.2197 96.8963 12.5579 96.6414 12.8483V13.0715H98.4271V12.8483C98.1722 12.5577 97.9775 12.2195 97.8541 11.8533C97.7307 11.487 97.6812 11.0999 97.7084 10.7143V10.6697L98.3735 11.3304C98.6274 11.567 98.9632 11.6958 99.3102 11.6897C99.6572 11.6835 99.9882 11.543 100.234 11.2976C100.479 11.0522 100.62 10.7212 100.626 10.3742C100.632 10.0272 100.503 9.69145 100.266 9.43756V9.4331Z" fill="#1F1F1F"/>
<path d="M94.0164 23.9429C93.7653 23.6921 93.4249 23.5512 93.07 23.5512C92.7151 23.5512 92.3747 23.6921 92.1235 23.9429L91.5477 24.5188C91.6712 24.1176 91.9085 23.761 92.2307 23.492C92.4182 23.3047 92.5459 23.0661 92.5977 22.8063C92.6495 22.5464 92.6231 22.277 92.5218 22.0322C92.4204 21.7874 92.2488 21.5781 92.0285 21.4309C91.8082 21.2837 91.5492 21.2051 91.2843 21.2051C91.0193 21.2051 90.7603 21.2837 90.54 21.4309C90.3197 21.5781 90.1481 21.7874 90.0468 22.0322C89.9454 22.277 89.919 22.5464 89.9708 22.8063C90.0226 23.0661 90.1504 23.3047 90.3378 23.492C90.6574 23.7633 90.8941 24.1191 91.0209 24.5188L90.445 23.9429C90.2577 23.7554 90.0191 23.6277 89.7593 23.5759C89.4994 23.5241 89.23 23.5505 88.9852 23.6518C88.7404 23.7531 88.5311 23.9248 88.3839 24.1451C88.2367 24.3653 88.1581 24.6243 88.1581 24.8893C88.1581 25.1542 88.2367 25.4133 88.3839 25.6335C88.5311 25.8538 88.7404 26.0255 88.9852 26.1268C89.23 26.2281 89.4994 26.2545 89.7593 26.2027C90.0191 26.1509 90.2577 26.0232 90.445 25.8357L91.1057 25.175V25.2107C91.1345 25.596 91.0861 25.9832 90.9635 26.3496C90.8408 26.716 90.6463 27.0543 90.3914 27.3446V27.5679H92.1771V27.3446C91.9233 27.0552 91.7292 26.7185 91.6059 26.3538C91.4825 25.9892 91.4324 25.6037 91.4584 25.2197V25.175L92.1235 25.8357C92.3774 26.0723 92.7132 26.2011 93.0602 26.195C93.4072 26.1888 93.7382 26.0483 93.9836 25.8029C94.229 25.5575 94.3695 25.2265 94.3756 24.8795C94.3818 24.5325 94.253 24.1967 94.0164 23.9429Z" fill="#1F1F1F"/>
<path d="M87.7664 40.5661C87.5153 40.8169 87.1749 40.9578 86.82 40.9578C86.4651 40.9578 86.1247 40.8169 85.8735 40.5661L85.2977 39.9902C85.4212 40.3914 85.6585 40.748 85.9807 41.017C86.1682 41.2043 86.2959 41.4429 86.3477 41.7027C86.3995 41.9626 86.3731 42.2319 86.2718 42.4768C86.1704 42.7216 85.9988 42.9308 85.7785 43.0781C85.5582 43.2253 85.2992 43.3039 85.0343 43.3039C84.7693 43.3039 84.5103 43.2253 84.29 43.0781C84.0697 42.9308 83.8981 42.7216 83.7968 42.4768C83.6954 42.2319 83.669 41.9626 83.7208 41.7027C83.7726 41.4429 83.9004 41.2043 84.0878 41.017C84.4074 40.7457 84.6441 40.3898 84.7709 39.9902L84.195 40.5661C84.0077 40.7536 83.7691 40.8813 83.5093 40.9331C83.2494 40.9849 82.98 40.9585 82.7352 40.8572C82.4904 40.7559 82.2811 40.5842 82.1339 40.3639C81.9867 40.1437 81.9081 39.8847 81.9081 39.6197C81.9081 39.3547 81.9867 39.0957 82.1339 38.8755C82.2811 38.6552 82.4904 38.4835 82.7352 38.3822C82.98 38.2809 83.2494 38.2545 83.5093 38.3063C83.7691 38.3581 84.0077 38.4858 84.195 38.6733L84.8557 39.334V39.2849C84.8845 38.8996 84.8361 38.5124 84.7135 38.146C84.5908 37.7796 84.3963 37.4413 84.1414 37.1509V36.9277H85.9271V37.1509C85.6722 37.4415 85.4775 37.7797 85.3541 38.146C85.2307 38.5122 85.1812 38.8993 85.2084 39.2849V39.3295L85.8735 38.6688C86.1274 38.4322 86.4632 38.3034 86.8102 38.3096C87.1572 38.3157 87.4882 38.4562 87.7336 38.7016C87.979 38.947 88.1195 39.278 88.1256 39.625C88.1318 39.972 88.003 40.3078 87.7664 40.5617V40.5661Z" fill="#1F1F1F"/>
<path d="M100.266 40.5661C100.015 40.8169 99.6749 40.9578 99.32 40.9578C98.9651 40.9578 98.6247 40.8169 98.3735 40.5661L97.7977 39.9902C97.9212 40.3914 98.1585 40.748 98.4807 41.017C98.6682 41.2043 98.7959 41.4429 98.8477 41.7027C98.8995 41.9626 98.8731 42.2319 98.7718 42.4768C98.6704 42.7216 98.4988 42.9308 98.2785 43.0781C98.0582 43.2253 97.7992 43.3039 97.5343 43.3039C97.2693 43.3039 97.0103 43.2253 96.79 43.0781C96.5697 42.9308 96.3981 42.7216 96.2968 42.4768C96.1954 42.2319 96.169 41.9626 96.2208 41.7027C96.2726 41.4429 96.4004 41.2043 96.5878 41.017C96.9074 40.7457 97.1441 40.3898 97.2709 39.9902L96.695 40.5661C96.5077 40.7536 96.2691 40.8813 96.0093 40.9331C95.7494 40.9849 95.48 40.9585 95.2352 40.8572C94.9904 40.7559 94.7811 40.5842 94.6339 40.3639C94.4867 40.1437 94.4081 39.8847 94.4081 39.6197C94.4081 39.3547 94.4867 39.0957 94.6339 38.8755C94.7811 38.6552 94.9904 38.4835 95.2352 38.3822C95.48 38.2809 95.7494 38.2545 96.0093 38.3063C96.2691 38.3581 96.5077 38.4858 96.695 38.6733L97.3557 39.334V39.2849C97.3845 38.8996 97.3361 38.5124 97.2135 38.146C97.0908 37.7796 96.8963 37.4413 96.6414 37.1509V36.9277H98.4271V37.1509C98.1722 37.4415 97.9775 37.7797 97.8541 38.146C97.7307 38.5122 97.6812 38.8993 97.7084 39.2849V39.3295L98.3735 38.6688C98.6274 38.4322 98.9632 38.3034 99.3102 38.3096C99.6572 38.3157 99.9882 38.4562 100.234 38.7016C100.479 38.947 100.62 39.278 100.626 39.625C100.632 39.972 100.503 40.3078 100.266 40.5617V40.5661Z" fill="#1F1F1F"/>
<path d="M143.625 0H112.375C111.142 0 110.143 0.999364 110.143 2.23214V47.7679C110.143 49.0006 111.142 50 112.375 50H143.625C144.858 50 145.857 49.0006 145.857 47.7679V2.23214C145.857 0.999364 144.858 0 143.625 0Z" fill="#F9F1DF"/>
<path d="M115.5 8.65234C115.259 9.26395 114.049 9.49163 114.049 10.4381C114.05 10.6445 114.133 10.8421 114.279 10.9876C114.426 11.1332 114.624 11.2148 114.83 11.2148C114.938 11.2147 115.045 11.1925 115.144 11.1495C115.243 11.1065 115.332 11.0436 115.406 10.9648C115.384 11.2678 115.26 11.5543 115.054 11.7773V11.8845H115.946V11.7773C115.742 11.5537 115.619 11.2673 115.598 10.9648C115.706 11.0746 115.843 11.1502 115.993 11.1823C116.143 11.2144 116.3 11.2016 116.442 11.1454C116.585 11.0892 116.708 10.9921 116.797 10.8663C116.885 10.7405 116.934 10.5916 116.937 10.4381C116.951 9.49163 115.741 9.26395 115.5 8.65234Z" fill="#1F1F1F"/>
<path d="M140.5 40.9021C140.746 40.2905 141.951 40.0628 141.951 39.1163C141.947 38.9628 141.898 38.8139 141.81 38.6881C141.722 38.5623 141.599 38.4652 141.456 38.409C141.313 38.3528 141.157 38.34 141.007 38.3721C140.857 38.4042 140.719 38.4798 140.612 38.5896C140.633 38.2871 140.755 38.0007 140.96 37.7771V37.6699H140.067V37.7771C140.274 38.0001 140.398 38.2866 140.42 38.5896C140.346 38.5108 140.257 38.4479 140.158 38.4049C140.059 38.3619 139.952 38.3397 139.844 38.3396C139.638 38.3396 139.44 38.4212 139.293 38.5668C139.147 38.7123 139.064 38.9099 139.063 39.1163C139.049 40.0628 140.259 40.2905 140.5 40.9021Z" fill="#1F1F1F"/>
<path d="M116.883 6.15727C116.885 6.3314 116.853 6.50427 116.789 6.6662C116.73 6.81915 116.639 6.95766 116.522 7.07245C116.403 7.19093 116.259 7.2823 116.102 7.34031C115.924 7.40874 115.734 7.44209 115.544 7.43853C115.348 7.44054 115.154 7.40414 114.972 7.33139C114.801 7.26195 114.648 7.15341 114.526 7.01442C114.4 6.86219 114.306 6.68605 114.249 6.49656C114.18 6.26803 114.147 6.03001 114.151 5.7912C114.147 5.50654 114.189 5.22314 114.276 4.95192C114.352 4.71309 114.471 4.49051 114.629 4.29567C114.777 4.10893 114.965 3.95663 115.178 3.84924C115.4 3.74562 115.643 3.69373 115.888 3.69745C116.03 3.69758 116.173 3.71406 116.312 3.74656C116.44 3.7785 116.563 3.82808 116.678 3.89388L116.571 4.20638C116.485 4.17004 116.395 4.1431 116.303 4.12603C116.225 4.10904 116.146 4.10006 116.066 4.09924C115.919 4.0951 115.773 4.12334 115.638 4.18197C115.503 4.2406 115.382 4.32819 115.285 4.43853C115.071 4.6902 114.94 5.00214 114.91 5.33138C115.014 5.2182 115.147 5.13495 115.294 5.09031C115.453 5.03332 115.621 5.00462 115.789 5.00549C115.942 5.00346 116.094 5.03073 116.236 5.08585C116.364 5.13935 116.479 5.21834 116.575 5.31799C116.671 5.41981 116.745 5.53971 116.794 5.67067C116.855 5.82565 116.885 5.99085 116.883 6.15727ZM115.584 7.09477C115.672 7.09946 115.759 7.08088 115.838 7.04091C115.916 7.00093 115.983 6.94097 116.03 6.8671C116.141 6.68919 116.195 6.48242 116.187 6.27335C116.201 6.06101 116.14 5.85044 116.013 5.6796C115.957 5.60966 115.885 5.55382 115.804 5.5166C115.722 5.47938 115.633 5.46181 115.544 5.46531C115.432 5.46783 115.321 5.48433 115.214 5.51442C115.103 5.5419 114.998 5.59039 114.905 5.65727V5.89388C114.904 6.05991 114.918 6.22572 114.946 6.38942C114.972 6.52169 115.017 6.6495 115.08 6.76888C115.131 6.86471 115.205 6.94722 115.294 7.00995C115.38 7.06697 115.481 7.09655 115.584 7.09477Z" fill="#1F1F1F"/>
<path d="M139.119 43.3989C139.117 43.2248 139.149 43.0519 139.213 42.89C139.273 42.7381 139.362 42.5999 139.477 42.4837C139.597 42.3652 139.742 42.2739 139.901 42.2158C140.263 42.0791 140.663 42.0791 141.026 42.2158C141.198 42.2841 141.351 42.3928 141.472 42.5328C141.6 42.6848 141.695 42.8609 141.753 43.0507C141.821 43.2797 141.854 43.5174 141.852 43.756C141.854 44.0409 141.81 44.3243 141.722 44.5953C141.648 44.8349 141.529 45.0578 141.369 45.2516C141.219 45.4302 141.031 45.5748 140.82 45.6757C140.598 45.7793 140.356 45.8312 140.111 45.8275C139.968 45.8271 139.826 45.8106 139.686 45.7784C139.558 45.7464 139.435 45.6968 139.32 45.631L139.428 45.3185C139.514 45.3543 139.604 45.3812 139.695 45.3989C139.775 45.4161 139.855 45.4251 139.936 45.4257C140.084 45.4295 140.23 45.4011 140.365 45.3425C140.5 45.2839 140.62 45.1965 140.718 45.0864C140.929 44.8326 141.059 44.5218 141.093 44.1935C140.986 44.3062 140.853 44.3893 140.704 44.4346C140.545 44.4916 140.378 44.5203 140.209 44.5194C140.056 44.521 139.905 44.4938 139.762 44.4391C139.635 44.3856 139.519 44.3066 139.423 44.2069C139.327 44.106 139.254 43.9858 139.209 43.8542C139.15 43.7097 139.119 43.555 139.119 43.3989ZM140.414 42.4614C140.326 42.4571 140.239 42.4759 140.161 42.5159C140.082 42.5558 140.016 42.6155 139.968 42.6891C139.858 42.867 139.803 43.0737 139.811 43.2828C139.798 43.4957 139.861 43.7063 139.99 43.8766C140.046 43.9465 140.117 44.0023 140.199 44.0396C140.28 44.0768 140.369 44.0944 140.459 44.0909C140.57 44.088 140.681 44.0715 140.789 44.0417C140.9 44.0143 141.005 43.9658 141.097 43.8989V43.6623C141.097 43.4961 141.082 43.3303 141.053 43.1667C141.026 43.0352 140.982 42.9077 140.923 42.7873C140.87 42.6912 140.795 42.6088 140.704 42.5462C140.618 42.4892 140.517 42.4596 140.414 42.4614Z" fill="#1F1F1F"/>
<path d="M121.751 6.36328C121.269 7.59542 118.849 8.04185 118.849 9.93471C118.849 10.3491 119.014 10.7465 119.307 11.0396C119.6 11.3326 119.997 11.4972 120.411 11.4972C120.628 11.4971 120.841 11.4518 121.039 11.3641C121.236 11.2765 121.414 11.1485 121.559 10.9883C121.52 11.5947 121.272 12.1689 120.858 12.6133V12.8365H122.644V12.6133C122.233 12.1686 121.987 11.5966 121.947 10.9927C122.16 11.224 122.437 11.3857 122.743 11.4566C123.049 11.5274 123.369 11.5041 123.662 11.3897C123.954 11.2753 124.206 11.0751 124.382 10.8155C124.559 10.5558 124.653 10.2488 124.652 9.93471C124.652 8.03739 122.233 7.59096 121.751 6.36328Z" fill="#1F1F1F"/>
<path d="M134.251 6.36328C133.769 7.59542 131.349 8.04185 131.349 9.93471C131.349 10.3491 131.514 10.7465 131.807 11.0396C132.1 11.3326 132.497 11.4972 132.911 11.4972C133.128 11.4971 133.341 11.4518 133.539 11.3641C133.736 11.2765 133.914 11.1485 134.059 10.9883C134.02 11.5947 133.772 12.1689 133.358 12.6133V12.8365H135.144V12.6133C134.733 12.1686 134.487 11.5966 134.447 10.9927C134.66 11.224 134.937 11.3857 135.243 11.4566C135.549 11.5274 135.869 11.5041 136.162 11.3897C136.454 11.2753 136.706 11.0751 136.882 10.8155C137.059 10.5558 137.153 10.2488 137.152 9.93471C137.152 8.03739 134.733 7.59096 134.251 6.36328Z" fill="#1F1F1F"/>
<path d="M134.251 20.873C133.769 22.1052 131.349 22.5516 131.349 24.4445C131.349 24.8589 131.514 25.2563 131.807 25.5493C132.1 25.8424 132.497 26.007 132.911 26.007C133.128 26.0069 133.341 25.9616 133.539 25.8739C133.736 25.7863 133.914 25.6582 134.059 25.498C134.02 26.1044 133.772 26.6786 133.358 27.123V27.3463H135.144V27.123C134.733 26.6784 134.487 26.1064 134.447 25.5025C134.66 25.7338 134.937 25.8955 135.243 25.9663C135.549 26.0372 135.869 26.0138 136.162 25.8994C136.454 25.785 136.706 25.5849 136.882 25.3252C137.059 25.0656 137.153 24.7586 137.152 24.4445C137.152 22.5516 134.733 22.1052 134.251 20.873Z" fill="#1F1F1F"/>
<path d="M121.751 20.873C121.269 22.1052 118.849 22.5516 118.849 24.4445C118.849 24.8589 119.014 25.2563 119.307 25.5493C119.6 25.8424 119.997 26.007 120.411 26.007C120.628 26.0069 120.841 25.9616 121.039 25.8739C121.236 25.7863 121.414 25.6582 121.559 25.498C121.52 26.1044 121.272 26.6786 120.858 27.123V27.3463H122.644V27.123C122.233 26.6784 121.987 26.1064 121.947 25.5025C122.16 25.7338 122.437 25.8955 122.743 25.9663C123.049 26.0372 123.369 26.0138 123.662 25.8994C123.954 25.785 124.206 25.5849 124.382 25.3252C124.559 25.0656 124.653 24.7586 124.652 24.4445C124.652 22.5516 122.233 22.1052 121.751 20.873Z" fill="#1F1F1F"/>
<path d="M121.751 43.1939C121.269 41.9618 118.849 41.5153 118.849 39.6225C118.849 39.2081 119.014 38.8107 119.307 38.5176C119.6 38.2246 119.997 38.06 120.411 38.06C120.628 38.0601 120.841 38.1054 121.039 38.1931C121.236 38.2807 121.414 38.4087 121.559 38.5689C121.52 37.9625 121.272 37.3883 120.858 36.9439V36.7207H122.644V36.9439C122.233 37.3886 121.987 37.9605 121.947 38.5645C122.16 38.3332 122.437 38.1715 122.743 38.1006C123.049 38.0298 123.369 38.0531 123.662 38.1675C123.954 38.2819 124.206 38.4821 124.382 38.7417C124.559 39.0014 124.653 39.3084 124.652 39.6225C124.652 41.5198 122.233 41.9662 121.751 43.1939Z" fill="#1F1F1F"/>
<path d="M134.251 43.1939C133.769 41.9618 131.349 41.5153 131.349 39.6225C131.349 39.2081 131.514 38.8107 131.807 38.5176C132.1 38.2246 132.497 38.06 132.911 38.06C133.128 38.0601 133.341 38.1054 133.539 38.1931C133.736 38.2807 133.914 38.4087 134.059 38.5689C134.02 37.9625 133.772 37.3883 133.358 36.9439V36.7207H135.144V36.9439C134.733 37.3886 134.487 37.9605 134.447 38.5645C134.66 38.3332 134.937 38.1715 135.243 38.1006C135.549 38.0298 135.869 38.0531 136.162 38.1675C136.454 38.2819 136.706 38.4821 136.882 38.7417C137.059 39.0014 137.153 39.3084 137.152 39.6225C137.152 41.5198 134.733 41.9662 134.251 43.1939Z" fill="#1F1F1F"/>
<path d="M180.339 0H149.089C147.857 0 146.857 0.999364 146.857 2.23214V47.7679C146.857 49.0006 147.857 50 149.089 50H180.339C181.572 50 182.571 49.0006 182.571 47.7679V2.23214C182.571 0.999364 181.572 0 180.339 0Z" fill="#F9F1DF"/>
<path d="M152.214 11.9414C151.81 11.3149 151.278 10.7821 150.651 10.3789C151.278 9.97568 151.81 9.44289 152.214 8.81641C152.617 9.44289 153.15 9.97568 153.776 10.3789C153.15 10.7821 152.617 11.3149 152.214 11.9414Z" fill="#C93112"/>
<path d="M177.214 37.3887C177.617 38.0152 178.15 38.5479 178.776 38.9512C178.15 39.3544 177.617 39.8872 177.214 40.5137C176.81 39.8872 176.278 39.3544 175.651 38.9512C176.278 38.5479 176.81 38.0152 177.214 37.3887Z" fill="#C93112"/>
<path d="M153.106 4.13782H152.334C152.205 4.13782 152.084 4.13782 151.977 4.13782C151.888 4.14258 151.8 4.15453 151.714 4.17355C151.673 4.1793 151.635 4.19461 151.602 4.21819C151.571 4.24379 151.547 4.2779 151.535 4.31641L151.348 4.89676H150.981C150.968 4.68417 150.968 4.47096 150.981 4.25837C150.993 4.05792 151.016 3.85824 151.048 3.66016H153.401L153.575 4.03961C153.247 4.46711 152.975 4.93529 152.767 5.43248C152.537 6.00188 152.401 6.60506 152.365 7.21819H151.767L151.665 7.08872C151.689 6.80192 151.746 6.51883 151.834 6.24497C151.92 5.96825 152.029 5.69941 152.16 5.4414C152.29 5.18764 152.439 4.94435 152.606 4.71372C152.757 4.50797 152.924 4.31531 153.106 4.13782Z" fill="#C93112"/>
<path d="M176.32 45.1917H177.093C177.222 45.1917 177.343 45.1917 177.45 45.1917C177.537 45.1873 177.624 45.1754 177.709 45.156C177.751 45.1509 177.791 45.1356 177.825 45.1113C177.856 45.0865 177.878 45.0519 177.887 45.0131L178.079 44.4328H178.445C178.461 44.6453 178.461 44.8586 178.445 45.0712C178.445 45.2854 178.41 45.4863 178.383 45.6694H176.026L175.856 45.2899C176.183 44.8622 176.453 44.394 176.66 43.897C176.89 43.3276 177.026 42.7245 177.062 42.1113H177.66L177.767 42.2408C177.741 42.5273 177.684 42.8101 177.597 43.0846C177.512 43.3621 177.402 43.6311 177.267 43.8881C177.137 44.1419 176.988 44.3852 176.82 44.6158C176.669 44.8206 176.502 45.0132 176.32 45.1917Z" fill="#C93112"/>
<path d="M158.465 13.0586C157.661 11.8037 156.594 10.7376 155.34 9.93359C156.594 9.12955 157.661 8.06349 158.465 6.80859C159.269 8.06349 160.335 9.12955 161.59 9.93359C160.335 10.7376 159.269 11.8037 158.465 13.0586Z" fill="#C93112"/>
<path d="M164.715 20.4238C163.911 19.1689 162.844 18.1029 161.59 17.2988C162.844 16.4948 163.911 15.4287 164.715 14.1738C165.519 15.4287 166.585 16.4948 167.84 17.2988C166.585 18.1029 165.519 19.1689 164.715 20.4238Z" fill="#C93112"/>
<path d="M170.965 13.0586C170.161 11.8037 169.094 10.7376 167.84 9.93359C169.094 9.12955 170.161 8.06349 170.965 6.80859C171.769 8.06349 172.835 9.12955 174.09 9.93359C172.835 10.7376 171.769 11.8037 170.965 13.0586Z" fill="#C93112"/>
<path d="M170.965 27.5684C170.161 26.3135 169.094 25.2474 167.84 24.4434C169.094 23.6393 170.161 22.5733 170.965 21.3184C171.769 22.5733 172.835 23.6393 174.09 24.4434C172.835 25.2474 171.769 26.3135 170.965 27.5684Z" fill="#C93112"/>
<path d="M158.465 27.5684C157.661 26.3135 156.594 25.2474 155.34 24.4434C156.594 23.6393 157.661 22.5733 158.465 21.3184C159.269 22.5733 160.335 23.6393 161.59 24.4434C160.335 25.2474 159.269 26.3135 158.465 27.5684Z" fill="#C93112"/>
<path d="M161.59 39.3984C160.335 40.2025 159.269 41.2685 158.465 42.5234C157.661 41.2685 156.594 40.2025 155.34 39.3984C156.594 38.5944 157.661 37.5283 158.465 36.2734C159.269 37.5283 160.335 38.5944 161.59 39.3984Z" fill="#C93112"/>
<path d="M174.09 39.3984C172.835 40.2025 171.769 41.2685 170.965 42.5234C170.161 41.2685 169.094 40.2025 167.84 39.3984C169.094 38.5944 170.161 37.5283 170.965 36.2734C171.769 37.5283 172.835 38.5944 174.09 39.3984Z" fill="#C93112"/>
</svg>
