<svg width="183" height="50" viewBox="0 0 183 50" fill="none" xmlns="http://www.w3.org/2000/svg">
<path d="M33.4821 0H2.23214C0.999364 0 0 0.999364 0 2.23214V47.7679C0 49.0006 0.999364 50 2.23214 50H33.4821C34.7149 50 35.7143 49.0006 35.7143 47.7679V2.23214C35.7143 0.999364 34.7149 0 33.4821 0Z" fill="#F9F1DF"/>
<path d="M5.35608 11.9414C4.95406 11.314 4.42103 10.7809 3.79358 10.3789C4.42103 9.97688 4.95406 9.44385 5.35608 8.81641C5.7593 9.44289 6.2921 9.97568 6.91858 10.3789C6.2921 10.7821 5.7593 11.3149 5.35608 11.9414Z" fill="#C93112"/>
<path d="M30.356 37.3887C30.7592 38.0152 31.292 38.5479 31.9185 38.9512C31.292 39.3544 30.7592 39.8872 30.356 40.5137C29.9539 39.8862 29.4209 39.3532 28.7935 38.9512C29.4209 38.5491 29.9539 38.0161 30.356 37.3887Z" fill="#C93112"/>
<path d="M6.73973 6.04317C6.74186 6.21729 6.71002 6.39015 6.64598 6.55209C6.58665 6.70503 6.49532 6.84354 6.37812 6.95834C6.25917 7.07681 6.11602 7.16819 5.95848 7.2262C5.78054 7.29463 5.59105 7.32798 5.40044 7.32441C5.20479 7.32642 5.01065 7.29003 4.82901 7.21728C4.65755 7.14784 4.50467 7.03929 4.38259 6.9003C4.25641 6.74807 4.16227 6.57193 4.1058 6.38244C4.03634 6.15391 4.0032 5.9159 4.00759 5.67709C4.00386 5.39243 4.04606 5.10902 4.13259 4.8378C4.2082 4.59898 4.32782 4.3764 4.48527 4.18155C4.63622 4.0029 4.82337 3.85835 5.03437 3.75745C5.25645 3.65384 5.49916 3.60193 5.7442 3.60566C5.88698 3.60579 6.02927 3.62227 6.1683 3.65477C6.29655 3.68671 6.41975 3.73628 6.53437 3.80209L6.42724 4.11459C6.3411 4.07825 6.25129 4.05131 6.15938 4.03424C6.08163 4.01725 6.00235 4.00828 5.92277 4.00745C5.77564 4.00331 5.6294 4.03155 5.49439 4.09018C5.35939 4.14881 5.23893 4.23639 5.14152 4.34673C4.92719 4.5984 4.79617 4.91035 4.76652 5.23959C4.87068 5.1264 5.00324 5.04317 5.15044 4.99852C5.3094 4.94154 5.47712 4.91283 5.64599 4.9137C5.79857 4.91167 5.95012 4.93894 6.09241 4.99406C6.22012 5.04755 6.33556 5.12654 6.43169 5.22619C6.52736 5.32801 6.60175 5.44792 6.65045 5.57888C6.70836 5.72687 6.73862 5.88425 6.73973 6.04317ZM5.44062 6.98067C5.52848 6.98536 5.61603 6.96676 5.69442 6.92679C5.7728 6.88681 5.83925 6.82686 5.88705 6.75299C5.99717 6.57508 6.05159 6.3683 6.0433 6.15923C6.05789 5.94689 5.99615 5.73632 5.8692 5.56548C5.81332 5.49554 5.74177 5.43971 5.66035 5.40249C5.57892 5.36527 5.4899 5.3477 5.40044 5.35119C5.28871 5.35371 5.17773 5.37022 5.07009 5.40031C4.95922 5.42778 4.85465 5.47628 4.76205 5.54317V5.80209C4.76102 5.96812 4.77446 6.13392 4.80223 6.29762C4.82839 6.42989 4.87351 6.5577 4.93617 6.67709C4.98802 6.77292 5.06135 6.85543 5.15044 6.91816C5.23881 6.96737 5.33983 6.98913 5.44062 6.98067Z" fill="#C93112"/>
<path d="M28.9763 43.3029C28.9742 43.1288 29.006 42.9559 29.0701 42.794C29.1295 42.6421 29.2191 42.5039 29.3334 42.3877C29.455 42.2693 29.5993 42.1767 29.7575 42.1154C29.9348 42.0507 30.1224 42.0189 30.3111 42.0216C30.5069 42.0188 30.7012 42.0552 30.8826 42.1288C31.0547 42.197 31.2078 42.3057 31.329 42.4457C31.4566 42.5977 31.5522 42.7739 31.6102 42.9636C31.6775 43.1926 31.7106 43.4303 31.7084 43.669C31.7107 43.9539 31.667 44.2373 31.579 44.5083C31.5052 44.7479 31.3854 44.9708 31.2263 45.1645C31.0766 45.3445 30.8891 45.4893 30.6772 45.5886C30.4544 45.6901 30.2122 45.7419 29.9674 45.7404C29.8246 45.74 29.6823 45.7235 29.5433 45.6913C29.415 45.6594 29.2918 45.6098 29.1772 45.544L29.2843 45.2359C29.3707 45.2705 29.4605 45.2959 29.5522 45.3118C29.6314 45.3291 29.7122 45.3381 29.7933 45.3386C29.9404 45.3424 30.0865 45.3141 30.2215 45.2554C30.3564 45.1968 30.4769 45.1094 30.5745 44.9993C30.7854 44.7456 30.916 44.4347 30.9495 44.1065C30.8432 44.2192 30.7093 44.3022 30.5611 44.3475C30.4022 44.4045 30.2344 44.4332 30.0656 44.4324C29.913 44.434 29.7616 44.4067 29.6192 44.352C29.4914 44.2985 29.376 44.2195 29.2799 44.1199C29.1841 44.019 29.111 43.8987 29.0656 43.7672C29.0054 43.6199 28.975 43.462 28.9763 43.3029ZM30.271 42.3654C30.1832 42.3612 30.0958 42.3799 30.0175 42.4199C29.9392 42.4598 29.8726 42.5195 29.8245 42.5931C29.7144 42.771 29.66 42.9777 29.6683 43.1868C29.655 43.3997 29.7183 43.6103 29.8468 43.7806C29.9027 43.8505 29.9743 43.9064 30.0557 43.9436C30.1371 43.9808 30.2261 43.9984 30.3156 43.9949C30.4273 43.992 30.5382 43.9755 30.6459 43.9458C30.7568 43.9183 30.8614 43.8698 30.954 43.8029V43.5663C30.9538 43.4001 30.9389 43.2343 30.9093 43.0708C30.8826 42.9393 30.8391 42.8117 30.7799 42.6913C30.7264 42.5953 30.6515 42.5128 30.5611 42.4502C30.4763 42.3888 30.3755 42.3531 30.271 42.3475V42.3654Z" fill="#C93112"/>
<path d="M11.6063 13.0586C10.8023 11.8037 9.73622 10.7376 8.48132 9.93359C9.73622 9.12955 10.8023 8.06349 11.6063 6.80859C12.4104 8.06349 13.4764 9.12955 14.7313 9.93359C13.4764 10.7376 12.4104 11.8037 11.6063 13.0586Z" fill="#C93112"/>
<path d="M24.1063 13.0586C23.3023 11.8037 22.2362 10.7376 20.9813 9.93359C22.2362 9.12955 23.3023 8.06349 24.1063 6.80859C24.9104 8.06349 25.9764 9.12955 27.2313 9.93359C25.9764 10.7376 24.9104 11.8037 24.1063 13.0586Z" fill="#C93112"/>
<path d="M24.1063 27.5684C23.3023 26.3135 22.2362 25.2474 20.9813 24.4434C22.2362 23.6393 23.3023 22.5733 24.1063 21.3184C24.9104 22.5733 25.9764 23.6393 27.2313 24.4434C25.9764 25.2474 24.9104 26.3135 24.1063 27.5684Z" fill="#C93112"/>
<path d="M11.6063 27.5684C10.8023 26.3135 9.73622 25.2474 8.48132 24.4434C9.73622 23.6393 10.8023 22.5733 11.6063 21.3184C12.4104 22.5733 13.4764 23.6393 14.7313 24.4434C13.4764 25.2474 12.4104 26.3135 11.6063 27.5684Z" fill="#C93112"/>
<path d="M14.7313 39.3984C13.4764 40.2025 12.4104 41.2685 11.6063 42.5234C10.8023 41.2685 9.73622 40.2025 8.48132 39.3984C9.73622 38.5944 10.8023 37.5283 11.6063 36.2734C12.4104 37.5283 13.4764 38.5944 14.7313 39.3984Z" fill="#C93112"/>
<path d="M27.2313 39.3984C25.9764 40.2025 24.9104 41.2685 24.1063 42.5234C23.3023 41.2685 22.2362 40.2025 20.9813 39.3984C22.2362 38.5944 23.3023 37.5283 24.1063 36.2734C24.9104 37.5283 25.9764 38.5944 27.2313 39.3984Z" fill="#C93112"/>
<path d="M70.1965 0H38.9465C37.7137 0 36.7144 0.999364 36.7144 2.23214V47.7679C36.7144 49.0006 37.7137 50 38.9465 50H70.1965C71.4293 50 72.4287 49.0006 72.4287 47.7679V2.23214C72.4287 0.999364 71.4293 0 70.1965 0Z" fill="#F9F1DF"/>
<path d="M42.0715 8.65234C41.8304 9.26395 40.6206 9.49163 40.6206 10.4381C40.6218 10.6445 40.7046 10.8421 40.851 10.9876C40.9974 11.1332 41.1954 11.2148 41.4019 11.2148C41.5098 11.2147 41.6166 11.1925 41.7157 11.1495C41.8147 11.1065 41.9039 11.0436 41.9778 10.9648C41.9557 11.2678 41.8314 11.5543 41.6251 11.7773V11.8845H42.5179V11.7773C42.3132 11.5537 42.1905 11.2673 42.1697 10.9648C42.2771 11.0746 42.4145 11.1502 42.5646 11.1823C42.7148 11.2144 42.8711 11.2016 43.014 11.1454C43.1569 11.0892 43.28 10.9921 43.3681 10.8663C43.4561 10.7405 43.5051 10.5916 43.509 10.4381C43.5224 9.49163 42.3126 9.26395 42.0715 8.65234Z" fill="#1F1F1F"/>
<path d="M67.0716 40.9021C67.3172 40.2905 68.5225 40.0628 68.5225 39.1163C68.5187 38.9628 68.4696 38.8139 68.3816 38.6881C68.2936 38.5623 68.1704 38.4652 68.0275 38.409C67.8846 38.3528 67.7283 38.34 67.5782 38.3721C67.428 38.4042 67.2907 38.4798 67.1833 38.5896C67.204 38.2871 67.3268 38.0007 67.5315 37.7771V37.6699H66.6386V37.7771C66.8449 38.0001 66.9693 38.2866 66.9913 38.5896C66.9175 38.5108 66.8283 38.4479 66.7292 38.4049C66.6302 38.3619 66.5234 38.3397 66.4154 38.3396C66.209 38.3396 66.0109 38.4212 65.8646 38.5668C65.7182 38.7123 65.6353 38.9099 65.6341 39.1163C65.6208 40.0628 66.8306 40.2905 67.0716 40.9021Z" fill="#1F1F1F"/>
<path d="M43.4552 6.15727C43.4573 6.3314 43.4255 6.50427 43.3614 6.6662C43.3021 6.81915 43.2108 6.95766 43.0936 7.07245C42.9746 7.19093 42.8315 7.2823 42.6739 7.34031C42.496 7.40874 42.3065 7.44209 42.1159 7.43853C41.9202 7.44054 41.7261 7.40414 41.5445 7.33139C41.373 7.26195 41.2201 7.15341 41.098 7.01442C40.9719 6.86219 40.8777 6.68605 40.8213 6.49656C40.7518 6.26803 40.7187 6.03001 40.723 5.7912C40.7193 5.50654 40.7615 5.22314 40.848 4.95192C40.9237 4.71309 41.0433 4.49051 41.2007 4.29567C41.3494 4.10893 41.5367 3.95663 41.7498 3.84924C41.9719 3.74562 42.2146 3.69373 42.4597 3.69745C42.6024 3.69758 42.7447 3.71406 42.8838 3.74656C43.012 3.7785 43.1352 3.82808 43.2498 3.89388L43.1427 4.20638C43.0566 4.17004 42.9667 4.1431 42.8748 4.12603C42.7971 4.10904 42.7178 4.10006 42.6382 4.09924C42.4911 4.0951 42.3449 4.12334 42.2098 4.18197C42.0748 4.2406 41.9544 4.32819 41.857 4.43853C41.6426 4.6902 41.5116 5.00214 41.482 5.33138C41.5861 5.2182 41.7187 5.13495 41.8659 5.09031C42.0249 5.03332 42.1926 5.00462 42.3614 5.00549C42.514 5.00346 42.6656 5.03073 42.8079 5.08585C42.9356 5.13935 43.051 5.21834 43.1471 5.31799C43.2428 5.41981 43.3172 5.53971 43.3659 5.67067C43.4266 5.82565 43.4569 5.99085 43.4552 6.15727ZM42.1561 7.09477C42.2439 7.09946 42.3315 7.08088 42.4099 7.04091C42.4883 7.00093 42.5547 6.94097 42.6025 6.8671C42.7126 6.68919 42.767 6.48242 42.7588 6.27335C42.7733 6.06101 42.7116 5.85044 42.5847 5.6796C42.5288 5.60966 42.4572 5.55382 42.3758 5.5166C42.2944 5.47938 42.2054 5.46181 42.1159 5.46531C42.0042 5.46783 41.8932 5.48433 41.7855 5.51442C41.6747 5.5419 41.5701 5.59039 41.4775 5.65727V5.89388C41.4765 6.05991 41.4899 6.22572 41.5177 6.38942C41.5438 6.52169 41.589 6.6495 41.6516 6.76888C41.7035 6.86471 41.7768 6.94722 41.8659 7.00995C41.9518 7.06697 42.053 7.09655 42.1561 7.09477Z" fill="#1F1F1F"/>
<path d="M65.6918 43.3989C65.6896 43.2248 65.7215 43.0519 65.7855 42.89C65.8449 42.7381 65.9345 42.5999 66.0489 42.4837C66.1696 42.3652 66.3142 42.2739 66.473 42.2158C66.8355 42.0791 67.2355 42.0791 67.598 42.2158C67.7701 42.2841 67.9233 42.3928 68.0444 42.5328C68.172 42.6848 68.2677 42.8609 68.3257 43.0507C68.393 43.2797 68.4261 43.5174 68.4239 43.756C68.4262 44.0409 68.3825 44.3243 68.2944 44.5953C68.2206 44.8349 68.1009 45.0578 67.9418 45.2516C67.7908 45.4302 67.6036 45.5748 67.3926 45.6757C67.1706 45.7793 66.9279 45.8312 66.6828 45.8275C66.5401 45.8271 66.3978 45.8106 66.2587 45.7784C66.1305 45.7464 66.0073 45.6968 65.8926 45.631L65.9998 45.3185C66.0861 45.3543 66.1759 45.3812 66.2676 45.3989C66.3469 45.4161 66.4277 45.4251 66.5087 45.4257C66.6558 45.4295 66.802 45.4011 66.9369 45.3425C67.0719 45.2839 67.1924 45.1965 67.29 45.0864C67.5009 44.8326 67.6314 44.5218 67.665 44.1935C67.5586 44.3062 67.4248 44.3893 67.2766 44.4346C67.1176 44.4916 66.9499 44.5203 66.781 44.5194C66.6285 44.521 66.477 44.4938 66.3346 44.4391C66.2069 44.3856 66.0915 44.3066 65.9953 44.2069C65.8995 44.106 65.8264 43.9858 65.781 43.8542C65.722 43.7097 65.6916 43.555 65.6918 43.3989ZM66.9864 42.4614C66.8986 42.4571 66.8112 42.4759 66.7329 42.5159C66.6546 42.5558 66.5881 42.6155 66.54 42.6891C66.4298 42.867 66.3754 43.0737 66.3837 43.2828C66.3704 43.4957 66.4338 43.7063 66.5623 43.8766C66.6182 43.9465 66.6897 44.0023 66.7711 44.0396C66.8526 44.0768 66.9416 44.0944 67.031 44.0909C67.1427 44.088 67.2537 44.0715 67.3614 44.0417C67.4723 44.0143 67.5768 43.9658 67.6694 43.8989V43.6623C67.6691 43.4961 67.6541 43.3303 67.6248 43.1667C67.598 43.0352 67.5545 42.9077 67.4953 42.7873C67.4418 42.6912 67.367 42.6088 67.2766 42.5462C67.1907 42.4892 67.0895 42.4596 66.9864 42.4614Z" fill="#1F1F1F"/>
<path d="M48.3218 6.36328C47.8397 7.59542 45.42 8.04185 45.42 9.93471C45.42 10.3491 45.5847 10.7465 45.8777 11.0396C46.1707 11.3326 46.5681 11.4972 46.9825 11.4972C47.1987 11.4971 47.4125 11.4518 47.6101 11.3641C47.8077 11.2765 47.9847 11.1485 48.1299 10.9883C48.091 11.5947 47.8433 12.1689 47.429 12.6133V12.8365H49.2147V12.6133C48.8041 12.1686 48.5583 11.5966 48.5183 10.9927C48.7308 11.224 49.0082 11.3857 49.3143 11.4566C49.6203 11.5274 49.9405 11.5041 50.2331 11.3897C50.5256 11.2753 50.7767 11.0751 50.9535 10.8155C51.1302 10.5558 51.2244 10.2488 51.2236 9.93471C51.2236 8.03739 48.804 7.59096 48.3218 6.36328Z" fill="#1F1F1F"/>
<path d="M60.8218 6.36328C60.3397 7.59542 57.92 8.04185 57.92 9.93471C57.92 10.3491 58.0847 10.7465 58.3777 11.0396C58.6707 11.3326 59.0681 11.4972 59.4825 11.4972C59.6987 11.4971 59.9125 11.4518 60.1101 11.3641C60.3077 11.2765 60.4847 11.1485 60.6299 10.9883C60.591 11.5947 60.3433 12.1689 59.929 12.6133V12.8365H61.7147V12.6133C61.3041 12.1686 61.0583 11.5966 61.0183 10.9927C61.2308 11.224 61.5082 11.3857 61.8143 11.4566C62.1203 11.5274 62.4405 11.5041 62.7331 11.3897C63.0256 11.2753 63.2767 11.0751 63.4535 10.8155C63.6302 10.5558 63.7244 10.2488 63.7236 9.93471C63.7236 8.03739 61.304 7.59096 60.8218 6.36328Z" fill="#1F1F1F"/>
<path d="M60.8218 20.873C60.3397 22.1052 57.92 22.5516 57.92 24.4445C57.92 24.8589 58.0847 25.2563 58.3777 25.5493C58.6707 25.8424 59.0681 26.007 59.4825 26.007C59.6987 26.0069 59.9125 25.9616 60.1101 25.8739C60.3077 25.7863 60.4847 25.6582 60.6299 25.498C60.591 26.1044 60.3433 26.6786 59.929 27.123V27.3463H61.7147V27.123C61.3041 26.6784 61.0583 26.1064 61.0183 25.5025C61.2308 25.7338 61.5082 25.8955 61.8143 25.9663C62.1203 26.0372 62.4405 26.0138 62.7331 25.8994C63.0256 25.785 63.2767 25.5849 63.4535 25.3252C63.6302 25.0656 63.7244 24.7586 63.7236 24.4445C63.7236 22.5516 61.304 22.1052 60.8218 20.873Z" fill="#1F1F1F"/>
<path d="M48.3218 20.873C47.8397 22.1052 45.42 22.5516 45.42 24.4445C45.42 24.8589 45.5847 25.2563 45.8777 25.5493C46.1707 25.8424 46.5681 26.007 46.9825 26.007C47.1987 26.0069 47.4125 25.9616 47.6101 25.8739C47.8077 25.7863 47.9847 25.6582 48.1299 25.498C48.091 26.1044 47.8433 26.6786 47.429 27.123V27.3463H49.2147V27.123C48.8041 26.6784 48.5583 26.1064 48.5183 25.5025C48.7308 25.7338 49.0082 25.8955 49.3143 25.9663C49.6203 26.0372 49.9405 26.0138 50.2331 25.8994C50.5256 25.785 50.7767 25.5849 50.9535 25.3252C51.1302 25.0656 51.2244 24.7586 51.2236 24.4445C51.2236 22.5516 48.804 22.1052 48.3218 20.873Z" fill="#1F1F1F"/>
<path d="M48.3218 43.1939C47.8397 41.9618 45.42 41.5153 45.42 39.6225C45.42 39.2081 45.5847 38.8107 45.8777 38.5176C46.1707 38.2246 46.5681 38.06 46.9825 38.06C47.1987 38.0601 47.4125 38.1054 47.6101 38.1931C47.8077 38.2807 47.9847 38.4087 48.1299 38.5689C48.091 37.9625 47.8433 37.3883 47.429 36.9439V36.7207H49.2147V36.9439C48.8041 37.3886 48.5583 37.9605 48.5183 38.5645C48.7308 38.3332 49.0082 38.1715 49.3143 38.1006C49.6203 38.0298 49.9405 38.0531 50.2331 38.1675C50.5256 38.2819 50.7767 38.4821 50.9535 38.7417C51.1302 39.0014 51.2244 39.3084 51.2236 39.6225C51.2236 41.5198 48.804 41.9662 48.3218 43.1939Z" fill="#1F1F1F"/>
<path d="M60.8218 43.1939C60.3397 41.9618 57.92 41.5153 57.92 39.6225C57.92 39.2081 58.0847 38.8107 58.3777 38.5176C58.6707 38.2246 59.0681 38.06 59.4825 38.06C59.6987 38.0601 59.9125 38.1054 60.1101 38.1931C60.3077 38.2807 60.4847 38.4087 60.6299 38.5689C60.591 37.9625 60.3433 37.3883 59.929 36.9439V36.7207H61.7147V36.9439C61.3041 37.3886 61.0583 37.9605 61.0183 38.5645C61.2308 38.3332 61.5082 38.1715 61.8143 38.1006C62.1203 38.0298 62.4405 38.0531 62.7331 38.1675C63.0256 38.2819 63.2767 38.4821 63.4535 38.7417C63.6302 39.0014 63.7244 39.3084 63.7236 39.6225C63.7236 41.5198 61.304 41.9662 60.8218 43.1939Z" fill="#1F1F1F"/>
<path d="M106.911 0H75.6607C74.428 0 73.4286 0.999364 73.4286 2.23214V47.7679C73.4286 49.0006 74.428 50 75.6607 50H106.911C108.144 50 109.143 49.0006 109.143 47.7679V2.23214C109.143 0.999364 108.144 0 106.911 0Z" fill="#F9F1DF"/>
<path d="M78.7866 8.65234C78.5455 9.26395 77.3357 9.49163 77.3357 10.4381C77.3396 10.5916 77.3886 10.7405 77.4766 10.8663C77.5647 10.9921 77.6878 11.0892 77.8307 11.1454C77.9736 11.2016 78.1299 11.2144 78.28 11.1823C78.4302 11.1502 78.5676 11.0746 78.675 10.9648C78.6542 11.2673 78.5314 11.5537 78.3268 11.7773V11.8845H79.2196V11.7773C79.0149 11.5537 78.8922 11.2673 78.8714 10.9648C78.9788 11.0746 79.1162 11.1502 79.2663 11.1823C79.4165 11.2144 79.5728 11.2016 79.7157 11.1454C79.8585 11.0892 79.9817 10.9921 80.0697 10.8663C80.1578 10.7405 80.2068 10.5916 80.2107 10.4381C80.2375 9.49163 79.0277 9.26395 78.7866 8.65234Z" fill="#1F1F1F"/>
<path d="M103.786 40.9021C104.028 40.2905 105.237 40.0628 105.237 39.1163C105.234 38.9628 105.184 38.8139 105.096 38.6881C105.008 38.5623 104.885 38.4652 104.742 38.409C104.599 38.3528 104.443 38.34 104.293 38.3721C104.143 38.4042 104.006 38.4798 103.898 38.5896C103.919 38.2871 104.042 38.0007 104.246 37.7771V37.6699H103.353V37.7771C103.558 38.0007 103.681 38.2871 103.702 38.5896C103.594 38.4798 103.457 38.4042 103.307 38.3721C103.157 38.34 103 38.3528 102.857 38.409C102.715 38.4652 102.591 38.5623 102.503 38.6881C102.415 38.8139 102.366 38.9628 102.362 39.1163C102.336 40.0628 103.545 40.2905 103.786 40.9021Z" fill="#1F1F1F"/>
<path d="M77.5235 3.77818V6.83175C77.5214 6.86935 77.5342 6.90625 77.5592 6.93443C77.5852 6.96182 77.6199 6.97921 77.6574 6.98354L78.1842 7.06836V7.36746H76.1083V7.06836L76.711 6.98354C76.7508 6.97825 76.7882 6.96114 76.8182 6.93443C76.8331 6.92196 76.8449 6.90619 76.8526 6.88837C76.8604 6.87054 76.8638 6.85116 76.8628 6.83175V4.4255L76.7155 4.46568L76.5235 4.51032L76.3226 4.54603H76.144L76.0815 4.22907C76.1818 4.20467 76.2802 4.17334 76.3762 4.13532C76.4789 4.09961 76.5771 4.05496 76.6753 4.01032C76.7735 3.96568 76.8628 3.91211 76.9476 3.85854C77.0259 3.8089 77.1005 3.7537 77.1708 3.69336L77.5235 3.77818Z" fill="#1F1F1F"/>
<path d="M79.9925 7.43359C79.7662 7.44035 79.542 7.38967 79.3407 7.28628C79.1603 7.19825 79.0064 7.06429 78.8942 6.89788C78.7858 6.71883 78.7088 6.52255 78.6666 6.31752C78.6211 6.08517 78.5987 5.84892 78.5996 5.61217C78.5961 5.33054 78.6306 5.04972 78.7023 4.77734C78.762 4.56391 78.862 4.36389 78.9969 4.18806C79.1159 4.03705 79.2689 3.91622 79.4433 3.83538C79.6329 3.75677 79.8364 3.71729 80.0416 3.71931C80.2672 3.71287 80.4911 3.76193 80.6934 3.86216C80.8642 3.95349 81.0088 4.08725 81.113 4.25056C81.2252 4.42771 81.3025 4.62471 81.3407 4.83092C81.3865 5.0632 81.409 5.2995 81.4076 5.53627C81.4138 5.81951 81.3792 6.10215 81.305 6.37556C81.249 6.59041 81.1486 6.79116 81.0103 6.96485C80.8917 7.11622 80.7386 7.23713 80.5639 7.31753C80.3827 7.39268 80.1886 7.43208 79.9925 7.43359ZM79.9925 4.05859C79.8847 4.0564 79.779 4.08912 79.6913 4.15188C79.6036 4.21463 79.5386 4.30405 79.5058 4.40681C79.3951 4.74959 79.3467 5.10945 79.363 5.46931C79.3496 5.87306 79.3978 6.27648 79.5058 6.66574C79.5324 6.78658 79.5997 6.89464 79.6964 6.97184C79.7931 7.04903 79.9134 7.09069 80.0371 7.08985C80.1455 7.09175 80.2515 7.05838 80.3393 6.99477C80.4271 6.93116 80.4918 6.84075 80.5237 6.73717C80.6389 6.39535 80.6889 6.03494 80.671 5.67467C80.6859 5.27203 80.6362 4.8696 80.5237 4.4827C80.4993 4.36408 80.4351 4.25736 80.3417 4.18023C80.2483 4.1031 80.1314 4.06018 80.0103 4.05859H79.9925Z" fill="#1F1F1F"/>
<path d="M105.046 45.7787V42.7252C105.049 42.6882 105.038 42.6514 105.015 42.6225C104.987 42.5948 104.951 42.5774 104.912 42.5734L104.39 42.4886V42.1895H106.466V42.4886L105.863 42.5734C105.823 42.5787 105.786 42.5958 105.756 42.6225C105.742 42.6358 105.732 42.6518 105.725 42.6695C105.718 42.6872 105.715 42.7062 105.716 42.7252V45.1314L105.863 45.0912L106.05 45.0466L106.256 45.0109H106.434L106.497 45.3278C106.395 45.3516 106.295 45.3829 106.198 45.4216C106.099 45.4573 105.997 45.5019 105.903 45.5466C105.81 45.5926 105.719 45.6433 105.631 45.6984C105.552 45.7491 105.476 45.8043 105.403 45.8636L105.046 45.7787Z" fill="#1F1F1F"/>
<path d="M102.577 42.1218C102.805 42.1143 103.031 42.165 103.233 42.2691C103.404 42.3605 103.549 42.4942 103.653 42.6575C103.765 42.8347 103.843 43.0317 103.881 43.2379C103.926 43.4702 103.949 43.7065 103.948 43.9432C103.954 44.225 103.919 44.5061 103.845 44.7781C103.789 44.9929 103.689 45.1937 103.55 45.3674C103.432 45.5187 103.279 45.6396 103.104 45.72C102.914 45.7983 102.711 45.8378 102.506 45.8361C102.28 45.8431 102.056 45.794 101.854 45.6933C101.682 45.6021 101.536 45.4684 101.43 45.3049C101.318 45.1277 101.24 44.9307 101.202 44.7245C101.156 44.4922 101.134 44.2559 101.135 44.0191C101.131 43.736 101.166 43.4537 101.238 43.1799C101.298 42.9664 101.398 42.7664 101.533 42.5906C101.651 42.4386 101.804 42.3175 101.979 42.2379C102.168 42.1587 102.372 42.1192 102.577 42.1218ZM102.577 45.4968C102.685 45.4997 102.791 45.4673 102.879 45.4045C102.967 45.3416 103.032 45.2518 103.064 45.1486C103.179 44.8067 103.229 44.4464 103.211 44.0861C103.226 43.682 103.176 43.2782 103.064 42.8897C103.038 42.7684 102.971 42.6599 102.874 42.5826C102.777 42.5052 102.656 42.4639 102.533 42.4656C102.425 42.4632 102.319 42.4964 102.232 42.5602C102.144 42.6239 102.081 42.7146 102.05 42.8182C101.935 43.1601 101.885 43.5205 101.903 43.8808C101.889 44.283 101.937 44.6851 102.046 45.0727C102.071 45.191 102.135 45.2972 102.229 45.3742C102.322 45.4512 102.438 45.4944 102.559 45.4968H102.577Z" fill="#1F1F1F"/>
<path d="M85.0364 6.36133C84.5498 7.59347 82.1346 8.0399 82.1346 9.93276C82.1338 10.2475 82.2282 10.5551 82.4055 10.815C82.5829 11.075 82.8348 11.2752 83.1281 11.3892C83.4214 11.5033 83.7424 11.5258 84.0488 11.4539C84.3551 11.382 84.6325 11.219 84.8445 10.9863C84.8056 11.5927 84.5579 12.1669 84.1436 12.6113V12.8345H85.9293V12.6113C85.5156 12.1683 85.2679 11.5957 85.2284 10.9908C85.4416 11.2214 85.7193 11.3824 86.0253 11.4528C86.3313 11.5232 86.6515 11.4998 86.944 11.3856C87.2365 11.2714 87.4879 11.0717 87.6652 10.8125C87.8425 10.5534 87.9377 10.2468 87.9382 9.93276C87.9382 8.03544 85.5186 7.58901 85.0364 6.36133Z" fill="#1F1F1F"/>
<path d="M97.5364 6.36133C97.0498 7.59347 94.6346 8.0399 94.6346 9.93276C94.6338 10.2475 94.7282 10.5551 94.9055 10.815C95.0829 11.075 95.3348 11.2752 95.6281 11.3892C95.9214 11.5033 96.2424 11.5258 96.5488 11.4539C96.8551 11.382 97.1325 11.219 97.3445 10.9863C97.3056 11.5927 97.0579 12.1669 96.6436 12.6113V12.8345H98.4293V12.6113C98.0156 12.1683 97.7679 11.5957 97.7284 10.9908C97.9416 11.2214 98.2193 11.3824 98.5253 11.4528C98.8313 11.5232 99.1515 11.4998 99.444 11.3856C99.7365 11.2714 99.9879 11.0717 100.165 10.8125C100.343 10.5534 100.438 10.2468 100.438 9.93276C100.438 8.03544 98.0186 7.58901 97.5364 6.36133Z" fill="#1F1F1F"/>
<path d="M91.2864 11.4961C90.7998 12.7282 88.3846 13.1747 88.3846 15.0675C88.3846 15.4819 88.5493 15.8794 88.8423 16.1724C89.1353 16.4654 89.5327 16.63 89.9471 16.63C90.1627 16.6304 90.376 16.5853 90.5729 16.4976C90.7699 16.4099 90.9461 16.2816 91.09 16.1211C91.0549 16.7275 90.8085 17.3025 90.3936 17.7461V17.9693H92.1793V17.7461C91.7655 17.303 91.5179 16.7305 91.4784 16.1256C91.6916 16.3561 91.9693 16.5171 92.2753 16.5876C92.5813 16.658 92.9015 16.6346 93.194 16.5204C93.4865 16.4061 93.7378 16.2064 93.9152 15.9473C94.0925 15.6881 94.1877 15.3816 94.1882 15.0675C94.1882 13.1747 91.7686 12.7282 91.2864 11.4961Z" fill="#1F1F1F"/>
<path d="M85.0364 16.1836C84.5498 17.4157 82.1346 17.8622 82.1346 19.755C82.1338 20.0697 82.2282 20.3773 82.4055 20.6373C82.5829 20.8973 82.8348 21.0975 83.1281 21.2115C83.4214 21.3256 83.7424 21.3481 84.0488 21.2762C84.3551 21.2043 84.6325 21.0412 84.8445 20.8086C84.8056 21.415 84.5579 21.9892 84.1436 22.4336V22.6568H85.9293V22.4336C85.5156 21.9905 85.2679 21.418 85.2284 20.8131C85.4416 21.0436 85.7193 21.2046 86.0253 21.2751C86.3313 21.3455 86.6515 21.3221 86.944 21.2079C87.2365 21.0936 87.4879 20.8939 87.6652 20.6348C87.8425 20.3756 87.9377 20.0691 87.9382 19.755C87.9382 17.8577 85.5186 17.4113 85.0364 16.1836Z" fill="#1F1F1F"/>
<path d="M97.5364 16.1836C97.0498 17.4157 94.6346 17.8622 94.6346 19.755C94.6338 20.0697 94.7282 20.3773 94.9055 20.6373C95.0829 20.8973 95.3348 21.0975 95.6281 21.2115C95.9214 21.3256 96.2424 21.3481 96.5488 21.2762C96.8551 21.2043 97.1325 21.0412 97.3445 20.8086C97.3056 21.415 97.0579 21.9892 96.6436 22.4336V22.6568H98.4293V22.4336C98.0156 21.9905 97.7679 21.418 97.7284 20.8131C97.9416 21.0436 98.2193 21.2046 98.5253 21.2751C98.8313 21.3455 99.1515 21.3221 99.444 21.2079C99.7365 21.0936 99.9879 20.8939 100.165 20.6348C100.343 20.3756 100.438 20.0691 100.438 19.755C100.438 17.8577 98.0186 17.4113 97.5364 16.1836Z" fill="#1F1F1F"/>
<path d="M85.0364 43.192C84.5498 41.9598 82.1346 41.5134 82.1346 39.6205C82.1338 39.3058 82.2282 38.9982 82.4055 38.7383C82.5829 38.4783 82.8348 38.2781 83.1281 38.164C83.4214 38.05 83.7424 38.0275 84.0488 38.0994C84.3551 38.1713 84.6325 38.3343 84.8445 38.567C84.8056 37.9606 84.5579 37.3864 84.1436 36.942V36.7188H85.9293V36.942C85.5156 37.385 85.2679 37.9576 85.2284 38.5625C85.4416 38.3319 85.7193 38.1709 86.0253 38.1005C86.3313 38.0301 86.6515 38.0535 86.944 38.1677C87.2365 38.2819 87.4879 38.4816 87.6652 38.7408C87.8425 38.9999 87.9377 39.3065 87.9382 39.6205C87.9382 41.5179 85.5186 41.9643 85.0364 43.192Z" fill="#1F1F1F"/>
<path d="M97.5364 43.192C97.0498 41.9598 94.6346 41.5134 94.6346 39.6205C94.6338 39.3058 94.7282 38.9982 94.9055 38.7383C95.0829 38.4783 95.3348 38.2781 95.6281 38.164C95.9214 38.05 96.2424 38.0275 96.5488 38.0994C96.8551 38.1713 97.1325 38.3343 97.3445 38.567C97.3056 37.9606 97.0579 37.3864 96.6436 36.942V36.7188H98.4293V36.942C98.0156 37.385 97.7679 37.9576 97.7284 38.5625C97.9416 38.3319 98.2193 38.1709 98.5253 38.1005C98.8313 38.0301 99.1515 38.0535 99.444 38.1677C99.7365 38.2819 99.9879 38.4816 100.165 38.7408C100.343 38.9999 100.438 39.3065 100.438 39.6205C100.438 41.5179 98.0186 41.9643 97.5364 43.192Z" fill="#1F1F1F"/>
<path d="M91.2864 38.0572C90.7998 36.8251 88.3846 36.3786 88.3846 34.4858C88.3846 34.0714 88.5493 33.6739 88.8423 33.3809C89.1353 33.0879 89.5327 32.9233 89.9471 32.9233C90.1627 32.9229 90.376 32.968 90.5729 33.0557C90.7699 33.1434 90.9461 33.2717 91.09 33.4322C91.0549 32.8258 90.8085 32.2508 90.3936 31.8072V31.584H92.1793V31.8072C91.7655 32.2502 91.5179 32.8228 91.4784 33.4277C91.6916 33.1971 91.9693 33.0361 92.2753 32.9657C92.5813 32.8953 92.9015 32.9187 93.194 33.0329C93.4865 33.1471 93.7378 33.3468 93.9152 33.606C94.0925 33.8652 94.1877 34.1717 94.1882 34.4858C94.1882 36.3786 91.7686 36.8251 91.2864 38.0572Z" fill="#1F1F1F"/>
<path d="M85.0364 33.3697C84.5498 32.1376 82.1346 31.6911 82.1346 29.7983C82.1338 29.4836 82.2282 29.176 82.4055 28.916C82.5829 28.656 82.8348 28.4558 83.1281 28.3418C83.4214 28.2277 83.7424 28.2052 84.0488 28.2771C84.3551 28.349 84.6325 28.5121 84.8445 28.7447C84.8056 28.1383 84.5579 27.5641 84.1436 27.1197V26.8965H85.9293V27.1197C85.5156 27.5627 85.2679 28.1353 85.2284 28.7402C85.4416 28.5096 85.7193 28.3486 86.0253 28.2782C86.3313 28.2078 86.6515 28.2312 86.944 28.3454C87.2365 28.4596 87.4879 28.6593 87.6652 28.9185C87.8425 29.1777 87.9377 29.4842 87.9382 29.7983C87.9382 31.6956 85.5186 32.142 85.0364 33.3697Z" fill="#1F1F1F"/>
<path d="M97.5364 33.3697C97.0498 32.1376 94.6346 31.6911 94.6346 29.7983C94.6338 29.4836 94.7282 29.176 94.9055 28.916C95.0829 28.656 95.3348 28.4558 95.6281 28.3418C95.9214 28.2277 96.2424 28.2052 96.5488 28.2771C96.8551 28.349 97.1325 28.5121 97.3445 28.7447C97.3056 28.1383 97.0579 27.5641 96.6436 27.1197V26.8965H98.4293V27.1197C98.0156 27.5627 97.7679 28.1353 97.7284 28.7402C97.9416 28.5096 98.2193 28.3486 98.5253 28.2782C98.8313 28.2078 99.1515 28.2312 99.444 28.3454C99.7365 28.4596 99.9879 28.6593 100.165 28.9185C100.343 29.1777 100.438 29.4842 100.438 29.7983C100.438 31.6956 98.0186 32.142 97.5364 33.3697Z" fill="#1F1F1F"/>
<path d="M143.625 0H112.375C111.142 0 110.143 0.999364 110.143 2.23214V47.7679C110.143 49.0006 111.142 50 112.375 50H143.625C144.858 50 145.857 49.0006 145.857 47.7679V2.23214C145.857 0.999364 144.858 0 143.625 0Z" fill="#F9F1DF"/>
<path d="M116.224 9.375C116.152 9.50425 116.046 9.61191 115.919 9.68687C115.791 9.76183 115.646 9.80135 115.498 9.80135C115.35 9.80135 115.205 9.76183 115.077 9.68687C114.95 9.61191 114.845 9.50425 114.773 9.375C114.551 9.37618 114.339 9.46513 114.182 9.6224C114.026 9.77967 113.938 9.99247 113.938 10.2143C113.938 11.1384 115.277 11.6339 115.5 12.2232C115.746 11.6339 117.063 11.1384 117.063 10.2143C117.063 9.9917 116.974 9.77822 116.817 9.62082C116.66 9.46343 116.446 9.375 116.224 9.375Z" fill="#C93112"/>
<path d="M139.773 40.401C139.845 40.2717 139.95 40.164 140.077 40.0891C140.205 40.0141 140.35 39.9746 140.498 39.9746C140.646 39.9746 140.791 40.0141 140.919 40.0891C141.046 40.164 141.151 40.2717 141.223 40.401C141.446 40.401 141.66 40.3125 141.817 40.1551C141.974 39.9977 142.063 39.7843 142.063 39.5617C142.063 38.6376 140.723 38.142 140.5 37.5527C140.255 38.142 138.938 38.6376 138.938 39.5617C138.938 39.7835 139.026 39.9963 139.182 40.1536C139.338 40.3108 139.551 40.3998 139.773 40.401Z" fill="#C93112"/>
<path d="M114.238 3.88756V6.94113C114.236 6.97872 114.248 7.01562 114.273 7.0438C114.299 7.0712 114.334 7.08858 114.372 7.09291L114.898 7.17773V7.47684H112.823V7.17773L113.425 7.09291C113.465 7.08762 113.502 7.07052 113.532 7.0438C113.547 7.03134 113.559 7.01556 113.567 6.99774C113.575 6.97992 113.578 6.96053 113.577 6.94113V4.53488L113.43 4.57505L113.238 4.6197L113.037 4.65541H112.858L112.796 4.33845C112.896 4.31405 112.994 4.28272 113.09 4.24469C113.193 4.20898 113.291 4.16434 113.39 4.11969C113.488 4.07505 113.577 4.02148 113.662 3.96791C113.74 3.91827 113.815 3.86307 113.885 3.80273L114.238 3.88756Z" fill="#C93112"/>
<path d="M116.707 7.54297C116.48 7.54972 116.256 7.49904 116.055 7.39565C115.875 7.30763 115.721 7.17367 115.608 7.00726C115.5 6.82821 115.423 6.63192 115.381 6.4269C115.335 6.19458 115.313 5.9583 115.314 5.72155C115.31 5.43992 115.345 5.15909 115.417 4.88672C115.476 4.67329 115.576 4.47326 115.711 4.29744C115.83 4.14642 115.983 4.02559 116.158 3.94475C116.347 3.86614 116.551 3.82666 116.756 3.82869C116.981 3.82225 117.205 3.8713 117.408 3.97154C117.578 4.06287 117.723 4.19662 117.827 4.35994C117.939 4.53708 118.017 4.73408 118.055 4.9403C118.101 5.17258 118.123 5.40888 118.122 5.64565C118.128 5.92888 118.093 6.21153 118.019 6.48493C117.963 6.69979 117.863 6.90053 117.725 7.07422C117.606 7.2256 117.453 7.3465 117.278 7.4269C117.097 7.50205 116.903 7.54146 116.707 7.54297ZM116.707 4.16797C116.599 4.16578 116.493 4.1985 116.406 4.26125C116.318 4.32401 116.253 4.41343 116.22 4.51618C116.109 4.85896 116.061 5.21883 116.077 5.57869C116.064 5.98243 116.112 6.38586 116.22 6.77511C116.247 6.89595 116.314 7.00402 116.411 7.08121C116.507 7.15841 116.628 7.20007 116.751 7.19922C116.86 7.20113 116.966 7.16776 117.054 7.10415C117.141 7.04054 117.206 6.95013 117.238 6.84654C117.353 6.50473 117.403 6.14431 117.385 5.78405C117.4 5.38141 117.35 4.97898 117.238 4.59207C117.214 4.47345 117.149 4.36674 117.056 4.2896C116.963 4.21247 116.846 4.16955 116.725 4.16797H116.707Z" fill="#C93112"/>
<path d="M141.76 45.8873V42.856C141.763 42.819 141.752 42.7822 141.729 42.7533C141.701 42.7256 141.665 42.7083 141.626 42.7042L141.104 42.6194V42.3203H143.18V42.6194L142.577 42.7042C142.537 42.7095 142.5 42.7266 142.47 42.7533C142.456 42.7666 142.446 42.7827 142.439 42.8004C142.432 42.8181 142.429 42.837 142.43 42.856V45.2623L142.577 45.2221L142.765 45.1775L142.97 45.1417H143.149L143.211 45.4587C143.109 45.4824 143.009 45.5138 142.912 45.5525C142.814 45.5882 142.711 45.6328 142.617 45.6775C142.524 45.7235 142.433 45.7741 142.345 45.8292C142.266 45.88 142.19 45.9352 142.117 45.9944L141.76 45.8873Z" fill="#C93112"/>
<path d="M139.291 42.2312C139.519 42.2237 139.745 42.2744 139.948 42.3785C140.119 42.4698 140.263 42.6036 140.367 42.7669C140.48 42.9441 140.557 43.1411 140.595 43.3473C140.641 43.5796 140.663 43.8159 140.662 44.0526C140.668 44.3344 140.633 44.6155 140.559 44.8874C140.503 45.1023 140.403 45.303 140.265 45.4767C140.146 45.6281 139.993 45.749 139.818 45.8294C139.629 45.9077 139.425 45.9471 139.22 45.9455C138.994 45.9525 138.77 45.9034 138.568 45.8026C138.396 45.7114 138.25 45.5777 138.144 45.4142C138.032 45.2371 137.955 45.0401 137.916 44.8339C137.871 44.6016 137.848 44.3653 137.849 44.1285C137.845 43.8454 137.88 43.563 137.952 43.2892C138.012 43.0758 138.112 42.8758 138.247 42.6999C138.365 42.5479 138.518 42.4269 138.693 42.3473C138.883 42.2681 139.086 42.2285 139.291 42.2312ZM139.291 45.6062C139.399 45.6091 139.505 45.5767 139.593 45.5138C139.681 45.451 139.746 45.3611 139.778 45.258C139.893 44.9161 139.943 44.5557 139.925 44.1955C139.94 43.7914 139.89 43.3876 139.778 42.9991C139.752 42.8778 139.685 42.7693 139.588 42.6919C139.491 42.6146 139.371 42.5733 139.247 42.5749C139.139 42.5725 139.033 42.6058 138.946 42.6695C138.859 42.7333 138.795 42.824 138.765 42.9276C138.649 43.2694 138.599 43.6299 138.617 43.9901C138.604 44.3924 138.652 44.7944 138.76 45.1821C138.785 45.3003 138.85 45.4066 138.943 45.4836C139.036 45.5606 139.153 45.6038 139.274 45.6062H139.291Z" fill="#C93112"/>
<path d="M123.201 7.69922C123.057 7.95771 122.847 8.17305 122.592 8.32296C122.337 8.47288 122.046 8.55192 121.75 8.55192C121.454 8.55192 121.164 8.47288 120.909 8.32296C120.654 8.17305 120.443 7.95771 120.299 7.69922C119.855 7.69922 119.43 7.87559 119.116 8.18955C118.802 8.50351 118.625 8.92933 118.625 9.37333C118.625 11.2215 121.259 12.2126 121.75 13.3912C122.241 12.2126 124.875 11.2215 124.875 9.37333C124.875 8.92933 124.699 8.50351 124.385 8.18955C124.071 7.87559 123.645 7.69922 123.201 7.69922Z" fill="#C93112"/>
<path d="M135.701 7.69922C135.557 7.95771 135.347 8.17305 135.092 8.32296C134.837 8.47288 134.546 8.55192 134.25 8.55192C133.954 8.55192 133.664 8.47288 133.409 8.32296C133.154 8.17305 132.943 7.95771 132.799 7.69922C132.355 7.69922 131.93 7.87559 131.616 8.18955C131.302 8.50351 131.125 8.92933 131.125 9.37333C131.125 11.2215 133.759 12.2126 134.25 13.3912C134.741 12.2126 137.375 11.2215 137.375 9.37333C137.375 8.92933 137.199 8.50351 136.885 8.18955C136.571 7.87559 136.145 7.69922 135.701 7.69922Z" fill="#C93112"/>
<path d="M129.451 12.834C129.307 13.0925 129.097 13.3078 128.842 13.4577C128.587 13.6076 128.296 13.6867 128 13.6867C127.704 13.6867 127.414 13.6076 127.159 13.4577C126.904 13.3078 126.693 13.0925 126.549 12.834C126.105 12.834 125.68 13.0104 125.366 13.3243C125.052 13.6383 124.875 14.0641 124.875 14.5081C124.875 16.3563 127.509 17.3474 128 18.5259C128.491 17.3474 131.125 16.3563 131.125 14.5081C131.125 14.0641 130.949 13.6383 130.635 13.3243C130.321 13.0104 129.895 12.834 129.451 12.834Z" fill="#C93112"/>
<path d="M123.201 17.5215C123.057 17.78 122.847 17.9953 122.592 18.1452C122.337 18.2951 122.046 18.3742 121.75 18.3742C121.454 18.3742 121.164 18.2951 120.909 18.1452C120.654 17.9953 120.443 17.78 120.299 17.5215C119.855 17.5215 119.43 17.6979 119.116 18.0118C118.802 18.3258 118.625 18.7516 118.625 19.1956C118.625 21.0438 121.259 22.0349 121.75 23.2134C122.241 22.0349 124.875 21.0438 124.875 19.1956C124.875 18.7516 124.699 18.3258 124.385 18.0118C124.071 17.6979 123.645 17.5215 123.201 17.5215Z" fill="#C93112"/>
<path d="M135.701 17.5215C135.557 17.78 135.347 17.9953 135.092 18.1452C134.837 18.2951 134.546 18.3742 134.25 18.3742C133.954 18.3742 133.664 18.2951 133.409 18.1452C133.154 17.9953 132.943 17.78 132.799 17.5215C132.355 17.5215 131.93 17.6979 131.616 18.0118C131.302 18.3258 131.125 18.7516 131.125 19.1956C131.125 21.0438 133.759 22.0349 134.25 23.2134C134.741 22.0349 137.375 21.0438 137.375 19.1956C137.375 18.7516 137.199 18.3258 136.885 18.0118C136.571 17.6979 136.145 17.5215 135.701 17.5215Z" fill="#C93112"/>
<path d="M123.201 42.0748C123.057 41.8163 122.847 41.6009 122.592 41.451C122.337 41.3011 122.046 41.2221 121.75 41.2221C121.454 41.2221 121.164 41.3011 120.909 41.451C120.654 41.6009 120.443 41.8163 120.299 42.0748C119.855 42.0748 119.43 41.8984 119.116 41.5844C118.802 41.2705 118.625 40.8447 118.625 40.4007C118.625 38.5525 121.259 37.5614 121.75 36.3828C122.241 37.5614 124.875 38.5525 124.875 40.4007C124.875 40.8447 124.699 41.2705 124.385 41.5844C124.071 41.8984 123.645 42.0748 123.201 42.0748Z" fill="#C93112"/>
<path d="M135.701 42.0748C135.557 41.8163 135.347 41.6009 135.092 41.451C134.837 41.3011 134.546 41.2221 134.25 41.2221C133.954 41.2221 133.664 41.3011 133.409 41.451C133.154 41.6009 132.943 41.8163 132.799 42.0748C132.355 42.0748 131.93 41.8984 131.616 41.5844C131.302 41.2705 131.125 40.8447 131.125 40.4007C131.125 38.5525 133.759 37.5614 134.25 36.3828C134.741 37.5614 137.375 38.5525 137.375 40.4007C137.375 40.8447 137.199 41.2705 136.885 41.5844C136.571 41.8984 136.145 42.0748 135.701 42.0748Z" fill="#C93112"/>
<path d="M129.451 36.94C129.307 36.6815 129.097 36.4662 128.842 36.3163C128.587 36.1664 128.296 36.0873 128 36.0873C127.704 36.0873 127.414 36.1664 127.159 36.3163C126.904 36.4662 126.693 36.6815 126.549 36.94C126.105 36.94 125.68 36.7636 125.366 36.4497C125.052 36.1357 124.875 35.7099 124.875 35.2659C124.875 33.4177 127.509 32.4266 128 31.248C128.491 32.4266 131.125 33.4177 131.125 35.2659C131.125 35.7099 130.949 36.1357 130.635 36.4497C130.321 36.7636 129.895 36.94 129.451 36.94Z" fill="#C93112"/>
<path d="M123.201 32.2525C123.057 31.994 122.847 31.7787 122.592 31.6288C122.337 31.4789 122.046 31.3998 121.75 31.3998C121.454 31.3998 121.164 31.4789 120.909 31.6288C120.654 31.7787 120.443 31.994 120.299 32.2525C119.855 32.2525 119.43 32.0761 119.116 31.7622C118.802 31.4482 118.625 31.0224 118.625 30.5784C118.625 28.7302 121.259 27.7391 121.75 26.5605C122.241 27.7391 124.875 28.7302 124.875 30.5784C124.875 31.0224 124.699 31.4482 124.385 31.7622C124.071 32.0761 123.645 32.2525 123.201 32.2525Z" fill="#C93112"/>
<path d="M135.701 32.2525C135.557 31.994 135.347 31.7787 135.092 31.6288C134.837 31.4789 134.546 31.3998 134.25 31.3998C133.954 31.3998 133.664 31.4789 133.409 31.6288C133.154 31.7787 132.943 31.994 132.799 32.2525C132.355 32.2525 131.93 32.0761 131.616 31.7622C131.302 31.4482 131.125 31.0224 131.125 30.5784C131.125 28.7302 133.759 27.7391 134.25 26.5605C134.741 27.7391 137.375 28.7302 137.375 30.5784C137.375 31.0224 137.199 31.4482 136.885 31.7622C136.571 32.0761 136.145 32.2525 135.701 32.2525Z" fill="#C93112"/>
<g opacity="0.5">
<path d="M180.339 0H149.089C147.857 0 146.857 0.999364 146.857 2.23214V47.7679C146.857 49.0006 147.857 50 149.089 50H180.339C181.572 50 182.571 49.0006 182.571 47.7679V2.23214C182.571 0.999364 181.572 0 180.339 0Z" fill="#F9F1DF"/>
<path d="M152.215 8.65039C151.973 9.262 150.764 9.48968 150.764 10.4361C150.768 10.5896 150.817 10.7385 150.905 10.8643C150.993 10.9901 151.116 11.0872 151.259 11.1434C151.402 11.1996 151.558 11.2125 151.708 11.1804C151.858 11.1483 151.996 11.0726 152.103 10.9629C152.082 11.2653 151.959 11.5518 151.755 11.7754V11.8825H152.648V11.7754C152.443 11.5518 152.32 11.2653 152.299 10.9629C152.407 11.0726 152.544 11.1483 152.694 11.1804C152.844 11.2125 153.001 11.1996 153.144 11.1434C153.287 11.0872 153.41 10.9901 153.498 10.8643C153.586 10.7385 153.635 10.5896 153.639 10.4361C153.665 9.48968 152.456 9.262 152.215 8.65039Z" fill="#1F1F1F"/>
<path d="M177.215 40.9001C177.456 40.2885 178.665 40.0608 178.665 39.1144C178.662 38.9609 178.613 38.8119 178.525 38.6862C178.436 38.5604 178.313 38.4633 178.17 38.4071C178.028 38.3509 177.871 38.338 177.721 38.3701C177.571 38.4022 177.434 38.4779 177.326 38.5876C177.347 38.2852 177.47 37.9987 177.674 37.7751V37.668H176.782V37.7751C176.986 37.9987 177.109 38.2852 177.13 38.5876C177.022 38.4779 176.885 38.4022 176.735 38.3701C176.585 38.338 176.428 38.3509 176.285 38.4071C176.143 38.4633 176.019 38.5604 175.931 38.6862C175.843 38.8119 175.794 38.9609 175.79 39.1144C175.764 40.0608 176.973 40.2885 177.215 40.9001Z" fill="#1F1F1F"/>
<path d="M152.215 7.06557V7.36467H150.429V7.06557L150.835 6.98521C150.873 6.97908 150.909 6.96203 150.938 6.9361C150.961 6.90706 150.974 6.87076 150.974 6.83342V3.85575C150.975 3.81689 150.962 3.77882 150.938 3.7486C150.913 3.72019 150.878 3.70259 150.84 3.69949L150.429 3.61468V3.30664H152.215V3.61468L151.799 3.69949C151.781 3.70061 151.764 3.70557 151.747 3.71403C151.731 3.72249 151.717 3.73427 151.706 3.7486C151.681 3.77882 151.669 3.81689 151.67 3.85575V5.48968L153.197 3.70396L152.75 3.61468V3.30664H154.224V3.61468L153.84 3.69949C153.808 3.70367 153.778 3.71431 153.75 3.73075C153.72 3.74443 153.693 3.76418 153.67 3.78878L152.661 4.90932C152.754 5.02151 152.841 5.13928 152.92 5.26199L153.201 5.70842L153.826 6.78432C153.855 6.83037 153.888 6.8737 153.924 6.91378C153.965 6.94584 154.012 6.96733 154.063 6.97628L154.335 7.04771V7.34681H153.407C153.34 7.34681 153.273 7.29771 153.201 7.1995C153.113 7.06906 153.032 6.9334 152.96 6.79325C152.96 6.79325 152.416 5.76646 152.362 5.67271C152.308 5.57896 152.255 5.48521 152.201 5.40485L151.688 5.98521V6.82003C151.687 6.85749 151.699 6.89407 151.724 6.92271C151.751 6.95041 151.787 6.96776 151.826 6.97182L152.215 7.06557Z" fill="#1F1F1F"/>
<path d="M177.215 42.4847V42.1855H179V42.4847L178.594 42.565C178.557 42.5712 178.523 42.5883 178.496 42.6141C178.483 42.6279 178.474 42.6442 178.468 42.6618C178.461 42.6794 178.459 42.6982 178.46 42.7168V45.6945C178.458 45.7328 178.469 45.7708 178.491 45.8016C178.517 45.83 178.552 45.8476 178.59 45.8507L179 45.9355V46.2436H177.215V45.9355L177.625 45.8507C177.644 45.8497 177.663 45.8448 177.68 45.8363C177.696 45.8279 177.711 45.8161 177.724 45.8016C177.746 45.7708 177.758 45.7328 177.755 45.6945V44.0606L176.228 45.8463L176.675 45.9355V46.2436H175.201V45.9355L175.585 45.8507C175.618 45.8457 175.65 45.8352 175.679 45.8195C175.707 45.8045 175.733 45.7849 175.755 45.7614L176.764 44.6409C176.669 44.5288 176.581 44.411 176.5 44.2882C176.42 44.1588 176.326 44.0025 176.224 43.8418L175.594 42.7659C175.567 42.7188 175.534 42.6753 175.496 42.6364C175.457 42.6052 175.411 42.5838 175.362 42.5739L175.085 42.5025V42.2034H176.018C176.081 42.2034 176.148 42.2525 176.219 42.3507C176.311 42.4799 176.393 42.6157 176.465 42.757C176.465 42.757 177.005 43.7838 177.058 43.8775C177.112 43.9713 177.17 44.065 177.224 44.1454L177.733 43.565V42.7302C177.734 42.7115 177.732 42.6928 177.726 42.6751C177.719 42.6574 177.71 42.6412 177.697 42.6275C177.669 42.5998 177.633 42.5825 177.594 42.5784L177.215 42.4847Z" fill="#1F1F1F"/>
<path d="M174.09 4.79883C173.608 6.03097 171.188 6.4774 171.188 8.37026C171.188 8.78466 171.352 9.18209 171.646 9.47512C171.939 9.76814 172.336 9.93276 172.75 9.93276C172.967 9.93267 173.18 9.88734 173.378 9.79969C173.575 9.71204 173.753 9.58401 173.898 9.42382C173.859 10.0302 173.611 10.6044 173.197 11.0488V11.272H174.983V11.0488C174.572 10.6041 174.326 10.0322 174.286 9.42829C174.431 9.58732 174.607 9.71435 174.804 9.80122C175.001 9.88809 175.214 9.93289 175.429 9.93276C175.843 9.93276 176.241 9.76814 176.534 9.47512C176.827 9.18209 176.991 8.78466 176.991 8.37026C176.991 6.4774 174.572 6.03097 174.09 4.79883Z" fill="#1F1F1F"/>
<path d="M155.34 45.2056C154.857 43.9735 152.438 43.5226 152.438 41.6342C152.438 41.3202 152.533 41.0136 152.711 40.7544C152.888 40.4953 153.139 40.2956 153.432 40.1814C153.724 40.0672 154.045 40.0437 154.351 40.1141C154.657 40.1846 154.934 40.3456 155.148 40.5762C155.109 39.9711 154.861 39.3983 154.447 38.9556V38.7324H156.232V38.9556C155.821 39.3997 155.575 39.972 155.536 40.5762C155.748 40.3449 156.026 40.1832 156.332 40.1124C156.638 40.0415 156.958 40.0648 157.251 40.1792C157.543 40.2936 157.794 40.4938 157.971 40.7534C158.148 41.0131 158.242 41.3201 158.241 41.6342C158.241 43.5226 155.822 43.9735 155.34 45.2056Z" fill="#1F1F1F"/>
<path d="M179 35.7151H178.554V4.01869H156.679V3.57227H178.777L179 3.79548V35.7151ZM150.429 14.2866V46.2062L150.652 46.4294H172.75V45.983H150.875V14.2866H150.429Z" fill="#1F1F1F"/>
<path d="M171.465 25.8351C170.464 26.3924 169.34 26.6923 168.195 26.7079C167.049 26.7235 165.918 26.4542 164.902 25.9244L166.179 24.0047L166.098 23.6922C165.125 23.1496 164.041 22.8337 162.929 22.7681C164.908 22.058 166.759 21.0329 168.411 19.7324C168.03 20.947 168.135 22.2623 168.705 23.4008C169.274 24.5393 170.264 25.4121 171.465 25.8351Z" fill="#C93112"/>
<path d="M166.724 43.911C165.743 44.5212 164.571 44.7449 163.435 44.5386C162.298 44.3323 161.28 43.7108 160.576 42.7949C162.676 42.7926 164.759 43.1707 166.724 43.911Z" fill="#C93112"/>
<path d="M167.188 43.6082C164.984 42.7357 162.629 42.3078 160.259 42.3493C160.596 41.8906 160.845 41.3727 160.991 40.8225C162.016 40.6399 163.065 40.6399 164.089 40.8225C164.581 40.9178 165.065 41.0506 165.536 41.2198C166.072 41.4162 166.589 41.6662 167.089 41.8894C167.011 42.4634 167.045 43.0469 167.188 43.6082Z" fill="#CBBD9F"/>
<path d="M163.724 40.3571C163.518 40.3214 163.322 40.2946 163.143 40.2768C163.162 39.2141 162.815 38.1772 162.161 37.3393C161.308 36.4018 159.536 36.4911 160.206 34.875C160.425 36.6071 164.621 34.5714 163.724 40.3571Z" fill="#2D6B67"/>
<path d="M162.697 40.2503C162.456 40.2503 162.25 40.2503 162.027 40.2503C161.581 37.6119 160.027 37.7771 159.929 36.3574C160.451 36.9512 161.402 37.161 161.822 37.6342C162.401 38.382 162.71 39.3043 162.697 40.2503Z" fill="#2D6B67"/>
<path d="M161.59 40.2865L161.232 40.3133C160.813 40.0499 160.009 38.8491 159.786 37.3223C160.25 38.1258 161.228 38.349 161.59 40.2865Z" fill="#2D6B67"/>
<path d="M173.063 28.5724C173.063 28.5425 173.07 28.513 173.082 28.4856C173.094 28.4582 173.111 28.4334 173.133 28.4127C173.154 28.3919 173.18 28.3757 173.208 28.3648C173.235 28.3539 173.265 28.3486 173.295 28.3492H173.527V27.925H173.286C173.227 27.925 173.17 27.9015 173.128 27.8597C173.086 27.8178 173.063 27.761 173.063 27.7018C173.063 27.6426 173.086 27.5859 173.128 27.544C173.17 27.5021 173.227 27.4786 173.286 27.4786H173.518V27.0858H173.277C173.218 27.0858 173.161 27.0623 173.119 27.0204C173.077 26.9785 173.054 26.9218 173.054 26.8626C173.054 26.8034 173.077 26.7466 173.119 26.7047C173.161 26.6629 173.218 26.6393 173.277 26.6393H173.509V26.1126C173.186 26.0068 172.84 25.9928 172.509 26.0724C172.509 31.2509 172.456 29.8001 172.67 30.4384C172.701 30.5316 172.708 30.631 172.691 30.7277C172.674 30.8244 172.633 30.9152 172.572 30.992C172.482 31.0813 172.509 30.5456 172.509 34.8849C172.605 34.8507 172.703 34.8267 172.804 34.8135C172.833 34.809 172.862 34.8104 172.89 34.8175C172.919 34.8246 172.945 34.8372 172.968 34.8547C172.992 34.8721 173.011 34.8941 173.026 34.9192C173.041 34.9443 173.05 34.9721 173.054 35.0009C173.062 35.0612 173.045 35.1221 173.009 35.1705C172.972 35.2189 172.918 35.251 172.857 35.2599C172.592 35.2964 172.348 35.4275 172.171 35.6292C171.993 35.8309 171.895 36.0897 171.893 36.3581C171.929 36.4742 172.465 37.5277 173.009 38.5635C173.554 37.5277 174.09 36.4742 174.134 36.3313C174.125 36.152 174.073 35.9775 173.983 35.8223C173.893 35.667 173.767 35.5354 173.616 35.4385C173.469 35.3492 173.509 35.6617 173.509 28.8224H173.268C173.208 28.8156 173.153 28.7857 173.115 28.739C173.076 28.6924 173.058 28.6326 173.063 28.5724Z" fill="#CBBD9F"/>
<path d="M170.429 30.5095C169.753 31.0144 169.109 31.5601 168.5 32.1434C168.153 32.0747 167.8 32.0477 167.447 32.0631C168.195 31.2674 169.018 30.5439 169.902 29.9023C170.053 30.1247 170.23 30.3284 170.429 30.5095Z" fill="#2D6B67"/>
<path d="M169.661 29.5282C168.614 30.2907 167.648 31.1583 166.777 32.1175C165.718 32.2784 164.703 32.6526 163.793 33.2174C162.883 33.7822 162.097 34.5258 161.482 35.4032L161.357 35.3675C160.371 35.1175 159.978 35.0237 161.018 33.4478C163.318 31.1842 166.153 29.538 169.259 28.6621C169.371 28.9606 169.505 29.2502 169.661 29.5282Z" fill="#CBBD9F"/>
<path d="M157.598 24.3125C155.063 24.3125 153.357 26.5804 153.357 28.7143C153.357 30.8482 155.063 33.1161 157.598 33.1161C160.134 33.1161 161.84 30.8393 161.84 28.7143C161.84 26.5893 160.143 24.3125 157.598 24.3125ZM158.259 25.3125L158.179 25.7589C157.798 25.6876 157.408 25.6876 157.027 25.7589L156.938 25.3125C157.375 25.2322 157.822 25.2322 158.259 25.3125ZM155.697 25.8214L155.947 26.1964C155.605 26.4234 155.311 26.7145 155.081 27.0536L154.715 26.8036C154.973 26.4136 155.307 26.0796 155.697 25.8214ZM154.643 29.2857L154.197 29.375C154.109 28.9328 154.109 28.4779 154.197 28.0357L154.643 28.1161C154.569 28.5025 154.569 28.8993 154.643 29.2857ZM155.697 31.5982C155.304 31.3437 154.969 31.009 154.715 30.6161L155.09 30.3661C155.316 30.7076 155.608 31.0017 155.947 31.2321L155.697 31.5982ZM156.938 32.1072L157.027 31.6607C157.408 31.7321 157.798 31.7321 158.179 31.6607L158.259 32.1072C157.823 32.1921 157.374 32.1921 156.938 32.1072ZM157.598 30.8393C157.177 30.8384 156.766 30.7126 156.416 30.4779C156.066 30.2432 155.794 29.9101 155.634 29.5206C155.474 29.1312 155.432 28.7029 155.515 28.29C155.598 27.8771 155.802 27.4981 156.1 27.2009C156.399 26.9037 156.779 26.7017 157.192 26.6204C157.605 26.5391 158.033 26.5822 158.422 26.7442C158.811 26.9062 159.143 27.1798 159.376 27.5305C159.609 27.8811 159.733 28.2931 159.732 28.7143C159.732 28.9939 159.676 29.2707 159.569 29.5289C159.461 29.787 159.304 30.0214 159.106 30.2187C158.907 30.4161 158.672 30.5724 158.414 30.6789C158.155 30.7854 157.878 30.8399 157.598 30.8393ZM159.509 31.5982L159.259 31.2321C159.598 31.0017 159.889 30.7076 160.116 30.3661L160.491 30.6161C160.233 31.0062 159.899 31.3402 159.509 31.5982ZM160.116 27.0536C159.893 26.7118 159.601 26.42 159.259 26.1964L159.509 25.8214C159.896 26.0832 160.23 26.4166 160.491 26.8036L160.116 27.0536ZM160.563 29.2857C160.634 28.9051 160.634 28.5145 160.563 28.1339L161.009 28.0536C161.096 28.4957 161.096 28.9507 161.009 29.3929L160.563 29.2857Z" fill="#CBBD9F"/>
<path d="M171.857 16.8398C169.322 16.8398 167.616 19.1166 167.616 21.2416C167.616 23.3666 169.322 25.6434 171.857 25.6434C174.393 25.6434 176.098 23.3666 176.098 21.2416C176.098 19.1166 174.393 16.8398 171.857 16.8398ZM172.518 17.8398L172.429 18.2863C172.052 18.206 171.663 18.206 171.286 18.2863L171.197 17.8398C171.635 17.7654 172.082 17.7714 172.518 17.8577V17.8398ZM169.956 18.3488L170.197 18.7238C169.855 18.9473 169.563 19.2391 169.34 19.5809L168.965 19.3398C169.226 18.9473 169.563 18.6104 169.956 18.3488ZM168.902 21.8131L168.456 21.9023C168.357 21.4614 168.357 21.004 168.456 20.5631C169.295 20.7327 168.639 20.4381 168.902 21.8131ZM169.956 24.1345C169.564 23.872 169.227 23.5353 168.965 23.1434L169.34 22.9023C169.563 23.2441 169.855 23.536 170.197 23.7595L169.956 24.1345ZM171.197 24.6345L171.277 24.1881C171.661 24.2595 172.054 24.2595 172.438 24.1881L172.518 24.6345C172.082 24.7193 171.633 24.7193 171.197 24.6345ZM171.857 23.3756C171.435 23.3756 171.023 23.2504 170.672 23.0159C170.321 22.7814 170.047 22.4482 169.886 22.0583C169.724 21.6683 169.682 21.2393 169.764 20.8253C169.847 20.4114 170.05 20.0312 170.348 19.7327C170.647 19.4343 171.027 19.231 171.441 19.1487C171.855 19.0664 172.284 19.1086 172.674 19.2701C173.064 19.4316 173.397 19.7052 173.632 20.0561C173.866 20.407 173.991 20.8196 173.991 21.2416C173.991 21.8076 173.767 22.3504 173.366 22.7505C172.966 23.1507 172.423 23.3756 171.857 23.3756ZM173.759 24.1345L173.518 23.7595C173.86 23.536 174.152 23.2441 174.375 22.9023L174.75 23.1434C174.488 23.5353 174.151 23.872 173.759 24.1345ZM174.375 19.5809C174.152 19.2391 173.86 18.9473 173.518 18.7238L173.759 18.3488C174.152 18.6104 174.489 18.9473 174.75 19.3398L174.375 19.5809ZM174.822 20.6613L175.268 20.5809C175.367 21.0219 175.367 21.4792 175.268 21.9202C174.424 21.7327 175.063 22.0407 174.813 20.6613H174.822Z" fill="#CBBD9F"/>
<path d="M161.143 30.1976C161.529 28.9823 161.427 27.6647 160.859 26.5233C160.29 25.3819 159.301 24.5062 158.098 24.0815C159.102 23.5272 160.227 23.2291 161.373 23.2135C162.519 23.198 163.652 23.4654 164.67 23.9922L163.375 25.894L163.447 26.2154C164.423 26.7587 165.51 27.076 166.625 27.144C164.647 27.8631 162.796 28.894 161.143 30.1976Z" fill="#2D6B67"/>
<path d="M168.438 16.5187C166.143 18.7853 163.311 20.432 160.206 21.3044C160.087 21.0103 159.95 20.724 159.795 20.4473C160.844 19.6875 161.811 18.8196 162.679 17.858C163.739 17.6959 164.755 17.3213 165.666 16.7567C166.577 16.1921 167.365 15.4491 167.982 14.5723C169.179 14.8491 169.456 14.9517 168.438 16.5187Z" fill="#CBBD9F"/>
<path d="M162 17.894C161.257 18.6918 160.437 19.4155 159.554 20.0547C159.405 19.8275 159.228 19.6205 159.027 19.4386C159.706 18.9382 160.35 18.3923 160.955 17.8047C161.296 17.8918 161.649 17.922 162 17.894Z" fill="#C93112"/>
<path d="M169.688 12.6348C169.179 11.8178 168.237 11.608 167.902 9.67049L168.25 9.63477C168.661 9.89369 169.482 11.1839 169.688 12.6348Z" fill="#2D6B67"/>
<path d="M169.536 13.599C169.04 13.0365 168.027 12.7776 167.634 12.3133C167.053 11.5667 166.747 10.6429 166.768 9.69727C166.988 9.71288 167.209 9.71288 167.429 9.69727C167.902 12.3624 169.415 12.1482 169.536 13.599Z" fill="#2D6B67"/>
<path d="M169.25 15.0709C169.031 13.3164 164.844 15.3968 165.741 9.59766C165.938 9.63337 166.134 9.66015 166.322 9.67801C166.302 10.7382 166.649 11.7727 167.304 12.6066C168.085 13.5262 169.933 13.428 169.25 15.0709Z" fill="#2D6B67"/>
<path d="M169.625 7.58873C169.29 8.05194 169.042 8.57234 168.893 9.12444C166.759 9.30301 165.844 9.48604 162.795 8.04408C162.863 7.47725 162.83 6.90283 162.697 6.34766C164.901 7.21625 167.256 7.63811 169.625 7.58873Z" fill="#CBBD9F"/>
<path d="M169.322 7.14328C167.223 7.14561 165.142 6.76747 163.179 6.02721C164.158 5.41531 165.33 5.19059 166.466 5.39699C167.602 5.60339 168.62 6.22606 169.322 7.14328Z" fill="#C93112"/>
<path d="M156.581 14.7059C156.848 14.6692 157.093 14.5368 157.27 14.3332C157.448 14.1297 157.545 13.8687 157.545 13.5988C157.509 13.4827 156.973 12.4381 156.429 11.4023C155.884 12.4381 155.357 13.4916 155.313 13.6345C155.319 13.8144 155.369 13.9901 155.46 14.1458C155.55 14.3016 155.677 14.4326 155.831 14.5273C155.96 14.6122 155.929 14.3354 155.929 21.1523H156.17C156.229 21.1523 156.286 21.1759 156.328 21.2177C156.37 21.2596 156.393 21.3164 156.393 21.3756C156.393 21.4348 156.37 21.4915 156.328 21.5334C156.286 21.5753 156.229 21.5988 156.17 21.5988H155.929V22.0229H156.17C156.229 22.0229 156.286 22.0464 156.328 22.0883C156.37 22.1301 156.393 22.1869 156.393 22.2461C156.393 22.3053 156.37 22.3621 156.328 22.4039C156.286 22.4458 156.229 22.4693 156.17 22.4693H155.929V22.8666H156.17C156.229 22.8666 156.286 22.8901 156.328 22.932C156.37 22.9739 156.393 23.0306 156.393 23.0898C156.393 23.149 156.37 23.2058 156.328 23.2477C156.286 23.2895 156.229 23.3131 156.17 23.3131H155.929V23.8309C156.252 23.9394 156.599 23.9533 156.929 23.8711V19.8086C156.819 19.6975 156.753 19.5504 156.743 19.3945C156.734 19.2386 156.78 19.0844 156.875 18.9604C156.951 18.8443 156.929 19.4827 156.929 15.0675C156.824 15.0993 156.716 15.1232 156.607 15.1389C156.558 15.1302 156.513 15.1051 156.48 15.0677C156.447 15.0304 156.427 14.9829 156.424 14.933C156.421 14.883 156.434 14.8335 156.463 14.7923C156.491 14.7511 156.533 14.7207 156.581 14.7059Z" fill="#CBBD9F"/>
<path d="M173.545 21.2422C173.545 21.5759 173.446 21.9022 173.26 22.1797C173.075 22.4572 172.811 22.6735 172.503 22.8012C172.195 22.929 171.855 22.9624 171.528 22.8973C171.201 22.8321 170.9 22.6714 170.664 22.4354C170.428 22.1994 170.267 21.8988 170.202 21.5714C170.137 21.2441 170.17 20.9048 170.298 20.5964C170.426 20.2881 170.642 20.0245 170.92 19.8391C171.197 19.6537 171.523 19.5547 171.857 19.5547C172.304 19.5559 172.733 19.734 173.049 20.0503C173.365 20.3665 173.544 20.795 173.545 21.2422Z" fill="#2D6B67"/>
<path d="M159.286 28.7149C159.285 29.0474 159.186 29.3721 159 29.6482C158.815 29.9243 158.552 30.1393 158.245 30.2662C157.937 30.393 157.599 30.426 157.273 30.3609C156.947 30.2958 156.648 30.1356 156.413 29.9005C156.178 29.6654 156.017 29.3659 155.952 29.0398C155.887 28.7138 155.92 28.3757 156.047 28.0684C156.174 27.761 156.389 27.4981 156.665 27.3129C156.941 27.1276 157.266 27.0283 157.598 27.0274C157.82 27.0262 158.04 27.069 158.246 27.1534C158.451 27.2378 158.637 27.3621 158.794 27.519C158.951 27.6759 159.075 27.8624 159.16 28.0677C159.244 28.273 159.287 28.4929 159.286 28.7149Z" fill="#C93112"/>
<path d="M165.978 39.2867C165.978 39.1706 165.978 39.05 165.978 38.934C165.977 38.9047 165.981 38.8754 165.992 38.8479C166.002 38.8203 166.017 38.795 166.037 38.7735C166.057 38.7519 166.081 38.7345 166.107 38.7222C166.134 38.7099 166.163 38.703 166.192 38.7018C166.252 38.7006 166.31 38.7229 166.353 38.7638C166.396 38.8047 166.422 38.861 166.424 38.9206C166.424 39.0367 166.424 39.1572 166.424 39.2733C166.424 39.3325 166.401 39.3892 166.359 39.4311C166.317 39.473 166.26 39.4965 166.201 39.4965C166.142 39.4965 166.085 39.473 166.043 39.4311C166.001 39.3892 165.978 39.3325 165.978 39.2733V39.2867ZM172.88 18.3045L172.965 17.8581C172.522 17.771 172.067 17.771 171.625 17.8581L171.71 18.3045C172.096 18.2286 172.494 18.2286 172.88 18.3045ZM170.648 18.7509L170.402 18.3759C170.01 18.6344 169.674 18.9701 169.415 19.3625L169.786 19.6081C170.01 19.2575 170.303 18.9566 170.648 18.7242V18.7509ZM168.907 20.6081C168.822 21.0505 168.822 21.5049 168.907 21.9474L169.353 21.8625C169.282 21.4819 169.282 21.0914 169.353 20.7108L168.907 20.6081ZM175.701 20.6081L175.255 20.6929C175.328 21.0733 175.328 21.4643 175.255 21.8447L175.701 21.9295C175.787 21.4842 175.787 21.0266 175.701 20.5813V20.6081ZM174.206 18.3759L173.96 18.7509C174.302 18.9756 174.595 19.2671 174.822 19.6081L175.192 19.3625C174.937 18.9604 174.601 18.6154 174.206 18.3492V18.3759ZM174.063 25.7554C174.309 25.8266 174.548 25.9208 174.777 26.0367C174.937 26.0955 175.075 26.2003 175.175 26.3377C175.275 26.4751 175.332 26.6391 175.34 26.809C175.341 26.9253 175.31 27.0397 175.25 27.1393C175.395 27.2511 175.492 27.4141 175.521 27.5949C175.551 27.7758 175.509 27.961 175.407 28.1125C175.494 28.2416 175.537 28.3959 175.528 28.5517C175.519 28.7074 175.459 28.8559 175.357 28.9742C175.398 29.0554 175.421 29.1443 175.425 29.2351C175.429 29.3259 175.413 29.4165 175.38 29.5009C175.346 29.5852 175.295 29.6615 175.229 29.7246C175.164 29.7877 175.086 29.8363 175 29.867C174.749 29.9917 174.476 30.066 174.197 30.0858V35.1483C174.388 35.2936 174.543 35.4812 174.65 35.6965C174.757 35.9119 174.813 36.149 174.813 36.3893C174.813 36.5813 174.313 37.5009 173.25 39.5456C173.116 39.2911 171.746 36.7152 171.692 36.4206C171.692 36.4206 171.692 36.3938 171.692 36.3715C171.692 36.1311 171.748 35.894 171.855 35.6787C171.962 35.4634 172.117 35.2757 172.308 35.1304V31.2063C171.961 31.1606 171.626 31.0436 171.326 30.8626L171.246 30.809C170.621 31.2705 170.024 31.77 169.46 32.3045C169.875 32.4744 170.239 32.7493 170.516 33.1023C170.793 33.4552 170.974 33.8741 171.04 34.3179V34.3759V34.4206V34.4429C171.04 34.4429 171.04 34.4429 171.04 34.4786L171.009 34.5054L170.974 34.5277C170.951 34.5277 170.973 34.5277 170.911 34.5501H170.826C170.782 34.5501 169.844 34.1036 169.268 34.3492C169.169 34.3937 169.084 34.4633 169.021 34.551C168.957 34.6387 168.918 34.7415 168.907 34.8492C168.777 35.559 168.527 36.3134 167.88 36.6349C167.944 36.8038 167.95 36.9892 167.898 37.162C167.845 37.3349 167.737 37.4855 167.59 37.5902L168.072 37.809L168.143 38.1661C167.804 38.4698 167.546 38.8535 167.393 39.2822C167.25 39.8447 167.509 40.7465 167.094 41.3759C167.54 41.5724 167.54 41.5724 167.585 41.6438C167.683 41.7867 167.558 41.8759 167.558 42.4518C167.568 42.9465 167.644 43.4376 167.786 43.9116L167.487 44.1795L167.322 44.1125C166.764 44.5093 166.133 44.7906 165.465 44.94C164.798 45.0894 164.107 45.1038 163.433 44.9823C162.76 44.8609 162.118 44.606 161.544 44.2328C160.971 43.8596 160.478 43.3755 160.094 42.809H159.804L159.616 42.4474C160.679 41.1081 160.447 40.5322 160.706 40.4117C160.75 40.3935 160.796 40.3829 160.844 40.3804C159.971 39.2898 159.488 37.9381 159.474 36.5411C159.468 35.8449 159.621 35.1565 159.92 34.5277L158.581 33.3179C157.484 33.6917 156.285 33.6244 155.237 33.1304C154.388 32.7252 153.674 32.0847 153.178 31.2852C152.683 30.4857 152.427 29.5607 152.443 28.6203C152.458 27.6798 152.742 26.7635 153.263 25.9802C153.784 25.197 154.518 24.5797 155.38 24.2018C155.133 24.1314 154.894 24.0372 154.665 23.9206C154.506 23.8617 154.367 23.757 154.267 23.6195C154.167 23.4821 154.11 23.3181 154.103 23.1483C154.1 23.0324 154.129 22.9179 154.188 22.8179C154.043 22.7055 153.947 22.5422 153.919 22.3614C153.891 22.1805 153.933 21.9957 154.036 21.8447C153.948 21.7156 153.906 21.5613 153.915 21.4056C153.923 21.2498 153.983 21.1013 154.085 20.9831C154.029 20.885 154.005 20.7724 154.014 20.66C154.024 20.5477 154.067 20.4408 154.139 20.3536C154.429 20.0562 154.826 19.8861 155.241 19.8804V14.8402C155.051 14.694 154.897 14.506 154.791 14.2909C154.685 14.0757 154.63 13.839 154.63 13.5992C154.63 13.4295 154.893 12.9384 156.192 10.4429C156.375 10.7956 157.607 13.1215 157.732 13.492C157.739 13.5275 157.739 13.5637 157.732 13.5992C157.732 13.8395 157.677 14.0766 157.57 14.2919C157.463 14.5072 157.308 14.6949 157.116 14.8402V18.7509C157.464 18.7974 157.798 18.9144 158.099 19.0947L158.179 19.1483C158.804 18.6867 159.4 18.1873 159.965 17.6527C159.55 17.4825 159.186 17.2074 158.909 16.8545C158.632 16.5017 158.451 16.0829 158.384 15.6393C158.381 15.6231 158.381 15.6065 158.384 15.5902C158.38 15.5741 158.38 15.5572 158.384 15.5411V15.5054L158.415 15.4697C158.447 15.4398 158.487 15.42 158.53 15.4128C158.573 15.4056 158.617 15.4115 158.657 15.4295C159 15.5873 159.372 15.6753 159.75 15.6884C160.197 15.6884 160.46 15.5322 160.536 15.117C160.665 14.4027 160.915 13.6527 161.563 13.3313C161.497 13.1626 161.49 12.9767 161.543 12.8034C161.595 12.6302 161.705 12.4797 161.853 12.3759L161.371 12.1572L161.299 11.8C161.978 11.0813 162.099 10.8358 162.099 10.0902C162.034 9.57654 162.12 9.05509 162.348 8.59022L161.938 8.39826C161.886 8.36929 161.848 8.32124 161.831 8.26434C161.831 8.20184 161.831 8.1572 161.831 7.98755C161.901 7.33687 161.835 6.67873 161.639 6.05451L161.938 5.78219L162.103 5.85362C162.66 5.45685 163.292 5.17552 163.959 5.02616C164.627 4.87679 165.318 4.86241 165.991 4.98386C166.665 5.10531 167.307 5.36014 167.88 5.73336C168.454 6.10659 168.947 6.59068 169.331 7.15719H169.545L169.732 7.5188C169.249 8.07149 168.912 8.73587 168.75 9.45184C168.724 9.50331 168.679 9.54311 168.625 9.56345L168.505 9.58576C168.796 9.9221 169.038 10.2978 169.223 10.7018C169.938 12.1795 170.148 13.9474 169.433 15.4384L170.773 16.6483C171.237 16.4907 171.724 16.4108 172.215 16.4117C175.697 16.4117 178.223 20.4831 176.148 23.8402C175.657 24.6636 174.931 25.3213 174.063 25.7286V25.7554ZM169.277 15.8179C166.622 18.8493 163.095 20.9869 159.179 21.9384C159.463 22.3169 159.77 22.6777 160.099 23.0188L160.357 22.9563C163.268 22.2401 165.97 20.8501 168.246 18.8983C168.735 18.0071 169.488 17.2896 170.402 16.8447L169.277 15.8179ZM167.857 19.7911C166.211 21.0811 164.37 22.0999 162.402 22.809C163.5 22.8871 164.567 23.2072 165.527 23.7465L165.603 24.0679L164.326 25.9831C165.346 26.5133 166.482 26.783 167.631 26.7682C168.781 26.7534 169.909 26.4545 170.915 25.8983C169.703 25.4798 168.703 24.6039 168.128 23.4577C167.554 22.3115 167.45 20.9859 167.84 19.7643L167.857 19.7911ZM161.607 30.2152C163.254 28.9253 165.095 27.9065 167.063 27.1974C165.965 27.1199 164.897 26.7997 163.938 26.2599L163.822 25.8938L165.103 23.9786C164.082 23.4496 162.947 23.1806 161.798 23.1953C160.648 23.2101 159.52 23.5083 158.514 24.0634C159.724 24.4819 160.722 25.3564 161.297 26.5006C161.871 27.6447 161.976 28.968 161.59 30.1884L161.607 30.2152ZM166.072 9.70629C165.889 9.70629 165.697 9.66166 165.496 9.63041C164.603 15.434 168.84 13.3715 169.032 15.0858C169.118 14.9261 169.165 14.7485 169.171 14.5671C169.176 14.3858 169.139 14.2057 169.063 14.0411C168.71 13.4563 167.621 13.2643 167.067 12.6393C166.407 11.796 166.06 10.75 166.085 9.67951L166.072 9.70629ZM167.411 12.3447C167.857 12.8313 168.804 13.0411 169.308 13.6125C169.188 12.1706 167.665 12.3849 167.201 9.72862C166.96 9.72862 166.755 9.72862 166.532 9.72862C166.525 10.6667 166.837 11.5793 167.415 12.3179L167.411 12.3447ZM167.536 14.5768C166.438 16.3 164.219 17.5724 162.224 17.867C161.356 18.8228 160.394 19.6888 159.353 20.4518C159.511 20.731 159.647 21.022 159.759 21.3224C162.863 20.4376 165.694 18.7857 167.991 16.5188C168.29 16.1223 168.499 15.6652 168.603 15.1795C168.605 15.1364 168.599 15.0932 168.585 15.0526C168.57 15.0119 168.547 14.9746 168.518 14.9429C168.223 14.7471 167.89 14.6148 167.54 14.5545L167.536 14.5768ZM168.148 9.75986C168.106 9.72341 168.063 9.68915 168.018 9.65719L167.648 9.6929C168 11.6259 168.947 11.8313 169.465 12.6572C169.322 11.5765 168.866 10.5613 168.152 9.73755L168.148 9.75986ZM162.706 6.05898C164.678 6.80663 166.771 7.1864 168.88 7.17951C168.174 6.26015 167.154 5.6346 166.014 5.42355C164.875 5.2125 163.698 5.43092 162.71 6.03666L162.706 6.05898ZM165.384 9.1438H165.424C166.438 9.31347 167.473 9.31347 168.487 9.1438C168.618 8.58726 168.853 8.06029 169.179 7.59023C166.81 7.64025 164.456 7.21521 162.255 6.34023C162.392 6.89931 162.425 7.47891 162.353 8.05005C163.303 8.54453 164.317 8.90509 165.366 9.12147L165.384 9.1438ZM167.112 14.4474C166.459 14.2774 165.888 13.8781 165.505 13.3224C164.822 12.2867 164.898 10.7643 165.09 9.54559C164.321 9.37283 163.573 9.11995 162.857 8.79112C162.813 8.84357 162.777 8.90223 162.75 8.96522C162.728 9.05766 162.728 9.15403 162.75 9.24647C162.848 9.43844 163.728 9.34916 164.456 9.99648C164.478 10.0161 164.496 10.0399 164.508 10.0665C164.521 10.093 164.529 10.1218 164.53 10.1513C164.532 10.1807 164.528 10.2102 164.518 10.238C164.508 10.2658 164.493 10.2915 164.473 10.3134C164.454 10.3354 164.43 10.3533 164.404 10.3661C164.377 10.3789 164.348 10.3864 164.319 10.388C164.289 10.3897 164.26 10.3855 164.232 10.3758C164.204 10.3661 164.179 10.3509 164.157 10.3313C163.598 9.83577 163.027 9.88487 162.648 9.71523C162.648 9.74202 162.648 10.0009 162.648 10.0992C162.67 10.4309 162.617 10.7634 162.495 11.0723C162.372 11.3813 162.182 11.6589 161.938 11.8849L162.831 12.2777C163.057 12.3608 163.254 12.5082 163.397 12.7017C163.541 12.8952 163.625 13.1265 163.639 13.367C163.654 13.59 163.654 13.8137 163.639 14.0367L163.353 14.2465C162.873 14.1093 162.41 13.9223 161.969 13.6884C161.865 13.7253 161.769 13.7797 161.683 13.8491C161.342 14.2179 161.13 14.6882 161.081 15.1884C161.06 15.3338 161.009 15.4733 160.933 15.5984C160.856 15.7236 160.754 15.8317 160.634 15.9161C160.383 16.0451 160.107 16.118 159.825 16.1295C159.542 16.1411 159.261 16.0911 159 15.9831C159.112 16.3017 159.294 16.5914 159.532 16.8313C161.027 18.3536 165.375 16.9652 167.094 14.425L167.112 14.4474ZM162.081 13.1795C162.127 13.2599 162.197 13.3239 162.282 13.3625C162.571 13.5057 162.869 13.6295 163.174 13.7331C163.174 13.2152 163.081 12.8849 162.616 12.6929C162.241 12.5233 161.933 12.9072 162.063 13.1572L162.081 13.1795ZM158.603 19.4697C158.802 19.6514 158.981 19.855 159.134 20.0768C160.01 19.4312 160.828 18.7113 161.581 17.925C161.224 17.9414 160.867 17.9129 160.518 17.8402C159.91 18.418 159.264 18.9549 158.585 19.4474L158.603 19.4697ZM157.116 19.2286C157.081 19.2286 157.047 19.2427 157.022 19.2678C156.997 19.293 156.982 19.327 156.982 19.3625C157.002 19.4613 157.047 19.5534 157.112 19.6304C157.264 19.8313 157.5 19.9965 157.692 20.2331C157.84 20.42 157.946 20.6359 158.004 20.8666C158.063 21.0974 158.072 21.3378 158.032 21.5724C158.021 21.6316 157.987 21.6841 157.938 21.7184C157.888 21.7528 157.827 21.7661 157.768 21.7554C157.709 21.7448 157.656 21.711 157.622 21.6616C157.588 21.6122 157.574 21.5512 157.585 21.492C157.615 21.3185 157.608 21.1407 157.565 20.9701C157.522 20.7994 157.443 20.6396 157.335 20.5009C157.282 20.4366 157.226 20.3755 157.165 20.3179V23.8893C157.417 23.8894 157.668 23.9103 157.915 23.9518C158.448 23.6158 159.021 23.3488 159.621 23.1572C159.261 22.7687 158.927 22.3571 158.621 21.925L158.759 21.5813L159.34 21.4429C159.083 20.6657 158.584 19.9913 157.915 19.5188C157.67 19.3526 157.391 19.2428 157.098 19.1974L157.116 19.2286ZM156.349 23.9608C156.384 23.9608 156.469 23.934 156.728 23.9072V19.8625C156.616 19.7182 156.55 19.5444 156.536 19.3625C156.533 19.2786 156.549 19.1951 156.582 19.1179C156.615 19.0408 156.665 18.9718 156.728 18.9161V15.0813C156.634 15.1161 156.537 15.14 156.438 15.1527C156.408 15.1568 156.379 15.1551 156.35 15.1477C156.321 15.1403 156.294 15.1273 156.271 15.1094C156.247 15.0916 156.227 15.0693 156.212 15.0438C156.197 15.0183 156.187 14.9901 156.183 14.9608C156.179 14.9315 156.181 14.9016 156.188 14.873C156.196 14.8443 156.209 14.8174 156.227 14.7938C156.244 14.7701 156.267 14.7503 156.292 14.7352C156.318 14.7202 156.346 14.7104 156.375 14.7063C156.639 14.671 156.882 14.5421 157.059 14.343C157.236 14.1439 157.335 13.8878 157.34 13.6215C157.241 13.3536 156.259 11.4652 156.228 11.3893C156.072 11.6884 155.228 13.2956 155.112 13.6215C155.116 13.8039 155.164 13.9827 155.253 14.1422C155.342 14.3017 155.468 14.4371 155.621 14.5367C155.66 14.5615 155.691 14.5981 155.709 14.6414C155.726 14.6846 155.73 14.7323 155.719 14.7777C155.719 14.8224 155.719 14.4027 155.719 20.684C155.719 20.7432 155.696 20.8 155.654 20.8418C155.612 20.8837 155.555 20.9072 155.496 20.9072C155.437 20.9072 155.38 20.8837 155.338 20.8418C155.296 20.8 155.273 20.7432 155.273 20.684V20.3491C154.998 20.3608 154.735 20.4646 154.527 20.6438C154.503 20.6688 154.489 20.7025 154.489 20.7376C154.489 20.7726 154.503 20.8063 154.527 20.8313C154.768 21.1304 155.572 21.1706 155.956 21.1706C156.015 21.1706 156.072 21.1941 156.113 21.236C156.155 21.2778 156.179 21.3346 156.179 21.3938C156.179 21.453 156.155 21.5098 156.113 21.5516C156.072 21.5935 156.015 21.617 155.956 21.617C155.432 21.6458 154.909 21.5446 154.433 21.3224C154.241 21.6081 154.652 21.8581 154.987 21.9429C155.305 22.0113 155.63 22.0443 155.956 22.0411C156.015 22.0411 156.072 22.0646 156.113 22.1065C156.155 22.1484 156.179 22.2051 156.179 22.2643C156.179 22.3235 156.155 22.3803 156.113 22.4222C156.072 22.464 156.015 22.4875 155.956 22.4875C155.592 22.4907 155.23 22.4532 154.875 22.3759C154.708 22.3353 154.549 22.2691 154.402 22.1795C154.326 22.3938 154.532 22.55 154.737 22.6527C155.125 22.8078 155.538 22.8881 155.956 22.8893C156.015 22.8893 156.072 22.9128 156.113 22.9547C156.155 22.9966 156.179 23.0533 156.179 23.1125C156.179 23.1717 156.155 23.2285 156.113 23.2704C156.072 23.3123 156.015 23.3358 155.956 23.3358C155.497 23.3326 155.043 23.2448 154.616 23.0768C154.599 23.1226 154.594 23.172 154.601 23.2204C154.608 23.2688 154.627 23.3146 154.657 23.3536C154.848 23.6304 155.844 23.9384 156.331 23.9384L156.349 23.9608ZM158.884 32.7554C159.639 32.3898 160.276 31.8191 160.721 31.1085C161.166 30.3979 161.403 29.5762 161.403 28.7375C161.403 27.8989 161.166 27.0772 160.721 26.3666C160.276 25.656 159.639 25.0852 158.884 24.7197C158.349 24.4681 157.765 24.3377 157.174 24.3377C156.583 24.3377 155.999 24.4681 155.465 24.7197C154.71 25.0852 154.073 25.656 153.628 26.3666C153.182 27.0772 152.946 27.8989 152.946 28.7375C152.946 29.5762 153.182 30.3979 153.628 31.1085C154.073 31.8191 154.71 32.3898 155.465 32.7554C155.999 33.0007 156.58 33.1259 157.168 33.122C157.756 33.1182 158.335 32.9854 158.866 32.7331L158.884 32.7554ZM160.201 34.184C162.855 31.1508 166.382 29.0128 170.299 28.0634C170.015 27.685 169.708 27.3242 169.38 26.9831L169.121 27.0456C166.21 27.7618 163.508 29.1518 161.232 31.1036C160.744 31.9948 159.99 32.7123 159.076 33.1572L160.201 34.184ZM163.389 40.2956C163.576 40.2956 163.768 40.3402 163.965 40.3715C164.857 34.5679 160.625 36.6304 160.433 34.9161C160.346 35.0754 160.298 35.2531 160.292 35.4347C160.287 35.6162 160.325 35.7965 160.402 35.9608C160.755 36.5411 161.844 36.742 162.398 37.3625C163.047 38.1921 163.393 39.2197 163.375 40.2733L163.389 40.2956ZM162.049 37.6572C161.603 37.1751 160.657 36.9608 160.152 36.3893C160.165 36.6037 160.222 36.8132 160.317 37.0054C160.737 37.8045 161.875 38.0679 162.259 40.2733C162.5 40.2733 162.706 40.2733 162.929 40.2733C162.939 39.318 162.624 38.3875 162.036 37.6349L162.049 37.6572ZM161.924 35.4251C163.018 33.7018 165.237 32.4295 167.237 32.1349C168.105 31.1784 169.067 30.311 170.107 29.5456C169.949 29.2684 169.813 28.9788 169.701 28.6795C166.6 29.5611 163.771 31.2083 161.473 33.4697C161.173 33.8652 160.964 34.3227 160.862 34.809C160.859 34.8521 160.866 34.8953 160.88 34.9359C160.895 34.9766 160.917 35.0139 160.947 35.0456C161.244 35.2282 161.575 35.3483 161.92 35.3983L161.924 35.4251ZM161.313 40.2375C161.353 40.2766 161.396 40.3124 161.442 40.3447L161.813 40.309C161.46 38.3759 160.514 38.1706 159.996 37.3447C160.145 38.4073 160.601 39.4034 161.308 40.2108L161.313 40.2375ZM166.755 43.9429C164.783 43.1949 162.69 42.8151 160.581 42.8224C161.292 43.7346 162.316 44.3511 163.456 44.5531C164.595 44.755 165.768 44.5281 166.75 43.9161L166.755 43.9429ZM164.076 40.8536H164.04C163.027 40.6817 161.992 40.6817 160.978 40.8536C160.832 41.4041 160.584 41.9221 160.246 42.3804C162.616 42.336 164.971 42.764 167.174 43.6393C167.037 43.0787 167.004 42.4977 167.076 41.925C166.135 41.4255 165.13 41.0561 164.09 40.8268L164.076 40.8536ZM162.353 35.5545C163.006 35.7256 163.576 36.1246 163.96 36.6795C164.643 37.7152 164.567 39.2375 164.375 40.4563C165.144 40.6291 165.892 40.8819 166.607 41.2108C166.653 41.1576 166.689 41.0972 166.715 41.0322C166.737 40.9413 166.737 40.8463 166.715 40.7554C166.612 40.5634 165.737 40.6527 165.009 40.0054C164.988 39.9846 164.972 39.96 164.96 39.9328C164.949 39.9056 164.943 39.8764 164.943 39.8469C164.943 39.8175 164.949 39.7883 164.96 39.7611C164.972 39.7339 164.988 39.7092 165.009 39.6884C165.03 39.6677 165.054 39.6511 165.081 39.6399C165.108 39.6286 165.136 39.6228 165.165 39.6228C165.195 39.6228 165.223 39.6286 165.25 39.6399C165.277 39.6511 165.301 39.6677 165.322 39.6884C165.884 40.184 166.456 40.1349 166.835 40.3045V39.9206C166.813 39.5889 166.865 39.2564 166.988 38.9474C167.111 38.6385 167.301 38.3609 167.545 38.1349L166.674 37.742C165.893 37.4206 165.826 36.7822 165.844 35.9831L166.13 35.7733C166.609 35.9104 167.073 36.0975 167.514 36.3313C167.617 36.2944 167.714 36.2401 167.799 36.1706C168.141 35.8019 168.353 35.3315 168.402 34.8313C168.423 34.686 168.473 34.5464 168.55 34.4213C168.627 34.2961 168.728 34.188 168.848 34.1036C169.1 33.9746 169.376 33.9018 169.658 33.8902C169.94 33.8787 170.222 33.9286 170.482 34.0367C170.37 33.7181 170.189 33.4284 169.951 33.1884C168.433 31.5992 164.085 32.9786 162.366 35.5277L162.353 35.5545ZM167.384 36.8224C167.338 36.742 167.268 36.678 167.183 36.6393C166.894 36.4963 166.596 36.3725 166.29 36.2688C166.29 36.7822 166.384 37.117 166.853 37.309C167.215 37.4295 167.527 37.0545 167.393 36.7956L167.384 36.8224ZM170.862 30.5322C170.662 30.3505 170.484 30.1468 170.331 29.925C169.453 30.5684 168.634 31.2885 167.884 32.0768C168.241 32.0605 168.597 32.089 168.947 32.1617C169.552 31.5672 170.196 31.0139 170.875 30.5054L170.862 30.5322ZM172.348 30.7733C172.384 30.7733 172.418 30.7592 172.443 30.734C172.468 30.7089 172.482 30.6749 172.482 30.6393C172.461 30.5412 172.416 30.4495 172.353 30.3715C172.201 30.1706 171.96 30.0009 171.773 29.7688C171.625 29.582 171.519 29.3661 171.46 29.1354C171.402 28.9046 171.392 28.6641 171.433 28.4295C171.444 28.3703 171.478 28.3178 171.527 28.2834C171.577 28.2491 171.638 28.2358 171.697 28.2465C171.756 28.2571 171.808 28.2909 171.843 28.3403C171.877 28.3897 171.89 28.4507 171.88 28.5099C171.85 28.6834 171.857 28.8612 171.9 29.0318C171.943 29.2025 172.021 29.3623 172.13 29.5009C172.183 29.5652 172.239 29.6264 172.299 29.684V26.1125C172.048 26.1124 171.797 26.0915 171.549 26.0501C171.015 26.3859 170.441 26.6529 169.84 26.8447C170.201 27.2318 170.535 27.6435 170.84 28.0768L170.706 28.4206L170.125 28.559C170.381 29.3365 170.881 30.011 171.549 30.4831C171.798 30.6282 172.075 30.7181 172.362 30.7465L172.348 30.7733ZM173.116 26.0411C173.081 26.0411 173 26.0679 172.737 26.0947V30.1393C172.848 30.2837 172.915 30.4575 172.929 30.6393C172.932 30.7233 172.916 30.8068 172.883 30.884C172.85 30.9611 172.8 31.03 172.737 31.0858V34.9161C172.831 34.8849 172.928 34.8625 173.027 34.8492C173.086 34.8409 173.146 34.8564 173.194 34.8924C173.242 34.9284 173.273 34.9819 173.282 35.0411C173.29 35.1003 173.274 35.1604 173.238 35.2081C173.202 35.2558 173.149 35.2873 173.09 35.2956C172.825 35.3308 172.582 35.4595 172.404 35.6585C172.227 35.8575 172.126 36.1136 172.121 36.3804C172.223 36.6483 173.206 38.5367 173.237 38.6125C173.389 38.3224 174.237 36.7063 174.353 36.3804C174.349 36.1974 174.301 36.0181 174.211 35.8584C174.121 35.6988 173.994 35.5637 173.84 35.4652C173.801 35.4393 173.772 35.4024 173.755 35.3593C173.738 35.3162 173.735 35.2691 173.746 35.2242C173.746 35.1795 173.746 35.5992 173.746 29.3134C173.747 29.2546 173.771 29.1985 173.812 29.1569C173.854 29.1152 173.91 29.0914 173.969 29.0902C174.028 29.0902 174.085 29.1137 174.127 29.1556C174.169 29.1975 174.192 29.2542 174.192 29.3134V29.6527C174.468 29.6417 174.733 29.5379 174.942 29.3581C174.955 29.346 174.965 29.3315 174.972 29.3153C174.979 29.2992 174.982 29.2819 174.982 29.2643C174.982 29.2468 174.979 29.2295 174.972 29.2133C174.965 29.1972 174.955 29.1827 174.942 29.1706C174.706 28.8715 173.902 28.8313 173.518 28.8313C173.459 28.8313 173.402 28.8078 173.36 28.7659C173.318 28.7241 173.295 28.6673 173.295 28.6081C173.295 28.5489 173.318 28.4921 173.36 28.4502C173.402 28.4084 173.459 28.3849 173.518 28.3849C174.042 28.3566 174.565 28.4578 175.04 28.6795C175.232 28.3938 174.817 28.1438 174.487 28.059C174.169 27.9906 173.844 27.9576 173.518 27.9608C173.459 27.9608 173.402 27.9372 173.36 27.8954C173.318 27.8535 173.295 27.7968 173.295 27.7376C173.295 27.6784 173.318 27.6216 173.36 27.5797C173.402 27.5379 173.459 27.5143 173.518 27.5143C173.88 27.511 174.241 27.5484 174.594 27.6259C174.763 27.6658 174.924 27.7321 175.072 27.8224C175.148 27.6081 174.942 27.4518 174.737 27.3492C174.35 27.1924 173.936 27.112 173.518 27.1126C173.459 27.1126 173.402 27.089 173.36 27.0472C173.318 27.0053 173.295 26.9485 173.295 26.8893C173.295 26.8301 173.318 26.7734 173.36 26.7315C173.402 26.6896 173.459 26.6661 173.518 26.6661C173.977 26.6697 174.431 26.7575 174.857 26.925C174.875 26.8793 174.88 26.8299 174.873 26.7815C174.866 26.7331 174.847 26.6873 174.817 26.6483C174.328 26.2788 173.742 26.0586 173.13 26.0143L173.116 26.0411ZM176.532 21.2688C176.52 20.431 176.278 19.6127 175.831 18.9038C175.385 18.1949 174.751 17.623 174 17.2509C173.465 16.9994 172.882 16.869 172.29 16.869C171.699 16.869 171.116 16.9994 170.581 17.2509C169.826 17.6165 169.189 18.1873 168.744 18.8979C168.299 19.6085 168.062 20.4302 168.062 21.2688C168.062 22.1075 168.299 22.9291 168.744 23.6397C169.189 24.3503 169.826 24.9211 170.581 25.2867C171.116 25.5382 171.699 25.6686 172.29 25.6686C172.882 25.6686 173.465 25.5382 174 25.2867C174.758 24.9149 175.397 24.3396 175.846 23.6254C176.296 22.9111 176.538 22.0859 176.545 21.242L176.532 21.2688ZM174.424 21.2688C174.424 21.6909 174.299 22.1034 174.065 22.4543C173.83 22.8053 173.497 23.0788 173.107 23.2403C172.717 23.4018 172.288 23.4441 171.874 23.3617C171.46 23.2794 171.08 23.0761 170.782 22.7777C170.483 22.4793 170.28 22.0991 170.198 21.6851C170.115 21.2712 170.157 20.8421 170.319 20.4522C170.48 20.0622 170.754 19.729 171.105 19.4945C171.456 19.26 171.868 19.1349 172.29 19.1349C172.854 19.1313 173.396 19.3509 173.799 19.7457C174.201 20.1405 174.431 20.6784 174.438 21.242L174.424 21.2688ZM173.482 20.0768C173.247 19.8405 172.946 19.6794 172.618 19.614C172.291 19.5486 171.952 19.5818 171.643 19.7094C171.334 19.837 171.071 20.0533 170.885 20.3309C170.699 20.6085 170.6 20.9349 170.6 21.2688C170.6 21.6027 170.699 21.9291 170.885 22.2067C171.071 22.4843 171.334 22.7006 171.643 22.8282C171.952 22.9558 172.291 22.989 172.618 22.9236C172.946 22.8582 173.247 22.6971 173.482 22.4608C173.644 22.3049 173.773 22.1181 173.862 21.9116C173.95 21.7051 173.996 21.4829 173.998 21.2582C173.999 21.0336 173.955 20.8109 173.869 20.6034C173.783 20.3959 173.656 20.2077 173.496 20.05L173.482 20.0768ZM171.697 24.2242L171.612 24.6706C172.054 24.7577 172.509 24.7577 172.951 24.6706L172.866 24.2242C172.489 24.2895 172.102 24.2804 171.728 24.1974L171.697 24.2242ZM169.755 22.9251L169.384 23.1706C169.643 23.563 169.978 23.8987 170.371 24.1572L170.616 23.7867C170.283 23.5494 170 23.2472 169.786 22.8983L169.755 22.9251ZM173.929 23.7867L174.174 24.1572C174.567 23.8987 174.903 23.563 175.161 23.1706L174.79 22.9251C174.571 23.2547 174.289 23.5383 173.96 23.7599L173.929 23.7867ZM159.848 33.0143L159.54 33.3402L159.871 33.6438L160.174 33.3179L159.848 33.0143ZM162.125 31.5143L161.844 31.1661L161.496 31.4518L161.777 31.7956L162.125 31.5143ZM161.116 32.3804L160.808 32.0545L160.482 32.3625L160.79 32.6884L161.116 32.3804ZM163.192 30.7197L162.933 30.3536L162.567 30.6126L162.826 30.9786L163.192 30.7197ZM166.683 28.7956L166.5 28.3893L166.09 28.5679L166.273 28.9786L166.683 28.7956ZM165.478 29.3581L165.268 28.9652L164.871 29.1706L165.081 29.5679L165.478 29.3581ZM164.313 30.0009L164.081 29.6215L163.697 29.8536L163.929 30.2331L164.313 30.0009ZM167.92 28.3134L167.768 27.8938L167.349 28.05L167.5 28.4697L167.92 28.3134ZM169.183 27.9295L169.076 27.4831L168.63 27.5902L168.737 28.0366L169.183 27.9295ZM163.219 10.4786C163.19 10.4798 163.161 10.4867 163.134 10.499C163.108 10.5113 163.084 10.5287 163.064 10.5503C163.044 10.5718 163.028 10.5971 163.018 10.6246C163.008 10.6522 163.004 10.6814 163.005 10.7108V11.0634C163.005 11.1226 163.028 11.1794 163.07 11.2213C163.112 11.2631 163.169 11.2867 163.228 11.2867C163.287 11.2867 163.344 11.2631 163.386 11.2213C163.428 11.1794 163.451 11.1226 163.451 11.0634V10.7108C163.457 10.6803 163.456 10.649 163.449 10.6189C163.442 10.5888 163.428 10.5605 163.409 10.536C163.39 10.5116 163.366 10.4914 163.339 10.4769C163.311 10.4624 163.281 10.4538 163.25 10.4518L163.219 10.4786ZM156.549 31.6974L156.465 32.1438C156.907 32.2309 157.362 32.2309 157.804 32.1438L157.719 31.6974C157.341 31.7582 156.955 31.7492 156.581 31.6706L156.549 31.6974ZM159.643 30.3983C159.416 30.7382 159.123 31.0296 158.782 31.2554L159.027 31.6259C159.419 31.3691 159.755 31.0349 160.014 30.6438L159.643 30.3983ZM160.536 29.3983C160.62 28.9558 160.62 28.5014 160.536 28.059L160.09 28.1438C160.165 28.524 160.165 28.9154 160.09 29.2956L160.536 29.3983ZM154.197 28.1259L153.75 28.0411C153.666 28.4836 153.666 28.938 153.75 29.3804L154.197 29.2956C154.123 28.9092 154.123 28.5123 154.197 28.1259ZM154.643 30.3581L154.273 30.6036C154.53 30.9946 154.864 31.3288 155.255 31.5858L155.5 31.2152C155.158 30.991 154.865 30.6994 154.639 30.3581H154.643ZM159.29 28.7018C159.29 29.1239 159.164 29.5362 158.928 29.8866C158.693 30.2371 158.359 30.5099 157.969 30.6706C157.579 30.8313 157.15 30.8726 156.736 30.7894C156.322 30.7062 155.942 30.5022 155.644 30.2031C155.347 29.9041 155.144 29.5234 155.063 29.1093C154.981 28.6952 155.024 28.2662 155.187 27.8766C155.349 27.487 155.623 27.1543 155.975 26.9206C156.326 26.6868 156.739 26.5626 157.161 26.5634C157.442 26.564 157.72 26.6203 157.98 26.7289C158.239 26.8376 158.474 26.9965 158.672 27.1966C158.869 27.3966 159.025 27.6339 159.131 27.8945C159.236 28.1551 159.289 28.4341 159.286 28.7152L159.29 28.7018ZM158.353 27.5054C158.117 27.269 157.816 27.108 157.489 27.0426C157.162 26.9771 156.822 27.0104 156.514 27.138C156.205 27.2656 155.941 27.4819 155.756 27.7595C155.57 28.0371 155.471 28.3635 155.471 28.6974C155.471 29.0313 155.57 29.3577 155.756 29.6353C155.941 29.9129 156.205 30.1291 156.514 30.2568C156.822 30.3844 157.162 30.4176 157.489 30.3522C157.816 30.2868 158.117 30.1257 158.353 29.8893C158.664 29.573 158.838 29.1468 158.837 28.7031C158.836 28.2595 158.661 27.834 158.348 27.5188L158.353 27.5054ZM157.737 25.742L157.822 25.2956C157.38 25.2085 156.925 25.2085 156.482 25.2956L156.567 25.742C156.953 25.6687 157.349 25.6733 157.732 25.7554L157.737 25.742ZM159.679 27.0411L160.049 26.7956C159.791 26.4031 159.455 26.0674 159.063 25.809L158.817 26.1795C159.159 26.4101 159.451 26.7078 159.674 27.0545L159.679 27.0411ZM155.5 26.1795L155.255 25.809C154.864 26.0676 154.529 26.4033 154.273 26.7956L154.643 27.0411C154.869 26.7053 155.159 26.4171 155.496 26.1929L155.5 26.1795ZM169.581 16.9652L169.884 16.6393L169.558 16.3358L169.255 16.6617L169.581 16.9652ZM167.304 18.4652L167.585 18.8134L167.933 18.5277L167.652 18.184L167.304 18.4652ZM166.237 19.2599L166.496 19.6259L166.862 19.367L166.603 19.0009L166.237 19.2599ZM168.313 17.5992L168.621 17.925L168.947 17.617L168.639 17.2911L168.313 17.5992ZM163.951 20.6215L164.161 21.0143L164.558 20.809L164.349 20.4117L163.951 20.6215ZM161.505 21.6661L161.661 22.0858L162.081 21.9295L161.929 21.5099L161.505 21.6661ZM165.116 19.9786L165.349 20.3581L165.732 20.1259L165.5 19.7465L165.116 19.9786ZM162.746 21.184L162.929 21.5902L163.335 21.4117L163.157 21.0009L162.746 21.184ZM160.241 22.0501L160.353 22.4965L160.799 22.3893L160.692 21.9429L160.241 22.0501Z" fill="#1F1F1F"/>
</g>
</svg>
