<svg width="183" height="50" viewBox="0 0 183 50" fill="none" xmlns="http://www.w3.org/2000/svg">
<path d="M33.4821 0H2.23214C0.999364 0 0 0.999364 0 2.23214V47.7679C0 49.0006 0.999364 50 2.23214 50H33.4821C34.7149 50 35.7143 49.0006 35.7143 47.7679V2.23214C35.7143 0.999364 34.7149 0 33.4821 0Z" fill="#F9F1DF"/>
<path d="M6.081 9.37695C5.93153 9.37979 5.78555 9.42271 5.65833 9.50124C5.53111 9.57977 5.42732 9.69103 5.35779 9.82338C5.26726 9.66237 5.12588 9.53593 4.95579 9.46387C4.78571 9.3918 4.59653 9.37818 4.41788 9.42514C4.23923 9.4721 4.0812 9.57699 3.96854 9.72338C3.85587 9.86976 3.79494 10.0494 3.79529 10.2341C3.79529 11.1582 5.11225 11.6537 5.35779 12.243C5.60333 11.6537 6.92029 11.1582 6.92029 10.2341C6.92267 10.1224 6.90271 10.0113 6.8616 9.90743C6.82049 9.80353 6.75905 9.70889 6.68087 9.62906C6.6027 9.54922 6.50937 9.48579 6.40636 9.4425C6.30335 9.39921 6.19274 9.37693 6.081 9.37695Z" fill="#C93112"/>
<path d="M29.6301 40.4032C29.7803 40.4011 29.9272 40.3586 30.0553 40.28C30.1833 40.2014 30.2878 40.0898 30.3577 39.9568C30.4483 40.1178 30.5896 40.2442 30.7597 40.3163C30.9298 40.3883 31.119 40.402 31.2976 40.355C31.4763 40.308 31.6343 40.2031 31.747 40.0568C31.8597 39.9104 31.9206 39.7308 31.9202 39.546C31.9202 38.6219 30.5809 38.1264 30.3577 37.5371C30.1122 38.1264 28.7952 38.6219 28.7952 39.546C28.7929 39.6574 28.8127 39.7681 28.8535 39.8717C28.8943 39.9753 28.9554 40.0697 29.0331 40.1495C29.1108 40.2293 29.2036 40.2928 29.3061 40.3363C29.4086 40.3799 29.5187 40.4026 29.6301 40.4032Z" fill="#C93112"/>
<path d="M4.81403 7.18025V7.47935H3.40332V7.18025L3.73814 7.09542C3.77207 7.08945 3.80416 7.0757 3.83189 7.05525C3.85582 7.02958 3.87407 6.99916 3.88546 6.96596L5.10421 3.39453H5.80511L7.06403 6.96596C7.07425 6.9984 7.09271 7.02762 7.11761 7.05078C7.14389 7.0744 7.17645 7.08991 7.21136 7.09542L7.51939 7.18025V7.47935H5.80511V7.18025L6.30957 7.08649L6.05064 6.25167H4.5685L4.30511 7.07757L4.81403 7.18025ZM5.93011 5.899L5.29171 4.01953L4.68457 5.92131L5.93011 5.899Z" fill="#C93112"/>
<path d="M30.9076 42.5999V42.3008H32.3138V42.5999L31.979 42.6847C31.9451 42.6907 31.913 42.7044 31.8853 42.7249C31.8613 42.7506 31.8431 42.781 31.8317 42.8142L30.613 46.3856H29.9344L28.6755 42.8142C28.6668 42.781 28.6481 42.7514 28.6219 42.7294C28.5956 42.7057 28.563 42.6902 28.5281 42.6847L28.2201 42.5999V42.3008H29.9121V42.5999L29.4076 42.6936L29.6844 43.5195H31.1665L31.4299 42.6936L30.9076 42.5999ZM29.7871 43.8811L30.4255 45.7829L31.0326 43.8811H29.7871Z" fill="#C93112"/>
<path d="M20.7595 19.9785C20.168 19.9799 19.5876 20.1386 19.0776 20.4382C18.5677 20.7379 18.1467 21.1678 17.8577 21.6839C17.4955 21.0398 16.93 20.5341 16.2497 20.2458C15.5694 19.9576 14.8126 19.9031 14.098 20.0909C13.3834 20.2788 12.7513 20.6983 12.3007 21.2838C11.85 21.8694 11.6063 22.5879 11.6077 23.3267C11.6077 27.0232 16.8755 29.0053 17.8577 31.3624C18.8398 29.0053 24.1077 27.0232 24.1077 23.3267C24.1077 22.4387 23.7549 21.5871 23.127 20.9592C22.4991 20.3313 21.6475 19.9785 20.7595 19.9785Z" fill="#C93112"/>
<path d="M70.1965 0H38.9465C37.7137 0 36.7144 0.999364 36.7144 2.23214V47.7679C36.7144 49.0006 37.7137 50 38.9465 50H70.1965C71.4293 50 72.4286 49.0006 72.4286 47.7679V2.23214C72.4286 0.999364 71.4293 0 70.1965 0Z" fill="#F9F1DF"/>
<path d="M43.4383 10.2938C43.3121 10.1695 43.1422 10.0998 42.9651 10.0998C42.788 10.0998 42.618 10.1695 42.4918 10.2938L42.2061 10.584C42.2673 10.3837 42.3851 10.2054 42.5454 10.0706C42.6389 9.97694 42.7026 9.85768 42.7284 9.72786C42.7542 9.59804 42.741 9.46348 42.6903 9.3412C42.6397 9.21891 42.5539 9.11437 42.4439 9.04078C42.3339 8.96719 42.2046 8.92785 42.0722 8.92773C41.8948 8.92838 41.7247 8.99896 41.599 9.12416C41.5364 9.18603 41.4866 9.25972 41.4527 9.34095C41.4188 9.42218 41.4013 9.50934 41.4013 9.59738C41.4013 9.68541 41.4188 9.77257 41.4527 9.8538C41.4866 9.93504 41.5364 10.0087 41.599 10.0706C41.7593 10.2054 41.8771 10.3837 41.9383 10.584L41.6526 10.2938C41.5587 10.2007 41.4394 10.1375 41.3096 10.1121C41.1799 10.0867 41.0455 10.1003 40.9235 10.1511C40.8014 10.202 40.6972 10.2878 40.6238 10.3978C40.5505 10.5078 40.5114 10.637 40.5114 10.7693C40.5114 10.9015 40.5505 11.0307 40.6238 11.1407C40.6972 11.2507 40.8014 11.3366 40.9235 11.3874C41.0455 11.4382 41.1799 11.4518 41.3096 11.4264C41.4394 11.401 41.5587 11.3378 41.6526 11.2447L41.9829 10.9099C41.9972 11.1025 41.9729 11.2961 41.9116 11.4793C41.8503 11.6625 41.7531 11.8316 41.6258 11.9768V12.084H42.5186V11.9768C42.2626 11.6843 42.1326 11.3023 42.157 10.9143V10.8876L42.4874 11.2224C42.6135 11.3479 42.7843 11.4182 42.9622 11.4177C43.1401 11.4173 43.3105 11.3462 43.436 11.2201C43.5615 11.094 43.6318 10.9233 43.6314 10.7454C43.631 10.5674 43.5599 10.397 43.4338 10.2715L43.4383 10.2938Z" fill="#1F1F1F"/>
<path d="M65.7062 39.7042C65.8323 39.8286 66.0023 39.8983 66.1794 39.8983C66.3565 39.8983 66.5265 39.8286 66.6526 39.7042L66.9383 39.4141C66.8772 39.6144 66.7593 39.7927 66.599 39.9275C66.5055 40.0211 66.4418 40.1404 66.416 40.2702C66.3903 40.4 66.4035 40.5346 66.4541 40.6569C66.5048 40.7791 66.5905 40.8837 66.7005 40.9573C66.8105 41.0309 66.9399 41.0702 67.0723 41.0703C67.2497 41.0697 67.4197 40.9991 67.5455 40.8739C67.6081 40.812 67.6578 40.7383 67.6918 40.6571C67.7257 40.5759 67.7432 40.4887 67.7432 40.4007C67.7432 40.3126 67.7257 40.2255 67.6918 40.1442C67.6578 40.063 67.6081 39.9893 67.5455 39.9275C67.3852 39.7927 67.2674 39.6144 67.2062 39.4141L67.4919 39.7042C67.5858 39.7973 67.7051 39.8606 67.8348 39.886C67.9646 39.9114 68.099 39.8978 68.221 39.8469C68.343 39.7961 68.4473 39.7103 68.5206 39.6003C68.594 39.4903 68.6331 39.361 68.6331 39.2288C68.6331 39.0966 68.594 38.9673 68.5206 38.8573C68.4473 38.7473 68.343 38.6615 68.221 38.6107C68.099 38.5598 67.9646 38.5462 67.8348 38.5716C67.7051 38.597 67.5858 38.6602 67.4919 38.7533L67.1615 39.0882C67.1473 38.8955 67.1715 38.702 67.2328 38.5188C67.2942 38.3356 67.3913 38.1664 67.5187 38.0212V37.9141H66.6258V38.0212C66.8818 38.3138 67.0118 38.6957 66.9874 39.0837V39.1105L66.6571 38.7757C66.531 38.6502 66.3602 38.5799 66.1823 38.5803C66.0044 38.5807 65.8339 38.6518 65.7084 38.7779C65.5829 38.904 65.5126 39.0748 65.5131 39.2527C65.5135 39.4306 65.5846 39.6011 65.7107 39.7266L65.7062 39.7042Z" fill="#1F1F1F"/>
<path d="M41.5284 7.28962V7.58873H40.1177V7.28962L40.4525 7.2048C40.4858 7.19687 40.5175 7.18328 40.5462 7.16462C40.5702 7.13895 40.5884 7.10853 40.5998 7.07533L41.8186 3.50391H42.5195L43.7784 7.07533C43.7886 7.10777 43.8071 7.137 43.832 7.16016C43.8582 7.18378 43.8908 7.19928 43.9257 7.2048L44.2337 7.28962V7.58873H42.5195V7.28962L43.0239 7.19587L42.7471 6.36998H41.2829L41.0195 7.19587L41.5284 7.28962ZM42.6445 6.00837L42.0061 4.10658L41.3989 6.00837H42.6445Z" fill="#1F1F1F"/>
<path d="M67.622 42.7093V42.4102H69.0282V42.7093L68.6934 42.7941C68.6601 42.802 68.6283 42.8156 68.5996 42.8343C68.5757 42.8599 68.5575 42.8904 68.5461 42.9235L67.3273 46.495H66.6487L65.3898 42.9235C65.3812 42.8904 65.3625 42.8608 65.3362 42.8387C65.3099 42.8151 65.2774 42.7996 65.2425 42.7941L64.9344 42.7093V42.4102H66.6264V42.7093L66.1219 42.803L66.3987 43.6289H67.8809L68.1443 42.803L67.622 42.7093ZM66.5014 43.9905L67.1398 45.8923L67.7469 43.9905H66.5014Z" fill="#1F1F1F"/>
<path d="M60.0364 23.3262C59.5342 22.8246 58.8534 22.5428 58.1436 22.5428C57.4337 22.5428 56.7529 22.8246 56.2507 23.3262L55.0989 24.478C55.3503 23.679 55.8241 22.9682 56.465 22.4289C56.8391 22.0543 57.0938 21.5772 57.197 21.0579C57.3002 20.5386 57.2471 20.0004 57.0446 19.5113C56.842 19.0221 56.4991 18.6039 56.059 18.3096C55.619 18.0152 55.1016 17.8579 54.5721 17.8574C54.0435 17.8596 53.5273 18.0183 53.0886 18.3133C52.6499 18.6083 52.3083 19.0266 52.1069 19.5154C51.9054 20.0042 51.8532 20.5416 51.9566 21.0601C52.06 21.5785 52.3146 22.0548 52.6882 22.4289C53.3291 22.9682 53.8029 23.679 54.0543 24.478L52.9025 23.3262C52.5278 22.9519 52.0505 22.6971 51.531 22.5939C51.0115 22.4908 50.473 22.544 49.9838 22.7469C49.4945 22.9497 49.0763 23.293 48.7821 23.7334C48.488 24.1739 48.3309 24.6916 48.3309 25.2213C48.3309 25.7509 48.488 26.2687 48.7821 26.7091C49.0763 27.1495 49.4945 27.4928 49.9838 27.6957C50.473 27.8985 51.0115 27.9517 51.531 27.8486C52.0505 27.7455 52.5278 27.4907 52.9025 27.1164L54.2418 25.7771C54.2418 25.7771 54.2418 25.8217 54.2418 25.8485C54.2641 27.0092 54.0811 28.8396 52.8043 30.1164V30.5628H56.3757V30.1164C55.1078 28.844 54.9248 27.0315 54.9382 25.8664C54.9382 25.8351 54.9382 25.8083 54.9382 25.7771L56.2775 27.1164C56.5256 27.3682 56.8212 27.5685 57.1471 27.7056C57.473 27.8427 57.8229 27.914 58.1764 27.9152C58.53 27.9164 58.8803 27.8476 59.2072 27.7128C59.5341 27.5779 59.831 27.3797 60.0809 27.1296C60.3308 26.8794 60.5286 26.5822 60.6631 26.2552C60.7975 25.9282 60.8659 25.5778 60.8643 25.2242C60.8626 24.8706 60.791 24.5208 60.6535 24.1951C60.516 23.8693 60.3154 23.574 60.0632 23.3262H60.0364Z" fill="#1F1F1F"/>
<g opacity="0.5">
<path d="M106.911 0H75.6607C74.428 0 73.4286 0.999364 73.4286 2.23214V47.7679C73.4286 49.0006 74.428 50 75.6607 50H106.911C108.144 50 109.143 49.0006 109.143 47.7679V2.23214C109.143 0.999364 108.144 0 106.911 0Z" fill="#F9F1DF"/>
<path d="M78.7857 8.65234C78.5402 9.26395 77.3348 9.49163 77.3348 10.4381C77.3348 10.5404 77.3551 10.6418 77.3944 10.7364C77.4337 10.8309 77.4913 10.9167 77.5639 10.9889C77.6365 11.0611 77.7227 11.1182 77.8175 11.157C77.9122 11.1958 78.0137 11.2154 78.1161 11.2148C78.2233 11.2141 78.3293 11.1916 78.4275 11.1486C78.5257 11.1056 78.6142 11.0431 78.6875 10.9648C78.6667 11.2673 78.544 11.5537 78.3393 11.7773V11.8845H79.2322V11.7773C79.0259 11.5543 78.9015 11.2678 78.8795 10.9648C78.9533 11.0436 79.0425 11.1065 79.1415 11.1495C79.2406 11.1925 79.3474 11.2147 79.4554 11.2148C79.6618 11.2148 79.8598 11.1332 80.0062 10.9876C80.1526 10.8421 80.2354 10.6445 80.2366 10.4381C80.2366 9.49163 79.0268 9.26395 78.7857 8.65234Z" fill="#1F1F1F"/>
<path d="M103.786 40.9021C104.027 40.2905 105.237 40.0628 105.237 39.1163C105.235 38.9099 105.153 38.7123 105.006 38.5668C104.86 38.4212 104.662 38.3396 104.455 38.3396C104.347 38.3397 104.24 38.3619 104.141 38.4049C104.042 38.4479 103.953 38.5108 103.879 38.5896C103.901 38.2866 104.026 38.0001 104.232 37.7771V37.6699H103.339V37.7771C103.544 38.0007 103.667 38.2871 103.687 38.5896C103.58 38.4798 103.443 38.4042 103.292 38.3721C103.142 38.34 102.986 38.3528 102.843 38.409C102.7 38.4652 102.577 38.5623 102.489 38.6881C102.401 38.8139 102.352 38.9628 102.348 39.1163C102.335 40.0628 103.545 40.2905 103.786 40.9021Z" fill="#1F1F1F"/>
<path d="M77.6562 6.69587C77.7684 6.78282 77.8915 6.85485 78.0222 6.91016C78.1638 6.96865 78.3155 6.99898 78.4687 6.99944C78.6806 7.00689 78.8871 6.93165 79.0446 6.78963C79.1223 6.7161 79.183 6.62643 79.2223 6.52694C79.2616 6.42744 79.2787 6.32053 79.2723 6.21373C79.2795 6.0206 79.2124 5.83204 79.0847 5.68695C79.0175 5.61753 78.9359 5.56359 78.8457 5.5289C78.7555 5.4942 78.6589 5.47958 78.5624 5.48605C78.4611 5.48588 78.3602 5.50094 78.2633 5.53069C78.158 5.56155 78.0563 5.60345 77.9598 5.65569L77.7142 5.48605L77.8348 3.78516H79.8437L79.7812 4.30302H78.2633L78.1651 5.26283C78.2681 5.18266 78.3867 5.12489 78.5133 5.0932C78.6345 5.06322 78.759 5.04822 78.8839 5.04855C79.1921 5.03411 79.4935 5.14155 79.7231 5.34766C79.8271 5.45219 79.9082 5.57722 79.9612 5.7148C80.0143 5.85238 80.0381 5.99949 80.0312 6.14677C80.0328 6.32749 79.9979 6.50668 79.9285 6.67355C79.8597 6.82816 79.761 6.96772 79.6383 7.08426C79.5066 7.19721 79.3553 7.28498 79.1919 7.3432C79.0104 7.40286 78.8205 7.433 78.6294 7.43248C78.3963 7.43595 78.1651 7.39033 77.9508 7.29855C77.7668 7.22302 77.6032 7.10527 77.4731 6.9548L77.6562 6.69587Z" fill="#1F1F1F"/>
<path d="M104.911 42.8559C104.799 42.768 104.676 42.6959 104.545 42.6416C104.403 42.5825 104.251 42.5522 104.098 42.5523C103.885 42.5446 103.677 42.6198 103.518 42.7621C103.44 42.8357 103.379 42.9253 103.34 43.0248C103.301 43.1243 103.284 43.2312 103.29 43.338C103.283 43.5312 103.35 43.7197 103.478 43.8648C103.545 43.9335 103.627 43.987 103.717 44.0216C103.807 44.0563 103.904 44.0713 104 44.0657C104.101 44.0659 104.202 44.0508 104.299 44.0211C104.404 43.9902 104.506 43.9483 104.603 43.8961L104.848 44.0657L104.732 45.7666H102.719L102.781 45.2487H104.303L104.402 44.2889C104.299 44.3703 104.181 44.4282 104.053 44.4586C103.934 44.4883 103.811 44.5033 103.687 44.5032C103.378 44.5174 103.075 44.4101 102.844 44.2041C102.74 44.0996 102.659 43.9745 102.606 43.837C102.553 43.6994 102.529 43.5523 102.536 43.405C102.534 43.2243 102.569 43.0451 102.638 42.8782C102.707 42.7225 102.807 42.5827 102.933 42.4675C103.064 42.3541 103.216 42.2663 103.379 42.2086C103.561 42.1489 103.751 42.1188 103.942 42.1193C104.176 42.1162 104.409 42.1618 104.625 42.2532C104.808 42.3299 104.972 42.4475 105.103 42.597L104.911 42.8559Z" fill="#1F1F1F"/>
<path d="M85.0313 6.36133C84.5492 7.59347 82.1295 8.0399 82.1295 9.93276C82.1295 10.3472 82.2941 10.7446 82.5872 11.0376C82.8802 11.3306 83.2776 11.4953 83.692 11.4953C83.9082 11.4952 84.1219 11.4498 84.3195 11.3622C84.5171 11.2745 84.6942 11.1465 84.8393 10.9863C84.8003 11.5918 84.5544 12.1655 84.1429 12.6113V12.8345H85.9286V12.6113C85.5149 12.1683 85.2672 11.5957 85.2277 10.9908C85.4402 11.2221 85.7177 11.3838 86.0237 11.4546C86.3297 11.5254 86.65 11.5021 86.9425 11.3877C87.2351 11.2733 87.4862 11.0732 87.663 10.8135C87.8397 10.5539 87.9339 10.2469 87.9331 9.93276C87.9331 8.03544 85.5179 7.58901 85.0313 6.36133Z" fill="#1F1F1F"/>
<path d="M97.5313 6.36133C97.0492 7.59347 94.6295 8.0399 94.6295 9.93276C94.6295 10.3472 94.7941 10.7446 95.0872 11.0376C95.3802 11.3306 95.7776 11.4953 96.192 11.4953C96.4082 11.4952 96.6219 11.4498 96.8195 11.3622C97.0171 11.2745 97.1942 11.1465 97.3393 10.9863C97.3003 11.5918 97.0544 12.1655 96.6429 12.6113V12.8345H98.4286V12.6113C98.0149 12.1683 97.7672 11.5957 97.7277 10.9908C97.9402 11.2221 98.2177 11.3838 98.5237 11.4546C98.8297 11.5254 99.15 11.5021 99.4425 11.3877C99.7351 11.2733 99.9862 11.0732 100.163 10.8135C100.34 10.5539 100.434 10.2469 100.433 9.93276C100.433 8.03544 98.0179 7.58901 97.5313 6.36133Z" fill="#1F1F1F"/>
<path d="M91.2813 20.8711C90.7992 22.1032 88.3795 22.5497 88.3795 24.4425C88.3795 24.8569 88.5441 25.2544 88.8372 25.5474C89.1302 25.8404 89.5276 26.005 89.942 26.005C90.1582 26.0049 90.3719 25.9596 90.5695 25.872C90.7671 25.7843 90.9442 25.6563 91.0893 25.4961C91.0503 26.1016 90.8044 26.6752 90.3929 27.1211V27.3443H92.1786V27.1211C91.7649 26.678 91.5172 26.1055 91.4777 25.5006C91.6902 25.7319 91.9677 25.8935 92.2737 25.9644C92.5797 26.0352 92.9 26.0119 93.1925 25.8975C93.4851 25.7831 93.7362 25.5829 93.913 25.3233C94.0897 25.0636 94.1839 24.7566 94.1831 24.4425C94.1831 22.5497 91.7679 22.1032 91.2813 20.8711Z" fill="#1F1F1F"/>
<path d="M85.0313 43.192C84.5492 41.9598 82.1295 41.5134 82.1295 39.6205C82.1295 39.2061 82.2941 38.8087 82.5872 38.5157C82.8802 38.2227 83.2776 38.058 83.692 38.058C83.9082 38.0581 84.1219 38.1035 84.3195 38.1911C84.5171 38.2788 84.6942 38.4068 84.8393 38.567C84.8003 37.9615 84.5544 37.3878 84.1429 36.942V36.7188H85.9286V36.942C85.5149 37.385 85.2672 37.9576 85.2277 38.5625C85.4402 38.3312 85.7177 38.1695 86.0237 38.0987C86.3297 38.0279 86.65 38.0512 86.9425 38.1656C87.2351 38.28 87.4862 38.4801 87.663 38.7398C87.8397 38.9994 87.9339 39.3064 87.9331 39.6205C87.9331 41.5179 85.5179 41.9643 85.0313 43.192Z" fill="#1F1F1F"/>
<path d="M97.5313 43.192C97.0492 41.9598 94.6295 41.5134 94.6295 39.6205C94.6295 39.2061 94.7941 38.8087 95.0872 38.5157C95.3802 38.2227 95.7776 38.058 96.192 38.058C96.4082 38.0581 96.6219 38.1035 96.8195 38.1911C97.0171 38.2788 97.1942 38.4068 97.3393 38.567C97.3003 37.9615 97.0544 37.3878 96.6429 36.942V36.7188H98.4286V36.942C98.0149 37.385 97.7672 37.9576 97.7277 38.5625C97.9402 38.3312 98.2177 38.1695 98.5237 38.0987C98.8297 38.0279 99.15 38.0512 99.4425 38.1656C99.7351 38.28 99.9862 38.4801 100.163 38.7398C100.34 38.9994 100.434 39.3064 100.433 39.6205C100.433 41.5179 98.0179 41.9643 97.5313 43.192Z" fill="#1F1F1F"/>
</g>
<g opacity="0.5">
<path d="M143.625 0H112.375C111.142 0 110.143 0.999364 110.143 2.23214V47.7679C110.143 49.0006 111.142 50 112.375 50H143.625C144.858 50 145.857 49.0006 145.857 47.7679V2.23214C145.857 0.999364 144.858 0 143.625 0Z" fill="#F9F1DF"/>
<path d="M115.5 8.7207C115.267 9.30999 114.107 9.52874 114.107 10.435C114.106 10.5861 114.151 10.734 114.236 10.8591C114.321 10.9841 114.441 11.0803 114.582 11.1351C114.723 11.1898 114.877 11.2004 115.025 11.1654C115.172 11.1305 115.305 11.0517 115.406 10.9395C115.385 11.2301 115.267 11.5054 115.071 11.7207V11.8278H115.928V11.7207C115.73 11.5082 115.61 11.234 115.589 10.9439C115.691 11.0557 115.825 11.1339 115.972 11.1683C116.12 11.2027 116.274 11.1916 116.415 11.1365C116.556 11.0815 116.677 10.985 116.763 10.8597C116.848 10.7345 116.893 10.5864 116.892 10.435C116.892 9.52874 115.732 9.30999 115.5 8.7207Z" fill="#1F1F1F"/>
<path d="M140.5 40.8982C140.741 40.2865 141.951 40.0589 141.951 39.1124C141.949 38.906 141.867 38.7084 141.72 38.5629C141.574 38.4173 141.376 38.3357 141.169 38.3357C141.061 38.3358 140.954 38.358 140.855 38.401C140.756 38.444 140.667 38.5068 140.593 38.5857C140.615 38.2827 140.74 37.9961 140.946 37.7732V37.666H140.053V37.7732C140.258 37.9968 140.381 38.2832 140.401 38.5857C140.294 38.4759 140.157 38.4003 140.006 38.3682C139.856 38.3361 139.7 38.3489 139.557 38.4051C139.414 38.4613 139.291 38.5584 139.203 38.6842C139.115 38.81 139.066 38.9589 139.062 39.1124C139.049 40.0589 140.259 40.2865 140.5 40.8982Z" fill="#1F1F1F"/>
<path d="M115.472 7.43574C115.289 7.43662 115.106 7.41563 114.928 7.37323C114.769 7.33626 114.619 7.27288 114.481 7.18574C114.365 7.1103 114.268 7.00764 114.2 6.88663C114.132 6.7638 114.098 6.62512 114.102 6.48485C114.099 6.27525 114.17 6.07139 114.303 5.90896C114.448 5.73914 114.638 5.6138 114.852 5.54734C114.701 5.45015 114.567 5.32959 114.455 5.1902C114.341 5.04219 114.282 4.85896 114.289 4.67235C114.287 4.53665 114.316 4.40229 114.374 4.27949C114.436 4.16344 114.521 4.06156 114.624 3.98038C114.74 3.89193 114.872 3.82675 115.013 3.78842C115.174 3.73848 115.343 3.71437 115.513 3.71699C115.672 3.71594 115.832 3.73697 115.986 3.77949C116.119 3.81508 116.246 3.8724 116.361 3.94913C116.46 4.01925 116.543 4.11078 116.602 4.21699C116.659 4.32065 116.689 4.43769 116.687 4.55628C116.687 4.74644 116.619 4.93043 116.495 5.07413C116.365 5.22553 116.199 5.34214 116.013 5.41342C116.124 5.47145 116.231 5.52949 116.334 5.59645C116.432 5.65559 116.523 5.72767 116.602 5.81074C116.678 5.88847 116.74 5.97917 116.785 6.07859C116.836 6.20055 116.859 6.33229 116.853 6.46431C116.847 6.59632 116.811 6.72532 116.749 6.84199C116.68 6.96992 116.582 7.07998 116.463 7.16341C116.329 7.25894 116.178 7.3272 116.017 7.36431C115.839 7.41214 115.656 7.43616 115.472 7.43574ZM115.517 7.10538C115.68 7.10933 115.839 7.05379 115.963 6.94913C116.018 6.90039 116.061 6.84046 116.091 6.77343C116.12 6.70641 116.134 6.63386 116.133 6.56074C116.135 6.46786 116.111 6.37633 116.062 6.29735C116.013 6.22145 115.951 6.15492 115.879 6.10092C115.795 6.03678 115.705 5.98143 115.611 5.93574L115.164 5.71253C115.038 5.78721 114.934 5.89534 114.865 6.02502C114.798 6.14664 114.763 6.28335 114.763 6.42235C114.761 6.52543 114.782 6.62756 114.825 6.72145C114.863 6.80448 114.92 6.87775 114.99 6.93574C115.06 6.99212 115.141 7.03455 115.227 7.06074C115.32 7.09153 115.418 7.10661 115.517 7.10538ZM114.941 4.51163C114.938 4.59436 114.958 4.67627 114.999 4.74824C115.041 4.82221 115.097 4.88739 115.164 4.94021C115.238 5.00437 115.319 5.0598 115.405 5.10538C115.504 5.15895 115.602 5.20806 115.709 5.25717C115.829 5.18634 115.928 5.08458 115.995 4.96252C116.054 4.85626 116.085 4.73619 116.084 4.61431C116.092 4.53261 116.082 4.4501 116.054 4.37284C116.026 4.29558 115.982 4.22554 115.923 4.16788C115.863 4.1143 115.792 4.0733 115.715 4.04724C115.639 4.02118 115.558 4.0106 115.477 4.0161C115.329 4.00738 115.184 4.05529 115.071 4.15003C115.023 4.19687 114.987 4.25363 114.965 4.31619C114.943 4.37875 114.934 4.44552 114.941 4.51163Z" fill="#1F1F1F"/>
<path d="M140.522 42.1133C140.705 42.1124 140.888 42.1334 141.066 42.1758C141.224 42.2128 141.375 42.2762 141.513 42.3633C141.627 42.4412 141.723 42.5433 141.794 42.6624C141.862 42.7853 141.896 42.9239 141.892 43.0642C141.895 43.2738 141.824 43.4777 141.691 43.6401C141.546 43.8099 141.356 43.9353 141.142 44.0017C141.293 44.0989 141.427 44.2195 141.539 44.3588C141.653 44.5069 141.712 44.6901 141.705 44.8767C141.707 45.0124 141.678 45.1468 141.62 45.2696C141.558 45.3856 141.473 45.4875 141.37 45.5687C141.254 45.6571 141.122 45.7223 140.981 45.7606C140.819 45.8106 140.651 45.8347 140.481 45.8321C140.322 45.8331 140.162 45.8121 140.008 45.7696C139.875 45.734 139.748 45.6766 139.633 45.5999C139.534 45.5298 139.451 45.4383 139.392 45.3321C139.334 45.2284 139.305 45.1114 139.307 44.9928C139.306 44.8026 139.375 44.6186 139.499 44.4749C139.629 44.3235 139.795 44.2069 139.981 44.1356C139.87 44.0776 139.763 44.0196 139.66 43.9526C139.561 43.8934 139.471 43.8214 139.392 43.7383C139.316 43.6606 139.254 43.5699 139.209 43.4705C139.158 43.3485 139.135 43.2168 139.141 43.0847C139.147 42.9527 139.183 42.8237 139.245 42.7071C139.313 42.5802 139.409 42.4704 139.526 42.3856C139.661 42.2918 139.813 42.2237 139.972 42.1847C140.151 42.1365 140.336 42.1125 140.522 42.1133ZM140.477 42.4437C140.314 42.4397 140.155 42.4953 140.03 42.5999C139.976 42.6487 139.933 42.7086 139.903 42.7756C139.874 42.8426 139.86 42.9152 139.861 42.9883C139.859 43.0812 139.883 43.1727 139.932 43.2517C139.981 43.3276 140.043 43.3941 140.115 43.4481C140.198 43.5133 140.288 43.5687 140.383 43.6133L140.83 43.8365C140.956 43.7618 141.06 43.6537 141.129 43.524C141.196 43.4024 141.231 43.2657 141.231 43.1267C141.233 43.0236 141.211 42.9215 141.169 42.8276C141.131 42.7446 141.074 42.6713 141.004 42.6133C140.934 42.5569 140.853 42.5145 140.767 42.4883C140.673 42.4575 140.575 42.4424 140.477 42.4437ZM141.053 45.0374C141.056 44.9547 141.036 44.8728 140.995 44.8008C140.953 44.7268 140.896 44.6617 140.83 44.6088C140.754 44.5447 140.672 44.4893 140.584 44.4437C140.49 44.3901 140.392 44.341 140.285 44.2919C140.165 44.3627 140.066 44.4645 139.999 44.5865C139.94 44.6928 139.909 44.8129 139.91 44.9347C139.905 45.0128 139.917 45.091 139.944 45.1642C139.972 45.2373 140.015 45.3037 140.071 45.3588C140.131 45.4124 140.202 45.4534 140.279 45.4795C140.355 45.5055 140.436 45.5161 140.517 45.5106C140.665 45.5193 140.81 45.4714 140.923 45.3767C140.967 45.3324 141.002 45.2793 141.024 45.2208C141.046 45.1624 141.056 45.0999 141.053 45.0374Z" fill="#1F1F1F"/>
<path d="M121.745 6.36133C121.263 7.59347 118.843 8.0399 118.843 9.93276C118.843 10.3472 119.008 10.7446 119.301 11.0376C119.594 11.3306 119.991 11.4953 120.406 11.4953C120.622 11.4952 120.836 11.4498 121.033 11.3622C121.231 11.2745 121.408 11.1465 121.553 10.9863C121.514 11.5918 121.268 12.1655 120.857 12.6113V12.8345H122.642V12.6113C122.229 12.1683 121.981 11.5957 121.941 10.9908C122.154 11.2221 122.431 11.3838 122.737 11.4546C123.043 11.5254 123.364 11.5021 123.656 11.3877C123.949 11.2733 124.2 11.0732 124.377 10.8135C124.553 10.5539 124.648 10.2469 124.647 9.93276C124.647 8.03544 122.232 7.58901 121.745 6.36133Z" fill="#1F1F1F"/>
<path d="M127.995 13.7266C127.513 14.9587 125.093 15.4051 125.093 17.298C125.093 17.7124 125.258 18.1098 125.551 18.4029C125.844 18.6959 126.241 18.8605 126.656 18.8605C126.872 18.8604 127.086 18.8151 127.283 18.7274C127.481 18.6398 127.658 18.5117 127.803 18.3516C127.764 18.957 127.518 19.5307 127.107 19.9766V20.1998H128.892V19.9766C128.479 19.5335 128.231 18.9609 128.191 18.356C128.404 18.5873 128.681 18.749 128.987 18.8198C129.293 18.8907 129.614 18.8673 129.906 18.7529C130.199 18.6385 130.45 18.4384 130.627 18.1788C130.803 17.9191 130.898 17.6121 130.897 17.298C130.897 15.4051 128.482 14.9587 127.995 13.7266Z" fill="#1F1F1F"/>
<path d="M127.995 35.8248C127.513 34.5926 125.093 34.1462 125.093 32.2533C125.093 31.8389 125.258 31.4415 125.551 31.1485C125.844 30.8555 126.241 30.6908 126.656 30.6908C126.872 30.6909 127.086 30.7363 127.283 30.8239C127.481 30.9116 127.658 31.0396 127.803 31.1998C127.764 30.5943 127.518 30.0206 127.107 29.5748V29.3516H128.892V29.5748C128.479 30.0178 128.231 30.5904 128.191 31.1953C128.404 30.964 128.681 30.8023 128.987 30.7315C129.293 30.6607 129.614 30.684 129.906 30.7984C130.199 30.9128 130.45 31.1129 130.627 31.3726C130.803 31.6322 130.898 31.9392 130.897 32.2533C130.897 34.1462 128.482 34.5926 127.995 35.8248Z" fill="#1F1F1F"/>
<path d="M134.245 6.36133C133.763 7.59347 131.343 8.0399 131.343 9.93276C131.343 10.3472 131.508 10.7446 131.801 11.0376C132.094 11.3306 132.491 11.4953 132.906 11.4953C133.122 11.4952 133.336 11.4498 133.533 11.3622C133.731 11.2745 133.908 11.1465 134.053 10.9863C134.014 11.5918 133.768 12.1655 133.357 12.6113V12.8345H135.142V12.6113C134.729 12.1683 134.481 11.5957 134.441 10.9908C134.654 11.2221 134.931 11.3838 135.237 11.4546C135.543 11.5254 135.864 11.5021 136.156 11.3877C136.449 11.2733 136.7 11.0732 136.877 10.8135C137.053 10.5539 137.148 10.2469 137.147 9.93276C137.147 8.03544 134.732 7.58901 134.245 6.36133Z" fill="#1F1F1F"/>
<path d="M134.245 20.8711C133.763 22.1032 131.343 22.5497 131.343 24.4425C131.343 24.8569 131.508 25.2544 131.801 25.5474C132.094 25.8404 132.491 26.005 132.906 26.005C133.122 26.0049 133.336 25.9596 133.533 25.872C133.731 25.7843 133.908 25.6563 134.053 25.4961C134.014 26.1016 133.768 26.6752 133.357 27.1211V27.3443H135.142V27.1211C134.729 26.678 134.481 26.1055 134.441 25.5006C134.654 25.7319 134.931 25.8935 135.237 25.9644C135.543 26.0352 135.864 26.0119 136.156 25.8975C136.449 25.7831 136.7 25.5829 136.877 25.3233C137.053 25.0636 137.148 24.7566 137.147 24.4425C137.147 22.5497 134.732 22.1032 134.245 20.8711Z" fill="#1F1F1F"/>
<path d="M121.745 20.8711C121.263 22.1032 118.843 22.5497 118.843 24.4425C118.843 24.8569 119.008 25.2544 119.301 25.5474C119.594 25.8404 119.991 26.005 120.406 26.005C120.622 26.0049 120.836 25.9596 121.033 25.872C121.231 25.7843 121.408 25.6563 121.553 25.4961C121.514 26.1016 121.268 26.6752 120.857 27.1211V27.3443H122.642V27.1211C122.229 26.678 121.981 26.1055 121.941 25.5006C122.154 25.7319 122.431 25.8935 122.737 25.9644C123.043 26.0352 123.364 26.0119 123.656 25.8975C123.949 25.7831 124.2 25.5829 124.377 25.3233C124.553 25.0636 124.648 24.7566 124.647 24.4425C124.647 22.5497 122.232 22.1032 121.745 20.8711Z" fill="#1F1F1F"/>
<path d="M121.745 43.192C121.263 41.9598 118.843 41.5134 118.843 39.6205C118.843 39.2061 119.008 38.8087 119.301 38.5157C119.594 38.2227 119.991 38.058 120.406 38.058C120.622 38.0581 120.836 38.1035 121.033 38.1911C121.231 38.2788 121.408 38.4068 121.553 38.567C121.514 37.9615 121.268 37.3878 120.857 36.942V36.7188H122.642V36.942C122.229 37.385 121.981 37.9576 121.941 38.5625C122.154 38.3312 122.431 38.1695 122.737 38.0987C123.043 38.0279 123.364 38.0512 123.656 38.1656C123.949 38.28 124.2 38.4801 124.377 38.7398C124.553 38.9994 124.648 39.3064 124.647 39.6205C124.647 41.5179 122.232 41.9643 121.745 43.192Z" fill="#1F1F1F"/>
<path d="M134.245 43.192C133.763 41.9598 131.343 41.5134 131.343 39.6205C131.343 39.2061 131.508 38.8087 131.801 38.5157C132.094 38.2227 132.491 38.058 132.906 38.058C133.122 38.0581 133.336 38.1035 133.533 38.1911C133.731 38.2788 133.908 38.4068 134.053 38.567C134.014 37.9615 133.768 37.3878 133.357 36.942V36.7188H135.142V36.942C134.729 37.385 134.481 37.9576 134.441 38.5625C134.654 38.3312 134.931 38.1695 135.237 38.0987C135.543 38.0279 135.864 38.0512 136.156 38.1656C136.449 38.28 136.7 38.4801 136.877 38.7398C137.053 38.9994 137.148 39.3064 137.147 39.6205C137.147 41.5179 134.732 41.9643 134.245 43.192Z" fill="#1F1F1F"/>
</g>
<g opacity="0.5">
<path d="M180.339 0H149.089C147.857 0 146.857 0.999364 146.857 2.23214V47.7679C146.857 49.0006 147.857 50 149.089 50H180.339C181.572 50 182.571 49.0006 182.571 47.7679V2.23214C182.571 0.999364 181.572 0 180.339 0Z" fill="#F9F1DF"/>
<path d="M152.215 11.9434C151.811 11.3169 151.279 10.7841 150.652 10.3809C151.279 9.97763 151.811 9.44484 152.215 8.81836C152.618 9.44484 153.151 9.97763 153.777 10.3809C153.151 10.7841 152.618 11.3169 152.215 11.9434Z" fill="#C93112"/>
<path d="M177.215 37.3906C177.618 38.0171 178.151 38.5499 178.777 38.9531C178.151 39.3564 177.618 39.8891 177.215 40.5156C176.812 39.8891 176.279 39.3564 175.652 38.9531C176.279 38.5499 176.812 38.0171 177.215 37.3906Z" fill="#C93112"/>
<path d="M150.952 3.66685V6.72042C150.95 6.75802 150.963 6.79492 150.988 6.82311C151.014 6.8505 151.049 6.86789 151.086 6.87222L151.613 6.95703V7.25614H149.537V6.95703L150.14 6.87222C150.179 6.86693 150.217 6.84982 150.247 6.82311C150.262 6.81064 150.273 6.79487 150.281 6.77704C150.289 6.75922 150.292 6.73983 150.291 6.72042V4.31418L150.144 4.35436L149.952 4.399L149.751 4.43471H149.573L149.51 4.11775C149.61 4.09335 149.709 4.06203 149.805 4.024C149.907 3.98829 150.006 3.94365 150.104 3.89901C150.202 3.85436 150.291 3.80079 150.376 3.74722C150.454 3.69758 150.529 3.64237 150.599 3.58203L150.952 3.66685Z" fill="#C93112"/>
<path d="M153.421 7.32227C153.195 7.32902 152.971 7.27835 152.769 7.17496C152.589 7.08693 152.435 6.95298 152.323 6.78657C152.214 6.60752 152.137 6.41122 152.095 6.2062C152.05 5.97388 152.027 5.73761 152.028 5.50085C152.025 5.21922 152.059 4.9384 152.131 4.66603C152.191 4.4526 152.291 4.25257 152.426 4.07674C152.545 3.92573 152.697 3.8049 152.872 3.72406C153.061 3.64545 153.265 3.60596 153.47 3.60798C153.696 3.60155 153.92 3.6506 154.122 3.75084C154.293 3.84217 154.437 3.97592 154.542 4.13923C154.654 4.31638 154.731 4.51339 154.769 4.7196C154.815 4.95188 154.838 5.18818 154.836 5.42495C154.842 5.70818 154.808 5.99083 154.734 6.26424C154.678 6.47909 154.577 6.67984 154.439 6.85353C154.32 7.0049 154.167 7.12581 153.992 7.20621C153.811 7.28136 153.617 7.32076 153.421 7.32227ZM153.421 3.94727C153.313 3.94508 153.208 3.9778 153.12 4.04056C153.032 4.10331 152.967 4.19273 152.934 4.29549C152.824 4.63827 152.775 4.99813 152.792 5.35799C152.778 5.76174 152.826 6.16516 152.934 6.55441C152.961 6.67526 153.028 6.78332 153.125 6.86052C153.222 6.93771 153.342 6.97937 153.466 6.97853C153.574 6.98043 153.68 6.94706 153.768 6.88345C153.856 6.81983 153.92 6.72943 153.952 6.62584C154.068 6.28403 154.117 5.92361 154.1 5.56334C154.114 5.1607 154.065 4.75829 153.952 4.37139C153.928 4.25276 153.864 4.14604 153.77 4.06891C153.677 3.99177 153.56 3.94886 153.439 3.94727H153.421Z" fill="#C93112"/>
<path d="M178.475 45.6674V42.6138C178.477 42.5755 178.466 42.5375 178.443 42.5067C178.414 42.4824 178.378 42.4669 178.341 42.462L177.818 42.3772V42.0781H179.894V42.3772L179.292 42.462C179.252 42.4673 179.214 42.4844 179.184 42.5112C179.171 42.5244 179.16 42.5405 179.153 42.5582C179.146 42.5759 179.143 42.5949 179.144 42.6138V45.0201L179.292 44.9799L179.479 44.9353L179.684 44.8996H179.863L179.926 45.2165C179.824 45.2402 179.724 45.2716 179.626 45.3103C179.528 45.346 179.426 45.3906 179.332 45.4353C179.239 45.4813 179.148 45.532 179.059 45.587C178.975 45.6451 178.899 45.6987 178.832 45.7522L178.475 45.6674Z" fill="#C93112"/>
<path d="M176.005 42.0147C176.233 42.0058 176.459 42.055 176.662 42.1576C176.833 42.2489 176.977 42.3826 177.081 42.5459C177.194 42.7231 177.271 42.9201 177.309 43.1263C177.355 43.3586 177.377 43.5949 177.376 43.8317C177.382 44.1134 177.348 44.3946 177.273 44.6665C177.217 44.8813 177.117 45.0821 176.979 45.2558C176.86 45.4071 176.707 45.5281 176.532 45.6085C176.343 45.6867 176.139 45.7262 175.934 45.7245C175.708 45.7315 175.484 45.6824 175.282 45.5817C175.11 45.4905 174.964 45.3568 174.858 45.1933C174.746 45.0161 174.669 44.8191 174.631 44.6129C174.585 44.3806 174.562 44.1443 174.564 43.9076C174.56 43.6244 174.594 43.3421 174.666 43.0683C174.726 42.8548 174.826 42.6548 174.961 42.479C175.079 42.327 175.232 42.206 175.407 42.1263C175.597 42.0485 175.801 42.0105 176.005 42.0147ZM176.005 45.3852C176.113 45.3882 176.219 45.3557 176.307 45.2929C176.395 45.23 176.46 45.1402 176.492 45.037C176.607 44.6951 176.657 44.3348 176.639 43.9745C176.654 43.5704 176.604 43.1666 176.492 42.7781C176.466 42.6569 176.399 42.5483 176.302 42.471C176.205 42.3937 176.085 42.3523 175.961 42.354C175.853 42.3516 175.747 42.3848 175.66 42.4486C175.573 42.5123 175.509 42.603 175.479 42.7067C175.363 43.0485 175.314 43.4089 175.331 43.7692C175.318 44.1715 175.366 44.5735 175.474 44.9611C175.499 45.0794 175.564 45.1856 175.657 45.2626C175.75 45.3396 175.867 45.3828 175.988 45.3852H176.005Z" fill="#C93112"/>
<path d="M158.465 13.0586C157.661 11.8037 156.594 10.7376 155.34 9.93359C156.594 9.12955 157.661 8.06349 158.465 6.80859C159.269 8.06349 160.335 9.12955 161.59 9.93359C160.335 10.7376 159.269 11.8037 158.465 13.0586Z" fill="#C93112"/>
<path d="M170.965 13.0586C170.161 11.8037 169.094 10.7376 167.84 9.93359C169.094 9.12955 170.161 8.06349 170.965 6.80859C171.769 8.06349 172.835 9.12955 174.09 9.93359C172.835 10.7376 171.769 11.8037 170.965 13.0586Z" fill="#C93112"/>
<path d="M164.715 18.1934C163.911 16.9385 162.844 15.8724 161.59 15.0684C162.844 14.2643 163.911 13.1983 164.715 11.9434C165.519 13.1983 166.585 14.2643 167.84 15.0684C166.585 15.8724 165.519 16.9385 164.715 18.1934Z" fill="#C93112"/>
<path d="M158.465 22.8809C157.661 21.626 156.594 20.5599 155.34 19.7559C156.594 18.9518 157.661 17.8858 158.465 16.6309C159.269 17.8858 160.335 18.9518 161.59 19.7559C160.335 20.5599 159.269 21.626 158.465 22.8809Z" fill="#C93112"/>
<path d="M170.965 22.8809C170.161 21.626 169.094 20.5599 167.84 19.7559C169.094 18.9518 170.161 17.8858 170.965 16.6309C171.769 17.8858 172.835 18.9518 174.09 19.7559C172.835 20.5599 171.769 21.626 170.965 22.8809Z" fill="#C93112"/>
<path d="M161.59 39.3984C160.335 40.2025 159.269 41.2685 158.465 42.5234C157.661 41.2685 156.594 40.2025 155.34 39.3984C156.594 38.5944 157.661 37.5283 158.465 36.2734C159.269 37.5283 160.335 38.5944 161.59 39.3984Z" fill="#C93112"/>
<path d="M174.09 39.3984C172.835 40.2025 171.769 41.2685 170.965 42.5234C170.161 41.2685 169.094 40.2025 167.84 39.3984C169.094 38.5944 170.161 37.5283 170.965 36.2734C171.769 37.5283 172.835 38.5944 174.09 39.3984Z" fill="#C93112"/>
<path d="M167.84 34.2637C166.585 35.0677 165.519 36.1338 164.715 37.3887C163.911 36.1338 162.844 35.0677 161.59 34.2637C162.844 33.4596 163.911 32.3936 164.715 31.1387C165.519 32.3936 166.585 33.4596 167.84 34.2637Z" fill="#C93112"/>
<path d="M161.59 29.5762C160.335 30.3802 159.269 31.4463 158.465 32.7012C157.661 31.4463 156.594 30.3802 155.34 29.5762C156.594 28.7721 157.661 27.7061 158.465 26.4512C159.269 27.7061 160.335 28.7721 161.59 29.5762Z" fill="#C93112"/>
<path d="M174.09 29.5762C172.835 30.3802 171.769 31.4463 170.965 32.7012C170.161 31.4463 169.094 30.3802 167.84 29.5762C169.094 28.7721 170.161 27.7061 170.965 26.4512C171.769 27.7061 172.835 28.7721 174.09 29.5762Z" fill="#C93112"/>
</g>
</svg>
