<svg width="26" height="52" viewBox="0 0 26 52" fill="none" xmlns="http://www.w3.org/2000/svg">
<rect width="26" height="52" rx="4" fill="#D9D9D9"/>
<rect x="1" y="1" width="24" height="50" rx="3" fill="white"/>
<rect x="1.5" y="1.5" width="23" height="49" rx="2.5" stroke="url(#paint0_linear_49_57056)" stroke-opacity="0.1"/>
<rect x="3" y="26" width="20" height="1" fill="#D9D9D9"/>
<g clip-path="url(#clip0_49_57056)">
<path d="M13.1295 5.89578L17.739 7.57362L20.2609 11.9431C19.9672 13.5976 19.6753 15.2525 19.3856 16.9075L15.5209 20.1503H10.479L6.61437 16.9075L5.73901 11.9431C6.57865 10.4862 7.41844 9.02888 8.26093 7.57362C9.83971 6.99688 11.4201 6.42315 12.9998 5.84863L13.1294 5.89578H13.1295ZM12.6839 14.5721H13.7161V16.362C13.4511 16.5621 13.1444 16.7154 12.7957 16.8223C12.4469 16.9293 12.096 16.9828 11.7427 16.9828C11.2358 16.9828 10.7803 16.8747 10.3758 16.6584C9.97116 16.4422 9.65398 16.1423 9.42379 15.7588C9.19376 15.3753 9.07866 14.9419 9.07866 14.4582C9.07866 13.9748 9.19376 13.5412 9.42379 13.1575C9.65398 12.774 9.97354 12.4741 10.3826 12.258C11.1156 11.8707 11.6496 11.9075 12.3405 11.9816V12.9378C11.8778 12.8865 11.4328 12.8524 10.9894 13.0913C10.7476 13.2215 10.5595 13.4052 10.4246 13.6422C10.2898 13.8792 10.2223 14.1511 10.2223 14.458C10.2223 14.7603 10.2898 15.03 10.4246 15.267C10.5595 15.504 10.7465 15.6888 10.9859 15.8213C11.2251 15.9539 11.4983 16.0201 11.8052 16.0201C12.1307 16.0201 12.4235 15.9504 12.6837 15.8109V14.5718L12.6839 14.5721ZM12.6879 12.0186H12.6882V9.60689H14.6923C15.1245 9.60689 15.5 9.67913 15.8184 9.82295C16.1367 9.96726 16.382 10.1717 16.5543 10.4367C16.7262 10.7018 16.8122 11.0155 16.8122 11.3782C16.8122 11.7361 16.7262 12.0488 16.5543 12.3161C16.382 12.5833 16.1369 12.7879 15.8184 12.9297C15.2125 13.1994 14.6516 13.1637 14.0498 13.1046V12.1653C14.5133 12.2269 15.0626 12.285 15.4035 12.0021C15.58 11.8556 15.6686 11.6478 15.6686 11.3782C15.6686 11.1038 15.5802 10.8936 15.4035 10.747C15.2268 10.6005 14.9688 10.5273 14.6292 10.5273H13.7088V11.6714H13.7024V13.2956H13.7088V14.243H12.688V12.9753H12.6877V12.0185L12.6879 12.0186ZM17.1539 9.06413C16.0907 8.00113 14.6219 7.34359 12.9998 7.34359C11.3779 7.34359 9.90893 8.00129 8.84593 9.06413C7.78293 10.1273 7.12539 11.596 7.12539 13.2182C7.12539 14.8401 7.78309 16.309 8.84593 17.3719C9.90909 18.4349 11.3779 19.0924 12.9998 19.0924C14.6218 19.0924 16.0907 18.4347 17.1539 17.3719C18.2169 16.3089 18.8744 14.8401 18.8744 13.2182C18.8744 11.5962 18.2167 10.1273 17.1539 9.06413Z" fill="#D9D9D9"/>
</g>
<g clip-path="url(#clip1_49_57056)">
<path d="M12.8705 45.1042L8.26099 43.4264L5.73906 39.0569C6.03275 37.4024 6.3247 35.7475 6.61442 34.0925L10.4791 30.8497L15.521 30.8497L19.3856 34.0925L20.261 39.0569C19.4214 40.5138 18.5816 41.9711 17.7391 43.4264C16.1603 44.0031 14.5799 44.5768 13.0002 45.1514L12.8706 45.1042L12.8705 45.1042ZM13.3161 36.4279L12.2839 36.4279L12.2839 34.638C12.5489 34.4379 12.8556 34.2846 13.2043 34.1777C13.5531 34.0707 13.904 34.0172 14.2573 34.0172C14.7642 34.0172 15.2197 34.1253 15.6242 34.3416C16.0288 34.5578 16.346 34.8577 16.5762 35.2412C16.8062 35.6247 16.9213 36.0581 16.9213 36.5418C16.9213 37.0252 16.8062 37.4588 16.5762 37.8425C16.346 38.226 16.0265 38.5259 15.6174 38.742C14.8844 39.1293 14.3504 39.0925 13.6595 39.0184L13.6595 38.0622C14.1222 38.1135 14.5672 38.1476 15.0106 37.9087C15.2524 37.7785 15.4405 37.5948 15.5754 37.3578C15.7102 37.1208 15.7777 36.8489 15.7777 36.542C15.7777 36.2397 15.7102 35.97 15.5754 35.733C15.4405 35.496 15.2535 35.3112 15.0141 35.1787C14.7749 35.0461 14.5017 34.9799 14.1948 34.9799C13.8693 34.9799 13.5765 35.0496 13.3163 35.1891L13.3163 36.4282L13.3161 36.4279ZM13.3121 38.9814L13.3118 38.9814L13.3118 41.3931L11.3077 41.3931C10.8755 41.3931 10.5 41.3209 10.1816 41.177C9.86326 41.0327 9.61799 40.8283 9.44575 40.5633C9.27382 40.2982 9.18778 39.9845 9.18778 39.6218C9.18778 39.2639 9.27382 38.9512 9.44575 38.6839C9.61799 38.4167 9.8631 38.2121 10.1816 38.0703C10.7875 37.8006 11.3484 37.8363 11.9502 37.8954L11.9502 38.8347C11.4867 38.7731 10.9374 38.715 10.5965 38.9979C10.42 39.1444 10.3314 39.3522 10.3314 39.6218C10.3314 39.8962 10.4198 40.1064 10.5965 40.253C10.7732 40.3995 11.0312 40.4727 11.3708 40.4727L12.2912 40.4727L12.2912 39.3286L12.2976 39.3286L12.2976 37.7044L12.2912 37.7044L12.2912 36.757L13.312 36.757L13.312 38.0247L13.3123 38.0247L13.3123 38.9815L13.3121 38.9814ZM8.84614 41.9359C9.9093 42.9989 11.3781 43.6564 13.0002 43.6564C14.6221 43.6564 16.0911 42.9987 17.1541 41.9359C18.2171 40.8727 18.8746 39.404 18.8746 37.7818C18.8746 36.1599 18.2169 34.691 17.1541 33.6281C16.0909 32.5651 14.6221 31.9076 13.0002 31.9076C11.3782 31.9076 9.9093 32.5653 8.84614 33.6281C7.78315 34.6911 7.1256 36.1599 7.1256 37.7818C7.1256 39.4038 7.7833 40.8727 8.84614 41.9359Z" fill="#D9D9D9"/>
</g>
<defs>
<linearGradient id="paint0_linear_49_57056" x1="13" y1="1" x2="13" y2="51" gradientUnits="userSpaceOnUse">
<stop stop-color="white"/>
<stop offset="1"/>
</linearGradient>
<clipPath id="clip0_49_57056">
<rect width="18" height="18" fill="white" transform="translate(4 4)"/>
</clipPath>
<clipPath id="clip1_49_57056">
<rect width="18" height="18" fill="white" transform="translate(22 47) rotate(-180)"/>
</clipPath>
</defs>
</svg>
