<svg width="171" height="240" viewBox="0 0 171 240" fill="none" xmlns="http://www.w3.org/2000/svg">
<path d="M160.309 0.762695H11.1143C5.22872 0.762695 0.45752 5.5339 0.45752 11.4195V228.818C0.45752 234.703 5.22872 239.475 11.1143 239.475H160.309C166.195 239.475 170.966 234.703 170.966 228.818V11.4195C170.966 5.5339 166.195 0.762695 160.309 0.762695Z" fill="#F9F1DF"/>
<path d="M29.4868 45.5212C29.1431 46.1383 28.6409 46.6523 28.032 47.0102C27.4231 47.3681 26.7296 47.5568 26.0233 47.5568C25.317 47.5568 24.6235 47.3681 24.0146 47.0102C23.4057 46.6523 22.9035 46.1383 22.5598 45.5212C21.5008 45.5269 20.4872 45.9515 19.7403 46.7024C18.9935 47.4532 18.5742 48.4692 18.5742 49.5282C18.5742 53.9401 24.9683 56.3059 26.034 59.1193C27.2062 56.3059 33.4937 53.9401 33.4937 49.5282C33.4937 48.4655 33.0715 47.4463 32.3201 46.6949C31.5686 45.9434 30.5495 45.5212 29.4868 45.5212Z" fill="#C93112"/>
<path d="M141.916 193.651C142.259 193.034 142.762 192.52 143.37 192.162C143.979 191.804 144.673 191.616 145.379 191.616C146.085 191.616 146.779 191.804 147.388 192.162C147.997 192.52 148.499 193.034 148.843 193.651C149.905 193.651 150.924 193.229 151.676 192.477C152.427 191.726 152.85 190.707 152.85 189.644C152.85 185.232 146.455 182.866 145.39 180.053C144.218 182.866 137.93 185.232 137.93 189.644C137.93 190.703 138.349 191.719 139.096 192.47C139.843 193.221 140.857 193.645 141.916 193.651Z" fill="#C93112"/>
<path d="M20.0019 19.3268V33.9053C19.9919 34.0848 20.0532 34.261 20.1725 34.3955C20.2964 34.5263 20.4623 34.6093 20.6413 34.63L23.1564 35.0349V36.4629H13.2456V35.0349L16.1228 34.63C16.3129 34.6047 16.4912 34.523 16.6345 34.3955C16.7057 34.336 16.7619 34.2607 16.7989 34.1756C16.8359 34.0905 16.8526 33.998 16.8475 33.9053V22.4173L16.1442 22.6091L15.2277 22.8223L14.2686 22.9927H13.4161L13.1177 21.4795C13.5964 21.363 14.0663 21.2134 14.5243 21.0319C15.0145 20.8614 15.4835 20.6483 15.9524 20.4351C16.4213 20.222 16.8476 19.9662 17.2525 19.7105C17.6262 19.4735 17.9823 19.2099 18.3182 18.9219L20.0019 19.3268Z" fill="#C93112"/>
<path d="M31.7889 36.7824C30.7089 36.8147 29.6383 36.5727 28.6771 36.0791C27.8162 35.6588 27.0811 35.0193 26.5458 34.2248C26.028 33.37 25.6604 32.4329 25.4588 31.454C25.2408 30.3449 25.1338 29.2168 25.1391 28.0865C25.1222 26.7419 25.287 25.4012 25.6293 24.1009C25.9144 23.0819 26.3918 22.1269 27.0359 21.2875C27.6042 20.5665 28.3344 19.9896 29.1673 19.6037C30.0722 19.2284 31.0437 19.0399 32.0234 19.0496C33.1008 19.0188 34.1694 19.253 35.1352 19.7316C35.951 20.1676 36.6409 20.8062 37.1387 21.5859C37.6745 22.4316 38.0434 23.3721 38.2256 24.3566C38.4446 25.4656 38.5518 26.5938 38.5453 27.7242C38.5745 29.0764 38.4095 30.4258 38.0551 31.7311C37.7879 32.7569 37.3086 33.7153 36.6484 34.5445C36.0819 35.2672 35.3512 35.8444 34.517 36.2283C33.6518 36.5871 32.7255 36.7752 31.7889 36.7824ZM31.7889 20.6694C31.2742 20.6589 30.7699 20.8151 30.3512 21.1147C29.9325 21.4143 29.6219 21.8413 29.4657 22.3318C28.937 23.9683 28.706 25.6864 28.7837 27.4045C28.72 29.332 28.95 31.2581 29.4657 33.1165C29.5926 33.6934 29.9137 34.2093 30.3754 34.5779C30.8371 34.9464 31.4113 35.1453 32.002 35.1413C32.5194 35.1504 33.0258 34.9911 33.4448 34.6874C33.8638 34.3837 34.1729 33.9521 34.3253 33.4575C34.8754 31.8256 35.1139 30.1049 35.0285 28.3849C35.0995 26.4626 34.8621 24.5413 34.3253 22.6942C34.2087 22.1278 33.9021 21.6183 33.4563 21.2501C33.0105 20.8818 32.4523 20.6769 31.8742 20.6694H31.7889Z" fill="#C93112"/>
<path d="M151.4 219.844V205.373C151.416 205.196 151.363 205.02 151.251 204.882C151.12 204.75 150.947 204.667 150.761 204.648L148.267 204.243V202.815H158.178V204.243L155.301 204.648C155.111 204.673 154.933 204.755 154.789 204.882C154.724 204.946 154.674 205.022 154.641 205.107C154.608 205.191 154.593 205.282 154.598 205.373V216.861L155.301 216.669L156.196 216.456L157.177 216.285H158.029L158.327 217.798C157.841 217.912 157.364 218.061 156.899 218.246C156.431 218.416 155.94 218.63 155.493 218.843C155.047 219.063 154.614 219.304 154.193 219.567C153.816 219.81 153.453 220.073 153.106 220.356L151.4 219.844Z" fill="#C93112"/>
<path d="M139.613 202.389C140.701 202.354 141.779 202.596 142.747 203.093C143.562 203.529 144.252 204.167 144.75 204.947C145.286 205.793 145.655 206.733 145.837 207.718C146.055 208.827 146.162 209.955 146.157 211.085C146.185 212.431 146.02 213.773 145.666 215.071C145.399 216.097 144.92 217.055 144.26 217.884C143.693 218.607 142.963 219.184 142.128 219.568C141.223 219.942 140.252 220.13 139.272 220.122C138.195 220.156 137.126 219.921 136.161 219.44C135.339 219.005 134.642 218.367 134.136 217.586C133.6 216.74 133.231 215.8 133.049 214.815C132.83 213.706 132.723 212.578 132.729 211.448C132.71 210.096 132.875 208.748 133.219 207.441C133.504 206.422 133.982 205.467 134.626 204.627C135.19 203.902 135.921 203.324 136.757 202.944C137.661 202.565 138.633 202.377 139.613 202.389ZM139.613 218.503C140.129 218.516 140.635 218.362 141.054 218.062C141.474 217.761 141.783 217.332 141.937 216.84C142.485 215.208 142.724 213.487 142.64 211.767C142.709 209.838 142.472 207.91 141.937 206.055C141.813 205.477 141.493 204.958 141.031 204.589C140.568 204.22 139.992 204.023 139.4 204.031C138.885 204.019 138.38 204.178 137.964 204.482C137.548 204.787 137.244 205.22 137.098 205.714C136.548 207.346 136.31 209.067 136.395 210.787C136.33 212.708 136.559 214.627 137.077 216.478C137.197 217.042 137.505 217.55 137.95 217.917C138.395 218.285 138.951 218.491 139.528 218.503H139.613Z" fill="#C93112"/>
<path d="M62.7998 37.5288C62.1125 38.7629 61.108 39.791 59.8902 40.5067C58.6724 41.2224 57.2854 41.5998 55.8729 41.5998C54.4603 41.5998 53.0733 41.2224 51.8555 40.5067C50.6377 39.791 49.6332 38.7629 48.946 37.5288C46.8262 37.5288 44.7932 38.3709 43.2943 39.8698C41.7954 41.3687 40.9534 43.4016 40.9534 45.5214C40.9534 54.3452 53.5284 59.0768 55.8729 64.7036C58.2174 59.0768 70.7924 54.3452 70.7924 45.5214C70.7924 43.4016 69.9503 41.3687 68.4514 39.8698C66.9525 38.3709 64.9195 37.5288 62.7998 37.5288Z" fill="#C93112"/>
<path d="M122.478 37.5288C121.79 38.7629 120.786 39.791 119.568 40.5067C118.35 41.2224 116.963 41.5998 115.551 41.5998C114.138 41.5998 112.751 41.2224 111.533 40.5067C110.315 39.791 109.311 38.7629 108.624 37.5288C106.504 37.5288 104.471 38.3709 102.972 39.8698C101.473 41.3687 100.631 43.4016 100.631 45.5214C100.631 54.3452 113.206 59.0768 115.551 64.7036C117.895 59.0768 130.47 54.3452 130.47 45.5214C130.47 43.4016 129.628 41.3687 128.129 39.8698C126.63 38.3709 124.597 37.5288 122.478 37.5288Z" fill="#C93112"/>
<path d="M92.6386 62.0393C91.9514 63.2734 90.9469 64.3015 89.7291 65.0172C88.5113 65.7329 87.1243 66.1103 85.7117 66.1103C84.2992 66.1103 82.9122 65.7329 81.6944 65.0172C80.4765 64.3015 79.4721 63.2734 78.7848 62.0393C76.6651 62.0393 74.6321 62.8814 73.1332 64.3803C71.6343 65.8792 70.7922 67.9121 70.7922 70.0319C70.7922 78.8557 83.3672 83.5873 85.7117 89.2141C88.0562 83.5873 100.631 78.8557 100.631 70.0319C100.631 67.9121 99.7892 65.8792 98.2903 64.3803C96.7914 62.8814 94.7584 62.0393 92.6386 62.0393Z" fill="#C93112"/>
<path d="M62.7995 84.4185C62.1122 85.6526 61.1078 86.6806 59.89 87.3964C58.6722 88.1121 57.2852 88.4895 55.8726 88.4895C54.46 88.4895 53.0731 88.1121 51.8553 87.3964C50.6374 86.6806 49.633 85.6526 48.9457 84.4185C46.8259 84.4185 44.793 85.2605 43.2941 86.7594C41.7952 88.2583 40.9531 90.2913 40.9531 92.411C40.9531 101.235 53.5281 105.966 55.8726 111.593C58.2171 105.966 70.7921 101.235 70.7921 92.411C70.7921 90.2913 69.9501 88.2583 68.4512 86.7594C66.9523 85.2605 64.9193 84.4185 62.7995 84.4185Z" fill="#C93112"/>
<path d="M122.478 84.4185C121.79 85.6526 120.786 86.6806 119.568 87.3964C118.35 88.1121 116.963 88.4895 115.551 88.4895C114.138 88.4895 112.751 88.1121 111.533 87.3964C110.315 86.6806 109.311 85.6526 108.624 84.4185C106.504 84.4185 104.471 85.2605 102.972 86.7594C101.473 88.2583 100.631 90.2913 100.631 92.411C100.631 101.235 113.206 105.966 115.551 111.593C117.895 105.966 130.47 101.235 130.47 92.411C130.47 90.2913 129.628 88.2583 128.129 86.7594C126.63 85.2605 124.597 84.4185 122.478 84.4185Z" fill="#C93112"/>
<path d="M62.7995 201.643C62.1122 200.409 61.1078 199.381 59.89 198.665C58.6722 197.949 57.2852 197.572 55.8726 197.572C54.46 197.572 53.0731 197.949 51.8553 198.665C50.6374 199.381 49.633 200.409 48.9457 201.643C46.8259 201.643 44.793 200.801 43.2941 199.302C41.7952 197.803 40.9531 195.77 40.9531 193.65C40.9531 184.827 53.5281 180.095 55.8726 174.468C58.2171 180.095 70.7921 184.827 70.7921 193.65C70.7921 195.77 69.9501 197.803 68.4512 199.302C66.9523 200.801 64.9193 201.643 62.7995 201.643Z" fill="#C93112"/>
<path d="M122.478 201.643C121.79 200.409 120.786 199.381 119.568 198.665C118.35 197.949 116.963 197.572 115.551 197.572C114.138 197.572 112.751 197.949 111.533 198.665C110.315 199.381 109.311 200.409 108.624 201.643C106.504 201.643 104.471 200.801 102.972 199.302C101.473 197.803 100.631 195.77 100.631 193.65C100.631 184.827 113.206 180.095 115.551 174.468C117.895 180.095 130.47 184.827 130.47 193.65C130.47 195.77 129.628 197.803 128.129 199.302C126.63 200.801 124.597 201.643 122.478 201.643Z" fill="#C93112"/>
<path d="M92.6386 177.132C91.9514 175.898 90.9469 174.87 89.7291 174.154C88.5113 173.439 87.1243 173.061 85.7117 173.061C84.2992 173.061 82.9122 173.439 81.6944 174.154C80.4765 174.87 79.4721 175.898 78.7848 177.132C76.6651 177.132 74.6321 176.29 73.1332 174.791C71.6343 173.292 70.7922 171.259 70.7922 169.14C70.7922 160.316 83.3672 155.584 85.7117 149.958C88.0562 155.584 100.631 160.316 100.631 169.14C100.631 171.259 99.7892 173.292 98.2903 174.791C96.7914 176.29 94.7584 177.132 92.6386 177.132Z" fill="#C93112"/>
<path d="M62.7995 154.753C62.1122 153.519 61.1078 152.491 59.89 151.775C58.6722 151.06 57.2852 150.682 55.8726 150.682C54.46 150.682 53.0731 151.06 51.8553 151.775C50.6374 152.491 49.633 153.519 48.9457 154.753C46.8259 154.753 44.793 153.911 43.2941 152.412C41.7952 150.913 40.9531 148.88 40.9531 146.761C40.9531 137.937 53.5281 133.205 55.8726 127.578C58.2171 133.205 70.7921 137.937 70.7921 146.761C70.7921 148.88 69.9501 150.913 68.4512 152.412C66.9523 153.911 64.9193 154.753 62.7995 154.753Z" fill="#C93112"/>
<path d="M122.478 154.753C121.79 153.519 120.786 152.491 119.568 151.775C118.35 151.06 116.963 150.682 115.551 150.682C114.138 150.682 112.751 151.06 111.533 151.775C110.315 152.491 109.311 153.519 108.624 154.753C106.504 154.753 104.471 153.911 102.972 152.412C101.473 150.913 100.631 148.88 100.631 146.761C100.631 137.937 113.206 133.205 115.551 127.578C117.895 133.205 130.47 137.937 130.47 146.761C130.47 148.88 129.628 150.913 128.129 152.412C126.63 153.911 124.597 154.753 122.478 154.753Z" fill="#C93112"/>
</svg>
