<svg width="172" height="240" viewBox="0 0 172 240" fill="none" xmlns="http://www.w3.org/2000/svg">
<path d="M160.576 0.525391H11.3814C5.49581 0.525391 0.724609 5.29659 0.724609 11.1822V228.58C0.724609 234.466 5.49581 239.237 11.3814 239.237H160.576C166.462 239.237 171.233 234.466 171.233 228.58V11.1822C171.233 5.29659 166.462 0.525391 160.576 0.525391Z" fill="#F9F1DF"/>
<path d="M26.3004 41.8308C25.1282 44.7508 19.3735 45.8378 19.3735 50.3562C19.3735 50.845 19.4702 51.329 19.6579 51.7804C19.8456 52.2317 20.1206 52.6415 20.4673 52.9862C20.8139 53.3308 21.2253 53.6035 21.6777 53.7886C22.1301 53.9737 22.6146 54.0676 23.1034 54.0648C23.6153 54.0613 24.1212 53.9538 24.5902 53.7486C25.0592 53.5434 25.4816 53.2449 25.8315 52.8712C25.7324 54.3151 25.1463 55.6827 24.1691 56.7503V57.2618H28.4318V56.7503C27.4468 55.6857 26.8531 54.3178 26.748 52.8712C27.1004 53.2475 27.5262 53.5475 27.9991 53.7528C28.472 53.958 28.982 54.0642 29.4975 54.0648C30.483 54.0648 31.4285 53.6748 32.1274 52.9799C32.8263 52.285 33.2217 51.3418 33.2273 50.3562C33.2273 45.8378 27.4514 44.7508 26.3004 41.8308Z" fill="#1F1F1F"/>
<path d="M145.656 195.8C146.807 192.88 152.583 191.793 152.583 187.274C152.577 186.289 152.182 185.345 151.483 184.651C150.784 183.956 149.839 183.566 148.853 183.566C148.338 183.566 147.828 183.672 147.355 183.878C146.882 184.083 146.456 184.383 146.104 184.759C146.209 183.313 146.803 181.945 147.788 180.88V180.369H143.525V180.88C144.502 181.948 145.088 183.315 145.187 184.759C144.675 184.235 144.019 183.874 143.302 183.721C142.585 183.568 141.839 183.629 141.157 183.897C140.474 184.166 139.886 184.629 139.466 185.23C139.046 185.83 138.812 186.541 138.793 187.274C138.729 191.793 144.505 192.88 145.656 195.8Z" fill="#1F1F1F"/>
<path d="M31.9276 35.6929H20.4396L19.7576 33.8387C21.3135 32.4746 22.5923 31.3024 23.658 30.3006C24.5591 29.4901 25.4064 28.6214 26.1943 27.7004C26.7458 27.0525 27.2115 26.3361 27.5796 25.569C27.8494 24.9949 27.9947 24.3702 28.0059 23.736C28.0218 23.3369 27.9499 22.9391 27.7952 22.5708C27.6406 22.2026 27.4069 21.8727 27.1108 21.6047C26.5188 21.0979 25.7582 20.8317 24.9794 20.8587C24.2829 20.8496 23.5997 21.0501 23.0185 21.4342C22.3776 21.8819 21.8339 22.4547 21.42 23.118L20.3117 22.2015C20.5064 21.6776 20.7717 21.1828 21.1003 20.7308C21.4337 20.241 21.8524 19.815 22.3365 19.4733C22.8429 19.0867 23.4126 18.791 24.0203 18.5995C24.7063 18.3658 25.427 18.2505 26.1516 18.2585C26.8765 18.248 27.5976 18.3634 28.283 18.5995C28.9044 18.8098 29.4771 19.1432 29.9668 19.5799C30.4496 20.0124 30.8347 20.5428 31.0964 21.1358C31.3835 21.8087 31.5216 22.5358 31.5013 23.2671C31.5054 24.1133 31.3235 24.9501 30.9685 25.7182C30.5561 26.5934 30.0096 27.3988 29.3487 28.1053C28.5004 29.0153 27.581 29.8562 26.5992 30.6203C25.4909 31.4942 24.2121 32.4533 22.7202 33.4763H25.8959C26.514 33.4763 27.0681 33.4763 27.5583 33.4763L28.7519 33.3484C28.9819 33.3135 29.2007 33.2259 29.3913 33.0927C29.5214 32.9663 29.6231 32.8138 29.6897 32.6451L30.6488 30.5138L32.3326 30.7269C32.3326 31.5155 32.3326 32.3894 32.2047 33.3058C32.1561 34.106 32.0636 34.9029 31.9276 35.6929Z" fill="#1F1F1F"/>
<path d="M139.967 201.938H151.455L152.115 203.793C150.581 205.157 149.281 206.329 148.215 207.331C147.324 208.153 146.478 209.02 145.679 209.931C145.135 210.585 144.67 211.3 144.293 212.062C144.03 212.638 143.891 213.263 143.888 213.895C143.868 214.293 143.936 214.69 144.087 215.059C144.238 215.427 144.469 215.758 144.762 216.027C145.357 216.528 146.116 216.794 146.893 216.773C147.589 216.775 148.27 216.575 148.854 216.197C149.483 215.743 150.019 215.171 150.432 214.513L151.54 215.43C151.361 215.957 151.103 216.453 150.773 216.901C150.433 217.385 150.015 217.81 149.536 218.158C149.022 218.545 148.446 218.841 147.831 219.032C146.447 219.487 144.953 219.487 143.569 219.032C142.949 218.817 142.377 218.484 141.885 218.052C141.409 217.613 141.025 217.084 140.755 216.496C140.468 215.823 140.33 215.096 140.35 214.364C140.357 213.519 140.538 212.685 140.883 211.913C141.303 211.037 141.857 210.232 142.524 209.526C143.365 208.616 144.277 207.775 145.252 207.011C146.361 206.137 147.661 205.178 149.131 204.155H145.956C145.359 204.155 144.805 204.155 144.293 204.155L143.121 204.283C142.884 204.315 142.657 204.402 142.46 204.539C142.337 204.671 142.236 204.822 142.162 204.986L141.245 207.267L139.54 207.054C139.54 206.265 139.54 205.391 139.668 204.475C139.718 203.624 139.817 202.777 139.967 201.938Z" fill="#1F1F1F"/>
<path d="M85.9567 56.1968C82.5039 65.0206 65.176 68.2389 65.176 81.773C65.1621 84.0288 65.8329 86.2356 67.0998 88.102C68.3667 89.9684 70.1701 91.4066 72.2716 92.2264C74.3731 93.0462 76.6739 93.2091 78.8699 92.6936C81.066 92.1782 83.054 91.0086 84.5713 89.3394C84.2944 93.6698 82.533 97.7722 79.5839 100.955V102.575H92.3721V100.955C89.4063 97.7811 87.6357 93.675 87.3634 89.3394C88.8774 91.0122 90.8642 92.1851 93.0603 92.7026C95.2564 93.2201 97.5579 93.0577 99.6595 92.237C101.761 91.4162 103.564 89.9759 104.828 88.107C106.092 86.2382 106.758 84.0292 106.737 81.773C106.737 68.2389 89.4308 65.0206 85.9567 56.1968Z" fill="#1F1F1F"/>
<path d="M85.9565 181.435C82.5037 172.611 65.1757 169.393 65.1757 155.859C65.1619 153.603 65.8327 151.396 67.0996 149.53C68.3665 147.664 70.1698 146.225 72.2713 145.406C74.3728 144.586 76.6736 144.423 78.8697 144.938C81.0658 145.454 83.0538 146.623 84.5711 148.293C84.2942 143.962 82.5328 139.86 79.5837 136.677V135.057H92.3718V136.677C89.406 139.851 87.6355 143.957 87.3632 148.293C88.8772 146.62 90.864 145.447 93.0601 144.929C95.2561 144.412 97.5577 144.574 99.6593 145.395C101.761 146.216 103.563 147.656 104.827 149.525C106.092 151.394 106.758 153.603 106.737 155.859C106.737 169.393 89.4306 172.611 85.9565 181.435Z" fill="#1F1F1F"/>
</svg>
