<svg width="171" height="239" viewBox="0 0 171 239" fill="none" xmlns="http://www.w3.org/2000/svg">
<path d="M160.004 0.288086H10.8091C4.92355 0.288086 0.152344 5.05929 0.152344 10.9449V228.343C0.152344 234.229 4.92355 239 10.8091 239H160.004C165.89 239 170.661 234.229 170.661 228.343V10.9449C170.661 5.05929 165.89 0.288086 160.004 0.288086Z" fill="#F9F1DF"/>
<path d="M25.7288 57.3021C23.8037 54.3111 21.26 51.7674 18.269 49.8423C21.26 47.9172 23.8037 45.3735 25.7288 42.3826C27.6539 45.3735 30.1976 47.9172 33.1885 49.8423C30.1976 51.7674 27.6539 54.3111 25.7288 57.3021Z" fill="#C93112"/>
<path d="M145.085 178.79C147.01 181.781 149.554 184.324 152.544 186.249C149.554 188.174 147.01 190.718 145.085 193.709C143.16 190.718 140.616 188.174 137.625 186.249C140.616 184.324 143.16 181.781 145.085 178.79V178.79Z" fill="#C93112"/>
<path d="M32.5701 31.7263H29.9912V34.9233H26.7942V31.7263H19.3344L18.5032 30.1064C19.718 28.1669 20.8903 26.1421 22.02 24.0747C23.1496 22.0073 24.2578 19.812 25.3022 17.6807H28.2862L28.7337 18.4053C27.9451 19.876 27.2205 21.2187 26.6024 22.3909C25.9843 23.5632 25.3022 24.6502 24.7054 25.6093C24.1663 26.4701 23.583 27.3024 22.9578 28.103C22.4299 28.7967 21.8453 29.4455 21.21 30.0425L26.9007 29.8081L27.2205 25.8011L29.9486 25.6519V29.6589H32.6341L32.5701 31.7263Z" fill="#C93112"/>
<path d="M138.222 204.366H140.928V201.169H144.019V204.366H151.479L152.31 205.986C151.095 207.925 149.923 209.95 148.793 212.018C147.664 214.085 146.555 216.28 145.49 218.412H142.527L142.079 217.687C142.868 216.216 143.593 214.874 144.211 213.68C144.829 212.486 145.511 211.442 146.108 210.483C146.647 209.622 147.23 208.79 147.855 207.989C148.383 207.296 148.968 206.647 149.603 206.05L143.912 206.284L143.593 210.291L140.865 210.44V206.433H138.158L138.222 204.366Z" fill="#C93112"/>
<path d="M55.5679 62.6302C51.7292 56.6391 46.6396 51.5495 40.6484 47.7108C46.6396 43.8721 51.7292 38.7824 55.5679 32.7913C59.4066 38.7824 64.4962 43.8721 70.4874 47.7108C64.4962 51.5495 59.4066 56.6391 55.5679 62.6302V62.6302Z" fill="#C93112"/>
<path d="M115.246 62.6302C111.407 56.6391 106.318 51.5495 100.326 47.7108C106.318 43.8721 111.407 38.7824 115.246 32.7913C119.085 38.7824 124.174 43.8721 130.165 47.7108C124.174 51.5495 119.085 56.6391 115.246 62.6302V62.6302Z" fill="#C93112"/>
<path d="M71.9792 188.381C65.3784 192.635 59.7791 198.27 55.5677 204.899C51.3443 198.309 45.7459 192.711 39.1562 188.487C45.7459 184.264 51.3443 178.665 55.5677 172.076C59.8031 178.627 65.4007 184.188 71.9792 188.381V188.381Z" fill="#C93112"/>
<path d="M130.165 188.38C124.174 192.219 119.085 197.309 115.246 203.3C111.407 197.309 106.318 192.219 100.326 188.38C106.318 184.541 111.407 179.452 115.246 173.461C119.085 179.452 124.174 184.541 130.165 188.38V188.38Z" fill="#C93112"/>
</svg>
