<svg width="171" height="239" viewBox="0 0 171 239" fill="none" xmlns="http://www.w3.org/2000/svg">
<path d="M160.004 0H10.8091C4.92355 0 0.152344 4.7712 0.152344 10.6568V228.055C0.152344 233.941 4.92355 238.712 10.8091 238.712H160.004C165.89 238.712 170.661 233.941 170.661 228.055V10.6568C170.661 4.7712 165.89 0 160.004 0Z" fill="#F9F1DF"/>
<path d="M32.2512 49.1489C31.649 48.5554 30.8374 48.2226 29.9919 48.2226C29.1464 48.2226 28.3349 48.5554 27.7327 49.1489L26.3686 50.5343C26.6606 49.578 27.2232 48.7268 27.9885 48.0832C28.435 47.6361 28.7391 47.0667 28.8622 46.4469C28.9853 45.8271 28.922 45.1848 28.6803 44.6009C28.4385 44.0171 28.0292 43.518 27.5039 43.1666C26.9787 42.8153 26.3611 42.6275 25.7292 42.627C24.8821 42.63 24.0703 42.967 23.47 43.5648C23.171 43.8601 22.9336 44.2119 22.7715 44.5997C22.6095 44.9876 22.5261 45.4037 22.5261 45.824C22.5261 46.2443 22.6095 46.6604 22.7715 47.0482C22.9336 47.436 23.171 47.7878 23.47 48.0832C24.2352 48.7268 24.7978 49.578 25.0898 50.5343L23.7257 49.1489C23.2776 48.7044 22.7079 48.4025 22.0885 48.2813C21.469 48.1601 20.8275 48.2249 20.2449 48.4676C19.6622 48.7104 19.1645 49.1202 18.8143 49.6453C18.4642 50.1705 18.2773 50.7876 18.2773 51.4188C18.2773 52.05 18.4642 52.6671 18.8143 53.1922C19.1645 53.7174 19.6622 54.1272 20.2449 54.37C20.8275 54.6127 21.469 54.6775 22.0885 54.5563C22.7079 54.4351 23.2776 54.1332 23.7257 53.6887L25.3029 52.0902C25.371 53.0099 25.2554 53.934 24.9626 54.8086C24.6699 55.6832 24.2059 56.4907 23.5979 57.1841V57.6956H27.8606V57.1841C26.6383 55.7873 26.0178 53.9639 26.1342 52.1115V51.9836L27.7114 53.5821C28.0095 53.8788 28.3631 54.1139 28.752 54.2739C29.1409 54.4339 29.5576 54.5158 29.9781 54.5148C30.3987 54.5138 30.815 54.43 31.2032 54.2681C31.5914 54.1063 31.9438 53.8696 32.2405 53.5715C32.5372 53.2734 32.7723 52.9198 32.9323 52.5308C33.0923 52.1419 33.1742 51.7253 33.1732 51.3047C33.1722 50.8841 33.0884 50.4679 32.9265 50.0797C32.7647 49.6915 32.5279 49.339 32.2298 49.0423L32.2512 49.1489Z" fill="#1F1F1F"/>
<path d="M138.564 189.563C139.166 190.157 139.977 190.49 140.823 190.49C141.668 190.49 142.48 190.157 143.082 189.563L144.446 188.178C144.154 189.134 143.592 189.985 142.826 190.629C142.38 191.076 142.076 191.646 141.953 192.265C141.83 192.885 141.893 193.527 142.135 194.111C142.376 194.695 142.786 195.194 143.311 195.546C143.836 195.897 144.454 196.085 145.086 196.085C145.933 196.082 146.745 195.745 147.345 195.147C147.644 194.852 147.881 194.5 148.043 194.112C148.205 193.725 148.289 193.309 148.289 192.888C148.289 192.468 148.205 192.052 148.043 191.664C147.881 191.276 147.644 190.924 147.345 190.629C146.58 189.985 146.017 189.134 145.725 188.178L147.089 189.563C147.537 190.008 148.107 190.31 148.726 190.431C149.346 190.552 149.987 190.487 150.57 190.245C151.153 190.002 151.65 189.592 152 189.067C152.351 188.542 152.537 187.925 152.537 187.293C152.537 186.662 152.351 186.045 152 185.52C151.65 184.995 151.153 184.585 150.57 184.342C149.987 184.1 149.346 184.035 148.726 184.156C148.107 184.277 147.537 184.579 147.089 185.024L145.512 186.622C145.444 185.702 145.559 184.778 145.852 183.904C146.145 183.029 146.609 182.222 147.217 181.528V181.017H142.954V181.528C144.176 182.925 144.797 184.748 144.681 186.601V186.729L143.103 185.13C142.501 184.531 141.686 184.195 140.837 184.197C139.987 184.199 139.174 184.539 138.574 185.141C137.975 185.743 137.64 186.558 137.642 187.408C137.644 188.257 137.983 189.071 138.585 189.67L138.564 189.563Z" fill="#1F1F1F"/>
<path d="M32.5711 33.0364H29.9922V36.2334H26.7952V33.0364H19.3354L18.5042 31.4165C19.719 29.477 20.8913 27.4522 22.0209 25.3848C23.1506 23.3174 24.2588 21.1221 25.3032 18.9907H28.2871L28.7347 19.7154C27.9461 21.186 27.2214 22.5288 26.6033 23.701C25.9852 24.8733 25.3032 25.9603 24.7064 26.8981C24.1722 27.769 23.5887 28.6087 22.9587 29.4131C22.4308 30.1068 21.8463 30.7556 21.211 31.3526L26.9017 31.1181L27.2215 27.1112L29.9496 26.962V30.9689H32.6351L32.5711 33.0364Z" fill="#1F1F1F"/>
<path d="M138.223 205.676H140.929V202.479H144.02V205.676H151.48L152.311 207.296C151.096 209.235 149.924 211.26 148.794 213.328C147.665 215.395 146.556 217.59 145.491 219.722H142.528L142.08 218.997C142.869 217.526 143.594 216.184 144.212 215.011C144.83 213.839 145.512 212.752 146.109 211.814C146.643 210.943 147.226 210.104 147.856 209.299C148.384 208.606 148.969 207.957 149.604 207.36L143.913 207.594L143.594 211.601L140.865 211.75V207.743H138.159L138.223 205.676Z" fill="#1F1F1F"/>
<path d="M68.6121 45.0361C67.4132 43.8387 65.7881 43.1662 64.0936 43.1662C62.3992 43.1662 60.7741 43.8387 59.5752 45.0361L56.8257 47.7856C57.4157 45.8705 58.5484 44.1677 60.0867 42.8835C61.2841 41.6846 61.9566 40.0594 61.9566 38.365C61.9566 36.6706 61.2841 35.0454 60.0867 33.8465C58.8878 32.6491 57.2627 31.9766 55.5682 31.9766C53.8738 31.9766 52.2486 32.6491 51.0498 33.8465C49.8524 35.0454 49.1798 36.6706 49.1798 38.365C49.1798 40.0594 49.8524 41.6846 51.0498 42.8835C52.588 44.1677 53.7208 45.8705 54.3107 47.7856L51.5613 45.0361C50.6673 44.1411 49.5281 43.5314 48.2875 43.284C47.047 43.0366 45.7609 43.1628 44.5921 43.6465C43.4232 44.1302 42.4242 44.9498 41.7212 46.0014C41.0183 47.0531 40.6431 48.2897 40.6431 49.5546C40.6431 50.8196 41.0183 52.0561 41.7212 53.1078C42.4242 54.1595 43.4232 54.979 44.5921 55.4627C45.7609 55.9465 47.047 56.0726 48.2875 55.8252C49.5281 55.5779 50.6673 54.9681 51.5613 54.0731L54.7157 50.9187C54.7157 50.9187 54.7157 51.0253 54.7157 51.0892C54.8507 52.9286 54.6187 54.7765 54.0332 56.5255C53.4478 58.2744 52.5206 59.8896 51.3055 61.2771V62.3428H59.8309V61.2771C57.3995 58.4854 56.1666 54.8479 56.3995 51.1531C56.3995 51.1531 56.3995 51.0253 56.3995 50.94L59.5538 54.0944C60.7659 55.2239 62.3691 55.8387 64.0256 55.8095C65.6821 55.7803 67.2626 55.1092 68.4341 53.9377C69.6056 52.7662 70.2767 51.1857 70.3059 49.5292C70.3351 47.8727 69.7202 46.2696 68.5908 45.0575L68.6121 45.0361Z" fill="#1F1F1F"/>
<path d="M128.29 45.0361C127.091 43.8387 125.466 43.1662 123.772 43.1662C122.077 43.1662 120.452 43.8387 119.253 45.0361L116.504 47.7856C117.094 45.8705 118.226 44.1677 119.765 42.8835C120.962 41.6846 121.635 40.0594 121.635 38.365C121.635 36.6706 120.962 35.0454 119.765 33.8465C118.566 32.6491 116.941 31.9766 115.246 31.9766C113.552 31.9766 111.927 32.6491 110.728 33.8465C109.53 35.0454 108.858 36.6706 108.858 38.365C108.858 40.0594 109.53 41.6846 110.728 42.8835C112.266 44.1677 113.399 45.8705 113.989 47.7856L111.239 45.0361C110.345 44.1411 109.206 43.5314 107.966 43.284C106.725 43.0366 105.439 43.1628 104.27 43.6465C103.101 44.1302 102.102 44.9498 101.399 46.0014C100.696 47.0531 100.321 48.2897 100.321 49.5546C100.321 50.8196 100.696 52.0561 101.399 53.1078C102.102 54.1595 103.101 54.979 104.27 55.4627C105.439 55.9465 106.725 56.0726 107.966 55.8252C109.206 55.5779 110.345 54.9681 111.239 54.0731L114.394 50.9187C114.394 50.9187 114.394 51.0253 114.394 51.0892C114.529 52.9286 114.297 54.7765 113.711 56.5255C113.126 58.2744 112.199 59.8896 110.983 61.2771V62.3428H119.509V61.2771C117.077 58.4854 115.845 54.8479 116.077 51.1531C116.077 51.1531 116.077 51.0253 116.077 50.94L119.232 54.0944C120.444 55.2239 122.047 55.8387 123.704 55.8095C125.36 55.7803 126.941 55.1092 128.112 53.9377C129.284 52.7662 129.955 51.1857 129.984 49.5292C130.013 47.8727 129.398 46.2696 128.269 45.0575L128.29 45.0361Z" fill="#1F1F1F"/>
<path d="M69.9124 194.081C69.261 194.735 68.487 195.253 67.6348 195.607C66.7826 195.961 65.869 196.143 64.9463 196.143C64.0236 196.143 63.11 195.961 62.2578 195.607C61.4056 195.253 60.6317 194.735 59.9803 194.081L56.9537 191.055C57.6165 193.153 58.8575 195.022 60.5344 196.447C61.1878 197.099 61.7063 197.873 62.0601 198.725C62.4139 199.577 62.5959 200.491 62.5959 201.413C62.5959 202.336 62.4139 203.249 62.0601 204.102C61.7063 204.954 61.1878 205.728 60.5344 206.379C59.8949 207.048 59.1277 207.581 58.2783 207.947C57.4289 208.313 56.5146 208.505 55.5897 208.511C54.1989 208.512 52.8389 208.101 51.6817 207.329C50.5245 206.558 49.622 205.461 49.0882 204.177C48.5544 202.892 48.4134 201.479 48.6829 200.114C48.9523 198.75 49.6203 197.496 50.6023 196.511C52.2792 195.086 53.5202 193.217 54.183 191.119L51.1564 194.145C50.1724 195.128 48.9192 195.797 47.5551 196.068C46.191 196.338 44.7772 196.198 43.4926 195.666C42.2079 195.133 41.11 194.232 40.3375 193.075C39.5651 191.919 39.1528 190.559 39.1528 189.169C39.1528 187.778 39.5651 186.418 40.3375 185.262C41.11 184.105 42.2079 183.204 43.4926 182.671C44.7772 182.139 46.191 181.999 47.5551 182.27C48.9192 182.54 50.1724 183.209 51.1564 184.192L54.6305 187.559C54.6305 187.559 54.6305 187.432 54.6305 187.368C54.7742 185.346 54.5147 183.315 53.867 181.394C53.2194 179.473 52.1966 177.7 50.8581 176.178V174.984H60.236V176.178C58.9057 177.697 57.8877 179.463 57.2404 181.376C56.5931 183.289 56.3291 185.31 56.4635 187.325C56.4635 187.325 56.4635 187.474 56.4635 187.559L59.9376 184.085C61.2698 182.83 63.0391 182.143 64.8695 182.171C66.6999 182.199 68.4472 182.94 69.7403 184.236C71.0333 185.532 71.7702 187.28 71.7944 189.111C71.8186 190.941 71.1281 192.709 69.8697 194.039L69.9124 194.081Z" fill="#1F1F1F"/>
<path d="M128.29 193.677C127.091 194.875 125.466 195.547 123.772 195.547C122.077 195.547 120.452 194.875 119.253 193.677L116.504 190.928C117.094 192.843 118.226 194.546 119.765 195.83C120.962 197.029 121.635 198.654 121.635 200.348C121.635 202.043 120.962 203.668 119.765 204.867C118.566 206.064 116.941 206.737 115.246 206.737C113.552 206.737 111.927 206.064 110.728 204.867C109.53 203.668 108.858 202.043 108.858 200.348C108.858 198.654 109.53 197.029 110.728 195.83C112.266 194.546 113.399 192.843 113.989 190.928L111.239 193.677C110.345 194.572 109.206 195.182 107.966 195.429C106.725 195.677 105.439 195.551 104.27 195.067C103.101 194.583 102.102 193.764 101.399 192.712C100.696 191.66 100.321 190.424 100.321 189.159C100.321 187.894 100.696 186.657 101.399 185.606C102.102 184.554 103.101 183.734 104.27 183.251C105.439 182.767 106.725 182.641 107.966 182.888C109.206 183.135 110.345 183.745 111.239 184.64L114.394 187.795C114.394 187.795 114.394 187.795 114.394 187.624C114.529 185.785 114.297 183.937 113.711 182.188C113.126 180.439 112.199 178.824 110.983 177.436V176.371H119.509V177.436C117.077 180.228 115.845 183.866 116.077 187.56C116.077 187.56 116.077 187.688 116.077 187.773L119.232 184.619C120.444 183.49 122.047 182.875 123.704 182.904C125.36 182.933 126.941 183.604 128.112 184.776C129.284 185.947 129.955 187.528 129.984 189.184C130.013 190.841 129.398 192.444 128.269 193.656L128.29 193.677Z" fill="#1F1F1F"/>
</svg>
