<svg width="172" height="240" viewBox="0 0 172 240" fill="none" xmlns="http://www.w3.org/2000/svg">
<path d="M160.729 0.762695H11.5337C5.64816 0.762695 0.876953 5.5339 0.876953 11.4195V228.818C0.876953 234.703 5.64816 239.475 11.5337 239.475H160.729C166.614 239.475 171.385 234.703 171.385 228.818V11.4195C171.385 5.5339 166.614 0.762695 160.729 0.762695Z" fill="#F9F1DF"/>
<path d="M29.9057 45.5212C29.1916 45.5325 28.4937 45.7365 27.886 46.1117C27.2782 46.4868 26.7831 47.0192 26.4529 47.6526C26.0207 46.8839 25.3457 46.2802 24.5337 45.9362C23.7217 45.5921 22.8185 45.5271 21.9655 45.7513C21.1126 45.9755 20.3581 46.4763 19.8203 47.1751C19.2824 47.874 18.9915 48.7315 18.9932 49.6134C18.9932 54.0253 25.2807 56.3912 26.4529 59.2045C27.6252 56.3912 33.9127 54.0253 33.9127 49.6134C33.924 49.0801 33.8287 48.5499 33.6325 48.0539C33.4362 47.5578 33.1428 47.106 32.7696 46.7248C32.3964 46.3437 31.9508 46.0409 31.459 45.8342C30.9672 45.6275 30.4392 45.5211 29.9057 45.5212Z" fill="#C93112"/>
<path d="M142.249 193.651C142.966 193.639 143.666 193.435 144.278 193.06C144.889 192.685 145.388 192.153 145.723 191.52C146.054 192.153 146.549 192.685 147.156 193.061C147.764 193.436 148.462 193.64 149.176 193.651C150.239 193.651 151.258 193.229 152.01 192.477C152.761 191.726 153.183 190.707 153.183 189.644C153.183 185.232 146.896 182.866 145.723 180.053C144.551 182.866 138.264 185.232 138.264 189.644C138.264 190.703 138.683 191.719 139.43 192.47C140.177 193.221 141.19 193.645 142.249 193.651Z" fill="#C93112"/>
<path d="M21.0609 33.2875C21.5968 33.7026 22.1842 34.0465 22.8085 34.3106C23.4845 34.5899 24.2085 34.7347 24.9399 34.7369C25.9517 34.7724 26.9376 34.4132 27.6894 33.7351C28.0604 33.3841 28.3501 32.956 28.5379 32.481C28.7257 32.006 28.8071 31.4955 28.7764 30.9857C28.8111 30.0636 28.4907 29.1634 27.8812 28.4707C27.5602 28.1392 27.1708 27.8817 26.7401 27.7161C26.3095 27.5505 25.8479 27.4807 25.3875 27.5116C24.9035 27.5108 24.4222 27.5826 23.9595 27.7247C23.4567 27.872 22.9709 28.0721 22.5102 28.3215L21.3379 27.5116L21.9134 19.3911H31.5045L31.2061 21.8635H23.9595L23.4906 26.4459C23.9823 26.0631 24.5486 25.7873 25.153 25.636C25.7318 25.4929 26.3259 25.4213 26.9221 25.4229C28.3935 25.3539 29.8329 25.8669 30.929 26.8509C31.4254 27.3499 31.8126 27.9468 32.0658 28.6037C32.319 29.2605 32.4326 29.9628 32.3996 30.666C32.4076 31.5288 32.2409 32.3843 31.9095 33.181C31.5859 33.9159 31.1143 34.5761 30.524 35.1205C29.9074 35.6815 29.1819 36.1095 28.3927 36.378C27.5261 36.6629 26.6194 36.8068 25.7072 36.8043C24.5944 36.8209 23.4906 36.603 22.4675 36.1649C21.5891 35.8043 20.808 35.2421 20.187 34.5237L21.0609 33.2875Z" fill="#C93112"/>
<path d="M151.18 205.885C150.647 205.465 150.059 205.121 149.432 204.862C148.757 204.58 148.032 204.435 147.301 204.436C146.282 204.399 145.289 204.758 144.53 205.437C144.159 205.788 143.869 206.216 143.682 206.691C143.494 207.166 143.412 207.677 143.443 208.187C143.408 209.109 143.729 210.009 144.338 210.702C144.662 211.03 145.052 211.285 145.482 211.45C145.912 211.616 146.372 211.687 146.832 211.661C147.316 211.662 147.797 211.59 148.26 211.448C148.763 211.3 149.248 211.1 149.709 210.851L150.881 211.661L150.327 219.781H140.715L141.013 217.309H148.281L148.75 212.727C148.262 213.115 147.694 213.391 147.088 213.536C146.516 213.678 145.929 213.75 145.34 213.75C143.862 213.817 142.417 213.305 141.312 212.322C140.815 211.822 140.428 211.226 140.175 210.569C139.922 209.912 139.808 209.21 139.841 208.506C139.833 207.644 140 206.788 140.331 205.991C140.655 205.251 141.135 204.589 141.738 204.052C142.353 203.489 143.079 203.061 143.869 202.794C144.736 202.51 145.643 202.366 146.555 202.368C147.674 202.354 148.785 202.571 149.816 203.008C150.691 203.374 151.471 203.935 152.096 204.649L151.18 205.885Z" fill="#C93112"/>
<path d="M63.219 37.5288C61.8073 37.5332 60.4221 37.9124 59.2051 38.6277C57.988 39.3429 56.9828 40.3686 56.2921 41.5997C55.4276 40.0623 54.0776 38.855 52.4536 38.1669C50.8295 37.4788 49.0232 37.3487 47.3173 37.7971C45.6115 38.2455 44.1025 39.247 43.0268 40.6448C41.951 42.0425 41.3693 43.7576 41.3726 45.5214C41.3726 54.3452 53.9263 59.0768 56.2921 64.7036C58.6366 59.0768 71.2116 54.3452 71.2116 45.5214C71.2116 43.4016 70.3695 41.3687 68.8706 39.8698C67.3717 38.3709 65.3387 37.5288 63.219 37.5288Z" fill="#C93112"/>
<path d="M122.897 37.5288C121.486 37.5332 120.1 37.9124 118.883 38.6277C117.666 39.3429 116.661 40.3686 115.97 41.5997C115.106 40.0623 113.756 38.855 112.132 38.1669C110.508 37.4788 108.701 37.3487 106.996 37.7971C105.29 38.2455 103.781 39.247 102.705 40.6448C101.629 42.0425 101.048 43.7576 101.051 45.5214C101.051 54.3452 113.604 59.0768 115.97 64.7036C118.315 59.0768 130.89 54.3452 130.89 45.5214C130.89 43.4016 130.048 41.3687 128.549 39.8698C127.05 38.3709 125.017 37.5288 122.897 37.5288Z" fill="#C93112"/>
<path d="M93.0581 106.798C91.6464 106.802 90.2612 107.181 89.0442 107.896C87.8271 108.612 86.8219 109.637 86.1312 110.869C85.2667 109.331 83.9167 108.124 82.2927 107.436C80.6686 106.748 78.8623 106.618 77.1564 107.066C75.4506 107.514 73.9416 108.516 72.8659 109.914C71.7901 111.311 71.2084 113.026 71.2117 114.79C71.2117 123.614 83.7654 128.346 86.1312 133.972C88.4757 128.346 101.051 123.614 101.051 114.79C101.051 112.67 100.209 110.637 98.7097 109.139C97.2108 107.64 95.1778 106.798 93.0581 106.798Z" fill="#C93112"/>
<path d="M63.2192 201.643C61.8076 201.639 60.4223 201.259 59.2053 200.544C57.9882 199.829 56.983 198.803 56.2923 197.572C55.4279 199.11 54.0778 200.317 52.4538 201.005C50.8298 201.693 49.0234 201.823 47.3176 201.375C45.6117 200.926 44.1028 199.925 43.027 198.527C41.9513 197.129 41.3695 195.414 41.3728 193.65C41.3728 184.827 53.9265 180.095 56.2923 174.468C58.6368 180.095 71.2118 184.827 71.2118 193.65C71.2118 195.77 70.3697 197.803 68.8708 199.302C67.3719 200.801 65.339 201.643 63.2192 201.643Z" fill="#C93112"/>
<path d="M122.897 201.643C121.486 201.639 120.1 201.259 118.883 200.544C117.666 199.829 116.661 198.803 115.97 197.572C115.106 199.11 113.756 200.317 112.132 201.005C110.508 201.693 108.701 201.823 106.996 201.375C105.29 200.926 103.781 199.925 102.705 198.527C101.629 197.129 101.048 195.414 101.051 193.65C101.051 184.827 113.604 180.095 115.97 174.468C118.315 180.095 130.89 184.827 130.89 193.65C130.89 195.77 130.048 197.803 128.549 199.302C127.05 200.801 125.017 201.643 122.897 201.643Z" fill="#C93112"/>
</svg>
