<svg width="172" height="240" viewBox="0 0 172 240" fill="none" xmlns="http://www.w3.org/2000/svg">
<path d="M160.432 0.525391H11.2373C5.35177 0.525391 0.580566 5.29659 0.580566 11.1822V228.58C0.580566 234.466 5.35177 239.237 11.2373 239.237H160.432C166.318 239.237 171.089 234.466 171.089 228.58V11.1822C171.089 5.29659 166.318 0.525391 160.432 0.525391Z" fill="#F9F1DF"/>
<path d="M26.1569 41.832C25.006 44.752 19.23 45.839 19.23 50.3575C19.2356 51.343 19.6311 52.2862 20.33 52.9811C21.0289 53.676 21.9743 54.066 22.9599 54.066C23.4754 54.0655 23.9853 53.9593 24.4582 53.754C24.9311 53.5487 25.3569 53.2487 25.7093 52.8724C25.6043 54.319 25.0105 55.6869 24.0255 56.7515V57.263H28.2882V56.7515C27.311 55.6839 26.725 54.3163 26.6258 52.8724C27.1386 53.3963 27.7944 53.7574 28.5113 53.9107C29.2281 54.064 29.9743 54.0027 30.6565 53.7343C31.3387 53.466 31.9266 53.0026 32.347 52.402C32.7673 51.8014 33.0014 51.0903 33.0199 50.3575C33.0838 45.839 27.3078 44.752 26.1569 41.832Z" fill="#1F1F1F"/>
<path d="M145.513 195.801C146.685 192.881 152.44 191.794 152.44 187.276C152.421 186.543 152.187 185.832 151.767 185.231C151.347 184.631 150.759 184.167 150.076 183.899C149.394 183.63 148.648 183.569 147.931 183.722C147.214 183.876 146.559 184.237 146.046 184.761C146.145 183.317 146.731 181.949 147.708 180.882V180.37H143.445V180.882C144.43 181.946 145.024 183.314 145.129 184.761C144.777 184.384 144.351 184.084 143.878 183.879C143.405 183.674 142.895 183.568 142.38 183.567C141.394 183.567 140.449 183.957 139.75 184.652C139.051 185.347 138.656 186.29 138.65 187.276C138.586 191.794 144.362 192.881 145.513 195.801Z" fill="#1F1F1F"/>
<path d="M32.7637 29.9175C32.7739 30.7488 32.6219 31.5741 32.3162 32.3473C32.0329 33.0775 31.5969 33.7387 31.0374 34.2868C30.4695 34.8524 29.786 35.2887 29.0339 35.5656C28.1844 35.8923 27.2797 36.0515 26.3697 36.0345C25.4356 36.0441 24.5087 35.8703 23.6415 35.523C22.8229 35.1915 22.0931 34.6733 21.5102 34.0097C20.9078 33.283 20.4583 32.442 20.1888 31.5374C19.8571 30.4463 19.6989 29.31 19.7199 28.1698C19.702 26.8108 19.9036 25.4577 20.3166 24.1629C20.6776 23.0226 21.2487 21.96 22.0004 21.0298C22.71 20.1383 23.6044 19.4111 24.6219 18.8984C25.6822 18.4037 26.841 18.1559 28.0109 18.1737C28.6925 18.1744 29.3718 18.253 30.0356 18.4082C30.6479 18.5607 31.2361 18.7974 31.7833 19.1115L31.2718 20.6035C30.8606 20.43 30.4318 20.3014 29.993 20.2199C29.6218 20.1388 29.2433 20.0959 28.8634 20.092C28.161 20.0722 27.4628 20.2071 26.8182 20.487C26.1737 20.7669 25.5986 21.185 25.1335 21.7118C24.1103 22.9134 23.4848 24.4027 23.3432 25.9745C23.8405 25.4341 24.4734 25.0367 25.1761 24.8236C25.935 24.5515 26.7358 24.4145 27.542 24.4186C28.2704 24.4089 28.994 24.5391 29.6733 24.8023C30.283 25.0577 30.8342 25.4348 31.2931 25.9106C31.7499 26.3967 32.105 26.9691 32.3375 27.5943C32.6271 28.3343 32.7718 29.123 32.7637 29.9175ZM26.5615 34.3934C26.981 34.4157 27.399 34.327 27.7732 34.1362C28.1474 33.9453 28.4646 33.6591 28.6928 33.3064C29.2186 32.457 29.4784 31.4698 29.4388 30.4717C29.5085 29.4579 29.2137 28.4526 28.6076 27.637C28.3408 27.3031 27.9992 27.0365 27.6105 26.8588C27.2218 26.6811 26.7968 26.5972 26.3697 26.6139C25.8362 26.626 25.3064 26.7047 24.7925 26.8484C24.2632 26.9796 23.7639 27.2111 23.3219 27.5304V28.66C23.3169 29.4527 23.3811 30.2443 23.5137 31.0258C23.6386 31.6573 23.854 32.2675 24.1531 32.8375C24.4007 33.295 24.7508 33.6889 25.1761 33.9884C25.5862 34.2606 26.0693 34.4018 26.5615 34.3934Z" fill="#1F1F1F"/>
<path d="M138.927 207.716C138.916 206.884 139.068 206.059 139.374 205.286C139.658 204.561 140.086 203.901 140.632 203.346C141.208 202.781 141.898 202.345 142.656 202.068C144.387 201.415 146.297 201.415 148.027 202.068C148.849 202.393 149.58 202.912 150.159 203.581C150.768 204.306 151.225 205.147 151.502 206.053C151.823 207.146 151.981 208.281 151.97 209.421C151.981 210.781 151.773 212.134 151.352 213.428C151 214.572 150.428 215.636 149.669 216.561C148.948 217.414 148.054 218.104 147.047 218.586C145.987 219.08 144.828 219.328 143.658 219.31C142.977 219.308 142.297 219.23 141.633 219.076C141.021 218.923 140.433 218.687 139.886 218.372L140.397 216.88C140.809 217.051 141.238 217.18 141.676 217.264C142.054 217.347 142.44 217.389 142.827 217.392C143.529 217.41 144.227 217.275 144.871 216.995C145.516 216.715 146.091 216.298 146.557 215.772C147.564 214.561 148.187 213.077 148.347 211.509C147.839 212.047 147.2 212.444 146.493 212.66C145.734 212.932 144.933 213.07 144.127 213.065C143.399 213.073 142.676 212.943 141.996 212.682C141.386 212.426 140.835 212.049 140.376 211.573C139.918 211.092 139.57 210.518 139.353 209.89C139.071 209.2 138.926 208.461 138.927 207.716ZM145.107 203.24C144.688 203.22 144.271 203.309 143.897 203.5C143.523 203.691 143.206 203.976 142.976 204.327C142.45 205.176 142.191 206.163 142.23 207.162C142.167 208.178 142.469 209.183 143.083 209.996C143.349 210.33 143.691 210.597 144.08 210.774C144.468 210.952 144.893 211.036 145.321 211.019C145.854 211.005 146.384 210.927 146.898 210.785C147.427 210.654 147.926 210.422 148.368 210.103V208.973C148.367 208.18 148.295 207.388 148.155 206.607C148.027 205.98 147.82 205.371 147.537 204.796C147.282 204.337 146.924 203.943 146.493 203.645C146.083 203.373 145.6 203.231 145.107 203.24Z" fill="#1F1F1F"/>
<path d="M55.9959 30.8975C53.694 36.78 42.1421 38.9114 42.1421 47.9483C42.1421 49.9268 42.9281 51.8242 44.327 53.2232C45.726 54.6221 47.6234 55.4081 49.6018 55.4081C50.6339 55.4076 51.6544 55.1912 52.5978 54.7728C53.5411 54.3543 54.3865 53.743 55.0794 52.9783C54.8939 55.8733 53.7115 58.6147 51.7332 60.7364V61.8021H60.2586V60.7364C58.2985 58.6134 57.125 55.8828 56.9337 52.9996C57.9483 54.1039 59.273 54.8758 60.734 55.214C62.1949 55.5521 63.724 55.4408 65.1206 54.8946C66.5172 54.3484 67.7161 53.3929 68.56 52.1533C69.404 50.9137 69.8535 49.4479 69.8497 47.9483C69.8497 38.89 58.2978 36.7587 55.9959 30.8975Z" fill="#1F1F1F"/>
<path d="M115.674 30.8972C113.372 36.7798 101.82 38.9111 101.82 47.9481C101.82 49.9265 102.606 51.8239 104.005 53.2229C105.404 54.6219 107.301 55.4078 109.28 55.4078C110.312 55.4074 111.332 55.191 112.276 54.7725C113.219 54.3541 114.064 53.7428 114.757 52.978C114.572 55.873 113.389 58.6145 111.411 60.7362V61.8019H119.937V60.7362C117.976 58.6132 116.803 55.8826 116.612 52.9994C117.626 54.1037 118.951 54.8756 120.412 55.2137C121.873 55.5519 123.402 55.4406 124.799 54.8944C126.195 54.3482 127.394 53.3926 128.238 52.153C129.082 50.9134 129.531 49.4477 129.528 47.9481C129.528 38.8898 117.976 36.7584 115.674 30.8972Z" fill="#1F1F1F"/>
<path d="M115.674 100.166C113.372 106.049 101.82 108.18 101.82 117.217C101.82 119.196 102.606 121.093 104.005 122.492C105.404 123.891 107.301 124.677 109.28 124.677C110.312 124.676 111.332 124.46 112.276 124.042C113.219 123.623 114.064 123.012 114.757 122.247C114.572 125.142 113.389 127.884 111.411 130.005V131.071H119.937V130.005C117.976 127.882 116.803 125.152 116.612 122.268C117.626 123.373 118.951 124.145 120.412 124.483C121.873 124.821 123.402 124.71 124.799 124.163C126.195 123.617 127.394 122.662 128.238 121.422C129.082 120.182 129.531 118.717 129.528 117.217C129.528 108.18 117.976 106.049 115.674 100.166Z" fill="#1F1F1F"/>
<path d="M55.9959 100.166C53.694 106.049 42.1421 108.18 42.1421 117.217C42.1421 119.196 42.9281 121.093 44.327 122.492C45.726 123.891 47.6234 124.677 49.6018 124.677C50.6339 124.676 51.6544 124.46 52.5978 124.042C53.5411 123.623 54.3865 123.012 55.0794 122.247C54.8939 125.142 53.7115 127.884 51.7332 130.005V131.071H60.2586V130.005C58.2985 127.882 57.125 125.152 56.9337 122.268C57.9483 123.373 59.273 124.145 60.734 124.483C62.1949 124.821 63.724 124.71 65.1206 124.163C66.5172 123.617 67.7161 122.662 68.56 121.422C69.404 120.182 69.8535 118.717 69.8497 117.217C69.8497 108.18 58.2978 106.049 55.9959 100.166Z" fill="#1F1F1F"/>
<path d="M55.9959 206.734C53.694 200.851 42.1421 198.72 42.1421 189.683C42.1421 187.705 42.9281 185.807 44.327 184.408C45.726 183.009 47.6234 182.223 49.6018 182.223C50.6339 182.224 51.6544 182.44 52.5978 182.859C53.5411 183.277 54.3865 183.888 55.0794 184.653C54.8939 181.758 53.7115 179.017 51.7332 176.895V175.829H60.2586V176.895C58.2985 179.018 57.125 181.749 56.9337 184.632C57.9483 183.528 59.273 182.756 60.734 182.418C62.1949 182.079 63.724 182.191 65.1206 182.737C66.5172 183.283 67.7161 184.239 68.56 185.478C69.404 186.718 69.8535 188.184 69.8497 189.683C69.8497 198.741 58.2978 200.873 55.9959 206.734Z" fill="#1F1F1F"/>
<path d="M115.674 206.734C113.372 200.851 101.82 198.72 101.82 189.683C101.82 187.705 102.606 185.807 104.005 184.408C105.404 183.009 107.301 182.223 109.28 182.223C110.312 182.224 111.332 182.44 112.276 182.859C113.219 183.277 114.064 183.888 114.757 184.653C114.572 181.758 113.389 179.017 111.411 176.895V175.829H119.937V176.895C117.976 179.018 116.803 181.749 116.612 184.632C117.626 183.528 118.951 182.756 120.412 182.418C121.873 182.079 123.402 182.191 124.799 182.737C126.195 183.283 127.394 184.239 128.238 185.478C129.082 186.718 129.531 188.184 129.528 189.683C129.528 198.741 117.976 200.873 115.674 206.734Z" fill="#1F1F1F"/>
</svg>
