<svg width="172" height="239" viewBox="0 0 172 239" fill="none" xmlns="http://www.w3.org/2000/svg">
<path d="M160.432 0H11.2373C5.35177 0 0.580566 4.7712 0.580566 10.6568V228.055C0.580566 233.941 5.35177 238.712 11.2373 238.712H160.432C166.318 238.712 171.089 233.941 171.089 228.055V10.6568C171.089 4.7712 166.318 0 160.432 0Z" fill="#F9F1DF"/>
<path d="M32.6794 49.149C32.0772 48.5554 31.2656 48.2227 30.4201 48.2227C29.5746 48.2227 28.763 48.5554 28.1609 49.149L26.7968 50.5343C27.0889 49.5781 27.6515 48.7268 28.4167 48.0833C28.862 47.6375 29.1655 47.07 29.2894 46.4522C29.4132 45.8344 29.3517 45.1937 29.1126 44.6108C28.8735 44.0278 28.4674 43.5285 27.9454 43.1755C27.4234 42.8226 26.8088 42.6317 26.1787 42.627C25.545 42.6233 24.9245 42.8081 24.396 43.1578C23.8675 43.5075 23.4548 44.0064 23.2104 44.5911C22.966 45.1758 22.9009 45.82 23.0234 46.4417C23.1458 47.0635 23.4503 47.6349 23.8981 48.0833C24.6769 48.7188 25.2483 49.5722 25.5393 50.5343L24.154 49.149C23.7058 48.7045 23.1361 48.4026 22.5166 48.2813C21.8972 48.1601 21.2557 48.2249 20.6731 48.4677C20.0904 48.7104 19.5926 49.1202 19.2425 49.6454C18.8924 50.1706 18.7056 50.7877 18.7056 51.4189C18.7056 52.05 18.8924 52.6671 19.2425 53.1923C19.5926 53.7175 20.0904 54.1273 20.6731 54.37C21.2557 54.6128 21.8972 54.6776 22.5166 54.5564C23.1361 54.4351 23.7058 54.1332 24.154 53.6887L25.7311 52.0902C25.794 53.0112 25.6737 53.9356 25.3774 54.8099C25.0811 55.6842 24.6146 56.4911 24.0048 57.1842V57.6957H28.2675V57.1842C27.664 56.4921 27.2029 55.6878 26.9103 54.8175C26.6178 53.9471 26.4995 53.0276 26.5623 52.1115V51.9837L28.1396 53.5822C28.4377 53.8789 28.7913 54.1139 29.1802 54.274C29.5692 54.434 29.9858 54.5159 30.4064 54.5149C30.8269 54.5139 31.2432 54.4301 31.6313 54.2682C32.0195 54.1063 32.372 53.8696 32.6687 53.5715C32.9654 53.2734 33.2004 52.9198 33.3605 52.5309C33.5205 52.142 33.6024 51.7253 33.6014 51.3047C33.6004 50.8842 33.5166 50.4679 33.3547 50.0797C33.1929 49.6916 32.9561 49.3391 32.6581 49.0424L32.6794 49.149Z" fill="#1F1F1F"/>
<path d="M138.992 189.563C139.594 190.157 140.406 190.49 141.251 190.49C142.097 190.49 142.908 190.157 143.51 189.563L144.896 188.178C144.605 189.14 144.033 189.993 143.255 190.629C142.94 190.922 142.688 191.275 142.514 191.667C142.339 192.059 142.245 192.482 142.238 192.912C142.23 193.341 142.309 193.767 142.47 194.165C142.631 194.563 142.87 194.925 143.173 195.229C143.477 195.532 143.839 195.772 144.237 195.932C144.635 196.093 145.061 196.172 145.49 196.165C145.92 196.157 146.343 196.063 146.735 195.888C147.127 195.714 147.48 195.462 147.773 195.147C148.072 194.852 148.309 194.5 148.471 194.112C148.633 193.725 148.717 193.309 148.717 192.888C148.717 192.468 148.633 192.052 148.471 191.664C148.309 191.276 148.072 190.924 147.773 190.629C147.008 189.985 146.445 189.134 146.153 188.178L147.517 189.563C147.965 190.008 148.535 190.31 149.155 190.431C149.774 190.552 150.415 190.487 150.998 190.245C151.581 190.002 152.079 189.592 152.429 189.067C152.779 188.542 152.966 187.925 152.966 187.293C152.966 186.662 152.779 186.045 152.429 185.52C152.079 184.995 151.581 184.585 150.998 184.342C150.415 184.1 149.774 184.035 149.155 184.156C148.535 184.277 147.965 184.579 147.517 185.024L145.94 186.622C145.814 184.766 146.427 182.935 147.645 181.528V181.017H143.382V181.528C144.605 182.925 145.225 184.748 145.109 186.601V186.729L143.532 185.13C142.93 184.531 142.114 184.195 141.265 184.197C140.415 184.199 139.602 184.539 139.002 185.141C138.403 185.743 138.068 186.558 138.07 187.408C138.072 188.257 138.411 189.071 139.013 189.67L138.992 189.563Z" fill="#1F1F1F"/>
<path d="M32.765 30.4569C32.7752 31.2883 32.6231 32.1136 32.3174 32.8867C32.0341 33.6169 31.5981 34.2782 31.0386 34.8262C30.4707 35.3919 29.7872 35.8281 29.0351 36.105C28.1856 36.4317 27.2809 36.591 26.3709 36.5739C25.4368 36.5835 24.5099 36.4097 23.6428 36.0624C22.8241 35.7309 22.0943 35.2127 21.5114 34.5491C20.909 33.8224 20.4596 32.9814 20.19 32.0768C19.8583 30.9857 19.7001 29.8494 19.7211 28.7092C19.7033 27.3502 19.9048 25.9972 20.3179 24.7023C20.6789 23.5621 21.25 22.4994 22.0016 21.5692C22.7223 20.7163 23.6158 20.0261 24.6232 19.5444C25.6835 19.0497 26.8422 18.8019 28.0121 18.8197C28.6937 18.8204 29.3731 18.899 30.0368 19.0542C30.6491 19.2067 31.2373 19.4434 31.7846 19.7575L31.2731 21.2495C30.8618 21.076 30.4331 20.9473 29.9942 20.8658C29.623 20.7848 29.2445 20.7419 28.8646 20.738C28.1622 20.7182 27.464 20.8531 26.8194 21.133C26.1749 21.4129 25.5998 21.831 25.1347 22.3578C24.1115 23.5593 23.486 25.0486 23.3444 26.6205C23.8417 26.0801 24.4746 25.6827 25.1773 25.4696C25.955 25.2215 26.7704 25.1133 27.5858 25.1499C28.3142 25.1401 29.0378 25.2704 29.7171 25.5335C30.3268 25.7889 30.8781 26.1661 31.337 26.6418C31.7938 27.1279 32.1488 27.7004 32.3813 28.3256C32.6332 29.008 32.7631 29.7295 32.765 30.4569ZM26.5627 34.9328C26.9822 34.9552 27.4002 34.8665 27.7744 34.6756C28.1486 34.4847 28.4659 34.1985 28.6941 33.8458C29.2198 32.9964 29.4796 32.0092 29.4401 31.0111C29.5097 29.9973 29.215 28.992 28.6089 28.1764C28.3421 27.8425 28.0005 27.5759 27.6117 27.3982C27.223 27.2205 26.798 27.1366 26.3709 27.1533C25.8374 27.1654 25.3076 27.2441 24.7937 27.3878C24.2644 27.519 23.7651 27.7505 23.3231 28.0698V29.1994C23.3182 29.9921 23.3823 30.7837 23.5149 31.5653C23.6398 32.1967 23.8552 32.8069 24.1543 33.3769C24.4019 33.8344 24.752 34.2284 25.1773 34.5278C25.5875 34.8 26.0706 34.9412 26.5627 34.9328Z" fill="#1F1F1F"/>
<path d="M138.927 208.254C138.917 207.423 139.069 206.598 139.375 205.825C139.659 205.1 140.086 204.44 140.632 203.885C141.209 203.32 141.899 202.884 142.657 202.606C144.388 201.953 146.297 201.953 148.028 202.606C148.85 202.932 149.581 203.451 150.16 204.12C150.769 204.845 151.225 205.686 151.502 206.592C151.824 207.685 151.982 208.82 151.971 209.96C151.982 211.32 151.773 212.673 151.353 213.966C151.001 215.11 150.429 216.175 149.669 217.1C148.96 217.991 148.065 218.718 147.048 219.231C145.987 219.726 144.829 219.973 143.659 219.956C142.977 219.954 142.298 219.875 141.634 219.721C141.022 219.569 140.434 219.332 139.886 219.018L140.398 217.526C140.81 217.696 141.239 217.825 141.677 217.91C142.055 217.992 142.441 218.035 142.828 218.037C143.53 218.056 144.228 217.92 144.872 217.64C145.516 217.361 146.092 216.943 146.558 216.418C147.565 215.206 148.188 213.722 148.348 212.155C147.84 212.693 147.201 213.09 146.494 213.306C145.735 213.578 144.934 213.715 144.128 213.711C143.4 213.718 142.676 213.588 141.996 213.327C141.387 213.072 140.836 212.695 140.377 212.219C139.919 211.737 139.57 211.163 139.354 210.535C139.058 209.812 138.912 209.036 138.927 208.254ZM145.108 203.779C144.689 203.758 144.272 203.848 143.898 204.039C143.524 204.229 143.207 204.514 142.977 204.866C142.451 205.715 142.191 206.702 142.231 207.7C142.167 208.717 142.47 209.722 143.083 210.535C143.35 210.869 143.692 211.135 144.081 211.313C144.469 211.491 144.894 211.575 145.321 211.558C145.855 211.544 146.384 211.466 146.899 211.324C147.428 211.192 147.927 210.961 148.369 210.642V209.512C148.368 208.719 148.296 207.927 148.156 207.146C148.028 206.518 147.821 205.91 147.538 205.335C147.282 204.876 146.925 204.482 146.494 204.184C146.084 203.911 145.6 203.77 145.108 203.779Z" fill="#1F1F1F"/>
<path d="M69.0403 45.0355C67.8414 43.8381 66.2162 43.1655 64.5218 43.1655C62.8274 43.1655 61.2022 43.8381 60.0033 45.0355L57.2539 47.7849C57.859 45.8771 58.9891 44.1782 60.5149 42.8828C61.7123 41.6839 62.3848 40.0588 62.3848 38.3643C62.3848 36.6699 61.7123 35.0448 60.5149 33.8459C59.9285 33.2488 59.2285 32.7752 58.4561 32.453C57.6837 32.1309 56.8546 31.9668 56.0177 31.9703C54.7521 31.9672 53.514 32.3397 52.4603 33.0408C51.4065 33.7418 50.5846 34.7398 50.0985 35.9083C49.6123 37.0769 49.4839 38.3634 49.7295 39.605C49.975 40.8466 50.5835 41.9873 51.4779 42.8828C53.0162 44.167 54.1489 45.8699 54.7389 47.7849L51.9895 45.0355C51.0956 44.1405 49.9562 43.5307 48.7157 43.2833C47.4751 43.036 46.1891 43.1621 45.0203 43.6458C43.8515 44.1296 42.8524 44.9491 42.1495 46.0008C41.4465 47.0524 41.0713 48.289 41.0713 49.554C41.0713 50.8189 41.4465 52.0555 42.1495 53.1071C42.8524 54.1588 43.8515 54.9783 45.0203 55.4621C46.1891 55.9458 47.4751 56.0719 48.7157 55.8246C49.9562 55.5772 51.0956 54.9675 51.9895 54.0724L55.1652 50.918V51.1525C55.2973 52.9933 55.0619 54.8421 54.4728 56.5911C53.8837 58.3401 52.9526 59.9545 51.7337 61.3404V62.406H60.2591V61.3404C57.8116 58.5326 56.5775 54.8688 56.8276 51.1525C56.8276 51.1525 56.8276 51.0246 56.8276 50.9393L59.9821 54.0937C61.1942 55.2232 62.7973 55.8381 64.4538 55.8088C66.1103 55.7796 67.6908 55.1086 68.8623 53.9371C70.0338 52.7656 70.7048 51.1851 70.7341 49.5286C70.7633 47.8721 70.1484 46.2689 69.019 45.0568L69.0403 45.0355Z" fill="#1F1F1F"/>
<path d="M128.718 45.0355C127.519 43.8381 125.894 43.1655 124.2 43.1655C122.505 43.1655 120.88 43.8381 119.681 45.0355L116.932 47.7849C117.537 45.8771 118.667 44.1782 120.193 42.8828C121.39 41.6839 122.063 40.0588 122.063 38.3643C122.063 36.6699 121.39 35.0448 120.193 33.8459C119.607 33.2488 118.906 32.7752 118.134 32.453C117.362 32.1309 116.533 31.9668 115.696 31.9703C114.43 31.9672 113.192 32.3397 112.138 33.0408C111.085 33.7418 110.263 34.7398 109.776 35.9083C109.29 37.0769 109.162 38.3634 109.407 39.605C109.653 40.8466 110.262 41.9873 111.156 42.8828C112.694 44.167 113.827 45.8699 114.417 47.7849L111.667 45.0355C110.774 44.1405 109.634 43.5307 108.394 43.2833C107.153 43.036 105.867 43.1621 104.698 43.6458C103.529 44.1296 102.53 44.9491 101.827 46.0008C101.124 47.0524 100.749 48.289 100.749 49.554C100.749 50.8189 101.124 52.0555 101.827 53.1071C102.53 54.1588 103.529 54.9783 104.698 55.4621C105.867 55.9458 107.153 56.0719 108.394 55.8246C109.634 55.5772 110.774 54.9675 111.667 54.0724L114.843 50.918V51.1525C114.975 52.9933 114.74 54.8421 114.151 56.5911C113.562 58.3401 112.631 59.9545 111.412 61.3404V62.406H119.937V61.3404C117.49 58.5326 116.256 54.8688 116.506 51.1525C116.506 51.1525 116.506 51.0246 116.506 50.9393L119.66 54.0937C120.872 55.2232 122.475 55.8381 124.132 55.8088C125.788 55.7796 127.369 55.1086 128.54 53.9371C129.712 52.7656 130.383 51.1851 130.412 49.5286C130.441 47.8721 129.826 46.2689 128.697 45.0568L128.718 45.0355Z" fill="#1F1F1F"/>
<path d="M128.718 114.305C127.519 113.107 125.894 112.435 124.2 112.435C122.505 112.435 120.88 113.107 119.681 114.305L116.932 117.054C117.537 115.146 118.667 113.447 120.193 112.152C121.39 110.953 122.063 109.328 122.063 107.633C122.063 105.939 121.39 104.314 120.193 103.115C119.607 102.518 118.906 102.044 118.134 101.722C117.362 101.4 116.533 101.236 115.696 101.239C114.43 101.236 113.192 101.609 112.138 102.31C111.085 103.011 110.263 104.009 109.776 105.177C109.29 106.346 109.162 107.632 109.407 108.874C109.653 110.116 110.262 111.256 111.156 112.152C112.694 113.436 113.827 115.139 114.417 117.054L111.667 114.305C110.774 113.41 109.634 112.8 108.394 112.552C107.153 112.305 105.867 112.431 104.698 112.915C103.529 113.399 102.53 114.218 101.827 115.27C101.124 116.321 100.749 117.558 100.749 118.823C100.749 120.088 101.124 121.325 101.827 122.376C102.53 123.428 103.529 124.247 104.698 124.731C105.867 125.215 107.153 125.341 108.394 125.094C109.634 124.846 110.774 124.236 111.667 123.341L114.843 120.187V120.358C114.975 122.198 114.74 124.047 114.151 125.796C113.562 127.545 112.631 129.16 111.412 130.545V131.611H119.937V130.545C117.5 127.748 116.267 124.102 116.506 120.4C116.506 120.4 116.506 120.272 116.506 120.187L119.66 123.341C120.872 124.471 122.475 125.086 124.132 125.057C125.788 125.027 127.369 124.356 128.54 123.185C129.712 122.013 130.383 120.433 130.412 118.776C130.441 117.12 129.826 115.517 128.697 114.305H128.718Z" fill="#1F1F1F"/>
<path d="M69.0403 114.305C67.8414 113.107 66.2162 112.435 64.5218 112.435C62.8274 112.435 61.2022 113.107 60.0033 114.305L57.2539 117.054C57.859 115.146 58.9891 113.447 60.5149 112.152C61.7123 110.953 62.3848 109.328 62.3848 107.633C62.3848 105.939 61.7123 104.314 60.5149 103.115C59.9285 102.518 59.2285 102.044 58.4561 101.722C57.6837 101.4 56.8546 101.236 56.0177 101.239C54.7521 101.236 53.514 101.609 52.4603 102.31C51.4065 103.011 50.5846 104.009 50.0985 105.177C49.6123 106.346 49.4839 107.632 49.7295 108.874C49.975 110.116 50.5835 111.256 51.4779 112.152C53.0162 113.436 54.1489 115.139 54.7389 117.054L51.9895 114.305C51.0956 113.41 49.9562 112.8 48.7157 112.552C47.4751 112.305 46.1891 112.431 45.0203 112.915C43.8515 113.399 42.8524 114.218 42.1495 115.27C41.4465 116.321 41.0713 117.558 41.0713 118.823C41.0713 120.088 41.4465 121.325 42.1495 122.376C42.8524 123.428 43.8515 124.247 45.0203 124.731C46.1891 125.215 47.4751 125.341 48.7157 125.094C49.9562 124.846 51.0956 124.236 51.9895 123.341L55.1652 120.187V120.358C55.2973 122.198 55.0619 124.047 54.4728 125.796C53.8837 127.545 52.9526 129.16 51.7337 130.545V131.611H60.2591V130.545C57.8223 127.748 56.589 124.102 56.8276 120.4C56.8276 120.4 56.8276 120.272 56.8276 120.187L59.9821 123.341C61.1942 124.471 62.7973 125.086 64.4538 125.057C66.1103 125.027 67.6908 124.356 68.8623 123.185C70.0338 122.013 70.7048 120.433 70.7341 118.776C70.7633 117.12 70.1484 115.517 69.019 114.305H69.0403Z" fill="#1F1F1F"/>
<path d="M69.0403 193.677C67.8414 194.874 66.2162 195.547 64.5218 195.547C62.8274 195.547 61.2022 194.874 60.0033 193.677L57.2539 190.927C57.859 192.835 58.9891 194.534 60.5149 195.829C61.7123 197.028 62.3848 198.653 62.3848 200.348C62.3848 202.042 61.7123 203.667 60.5149 204.866C59.9285 205.463 59.2285 205.937 58.4561 206.259C57.6837 206.581 56.8546 206.745 56.0177 206.742C54.7521 206.745 53.514 206.372 52.4603 205.671C51.4065 204.97 50.5846 203.972 50.0985 202.804C49.6123 201.635 49.4839 200.349 49.7295 199.107C49.975 197.866 50.5835 196.725 51.4779 195.829C53.0162 194.545 54.1489 192.842 54.7389 190.927L51.9895 193.677C51.0956 194.572 49.9562 195.181 48.7157 195.429C47.4751 195.676 46.1891 195.55 45.0203 195.066C43.8515 194.583 42.8524 193.763 42.1495 192.711C41.4465 191.66 41.0713 190.423 41.0713 189.158C41.0713 187.893 41.4465 186.657 42.1495 185.605C42.8524 184.553 43.8515 183.734 45.0203 183.25C46.1891 182.766 47.4751 182.64 48.7157 182.888C49.9562 183.135 51.0956 183.745 51.9895 184.64L55.1652 187.794V187.56C55.2973 185.719 55.0619 183.87 54.4728 182.121C53.8837 180.372 52.9526 178.758 51.7337 177.372V176.306H60.2591V177.372C57.8116 180.18 56.5775 183.843 56.8276 187.56C56.8276 187.56 56.8276 187.688 56.8276 187.773L59.9821 184.618C61.1942 183.489 62.7973 182.874 64.4538 182.903C66.1103 182.933 67.6908 183.604 68.8623 184.775C70.0338 185.947 70.7048 187.527 70.7341 189.184C70.7633 190.84 70.1484 192.443 69.019 193.655L69.0403 193.677Z" fill="#1F1F1F"/>
<path d="M128.718 193.677C127.519 194.874 125.894 195.547 124.2 195.547C122.505 195.547 120.88 194.874 119.681 193.677L116.932 190.927C117.537 192.835 118.667 194.534 120.193 195.829C121.39 197.028 122.063 198.653 122.063 200.348C122.063 202.042 121.39 203.667 120.193 204.866C119.607 205.463 118.906 205.937 118.134 206.259C117.362 206.581 116.533 206.745 115.696 206.742C114.43 206.745 113.192 206.372 112.138 205.671C111.085 204.97 110.263 203.972 109.776 202.804C109.29 201.635 109.162 200.349 109.407 199.107C109.653 197.866 110.262 196.725 111.156 195.829C112.694 194.545 113.827 192.842 114.417 190.927L111.667 193.677C110.774 194.572 109.634 195.181 108.394 195.429C107.153 195.676 105.867 195.55 104.698 195.066C103.529 194.583 102.53 193.763 101.827 192.711C101.124 191.66 100.749 190.423 100.749 189.158C100.749 187.893 101.124 186.657 101.827 185.605C102.53 184.553 103.529 183.734 104.698 183.25C105.867 182.766 107.153 182.64 108.394 182.888C109.634 183.135 110.774 183.745 111.667 184.64L114.843 187.794V187.56C114.975 185.719 114.74 183.87 114.151 182.121C113.562 180.372 112.631 178.758 111.412 177.372V176.306H119.937V177.372C117.49 180.18 116.256 183.843 116.506 187.56C116.506 187.56 116.506 187.688 116.506 187.773L119.66 184.618C120.872 183.489 122.475 182.874 124.132 182.903C125.788 182.933 127.369 183.604 128.54 184.775C129.712 185.947 130.383 187.527 130.412 189.184C130.441 190.84 129.826 192.443 128.697 193.655L128.718 193.677Z" fill="#1F1F1F"/>
</svg>
