<svg width="171" height="240" viewBox="0 0 171 240" fill="none" xmlns="http://www.w3.org/2000/svg">
<path d="M160.157 0.525391H10.962C5.07638 0.525391 0.305176 5.29659 0.305176 11.1822V228.58C0.305176 234.466 5.07638 239.237 10.962 239.237H160.157C166.042 239.237 170.814 234.466 170.814 228.58V11.1822C170.814 5.29659 166.042 0.525391 160.157 0.525391Z" fill="#F9F1DF"/>
<path d="M25.881 41.832C24.7301 44.752 18.9541 45.839 18.9541 50.3575C18.9726 51.0903 19.2067 51.8014 19.627 52.402C20.0474 53.0026 20.6353 53.466 21.3175 53.7343C21.9997 54.0027 22.7458 54.064 23.4627 53.9107C24.1795 53.7574 24.8354 53.3963 25.3482 52.8724C25.249 54.3163 24.6628 55.6839 23.6856 56.7515V57.263H27.9484V56.7515C26.9712 55.6839 26.3851 54.3163 26.286 52.8724C26.7988 53.3963 27.4546 53.7574 28.1715 53.9107C28.8883 54.064 29.6344 54.0027 30.3166 53.7343C30.9988 53.466 31.5868 53.0026 32.0071 52.402C32.4274 51.8014 32.6615 51.0903 32.68 50.3575C32.8079 45.839 27.0319 44.752 25.881 41.832Z" fill="#1F1F1F"/>
<path d="M145.237 195.801C146.388 192.881 152.164 191.794 152.164 187.276C152.145 186.543 151.911 185.832 151.491 185.231C151.071 184.631 150.483 184.167 149.8 183.899C149.118 183.63 148.372 183.569 147.655 183.722C146.938 183.876 146.283 184.237 145.77 184.761C145.869 183.317 146.455 181.949 147.432 180.882V180.37H143.17V180.882C144.147 181.949 144.733 183.317 144.832 184.761C144.319 184.237 143.663 183.876 142.946 183.722C142.23 183.569 141.484 183.63 140.801 183.899C140.119 184.167 139.531 184.631 139.111 185.231C138.69 185.832 138.456 186.543 138.438 187.276C138.31 191.794 144.086 192.881 145.237 195.801Z" fill="#1F1F1F"/>
<path d="M30.1434 20.8167H26.4562C25.8381 20.8167 25.2626 20.8167 24.751 20.8167C24.3279 20.8394 23.9075 20.8964 23.4936 20.9872C23.3015 21.0147 23.1188 21.0877 22.9608 21.2003C22.8112 21.3225 22.7002 21.4854 22.641 21.6692L21.7459 24.44H19.9982C19.9342 23.4251 19.9342 22.4071 19.9982 21.3921C20.0542 20.4352 20.161 19.4818 20.3179 18.5361H31.5501L32.3813 20.3478C30.8141 22.3888 29.5174 24.6239 28.5236 26.9976C27.4245 29.7161 26.7766 32.5958 26.6054 35.5231H23.7494L23.2592 34.905C23.3746 33.5357 23.6464 32.1842 24.0691 30.8767C24.4767 29.5556 24.9972 28.272 25.625 27.0403C26.2443 25.8287 26.9569 24.6672 27.7563 23.5661C28.4729 22.5838 29.2714 21.6641 30.1434 20.8167Z" fill="#1F1F1F"/>
<path d="M140.974 216.816H144.662C145.28 216.816 145.855 216.816 146.367 216.816C146.783 216.795 147.197 216.738 147.603 216.645C147.802 216.621 147.993 216.548 148.157 216.432C148.306 216.314 148.411 216.149 148.455 215.963L149.372 213.193H151.12C151.194 214.207 151.194 215.226 151.12 216.241C151.12 217.264 150.949 218.223 150.821 219.097H139.568L138.758 217.285C140.318 215.243 141.607 213.008 142.594 210.635C143.693 207.917 144.341 205.037 144.512 202.11H147.368L147.88 202.728C147.754 204.095 147.483 205.446 147.07 206.756C146.664 208.081 146.136 209.365 145.493 210.592C144.874 211.804 144.161 212.966 143.361 214.067C142.639 215.044 141.841 215.964 140.974 216.816Z" fill="#1F1F1F"/>
<path d="M55.7201 30.8975C53.3969 36.78 41.8662 38.9114 41.8662 47.9483C41.862 49.4508 42.313 50.9193 43.1596 52.1605C44.0062 53.4018 45.2088 54.3575 46.6091 54.9019C48.0095 55.4464 49.5419 55.554 51.0046 55.2106C52.4673 54.8673 53.7918 54.089 54.8036 52.9783C54.6181 55.8733 53.4356 58.6147 51.4573 60.7364V61.8021H59.9828V60.7364C58.0075 58.6212 56.8251 55.8876 56.6365 52.9996C57.6543 54.1005 58.9801 54.8692 60.4412 55.2054C61.9023 55.5416 63.4307 55.4298 64.8272 54.8845C66.2238 54.3392 67.4237 53.3858 68.2704 52.1485C69.1171 50.9112 69.5713 49.4476 69.5739 47.9483C69.5739 38.89 58.0219 36.7587 55.7201 30.8975Z" fill="#1F1F1F"/>
<path d="M85.5589 66.0647C83.2357 71.9472 71.7051 74.0786 71.7051 83.1155C71.7051 85.094 72.4911 86.9914 73.89 88.3904C75.289 89.7894 77.1864 90.5753 79.1648 90.5753C80.1941 90.5772 81.2122 90.3618 82.1524 89.9431C83.0927 89.5244 83.9339 88.9118 84.6211 88.1455C84.4537 91.0407 83.2773 93.7858 81.2962 95.9037V96.9694H89.8216V95.9037C87.8463 93.7885 86.664 91.0548 86.4754 88.1668C87.4931 89.2677 88.819 90.0364 90.28 90.3726C91.7411 90.7088 93.2695 90.597 94.6661 90.0518C96.0626 89.5065 97.2625 88.553 98.1092 87.3158C98.9559 86.0785 99.4102 84.6148 99.4127 83.1155C99.4127 74.0786 87.8608 71.9472 85.5589 66.0647Z" fill="#1F1F1F"/>
<path d="M115.398 30.8972C113.075 36.7798 101.544 38.9111 101.544 47.9481C101.54 49.4505 101.991 50.9191 102.837 52.1603C103.684 53.4015 104.886 54.3573 106.287 54.9017C107.687 55.4462 109.22 55.5538 110.682 55.2104C112.145 54.867 113.47 54.0887 114.481 52.978C114.296 55.873 113.113 58.6145 111.135 60.7362V61.8019H119.66V60.7362C117.685 58.621 116.503 55.8873 116.314 52.9994C117.332 54.1002 118.658 54.8689 120.119 55.2051C121.58 55.5414 123.108 55.4296 124.505 54.8843C125.902 54.339 127.101 53.3855 127.948 52.1483C128.795 50.911 129.249 49.4473 129.252 47.9481C129.252 38.8898 117.7 36.7584 115.398 30.8972Z" fill="#1F1F1F"/>
<path d="M115.398 100.166C113.075 106.049 101.544 108.18 101.544 117.217C101.54 118.72 101.991 120.188 102.837 121.429C103.684 122.671 104.886 123.626 106.287 124.171C107.687 124.715 109.22 124.823 110.682 124.479C112.145 124.136 113.47 123.358 114.481 122.247C114.296 125.142 113.113 127.884 111.135 130.005V131.071H119.66V130.005C117.685 127.89 116.503 125.156 116.314 122.268C117.332 123.369 118.658 124.138 120.119 124.474C121.58 124.81 123.108 124.699 124.505 124.153C125.902 123.608 127.101 122.655 127.948 121.417C128.795 120.18 129.249 118.716 129.252 117.217C129.252 108.18 117.7 106.049 115.398 100.166Z" fill="#1F1F1F"/>
<path d="M55.7198 100.166C53.3966 106.049 41.866 108.18 41.866 117.217C41.8618 118.72 42.3127 120.188 43.1593 121.429C44.0059 122.671 45.2085 123.626 46.6089 124.171C48.0092 124.715 49.5417 124.823 51.0044 124.479C52.4671 124.136 53.7915 123.358 54.8033 122.247C54.6178 125.142 53.4354 127.884 51.4571 130.005V131.071H59.9825V130.005C58.0072 127.89 56.8249 125.156 56.6363 122.268C57.654 123.369 58.9799 124.138 60.441 124.474C61.902 124.81 63.4304 124.699 64.827 124.153C66.2236 123.608 67.4235 122.655 68.2701 121.417C69.1168 120.18 69.5711 118.716 69.5736 117.217C69.5736 108.18 58.0217 106.049 55.7198 100.166Z" fill="#1F1F1F"/>
<path d="M55.7198 206.734C53.3966 200.851 41.866 198.72 41.866 189.683C41.8618 188.181 42.3127 186.712 43.1593 185.471C44.0059 184.23 45.2085 183.274 46.6089 182.73C48.0092 182.185 49.5417 182.077 51.0044 182.421C52.4671 182.764 53.7915 183.542 54.8033 184.653C54.6178 181.758 53.4354 179.017 51.4571 176.895V175.829H59.9825V176.895C58.0072 179.01 56.8249 181.744 56.6363 184.632C57.654 183.531 58.9799 182.762 60.441 182.426C61.902 182.09 63.4304 182.202 64.827 182.747C66.2236 183.292 67.4235 184.246 68.2701 185.483C69.1168 186.72 69.5711 188.184 69.5736 189.683C69.5736 198.741 58.0217 200.873 55.7198 206.734Z" fill="#1F1F1F"/>
<path d="M115.398 206.734C113.075 200.851 101.544 198.72 101.544 189.683C101.54 188.181 101.991 186.712 102.837 185.471C103.684 184.23 104.886 183.274 106.287 182.73C107.687 182.185 109.22 182.077 110.682 182.421C112.145 182.764 113.47 183.542 114.481 184.653C114.296 181.758 113.113 179.017 111.135 176.895V175.829H119.66V176.895C117.685 179.01 116.503 181.744 116.314 184.632C117.332 183.531 118.658 182.762 120.119 182.426C121.58 182.09 123.108 182.202 124.505 182.747C125.902 183.292 127.101 184.246 127.948 185.483C128.795 186.72 129.249 188.184 129.252 189.683C129.252 198.741 117.7 200.873 115.398 206.734Z" fill="#1F1F1F"/>
</svg>
