<svg width="171" height="240" viewBox="0 0 171 240" fill="none" xmlns="http://www.w3.org/2000/svg">
<path d="M159.881 0.762695H10.6861C4.8005 0.762695 0.0292969 5.5339 0.0292969 11.4195V228.818C0.0292969 234.703 4.8005 239.475 10.6861 239.475H159.881C165.767 239.475 170.538 234.703 170.538 228.818V11.4195C170.538 5.5339 165.767 0.762695 159.881 0.762695Z" fill="#F9F1DF"/>
<path d="M28.9311 45.7554C28.6038 46.3509 28.1226 46.8477 27.5377 47.1937C26.9528 47.5396 26.2857 47.7222 25.6061 47.7222C24.9266 47.7222 24.2595 47.5396 23.6746 47.1937C23.0897 46.8477 22.6085 46.3509 22.2812 45.7554C21.2638 45.7554 20.288 46.1596 19.5685 46.879C18.849 47.5985 18.4448 48.5743 18.4448 49.5918C18.4448 53.8545 24.4765 56.0924 25.6061 58.7993C26.7358 56.0924 32.7676 53.8332 32.7676 49.5918C32.762 48.5761 32.3559 47.6035 31.6377 46.8852C30.9194 46.167 29.9468 45.761 28.9311 45.7554Z" fill="#C93112"/>
<path d="M141.402 193.65C142.119 193.638 142.82 193.434 143.431 193.059C144.042 192.684 144.541 192.152 144.876 191.518C145.207 192.152 145.702 192.684 146.31 193.059C146.917 193.434 147.615 193.638 148.329 193.65C149.392 193.65 150.411 193.227 151.163 192.476C151.914 191.725 152.336 190.705 152.336 189.643C152.336 185.231 146.049 182.865 144.876 180.052C143.704 182.865 137.417 185.231 137.417 189.643C137.417 190.702 137.836 191.718 138.583 192.468C139.33 193.219 140.343 193.644 141.402 193.65Z" fill="#C93112"/>
<path d="M25.4783 36.8039C24.6028 36.8081 23.7299 36.708 22.8781 36.5056C22.1224 36.329 21.4019 36.0264 20.7468 35.6104C20.1901 35.2502 19.7293 34.7601 19.404 34.1824C19.0801 33.5959 18.9182 32.9338 18.935 32.2641C18.9221 31.2635 19.2616 30.2902 19.8942 29.5147C20.5881 28.704 21.4968 28.1055 22.5157 27.7883C21.7969 27.3243 21.1566 26.7487 20.6189 26.0832C20.0752 25.3766 19.7962 24.5018 19.8303 23.6108C19.821 22.963 19.9595 22.3215 20.2352 21.7352C20.5292 21.1812 20.9357 20.6948 21.4288 20.3072C21.982 19.885 22.6116 19.5737 23.2831 19.3908C24.0559 19.1523 24.8615 19.0373 25.6702 19.0497C26.4334 19.0447 27.1937 19.1452 27.9294 19.3481C28.5666 19.5181 29.1714 19.7917 29.7197 20.1581C30.1942 20.4928 30.5876 20.9298 30.8707 21.4369C31.1458 21.9318 31.2855 22.4905 31.2757 23.0567C31.2794 23.9646 30.9538 24.843 30.3592 25.5291C29.7384 26.2519 28.9473 26.8086 28.0573 27.1489C28.5901 27.426 29.1016 27.703 29.5918 28.0227C30.0619 28.3051 30.492 28.6492 30.8707 29.0458C31.2355 29.4169 31.5313 29.8499 31.7445 30.3246C31.9876 30.9069 32.0984 31.5358 32.0689 32.1661C32.0394 32.7964 31.8703 33.4122 31.5739 33.9692C31.245 34.58 30.778 35.1055 30.21 35.5038C29.5691 35.9599 28.845 36.2858 28.0786 36.4629C27.2308 36.6913 26.3563 36.806 25.4783 36.8039ZM25.6915 35.2267C26.4691 35.2456 27.2268 34.9804 27.8229 34.4808C28.0832 34.248 28.2902 33.9619 28.43 33.6419C28.5698 33.322 28.639 32.9756 28.6328 32.6265C28.6438 32.1831 28.5252 31.7461 28.2917 31.369C28.0588 31.0067 27.7629 30.689 27.4179 30.4312C27.0199 30.125 26.5913 29.8607 26.139 29.6426L24.0077 28.5769C23.4035 28.9335 22.9095 29.4497 22.5797 30.0689C22.2584 30.6495 22.0898 31.3022 22.0895 31.9658C22.0827 32.4579 22.1845 32.9455 22.3878 33.3938C22.5697 33.7901 22.8395 34.14 23.1765 34.4168C23.5115 34.686 23.8949 34.8886 24.3061 35.0136C24.753 35.1606 25.2211 35.2326 25.6915 35.2267ZM22.942 22.8436C22.9278 23.2385 23.0238 23.6296 23.2191 23.9732C23.4208 24.3264 23.6885 24.6375 24.0077 24.8897C24.3596 25.196 24.7459 25.4606 25.1587 25.6783C25.6276 25.934 26.0965 26.1685 26.608 26.4029C27.1806 26.0648 27.6517 25.5789 27.9721 24.9962C28.2572 24.4889 28.4041 23.9157 28.3982 23.3338C28.4379 22.9437 28.3895 22.5498 28.2567 22.1809C28.1239 21.8121 27.9101 21.4777 27.631 21.2024C27.3414 20.9466 27.0038 20.7508 26.6379 20.6264C26.272 20.502 25.8852 20.4515 25.4996 20.4778C24.7953 20.4362 24.1017 20.6649 23.5602 21.1172C23.3351 21.3408 23.1629 21.6118 23.0559 21.9105C22.949 22.2091 22.91 22.5279 22.942 22.8436Z" fill="#C93112"/>
<path d="M145.069 202.368C145.945 202.363 146.818 202.463 147.669 202.666C148.425 202.842 149.146 203.145 149.801 203.561C150.347 203.933 150.806 204.421 151.143 204.989C151.467 205.576 151.629 206.238 151.612 206.907C151.625 207.908 151.286 208.881 150.653 209.657C149.959 210.467 149.051 211.066 148.032 211.383C148.75 211.847 149.391 212.423 149.929 213.088C150.472 213.795 150.751 214.67 150.717 215.561C150.726 216.208 150.588 216.85 150.312 217.436C150.018 217.99 149.612 218.477 149.119 218.864C148.565 219.287 147.936 219.598 147.264 219.781C146.492 220.019 145.686 220.134 144.877 220.122C144.114 220.127 143.354 220.026 142.618 219.823C141.981 219.653 141.376 219.38 140.828 219.013C140.353 218.679 139.96 218.242 139.677 217.735C139.387 217.215 139.246 216.624 139.272 216.03C139.268 215.122 139.594 214.243 140.188 213.557C140.809 212.834 141.6 212.278 142.49 211.937C141.957 211.66 141.446 211.383 140.956 211.063C140.485 210.781 140.055 210.437 139.677 210.04C139.312 209.669 139.016 209.236 138.803 208.762C138.56 208.179 138.449 207.55 138.479 206.92C138.508 206.29 138.677 205.674 138.973 205.117C139.301 204.512 139.759 203.987 140.316 203.582C140.962 203.134 141.684 202.809 142.448 202.623C143.306 202.422 144.188 202.336 145.069 202.368ZM144.856 203.945C144.078 203.926 143.321 204.191 142.725 204.691C142.464 204.923 142.257 205.21 142.117 205.53C141.978 205.85 141.909 206.196 141.915 206.545C141.904 206.988 142.022 207.425 142.256 207.802C142.489 208.165 142.785 208.482 143.13 208.74C143.524 209.051 143.953 209.316 144.408 209.529L146.54 210.595C147.144 210.238 147.638 209.722 147.968 209.103C148.289 208.522 148.458 207.869 148.458 207.206C148.465 206.714 148.363 206.226 148.16 205.778C147.978 205.381 147.708 205.031 147.371 204.755C147.036 204.485 146.653 204.283 146.241 204.158C145.795 204.011 145.326 203.939 144.856 203.945ZM147.605 216.328C147.62 215.933 147.524 215.542 147.328 215.198C147.127 214.845 146.859 214.534 146.54 214.282C146.18 213.975 145.787 213.711 145.367 213.493C144.92 213.237 144.451 213.003 143.939 212.769C143.367 213.107 142.896 213.593 142.575 214.175C142.29 214.683 142.143 215.256 142.149 215.838C142.109 216.228 142.158 216.622 142.291 216.991C142.424 217.359 142.637 217.694 142.916 217.969C143.206 218.225 143.544 218.421 143.909 218.545C144.275 218.669 144.662 218.72 145.048 218.694C145.752 218.735 146.446 218.507 146.987 218.054C147.212 217.831 147.385 217.56 147.492 217.261C147.598 216.962 147.637 216.644 147.605 216.328Z" fill="#C93112"/>
<path d="M62.3718 37.5288C60.9601 37.5332 59.575 37.9124 58.358 38.6277C57.1409 39.3429 56.1356 40.3686 55.4449 41.5997C54.5804 40.0623 53.2306 38.855 51.6065 38.1669C49.9825 37.4788 48.1761 37.3487 46.4703 37.7971C44.7644 38.2455 43.2555 39.247 42.1797 40.6448C41.104 42.0425 40.5221 43.7576 40.5254 45.5214C40.5254 54.3452 53.0791 59.0768 55.4449 64.7036C57.7894 59.0768 70.3644 54.3452 70.3644 45.5214C70.3644 43.4016 69.5224 41.3687 68.0235 39.8698C66.5246 38.3709 64.4916 37.5288 62.3718 37.5288Z" fill="#C93112"/>
<path d="M92.2107 72.696C90.799 72.7005 89.4139 73.0797 88.1968 73.7949C86.9798 74.5102 85.9745 75.5358 85.2838 76.7669C84.4193 75.2295 83.0694 74.0222 81.4454 73.3341C79.8214 72.646 78.015 72.516 76.3091 72.9644C74.6033 73.4127 73.0943 74.4142 72.0186 75.812C70.9428 77.2098 70.361 78.9248 70.3643 80.6886C70.3643 89.5124 82.918 94.2441 85.2838 99.8708C87.6283 94.2441 100.203 89.5124 100.203 80.6886C100.203 78.5689 99.3612 76.5359 97.8623 75.037C96.3634 73.5381 94.3304 72.696 92.2107 72.696Z" fill="#C93112"/>
<path d="M92.2107 166.476C90.799 166.471 89.4139 166.092 88.1968 165.377C86.9798 164.661 85.9745 163.636 85.2838 162.405C84.4193 163.942 83.0694 165.149 81.4454 165.837C79.8214 166.526 78.015 166.656 76.3091 166.207C74.6033 165.759 73.0943 164.757 72.0186 163.36C70.9428 161.962 70.361 160.247 70.3643 158.483C70.3643 149.659 82.918 144.928 85.2838 139.301C87.6283 144.928 100.203 149.659 100.203 158.483C100.203 160.603 99.3612 162.636 97.8623 164.135C96.3634 165.634 94.3304 166.476 92.2107 166.476Z" fill="#C93112"/>
<path d="M122.05 37.5288C121.362 38.7629 120.358 39.791 119.14 40.5067C117.922 41.2224 116.535 41.5998 115.123 41.5998C113.71 41.5998 112.323 41.2224 111.106 40.5067C109.888 39.791 108.883 38.7629 108.196 37.5288C106.076 37.5288 104.043 38.3709 102.544 39.8698C101.046 41.3687 100.203 43.4016 100.203 45.5214C100.203 54.3452 112.757 59.0768 115.123 64.7036C117.467 59.0768 130.042 54.3452 130.042 45.5214C130.042 43.4016 129.2 41.3687 127.701 39.8698C126.203 38.3709 124.17 37.5288 122.05 37.5288Z" fill="#C93112"/>
<path d="M122.05 106.798C121.362 108.032 120.358 109.06 119.14 109.776C117.922 110.491 116.535 110.869 115.123 110.869C113.71 110.869 112.323 110.491 111.106 109.776C109.888 109.06 108.883 108.032 108.196 106.798C106.076 106.798 104.043 107.64 102.544 109.139C101.046 110.637 100.203 112.67 100.203 114.79C100.203 123.614 112.757 128.346 115.123 133.972C117.467 128.346 130.042 123.614 130.042 114.79C130.042 112.67 129.2 110.637 127.701 109.139C126.203 107.64 124.17 106.798 122.05 106.798Z" fill="#C93112"/>
<path d="M62.3718 106.798C60.9601 106.802 59.575 107.181 58.358 107.896C57.1409 108.612 56.1356 109.637 55.4449 110.869C54.5804 109.331 53.2306 108.124 51.6065 107.436C49.9825 106.748 48.1761 106.618 46.4703 107.066C44.7644 107.514 43.2555 108.516 42.1797 109.914C41.104 111.311 40.5221 113.026 40.5254 114.79C40.5254 123.614 53.0791 128.346 55.4449 133.972C57.7894 128.346 70.3644 123.614 70.3644 114.79C70.3644 112.67 69.5224 110.637 68.0235 109.139C66.5246 107.64 64.4916 106.798 62.3718 106.798Z" fill="#C93112"/>
<path d="M62.3718 201.643C60.9601 201.639 59.575 201.259 58.358 200.544C57.1409 199.829 56.1356 198.803 55.4449 197.572C54.5804 199.11 53.2306 200.317 51.6065 201.005C49.9825 201.693 48.1761 201.823 46.4703 201.375C44.7644 200.926 43.2555 199.925 42.1797 198.527C41.104 197.129 40.5221 195.414 40.5254 193.65C40.5254 184.827 53.0791 180.095 55.4449 174.468C57.7894 180.095 70.3644 184.827 70.3644 193.65C70.3644 195.77 69.5224 197.803 68.0235 199.302C66.5246 200.801 64.4916 201.643 62.3718 201.643Z" fill="#C93112"/>
<path d="M122.05 201.643C121.362 200.409 120.358 199.381 119.14 198.665C117.922 197.949 116.535 197.572 115.123 197.572C113.71 197.572 112.323 197.949 111.106 198.665C109.888 199.381 108.883 200.409 108.196 201.643C106.076 201.643 104.043 200.801 102.544 199.302C101.046 197.803 100.203 195.77 100.203 193.65C100.203 184.827 112.757 180.095 115.123 174.468C117.467 180.095 130.042 184.827 130.042 193.65C130.042 195.77 129.2 197.803 127.701 199.302C126.203 200.801 124.17 201.643 122.05 201.643Z" fill="#C93112"/>
</svg>
