<svg width="171" height="240" viewBox="0 0 171 240" fill="none" xmlns="http://www.w3.org/2000/svg">
<path d="M159.881 0.525391H10.6861C4.8005 0.525391 0.0292969 5.29659 0.0292969 11.1822V228.58C0.0292969 234.466 4.8005 239.237 10.6861 239.237H159.881C165.767 239.237 170.538 234.466 170.538 228.58V11.1822C170.538 5.29659 165.767 0.525391 159.881 0.525391Z" fill="#F9F1DF"/>
<path d="M25.6055 42.1721C24.4972 44.9855 18.9556 46.0299 18.9556 50.3565C18.9507 51.0782 19.1653 51.7842 19.5708 52.3811C19.9764 52.9781 20.5539 53.4376 21.2266 53.6989C21.8993 53.9601 22.6355 54.0106 23.3377 53.8438C24.0398 53.6771 24.6746 53.3008 25.158 52.765C25.0601 54.1527 24.4969 55.4669 23.5595 56.4948V57.0063H27.6516V56.4948C26.7037 55.4801 26.1319 54.1712 26.0318 52.7862C26.5196 53.3199 27.1577 53.6934 27.8618 53.8576C28.566 54.0217 29.3034 53.9688 29.9769 53.7059C30.6505 53.4429 31.2286 52.9822 31.6353 52.3844C32.042 51.7865 32.2581 51.0796 32.2553 50.3565C32.2553 46.0299 26.7138 44.9855 25.6055 42.1721Z" fill="#1F1F1F"/>
<path d="M144.962 195.8C146.113 192.88 151.889 191.793 151.889 187.274C151.883 186.289 151.488 185.345 150.789 184.651C150.09 183.956 149.144 183.566 148.159 183.566C147.643 183.566 147.133 183.672 146.661 183.878C146.188 184.083 145.762 184.383 145.409 184.759C145.515 183.313 146.108 181.945 147.093 180.88V180.369H142.83V180.88C143.808 181.948 144.394 183.315 144.493 184.759C143.98 184.235 143.324 183.874 142.607 183.721C141.891 183.568 141.145 183.629 140.462 183.897C139.78 184.166 139.192 184.629 138.772 185.23C138.351 185.83 138.117 186.541 138.099 187.274C138.035 191.793 143.811 192.88 144.962 195.8Z" fill="#1F1F1F"/>
<path d="M25.4783 36.0339C24.6028 36.0381 23.7299 35.9379 22.8781 35.7355C22.1224 35.559 21.4019 35.2564 20.7468 34.8404C20.1901 34.4802 19.7293 33.9901 19.404 33.4123C19.0801 32.8259 18.9182 32.1638 18.935 31.4941C18.9221 30.4935 19.2616 29.5202 19.8942 28.7447C20.5881 27.934 21.4968 27.3355 22.5157 27.0183C21.7969 26.5542 21.1566 25.9787 20.6189 25.3132C20.0752 24.6066 19.7962 23.7318 19.8303 22.8408C19.821 22.193 19.9595 21.5515 20.2352 20.9652C20.5292 20.4112 20.9357 19.9248 21.4288 19.5372C21.982 19.1149 22.6116 18.8037 23.2831 18.6208C24.0559 18.3823 24.8615 18.2672 25.6702 18.2797C26.4334 18.2747 27.1937 18.3751 27.9294 18.5781C28.5666 18.748 29.1714 19.0217 29.7197 19.388C30.1942 19.7228 30.5876 20.1598 30.8707 20.6668C31.1458 21.1618 31.2855 21.7205 31.2757 22.2867C31.2794 23.1946 30.9538 24.073 30.3592 24.759C29.7384 25.4819 28.9473 26.0386 28.0573 26.3789C28.5901 26.656 29.1016 26.933 29.5918 27.2527C30.0619 27.5351 30.492 27.8792 30.8707 28.2758C31.2355 28.6469 31.5313 29.0799 31.7445 29.5546C31.9876 30.1368 32.0984 30.7658 32.0689 31.3961C32.0394 32.0263 31.8703 32.6422 31.5739 33.1992C31.245 33.81 30.778 34.3354 30.21 34.7338C29.5691 35.1899 28.845 35.5157 28.0786 35.6929C27.2308 35.9213 26.3563 36.0359 25.4783 36.0339ZM25.6915 34.4567C26.4691 34.4756 27.2268 34.2104 27.8229 33.7108C28.0832 33.478 28.2902 33.1919 28.43 32.8719C28.5698 32.5519 28.639 32.2056 28.6328 31.8565C28.6438 31.413 28.5252 30.976 28.2917 30.599C28.0588 30.2366 27.7629 29.919 27.4179 29.6612C27.0199 29.3549 26.5913 29.0907 26.139 28.8726L24.0077 27.8069C23.4035 28.1635 22.9095 28.6797 22.5797 29.2988C22.2584 29.8795 22.0898 30.5321 22.0895 31.1957C22.0827 31.6879 22.1845 32.1755 22.3878 32.6237C22.5697 33.0201 22.8395 33.3699 23.1765 33.6468C23.5115 33.916 23.8949 34.1186 24.3061 34.2436C24.753 34.3906 25.2211 34.4626 25.6915 34.4567ZM22.942 22.0735C22.9278 22.4685 23.0238 22.8596 23.2191 23.2032C23.4208 23.5563 23.6885 23.8675 24.0077 24.1197C24.3596 24.426 24.7459 24.6906 25.1587 24.9082C25.6276 25.164 26.0965 25.3984 26.608 25.6329C27.1806 25.2948 27.6517 24.8089 27.9721 24.2262C28.2572 23.7189 28.4041 23.1456 28.3982 22.5637C28.4379 22.1737 28.3895 21.7798 28.2567 21.4109C28.1239 21.042 27.9101 20.7077 27.631 20.4324C27.3414 20.1766 27.0038 19.9808 26.6379 19.8564C26.272 19.732 25.8852 19.6815 25.4996 19.7077C24.7953 19.6661 24.1017 19.8948 23.5602 20.3471C23.3351 20.5708 23.1629 20.8418 23.0559 21.1405C22.949 21.4391 22.91 21.7579 22.942 22.0735Z" fill="#1F1F1F"/>
<path d="M145.069 201.597C145.945 201.593 146.818 201.693 147.669 201.896C148.425 202.072 149.146 202.375 149.801 202.791C150.347 203.163 150.806 203.65 151.143 204.219C151.467 204.805 151.629 205.467 151.612 206.137C151.625 207.138 151.286 208.111 150.653 208.887C149.959 209.697 149.051 210.296 148.032 210.613C148.75 211.077 149.391 211.653 149.929 212.318C150.472 213.025 150.751 213.899 150.717 214.79C150.726 215.438 150.588 216.08 150.312 216.666C150.018 217.22 149.612 217.706 149.119 218.094C148.565 218.516 147.936 218.828 147.264 219.011C146.492 219.249 145.686 219.364 144.877 219.352C144.114 219.357 143.354 219.256 142.618 219.053C141.981 218.883 141.376 218.61 140.828 218.243C140.353 217.908 139.96 217.471 139.677 216.964C139.402 216.469 139.262 215.911 139.272 215.345C139.268 214.437 139.594 213.558 140.188 212.872C140.809 212.149 141.6 211.593 142.49 211.252C141.957 210.975 141.446 210.698 140.956 210.378C140.485 210.096 140.055 209.752 139.677 209.355C139.312 208.984 139.016 208.551 138.803 208.077C138.56 207.494 138.449 206.865 138.479 206.235C138.508 205.605 138.677 204.989 138.973 204.432C139.301 203.827 139.759 203.302 140.316 202.897C140.962 202.45 141.684 202.124 142.448 201.938C143.302 201.708 144.184 201.593 145.069 201.597ZM144.856 203.174C144.078 203.156 143.321 203.421 142.725 203.92C142.464 204.153 142.257 204.439 142.117 204.759C141.978 205.079 141.909 205.426 141.915 205.775C141.904 206.218 142.022 206.655 142.256 207.032C142.489 207.395 142.785 207.712 143.13 207.97C143.524 208.281 143.953 208.546 144.408 208.759L146.54 209.824C147.144 209.468 147.638 208.952 147.968 208.332C148.289 207.752 148.458 207.099 148.458 206.435C148.465 205.943 148.363 205.456 148.16 205.007C147.978 204.611 147.708 204.261 147.371 203.984C147.036 203.715 146.653 203.513 146.241 203.388C145.795 203.241 145.326 203.169 144.856 203.174ZM147.605 215.558C147.62 215.163 147.524 214.772 147.328 214.428C147.127 214.075 146.859 213.764 146.54 213.512C146.18 213.205 145.787 212.941 145.367 212.723C144.92 212.467 144.451 212.233 143.939 211.998C143.367 212.336 142.896 212.822 142.575 213.405C142.29 213.912 142.143 214.486 142.149 215.067C142.125 215.44 142.182 215.814 142.314 216.163C142.446 216.512 142.652 216.829 142.916 217.092C143.206 217.348 143.544 217.544 143.909 217.668C144.275 217.793 144.662 217.843 145.048 217.817C145.752 217.859 146.446 217.63 146.987 217.178C147.198 216.966 147.362 216.712 147.469 216.433C147.575 216.154 147.622 215.856 147.605 215.558Z" fill="#1F1F1F"/>
<path d="M55.4236 30.8972C53.1218 36.7798 41.5698 38.9111 41.5698 47.9481C41.5698 49.9265 42.3558 51.8239 43.7548 53.2229C45.1537 54.6219 47.0511 55.4078 49.0296 55.4078C50.0616 55.4074 51.0821 55.191 52.0255 54.7725C52.9689 54.3541 53.8142 53.7428 54.5072 52.978C54.3206 55.8687 53.1468 58.6076 51.1823 60.7362V61.8019H59.7077V60.7362C57.7324 58.621 56.5501 55.8873 56.3614 52.9994C57.376 54.1037 58.7007 54.8756 60.1617 55.2137C61.6227 55.5519 63.1518 55.4406 64.5484 54.8944C65.945 54.3482 67.1438 53.3926 67.9878 52.153C68.8317 50.9134 69.2812 49.4477 69.2775 47.9481C69.2775 38.8898 57.7468 36.7584 55.4236 30.8972Z" fill="#1F1F1F"/>
<path d="M85.2625 66.0645C82.9606 71.947 71.4087 74.0784 71.4087 83.1153C71.4087 85.0937 72.1947 86.9912 73.5936 88.3902C74.9926 89.7891 76.89 90.575 78.8684 90.575C79.9005 90.5746 80.921 90.3582 81.8644 89.9398C82.8077 89.5213 83.6531 88.91 84.346 88.1453C84.1595 91.0359 82.9857 93.7748 81.0211 95.9034V96.9691H89.5466V95.9034C87.5713 93.7882 86.3889 91.0546 86.2003 88.1666C87.2149 89.2709 88.5396 90.0428 90.0006 90.381C91.4615 90.7191 92.9906 90.6078 94.3872 90.0616C95.7838 89.5154 96.9827 88.5599 97.8266 87.3203C98.6706 86.0807 99.1201 84.6149 99.1163 83.1153C99.1163 74.0784 87.5857 71.947 85.2625 66.0645Z" fill="#1F1F1F"/>
<path d="M85.2625 171.567C82.9606 165.684 71.4087 163.553 71.4087 154.516C71.4087 152.537 72.1947 150.64 73.5936 149.241C74.9926 147.842 76.89 147.056 78.8684 147.056C79.9005 147.056 80.921 147.273 81.8644 147.691C82.8077 148.11 83.6531 148.721 84.346 149.486C84.1595 146.595 82.9857 143.856 81.0211 141.728V140.662H89.5466V141.728C87.5713 143.843 86.3889 146.576 86.2003 149.464C87.2149 148.36 88.5396 147.588 90.0006 147.25C91.4615 146.912 92.9906 147.023 94.3872 147.569C95.7838 148.116 96.9827 149.071 97.8266 150.311C98.6706 151.55 99.1201 153.016 99.1163 154.516C99.1163 163.553 87.5857 165.684 85.2625 171.567Z" fill="#1F1F1F"/>
<path d="M115.101 30.897C112.8 36.7795 101.248 38.9109 101.248 47.9478C101.248 49.9263 102.034 51.8237 103.433 53.2227C104.831 54.6217 106.729 55.4076 108.707 55.4076C109.739 55.4072 110.76 55.1907 111.703 54.7723C112.647 54.3538 113.492 53.7425 114.185 52.9778C113.998 55.8684 112.825 58.6073 110.86 60.736V61.8016H119.385V60.736C117.41 58.6208 116.228 55.8871 116.039 52.9991C117.054 54.1034 118.378 54.8753 119.839 55.2135C121.3 55.5516 122.83 55.4403 124.226 54.8941C125.623 54.3479 126.822 53.3924 127.665 52.1528C128.509 50.9132 128.959 49.4474 128.955 47.9478C128.955 38.8896 117.425 36.7582 115.101 30.897Z" fill="#1F1F1F"/>
<path d="M115.101 100.166C112.8 106.049 101.248 108.18 101.248 117.217C101.248 119.195 102.034 121.093 103.433 122.492C104.831 123.891 106.729 124.677 108.707 124.677C109.739 124.676 110.76 124.46 111.703 124.041C112.647 123.623 113.492 123.012 114.185 122.247C113.998 125.137 112.825 127.876 110.86 130.005V131.071H119.385V130.005C117.41 127.89 116.228 125.156 116.039 122.268C117.054 123.372 118.378 124.144 119.839 124.483C121.3 124.821 122.83 124.709 124.226 124.163C125.623 123.617 126.822 122.661 127.665 121.422C128.509 120.182 128.959 118.716 128.955 117.217C128.955 108.18 117.425 106.049 115.101 100.166Z" fill="#1F1F1F"/>
<path d="M55.4234 100.166C53.1215 106.049 41.5696 108.18 41.5696 117.217C41.5696 119.195 42.3556 121.093 43.7545 122.492C45.1535 123.891 47.0509 124.677 49.0293 124.677C50.0613 124.676 51.0819 124.46 52.0252 124.041C52.9686 123.623 53.814 123.012 54.5069 122.247C54.3204 125.137 53.1466 127.876 51.182 130.005V131.071H59.7074V130.005C57.7322 127.89 56.5498 125.156 56.3612 122.268C57.3758 123.372 58.7005 124.144 60.1614 124.483C61.6224 124.821 63.1515 124.709 64.5481 124.163C65.9447 123.617 67.1436 122.661 67.9875 121.422C68.8315 120.182 69.281 118.716 69.2772 117.217C69.2772 108.18 57.7466 106.049 55.4234 100.166Z" fill="#1F1F1F"/>
<path d="M55.4234 206.734C53.1215 200.851 41.5696 198.72 41.5696 189.683C41.5696 187.704 42.3556 185.807 43.7545 184.408C45.1535 183.009 47.0509 182.223 49.0293 182.223C50.0613 182.224 51.0819 182.44 52.0252 182.858C52.9686 183.277 53.814 183.888 54.5069 184.653C54.3204 181.762 53.1466 179.023 51.182 176.895V175.829H59.7074V176.895C57.7322 179.01 56.5498 181.744 56.3612 184.632C57.3758 183.527 58.7005 182.755 60.1614 182.417C61.6224 182.079 63.1515 182.19 64.5481 182.737C65.9447 183.283 67.1436 184.238 67.9875 185.478C68.8315 186.718 69.281 188.183 69.2772 189.683C69.2772 198.741 57.7466 200.873 55.4234 206.734Z" fill="#1F1F1F"/>
<path d="M115.101 206.734C112.8 200.851 101.248 198.72 101.248 189.683C101.248 187.704 102.034 185.807 103.433 184.408C104.831 183.009 106.729 182.223 108.707 182.223C109.739 182.224 110.76 182.44 111.703 182.858C112.647 183.277 113.492 183.888 114.185 184.653C113.998 181.762 112.825 179.023 110.86 176.895V175.829H119.385V176.895C117.41 179.01 116.228 181.744 116.039 184.632C117.054 183.527 118.378 182.755 119.839 182.417C121.3 182.079 122.83 182.19 124.226 182.737C125.623 183.283 126.822 184.238 127.665 185.478C128.509 186.718 128.959 188.183 128.955 189.683C128.955 198.741 117.425 200.873 115.101 206.734Z" fill="#1F1F1F"/>
</svg>
