<svg width="171" height="239" viewBox="0 0 171 239" fill="none" xmlns="http://www.w3.org/2000/svg">
<path d="M159.881 0.288086H10.6861C4.8005 0.288086 0.0292969 5.05929 0.0292969 10.9449V228.343C0.0292969 234.229 4.8005 239 10.6861 239H159.881C165.767 239 170.538 234.229 170.538 228.343V10.9449C170.538 5.05929 165.767 0.288086 159.881 0.288086Z" fill="#F9F1DF"/>
<path d="M25.6061 57.0031C23.7582 54.1316 21.3163 51.6897 18.4448 49.8417C21.3163 47.9938 23.7582 45.5519 25.6061 42.6804C27.443 45.5608 29.8872 48.0049 32.7676 49.8417C29.8872 51.6786 27.443 54.1227 25.6061 57.0031Z" fill="#C93112"/>
<path d="M144.962 178.788C146.881 181.784 149.426 184.329 152.421 186.248C149.426 188.167 146.881 190.712 144.962 193.708C143.037 190.717 140.493 188.173 137.502 186.248C140.493 184.323 143.037 181.779 144.962 178.788Z" fill="#C93112"/>
<path d="M25.4783 35.2636C24.6028 35.2678 23.7299 35.1676 22.8781 34.9652C22.1224 34.7887 21.4019 34.4861 20.7468 34.07C20.1901 33.7099 19.7293 33.2198 19.404 32.642C19.0801 32.0556 18.9182 31.3935 18.935 30.7238C18.9331 29.7278 19.28 28.7626 19.9155 27.9957C20.6094 27.1849 21.5181 26.5865 22.537 26.2693C21.8182 25.8052 21.178 25.2297 20.6402 24.5642C20.0965 23.8576 19.8174 22.9828 19.8515 22.0918C19.8422 21.444 19.9807 20.8025 20.2565 20.2162C20.5504 19.6622 20.9569 19.1758 21.45 18.7882C22.0032 18.3659 22.633 18.0547 23.3044 17.8717C24.0772 17.6333 24.8828 17.5182 25.6915 17.5307C26.4547 17.5257 27.215 17.6261 27.9507 17.8291C28.5879 17.9991 29.1927 18.2726 29.741 18.639C30.2155 18.9737 30.6089 19.4108 30.892 19.9178C31.1672 20.4127 31.3069 20.9715 31.297 21.5377C31.3008 22.4455 30.975 23.324 30.3804 24.01C29.7596 24.7329 28.9686 25.2896 28.0786 25.6299C28.6115 25.907 29.1229 26.184 29.6131 26.5037C30.0832 26.7861 30.5134 27.1302 30.892 27.5268C31.2568 27.8979 31.5526 28.3309 31.7658 28.8056C32.0089 29.3878 32.1198 30.0168 32.0903 30.6471C32.0608 31.2773 31.8917 31.8932 31.5953 32.4502C31.2663 33.061 30.7993 33.5864 30.2313 33.9848C29.5905 34.4409 28.8663 34.7668 28.1 34.9439C27.2443 35.167 26.3625 35.2745 25.4783 35.2636ZM25.6915 33.6864C26.4691 33.7053 27.2268 33.4401 27.8229 32.9404C28.0832 32.7077 28.2902 32.4216 28.43 32.1016C28.5698 31.7816 28.639 31.4353 28.6328 31.0862C28.6438 30.6428 28.5252 30.2057 28.2917 29.8286C28.0588 29.4663 27.7629 29.1487 27.4179 28.8909C27.0199 28.5847 26.5913 28.3203 26.139 28.1022L24.0077 27.0365C23.4035 27.3931 22.9095 27.9094 22.5797 28.5285C22.2584 29.1092 22.0898 29.7619 22.0895 30.4254C22.0827 30.9176 22.1845 31.4052 22.3878 31.8534C22.5697 32.2498 22.8395 32.5997 23.1765 32.8765C23.5115 33.1457 23.8949 33.3482 24.3061 33.4733C24.753 33.6203 25.2211 33.6923 25.6915 33.6864ZM22.942 21.3032C22.9278 21.6981 23.0238 22.0893 23.2191 22.4329C23.4208 22.786 23.6885 23.0972 24.0077 23.3493C24.3596 23.6557 24.7459 23.9203 25.1587 24.1379C25.6276 24.3937 26.0965 24.6281 26.608 24.8626C27.1806 24.5244 27.6517 24.0386 27.9721 23.4559C28.2572 22.9486 28.4041 22.3753 28.3982 21.7934C28.4219 21.4207 28.3658 21.0473 28.2334 20.6981C28.1011 20.3489 27.8957 20.032 27.631 19.7687C27.3414 19.5129 27.0038 19.317 26.6379 19.1926C26.272 19.0682 25.8852 19.0177 25.4996 19.0439C24.7953 19.0024 24.1017 19.2311 23.5602 19.6834C23.3494 19.895 23.1854 20.1486 23.079 20.4276C22.9725 20.7067 22.9258 21.0049 22.942 21.3032Z" fill="#C93112"/>
<path d="M145.069 200.828C145.945 200.824 146.818 200.924 147.669 201.126C148.425 201.303 149.146 201.605 149.801 202.021C150.347 202.393 150.806 202.881 151.143 203.449C151.467 204.036 151.629 204.698 151.612 205.368C151.625 206.368 151.286 207.342 150.653 208.117C149.959 208.928 149.051 209.526 148.032 209.843C148.755 210.301 149.397 210.877 149.929 211.548C150.472 212.255 150.751 213.13 150.717 214.021C150.726 214.669 150.588 215.31 150.312 215.896C150.018 216.45 149.612 216.937 149.119 217.324C148.562 217.745 147.934 218.063 147.264 218.262C146.488 218.483 145.684 218.591 144.877 218.582C144.114 218.587 143.354 218.487 142.618 218.284C141.981 218.114 141.376 217.84 140.828 217.474C140.353 217.139 139.96 216.702 139.677 216.195C139.402 215.7 139.262 215.141 139.272 214.575C139.268 213.667 139.594 212.789 140.188 212.103C140.809 211.38 141.6 210.823 142.49 210.483C141.957 210.206 141.446 209.929 140.956 209.609C140.485 209.327 140.055 208.983 139.677 208.586C139.312 208.215 139.016 207.782 138.803 207.307C138.56 206.725 138.449 206.096 138.479 205.466C138.508 204.835 138.677 204.22 138.973 203.663C139.301 203.057 139.759 202.533 140.316 202.128C140.962 201.68 141.684 201.355 142.448 201.169C143.302 200.939 144.184 200.824 145.069 200.828ZM144.856 202.405C144.078 202.386 143.321 202.651 142.725 203.151C142.464 203.384 142.257 203.67 142.117 203.99C141.978 204.31 141.909 204.656 141.915 205.005C141.904 205.449 142.022 205.886 142.256 206.263C142.489 206.625 142.785 206.943 143.13 207.2C143.524 207.511 143.953 207.776 144.408 207.989L146.54 209.055C147.144 208.698 147.638 208.182 147.968 207.563C148.289 206.982 148.458 206.33 148.458 205.666C148.465 205.174 148.363 204.686 148.16 204.238C147.978 203.842 147.708 203.492 147.371 203.215C147.036 202.946 146.653 202.743 146.241 202.618C145.795 202.471 145.326 202.399 144.856 202.405ZM147.605 214.788C147.62 214.393 147.524 214.002 147.328 213.659C147.132 213.301 146.864 212.989 146.54 212.742C146.18 212.436 145.787 212.171 145.367 211.953C144.92 211.719 144.451 211.463 143.939 211.229C143.367 211.567 142.896 212.053 142.575 212.635C142.29 213.143 142.143 213.716 142.149 214.298C142.125 214.671 142.182 215.044 142.314 215.393C142.446 215.742 142.652 216.059 142.916 216.323C143.206 216.579 143.544 216.774 143.909 216.899C144.275 217.023 144.662 217.074 145.048 217.047C145.752 217.089 146.446 216.86 146.987 216.408C147.198 216.196 147.362 215.943 147.469 215.664C147.575 215.385 147.622 215.086 147.605 214.788Z" fill="#C93112"/>
<path d="M55.4449 62.6305C51.6062 56.6393 46.5166 51.5497 40.5254 47.711C46.5166 43.8723 51.6062 38.7827 55.4449 32.7915C59.2836 38.7827 64.3732 43.8723 70.3644 47.711C64.3732 51.5497 59.2836 56.6393 55.4449 62.6305Z" fill="#C93112"/>
<path d="M85.2837 97.7977C81.445 91.8066 76.3554 86.7169 70.3643 82.8782C76.3554 79.0395 81.445 73.9499 85.2837 67.9587C89.1224 73.9499 94.2121 79.0395 100.203 82.8782C94.2121 86.7169 89.1224 91.8066 85.2837 97.7977Z" fill="#C93112"/>
<path d="M100.203 153.213C94.2121 157.052 89.1224 162.141 85.2837 168.132C81.445 162.141 76.3554 157.052 70.3643 153.213C76.3554 149.374 81.445 144.285 85.2837 138.293C89.1224 144.285 94.2121 149.374 100.203 153.213Z" fill="#C93112"/>
<path d="M115.123 62.6302C111.284 56.6391 106.195 51.5495 100.203 47.7108C106.195 43.8721 111.284 38.7824 115.123 32.7913C118.962 38.7824 124.051 43.8721 130.042 47.7108C124.051 51.5495 118.962 56.6391 115.123 62.6302Z" fill="#C93112"/>
<path d="M115.123 131.899C111.284 125.908 106.195 120.818 100.203 116.98C106.195 113.141 111.284 108.051 115.123 102.06C118.962 108.051 124.051 113.141 130.042 116.98C124.051 120.818 118.962 125.908 115.123 131.899Z" fill="#C93112"/>
<path d="M55.4449 131.899C51.6062 125.908 46.5166 120.818 40.5254 116.98C46.5166 113.141 51.6062 108.051 55.4449 102.06C59.2836 108.051 64.3732 113.141 70.3644 116.98C64.3732 120.818 59.2836 125.908 55.4449 131.899Z" fill="#C93112"/>
<path d="M70.3644 188.38C64.3732 192.219 59.2836 197.309 55.4449 203.3C51.6062 197.309 46.5166 192.219 40.5254 188.38C46.5166 184.541 51.6062 179.452 55.4449 173.461C59.2836 179.452 64.3732 184.541 70.3644 188.38Z" fill="#C93112"/>
<path d="M130.042 188.38C124.051 192.219 118.962 197.309 115.123 203.3C111.284 197.309 106.195 192.219 100.203 188.38C106.195 184.541 111.284 179.452 115.123 173.461C118.962 179.452 124.051 184.541 130.042 188.38Z" fill="#C93112"/>
</svg>
