<svg width="172" height="240" viewBox="0 0 172 240" fill="none" xmlns="http://www.w3.org/2000/svg">
<path d="M160.585 0.762695H11.3902C5.5046 0.762695 0.733398 5.5339 0.733398 11.4195V228.818C0.733398 234.703 5.5046 239.475 11.3902 239.475H160.585C166.471 239.475 171.242 234.703 171.242 228.818V11.4195C171.242 5.5339 166.471 0.762695 160.585 0.762695Z" fill="#F9F1DF"/>
<path d="M29.8689 45.5212C29.1521 45.5332 28.4517 45.7373 27.8406 46.1122C27.2295 46.4871 26.7303 47.019 26.3948 47.6526C26.0647 47.0192 25.5695 46.4868 24.9618 46.1117C24.354 45.7365 23.6562 45.5325 22.942 45.5212C21.8793 45.5212 20.8602 45.9434 20.1087 46.6949C19.3573 47.4463 18.9351 48.4655 18.9351 49.5282C18.9351 53.9401 25.2226 56.3059 26.3948 59.1193C27.567 56.3059 33.8546 53.9401 33.8546 49.5282C33.8546 48.4692 33.4353 47.4532 32.6884 46.7024C31.9416 45.9515 30.9279 45.5269 29.8689 45.5212Z" fill="#C93112"/>
<path d="M142.212 193.651C142.927 193.64 143.624 193.436 144.232 193.06C144.84 192.685 145.335 192.153 145.665 191.519C146.097 192.288 146.772 192.892 147.584 193.236C148.396 193.58 149.3 193.645 150.153 193.421C151.006 193.197 151.76 192.696 152.298 191.997C152.836 191.298 153.127 190.441 153.125 189.559C153.125 185.147 146.731 182.781 145.665 179.968C144.493 182.781 138.205 185.147 138.205 189.559C138.194 190.092 138.289 190.622 138.486 191.118C138.682 191.614 138.975 192.066 139.348 192.447C139.722 192.828 140.167 193.131 140.659 193.338C141.151 193.545 141.679 193.651 142.212 193.651Z" fill="#C93112"/>
<path d="M24.8599 36.8033C24.0446 36.8096 23.2329 36.6947 22.4515 36.4623C21.7575 36.272 21.1112 35.9379 20.5545 35.4819L21.1512 34.0752C21.5851 34.2914 22.0339 34.4766 22.494 34.6293C23.0561 34.7859 23.6369 34.8648 24.2204 34.8638C24.8466 34.8648 25.4655 34.7278 26.0328 34.4626C26.6001 34.1974 27.102 33.8104 27.5028 33.3292C28.4897 32.0651 29.0495 30.5202 29.1013 28.9173C28.5871 29.4112 27.978 29.7955 27.3109 30.0469C26.5463 30.3278 25.7383 30.4721 24.9238 30.4732C24.1935 30.4805 23.4691 30.3429 22.7924 30.0682C22.1719 29.8307 21.6115 29.4592 21.151 28.9803C20.6905 28.5013 20.3413 27.9268 20.1282 27.2975C19.8814 26.6143 19.7587 25.8925 19.7659 25.1661C19.7599 24.3282 19.9116 23.4967 20.2134 22.715C20.4967 21.9848 20.9328 21.3236 21.4923 20.7755C22.058 20.2174 22.7328 19.7821 23.4745 19.4967C24.3245 19.172 25.2288 19.0129 26.1387 19.0278C27.0731 19.0143 28.0008 19.1882 28.8669 19.5393C29.6942 19.865 30.4269 20.3926 30.9982 21.0739C31.6118 21.8124 32.0685 22.6682 32.3408 23.5889C32.675 24.7159 32.8332 25.8877 32.8098 27.063C32.8284 28.4415 32.6343 29.8146 32.2343 31.1339C31.9045 32.2483 31.3536 33.2849 30.6145 34.1817C29.9407 34.9998 29.0971 35.6616 28.1421 36.1213C27.1142 36.5954 25.9916 36.8287 24.8599 36.8033ZM26.16 28.4697C26.6864 28.4572 27.2091 28.3785 27.7158 28.2353C28.2292 28.0886 28.7177 27.8659 29.1651 27.5745V26.4449C29.1722 25.6865 29.1008 24.9294 28.9521 24.1857C28.8435 23.546 28.635 22.9275 28.334 22.3527C28.087 21.8771 27.7375 21.4621 27.3109 21.1378C26.8866 20.8405 26.3796 20.6839 25.8616 20.6903C25.4311 20.685 25.006 20.7876 24.6253 20.9887C24.2753 21.1965 23.9766 21.4806 23.7515 21.8199C23.4981 22.2027 23.3174 22.629 23.2187 23.0774C23.0869 23.5854 23.0223 24.1085 23.0268 24.6333C22.9674 25.6327 23.2617 26.6211 23.8581 27.4253C24.1303 27.7708 24.4813 28.046 24.8819 28.2277C25.2824 28.4095 25.7207 28.4924 26.16 28.4697Z" fill="#C93112"/>
<path d="M147.093 202.367C147.909 202.361 148.72 202.476 149.502 202.708C150.2 202.904 150.853 203.237 151.42 203.689L150.802 205.095C150.368 204.879 149.919 204.694 149.459 204.541C148.897 204.385 148.316 204.306 147.733 204.307C147.107 204.306 146.488 204.443 145.921 204.708C145.353 204.973 144.851 205.36 144.451 205.841C143.464 207.105 142.904 208.65 142.852 210.253C143.371 209.755 143.988 209.37 144.664 209.123C145.42 208.841 146.222 208.697 147.029 208.697C147.76 208.69 148.484 208.828 149.161 209.102C149.782 209.337 150.343 209.708 150.802 210.189C151.259 210.671 151.608 211.245 151.825 211.873C152.072 212.556 152.195 213.278 152.187 214.004C152.194 214.842 152.042 215.674 151.74 216.455C151.456 217.18 151.028 217.84 150.482 218.395C149.909 218.953 149.227 219.388 148.479 219.674C147.629 220 146.725 220.16 145.815 220.143C144.88 220.156 143.953 219.982 143.087 219.631C142.263 219.299 141.531 218.773 140.955 218.097C140.342 217.358 139.885 216.502 139.612 215.582C139.289 214.452 139.131 213.282 139.144 212.107C139.125 210.729 139.319 209.356 139.719 208.037C140.058 206.926 140.608 205.891 141.339 204.989C142.013 204.171 142.856 203.509 143.811 203.049C144.839 202.575 145.962 202.342 147.093 202.367ZM145.793 210.701C145.274 210.712 144.758 210.791 144.259 210.935C143.737 211.078 143.241 211.301 142.788 211.596V212.725C142.781 213.484 142.853 214.241 143.001 214.985C143.119 215.622 143.328 216.239 143.619 216.818C143.867 217.299 144.225 217.716 144.664 218.033C145.079 218.332 145.58 218.489 146.092 218.48C146.522 218.485 146.947 218.383 147.328 218.182C147.684 217.974 147.99 217.69 148.223 217.351C148.467 216.963 148.647 216.538 148.756 216.093C148.87 215.582 148.927 215.06 148.926 214.537C148.986 213.538 148.692 212.549 148.095 211.745C147.825 211.403 147.478 211.129 147.081 210.948C146.684 210.766 146.25 210.681 145.815 210.701H145.793Z" fill="#C93112"/>
<path d="M63.0754 37.5288C62.3881 38.7629 61.3836 39.791 60.1657 40.5067C58.9479 41.2224 57.5611 41.5998 56.1485 41.5998C54.7359 41.5998 53.349 41.2224 52.1311 40.5067C50.9133 39.791 49.9089 38.7629 49.2216 37.5288C47.1018 37.5288 45.0688 38.3709 43.5699 39.8698C42.071 41.3687 41.229 43.4016 41.229 45.5214C41.229 54.3452 53.804 59.0768 56.1485 64.7036C58.5143 59.0768 71.068 54.3452 71.068 45.5214C71.068 43.4016 70.2258 41.3687 68.7269 39.8698C67.228 38.3709 65.1952 37.5288 63.0754 37.5288Z" fill="#C93112"/>
<path d="M122.753 37.5288C122.066 38.7629 121.062 39.791 119.844 40.5067C118.626 41.2224 117.239 41.5998 115.826 41.5998C114.414 41.5998 113.027 41.2224 111.809 40.5067C110.591 39.791 109.587 38.7629 108.9 37.5288C106.78 37.5288 104.747 38.3709 103.248 39.8698C101.749 41.3687 100.907 43.4016 100.907 45.5214C100.907 54.3452 113.482 59.0768 115.826 64.7036C118.192 59.0768 130.746 54.3452 130.746 45.5214C130.746 43.4016 129.904 41.3687 128.405 39.8698C126.906 38.3709 124.873 37.5288 122.753 37.5288Z" fill="#C93112"/>
<path d="M92.9143 107.863C92.227 109.097 91.2224 110.125 90.0046 110.841C88.7868 111.557 87.3999 111.934 85.9874 111.934C84.5748 111.934 83.1878 111.557 81.97 110.841C80.7522 110.125 79.7477 109.097 79.0605 107.863C76.9407 107.863 74.9077 108.705 73.4088 110.204C71.9099 111.703 71.0679 113.736 71.0679 115.856C71.0679 124.68 83.6429 129.411 85.9874 135.038C88.3532 129.411 100.907 124.68 100.907 115.856C100.907 113.736 100.065 111.703 98.5658 110.204C97.0669 108.705 95.034 107.863 92.9143 107.863Z" fill="#C93112"/>
<path d="M63.0754 84.4185C62.3881 85.6526 61.3836 86.6806 60.1657 87.3964C58.9479 88.1121 57.5611 88.4895 56.1485 88.4895C54.7359 88.4895 53.349 88.1121 52.1311 87.3964C50.9133 86.6806 49.9089 85.6526 49.2216 84.4185C47.1018 84.4185 45.0688 85.2605 43.5699 86.7594C42.071 88.2583 41.229 90.2913 41.229 92.411C41.229 101.235 53.804 105.966 56.1485 111.593C58.5143 105.966 71.068 101.235 71.068 92.411C71.068 90.2913 70.2258 88.2583 68.7269 86.7594C67.228 85.2605 65.1952 84.4185 63.0754 84.4185Z" fill="#C93112"/>
<path d="M122.753 84.4185C122.066 85.6526 121.062 86.6806 119.844 87.3964C118.626 88.1121 117.239 88.4895 115.826 88.4895C114.414 88.4895 113.027 88.1121 111.809 87.3964C110.591 86.6806 109.587 85.6526 108.9 84.4185C106.78 84.4185 104.747 85.2605 103.248 86.7594C101.749 88.2583 100.907 90.2913 100.907 92.411C100.907 101.235 113.482 105.966 115.826 111.593C118.192 105.966 130.746 101.235 130.746 92.411C130.746 90.2913 129.904 88.2583 128.405 86.7594C126.906 85.2605 124.873 84.4185 122.753 84.4185Z" fill="#C93112"/>
<path d="M63.0754 201.643C62.3881 200.409 61.3836 199.381 60.1657 198.665C58.9479 197.949 57.5611 197.572 56.1485 197.572C54.7359 197.572 53.349 197.949 52.1311 198.665C50.9133 199.381 49.9089 200.409 49.2216 201.643C47.1018 201.643 45.0688 200.801 43.5699 199.302C42.071 197.803 41.229 195.77 41.229 193.65C41.229 184.827 53.804 180.095 56.1485 174.468C58.5143 180.095 71.068 184.827 71.068 193.65C71.068 195.77 70.2258 197.803 68.7269 199.302C67.228 200.801 65.1952 201.643 63.0754 201.643Z" fill="#C93112"/>
<path d="M122.753 201.643C122.066 200.409 121.062 199.381 119.844 198.665C118.626 197.949 117.239 197.572 115.826 197.572C114.414 197.572 113.027 197.949 111.809 198.665C110.591 199.381 109.587 200.409 108.9 201.643C106.78 201.643 104.747 200.801 103.248 199.302C101.749 197.803 100.907 195.77 100.907 193.65C100.907 184.827 113.482 180.095 115.826 174.468C118.192 180.095 130.746 184.827 130.746 193.65C130.746 195.77 129.904 197.803 128.405 199.302C126.906 200.801 124.873 201.643 122.753 201.643Z" fill="#C93112"/>
<path d="M63.0754 154.753C62.3881 153.519 61.3836 152.491 60.1657 151.775C58.9479 151.06 57.5611 150.682 56.1485 150.682C54.7359 150.682 53.349 151.06 52.1311 151.775C50.9133 152.491 49.9089 153.519 49.2216 154.753C47.1018 154.753 45.0688 153.911 43.5699 152.412C42.071 150.913 41.229 148.88 41.229 146.761C41.229 137.937 53.804 133.205 56.1485 127.578C58.5143 133.205 71.068 137.937 71.068 146.761C71.068 148.88 70.2258 150.913 68.7269 152.412C67.228 153.911 65.1952 154.753 63.0754 154.753Z" fill="#C93112"/>
<path d="M122.753 154.753C122.066 153.519 121.062 152.491 119.844 151.775C118.626 151.06 117.239 150.682 115.826 150.682C114.414 150.682 113.027 151.06 111.809 151.775C110.591 152.491 109.587 153.519 108.9 154.753C106.78 154.753 104.747 153.911 103.248 152.412C101.749 150.913 100.907 148.88 100.907 146.761C100.907 137.937 113.482 133.205 115.826 127.578C118.192 133.205 130.746 137.937 130.746 146.761C130.746 148.88 129.904 150.913 128.405 152.412C126.906 153.911 124.873 154.753 122.753 154.753Z" fill="#C93112"/>
</svg>
