<svg width="172" height="239" viewBox="0 0 172 239" fill="none" xmlns="http://www.w3.org/2000/svg">
<path d="M160.585 0H11.3902C5.5046 0 0.733398 4.7712 0.733398 10.6568V228.055C0.733398 233.941 5.5046 238.712 11.3902 238.712H160.585C166.471 238.712 171.242 233.941 171.242 228.055V10.6568C171.242 4.7712 166.471 0 160.585 0Z" fill="#F9F1DF"/>
<path d="M32.8312 49.149C32.229 48.5554 31.4175 48.2227 30.572 48.2227C29.7265 48.2227 28.9149 48.5554 28.3127 49.149L26.9486 50.5343C27.2407 49.5781 27.8033 48.7268 28.5685 48.0833C29.0082 47.644 29.3103 47.0861 29.4379 46.4778C29.5655 45.8695 29.513 45.2372 29.2868 44.6582C29.0607 44.0793 28.6707 43.5788 28.1646 43.2181C27.6584 42.8573 27.0582 42.6519 26.4371 42.627C25.8034 42.6233 25.1829 42.8081 24.6544 43.1578C24.1259 43.5075 23.7132 44.0064 23.4688 44.5911C23.2244 45.1758 23.1593 45.82 23.2817 46.4417C23.4042 47.0635 23.7087 47.6349 24.1566 48.0833C24.9353 48.7188 25.5068 49.5722 25.7978 50.5343L24.4123 49.149C23.9642 48.7045 23.3945 48.4026 22.775 48.2813C22.1556 48.1601 21.5141 48.2249 20.9314 48.4677C20.3488 48.7104 19.851 49.1202 19.5009 49.6454C19.1507 50.1706 18.9639 50.7877 18.9639 51.4189C18.9639 52.05 19.1507 52.6671 19.5009 53.1923C19.851 53.7175 20.3488 54.1273 20.9314 54.37C21.5141 54.6128 22.1556 54.6776 22.775 54.5564C23.3945 54.4351 23.9642 54.1332 24.4123 53.6887L25.9895 52.0902C26.0523 53.0112 25.9321 53.9356 25.6358 54.8099C25.3395 55.6842 24.873 56.4911 24.2631 57.1842V57.6957H28.5258V57.1842C27.9224 56.4921 27.4613 55.6878 27.1688 54.8175C26.8762 53.9471 26.7579 53.0276 26.8208 52.1115V51.9837L28.398 53.5822C29 54.1814 29.8154 54.5169 30.6647 54.5149C31.5141 54.5129 32.3279 54.1735 32.9271 53.5715C33.5263 52.9695 33.8618 52.1541 33.8598 51.3047C33.8578 50.4554 33.5184 49.6416 32.9164 49.0424L32.8312 49.149Z" fill="#1F1F1F"/>
<path d="M139.143 189.563C139.745 190.157 140.556 190.49 141.402 190.49C142.248 190.49 143.059 190.157 143.661 189.563L145.047 188.178C144.756 189.14 144.184 189.993 143.405 190.629C143.091 190.922 142.839 191.275 142.665 191.667C142.49 192.059 142.396 192.482 142.388 192.912C142.381 193.341 142.46 193.767 142.621 194.165C142.781 194.563 143.021 194.925 143.324 195.229C143.628 195.532 143.99 195.772 144.388 195.932C144.786 196.093 145.212 196.172 145.641 196.165C146.071 196.157 146.494 196.063 146.886 195.888C147.278 195.714 147.631 195.462 147.924 195.147C148.223 194.852 148.46 194.5 148.622 194.112C148.784 193.725 148.868 193.309 148.868 192.888C148.868 192.468 148.784 192.052 148.622 191.664C148.46 191.276 148.223 190.924 147.924 190.629C147.159 189.985 146.596 189.134 146.304 188.178L147.668 189.563C148.116 190.008 148.686 190.31 149.305 190.431C149.925 190.552 150.566 190.487 151.149 190.245C151.732 190.002 152.229 189.592 152.58 189.067C152.93 188.542 153.117 187.925 153.117 187.293C153.117 186.662 152.93 186.045 152.58 185.52C152.229 184.995 151.732 184.585 151.149 184.342C150.566 184.1 149.925 184.035 149.305 184.156C148.686 184.277 148.116 184.579 147.668 185.024L146.091 186.622C145.965 184.766 146.578 182.935 147.796 181.528V181.017H143.533V181.528C144.756 182.925 145.376 184.748 145.26 186.601V186.729L143.683 185.13C143.081 184.531 142.265 184.195 141.416 184.197C140.566 184.199 139.753 184.539 139.153 185.141C138.554 185.743 138.219 186.558 138.221 187.408C138.223 188.257 138.562 189.071 139.164 189.67L139.143 189.563Z" fill="#1F1F1F"/>
<path d="M24.8597 36.5738C24.0444 36.5801 23.2327 36.4652 22.4512 36.2328C21.7572 36.0425 21.1109 35.7085 20.5543 35.2524L21.151 33.8457C21.5849 34.0619 22.0336 34.2471 22.4937 34.3998C23.0558 34.5564 23.6367 34.6353 24.2201 34.6343C24.8464 34.6353 25.4652 34.4983 26.0325 34.2331C26.5998 33.9679 27.1017 33.5809 27.5025 33.0997C28.4894 31.8357 29.0492 30.2907 29.101 28.6878C28.5869 29.1817 27.9777 29.566 27.3106 29.8174C26.5461 30.0983 25.7381 30.2426 24.9235 30.2437C24.1933 30.251 23.4688 30.1134 22.7922 29.8387C22.1717 29.6012 21.6112 29.2297 21.1507 28.7508C20.6902 28.2719 20.341 27.6973 20.128 27.068C19.8812 26.3848 19.7585 25.663 19.7657 24.9366C19.7596 24.0987 19.9114 23.2672 20.2132 22.4856C20.4965 21.7554 20.9325 21.0941 21.4921 20.546C22.0578 19.9879 22.7326 19.5526 23.4742 19.2672C24.3243 18.9426 25.2286 18.7834 26.1384 18.7983C27.0728 18.7848 28.0006 18.9587 28.8666 19.3098C29.694 19.6355 30.4267 20.1631 30.998 20.8444C31.6115 21.583 32.0683 22.4387 32.3406 23.3594C32.6747 24.4864 32.8329 25.6583 32.8096 26.8335C32.8282 28.212 32.6341 29.5851 32.2341 30.9044C31.9043 32.0188 31.3533 33.0554 30.6142 33.9523C29.9404 34.7703 29.0969 35.4321 28.1419 35.8918C27.1139 36.3659 25.9914 36.5992 24.8597 36.5738ZM26.1597 28.2402C26.6862 28.2278 27.2089 28.149 27.7156 28.0058C28.229 27.8591 28.7175 27.6364 29.1649 27.3451V26.2154C29.1719 25.457 29.1006 24.6999 28.9518 23.9562C28.8433 23.3166 28.6347 22.698 28.3338 22.1232C28.0868 21.6476 27.7373 21.2327 27.3106 20.9084C26.8864 20.611 26.3794 20.4544 25.8613 20.4608C25.4308 20.4555 25.0058 20.5581 24.6251 20.7592C24.275 20.967 23.9764 21.2511 23.7513 21.5904C23.4978 21.9732 23.3172 22.3995 23.2185 22.8479C23.0866 23.3559 23.0221 23.879 23.0266 24.4038C22.9672 25.4032 23.2615 26.3917 23.8578 27.1959C24.13 27.5414 24.4811 27.8165 24.8816 27.9983C25.2822 28.18 25.7205 28.263 26.1597 28.2402Z" fill="#1F1F1F"/>
<path d="M147.093 202.137C147.909 202.131 148.72 202.246 149.502 202.478C150.2 202.674 150.852 203.007 151.42 203.459L150.802 204.865C150.368 204.649 149.919 204.464 149.459 204.311C148.897 204.155 148.316 204.076 147.733 204.077C147.106 204.076 146.488 204.213 145.92 204.478C145.353 204.743 144.851 205.13 144.45 205.611C143.463 206.875 142.904 208.42 142.852 210.023C143.371 209.525 143.988 209.14 144.663 208.894C145.42 208.611 146.221 208.467 147.029 208.467C147.759 208.46 148.484 208.598 149.161 208.872C149.782 209.107 150.343 209.478 150.802 209.959C151.259 210.441 151.608 211.015 151.825 211.643C152.072 212.326 152.194 213.048 152.187 213.774C152.193 214.612 152.041 215.444 151.74 216.225C151.456 216.95 151.028 217.61 150.482 218.165C149.908 218.723 149.227 219.158 148.479 219.444C147.629 219.77 146.724 219.93 145.814 219.913C144.88 219.926 143.952 219.752 143.086 219.401C142.262 219.069 141.531 218.543 140.955 217.867C140.341 217.128 139.884 216.272 139.612 215.352C139.288 214.222 139.131 213.052 139.143 211.877C139.125 210.499 139.319 209.126 139.719 207.807C140.057 206.696 140.607 205.661 141.339 204.759C142.012 203.941 142.856 203.279 143.811 202.819C144.839 202.345 145.961 202.112 147.093 202.137ZM145.793 210.471C145.274 210.482 144.758 210.561 144.258 210.705C143.737 210.848 143.241 211.071 142.788 211.366V212.496C142.781 213.254 142.852 214.011 143.001 214.755C143.119 215.392 143.327 216.009 143.619 216.588C143.866 217.069 144.224 217.486 144.663 217.803C145.078 218.102 145.58 218.259 146.092 218.25C146.522 218.255 146.947 218.153 147.328 217.952C147.684 217.744 147.99 217.46 148.223 217.121C148.467 216.733 148.647 216.308 148.756 215.863C148.87 215.352 148.927 214.831 148.926 214.307C148.986 213.308 148.691 212.319 148.095 211.515C147.825 211.173 147.477 210.899 147.081 210.718C146.684 210.536 146.25 210.451 145.814 210.471H145.793Z" fill="#1F1F1F"/>
<path d="M69.1925 45.0355C67.9936 43.8381 66.3685 43.1655 64.674 43.1655C62.9796 43.1655 61.3545 43.8381 60.1556 45.0355L57.406 47.7849C58.0111 45.8771 59.1413 44.1782 60.6671 42.8828C61.8645 41.6839 62.5369 40.0588 62.5369 38.3643C62.5369 36.6699 61.8645 35.0448 60.6671 33.8459C60.0807 33.2488 59.3806 32.7752 58.6082 32.453C57.8358 32.1309 57.0068 31.9668 56.1699 31.9703C54.9043 31.9672 53.6662 32.3397 52.6124 33.0408C51.5587 33.7418 50.7367 34.7398 50.2506 35.9083C49.7644 37.0769 49.6361 38.3634 49.8816 39.605C50.1272 40.8466 50.7358 41.9873 51.6301 42.8828C53.1684 44.167 54.3011 45.8699 54.891 47.7849L52.1416 45.0355C51.2477 44.1405 50.1084 43.5307 48.8679 43.2833C47.6273 43.036 46.3413 43.1621 45.1725 43.6458C44.0036 44.1296 43.0045 44.9491 42.3016 46.0008C41.5986 47.0524 41.2234 48.289 41.2234 49.554C41.2234 50.8189 41.5986 52.0555 42.3016 53.1071C43.0045 54.1588 44.0036 54.9783 45.1725 55.4621C46.3413 55.9458 47.6273 56.0719 48.8679 55.8246C50.1084 55.5772 51.2477 54.9675 52.1416 54.0724L55.3173 50.918V51.1525C55.4494 52.9933 55.2141 54.8421 54.625 56.5911C54.0359 58.3401 53.1048 59.9545 51.8859 61.3404V62.406H60.4113V61.3404C57.9638 58.5326 56.7296 54.8688 56.9797 51.1525C56.9797 51.1525 56.9797 51.0246 56.9797 50.9393L60.1342 54.0937C61.3463 55.2232 62.9495 55.8381 64.606 55.8088C66.2625 55.7796 67.843 55.1086 69.0145 53.9371C70.186 52.7656 70.857 51.1851 70.8862 49.5286C70.9155 47.8721 70.3006 46.2689 69.1712 45.0568L69.1925 45.0355Z" fill="#1F1F1F"/>
<path d="M128.87 45.0355C127.672 43.8381 126.046 43.1655 124.352 43.1655C122.658 43.1655 121.032 43.8381 119.834 45.0355L117.084 47.7849C117.689 45.8771 118.819 44.1782 120.345 42.8828C121.542 41.6839 122.215 40.0588 122.215 38.3643C122.215 36.6699 121.542 35.0448 120.345 33.8459C119.759 33.2488 119.059 32.7752 118.286 32.453C117.514 32.1309 116.685 31.9668 115.848 31.9703C114.582 31.9672 113.344 32.3397 112.29 33.0408C111.237 33.7418 110.415 34.7398 109.929 35.9083C109.442 37.0769 109.314 38.3634 109.56 39.605C109.805 40.8466 110.414 41.9873 111.308 42.8828C112.846 44.167 113.979 45.8699 114.569 47.7849L111.82 45.0355C110.926 44.1405 109.786 43.5307 108.546 43.2833C107.305 43.036 106.019 43.1621 104.85 43.6458C103.682 44.1296 102.682 44.9491 101.98 46.0008C101.277 47.0524 100.901 48.289 100.901 49.554C100.901 50.8189 101.277 52.0555 101.98 53.1071C102.682 54.1588 103.682 54.9783 104.85 55.4621C106.019 55.9458 107.305 56.0719 108.546 55.8246C109.786 55.5772 110.926 54.9675 111.82 54.0724L114.995 50.918V51.1525C115.127 52.9933 114.892 54.8421 114.303 56.5911C113.714 58.3401 112.783 59.9545 111.564 61.3404V62.406H120.089V61.3404C117.642 58.5326 116.408 54.8688 116.658 51.1525C116.658 51.1525 116.658 51.0246 116.658 50.9393L119.812 54.0937C121.024 55.2232 122.627 55.8381 124.284 55.8088C125.94 55.7796 127.521 55.1086 128.693 53.9371C129.864 52.7656 130.535 51.1851 130.564 49.5286C130.593 47.8721 129.979 46.2689 128.849 45.0568L128.87 45.0355Z" fill="#1F1F1F"/>
<path d="M99.0316 115.37C97.8327 114.173 96.2076 113.5 94.5131 113.5C92.8187 113.5 91.1936 114.173 89.9947 115.37L87.2451 118.12C87.8502 116.212 88.9804 114.513 90.5062 113.218C91.7036 112.019 92.3761 110.394 92.3761 108.699C92.3761 107.005 91.7036 105.38 90.5062 104.181C89.9198 103.584 89.2197 103.11 88.4473 102.788C87.6749 102.466 86.8459 102.302 86.0091 102.305C84.7434 102.302 83.5053 102.675 82.4515 103.376C81.3978 104.077 80.5758 105.075 80.0897 106.243C79.6035 107.412 79.4752 108.698 79.7207 109.94C79.9663 111.182 80.5749 112.322 81.4693 113.218C83.0075 114.502 84.1402 116.205 84.7302 118.12L81.9808 115.37C81.0868 114.475 79.9475 113.866 78.707 113.618C77.4664 113.371 76.1804 113.497 75.0116 113.981C73.8427 114.465 72.8436 115.284 72.1407 116.336C71.4377 117.387 71.0625 118.624 71.0625 119.889C71.0625 121.154 71.4377 122.39 72.1407 123.442C72.8436 124.494 73.8427 125.313 75.0116 125.797C76.1804 126.281 77.4664 126.407 78.707 126.16C79.9475 125.912 81.0868 125.302 81.9808 124.407L85.1565 121.253V121.487C85.2885 123.328 85.0532 125.177 84.4641 126.926C83.875 128.675 82.9439 130.289 81.725 131.675V132.741H90.2504V131.675C87.8029 128.868 86.5688 125.204 86.8188 121.487C86.8188 121.487 86.8188 121.36 86.8188 121.274L89.9733 124.429C91.1854 125.558 92.7886 126.173 94.4451 126.144C96.1016 126.115 97.6821 125.444 98.8536 124.272C100.025 123.101 100.696 121.52 100.725 119.864C100.755 118.207 100.14 116.604 99.0103 115.392L99.0316 115.37Z" fill="#1F1F1F"/>
<path d="M69.1925 91.9256C67.9936 90.7282 66.3685 90.0557 64.674 90.0557C62.9796 90.0557 61.3545 90.7282 60.1556 91.9256L57.406 94.6751C58.0111 92.7672 59.1413 91.0683 60.6671 89.7729C61.8645 88.5741 62.5369 86.9489 62.5369 85.2545C62.5369 83.56 61.8645 81.9349 60.6671 80.736C60.0807 80.1389 59.3806 79.6653 58.6082 79.3432C57.8358 79.021 57.0068 78.8569 56.1699 78.8604C54.9043 78.8573 53.6662 79.2299 52.6124 79.9309C51.5587 80.6319 50.7367 81.6299 50.2506 82.7985C49.7644 83.967 49.6361 85.2535 49.8816 86.4951C50.1272 87.7367 50.7358 88.8775 51.6301 89.7729C53.1684 91.0572 54.3011 92.76 54.891 94.6751L52.1416 91.9256C51.2477 91.0306 50.1084 90.4208 48.8679 90.1735C47.6273 89.9261 46.3413 90.0523 45.1725 90.536C44.0036 91.0197 43.0045 91.8392 42.3016 92.8909C41.5986 93.9426 41.2234 95.1791 41.2234 96.4441C41.2234 97.7091 41.5986 98.9456 42.3016 99.9973C43.0045 101.049 44.0036 101.868 45.1725 102.352C46.3413 102.836 47.6273 102.962 48.8679 102.715C50.1084 102.467 51.2477 101.858 52.1416 100.963L55.3173 97.8082V98.0426C55.4494 99.8835 55.2141 101.732 54.625 103.481C54.0359 105.23 53.1048 106.845 51.8859 108.23V109.296H60.4113V108.23C57.9638 105.423 56.7296 101.759 56.9797 98.0426C56.9797 98.0426 56.9797 97.9147 56.9797 97.8295L60.1342 100.984C61.3463 102.113 62.9495 102.728 64.606 102.699C66.2625 102.67 67.843 101.999 69.0145 100.827C70.186 99.6557 70.857 98.0752 70.8862 96.4187C70.9155 94.7622 70.3006 93.159 69.1712 91.9469L69.1925 91.9256Z" fill="#1F1F1F"/>
<path d="M128.87 91.9256C127.672 90.7282 126.046 90.0557 124.352 90.0557C122.658 90.0557 121.032 90.7282 119.834 91.9256L117.084 94.6751C117.689 92.7672 118.819 91.0683 120.345 89.7729C121.542 88.5741 122.215 86.9489 122.215 85.2545C122.215 83.56 121.542 81.9349 120.345 80.736C119.759 80.1389 119.059 79.6653 118.286 79.3432C117.514 79.021 116.685 78.8569 115.848 78.8604C114.582 78.8573 113.344 79.2299 112.29 79.9309C111.237 80.6319 110.415 81.6299 109.929 82.7985C109.442 83.967 109.314 85.2535 109.56 86.4951C109.805 87.7367 110.414 88.8775 111.308 89.7729C112.846 91.0572 113.979 92.76 114.569 94.6751L111.82 91.9256C110.926 91.0306 109.786 90.4208 108.546 90.1735C107.305 89.9261 106.019 90.0523 104.85 90.536C103.682 91.0197 102.682 91.8392 101.98 92.8909C101.277 93.9426 100.901 95.1791 100.901 96.4441C100.901 97.7091 101.277 98.9456 101.98 99.9973C102.682 101.049 103.682 101.868 104.85 102.352C106.019 102.836 107.305 102.962 108.546 102.715C109.786 102.467 110.926 101.858 111.82 100.963L114.995 97.8082V98.0426C115.127 99.8835 114.892 101.732 114.303 103.481C113.714 105.23 112.783 106.845 111.564 108.23V109.296H120.089V108.23C117.642 105.423 116.408 101.759 116.658 98.0426C116.658 98.0426 116.658 97.9147 116.658 97.8295L119.812 100.984C121.024 102.113 122.627 102.728 124.284 102.699C125.94 102.67 127.521 101.999 128.693 100.827C129.864 99.6557 130.535 98.0752 130.564 96.4187C130.593 94.7622 129.979 93.159 128.849 91.9469L128.87 91.9256Z" fill="#1F1F1F"/>
<path d="M69.1925 193.677C67.9936 194.874 66.3685 195.547 64.674 195.547C62.9796 195.547 61.3545 194.874 60.1556 193.677L57.406 190.927C58.0111 192.835 59.1413 194.534 60.6671 195.829C61.8645 197.028 62.5369 198.653 62.5369 200.348C62.5369 202.042 61.8645 203.667 60.6671 204.866C60.0807 205.463 59.3806 205.937 58.6082 206.259C57.8358 206.581 57.0068 206.745 56.1699 206.742C54.9043 206.745 53.6662 206.372 52.6124 205.671C51.5587 204.97 50.7367 203.972 50.2506 202.804C49.7644 201.635 49.6361 200.349 49.8816 199.107C50.1272 197.866 50.7358 196.725 51.6301 195.829C53.1684 194.545 54.3011 192.842 54.891 190.927L52.1416 193.677C51.2477 194.572 50.1084 195.181 48.8679 195.429C47.6273 195.676 46.3413 195.55 45.1725 195.066C44.0036 194.583 43.0045 193.763 42.3016 192.711C41.5986 191.66 41.2234 190.423 41.2234 189.158C41.2234 187.893 41.5986 186.657 42.3016 185.605C43.0045 184.553 44.0036 183.734 45.1725 183.25C46.3413 182.766 47.6273 182.64 48.8679 182.888C50.1084 183.135 51.2477 183.745 52.1416 184.64L55.3173 187.794V187.56C55.4494 185.719 55.2141 183.87 54.625 182.121C54.0359 180.372 53.1048 178.758 51.8859 177.372V176.306H60.4113V177.372C57.9638 180.18 56.7296 183.843 56.9797 187.56C56.9797 187.56 56.9797 187.688 56.9797 187.773L60.1342 184.618C61.3463 183.489 62.9495 182.874 64.606 182.903C66.2625 182.933 67.843 183.604 69.0145 184.775C70.186 185.947 70.857 187.527 70.8862 189.184C70.9155 190.84 70.3006 192.443 69.1712 193.655L69.1925 193.677Z" fill="#1F1F1F"/>
<path d="M128.87 193.677C127.672 194.874 126.046 195.547 124.352 195.547C122.658 195.547 121.032 194.874 119.834 193.677L117.084 190.927C117.689 192.835 118.819 194.534 120.345 195.829C121.542 197.028 122.215 198.653 122.215 200.348C122.215 202.042 121.542 203.667 120.345 204.866C119.759 205.463 119.059 205.937 118.286 206.259C117.514 206.581 116.685 206.745 115.848 206.742C114.582 206.745 113.344 206.372 112.29 205.671C111.237 204.97 110.415 203.972 109.929 202.804C109.442 201.635 109.314 200.349 109.56 199.107C109.805 197.866 110.414 196.725 111.308 195.829C112.846 194.545 113.979 192.842 114.569 190.927L111.82 193.677C110.926 194.572 109.786 195.181 108.546 195.429C107.305 195.676 106.019 195.55 104.85 195.066C103.682 194.583 102.682 193.763 101.98 192.711C101.277 191.66 100.901 190.423 100.901 189.158C100.901 187.893 101.277 186.657 101.98 185.605C102.682 184.553 103.682 183.734 104.85 183.25C106.019 182.766 107.305 182.64 108.546 182.888C109.786 183.135 110.926 183.745 111.82 184.64L114.995 187.794V187.56C115.127 185.719 114.892 183.87 114.303 182.121C113.714 180.372 112.783 178.758 111.564 177.372V176.306H120.089V177.372C117.642 180.18 116.408 183.843 116.658 187.56C116.658 187.56 116.658 187.688 116.658 187.773L119.812 184.618C121.024 183.489 122.627 182.874 124.284 182.903C125.94 182.933 127.521 183.604 128.693 184.775C129.864 185.947 130.535 187.527 130.564 189.184C130.593 190.84 129.979 192.443 128.849 193.655L128.87 193.677Z" fill="#1F1F1F"/>
<path d="M69.1925 146.787C67.9936 147.984 66.3685 148.657 64.674 148.657C62.9796 148.657 61.3545 147.984 60.1556 146.787L57.406 144.038C58.0111 145.945 59.1413 147.644 60.6671 148.94C61.8645 150.139 62.5369 151.764 62.5369 153.458C62.5369 155.153 61.8645 156.778 60.6671 157.977C60.0807 158.574 59.3806 159.047 58.6082 159.369C57.8358 159.692 57.0068 159.856 56.1699 159.852C54.9043 159.855 53.6662 159.483 52.6124 158.782C51.5587 158.081 50.7367 157.083 50.2506 155.914C49.7644 154.746 49.6361 153.459 49.8816 152.218C50.1272 150.976 50.7358 149.835 51.6301 148.94C53.1684 147.656 54.3011 145.953 54.891 144.038L52.1416 146.787C51.2477 147.682 50.1084 148.292 48.8679 148.539C47.6273 148.787 46.3413 148.66 45.1725 148.177C44.0036 147.693 43.0045 146.873 42.3016 145.822C41.5986 144.77 41.2234 143.534 41.2234 142.269C41.2234 141.004 41.5986 139.767 42.3016 138.715C43.0045 137.664 44.0036 136.844 45.1725 136.36C46.3413 135.877 47.6273 135.751 48.8679 135.998C50.1084 136.245 51.2477 136.855 52.1416 137.75L55.3173 140.905V140.67C55.4494 138.829 55.2141 136.98 54.625 135.231C54.0359 133.482 53.1048 131.868 51.8859 130.482V129.417H60.4113V130.482C57.9638 133.29 56.7296 136.954 56.9797 140.67C56.9797 140.67 56.9797 140.798 56.9797 140.883L60.1342 137.729C61.3463 136.599 62.9495 135.984 64.606 136.014C66.2625 136.043 67.843 136.714 69.0145 137.885C70.186 139.057 70.857 140.637 70.8862 142.294C70.9155 143.95 70.3006 145.554 69.1712 146.766L69.1925 146.787Z" fill="#1F1F1F"/>
<path d="M128.87 146.787C127.672 147.984 126.046 148.657 124.352 148.657C122.658 148.657 121.032 147.984 119.834 146.787L117.084 144.038C117.689 145.945 118.819 147.644 120.345 148.94C121.542 150.139 122.215 151.764 122.215 153.458C122.215 155.153 121.542 156.778 120.345 157.977C119.759 158.574 119.059 159.047 118.286 159.369C117.514 159.692 116.685 159.856 115.848 159.852C114.582 159.855 113.344 159.483 112.29 158.782C111.237 158.081 110.415 157.083 109.929 155.914C109.442 154.746 109.314 153.459 109.56 152.218C109.805 150.976 110.414 149.835 111.308 148.94C112.846 147.656 113.979 145.953 114.569 144.038L111.82 146.787C110.926 147.682 109.786 148.292 108.546 148.539C107.305 148.787 106.019 148.66 104.85 148.177C103.682 147.693 102.682 146.873 101.98 145.822C101.277 144.77 100.901 143.534 100.901 142.269C100.901 141.004 101.277 139.767 101.98 138.715C102.682 137.664 103.682 136.844 104.85 136.36C106.019 135.877 107.305 135.751 108.546 135.998C109.786 136.245 110.926 136.855 111.82 137.75L114.995 140.905V140.67C115.127 138.829 114.892 136.98 114.303 135.231C113.714 133.482 112.783 131.868 111.564 130.482V129.417H120.089V130.482C117.642 133.29 116.408 136.954 116.658 140.67C116.658 140.67 116.658 140.798 116.658 140.883L119.812 137.729C121.024 136.599 122.627 135.984 124.284 136.014C125.94 136.043 127.521 136.714 128.693 137.885C129.864 139.057 130.535 140.637 130.564 142.294C130.593 143.95 129.979 145.554 128.849 146.766L128.87 146.787Z" fill="#1F1F1F"/>
</svg>
