<svg width="171" height="239" viewBox="0 0 171 239" fill="none" xmlns="http://www.w3.org/2000/svg">
<path d="M159.852 0.288086H10.6568C4.7712 0.288086 0 5.05929 0 10.9449V228.343C0 234.229 4.7712 239 10.6568 239H159.852C165.737 239 170.508 234.229 170.508 228.343V10.9449C170.508 5.05929 165.737 0.288086 159.852 0.288086Z" fill="#F9F1DF"/>
<path d="M25.5762 57.3018C23.6511 54.3109 21.1074 51.7672 18.1165 49.8421C21.1074 47.917 23.6511 45.3733 25.5762 42.3823C27.5013 45.3733 30.045 47.917 33.0359 49.8421C30.045 51.7672 27.5013 54.3109 25.5762 57.3018Z" fill="#C93112"/>
<path d="M144.932 178.789C146.857 181.78 149.401 184.324 152.392 186.249C149.401 188.174 146.857 190.718 144.932 193.709C143.007 190.718 140.463 188.174 137.472 186.249C140.463 184.324 143.007 181.78 144.932 178.789Z" fill="#C93112"/>
<path d="M22.9763 33.4948V34.9228H16.2412V33.4948L17.8397 33.0899C18.0017 33.0613 18.1549 32.9956 18.2873 32.898C18.4015 32.7754 18.4887 32.6302 18.5431 32.4717L24.3617 15.4209H27.7079L33.7183 32.4717C33.7671 32.6266 33.8552 32.7661 33.9741 32.8767C34.0996 32.9895 34.255 33.0635 34.4217 33.0899L35.8923 33.4948V34.9228H27.7079V33.4948L30.1163 33.0472L28.7949 29.1042H21.804L20.5466 33.0472L22.9763 33.4948ZM28.3047 27.3778L25.2568 18.2982L22.3582 27.3778H28.3047Z" fill="#C93112"/>
<path d="M147.554 202.618V201.168H154.267V202.618L152.669 203.001C152.507 203.03 152.354 203.096 152.221 203.193C152.107 203.316 152.02 203.461 151.966 203.62L146.147 220.67H142.907L136.897 203.62C136.856 203.461 136.766 203.32 136.641 203.215C136.516 203.102 136.36 203.028 136.194 203.001L134.723 202.618V201.168H142.801V202.618L140.392 203.044L141.714 206.987H148.79L150.047 203.044L147.554 202.618ZM142.204 208.713L145.252 217.793L148.15 208.713H142.204Z" fill="#C93112"/>
<path d="M85.2543 147.885C77.5769 135.902 67.3976 125.723 55.4153 118.046C67.393 110.362 77.5711 100.184 85.2543 88.2065C92.9375 100.184 103.116 110.362 115.093 118.046C103.111 125.723 92.9317 135.902 85.2543 147.885Z" fill="#C93112"/>
</svg>
