<svg width="171" height="239" viewBox="0 0 171 239" fill="none" xmlns="http://www.w3.org/2000/svg">
<path d="M160.034 0H10.8389C4.95333 0 0.182129 4.7712 0.182129 10.6568V228.055C0.182129 233.941 4.95333 238.712 10.8389 238.712H160.034C165.919 238.712 170.691 233.941 170.691 228.055V10.6568C170.691 4.7712 165.919 0 160.034 0Z" fill="#F9F1DF"/>
<path d="M32.2804 49.1495C31.6782 48.556 30.8667 48.2233 30.0212 48.2233C29.1756 48.2233 28.3641 48.556 27.7619 49.1495L26.3766 50.5349C26.6676 49.5728 27.239 48.7194 28.0177 48.0839C28.3318 47.7912 28.5838 47.4382 28.7585 47.0461C28.9333 46.6539 29.0271 46.2306 29.0347 45.8013C29.0423 45.372 28.9634 44.9456 28.8026 44.5475C28.6418 44.1494 28.4024 43.7878 28.0989 43.4842C27.7953 43.1807 27.4336 42.9413 27.0355 42.7805C26.6374 42.6197 26.2111 42.5408 25.7819 42.5483C25.3526 42.5559 24.9292 42.6499 24.5371 42.8246C24.1449 42.9994 23.7919 43.2513 23.4992 43.5654C23.2002 43.8608 22.9628 44.2126 22.8008 44.6004C22.6388 44.9882 22.5553 45.4043 22.5553 45.8246C22.5553 46.2449 22.6388 46.6611 22.8008 47.0489C22.9628 47.4367 23.2002 47.7885 23.4992 48.0839C24.2644 48.7274 24.827 49.5787 25.1191 50.5349L23.755 49.1495C23.3068 48.7051 22.7371 48.4032 22.1177 48.2819C21.4982 48.1607 20.8569 48.2255 20.2742 48.4683C19.6916 48.711 19.1938 49.1208 18.8436 49.646C18.4935 50.1712 18.3066 50.7882 18.3066 51.4194C18.3066 52.0506 18.4935 52.6677 18.8436 53.1929C19.1938 53.7181 19.6916 54.1279 20.2742 54.3706C20.8569 54.6133 21.4982 54.6782 22.1177 54.557C22.7371 54.4357 23.3068 54.1338 23.755 53.6893L25.3322 52.0908C25.4578 53.9472 24.845 55.7781 23.6271 57.1848V57.6963H27.8898V57.1848C26.6676 55.7879 26.047 53.9646 26.1634 52.1121V51.9843L27.7619 53.5828C28.3639 54.182 29.1793 54.5175 30.0287 54.5155C30.8781 54.5135 31.6919 54.1741 32.2911 53.5721C32.8902 52.9701 33.2258 52.1547 33.2238 51.3053C33.2218 50.456 32.8824 49.6422 32.2804 49.043V49.1495Z" fill="#1F1F1F"/>
<path d="M138.593 189.563C139.195 190.157 140.006 190.49 140.852 190.49C141.697 190.49 142.509 190.157 143.111 189.563L144.475 188.178C144.183 189.134 143.621 189.985 142.855 190.629C142.416 191.068 142.114 191.626 141.986 192.235C141.858 192.843 141.911 193.475 142.137 194.054C142.363 194.633 142.753 195.133 143.259 195.494C143.765 195.855 144.366 196.06 144.987 196.085C145.62 196.089 146.241 195.904 146.769 195.555C147.298 195.205 147.711 194.706 147.955 194.121C148.199 193.536 148.265 192.892 148.142 192.271C148.02 191.649 147.715 191.077 147.267 190.629C146.489 189.993 145.917 189.14 145.626 188.178L147.012 189.563C147.46 190.008 148.029 190.31 148.649 190.431C149.268 190.552 149.91 190.487 150.492 190.245C151.075 190.002 151.573 189.592 151.923 189.067C152.273 188.542 152.46 187.925 152.46 187.293C152.46 186.662 152.273 186.045 151.923 185.52C151.573 184.995 151.075 184.585 150.492 184.342C149.91 184.1 149.268 184.035 148.649 184.156C148.029 184.277 147.46 184.579 147.012 185.024L145.413 186.622C145.35 185.701 145.47 184.777 145.767 183.902C146.063 183.028 146.53 182.221 147.139 181.528V181.017H142.877V181.528C143.48 182.22 143.941 183.024 144.234 183.895C144.526 184.765 144.645 185.685 144.582 186.601V186.729L143.005 185.13C142.403 184.531 141.587 184.195 140.738 184.197C139.888 184.199 139.075 184.539 138.475 185.141C137.876 185.743 137.541 186.558 137.543 187.408C137.545 188.257 137.884 189.071 138.486 189.67L138.593 189.563Z" fill="#1F1F1F"/>
<path d="M28.1461 18.735C27.9642 18.7613 27.7979 18.8521 27.6773 18.9907C27.5657 19.1285 27.5122 19.3044 27.5281 19.4809V31.2673C27.5432 32.5013 27.4577 33.7345 27.2723 34.9546C27.1564 35.8903 26.8441 36.7909 26.3558 37.5975C25.8393 38.3765 25.1638 39.0375 24.3737 39.537C23.3043 40.1694 22.1766 40.6975 21.0061 41.1142L20.3027 39.6649C20.9934 39.2277 21.6427 38.7283 22.2423 38.1729C22.7241 37.7263 23.1149 37.1908 23.3932 36.5957C23.6992 35.9211 23.8936 35.2013 23.9687 34.4644C24.0692 33.5442 24.1191 32.6192 24.1179 31.6936V19.4809C24.1249 19.2954 24.0642 19.1137 23.9474 18.9694C23.8935 18.901 23.8258 18.8448 23.7486 18.8044C23.6715 18.764 23.5867 18.7403 23.4998 18.735L21.539 18.33V16.8594H29.8725V18.33L28.1461 18.735Z" fill="#1F1F1F"/>
<path d="M142.706 219.977C142.888 219.951 143.055 219.86 143.175 219.722C143.287 219.584 143.341 219.408 143.325 219.231V207.445C143.314 206.212 143.393 204.98 143.559 203.758C143.692 202.823 144.011 201.924 144.497 201.115C145.013 200.336 145.689 199.675 146.479 199.175C147.546 198.539 148.674 198.011 149.847 197.598L150.55 199.047C149.859 199.485 149.21 199.984 148.61 200.539C148.122 200.985 147.724 201.521 147.438 202.117C147.151 202.796 146.964 203.514 146.884 204.248C146.773 205.167 146.723 206.093 146.735 207.019V219.338C146.733 219.52 146.785 219.698 146.884 219.85C146.942 219.919 147.014 219.975 147.094 220.015C147.175 220.056 147.263 220.079 147.353 220.084L149.314 220.489V221.96H140.98V220.489L142.706 219.977Z" fill="#1F1F1F"/>
<path d="M143.239 36.5104C142.645 35.9143 141.939 35.4413 141.162 35.1186C140.384 34.7959 139.551 34.6297 138.71 34.6297C137.868 34.6297 137.035 34.7959 136.258 35.1186C135.48 35.4413 134.775 35.9143 134.18 36.5104L131.452 39.2598C132.042 37.3447 133.175 35.6419 134.713 34.3577C135.605 33.4626 136.212 32.3232 136.457 31.0835C136.702 29.8438 136.574 28.5593 136.09 27.3922C135.605 26.2252 134.785 25.2279 133.734 24.5262C132.683 23.8246 131.448 23.4502 130.184 23.4502C128.921 23.4502 127.685 23.8246 126.634 24.5262C125.583 25.2279 124.764 26.2252 124.279 27.3922C123.794 28.5593 123.666 29.8438 123.911 31.0835C124.156 32.3232 124.763 33.4626 125.655 34.3577C127.193 35.6419 128.326 37.3447 128.916 39.2598L126.188 36.5104C125.294 35.6153 124.155 35.0056 122.914 34.7582C121.674 34.5109 120.388 34.637 119.219 35.1207C118.05 35.6044 117.051 36.424 116.348 37.4757C115.645 38.5273 115.27 39.7639 115.27 41.0288C115.27 42.2938 115.645 43.5303 116.348 44.582C117.051 45.6337 118.05 46.4532 119.219 46.9369C120.388 47.4207 121.674 47.5468 122.914 47.2995C124.155 47.0521 125.294 46.4423 126.188 45.5473L129.342 42.3929V42.6274C129.474 44.4682 129.239 46.3169 128.65 48.066C128.061 49.815 127.13 51.4294 125.911 52.8152V53.8809H134.436V52.8152C131.989 50.0075 130.755 46.3437 131.005 42.6274C131.005 42.6274 131.005 42.4995 131.005 42.4142L134.159 45.5686C135.358 46.7698 136.984 47.4458 138.681 47.4478C140.378 47.4498 142.006 46.7777 143.207 45.5793C144.408 44.3809 145.084 42.7544 145.086 41.0577C145.088 39.3609 144.416 37.7329 143.218 36.5317L143.239 36.5104Z" fill="#1F1F1F"/>
<path d="M53.7215 202.223C53.1275 202.819 52.4216 203.292 51.6444 203.615C50.8672 203.938 50.0339 204.104 49.1924 204.104C48.3508 204.104 47.5175 203.938 46.7403 203.615C45.9631 203.292 45.2573 202.819 44.6632 202.223L41.9352 199.474C42.5243 201.383 43.6575 203.079 45.1961 204.354C46.0965 205.248 46.711 206.388 46.9615 207.631C47.212 208.875 47.0871 210.164 46.6027 211.336C46.1183 212.508 45.2964 213.51 44.2414 214.214C43.1863 214.917 41.9458 215.291 40.6776 215.288C38.9777 215.279 37.3488 214.606 36.1378 213.413C35.5417 212.819 35.0687 212.113 34.746 211.336C34.4233 210.558 34.2573 209.725 34.2573 208.884C34.2573 208.042 34.4233 207.209 34.746 206.432C35.0687 205.654 35.5417 204.948 36.1378 204.354C37.6764 203.079 38.8097 201.383 39.3988 199.474L36.6706 202.223C35.7755 203.115 34.6362 203.722 33.3965 203.967C32.1567 204.212 30.8723 204.084 29.7052 203.599C28.5382 203.115 27.5409 202.295 26.8393 201.244C26.1377 200.193 25.7632 198.958 25.7632 197.694C25.7632 196.43 26.1377 195.195 26.8393 194.144C27.5409 193.093 28.5382 192.273 29.7052 191.789C30.8723 191.304 32.1567 191.176 33.3965 191.421C34.6362 191.666 35.7755 192.273 36.6706 193.165L39.8251 196.341V196.085C39.9591 194.247 39.7246 192.401 39.1353 190.655C38.546 188.909 37.6138 187.299 36.3936 185.918V184.853H44.919V185.918C42.4727 188.718 41.2385 192.375 41.4875 196.085C41.4875 196.085 41.4875 196.234 41.4875 196.319L44.642 193.144C45.8432 191.942 47.4724 191.267 49.1712 191.267C50.8699 191.267 52.4991 191.942 53.7003 193.144C54.9015 194.345 55.5763 195.974 55.5763 197.673C55.5763 199.371 54.9015 201.001 53.7003 202.202L53.7215 202.223Z" fill="#1F1F1F"/>
<path d="M153.619 170.508H151.488V19.1821H47.0511V17.0508H152.553L153.619 18.1165V170.508ZM17.2122 68.2033V220.595L18.2778 221.661H123.78V219.53H19.3435V68.2033H17.2122Z" fill="#1F1F1F"/>
<path d="M97.6487 209.343C95.2856 210.729 92.6261 211.533 89.8905 211.687C90.5725 207.552 94.7073 203.801 97.0092 202.011L97.6487 209.343Z" fill="#C93112"/>
<path d="M94.3244 201.456C91.7806 203.519 89.752 206.146 88.3992 209.129L85.2021 200.604C88.1777 201.374 91.2577 201.662 94.3244 201.456Z" fill="#C93112"/>
<path d="M87.1199 211.772C82.4436 211.537 77.9131 210.066 73.9907 207.509L83.0277 200.817L87.1199 211.772Z" fill="#C93112"/>
<path d="M74.247 204.61C74.72 201.425 74.4576 198.173 73.4797 195.104C75.0064 196.243 76.6329 197.242 78.3393 198.088C78.4672 198.088 78.5524 198.259 78.6803 198.302C79.5278 198.714 80.3956 199.084 81.2804 199.41L74.247 204.61Z" fill="#C93112"/>
<path d="M71.6889 205.718C69.312 203.765 67.5626 201.156 66.6589 198.216L70.7512 193.825C71.7317 196.34 73.3514 201.754 71.6889 205.718Z" fill="#C93112"/>
<path d="M96.9668 197.876C96.9668 201.584 77.9764 199.09 80.2996 183.34C81.5358 174.558 81.621 170.168 77.1877 167.653C78.0775 167.441 79.008 167.477 79.8793 167.754C80.7505 168.032 81.5295 168.543 82.1325 169.23C88.2495 175.006 79.4257 187.752 86.0543 192.462C88.7042 194.56 91.8425 195.954 95.1764 196.511C96.37 196.639 97.0094 197.321 96.9668 197.876Z" fill="#CBBD9F"/>
<path d="M83.2414 197.449C72.5846 193.868 73.8847 181.464 77.6998 170.85C79.1918 172.81 79.1492 176.093 78.1688 183.041C77.7508 185.423 77.8871 187.87 78.5672 190.191C79.2473 192.512 80.4529 194.646 82.0904 196.426C82.4537 196.789 82.8381 197.131 83.2414 197.449Z" fill="#CBBD9F"/>
<path d="M74.1613 192.078C67.3623 185.279 69.5363 175.027 75.909 169.613C74.1187 174.345 71.0495 184.618 74.1613 192.078Z" fill="#CBBD9F"/>
<path d="M122.032 94.8457V121.36C120.612 121.286 119.189 121.286 117.769 121.36C117.769 96.8492 117.769 105.247 117.769 103.414C118.876 99.657 119.506 95.7759 119.644 91.8618C120.317 92.0229 120.918 92.4038 121.35 92.9442C121.782 93.4846 122.022 94.1537 122.032 94.8457Z" fill="#CBBD9F"/>
<path d="M122.032 137.601H117.769V175.496H122.032V137.601Z" fill="#CBBD9F"/>
<path d="M108.817 142.205C108.263 150.56 98.4583 159.682 87.7589 165.01C86.533 165.591 85.3751 166.306 84.3062 167.141C85.4145 160.918 90.828 155.589 103.019 148.556C105.66 147.215 107.722 144.957 108.817 142.205Z" fill="#2D6B67"/>
<path d="M87.2058 157.465C84.4773 160.128 82.6704 163.593 82.048 167.354C80.9352 166.262 79.4809 165.586 77.9287 165.438C76.3766 165.291 74.821 165.681 73.5225 166.544C67.1684 164.527 61.3437 161.12 56.4717 156.57C56.2203 148.561 58.0253 140.621 61.7148 133.508C63.6715 139.287 67.0204 144.495 71.466 148.673C75.9116 152.851 81.3172 155.87 87.2058 157.465Z" fill="#C93112"/>
<path d="M107.197 140.67C103.957 150.687 89.8904 149.43 81.2371 142.929C90.2072 138.706 98.1935 132.651 104.682 125.154C108.391 132.614 108.135 137.686 107.197 140.67Z" fill="#C93112"/>
<path d="M96.4551 150.091C93.797 151.782 91.2744 153.678 88.91 155.76C82.7853 154.305 77.1641 151.231 72.6346 146.859C68.1052 142.487 64.834 136.978 63.1632 130.909C64.6748 128.258 66.3999 125.735 68.3212 123.364C68.6528 127.971 70.0539 132.437 72.4134 136.408V136.536C72.4714 136.631 72.5431 136.717 72.6264 136.791C75.0613 140.739 78.4317 144.025 82.4392 146.36C86.4467 148.694 90.9678 150.005 95.6025 150.176C95.9009 150.176 96.1567 150.091 96.4551 150.091Z" fill="#CBBD9F"/>
<path d="M100.547 117.779C94.8506 124.211 88.0334 129.555 80.4274 133.551L97.4782 104.778C99.5093 108.81 100.561 113.264 100.547 117.779Z" fill="#2D6B67"/>
<path d="M90.4026 105.205L73.3518 133.935C71.3053 129.905 70.2254 125.454 70.1974 120.934C75.9209 114.507 82.7678 109.177 90.4026 105.205Z" fill="#C93112"/>
<path d="M114.316 82.1424C114.564 90.1646 112.76 98.1172 109.073 105.246C107.118 99.4696 103.775 94.2607 99.3384 90.0765C94.9016 85.8923 89.5059 82.8606 83.6245 81.2473C86.3778 78.6141 88.2026 75.1589 88.825 71.4004C89.9261 72.5154 91.3865 73.2042 92.9472 73.3447C94.508 73.4852 96.068 73.0681 97.3504 72.1677C103.678 74.1868 109.475 77.5948 114.316 82.1424Z" fill="#2D6B67"/>
<path d="M107.709 107.804C106.198 110.455 104.473 112.978 102.551 115.349C102.255 110.729 100.836 106.252 98.4165 102.305V102.177C96.0659 98.4421 92.9224 95.2696 89.209 92.8846C84.831 90.0177 79.6925 88.5326 74.4601 88.6219C77.0906 86.9451 79.5849 85.0637 81.9198 82.9951C88.0502 84.4334 93.68 87.4962 98.218 91.8616C102.756 96.2271 106.034 101.734 107.709 107.804Z" fill="#CBBD9F"/>
<path d="M86.6507 71.5283C85.5424 77.7945 80.1288 83.0803 67.9374 90.1137C65.2443 91.4453 63.1352 93.7212 62.0122 96.5078C62.5664 88.1529 72.4133 79.0733 83.1127 73.7023C84.3743 73.121 85.562 72.3912 86.6507 71.5283Z" fill="#C93112"/>
<path d="M89.5929 95.7839C80.6316 100.022 72.6481 106.075 66.148 113.559C62.4394 106.1 62.6952 101.027 63.633 98.0432C66.9579 87.9619 81.0462 89.3685 89.5929 95.7839Z" fill="#2D6B67"/>
<path d="M53.1463 135.341C52.0424 139.115 51.3983 143.008 51.228 146.936C50.7098 146.783 50.2303 146.521 49.8214 146.168C48.4786 144.911 48.8409 146.019 48.8409 117.395C49.5229 117.395 48.1589 117.395 53.1036 117.395V135.256L53.1463 135.341Z" fill="#CBBD9F"/>
<path d="M53.1038 63.2163H48.8411V101.154H53.1038V63.2163Z" fill="#CBBD9F"/>
<path d="M94.9629 69.0993C96.7106 64.3676 99.8224 54.1798 96.7106 46.6348C103.297 53.2846 101.442 63.5577 94.9629 69.0993Z" fill="#CBBD9F"/>
<path d="M93.1301 67.863C91.6808 65.9021 91.6807 62.6199 92.6611 55.7143C93.1083 53.3287 92.9903 50.8715 92.3167 48.5397C91.643 46.2079 90.4325 44.0664 88.7821 42.2867C88.4041 41.9232 88.0056 41.5816 87.5885 41.2637C88.4837 41.6047 89.3788 41.9457 90.2314 42.372C99.3109 47.5299 95.3893 61.8099 93.1301 67.863Z" fill="#CBBD9F"/>
<path d="M93.6846 71.1019C92.7909 71.3036 91.8594 71.2595 90.9887 70.9743C90.1181 70.6891 89.3409 70.1735 88.7398 69.4821C82.5802 63.7701 91.4893 51.0246 84.7755 46.2503C82.1492 44.1473 79.0196 42.7661 75.6959 42.2434C73.117 41.881 73.2023 39.6644 76.2927 39.3447C85.7986 39.3447 91.8517 46.3356 90.5729 55.4152C89.294 64.4947 89.2087 68.5443 93.6846 71.1019Z" fill="#CBBD9F"/>
<path d="M104.17 40.4957L100.078 44.9289C99.1404 42.3286 97.6058 36.915 99.1404 32.9507C101.538 34.9025 103.291 37.532 104.17 40.4957Z" fill="#C93112"/>
<path d="M97.3927 43.565C95.7264 42.4321 93.9893 41.4069 92.1922 40.4958C91.3823 40.1122 90.4871 39.7285 89.6345 39.3875L96.668 34.187C96.1919 37.3274 96.4398 40.535 97.3927 43.565Z" fill="#C93112"/>
<path d="M96.7963 31.2461L87.8446 37.9386L83.7524 26.9834C88.3978 27.2419 92.8947 28.7115 96.7963 31.2461Z" fill="#C93112"/>
<path d="M85.6284 38.1518C82.9362 37.4954 80.1722 37.1804 77.4014 37.214C77.4014 37.214 76.7406 37.214 76.5061 37.214C79.052 35.1254 81.0923 32.4877 82.474 29.4985L85.6284 38.1518Z" fill="#C93112"/>
<path d="M80.9818 27.0259C80.2571 31.1607 76.1649 34.9545 73.863 36.7022L73.2236 29.3704C75.5837 27.9767 78.2449 27.1725 80.9818 27.0259Z" fill="#C93112"/>
<path d="M77.3799 52.5166C77.3799 53.3052 77.3799 53.3052 77.3799 54.1151C77.3799 54.3977 77.2675 54.6688 77.0677 54.8686C76.8678 55.0685 76.5968 55.1808 76.3142 55.1808C76.1753 55.1836 76.0371 55.1587 75.908 55.1075C75.7788 55.0563 75.6612 54.9798 75.5619 54.8825C75.4627 54.7853 75.3838 54.6692 75.33 54.541C75.2762 54.4129 75.2485 54.2754 75.2485 54.1364C75.2485 53.3265 75.2485 53.3265 75.2485 52.5379C75.2457 52.3979 75.2704 52.2588 75.3214 52.1284C75.3723 51.998 75.4485 51.879 75.5455 51.778C75.6425 51.6771 75.7584 51.5962 75.8866 51.5401C76.0149 51.484 76.1529 51.4537 76.2929 51.4509C76.5775 51.4508 76.8508 51.5624 77.054 51.7617C77.2573 51.961 77.3743 52.232 77.3799 52.5166ZM140.106 173.514C139.188 174.996 138.028 176.315 136.674 177.414H135.459L130.344 174.004V172.192C131.538 171.531 132.241 170.722 131.623 169.507C131.044 168.554 130.205 167.787 129.204 167.296C128.203 166.805 127.082 166.611 125.975 166.736C125.809 166.794 125.66 166.89 125.538 167.015C125.415 167.141 125.324 167.294 125.271 167.461C125.08 168.015 125.122 167.951 125.122 176.54L124.057 177.606H117.662L116.597 176.54V168.377C116.625 167.968 116.496 167.564 116.234 167.247C115.663 166.847 114.997 166.602 114.303 166.535C113.608 166.467 112.908 166.581 112.27 166.864L110.906 166.246C109.158 161.621 109.222 161.77 109.222 161.727C109.169 161.614 109.141 161.49 109.141 161.365C109.141 161.24 109.169 161.116 109.222 161.003C109.222 161.003 109.222 161.003 110.906 156.484L112.27 155.845C112.883 156.109 113.55 156.225 114.216 156.184C114.883 156.144 115.53 155.947 116.107 155.61C116.276 155.45 116.408 155.254 116.493 155.037C116.578 154.819 116.613 154.586 116.597 154.353V144.485C115.261 143.832 114.049 142.953 113.016 141.884C112.739 150.793 103.702 158.935 96.1785 163.816C98.1393 163.986 99.887 164.647 100.441 166.565C100.995 168.484 100.164 169.954 101.038 170.572C101.179 170.671 101.294 170.801 101.373 170.953C101.452 171.106 101.494 171.275 101.494 171.446C101.494 171.618 101.452 171.787 101.373 171.939C101.294 172.091 101.179 172.222 101.038 172.32C101.617 172.44 102.172 172.656 102.679 172.96C102.786 173.049 102.873 173.16 102.936 173.284C102.999 173.408 103.037 173.544 103.047 173.683C103.057 173.822 103.039 173.962 102.994 174.094C102.949 174.226 102.878 174.347 102.786 174.451C102.509 174.771 102.125 174.792 101.741 175.645C101.527 176.18 101.419 176.752 101.422 177.329L103.318 177.883L103.894 179.524C102.439 181.301 101.267 183.293 100.42 185.428C99.7591 187.389 101.208 188.305 101.208 190.735C101.094 192.534 100.457 194.26 99.3755 195.701C99.7733 196.142 100.037 196.687 100.135 197.272C100.233 197.857 100.162 198.459 99.9295 199.005L101.102 199.9L101.933 209.725L101.486 210.706C90.0188 218.528 69.366 210.876 66.5952 197.918L66.851 196.98L71.9662 191.46C71.1439 190.336 70.4705 189.111 69.9627 187.815C68.8496 184.444 68.7195 180.826 69.5876 177.383C70.4558 173.941 72.2863 170.817 74.8649 168.377C71.3518 167.292 67.9815 165.789 64.8262 163.901C58.7533 160.372 53.7233 155.298 50.2476 149.195C48.9635 149.019 47.7876 148.38 46.9402 147.4C46.0927 146.419 45.6319 145.163 45.644 143.866V117.225C44.1534 117.025 42.7958 116.262 41.8501 115.093C41.5417 114.576 41.3616 113.993 41.3245 113.393C41.2875 112.792 41.3946 112.191 41.637 111.64C41.1139 111.075 40.7812 110.359 40.6857 109.595C40.5901 108.83 40.7365 108.055 41.1042 107.378C40.7876 106.793 40.6363 106.132 40.6663 105.468C40.6963 104.803 40.9067 104.159 41.2747 103.605C40.4009 101.666 41.6797 99.0441 45.5374 98.6391V84.2311C45.5374 83.0802 45.0898 82.4408 43.9176 82.4408C41.5731 82.4408 37.7793 85.1689 39.1007 87.0445C39.4244 87.4609 39.8403 87.7965 40.3156 88.025V89.8579L35.2216 93.2681H33.9855C32.6939 92.1374 31.5927 90.806 30.7245 89.3251C28.5419 85.6836 27.3892 81.5178 27.3892 77.2723C27.3892 73.0268 28.5419 68.861 30.7245 65.2194C31.6346 63.731 32.7955 62.4114 34.1559 61.3191H35.3922L40.4861 64.7292V66.5622C40.0108 66.7907 39.5949 67.1263 39.2712 67.5426C37.5448 70.015 44.621 73.9367 45.5588 71.2725C45.7719 70.7397 45.708 70.7823 45.708 62.2142L46.7737 61.1486H53.1677L54.2334 62.2142V70.3347C54.2091 70.7432 54.3383 71.1461 54.5957 71.4643C55.1726 71.8628 55.8426 72.1056 56.5409 72.1691C57.2392 72.2326 57.942 72.1146 58.5813 71.8267L59.9454 72.4447C61.6718 77.0911 61.6291 76.9419 61.6291 76.9845C61.7138 77.2187 61.7138 77.4751 61.6291 77.7092C61.6291 77.7092 61.6292 77.5813 59.9454 82.2277L58.5813 82.8458C57.9636 82.5813 57.2922 82.4667 56.6218 82.5111C55.9514 82.5556 55.3009 82.7579 54.7236 83.1015C54.5531 83.2566 54.4203 83.4486 54.3354 83.6629C54.2504 83.8771 54.2156 84.1079 54.2334 84.3377V94.3125C55.5674 94.9581 56.779 95.8308 57.8141 96.8914C58.0911 88.0036 67.128 79.8405 74.673 74.9597C72.6909 74.8105 70.9432 74.1498 70.4103 72.2103C69.8775 70.2708 70.6661 68.8214 69.7923 68.2033C69.6516 68.1076 69.5365 67.9788 69.4569 67.8284C69.3773 67.6779 69.3358 67.5103 69.3358 67.3401C69.3358 67.17 69.3773 67.0024 69.4569 66.8519C69.5365 66.7015 69.6516 66.5727 69.7923 66.477C69.2731 66.3443 68.7667 66.166 68.279 65.9441C68.1249 65.8459 67.9981 65.7104 67.9103 65.5502C67.8225 65.39 67.7764 65.2103 67.7764 65.0276C67.7764 64.8449 67.8225 64.6652 67.9103 64.505C67.9981 64.3448 68.1249 64.2094 68.279 64.1111C68.6571 63.784 68.9527 63.3722 69.1416 62.9092C69.3305 62.4463 69.4073 61.9452 69.366 61.4469L67.469 60.8928L66.8935 59.273C68.3748 57.4789 69.5684 55.4656 70.4316 53.3052C70.6223 52.7163 70.6223 52.0824 70.4316 51.4935C69.7327 50.1337 69.4546 48.5966 69.633 47.0781C69.8115 45.5597 70.4382 44.1288 71.4333 42.9681C71.0291 42.5359 70.7595 41.9954 70.6574 41.4126C70.5552 40.8297 70.6249 40.2297 70.8579 39.6858L69.7069 38.7693L68.8545 28.9438L69.3233 27.9847C80.8326 20.12 101.443 27.9847 104.192 40.6449L103.937 41.604L98.9279 47.0816C100.755 49.6938 101.803 52.771 101.95 55.9555C102.097 59.1399 101.338 62.3007 99.7591 65.0703C98.795 66.9678 97.5279 68.6956 96.0079 70.1855C102.731 72.3497 108.885 75.9909 114.018 80.8423C116.646 83.3751 118.874 86.2929 120.625 89.4956C121.9 89.6661 123.07 90.2939 123.917 91.2623C124.763 92.2306 125.23 93.4736 125.229 94.76V121.594C126.715 121.805 128.069 122.566 129.023 123.725C129.336 124.24 129.519 124.824 129.556 125.425C129.594 126.027 129.483 126.628 129.236 127.178C129.759 127.744 130.091 128.459 130.187 129.224C130.283 129.988 130.136 130.764 129.769 131.441C130.09 132.02 130.245 132.678 130.214 133.34C130.184 134.003 129.971 134.644 129.598 135.192C130.472 137.131 129.193 139.753 125.335 140.179V154.502C125.324 154.926 125.427 155.346 125.634 155.717C126.593 157.166 130.365 155.717 131.644 153.585C132.347 152.52 132.284 151.454 130.557 150.602V148.79L135.672 145.358H136.887C138.247 146.451 139.408 147.771 140.319 149.259C142.498 152.937 143.63 157.141 143.593 161.416C143.555 165.691 142.349 169.874 140.106 173.514ZM54.1694 76.2172H59.0289L58.219 74.0859C56.868 74.4156 55.4462 74.2959 54.1694 73.7449V76.2172ZM54.1694 80.821C55.4486 80.2771 56.8703 80.1648 58.219 80.5013L59.0289 78.3699H54.1694V80.821ZM116.682 162.516H111.823L112.632 164.647C113.983 164.317 115.405 164.437 116.682 164.988V162.516ZM116.682 157.891C115.405 158.442 113.983 158.562 112.632 158.232L111.823 160.363H116.682V157.891ZM118.813 121.295C122.373 121.295 122.437 121.295 123.076 121.295V94.8453C123.081 94.1462 122.853 93.4655 122.428 92.91C122.004 92.3544 121.407 91.9556 120.732 91.7761C120.58 95.776 119.936 99.7419 118.813 103.584V121.295ZM77.1028 136.513C78.3512 138.36 79.8342 140.036 81.5147 141.501C101.976 132.08 118.494 112.578 118.622 90.3481C117.424 88.1886 115.995 86.1661 114.359 84.3164C114.039 106.973 97.5425 126.688 77.1028 136.513ZM109.926 121.295H116.682V109.552C114.891 113.714 112.624 117.655 109.926 121.295ZM100.462 115.392C102.37 113.008 104.088 110.478 105.599 107.825C103.933 101.733 100.651 96.2053 96.0995 91.8266C91.5482 87.4479 85.8974 84.3816 79.7457 82.9523C77.414 85.0314 74.9195 86.9201 72.2859 88.6004C77.4868 88.5475 82.5877 90.0303 86.9497 92.8631C90.8287 95.276 94.0774 98.5777 96.4272 102.495C98.777 106.413 100.16 110.833 100.462 115.392ZM73.0745 90.7105C71.0545 90.5769 69.0345 90.9725 67.2142 91.8584C65.3939 92.7443 63.8361 94.0897 62.6948 95.7618C59.4978 101.005 61.3947 108.06 64.1441 113.559C70.6572 106.077 78.6369 100.013 87.589 95.7405C83.4 92.5796 78.3212 90.8195 73.0745 90.7105ZM95.2832 104.756L78.2324 133.551C85.8568 129.573 92.69 124.235 98.395 117.8C98.411 113.266 97.3441 108.794 95.2832 104.756ZM92.5765 105.182C84.9493 109.147 78.1151 114.479 72.4138 120.912C72.3847 125.442 73.4368 129.914 75.483 133.956L92.5765 105.182ZM70.389 123.342C68.4858 125.729 66.7686 128.258 65.2525 130.908C66.9126 136.986 70.1829 142.504 74.7183 146.878C79.2537 151.252 84.886 154.32 91.0205 155.759C93.351 153.676 95.8537 151.794 98.5016 150.133C93.2942 150.185 88.1867 148.702 83.8165 145.87C79.9522 143.449 76.7192 140.143 74.3845 136.226C72.0498 132.309 70.6802 127.892 70.389 123.342ZM108.263 142.95C111.46 137.728 109.585 130.652 106.814 125.174C100.306 132.661 92.3249 138.727 83.369 142.993C87.5358 146.132 92.5827 147.884 97.7982 148.001C99.8335 148.161 101.875 147.778 103.714 146.89C105.552 146.003 107.122 144.643 108.263 142.95ZM95.262 72.189C93.9743 73.0668 92.4232 73.474 90.8704 73.342C89.3175 73.21 87.8577 72.5469 86.7366 71.4643C86.1019 75.1649 84.3199 78.5723 81.6426 81.2046C87.5108 82.8163 92.8938 85.8433 97.3196 90.0201C101.745 94.1969 105.079 99.3959 107.027 105.161C110.655 98.0436 112.436 90.1281 112.206 82.1424C107.361 77.6161 101.575 74.2171 95.262 72.189ZM91.6173 55.7136C90.9145 59.1567 90.7778 62.6914 91.2124 66.1786C91.3695 66.815 91.6601 67.4107 92.065 67.9263C95.262 59.1238 97.2867 46.8898 89.081 42.35C88.3119 41.9656 87.5221 41.624 86.7152 41.3269C88.6894 43.1094 90.1759 45.3663 91.0338 47.884C91.8916 50.4016 92.0925 53.0966 91.6173 55.7136ZM77.3586 39.3661C76.6488 39.3207 75.9369 39.3207 75.2272 39.3661C74.3747 39.3661 73.2024 39.7071 72.8188 40.4744C72.7263 40.676 72.7034 40.9025 72.7536 41.1185C72.8037 41.3345 72.9241 41.5277 73.0958 41.668C74.4173 42.9042 76.6126 41.2843 83.7526 46.2717C90.4451 51.0033 81.6212 63.7062 87.6956 69.5035C88.2971 70.1874 89.0717 70.6967 89.938 70.978C90.8043 71.2593 91.7304 71.3021 92.619 71.102C91.7136 70.641 90.9258 69.9787 90.3162 69.1659C89.7066 68.353 89.2914 67.4113 89.1023 66.413C88.6635 62.7475 88.8074 59.0357 89.5286 55.4152C89.8535 53.5625 89.7999 51.6633 89.3714 49.8318C88.9428 48.0004 88.148 46.2746 87.0349 44.7584C85.8666 43.256 84.4078 42.0042 82.7454 41.0778C81.0829 40.1514 79.2509 39.5692 77.3586 39.3661ZM97.9474 44.9716L102.04 40.4957C101.158 37.4985 99.3895 34.8385 96.9671 32.8655C95.5604 36.4675 96.6473 41.3909 97.9474 44.9716ZM95.603 46.5701C98.459 53.2412 96.3915 62.5126 93.8339 69.2477C95.6549 67.6414 97.1249 65.6766 98.1518 63.4761C99.1786 61.2757 99.7402 58.887 99.8017 56.4596C99.8389 52.8919 98.4682 49.4533 95.9866 46.8898L95.603 46.5701ZM95.262 43.5862C94.2597 40.5528 93.9679 37.3296 94.4094 34.1656L87.4612 39.3022C89.5925 40.0695 90.0188 40.4531 90.0401 40.4105C91.8757 41.3044 93.6239 42.3676 95.262 43.5862ZM81.6213 26.9616L85.7134 37.9381L94.6652 31.2669C90.7722 28.7082 86.2725 27.223 81.6213 26.9616ZM74.4599 37.2347C75.4394 37.1716 76.4218 37.1716 77.4012 37.2347C79.4535 37.3599 81.4921 37.6522 83.4969 38.1086L80.3637 29.7111C78.9911 32.6338 76.9724 35.2064 74.4599 37.2347ZM71.7317 36.7019C74.7583 34.3787 78.3176 30.7554 78.9357 26.9829C76.1653 27.1413 73.4743 27.9676 71.0924 29.3914L71.7317 36.7019ZM75.7814 72.8071C79.0749 72.5893 82.1718 71.1623 84.4772 68.8001C80.726 61.8519 87.0775 51.2804 82.4951 47.9981C79.859 45.89 76.6976 44.5414 73.3516 44.0977C73.1385 44.3961 72.968 44.6945 72.8188 44.9503C72.5798 45.5607 72.5279 46.2284 72.6695 46.8685C73.2663 48.1047 78.5522 46.5275 81.0032 49.5753C81.1775 49.7961 81.2572 50.0769 81.2253 50.3564C81.1933 50.6359 81.0523 50.8914 80.8327 51.0672C80.7258 51.1574 80.6019 51.2253 80.4683 51.2667C80.3347 51.3081 80.1943 51.3223 80.0551 51.3084C79.916 51.2944 79.7811 51.2527 79.6584 51.1857C79.5357 51.1186 79.4276 51.0276 79.3407 50.918C77.8061 49.0211 74.1615 50.1081 72.0302 49.0638C72.7896 50.5588 72.9717 52.2812 72.5417 53.902C71.8445 55.8181 70.8442 57.6099 69.5791 59.209L72.2433 59.9976C73.3 60.3229 74.2498 60.9266 74.9928 61.7453C75.7397 62.6938 76.3894 63.7149 76.9323 64.7932L77.2093 64.5374C77.4086 64.3422 77.6763 64.2328 77.9553 64.2328C78.2342 64.2328 78.5021 64.3422 78.7013 64.5374C78.8012 64.6365 78.8805 64.7543 78.9346 64.8842C78.9887 65.0141 79.0165 65.1534 79.0165 65.294C79.0165 65.4347 78.9887 65.574 78.9346 65.7039C78.8805 65.8337 78.8012 65.9516 78.7013 66.0507C78.456 66.3141 78.1764 66.5435 77.8701 66.7327C77.5833 66.9147 77.2506 67.0113 76.9109 67.0113C76.5713 67.0113 76.2386 66.9147 75.9518 66.7327C74.4385 65.8375 74.4172 62.8323 71.5612 61.9798C71.5034 62.8364 71.2481 63.668 70.8153 64.4095C71.3742 64.4818 71.9401 64.4818 72.499 64.4095C72.7816 64.3897 73.0606 64.4831 73.2745 64.6689C73.4883 64.8548 73.6196 65.118 73.6394 65.4006C73.6591 65.6832 73.5658 65.9622 73.38 66.176C73.1941 66.3899 72.9308 66.5211 72.6482 66.5409C70.9431 66.6688 71.2629 66.2212 71.8171 67.0098C73.0959 68.8428 71.817 71.2725 72.9253 72.125C73.8037 72.5919 74.7868 72.8267 75.7814 72.8071ZM59.9027 96.3799C61.0321 93.6233 63.1431 91.3832 65.8278 90.0924C70.0923 87.7358 74.1243 84.9811 77.8701 81.8653C81.197 79.2937 83.5436 75.661 84.5199 71.5709C83.4316 72.4115 82.252 73.1264 81.0032 73.7022C76.9708 75.6326 73.2089 78.0832 69.8136 80.9915C65.3164 84.8706 60.3503 90.476 59.9027 96.3799ZM47.7753 101.133H52.038V63.2373H47.7753V101.133ZM45.644 80.6292V78.3486H37.8219V80.48C37.8165 80.7609 37.7024 81.0288 37.5037 81.2275C37.3051 81.4262 37.0372 81.5402 36.7563 81.5456C36.4736 81.5456 36.2025 81.4334 36.0027 81.2335C35.8028 81.0336 35.6906 80.7626 35.6906 80.48V78.3486H32.4935C32.2109 78.3486 31.9398 78.2363 31.7399 78.0365C31.5401 77.8366 31.4279 77.5656 31.4279 77.2829C31.4279 77.0003 31.5401 76.7292 31.7399 76.5294C31.9398 76.3295 32.2109 76.2172 32.4935 76.2172H35.6906V74.0859C35.6906 73.8032 35.8028 73.5322 36.0027 73.3323C36.2025 73.1325 36.4736 73.0202 36.7563 73.0202C37.0389 73.0202 37.3099 73.1325 37.5097 73.3323C37.7096 73.5322 37.8219 73.8032 37.8219 74.0859V76.2172H45.644V73.9154C41.3813 75.6418 33.7084 69.6527 38.0563 65.6244L34.902 63.4931C27.7406 70.1855 27.8046 84.3803 34.902 91.0302L38.0563 88.8988C37.6637 88.5639 37.3467 88.1494 37.1262 87.6828C36.9058 87.2161 36.7869 86.708 36.7776 86.192C36.7989 82.6326 42.4256 79.3077 45.644 80.6292ZM48.841 115.285H62.5243C60.1491 111.127 58.8727 106.432 58.8157 101.644C57.6676 99.6492 56.0783 97.9433 54.1694 96.6569V102.305L53.1037 103.371H46.7096L45.644 102.305V100.834C45.1921 100.855 44.7492 100.968 44.3424 101.166C43.9357 101.364 43.5735 101.643 43.2782 101.985C42.9159 102.582 43.2782 103.136 43.9176 103.52C44.1924 103.667 44.4865 103.775 44.7914 103.84C46.1432 104.13 47.5225 104.272 48.905 104.266C49.1876 104.266 49.4586 104.378 49.6585 104.578C49.8583 104.778 49.9707 105.049 49.9707 105.332C49.9707 105.614 49.8583 105.885 49.6585 106.085C49.4586 106.285 49.1876 106.397 48.905 106.397C46.8272 106.483 44.7553 106.119 42.8306 105.332C42.7807 105.575 42.7875 105.826 42.8503 106.066C42.9132 106.307 43.0303 106.529 43.1929 106.717C43.8614 107.418 44.7637 107.85 45.7292 107.932C46.4336 108.048 47.1466 108.105 47.8605 108.102C48.1432 108.102 48.4143 108.215 48.6141 108.414C48.814 108.614 48.9262 108.885 48.9262 109.168C48.9262 109.451 48.814 109.722 48.6141 109.922C48.4143 110.121 48.1432 110.234 47.8605 110.234C46.1191 110.3 44.3891 109.926 42.8306 109.147C42.8192 109.344 42.8473 109.542 42.9132 109.729C42.979 109.915 43.0813 110.087 43.2142 110.234C44.1964 111.15 45.4566 111.713 46.7949 111.832C47.0775 111.832 47.3486 111.944 47.5485 112.144C47.7483 112.344 47.8605 112.615 47.8605 112.898C47.8605 113.181 47.7483 113.452 47.5485 113.651C47.3486 113.851 47.0775 113.964 46.7949 113.964C45.645 113.852 44.5291 113.511 43.5126 112.962C43.4693 113.158 43.4693 113.362 43.5126 113.559C43.5434 113.708 43.6046 113.85 43.6927 113.974C43.7807 114.099 43.8936 114.204 44.0241 114.283C45.5099 115.046 47.1744 115.392 48.841 115.285ZM54.1694 117.416V129.181C55.9554 125.01 58.2229 121.061 60.9258 117.416H54.1694ZM52.038 117.416C48.5639 117.416 48.4574 117.416 47.7753 117.416V143.866C47.7506 144.588 47.9709 145.297 48.4005 145.878C48.8301 146.458 49.4436 146.876 50.1411 147.064C50.2746 143.064 50.912 139.096 52.038 135.256V117.416ZM93.7487 102.305C92.5068 100.466 91.0309 98.7969 89.3581 97.339C68.8971 106.738 52.3791 126.261 52.2299 148.492C53.4228 150.647 54.8526 152.663 56.4926 154.502C56.8123 131.718 73.3516 112.003 93.7487 102.305ZM75.6108 166.651C76.8958 165.765 78.4484 165.353 80.0034 165.485C81.5584 165.617 83.0192 166.286 84.1363 167.375C84.779 163.671 86.5595 160.259 89.2302 157.614C83.354 156.014 77.9622 152.991 73.5312 148.813C69.1003 144.635 65.7666 139.43 63.8245 133.657C60.1838 140.77 58.402 148.689 58.6452 156.676C63.5057 161.173 69.2986 164.543 75.6108 166.544V166.651ZM79.2555 183.126C79.9871 179.68 80.1527 176.139 79.7457 172.64C79.587 172.014 79.3043 171.427 78.9144 170.913C75.6961 179.695 73.6713 191.929 81.877 196.49C82.6656 196.852 83.4542 197.193 84.2641 197.513C82.2538 195.731 80.7367 193.462 79.8594 190.923C78.982 188.384 78.774 185.662 79.2555 183.02V183.126ZM93.4929 199.474C94.7078 199.474 95.1128 199.474 95.6243 199.474C96.4768 199.474 97.7557 199.133 98.0327 198.365C98.129 198.164 98.154 197.937 98.1036 197.72C98.0533 197.503 97.9305 197.31 97.7557 197.172C96.4555 195.936 94.2389 197.534 87.2267 192.547C80.2146 187.559 89.3581 175.133 83.2625 169.315C82.6637 168.627 81.8893 168.115 81.0221 167.834C80.1549 167.552 79.2275 167.512 78.339 167.716C79.2345 168.177 80.0163 168.831 80.6282 169.631C81.24 170.431 81.6666 171.357 81.877 172.341C82.3052 176 82.1613 179.703 81.4507 183.318C81.1221 185.17 81.1737 187.071 81.6024 188.903C82.0311 190.735 82.8279 192.46 83.9444 193.975C85.0947 195.466 86.5324 196.712 88.1725 197.638C89.8125 198.564 91.6217 199.152 93.4929 199.367V199.474ZM72.904 193.868L68.8118 198.216C69.6932 201.219 71.4705 203.881 73.9058 205.846C75.2912 202.266 74.2254 197.321 72.904 193.762V193.868ZM75.2485 192.27C72.4138 185.598 74.4812 176.306 77.0175 169.571C75.2024 171.182 73.7365 173.148 72.7101 175.347C71.6838 177.546 71.1187 179.933 71.0497 182.359C71.0582 185.886 72.4245 189.275 74.8649 191.822L75.2485 192.27ZM75.6108 195.253C76.6068 198.288 76.8912 201.512 76.4421 204.674L83.4115 199.516C81.2802 198.749 80.8327 198.365 80.8113 198.408C78.9795 197.486 77.2383 196.394 75.6108 195.147V195.253ZM89.2516 211.878L85.1593 200.88L76.1223 207.573C80.0524 210.104 84.5817 211.553 89.2516 211.771V211.878ZM96.3915 201.605C95.4122 201.67 94.4296 201.67 93.4503 201.605C91.4056 201.487 89.3741 201.202 87.376 200.752L90.509 209.15C91.8537 206.18 93.867 203.561 96.3915 201.498V201.605ZM99.141 202.116C96.0931 204.461 92.5339 208.084 91.9158 211.857C94.6873 211.704 97.3797 210.878 99.7591 209.448L99.141 202.116ZM95.0915 166.011C91.787 166.228 88.6804 167.663 86.3742 170.04C90.1467 176.988 83.7526 187.538 88.3776 190.842C91.0284 192.962 94.216 194.305 97.5851 194.721L98.1179 193.868C98.3356 193.253 98.387 192.591 98.2672 191.95C97.6491 190.714 92.3634 192.312 89.9336 189.243C89.8446 189.135 89.7782 189.01 89.7385 188.875C89.6988 188.741 89.6865 188.6 89.7024 188.461C89.7184 188.322 89.7621 188.187 89.8311 188.065C89.9001 187.943 89.9929 187.836 90.104 187.751C90.3249 187.577 90.6057 187.497 90.8852 187.529C91.1647 187.561 91.4202 187.702 91.596 187.922C93.1093 189.819 96.7539 188.71 98.9065 189.776C98.1397 188.275 97.9575 186.544 98.395 184.916C99.0809 182.999 100.074 181.207 101.336 179.609L98.6721 178.842C97.6154 178.517 96.6657 177.913 95.9227 177.094C95.1733 176.152 94.53 175.13 94.0044 174.047C93.9011 174.111 93.8077 174.19 93.7274 174.281C93.6283 174.381 93.5104 174.46 93.3805 174.514C93.2507 174.568 93.1115 174.596 92.9708 174.596C92.8301 174.596 92.6907 174.568 92.5609 174.514C92.431 174.46 92.3131 174.381 92.214 174.281C92.0188 174.082 91.9095 173.814 91.9095 173.535C91.9095 173.256 92.0188 172.988 92.214 172.789C92.461 172.519 92.7487 172.289 93.0666 172.107C93.3552 171.93 93.6872 171.836 94.0258 171.836C94.3644 171.836 94.6964 171.93 94.9849 172.107C96.4982 173.023 96.4981 176.029 99.3542 176.881C99.4293 176.028 99.6835 175.2 100.1 174.451C99.5485 174.377 98.9893 174.377 98.4377 174.451C98.2978 174.461 98.1572 174.443 98.0241 174.399C97.8911 174.354 97.7681 174.284 97.6622 174.192C97.5564 174.1 97.4696 173.988 97.407 173.863C97.3444 173.737 97.3071 173.6 97.2973 173.46C97.2876 173.32 97.3054 173.18 97.3499 173.047C97.3944 172.914 97.4647 172.791 97.5567 172.685C97.6488 172.579 97.7608 172.492 97.8864 172.43C98.0119 172.367 98.1485 172.33 98.2885 172.32C99.9723 172.32 99.6739 172.661 99.1198 171.851C97.8196 170.018 99.1197 167.588 97.9901 166.736C97.1141 166.208 96.1141 165.921 95.0915 165.905V166.011ZM110.949 142.566C109.832 145.319 107.726 147.554 105.045 148.833C100.768 151.177 96.7344 153.94 93.0026 157.081C89.6705 159.643 87.3163 163.268 86.3316 167.354C87.4268 166.524 88.6053 165.809 89.8483 165.223C93.8978 163.224 97.6671 160.701 101.059 157.72C105.556 153.863 110.501 148.236 110.949 142.353V142.566ZM123.076 137.792H118.813V175.496H123.076V137.792ZM125.208 136.726V138.218C125.66 138.156 126.103 138.042 126.529 137.877C127.85 137.302 128.191 136.343 126.934 135.533C125.328 134.99 123.641 134.731 121.946 134.766C121.664 134.766 121.393 134.653 121.193 134.453C120.993 134.254 120.881 133.983 120.881 133.7C120.886 133.419 121 133.151 121.199 132.952C121.398 132.754 121.666 132.64 121.946 132.634C124.023 132.563 126.092 132.926 128.021 133.7C128.081 133.293 128.008 132.878 127.812 132.517C127.616 132.155 127.308 131.868 126.934 131.696C125.702 131.148 124.36 130.892 123.012 130.95C122.73 130.95 122.459 130.838 122.259 130.638C122.059 130.438 121.946 130.167 121.946 129.885C121.946 129.602 122.059 129.331 122.259 129.131C122.459 128.931 122.73 128.819 123.012 128.819C124.761 128.744 126.5 129.118 128.063 129.906C128.046 129.547 127.931 129.199 127.733 128.899C127.534 128.599 127.258 128.358 126.934 128.201C126.071 127.657 125.093 127.322 124.078 127.221C123.795 127.221 123.524 127.108 123.324 126.908C123.125 126.709 123.012 126.438 123.012 126.155C123.012 125.872 123.125 125.601 123.324 125.401C123.524 125.202 123.795 125.089 124.078 125.089C125.247 125.161 126.388 125.48 127.424 126.027C127.444 125.687 127.371 125.348 127.211 125.047C126.862 124.655 126.412 124.368 125.911 124.215C124.656 123.789 123.335 123.594 122.01 123.64H108.327C110.709 127.796 111.993 132.491 112.057 137.281C113.197 139.275 114.779 140.981 116.682 142.268V136.726L117.748 135.661H124.142L125.208 136.726ZM135.864 147.895L132.71 150.026C136.973 154.097 129.3 160.043 125.101 158.338V160.619H133.03V158.488C133.03 158.205 133.142 157.934 133.342 157.734C133.541 157.534 133.813 157.422 134.095 157.422C134.378 157.422 134.649 157.534 134.849 157.734C135.049 157.934 135.161 158.205 135.161 158.488V160.619H138.358C138.641 160.619 138.912 160.731 139.112 160.931C139.311 161.131 139.424 161.402 139.424 161.685C139.418 161.966 139.304 162.233 139.105 162.432C138.907 162.631 138.639 162.745 138.358 162.75H135.161V164.882C135.155 165.163 135.041 165.43 134.843 165.629C134.644 165.828 134.376 165.942 134.095 165.947C133.813 165.947 133.541 165.835 133.342 165.635C133.142 165.435 133.03 165.164 133.03 164.882V162.75H125.186V165.031C129.449 163.304 137.1 169.294 132.795 173.343L135.95 175.475C143.09 168.548 143.09 154.331 135.971 147.682L135.864 147.895ZM117.279 92.0958L115.147 91.6696L114.721 93.8009L116.853 94.2059L117.279 92.0958ZM86.1397 134.041L87.312 135.831L89.1023 134.68L87.9513 132.89L86.1397 134.041ZM91.4255 130.418L92.7469 132.101L94.4307 130.78L93.1093 129.096L91.4255 130.418ZM97.8195 127.881L99.3755 126.411L97.9049 124.855L96.3489 126.325L97.8195 127.881ZM111.332 110.681L109.478 109.658L108.434 111.512L110.288 112.557L111.332 110.681ZM114.103 104.671L112.121 103.861C111.631 105.097 111.801 104.628 111.311 105.843L113.293 106.632L114.103 104.671ZM103.894 121.594L102.295 120.187L100.867 121.786L102.487 123.192L103.894 121.594ZM107.901 116.351L106.175 115.114L104.938 116.841L106.665 118.077L107.901 116.351ZM116.085 98.3407L113.954 97.7866C113.613 99.0867 113.741 98.5965 113.4 99.9179L115.531 100.472L116.085 98.3407ZM80.6408 137.217L81.6639 139.092L83.5395 138.048L82.4951 136.194L80.6408 137.217ZM94.6652 187.261C94.9478 187.261 95.2189 187.149 95.4188 186.949C95.6186 186.749 95.7308 186.478 95.7308 186.195C95.7308 185.385 95.7308 185.385 95.7308 184.597C95.7253 184.312 95.6082 184.041 95.405 183.842C95.2017 183.643 94.9285 183.531 94.6438 183.531C94.5039 183.534 94.3658 183.564 94.2376 183.62C94.1093 183.676 93.9935 183.757 93.8965 183.858C93.7995 183.959 93.7233 184.078 93.6723 184.209C93.6214 184.339 93.5966 184.478 93.5995 184.618C93.5995 185.407 93.5995 185.407 93.5995 186.217C93.5994 186.355 93.6271 186.493 93.6809 186.621C93.7347 186.749 93.8136 186.865 93.9129 186.963C94.0121 187.06 94.1297 187.136 94.2589 187.188C94.3881 187.239 94.5262 187.264 94.6652 187.261ZM53.5726 147.064L55.7039 147.277L55.8958 145.145L53.7644 144.953L53.5726 147.064ZM59.4338 128.137L61.2882 129.181L62.3325 127.306L60.5635 126.176L59.4338 128.137ZM62.8654 122.489L64.6131 123.725L65.8492 121.977L64.1015 120.741L62.8654 122.489ZM54.6809 140.499L56.8123 141.053C57.132 139.838 57.0254 140.222 57.3664 138.922L55.2351 138.368L54.6809 140.499ZM56.6844 134.105L58.6452 134.915L59.4551 132.933L57.4943 132.123L56.6844 134.105ZM84.6264 104.735L83.4755 102.923L81.6639 104.095L82.8362 105.886L84.6264 104.735ZM79.3407 108.358L78.0406 106.568L76.3568 107.889L77.657 109.573L79.3407 108.358ZM66.9575 117.225L68.556 118.631L69.9627 117.011L68.3642 115.605L66.9575 117.225ZM73.0318 110.83L71.476 112.301L72.9253 113.857L74.4813 112.386L73.0318 110.83ZM90.2959 101.474L89.2516 99.6195L87.3973 100.643L88.4203 102.518L90.2959 101.474Z" fill="#1F1F1F"/>
</svg>
