<svg width="171" height="239" viewBox="0 0 171 239" fill="none" xmlns="http://www.w3.org/2000/svg">
<path d="M160.034 0.288086H10.8389C4.95333 0.288086 0.182129 5.05929 0.182129 10.9449V228.343C0.182129 234.229 4.95333 239 10.8389 239H160.034C165.919 239 170.691 234.229 170.691 228.343V10.9449C170.691 5.05929 165.919 0.288086 160.034 0.288086Z" fill="#F9F1DF"/>
<path d="M25.7581 57.3016C23.833 54.3106 21.2893 51.7669 18.2983 49.8418C21.2893 47.9167 23.833 45.373 25.7581 42.3821C27.6774 45.3777 30.2222 47.9225 33.2178 49.8418C30.2222 51.7612 27.6774 54.306 25.7581 57.3016Z" fill="#C93112"/>
<path d="M145.114 178.789C147.033 181.785 149.578 184.329 152.574 186.249C149.578 188.168 147.033 190.713 145.114 193.709C143.189 190.718 140.645 188.174 137.654 186.249C140.645 184.324 143.189 181.78 145.114 178.789Z" fill="#C93112"/>
<path d="M28.1451 17.339C27.9632 17.3653 27.7969 17.4561 27.6763 17.5947C27.5647 17.7325 27.5112 17.9084 27.5271 18.085V29.8714C27.5422 31.1054 27.4567 32.3385 27.2713 33.5586C27.1554 34.4943 26.8431 35.3949 26.3549 36.2015C25.8383 36.9805 25.1628 37.6415 24.3727 38.141C23.3033 38.7734 22.1756 39.3016 21.0051 39.7182L20.3018 38.2689C20.9924 37.8318 21.6417 37.3323 22.2414 36.7769C22.7231 36.3303 23.1139 35.7948 23.3922 35.1998C23.6874 34.5586 23.8815 33.8755 23.9678 33.1749C24.0683 32.2548 24.1181 31.3298 24.117 30.4042V18.085C24.1239 17.8994 24.0633 17.7177 23.9464 17.5734C23.8925 17.505 23.8248 17.4488 23.7476 17.4084C23.6705 17.368 23.5857 17.3443 23.4988 17.339L21.538 16.934V15.4634H29.8715V16.934L28.1451 17.339Z" fill="#C93112"/>
<path d="M142.706 218.666C142.888 218.64 143.054 218.549 143.175 218.411C143.287 218.273 143.34 218.097 143.324 217.92V206.134C143.314 204.901 143.392 203.669 143.559 202.447C143.692 201.512 144.011 200.613 144.496 199.804C145.013 199.025 145.688 198.364 146.479 197.864C147.546 197.228 148.674 196.699 149.846 196.287L150.549 197.736C149.859 198.174 149.21 198.673 148.61 199.228C148.122 199.674 147.724 200.21 147.438 200.806C147.16 201.451 146.973 202.133 146.884 202.83C146.772 203.75 146.722 204.675 146.734 205.601V217.92C146.732 218.102 146.784 218.28 146.884 218.432C146.942 218.501 147.013 218.557 147.094 218.598C147.174 218.638 147.262 218.661 147.352 218.666L149.313 219.05V220.542H140.98V219.05L142.706 218.666Z" fill="#C93112"/>
<path d="M130.174 55.7035C126.335 49.7123 121.245 44.6227 115.254 40.784C121.245 36.9453 126.335 31.8557 130.174 25.8645C134.018 31.851 139.107 36.9395 145.093 40.784C139.107 44.6285 134.018 49.717 130.174 55.7035Z" fill="#C93112"/>
<path d="M55.597 198.504C49.6059 202.343 44.5162 207.433 40.6775 213.424C36.8388 207.433 31.7492 202.343 25.7581 198.504C31.7492 194.666 36.8388 189.576 40.6775 183.585C44.5162 189.576 49.6059 194.666 55.597 198.504Z" fill="#C93112"/>
<path d="M153.619 170.796H151.488V19.4702H47.0511V17.3389H152.553L153.619 18.4045V170.796ZM17.2122 68.4914V220.883L18.2778 221.949H123.78V219.818H19.3435V68.4914H17.2122Z" fill="#1F1F1F"/>
<path d="M96.7962 198.249C80.875 198.973 77.2731 184.906 77.2731 168.921C77.3281 167.5 77.7495 166.118 78.4964 164.908C79.2433 163.698 80.2903 162.702 81.5358 162.016C82.3359 161.539 83.2638 161.321 84.1927 161.391C85.1215 161.462 86.0058 161.818 86.7245 162.411C87.4431 163.003 87.9612 163.804 88.2075 164.702C88.4537 165.6 88.4162 166.553 88.1003 167.429C87.755 168.182 87.1706 168.798 86.4381 169.184C85.7057 169.569 84.8663 169.702 84.0508 169.561C81.7489 169.134 83.4753 165.98 84.818 166.747C85.0724 166.872 85.3657 166.89 85.6335 166.798C85.9013 166.706 86.1216 166.511 86.246 166.257C86.3704 166.003 86.3887 165.709 86.2967 165.441C86.2048 165.174 86.0102 164.953 85.7558 164.829C85.1899 164.606 84.577 164.529 83.9736 164.606C83.3702 164.682 82.7958 164.909 82.3032 165.266C81.8106 165.622 81.4158 166.097 81.155 166.647C80.8942 167.196 80.7759 167.803 80.8111 168.41C80.8111 181.198 80.8111 195.691 97.2225 195.691C99.3326 195.606 98.7997 197.886 96.7962 198.249Z" fill="#CBBD9F"/>
<path d="M82.3887 195.35C74.1616 190.874 72.3287 178.512 72.3287 168.452C72.3299 167.731 72.4866 167.019 72.7882 166.365C73.0898 165.71 73.5293 165.128 74.0765 164.659C74.8376 164.087 75.7679 163.787 76.7193 163.806C75.7761 165.348 75.261 167.114 75.2273 168.921C75.2273 181.582 77.6144 190.32 82.3887 195.35Z" fill="#CBBD9F"/>
<path d="M75.6104 191.897C70.1115 187.89 68.0654 178.981 68.0654 171.649C68.0542 170.838 68.2428 170.036 68.6145 169.315C68.9862 168.594 69.5296 167.976 70.1968 167.514C70.1757 167.826 70.1757 168.14 70.1968 168.452C70.1968 178.81 72.0297 186.654 75.6104 191.897Z" fill="#CBBD9F"/>
<path d="M99.6532 208.906C96.1605 210.146 92.489 210.808 88.7832 210.866L89.721 199.997C90.6632 200.181 91.6179 200.295 92.5771 200.338C92.7902 200.338 92.8327 200.338 93.0032 200.338C93.7705 200.338 94.4952 200.338 95.1346 200.338C95.3051 200.338 95.4331 200.338 95.6036 200.338H96.925L99.6532 208.906Z" fill="#C93112"/>
<path d="M87.6324 199.613L86.6519 210.781C82.0983 210.46 77.6996 208.994 73.8638 206.519L79.4054 196.885C82.0504 198.065 84.8063 198.979 87.6324 199.613Z" fill="#C93112"/>
<path d="M77.4017 196.074L71.988 205.41C69.0517 203.237 66.4019 200.702 64.1019 197.865L71.2207 192.11C73.16 193.611 75.2284 194.938 77.4017 196.074Z" fill="#C93112"/>
<path d="M94.2387 149.1C78.8716 160.758 80.0225 159.97 79.4897 160.098C78.7013 160.544 77.9832 161.104 77.3584 161.76C75.973 161.412 74.5109 161.537 73.2052 162.117C71.8995 162.696 70.8255 163.696 70.1544 164.957C68.9928 165.204 67.9229 165.769 67.0646 166.59C66.2063 167.411 65.5935 168.454 65.2948 169.603C62.7281 168.374 60.3347 166.812 58.1761 164.957C65.167 154.684 80.5554 149.398 93.3862 149.057C93.671 149.053 93.9557 149.067 94.2387 149.1Z" fill="#CBBD9F"/>
<path d="M96.3281 119.26V146.968C95.4329 146.968 94.5377 146.968 93.6425 146.968C87.2983 146.179 81.4516 143.127 77.1762 138.374C72.9007 133.621 70.4833 127.485 70.368 121.093C80.6625 124.482 87.1632 115.381 96.3281 119.26Z" fill="#C93112"/>
<path d="M53.4447 73.8627C52.9545 73.1381 53.1038 71.9446 53.1038 66.7014H48.8411V104.405H49.9919C50.2746 104.405 50.5457 104.517 50.7455 104.717C50.9454 104.917 51.0576 105.188 51.0576 105.471C51.0471 105.75 50.9315 106.015 50.7338 106.213C50.5362 106.41 50.2712 106.526 49.9919 106.536C49.7788 106.536 49.3739 106.536 48.8411 106.536V108.199H49.9919C50.2746 108.199 50.5457 108.311 50.7455 108.511C50.9454 108.711 51.0576 108.982 51.0576 109.265C51.0576 109.547 50.9454 109.818 50.7455 110.018C50.5457 110.218 50.2746 110.33 49.9919 110.33H48.8411V111.907H49.9919C50.2746 111.907 50.5457 112.02 50.7455 112.22C50.9454 112.419 51.0576 112.691 51.0576 112.973C51.0576 113.256 50.9454 113.527 50.7455 113.727C50.5457 113.927 50.2746 114.039 49.9919 114.039C49.6087 114.063 49.2243 114.063 48.8411 114.039V115.488C49.2243 115.512 49.6087 115.512 49.9919 115.488C50.2729 115.494 50.5409 115.608 50.7396 115.806C50.9382 116.005 51.0522 116.273 51.0576 116.554C51.0471 116.833 50.9315 117.098 50.7338 117.296C50.5362 117.493 50.2712 117.609 49.9919 117.619C49.6086 117.642 49.2244 117.642 48.8411 117.619V156.154H53.1038V102.338C52.1111 101.134 51.0583 99.982 49.9494 98.8849C47.6049 95.8371 49.8002 93.2581 52.0808 93.5565C52.4426 93.6306 52.7988 93.7302 53.1464 93.8549C53.1464 83.0063 53.0185 81.4078 53.4874 80.9389L57.4517 77.4008L53.4447 73.8627Z" fill="#CBBD9F"/>
<path d="M118.835 119.645L110.48 127.957C109.217 123.732 106.46 120.11 102.722 117.769C102.745 110.412 99.989 103.318 95.0066 97.9049C105.322 95.4325 113.805 90.5304 118.793 84.179C118.857 84.6692 118.835 82.687 118.835 119.645Z" fill="#C93112"/>
<path d="M75.824 140.062C65.4656 142.535 57.0255 147.352 52.0381 153.746C52.0381 153.341 52.0381 155.429 52.0381 118.322L60.393 109.968C61.6309 114.206 64.3947 117.835 68.1511 120.155C68.1273 127.517 70.8651 134.621 75.824 140.062Z" fill="#2D6B67"/>
<path d="M100.505 117.002C96.0737 115.786 91.3574 116.147 87.163 118.025C83.2075 119.875 78.6959 120.149 74.5454 118.792V91.0844C80.9584 91.0169 87.1529 93.4123 91.852 97.7768C94.5147 100.233 96.6537 103.203 98.1407 106.506C99.6277 109.81 100.432 113.38 100.505 117.002Z" fill="#CBBD9F"/>
<path d="M102.808 66.3601C102.83 67.2051 102.634 68.0417 102.239 68.7887C101.843 69.5356 101.26 70.1674 100.548 70.6228C100.612 70.2991 100.655 69.9716 100.676 69.6424C100.676 59.3267 98.8006 51.4406 95.2626 46.1975C100.761 50.1618 102.808 59.0709 102.808 66.3601Z" fill="#CBBD9F"/>
<path d="M98.5446 69.557C98.5765 70.1576 98.4854 70.7584 98.2767 71.3225C98.068 71.8866 97.7462 72.402 97.331 72.8372C96.9158 73.2723 96.416 73.6179 95.8623 73.8529C95.3086 74.0878 94.7127 74.2071 94.1113 74.2033C95.0912 72.6911 95.6233 70.9325 95.646 69.1307C95.646 56.4705 93.2587 47.8172 88.4845 42.7019C96.7968 47.1778 98.5446 59.5396 98.5446 69.557Z" fill="#CBBD9F"/>
<path d="M93.5148 69.1316C93.5148 73.6714 88.5061 78.6162 84.3926 75.8667C83.5564 75.4456 82.8984 74.7393 82.5376 73.8754C82.1769 73.0115 82.1371 72.0471 82.4254 71.1564C82.7137 70.2657 83.3112 69.5074 84.1098 69.0188C84.9084 68.5302 85.8554 68.3435 86.7797 68.4922C89.0176 69.0251 87.4617 71.9663 86.0124 71.3482C85.758 71.2239 85.4647 71.2057 85.1969 71.2976C84.9291 71.3896 84.7088 71.5841 84.5844 71.8385C84.4601 72.0929 84.4418 72.3862 84.5337 72.654C84.6256 72.9218 84.8202 73.1421 85.0746 73.2665C85.6441 73.4852 86.2594 73.5575 86.8641 73.4767C87.4688 73.396 88.0435 73.1646 88.5356 72.8041C89.0277 72.4435 89.4214 71.9651 89.6806 71.4128C89.9399 70.8606 90.0564 70.2521 90.0194 69.6432C90.0194 56.8551 90.0193 42.3618 73.5652 42.3618C71.4339 42.3618 72.1159 40.0386 73.9915 39.7615C74.9843 39.6762 75.9827 39.6762 76.9755 39.7615C88.0585 40.6141 93.5148 50.2052 93.5148 69.1316Z" fill="#CBBD9F"/>
<path d="M106.729 40.1876L99.7378 45.857C97.4573 44.088 97.0097 44.1093 96.5834 43.7257C95.603 43.1289 94.4521 42.5321 93.5143 42.0205L98.8852 32.6426C101.813 34.8098 104.45 37.3457 106.729 40.1876Z" fill="#C93112"/>
<path d="M97.0526 31.4916L91.5111 41.0827C88.8566 39.8994 86.0847 38.9992 83.2415 38.3972L84.2218 27.2715C88.7838 27.5858 93.1947 29.0366 97.0526 31.4916Z" fill="#C93112"/>
<path d="M82.0902 27.186L81.1524 38.0134C79.767 37.8002 78.126 37.6297 77.9128 37.6297C77.6997 37.6297 77.9128 37.6297 77.9128 37.6297C77.2048 37.5468 76.4895 37.5468 75.7815 37.6297H75.6536C75.512 37.6135 75.3689 37.6135 75.2273 37.6297C74.7879 37.5859 74.3453 37.5859 73.9059 37.6297L71.2203 29.1042C74.7195 27.8942 78.3883 27.2468 82.0902 27.186Z" fill="#C93112"/>
<path d="M77.3799 52.8052C77.3799 53.5938 77.3799 53.5938 77.3799 54.4037C77.3799 54.6863 77.2675 54.9574 77.0677 55.1572C76.8678 55.3571 76.5968 55.4694 76.3142 55.4694C76.1753 55.4722 76.0371 55.4473 75.9079 55.3961C75.7788 55.3448 75.6612 55.2683 75.5619 55.1711C75.4627 55.0738 75.3838 54.9577 75.33 54.8296C75.2762 54.7015 75.2485 54.5639 75.2485 54.425C75.2485 53.615 75.2485 53.615 75.2485 52.8264C75.2457 52.6865 75.2704 52.5474 75.3214 52.417C75.3723 52.2866 75.4485 52.1675 75.5455 52.0666C75.6425 51.9657 75.7584 51.8848 75.8866 51.8287C76.0149 51.7725 76.1529 51.7423 76.2929 51.7395C76.5775 51.7394 76.8508 51.851 77.054 52.0503C77.2573 52.2495 77.3743 52.5206 77.3799 52.8052ZM67.0641 108.86C66.7814 108.86 66.5105 108.972 66.3106 109.172C66.1107 109.372 65.9984 109.643 65.9984 109.925C65.9984 110.208 66.1107 110.479 66.3106 110.679C66.5105 110.879 66.7814 110.991 67.0641 110.991C67.3467 110.991 67.6178 110.879 67.8177 110.679C68.0175 110.479 68.1297 110.208 68.1297 109.925C68.1297 109.643 68.0175 109.372 67.8177 109.172C67.6178 108.972 67.3467 108.86 67.0641 108.86ZM67.0641 92.6828C67.3467 92.6828 67.6178 92.5705 67.8177 92.3707C68.0175 92.1708 68.1297 91.8998 68.1297 91.6171C68.1297 91.3345 68.0175 91.0635 67.8177 90.8636C67.6178 90.6638 67.3467 90.5515 67.0641 90.5515C66.7831 90.5569 66.5153 90.6709 66.3166 90.8696C66.1179 91.0683 66.0038 91.3362 65.9984 91.6171C65.9984 91.8998 66.1107 92.1708 66.3106 92.3707C66.5105 92.5705 66.7814 92.6828 67.0641 92.6828ZM67.0641 98.7998C67.3467 98.7998 67.6178 98.6875 67.8177 98.4877C68.0175 98.2878 68.1297 98.0168 68.1297 97.7341C68.1297 97.4515 68.0175 97.1804 67.8177 96.9806C67.6178 96.7807 67.3467 96.6684 67.0641 96.6684C66.7814 96.6684 66.5105 96.7807 66.3106 96.9806C66.1107 97.1804 65.9984 97.4515 65.9984 97.7341C66.0038 98.0151 66.1179 98.2829 66.3166 98.4816C66.5153 98.6803 66.7831 98.7943 67.0641 98.7998ZM67.0641 104.895C67.3467 104.895 67.6178 104.783 67.8177 104.583C68.0175 104.384 68.1297 104.112 68.1297 103.83C68.1297 103.547 68.0175 103.276 67.8177 103.076C67.6178 102.876 67.3467 102.764 67.0641 102.764C66.7814 102.764 66.5105 102.876 66.3106 103.076C66.1107 103.276 65.9984 103.547 65.9984 103.83C66.0038 104.111 66.1179 104.379 66.3166 104.577C66.5153 104.776 66.7831 104.89 67.0641 104.895ZM74.9288 83.7738C75.0492 83.6921 75.1517 83.5867 75.2298 83.464C75.3079 83.3412 75.3601 83.2038 75.383 83.0601C75.406 82.9165 75.3993 82.7697 75.3634 82.6287C75.3275 82.4877 75.2632 82.3556 75.1743 82.2404C75.0853 82.1253 74.9737 82.0295 74.8464 81.9591C74.7191 81.8887 74.5787 81.8451 74.4339 81.831C74.2891 81.8169 74.143 81.8326 74.0045 81.8772C73.866 81.9217 73.7381 81.9941 73.6287 82.09C73.5083 82.1716 73.4059 82.2771 73.3278 82.3998C73.2497 82.5225 73.1974 82.6599 73.1744 82.8036C73.1514 82.9472 73.1581 83.0941 73.1941 83.2351C73.23 83.3761 73.2943 83.5082 73.3832 83.6233C73.4721 83.7385 73.5837 83.8342 73.711 83.9046C73.8383 83.975 73.9787 84.0186 74.1235 84.0326C74.2683 84.0467 74.4145 84.0311 74.553 83.9865C74.6915 83.942 74.8193 83.8696 74.9288 83.7738ZM70.0694 87.461C70.2908 87.2881 70.4367 87.0361 70.4764 86.7579C70.5161 86.4798 70.4466 86.1971 70.2824 85.9691C70.156 85.8004 69.9824 85.6731 69.7836 85.6031C69.5847 85.5332 69.3696 85.5238 69.1654 85.5761C68.9612 85.6284 68.7771 85.7401 68.6364 85.897C68.4957 86.0539 68.4048 86.2491 68.375 86.4577C68.3452 86.6664 68.3779 86.8792 68.469 87.0692C68.5602 87.2593 68.7056 87.418 68.887 87.5254C69.0684 87.6328 69.2774 87.684 69.4879 87.6726C69.6983 87.6611 69.9007 87.5874 70.0694 87.461ZM79.1488 80.2996C79.4315 80.2996 79.7026 80.1874 79.9024 79.9875C80.1023 79.7877 80.2145 79.5166 80.2145 79.234C80.209 78.953 80.0951 78.6851 79.8964 78.4864C79.6978 78.2877 79.4297 78.1737 79.1488 78.1683C78.8662 78.1683 78.5952 78.2805 78.3954 78.4804C78.1955 78.6802 78.0831 78.9513 78.0831 79.234C78.0831 79.5166 78.1955 79.7877 78.3954 79.9875C78.5952 80.1874 78.8662 80.2996 79.1488 80.2996ZM91.2976 90.9564C91.0149 90.9564 90.744 91.0687 90.5441 91.2685C90.3443 91.4684 90.2319 91.7395 90.2319 92.0221C90.2319 92.3047 90.3443 92.5758 90.5441 92.7756C90.744 92.9755 91.0149 93.0878 91.2976 93.0878C91.5785 93.0823 91.8464 92.9683 92.0451 92.7696C92.2437 92.5709 92.3578 92.303 92.3633 92.0221C92.3418 91.7545 92.2201 91.5049 92.0226 91.3231C91.825 91.1413 91.566 91.0408 91.2976 91.0416V90.9564ZM107.07 83.6458C106.901 83.7723 106.774 83.9459 106.704 84.1448C106.634 84.3436 106.624 84.5587 106.677 84.7629C106.729 84.9671 106.841 85.1511 106.998 85.2918C107.155 85.4325 107.35 85.5236 107.558 85.5534C107.767 85.5832 107.98 85.5505 108.17 85.4593C108.36 85.3682 108.519 85.2227 108.626 85.0413C108.733 84.86 108.785 84.6509 108.773 84.4404C108.762 84.2299 108.688 84.0276 108.562 83.859C108.377 83.6505 108.119 83.521 107.841 83.4972C107.564 83.4734 107.287 83.5571 107.07 83.7311V83.6458ZM102.082 86.7789C101.949 86.8388 101.829 86.9254 101.731 87.0334C101.633 87.1414 101.557 87.2684 101.51 87.4067C101.463 87.5449 101.445 87.6914 101.457 87.8371C101.468 87.9827 101.51 88.1243 101.579 88.2532C101.647 88.3821 101.742 88.4955 101.857 88.5862C101.971 88.677 102.103 88.7433 102.244 88.7809C102.385 88.8185 102.533 88.8267 102.677 88.805C102.822 88.7832 102.96 88.732 103.084 88.6545C103.331 88.5231 103.517 88.2995 103.601 88.0323C103.684 87.7651 103.66 87.4756 103.532 87.2266C103.386 86.9882 103.152 86.8166 102.881 86.7489C102.61 86.6811 102.323 86.7225 102.082 86.8642V86.7789ZM96.7965 89.294C96.5982 89.3672 96.4262 89.4976 96.3023 89.6688C96.1784 89.84 96.1081 90.0442 96.1005 90.2555C96.093 90.4667 96.1483 90.6753 96.2596 90.855C96.371 91.0346 96.5332 91.1771 96.7257 91.2643C96.9182 91.3516 97.1323 91.3796 97.3408 91.3449C97.5493 91.3101 97.7427 91.2142 97.8965 91.0692C98.0503 90.9243 98.1576 90.7368 98.2046 90.5308C98.2516 90.3247 98.2363 90.1093 98.1606 89.912C98.1133 89.7807 98.04 89.6602 97.9453 89.5576C97.8506 89.455 97.7363 89.3725 97.6092 89.3148C97.482 89.2572 97.3446 89.2257 97.205 89.2221C97.0654 89.2185 96.9265 89.243 96.7965 89.294ZM113.037 81.2801C113.186 81.1307 113.286 80.9408 113.327 80.7343C113.367 80.5278 113.345 80.314 113.265 80.1197C113.184 79.9255 113.047 79.7596 112.872 79.6429C112.697 79.5262 112.491 79.4639 112.281 79.4639C112.07 79.4639 111.865 79.5262 111.69 79.6429C111.515 79.7596 111.378 79.9255 111.297 80.1197C111.216 80.314 111.195 80.5278 111.235 80.7343C111.275 80.9408 111.376 81.1307 111.524 81.2801C111.719 81.4509 111.969 81.5451 112.228 81.5451C112.486 81.5451 112.736 81.4509 112.931 81.2801H113.037ZM94.6652 186.292C94.8069 186.292 94.9472 186.264 95.0779 186.209C95.2086 186.154 95.3271 186.074 95.4263 185.972C95.5255 185.871 95.6036 185.751 95.6559 185.619C95.7082 185.488 95.7337 185.347 95.7308 185.205C95.7308 184.416 95.7308 184.416 95.7308 183.606C95.7198 183.326 95.6005 183.06 95.3978 182.865C95.1951 182.671 94.9249 182.562 94.6438 182.562C94.5049 182.562 94.3674 182.59 94.2393 182.644C94.1111 182.697 93.995 182.776 93.8978 182.875C93.8005 182.975 93.7239 183.092 93.6727 183.222C93.6215 183.351 93.5966 183.489 93.5995 183.628C93.5995 184.438 93.5995 184.438 93.5995 185.226C93.5995 185.509 93.7117 185.78 93.9116 185.98C94.1114 186.18 94.3825 186.292 94.6652 186.292ZM103.894 129.172C104.177 129.172 104.448 129.059 104.647 128.859C104.847 128.66 104.96 128.389 104.96 128.106C104.96 127.823 104.847 127.552 104.647 127.352C104.448 127.153 104.177 127.04 103.894 127.04C103.613 127.046 103.345 127.16 103.146 127.358C102.948 127.557 102.834 127.825 102.828 128.106C102.827 128.371 102.925 128.627 103.102 128.824C103.279 129.021 103.524 129.145 103.787 129.172H103.894ZM103.894 133.136C103.613 133.141 103.345 133.255 103.146 133.454C102.948 133.653 102.834 133.921 102.828 134.202C102.828 134.484 102.941 134.755 103.14 134.955C103.34 135.155 103.611 135.267 103.894 135.267C104.177 135.267 104.448 135.155 104.647 134.955C104.847 134.755 104.96 134.484 104.96 134.202C104.96 134.052 104.93 133.904 104.87 133.768C104.81 133.631 104.721 133.508 104.611 133.408C104.5 133.307 104.37 133.231 104.228 133.184C104.086 133.137 103.936 133.121 103.787 133.136H103.894ZM96.0293 154.258C95.862 154.386 95.7368 154.562 95.6693 154.761C95.6018 154.961 95.5952 155.177 95.6502 155.38C95.7052 155.584 95.8193 155.767 95.9783 155.905C96.1372 156.044 96.3337 156.133 96.543 156.159C96.7522 156.186 96.9647 156.15 97.1536 156.057C97.3425 155.963 97.4992 155.815 97.604 155.632C97.7087 155.448 97.7567 155.238 97.742 155.028C97.7273 154.818 97.6505 154.616 97.5212 154.449C97.4356 154.323 97.3239 154.217 97.1935 154.137C97.0632 154.058 96.9173 154.007 96.7657 153.989C96.6141 153.971 96.4604 153.985 96.3149 154.032C96.1695 154.078 96.0358 154.155 95.9227 154.258H96.0293ZM103.894 145.349C103.611 145.349 103.34 145.461 103.14 145.661C102.941 145.861 102.828 146.132 102.828 146.414C102.834 146.695 102.948 146.963 103.146 147.162C103.345 147.36 103.613 147.475 103.894 147.48C104.177 147.48 104.448 147.368 104.647 147.168C104.847 146.968 104.96 146.697 104.96 146.414C104.96 146.265 104.93 146.117 104.87 145.98C104.81 145.843 104.721 145.721 104.611 145.62C104.5 145.52 104.37 145.444 104.228 145.397C104.086 145.35 103.936 145.334 103.787 145.349H103.894ZM103.894 139.253C103.611 139.253 103.34 139.365 103.14 139.565C102.941 139.765 102.828 140.036 102.828 140.319C102.834 140.6 102.948 140.867 103.146 141.066C103.345 141.265 103.613 141.379 103.894 141.384C104.177 141.384 104.448 141.272 104.647 141.072C104.847 140.872 104.96 140.601 104.96 140.319C104.96 140.169 104.93 140.021 104.87 139.885C104.81 139.748 104.721 139.625 104.611 139.525C104.5 139.424 104.37 139.348 104.228 139.301C104.086 139.254 103.936 139.238 103.787 139.253H103.894ZM100.889 150.57C100.721 150.699 100.596 150.874 100.529 151.074C100.461 151.274 100.455 151.489 100.51 151.693C100.565 151.897 100.679 152.079 100.838 152.218C100.997 152.357 101.193 152.445 101.403 152.472C101.612 152.499 101.824 152.463 102.013 152.369C102.202 152.275 102.359 152.127 102.463 151.944C102.568 151.761 102.616 151.551 102.602 151.341C102.587 151.13 102.51 150.929 102.381 150.762C102.297 150.633 102.187 150.523 102.056 150.442C101.926 150.36 101.779 150.308 101.627 150.29C101.474 150.272 101.319 150.287 101.173 150.336C101.027 150.384 100.894 150.464 100.782 150.57H100.889ZM91.8304 157.732C91.5478 157.732 91.2768 157.844 91.0769 158.044C90.8771 158.244 90.7647 158.515 90.7647 158.797C90.7647 159.08 90.8771 159.351 91.0769 159.551C91.2768 159.751 91.5478 159.863 91.8304 159.863C92.1113 159.858 92.3792 159.744 92.5779 159.545C92.7766 159.346 92.8906 159.078 92.8961 158.797C92.8968 158.648 92.8662 158.5 92.8061 158.363C92.746 158.227 92.6579 158.104 92.5473 158.004C92.4368 157.903 92.3063 157.827 92.1645 157.78C92.0226 157.733 91.8725 157.717 91.7239 157.732H91.8304ZM79.6605 147.075C79.9431 147.075 80.2141 146.963 80.4139 146.763C80.6138 146.563 80.7261 146.292 80.7261 146.009C80.7261 145.727 80.6138 145.456 80.4139 145.256C80.2141 145.056 79.9431 144.944 79.6605 144.944C79.3795 144.949 79.1115 145.063 78.9128 145.262C78.7142 145.461 78.6002 145.728 78.5948 146.009C78.6137 146.259 78.7201 146.495 78.8955 146.674C79.071 146.854 79.3041 146.965 79.5538 146.99L79.6605 147.075ZM68.8758 151.338C69.0003 151.275 69.1108 151.188 69.201 151.081C69.2912 150.975 69.3591 150.851 69.4008 150.718C69.4426 150.585 69.4572 150.445 69.4439 150.306C69.4306 150.167 69.3896 150.032 69.3233 149.91C69.2698 149.769 69.1872 149.641 69.0807 149.535C68.9742 149.428 68.8463 149.345 68.7055 149.292C68.5647 149.238 68.4143 149.215 68.264 149.224C68.1137 149.233 67.9669 149.274 67.8334 149.344C67.7 149.413 67.5829 149.511 67.4897 149.629C67.3966 149.747 67.3296 149.884 67.2932 150.03C67.2567 150.176 67.2517 150.329 67.2783 150.477C67.305 150.625 67.3626 150.766 67.4477 150.89C67.5995 151.085 67.8157 151.22 68.0577 151.271C68.2997 151.322 68.5517 151.285 68.7691 151.167L68.8758 151.338ZM63.9097 154.471C64.1312 154.298 64.277 154.046 64.3167 153.768C64.3565 153.49 64.287 153.207 64.1228 152.979C63.9963 152.81 63.8227 152.683 63.6239 152.613C63.4251 152.543 63.21 152.534 63.0059 152.586C62.8017 152.638 62.6175 152.75 62.4768 152.907C62.3361 153.064 62.2451 153.259 62.2153 153.468C62.1855 153.676 62.2182 153.889 62.3094 154.079C62.4005 154.269 62.546 154.428 62.7273 154.535C62.9087 154.643 63.1179 154.694 63.3283 154.682C63.5388 154.671 63.7411 154.597 63.9097 154.471ZM74.2681 148.908C74.4663 148.835 74.6383 148.704 74.7623 148.533C74.8862 148.362 74.9564 148.158 74.964 147.947C74.9716 147.735 74.9163 147.527 74.8049 147.347C74.6936 147.167 74.5313 147.025 74.3388 146.938C74.1463 146.85 73.9322 146.822 73.7238 146.857C73.5153 146.892 73.3218 146.988 73.168 147.133C73.0142 147.278 72.907 147.465 72.86 147.671C72.813 147.877 72.8283 148.093 72.904 148.29C73.0313 148.497 73.2253 148.654 73.454 148.735C73.6826 148.816 73.9323 148.817 74.1615 148.737L74.2681 148.908ZM58.0271 156.922C57.8265 157.123 57.7138 157.395 57.7138 157.679C57.7138 157.962 57.8265 158.234 58.0271 158.435C58.2278 158.636 58.4999 158.749 58.7837 158.749C59.0675 158.749 59.3398 158.636 59.5405 158.435C59.6403 158.336 59.7196 158.218 59.7737 158.088C59.8278 157.958 59.8557 157.819 59.8557 157.679C59.8557 157.538 59.8278 157.399 59.7737 157.269C59.7196 157.139 59.6403 157.021 59.5405 156.922C59.4511 156.796 59.336 156.691 59.203 156.614C59.07 156.536 58.9221 156.488 58.7689 156.472C58.6157 156.456 58.4609 156.472 58.3146 156.52C58.1684 156.569 58.0341 156.647 57.9206 156.751L58.0271 156.922ZM143.686 160.673C143.996 165.752 142.738 170.804 140.084 175.145C139.141 176.672 137.79 177.904 136.184 178.704L134.713 177.724C134.756 175.6 134.194 173.509 133.094 171.692C131.205 168.936 128.38 166.959 125.144 166.129V172.396L124.078 173.461H117.684L116.618 172.396V165.426C114.965 164.124 113.411 162.699 111.972 161.163C111.837 160.962 111.775 160.721 111.799 160.48C111.822 160.239 111.928 160.013 112.1 159.842L116.618 155.814V143.452C113.268 141.577 110.614 138.668 109.052 135.161V151.146L108.626 151.998L94.4946 162.655C95.4541 162.499 96.4366 162.564 97.3673 162.845C98.298 163.125 99.1524 163.615 99.8657 164.275C101.251 166.129 99.8656 168.687 101.017 169.454C101.153 169.555 101.264 169.687 101.341 169.839C101.417 169.991 101.457 170.158 101.457 170.328C101.457 170.498 101.417 170.666 101.341 170.817C101.264 170.969 101.153 171.101 101.017 171.202C101.562 171.313 102.086 171.507 102.573 171.777C102.799 171.94 102.953 172.186 103.001 172.461C103.049 172.736 102.987 173.018 102.828 173.248C102.594 173.568 102.423 173.504 102.082 173.93C101.601 174.59 101.361 175.395 101.4 176.211L103.297 176.765L103.873 178.406C103.105 179.493 102.402 180.431 101.741 181.347C100.915 182.551 100.356 183.917 100.1 185.354C100.1 187.315 102.423 189.02 99.9083 193.581C99.9083 193.73 99.9083 193.581 100.228 193.858C100.607 194.111 100.929 194.441 101.171 194.827C101.413 195.212 101.571 195.645 101.633 196.097C101.696 196.548 101.662 197.007 101.533 197.445C101.405 197.882 101.185 198.287 100.889 198.633C100.889 198.633 100.697 197.823 103.958 209.14L103.297 210.44C88.1645 215.982 74.9288 212.273 63.7818 198.228L63.9524 196.736L71.9662 190.342C68.2363 185.312 66.8936 177.958 66.8723 171.756C60.8619 168.9 55.0006 164.552 52.8053 158.222H46.7096L45.644 157.156V117.513C44.1534 117.314 42.7958 116.551 41.8501 115.382C41.7631 112.797 41.514 110.22 41.1042 107.666C40.7876 107.081 40.6363 106.421 40.6663 105.756C40.6963 105.092 40.9067 104.448 41.2747 103.894C40.4009 101.954 41.6797 99.3326 45.5374 98.9277V82.8786C42.332 83.7138 39.5287 85.6632 37.63 88.3774C36.4996 90.2065 35.9223 92.3234 35.9677 94.4732L34.497 95.4536C32.9476 94.6399 31.6448 93.4254 30.7245 91.9368C28.3601 87.4794 27.1238 82.5106 27.1238 77.4649C27.1238 72.4192 28.3601 67.4505 30.7245 62.993C31.6738 61.4715 33.0231 60.2402 34.6249 59.4337L36.0955 60.4141C36.0509 62.5378 36.6128 64.6302 37.7154 66.4458C39.6266 69.1483 42.4371 71.0824 45.644 71.9021V65.6572L46.7096 64.5916H53.1037L54.1694 65.6572V72.6054C55.8063 73.935 57.3648 75.3583 58.8371 76.8681C58.9657 77.0727 59.0209 77.3149 58.9938 77.555C58.9667 77.7951 58.8589 78.0188 58.6879 78.1896L54.1694 82.2392V94.601C57.5335 96.4588 60.1924 99.3725 61.7357 102.892V86.8216L62.162 85.9691L76.3142 75.3123C75.3547 75.4683 74.3722 75.4035 73.4415 75.1228C72.5108 74.8421 71.6564 74.353 70.9432 73.6924C69.5365 71.8382 70.9432 69.2805 69.7709 68.5133C69.6303 68.4175 69.5151 68.2887 69.4356 68.1383C69.356 67.9878 69.3145 67.8202 69.3145 67.6501C69.3145 67.4799 69.356 67.3122 69.4356 67.1618C69.5151 67.0113 69.6303 66.8827 69.7709 66.7869C69.2238 66.6599 68.6941 66.4666 68.1937 66.2114C68.0057 66.0737 67.867 65.8792 67.7979 65.6566C67.7288 65.434 67.7331 65.1951 67.8101 64.9752C68.0019 64.4424 68.3429 64.485 68.6839 64.0587C69.1678 63.392 69.4085 62.5795 69.366 61.7568L67.469 61.2027L66.8935 59.5829C67.6608 58.4746 68.3642 57.4515 69.0249 56.6203C69.8689 55.4264 70.4302 54.0562 70.6661 52.6133C70.6661 50.6524 68.343 48.9687 70.8793 44.4076C70.8793 44.2371 70.8792 44.4076 70.5382 44.1092C70.1594 43.8589 69.8383 43.5309 69.5962 43.1469C69.3541 42.7629 69.1965 42.3317 69.134 41.882C69.0715 41.4324 69.1055 40.9746 69.2337 40.5391C69.3619 40.1036 69.5813 39.7003 69.8775 39.3563C69.8775 39.3563 70.0906 40.1449 66.8083 28.8274L67.469 27.5273C82.623 21.9857 95.8588 25.7156 106.984 39.7612L106.814 41.2532L98.8 47.6473C102.53 52.6559 103.873 60.0091 103.894 66.2114C109.947 69.0887 115.766 73.4367 117.961 79.7455H124.184L125.25 80.8112V120.625C126.742 120.82 128.101 121.584 129.044 122.756C129.358 123.275 129.541 123.862 129.578 124.467C129.615 125.072 129.505 125.677 129.257 126.23C129.833 128.862 129.955 131.572 129.619 134.244C130.493 136.184 129.214 138.805 125.357 139.21V155.259C128.561 154.435 131.366 152.492 133.264 149.782C134.394 147.945 134.971 145.821 134.926 143.665L136.397 142.684C137.997 143.494 139.346 144.724 140.297 146.244C142.868 150.597 144.051 155.631 143.686 160.673ZM112.164 74.5663C105.77 83.8377 92.9814 88.9742 81.8557 90.5727C85.2405 91.8715 88.3552 93.7866 91.0418 96.2209C100.505 94.0895 110.842 89.3366 116.128 81.3014C115.4 78.7703 114.061 76.4573 112.228 74.5663H112.164ZM98.3524 116.895C98.2179 111.672 96.5582 106.603 93.5776 102.312C90.5971 98.0209 86.426 94.6959 81.5786 92.7468C79.5757 91.9437 77.4762 91.4063 75.3337 91.1482C74.2041 91.1482 73.3303 91.1482 72.3286 91.1482V118.856C76.5033 120.179 81.0229 119.882 84.9888 118.025C89.2027 116.119 93.9434 115.72 98.4164 116.895H98.3524ZM85.7561 120.007C81.5538 121.899 76.831 122.297 72.3711 121.136C72.5258 126.355 74.2019 131.414 77.1932 135.693C80.1846 139.972 84.3609 143.283 89.2089 145.221C91.2184 146.031 93.3249 146.575 95.4751 146.841C96.6047 146.841 97.4786 146.841 98.459 146.841V119.133C94.2863 117.823 89.7727 118.135 85.82 120.007H85.7561ZM98.5442 73.117C97.868 74.3828 96.7855 75.3842 95.471 75.9603C94.1566 76.5363 92.6866 76.6534 91.2976 76.2927C90.4987 77.0902 89.5594 77.7333 88.5268 78.1896L74.3959 88.8463H75.3551C87.8235 88.484 103.51 83.2622 110.544 72.9251C108.382 71.0743 105.989 69.5124 103.425 68.2788C103.15 69.4425 102.562 70.5088 101.724 71.3617C100.886 72.2147 99.8308 72.8218 98.6721 73.117H98.5442ZM94.6652 69.11C94.6416 70.9644 94.095 72.7745 93.088 74.3318C93.6981 74.3211 94.2999 74.1881 94.8577 73.9406C95.4155 73.6931 95.9179 73.3361 96.3352 72.891C96.7526 72.4458 97.0763 71.9214 97.2873 71.3488C97.4984 70.7763 97.5924 70.1671 97.5638 69.5576C97.5638 59.8812 95.944 47.0505 87.3546 42.5746C93.4503 48.9474 94.6652 60.2223 94.6652 69.11ZM94.3029 46.0487C98.6935 52.4428 99.6951 61.7995 99.6951 69.4937C99.717 69.8059 99.717 70.1192 99.6951 70.4315C100.371 69.9783 100.92 69.3614 101.293 68.6384C101.666 67.9154 101.849 67.1097 101.826 66.2966C101.72 59.3484 99.9084 50.1623 94.1963 46.0487H94.3029ZM96.8392 32.6212L91.4468 41.9778C93.6569 43.0516 95.7497 44.3516 97.6916 45.8569L104.725 40.1662C102.412 37.3257 99.7481 34.7905 96.7965 32.6212H96.8392ZM81.2163 38.3758C84.0626 38.9925 86.8401 39.8921 89.5073 41.0614L95.0701 31.4276C91.2343 28.9527 86.8356 27.4865 82.282 27.1649L81.2163 38.3758ZM75.9731 39.7826C74.9585 39.7081 73.9399 39.7081 72.9253 39.7826C72.5039 39.8316 72.113 40.027 71.8209 40.3347C71.5287 40.6424 71.3539 41.0429 71.3268 41.4663C71.3268 42.2336 71.9662 42.4254 72.7122 42.4467C88.6974 42.4467 89.0597 55.9382 89.0597 69.7281C89.0929 70.3353 88.9737 70.9412 88.7129 71.4905C88.4521 72.0398 88.0579 72.5152 87.5664 72.8732C87.0749 73.2313 86.5017 73.4606 85.8988 73.5404C85.296 73.6202 84.6827 73.5479 84.1149 73.3301C83.989 73.2685 83.8764 73.1827 83.7836 73.0776C83.6908 72.9725 83.6197 72.8502 83.5741 72.7176C83.5286 72.585 83.5096 72.4447 83.5183 72.3048C83.527 72.1649 83.5632 72.0281 83.6247 71.9021C83.6863 71.7761 83.772 71.6636 83.8771 71.5708C83.9822 71.478 84.1046 71.4068 84.2372 71.3613C84.3698 71.3157 84.51 71.2968 84.65 71.3055C84.7899 71.3141 84.9268 71.3503 85.0527 71.4119C85.7134 71.7316 86.9283 71.0921 86.9283 69.7281C86.9401 69.5631 86.909 69.398 86.838 69.2486C86.7671 69.0992 86.6586 68.9707 86.5234 68.8755C86.1289 68.608 85.6561 68.4805 85.1806 68.5133C84.3185 68.5417 83.4898 68.8535 82.8229 69.4005C82.1559 69.9474 81.6879 70.6991 81.4913 71.5389C81.2947 72.3787 81.3805 73.26 81.7354 74.0461C82.0902 74.8323 82.6943 75.4796 83.4542 75.8877C87.5251 78.6372 92.5338 73.7563 92.5338 69.1313C92.5338 61.8634 91.7665 52.5494 87.7382 46.475C86.464 44.4678 84.7135 42.8065 82.6423 41.6389C80.5712 40.4713 78.2436 39.8337 75.8666 39.7826H75.9731ZM71.7104 37.7577L72.7335 37.6512C73.0304 37.6086 73.3318 37.6086 73.6287 37.6512C75.4696 37.6084 77.3105 37.7368 79.1276 38.0348L80.0866 27.1649C76.3805 27.2567 72.7121 27.9328 69.2168 29.1684L71.7104 37.7577ZM79.1702 72.7546C79.1088 71.7525 79.2917 70.7505 79.703 69.8347C80.3088 68.5402 81.3667 67.5117 82.6777 66.9425C83.9887 66.3734 85.4624 66.3028 86.8218 66.7442C86.6726 54.2758 85.4363 44.9617 73.181 44.642C73.0105 44.8765 72.8826 45.111 72.7548 45.3241C72.5158 45.9345 72.464 46.6023 72.6057 47.2423C73.2025 48.4785 78.5095 46.9013 80.9392 49.9491C81.1135 50.1699 81.1933 50.4507 81.1614 50.7302C81.1295 51.0097 80.9883 51.2652 80.7687 51.4411C80.6618 51.5313 80.538 51.5991 80.4044 51.6405C80.2709 51.6819 80.1303 51.6961 79.9911 51.6822C79.852 51.6683 79.7171 51.6266 79.5944 51.5595C79.4717 51.4925 79.3637 51.4014 79.2768 51.2919C77.7423 49.3736 74.0975 50.482 71.9662 49.4376C72.7218 50.9337 72.9038 52.6547 72.4778 54.2757C71.7806 56.1919 70.7803 57.9838 69.5152 59.5829C71.3008 59.9486 73.0192 60.5885 74.6092 61.4797C75.9093 62.247 77.1028 63.1848 78.1471 62.1618C78.3016 62.0139 78.4185 61.8312 78.4881 61.6289C78.5291 61.4944 78.5969 61.3695 78.6873 61.2618C78.7777 61.154 78.8889 61.0657 79.0143 61.002C79.1397 60.9383 79.2766 60.9006 79.4169 60.8911C79.5573 60.8816 79.6981 60.9006 79.8309 60.9469C79.963 60.9881 80.0856 61.055 80.1916 61.144C80.2976 61.2329 80.3848 61.3421 80.4483 61.465C80.5117 61.588 80.5501 61.7223 80.5612 61.8602C80.5723 61.9981 80.5559 62.1368 80.5129 62.2683C80.2747 62.9896 79.8146 63.6172 79.1983 64.0612C78.582 64.5052 77.8411 64.7431 77.0815 64.7407C74.9501 64.7407 73.7352 63.057 71.4973 62.3963C71.4395 63.2529 71.1842 64.0845 70.7514 64.826C71.3103 64.8983 71.8762 64.8983 72.4351 64.826C72.7178 64.8062 72.9966 64.8995 73.2104 65.0854C73.4243 65.2712 73.5556 65.5344 73.5753 65.8171C73.5951 66.0997 73.5018 66.3786 73.316 66.5924C73.1301 66.8063 72.867 66.9376 72.5843 66.9573C72.1592 67.0022 71.7305 67.0022 71.3054 66.9573C72.5416 68.087 72.3711 69.4723 72.3711 71.0069C72.3711 72.1365 72.5417 72.6054 73.6287 72.9038C75.464 73.2669 77.3571 73.216 79.1702 72.7546ZM63.867 107.474C64.8153 111.507 67.0618 115.116 70.2611 117.748C70.2611 88.9103 70.2611 90.1678 70.2611 89.8908C70.3169 89.6367 70.4602 89.4103 70.6661 89.2513C70.6661 89.2513 70.5382 89.2513 84.4985 78.7437C83.5261 78.5169 82.612 78.0887 81.8154 77.4866C81.0187 76.8845 80.3572 76.122 79.8735 75.2483L63.8457 87.4397L63.867 107.474ZM35.6479 76.378H45.644V74.2466C42.1715 73.4171 39.052 71.5065 36.7349 68.7903C36.0521 71.2341 35.6868 73.7556 35.6479 76.2927V76.378ZM35.2856 66.4458C34.6477 65.1545 34.2367 63.763 34.0707 62.3323C30.2343 65.7638 29.2325 72.2644 29.2325 77.4436C29.2325 82.6228 30.2343 89.1021 34.0707 92.5549C34.2367 91.1242 34.6477 89.7327 35.2856 88.4414C32.8576 81.2813 32.8576 73.5206 35.2856 66.3606V66.4458ZM45.644 80.6833V78.5519H35.6479C35.6692 81.1339 36.0421 83.7009 36.7562 86.1821C39.0411 83.4133 42.1579 81.455 45.644 80.598V80.6833ZM52.038 102.38C51.2707 101.144 49.9067 100.249 48.905 98.9703C46.4326 95.7946 48.7771 93.3435 51.0364 93.6419L52.0807 93.855V81.7703C52.085 81.5203 52.1753 81.2794 52.3365 81.0882C52.3365 80.9604 52.0806 81.3013 56.386 77.4649L52.3365 73.8629C52.1996 73.709 52.1172 73.5143 52.102 73.3088C52.102 73.1596 52.102 73.7137 52.102 66.8081H47.8393V102.594C47.8393 102.876 47.727 103.147 47.5271 103.347C47.3273 103.547 47.0563 103.659 46.7736 103.659C46.491 103.659 46.2199 103.547 46.0201 103.347C45.8202 103.147 45.708 102.876 45.708 102.594V101.123C45.2561 101.144 44.8131 101.257 44.4063 101.454C43.9995 101.652 43.6374 101.931 43.3421 102.274C42.9797 102.871 43.342 103.425 43.9814 103.809C44.2563 103.956 44.5505 104.063 44.8554 104.128C46.2072 104.418 47.5863 104.561 48.9689 104.554C49.2515 104.554 49.5226 104.667 49.7225 104.867C49.9223 105.066 50.0346 105.338 50.0346 105.62C50.0346 105.903 49.9223 106.174 49.7225 106.374C49.5226 106.574 49.2515 106.686 48.9689 106.686C46.891 106.771 44.8193 106.408 42.8946 105.62C42.8342 106.027 42.9074 106.442 43.1035 106.803C43.2995 107.165 43.6076 107.453 43.9814 107.624C44.2563 107.771 44.5505 107.878 44.8554 107.943C46.208 108.23 47.5862 108.38 48.9689 108.391C49.2515 108.391 49.5226 108.503 49.7225 108.703C49.9223 108.903 50.0346 109.174 50.0346 109.457C50.0346 109.739 49.9223 110.01 49.7225 110.21C49.5226 110.41 49.2515 110.522 48.9689 110.522C47.4067 110.51 45.8499 110.339 44.3225 110.011C42.8945 109.648 42.8519 109.307 42.8519 109.478C42.8889 109.827 43.0114 110.161 43.2085 110.451C43.4055 110.741 43.6709 110.978 43.9814 111.14C45.571 111.766 47.2608 112.098 48.9689 112.121C49.2515 112.121 49.5226 112.233 49.7225 112.433C49.9223 112.633 50.0346 112.904 50.0346 113.186C50.0346 113.469 49.9223 113.74 49.7225 113.94C49.5226 114.14 49.2515 114.252 48.9689 114.252C47.1091 114.204 45.2682 113.866 43.5126 113.25C43.4765 113.598 43.551 113.949 43.7257 114.252C44.0563 114.659 44.5021 114.956 45.0046 115.105C46.2852 115.512 47.6256 115.699 48.9689 115.659C49.2515 115.659 49.5226 115.771 49.7225 115.971C49.9223 116.171 50.0346 116.442 50.0346 116.725C50.0346 117.007 49.9223 117.278 49.7225 117.478C49.5226 117.678 49.2515 117.79 48.9689 117.79H47.7753V156.261H52.038V102.38ZM53.9563 101.421C54.0933 101.607 54.1679 101.83 54.1694 102.061V115.382L61.5865 107.965C59.6896 102.636 56.2794 96.5406 50.6953 95.752C50.5293 95.7519 50.3698 95.8163 50.2505 95.9316C50.1312 96.047 50.0614 96.2042 50.0559 96.37C50.1418 96.8509 50.3552 97.3 50.6739 97.6702C51.8713 98.7956 52.9695 100.022 53.9563 101.336V101.421ZM54.1694 153.746C59.8175 146.606 69.0889 142.194 77.9341 140.042C72.9937 134.614 70.2573 127.538 70.2611 120.199C66.5116 117.856 63.7456 114.226 62.4817 109.989L54.1481 118.302C54.1694 155.345 54.1694 153.149 54.1694 153.746ZM58.6026 163.465C64.9967 154.215 77.7848 149.078 88.9105 147.459C85.5332 146.158 82.4259 144.243 79.7457 141.811C70.2824 143.942 59.9453 148.695 54.6809 156.73C55.4094 159.27 56.7655 161.586 58.624 163.465H58.6026ZM72.1794 164.914C72.858 163.657 73.9384 162.663 75.248 162.091C76.5576 161.519 78.0211 161.403 79.4047 161.76C80.2049 160.959 81.1436 160.309 82.1754 159.842L96.3063 149.185H95.3472C82.8788 149.547 67.192 154.769 60.1798 165.128C62.3362 166.969 64.7219 168.524 67.2773 169.753C67.5744 168.572 68.191 167.496 69.0595 166.642C69.928 165.789 71.0148 165.191 72.2007 164.914H72.1794ZM76.2715 168.921C76.2933 167.073 76.8403 165.27 77.8487 163.721C77.2405 163.732 76.6405 163.864 76.0842 164.11C75.5279 164.356 75.0265 164.711 74.6094 165.154C74.1923 165.597 73.8681 166.119 73.6557 166.689C73.4434 167.259 73.3472 167.866 73.3729 168.474C73.3729 178.15 74.9927 190.981 83.5821 195.457C77.4011 189.105 76.2929 177.809 76.2929 168.921H76.2715ZM76.6552 191.983C72.2433 185.589 71.2416 176.232 71.2416 168.538C71.2197 168.226 71.2197 167.912 71.2416 167.6C70.5744 168.061 70.031 168.68 69.6593 169.401C69.2876 170.122 69.099 170.924 69.1102 171.735C69.0889 178.683 70.9432 187.848 76.6765 191.983H76.6552ZM74.1189 205.41L79.4899 196.075C77.3187 194.958 75.2627 193.63 73.3516 192.111L66.3395 197.78C68.5964 200.652 71.2188 203.217 74.1402 205.41H74.1189ZM89.7204 199.656C86.876 199.032 84.0991 198.133 81.4294 196.97L75.8879 206.604C79.7258 209.074 84.1233 210.54 88.676 210.866L89.7204 199.656ZM94.9636 198.249C95.9777 198.334 96.9972 198.334 98.0114 198.249C98.4336 198.197 98.825 198.001 99.1199 197.694C99.4148 197.388 99.5954 196.989 99.6312 196.565C99.6312 195.84 99.0345 195.606 98.3098 195.606C90.6369 195.606 85.5217 192.558 83.3903 185.226C82.1263 179.686 81.6172 174.001 81.877 168.325C81.8381 167.716 81.9536 167.107 82.2128 166.554C82.4719 166.002 82.8664 165.524 83.3596 165.165C83.8528 164.806 84.4286 164.577 85.0339 164.499C85.6391 164.422 86.2541 164.499 86.8218 164.723C86.9639 164.773 87.0938 164.852 87.2028 164.957C87.3118 165.061 87.3975 165.187 87.4543 165.326C87.511 165.466 87.5376 165.616 87.5321 165.766C87.5266 165.917 87.4892 166.065 87.4224 166.2C87.3556 166.335 87.261 166.454 87.1447 166.55C87.0283 166.646 86.893 166.716 86.7476 166.756C86.6022 166.795 86.45 166.804 86.3012 166.78C86.1523 166.757 86.0101 166.702 85.884 166.62C85.2019 166.3 84.0297 166.961 84.0084 168.325C83.9983 168.486 84.0303 168.648 84.1013 168.794C84.1722 168.939 84.2798 169.064 84.4133 169.156C84.8078 169.423 85.2806 169.551 85.7561 169.518C86.628 169.508 87.4714 169.206 88.1514 168.66C88.8315 168.114 89.3089 167.356 89.5077 166.507C89.7065 165.658 89.615 164.767 89.2479 163.976C88.8808 163.185 88.2592 162.54 87.4825 162.144C83.4329 159.416 78.4029 164.275 78.4029 168.9C78.4029 176.189 79.1915 185.482 83.2198 191.578C84.4879 193.565 86.223 195.212 88.2737 196.375C90.3244 197.537 92.6285 198.181 94.9849 198.249H94.9636ZM99.2263 200.38H98.2031C97.9056 200.413 97.6055 200.413 97.308 200.38C95.4668 200.405 93.6268 200.27 91.8091 199.975L90.8713 210.845C94.5716 210.764 98.2347 210.087 101.72 208.842L99.2263 200.38ZM91.6387 165.447C91.6983 166.449 91.5155 167.451 91.1058 168.367C90.5078 169.663 89.4542 170.694 88.1456 171.264C86.8369 171.834 85.3645 171.903 84.0084 171.458C84.1363 183.947 85.3725 193.24 97.6491 193.56C97.7983 193.325 97.9475 193.091 98.0541 192.878C98.2883 192.267 98.3472 191.602 98.2245 190.96C97.6064 189.723 92.3207 191.301 89.8909 188.253C89.8007 188.146 89.7329 188.022 89.6915 187.889C89.6501 187.755 89.6358 187.614 89.6498 187.475C89.6637 187.336 89.7054 187.201 89.7724 187.078C89.8395 186.956 89.9306 186.848 90.0401 186.761C90.2644 186.585 90.5486 186.505 90.8316 186.537C91.1146 186.569 91.3737 186.71 91.5533 186.931C93.0666 188.828 96.7112 187.72 98.8639 188.764C98.0924 187.273 97.9099 185.546 98.3524 183.926C99.0337 182.007 100.027 180.214 101.294 178.619C99.5091 178.249 97.7913 177.61 96.1997 176.722C94.8995 175.955 93.706 175.017 92.6617 176.04C92.5112 176.191 92.395 176.373 92.3207 176.573C92.2886 176.717 92.2268 176.853 92.1394 176.972C92.0519 177.091 91.9406 177.191 91.8126 177.265C91.6846 177.338 91.5428 177.385 91.3959 177.401C91.2491 177.417 91.1005 177.402 90.9596 177.358C90.8187 177.313 90.6886 177.24 90.5775 177.142C90.4665 177.045 90.377 176.925 90.3146 176.792C90.2522 176.658 90.2183 176.512 90.2151 176.365C90.2119 176.217 90.2394 176.07 90.2959 175.934C90.5436 175.214 91.0092 174.59 91.6279 174.147C92.2466 173.703 92.9877 173.464 93.7487 173.461C95.7735 173.461 97.0949 175.166 99.3115 175.806C99.3798 174.958 99.6346 174.135 100.058 173.397C99.5117 173.279 98.9514 173.244 98.395 173.291C98.1124 173.311 97.8334 173.217 97.6196 173.031C97.4057 172.845 97.2746 172.582 97.2548 172.3C97.235 172.017 97.3282 171.738 97.5141 171.524C97.6999 171.31 97.9632 171.179 98.2458 171.159C98.6638 171.115 99.0854 171.115 99.5034 171.159C98.2672 170.03 98.459 168.644 98.459 167.131C98.459 166.001 98.2885 165.533 97.2015 165.213C95.3728 164.856 93.4879 164.907 91.6812 165.362L91.6387 165.447ZM106.942 130.749C105.999 126.708 103.752 123.09 100.548 120.454C100.548 149.526 100.548 148.034 100.548 148.311C100.499 148.563 100.363 148.789 100.164 148.951C100.164 148.951 100.164 148.951 86.3103 159.48C87.2824 159.7 88.1969 160.124 88.994 160.722C89.791 161.321 90.4526 162.081 90.9353 162.954L106.963 150.784L106.942 130.749ZM116.639 119.815C116.639 82.7933 116.639 84.9886 116.639 84.3705C111.013 91.5106 101.72 95.9438 92.8748 98.0965C97.8263 103.508 100.565 110.583 100.548 117.918C104.293 120.27 107.063 123.895 108.348 128.127L116.639 119.815ZM120.241 142.365C120.404 142.365 120.56 142.304 120.679 142.193C120.798 142.082 120.87 141.93 120.881 141.768C120.81 141.276 120.595 140.816 120.263 140.447C119.039 139.297 117.92 138.042 116.917 136.695C116.761 136.519 116.677 136.291 116.682 136.056V122.735L109.286 130.152C111.162 135.48 114.572 141.576 120.241 142.365ZM125.293 135.544V137.036C125.738 136.974 126.174 136.86 126.593 136.695C127.936 136.12 128.277 135.161 127.019 134.351C125.416 133.798 123.727 133.538 122.032 133.584C121.749 133.584 121.478 133.471 121.278 133.271C121.078 133.072 120.966 132.801 120.966 132.518C120.966 132.235 121.078 131.964 121.278 131.764C121.478 131.564 121.749 131.452 122.032 131.452C124.109 131.37 126.181 131.733 128.106 132.518C128.167 132.111 128.093 131.696 127.897 131.335C127.701 130.973 127.393 130.685 127.019 130.514C125.415 129.969 123.726 129.716 122.032 129.768C121.749 129.768 121.478 129.656 121.278 129.456C121.078 129.256 120.966 128.985 120.966 128.703C120.966 128.42 121.078 128.149 121.278 127.949C121.478 127.749 121.749 127.637 122.032 127.637C124.123 127.553 126.209 127.916 128.149 128.703C128.119 128.347 127.999 128.004 127.802 127.706C127.604 127.408 127.335 127.164 127.019 126.998C125.429 126.378 123.739 126.053 122.032 126.039C121.749 126.039 121.478 125.926 121.278 125.726C121.078 125.527 120.966 125.255 120.966 124.973C120.966 124.69 121.078 124.419 121.278 124.219C121.478 124.019 121.749 123.907 122.032 123.907C123.89 123.935 125.732 124.259 127.488 124.866C127.529 124.521 127.462 124.171 127.296 123.865C126.952 123.468 126.5 123.179 125.996 123.033C124.72 122.606 123.377 122.411 122.032 122.458C121.749 122.458 121.478 122.346 121.278 122.146C121.078 121.946 120.966 121.675 120.966 121.392C120.966 121.11 121.078 120.839 121.278 120.639C121.478 120.439 121.749 120.327 122.032 120.327H123.161V81.8768H118.899V135.736C119.879 137.313 121.861 138.315 122.756 140.319C123.021 140.746 123.166 141.236 123.175 141.738C123.184 142.241 123.058 142.736 122.809 143.173C122.56 143.609 122.198 143.97 121.762 144.218C121.325 144.466 120.829 144.592 120.327 144.581C119.844 144.555 119.365 144.477 118.899 144.347C118.899 156.964 118.899 156.496 118.899 156.666C118.864 156.803 118.806 156.933 118.728 157.05C118.728 157.199 118.728 157.178 114.636 160.737C118.6 164.275 118.622 164.275 118.728 164.424C118.806 164.542 118.864 164.671 118.899 164.808C118.899 164.978 118.899 164.616 118.899 171.415H123.161V135.544C123.161 135.262 123.274 134.991 123.473 134.791C123.673 134.591 123.944 134.479 124.227 134.479C124.495 134.5 124.744 134.622 124.926 134.819C125.108 135.017 125.208 135.276 125.208 135.544H125.293ZM135.31 161.739H125.293V163.87C128.767 164.683 131.889 166.588 134.202 169.305C134.85 166.835 135.172 164.292 135.161 161.739H135.31ZM135.31 159.607C135.277 157.026 134.904 154.461 134.202 151.977C131.89 154.699 128.768 156.611 125.293 157.433V159.565L135.31 159.607ZM141.704 160.673C141.704 155.515 140.702 149.015 136.866 145.562C136.7 146.992 136.289 148.384 135.651 149.675C138.06 156.809 138.06 164.537 135.651 171.671C136.285 172.964 136.695 174.355 136.866 175.784C140.617 172.353 141.555 165.852 141.555 160.673H141.704Z" fill="#1F1F1F"/>
</svg>
