<svg width="171" height="240" viewBox="0 0 171 240" fill="none" xmlns="http://www.w3.org/2000/svg">
<path d="M160.034 0.762695H10.8389C4.95333 0.762695 0.182129 5.5339 0.182129 11.4195V228.818C0.182129 234.703 4.95333 239.475 10.8389 239.475H160.034C165.919 239.475 170.691 234.703 170.691 228.818V11.4195C170.691 5.5339 165.919 0.762695 160.034 0.762695Z" fill="#F9F1DF"/>
<path d="M29.2109 45.5212C28.4967 45.5325 27.7989 45.7365 27.1911 46.1117C26.5834 46.4868 26.0882 47.0192 25.7581 47.6526C25.3259 46.8839 24.6509 46.2802 23.8389 45.9362C23.0269 45.5921 22.1236 45.5271 21.2707 45.7513C20.4178 45.9755 19.6633 46.4763 19.1254 47.1751C18.5876 47.874 18.2967 48.7315 18.2983 49.6134C18.2983 54.0253 24.6924 56.3912 25.7581 59.2045C26.9303 56.3912 33.2178 54.0253 33.2178 49.6134C33.2292 49.0801 33.1339 48.5499 32.9376 48.0539C32.7413 47.5578 32.4481 47.106 32.0749 46.7248C31.7017 46.3437 31.256 46.0409 30.7643 45.8342C30.2725 45.6275 29.7443 45.5211 29.2109 45.5212V45.5212Z" fill="#C93112"/>
<path d="M141.554 193.651C142.271 193.639 142.972 193.435 143.583 193.06C144.194 192.685 144.693 192.153 145.028 191.52C145.359 192.153 145.854 192.685 146.462 193.061C147.069 193.436 147.767 193.64 148.481 193.651C149.544 193.651 150.563 193.229 151.315 192.477C152.066 191.726 152.488 190.707 152.488 189.644C152.488 185.232 146.201 182.866 145.028 180.053C143.856 182.866 137.569 185.232 137.569 189.644C137.569 190.703 137.988 191.719 138.735 192.47C139.482 193.221 140.495 193.645 141.554 193.651V193.651Z" fill="#C93112"/>
<path d="M28.1451 18.9649C27.9632 18.9913 27.7969 19.0821 27.6763 19.2207C27.5647 19.3585 27.5112 19.5343 27.5271 19.7109V31.4973C27.5422 32.7313 27.4567 33.9645 27.2713 35.1845C27.1554 36.1202 26.8431 37.0209 26.3549 37.8274C25.8383 38.6065 25.1628 39.2675 24.3727 39.767C23.3033 40.3994 22.1756 40.9275 21.0051 41.3442L20.3018 39.8949C20.9924 39.4577 21.6417 38.9583 22.2414 38.4029C22.7231 37.9563 23.1139 37.4207 23.3922 36.8257C23.6874 36.1845 23.8815 35.5015 23.9678 34.8009C24.0683 33.8808 24.1181 32.9558 24.117 32.0301V19.7109C24.1239 19.5254 24.0633 19.3436 23.9464 19.1994C23.8925 19.131 23.8248 19.0747 23.7476 19.0343C23.6705 18.9939 23.5857 18.9703 23.4988 18.9649L21.538 18.56V17.0894H29.8715V18.56L28.1451 18.9649Z" fill="#C93112"/>
<path d="M142.706 220.292C142.888 220.266 143.054 220.175 143.175 220.037C143.287 219.899 143.34 219.723 143.324 219.546V207.76C143.314 206.527 143.392 205.295 143.559 204.073C143.692 203.138 144.011 202.239 144.496 201.43C145.013 200.651 145.688 199.99 146.479 199.49C147.546 198.854 148.674 198.325 149.846 197.913L150.549 199.362C149.859 199.8 149.21 200.299 148.61 200.854C148.122 201.3 147.724 201.836 147.438 202.432C147.16 203.077 146.973 203.759 146.884 204.456C146.772 205.376 146.722 206.301 146.734 207.227V219.546C146.732 219.728 146.784 219.906 146.884 220.058C146.942 220.127 147.013 220.183 147.094 220.224C147.174 220.264 147.262 220.287 147.352 220.292L149.313 220.697V222.168H140.98V220.697L142.706 220.292Z" fill="#C93112"/>
<path d="M137.101 29.5362C136.414 30.7703 135.409 31.7983 134.191 32.5141C132.974 33.2298 131.587 33.6072 130.174 33.6072C128.761 33.6072 127.375 33.2298 126.157 32.5141C124.939 31.7983 123.934 30.7703 123.247 29.5362C121.127 29.5362 119.094 30.3782 117.596 31.8771C116.097 33.376 115.255 35.409 115.255 37.5287C115.255 46.3526 127.83 51.0842 130.174 56.711C132.54 51.0842 145.094 46.3526 145.094 37.5287C145.096 36.4784 144.892 35.4378 144.491 34.4668C144.09 33.4958 143.502 32.6136 142.759 31.8709C142.016 31.1281 141.134 30.5395 140.163 30.1388C139.192 29.7382 138.151 29.5333 137.101 29.5362V29.5362Z" fill="#C93112"/>
<path d="M47.5839 210.722C46.9014 209.482 45.8986 208.448 44.6801 207.728C43.4617 207.008 42.0723 206.628 40.657 206.628C39.2417 206.628 37.8525 207.008 36.6341 207.728C35.4157 208.448 34.4127 209.482 33.7301 210.722C31.6104 210.722 29.5775 209.88 28.0786 208.381C26.5797 206.882 25.7375 204.849 25.7375 202.73C25.7375 193.884 38.3125 189.153 40.657 183.547C43.0228 189.153 55.5765 193.884 55.5765 202.73C55.5793 203.78 55.3746 204.821 54.974 205.792C54.5733 206.763 53.9846 207.645 53.2418 208.387C52.4991 209.13 51.6169 209.719 50.646 210.119C49.675 210.52 48.6343 210.725 47.5839 210.722V210.722Z" fill="#C93112"/>
<path d="M153.619 171.271H151.488V19.9448H47.0511V17.8135H152.553L153.619 18.8792V171.271ZM17.2122 68.966V221.358L18.2778 222.424H123.78V220.292H19.3435V68.966H17.2122Z" fill="#1F1F1F"/>
<path d="M90.5295 202.177C90.9984 204.308 92.192 208.4 94.7923 209.977C95.6686 210.484 96.7057 210.637 97.6909 210.404L96.9663 202.006C94.8318 202.278 92.6754 202.335 90.5295 202.177V202.177Z" fill="#CBBD9F"/>
<path d="M89.2077 205.246C88.8297 207.792 87.65 210.151 85.8401 211.981C88.3869 212.227 90.9557 212.112 93.4704 211.64C91.3939 210.027 89.8979 207.783 89.2077 205.246V205.246Z" fill="#C93112"/>
<path d="M84.6046 201.111C82.8644 200.682 81.1666 200.097 79.532 199.363C78.2531 201.366 76.2496 205.416 77.1022 208.144C77.8268 210.425 79.9156 210.68 81.6633 211.171C85.926 211.533 87.2901 205.672 87.5032 201.707C86.5228 201.622 85.585 201.409 84.6046 201.111Z" fill="#CBBD9F"/>
<path d="M69.3433 203.114H68.6613C70.4906 205.236 72.6496 207.049 75.0553 208.485C74.6668 205.718 75.2065 202.899 76.59 200.471C74.47 202.014 71.9589 202.93 69.3433 203.114V203.114Z" fill="#C93112"/>
<path d="M76.5053 197.871C74.6206 196.766 72.8375 195.497 71.1769 194.077L66.1896 199.448C66.815 200.218 67.6893 200.746 68.6619 200.94C71.4753 201.366 74.7149 199.235 76.5053 197.871Z" fill="#CBBD9F"/>
<path d="M83.1124 198.169C82.9419 197.956 82.7288 197.828 82.6009 197.658C78.0824 192.756 77.0167 185.04 77.4856 179.882C77.5934 178.862 77.5934 177.833 77.4856 176.813C76.7395 177.1 75.9353 177.202 75.1412 177.111C74.3739 184.06 74.8854 194.461 83.1124 198.169Z" fill="#2D6B67"/>
<path d="M75.4824 193.821C73.2929 189.171 72.3949 184.018 72.8822 178.902C72.3402 179.121 71.7617 179.237 71.177 179.243H71.0492C70.0261 183.036 71.0066 190.326 75.4824 193.821Z" fill="#2D6B67"/>
<path d="M68.6616 180.181C68.698 179.676 68.7836 179.176 68.9173 178.689C68.3488 178.421 67.8561 178.016 67.4839 177.51C67.1117 177.004 66.8717 176.412 66.786 175.79C65.5711 176.728 65.1022 179.072 66.4023 179.882C67.0892 180.268 67.8981 180.375 68.6616 180.181V180.181Z" fill="#2D6B67"/>
<path d="M68.7893 175.321C68.7893 176.877 71.3682 177.9 73.052 176.259C72.3425 175.762 71.7893 175.073 71.4571 174.272C71.125 173.472 71.0276 172.594 71.1764 171.74C69.855 172.039 68.7893 172.806 68.7893 175.321Z" fill="#2D6B67"/>
<path d="M94.664 200.13C97.7544 199.789 97.6479 197.573 95.2182 197.232C91.7363 197.017 88.4502 195.548 85.968 193.097C81.9398 188.834 82.8775 182.866 82.771 177.367C82.6431 171.272 80.6396 168.671 76.6327 168.671C75.7141 168.778 74.8646 169.211 74.2387 169.892C73.6127 170.573 73.2521 171.456 73.2225 172.38C73.2097 172.833 73.3215 173.28 73.5456 173.673C73.7696 174.067 74.0974 174.391 74.4932 174.611C74.8891 174.831 75.3376 174.938 75.7901 174.92C76.2425 174.903 76.6814 174.761 77.059 174.511C76.869 173.977 76.6264 173.463 76.3344 172.977C75.5458 171.89 77.3147 170.611 78.1246 171.826C79.5349 174.306 80.0752 177.187 79.6593 180.01C79.3183 183.761 79.9149 191.434 84.2203 196.123C85.5559 197.523 87.1856 198.608 88.9916 199.301C90.7977 199.994 92.7351 200.277 94.664 200.13V200.13Z" fill="#2D6B67"/>
<path d="M109.286 140.665C108.391 146.74 103.744 150.235 97.5207 150.768C94.5887 151.039 91.8369 152.302 89.7198 154.349L91.3824 162.533C100.888 160.956 108.433 155.031 114.017 144.928C112.154 143.861 110.541 142.407 109.286 140.665V140.665Z" fill="#2D6B67"/>
<path d="M122.031 138.321H117.768V176.259H122.031V138.321Z" fill="#CBBD9F"/>
<path d="M117.768 122.037C122.862 122.037 121.263 122.037 122.031 122.037V102.087C120.851 104.584 119.423 106.954 117.768 109.164V122.037Z" fill="#CBBD9F"/>
<path d="M105.704 130.179C106.812 125.703 104.511 121.057 99.6512 117.604C99.0971 118.457 98.6281 119.054 98.415 119.395C98.3238 120.986 97.6603 122.491 96.5469 123.631C95.4335 124.772 93.9452 125.472 92.3565 125.602C90.7678 125.732 89.1858 125.283 87.9021 124.338C86.6183 123.393 85.7194 122.016 85.3711 120.46L81.4493 121.995C82.0461 138.214 102.571 142.818 105.704 130.179Z" fill="#C93112"/>
<path d="M68.3207 124.381C63.4186 131.884 50.7156 154.902 66.3597 172.209C66.7262 171.355 67.3506 170.637 68.1456 170.155C68.9406 169.673 69.8663 169.453 70.793 169.523C71.3166 168.701 72.0213 168.009 72.8533 167.501C73.6853 166.993 74.6226 166.681 75.5934 166.591C76.5641 166.5 77.5428 166.633 78.4544 166.979C79.366 167.324 80.1865 167.874 80.8531 168.586C81.7269 159.527 86.4799 153.155 91.5099 150.469C85.3041 149.297 79.6621 146.1 75.4663 141.38C71.2705 136.66 68.7576 130.682 68.3207 124.381V124.381Z" fill="#CBBD9F"/>
<path d="M65.763 124.381C64.4328 123.447 63.2167 122.359 62.1396 121.142C43.3624 137.83 37.4585 154.22 59.582 165.9C52.037 149.958 61.0314 132.054 65.763 124.381Z" fill="#C93112"/>
<path d="M65.1667 110.059C64.0583 114.535 66.3176 119.181 71.2198 122.634C71.7739 121.781 72.2002 121.184 72.456 120.843C72.5472 119.252 73.2107 117.747 74.324 116.606C75.4374 115.466 76.9256 114.766 78.5143 114.636C80.103 114.506 81.6851 114.955 82.9689 115.9C84.2527 116.845 85.1516 118.222 85.4999 119.778L89.4215 118.243C88.8247 101.96 68.1506 97.4837 65.1667 110.059Z" fill="#2D6B67"/>
<path d="M53.1028 118.201C48.0089 118.201 49.5861 118.201 48.8401 118.201V138.15C50.0193 135.654 51.4475 133.283 53.1028 131.074V118.201Z" fill="#CBBD9F"/>
<path d="M53.1028 63.979H48.8401V101.917H53.1028V63.979Z" fill="#CBBD9F"/>
<path d="M105.065 115.856C106.399 116.802 107.628 117.888 108.731 119.096C127.508 102.428 133.305 85.9744 111.288 74.3372C118.876 90.2797 109.839 108.183 105.065 115.856Z" fill="#2D6B67"/>
<path d="M61.5435 99.5725C62.4387 93.9458 66.5308 90.0667 73.3512 89.4699C76.2713 89.2011 79.0103 87.937 81.1093 85.8892L79.4895 77.7048C69.941 79.282 62.4386 85.2072 56.8545 95.3098C58.7047 96.3786 60.3038 97.8323 61.5435 99.5725V99.5725Z" fill="#C93112"/>
<path d="M102.209 60.0579C102.173 60.5624 102.087 61.0621 101.953 61.5499C102.517 61.8235 103.006 62.2304 103.378 62.7355C103.749 63.2406 103.992 63.8286 104.085 64.4485C105.299 63.5107 105.79 61.1023 104.426 60.3563C103.755 59.9689 102.958 59.8616 102.209 60.0579V60.0579Z" fill="#2D6B67"/>
<path d="M102.081 64.9171C102.081 63.3613 99.5024 62.3382 97.8186 63.9793C98.5281 64.4766 99.0813 65.1656 99.4135 65.9658C99.7456 66.766 99.843 67.6443 99.6942 68.4978C101.058 68.1781 102.081 67.283 102.081 64.9171Z" fill="#2D6B67"/>
<path d="M95.4739 46.4172C97.663 51.0666 98.5471 56.2237 98.0315 61.3367C98.6242 61.083 99.2624 60.9524 99.9071 60.9531C100.802 57.1593 99.8645 49.9127 95.4739 46.4172Z" fill="#2D6B67"/>
<path d="M87.7155 42.1118C87.886 42.2823 88.0991 42.4102 88.2696 42.5807C92.852 47.3763 93.8112 55.1984 93.3849 60.3562C93.2782 61.3765 93.2782 62.4051 93.3849 63.4254C94.1458 63.1384 94.9639 63.0361 95.772 63.127C96.4541 56.1788 95.9851 45.7777 87.7155 42.1118Z" fill="#2D6B67"/>
<path d="M76.2915 40.1083C74.6716 40.2788 73.9043 40.9608 73.8617 41.6002C73.8617 44.0726 79.9787 41.8773 84.9448 47.1417C89.3354 51.8734 87.95 59.2265 88.1418 62.8712C88.3976 68.9668 90.2731 71.5671 94.2375 71.5671C95.1637 71.4699 96.0235 71.0408 96.6581 70.3592C97.2927 69.6775 97.6593 68.7893 97.6902 67.8585C97.7031 67.4059 97.5913 66.9585 97.3672 66.565C97.1432 66.1716 96.8154 65.8472 96.4195 65.6273C96.0237 65.4074 95.5751 65.3004 95.1227 65.3181C94.6703 65.3357 94.2313 65.4772 93.8538 65.7272C94.0261 66.2686 94.2699 66.7847 94.5785 67.2618C94.7137 67.4988 94.7528 67.7786 94.6878 68.0436C94.6228 68.3087 94.4587 68.5387 94.2291 68.6862C93.9996 68.8338 93.7222 68.8877 93.4541 68.8368C93.186 68.7859 92.9476 68.6341 92.7881 68.4127C91.3505 65.9423 90.8086 63.0517 91.2536 60.2283C91.5946 56.4771 90.9978 48.8042 86.6925 44.1152C85.3689 42.7119 83.7474 41.6234 81.9473 40.9299C80.1472 40.2364 78.2145 39.9557 76.2915 40.1083V40.1083Z" fill="#2D6B67"/>
<path d="M94.3655 42.3676C96.2443 43.4608 98.0143 44.7312 99.6513 46.1614L104.681 40.7904C104.03 40.0293 103.146 39.5047 102.166 39.2984C99.4382 38.9148 96.1558 41.0461 94.3655 42.3676Z" fill="#CBBD9F"/>
<path d="M102.209 37.2091C100.382 35.0726 98.2232 33.2446 95.8147 31.7954C96.2104 34.5682 95.6545 37.3933 94.2375 39.8093C96.5315 38.0802 99.3365 37.1653 102.209 37.2091V37.2091Z" fill="#C93112"/>
<path d="M86.2671 39.1272C88.0042 39.538 89.691 40.1384 91.2971 40.9175C92.5759 38.7862 94.622 34.8218 93.7268 32.0937C93.0661 29.9624 91.2757 29.5574 89.1657 29.0672C85.0096 28.6835 83.6029 34.3956 83.3258 38.4878C84.3062 38.6014 85.2867 38.8146 86.2671 39.1272Z" fill="#CBBD9F"/>
<path d="M81.6627 34.9929C82.0216 32.441 83.204 30.0761 85.0302 28.2578C82.484 27.9908 79.9123 28.1058 77.4 28.5988C79.4641 30.2232 80.9572 32.4628 81.6627 34.9929V34.9929Z" fill="#C93112"/>
<path d="M77.4 37.9761C78.3781 37.8792 79.3633 37.8792 80.3413 37.9761C79.8724 35.8447 78.6362 31.7525 76.0786 30.1753C75.1869 29.6676 74.1364 29.5154 73.1373 29.7491L73.8619 38.1466C74.6079 38.1466 77.2935 37.9761 77.4 37.9761Z" fill="#CBBD9F"/>
<path d="M77.3795 53.2794C77.3795 54.068 77.3795 54.068 77.3795 54.8779C77.3795 55.1606 77.2672 55.4316 77.0673 55.6315C76.8675 55.8313 76.5965 55.9436 76.3138 55.9436C76.1749 55.9464 76.0368 55.9215 75.9076 55.8703C75.7784 55.8191 75.6608 55.7426 75.5615 55.6453C75.4623 55.5481 75.3834 55.432 75.3296 55.3039C75.2758 55.1758 75.2481 55.0382 75.2482 54.8992C75.2482 54.0893 75.2482 54.0893 75.2482 53.3007C75.2453 53.1608 75.27 53.0216 75.321 52.8913C75.372 52.7609 75.4482 52.6418 75.5451 52.5409C75.6421 52.4399 75.758 52.3591 75.8862 52.3029C76.0145 52.2468 76.1525 52.2165 76.2925 52.2137C76.5771 52.2137 76.8504 52.3253 77.0536 52.5245C77.2569 52.7238 77.3739 52.9948 77.3795 53.2794ZM93.1941 118.222C92.9989 118.421 92.8895 118.689 92.8895 118.968C92.8895 119.247 92.9989 119.515 93.1941 119.714C93.3423 119.865 93.5322 119.969 93.7395 120.011C93.9468 120.054 94.1621 120.034 94.358 119.954C94.554 119.874 94.7217 119.738 94.8397 119.562C94.9578 119.386 95.0208 119.18 95.0208 118.968C95.0208 118.756 94.9578 118.549 94.8397 118.374C94.7217 118.198 94.554 118.061 94.358 117.981C94.1621 117.901 93.9468 117.881 93.7395 117.924C93.5322 117.967 93.3423 118.071 93.1941 118.222V118.222ZM89.1233 106.201C89.1996 106.324 89.2999 106.43 89.4185 106.513C89.537 106.596 89.6713 106.653 89.8129 106.683C89.9545 106.712 90.1006 106.712 90.2423 106.683C90.384 106.654 90.5183 106.597 90.637 106.514C90.7557 106.432 90.8564 106.326 90.933 106.203C91.0095 106.08 91.0603 105.943 91.0822 105.8C91.1041 105.657 91.0966 105.511 91.0603 105.372C91.024 105.232 90.9595 105.1 90.8709 104.986C90.7938 104.87 90.6942 104.77 90.5779 104.693C90.4617 104.616 90.3311 104.563 90.1941 104.537C90.057 104.511 89.9162 104.513 89.7799 104.543C89.6435 104.572 89.5145 104.629 89.4004 104.709C89.2835 104.788 89.1834 104.89 89.106 105.008C89.0287 105.126 88.9756 105.258 88.9498 105.397C88.924 105.536 88.9261 105.678 88.9559 105.816C88.9857 105.954 89.0426 106.085 89.1233 106.201ZM79.2551 96.141C79.1193 96.0759 78.9712 96.0404 78.8206 96.0367C78.6701 96.0331 78.5205 96.0613 78.3817 96.1197C78.2429 96.178 78.118 96.2652 78.0153 96.3753C77.9126 96.4854 77.8344 96.6161 77.7859 96.7587C77.7374 96.9012 77.7196 97.0525 77.7337 97.2024C77.7479 97.3523 77.7937 97.4975 77.8681 97.6284C77.9425 97.7594 78.0437 97.8731 78.1652 97.962C78.2868 98.051 78.4258 98.1131 78.5731 98.1445C78.7045 98.1912 78.844 98.2111 78.9832 98.203C79.1225 98.1949 79.2587 98.159 79.3839 98.0974C79.5091 98.0359 79.6206 97.9498 79.712 97.8444C79.8034 97.739 79.8726 97.6164 79.9158 97.4838C80.0042 97.218 79.9845 96.9282 79.8608 96.6769C79.7372 96.4256 79.5196 96.2331 79.2551 96.141V96.141ZM71.9019 95.0114C71.7619 95.0195 71.6248 95.0552 71.4986 95.1164C71.3724 95.1777 71.2596 95.2632 71.1665 95.3682C71.0735 95.4731 71.002 95.5954 70.9563 95.728C70.9106 95.8606 70.8915 96.001 70.9001 96.141C70.9142 96.4236 71.0401 96.6891 71.2499 96.8789C71.4598 97.0688 71.7365 97.1675 72.0191 97.1534C72.3018 97.1393 72.5673 97.0134 72.7571 96.8036C72.947 96.5937 73.0456 96.317 73.0315 96.0344C73.026 95.8925 72.9924 95.7532 72.9323 95.6245C72.8723 95.4959 72.7872 95.3805 72.6819 95.2852C72.5767 95.1899 72.4536 95.1166 72.3196 95.0696C72.1857 95.0225 72.0436 95.0027 71.9019 95.0114V95.0114ZM84.2851 99.8282C84.1892 99.9377 84.1168 100.066 84.0723 100.204C84.0277 100.343 84.0121 100.489 84.0262 100.634C84.0403 100.778 84.0838 100.919 84.1542 101.046C84.2246 101.173 84.3203 101.285 84.4355 101.374C84.5506 101.463 84.6828 101.527 84.8238 101.563C84.9648 101.599 85.1116 101.606 85.2553 101.583C85.3989 101.56 85.5363 101.507 85.6591 101.429C85.7818 101.351 85.8872 101.249 85.9688 101.128C86.1407 100.905 86.2171 100.622 86.1811 100.343C86.1452 100.063 85.9999 99.8091 85.7771 99.6364C85.5536 99.4645 85.2711 99.3882 84.9915 99.4242C84.7118 99.4601 84.4578 99.6054 84.2851 99.8282V99.8282ZM93.3007 113C93.5688 112.916 93.7942 112.732 93.9293 112.485C94.0644 112.239 94.0988 111.95 94.0254 111.679C93.9463 111.407 93.7625 111.178 93.5147 111.043C93.2669 110.907 92.9753 110.875 92.704 110.954C92.568 110.991 92.4409 111.054 92.3302 111.141C92.2196 111.228 92.1276 111.337 92.0599 111.46C91.9922 111.584 91.9502 111.719 91.9363 111.86C91.9225 112 91.9371 112.141 91.9793 112.275C92.0184 112.41 92.0838 112.535 92.1714 112.644C92.259 112.753 92.3671 112.844 92.4898 112.911C92.6126 112.979 92.7474 113.021 92.8865 113.036C93.0256 113.052 93.1663 113.039 93.3007 113V113ZM65.38 97.3345C65.0973 97.3345 64.8262 97.4468 64.6264 97.6467C64.4265 97.8465 64.3143 98.1176 64.3143 98.4002C64.3143 98.6829 64.4265 98.9539 64.6264 99.1538C64.8262 99.3536 65.0973 99.4659 65.38 99.4659C65.6609 99.4604 65.9288 99.3464 66.1275 99.1477C66.3261 98.9491 66.4402 98.6811 66.4456 98.4002C66.4456 98.1176 66.3333 97.8465 66.1334 97.6467C65.9336 97.4468 65.6626 97.3345 65.38 97.3345V97.3345ZM94.6648 188.024C94.9494 188.018 95.2204 187.901 95.4197 187.698C95.6189 187.495 95.7305 187.221 95.7305 186.937C95.7305 186.148 95.7305 186.148 95.7305 185.338C95.7277 185.198 95.6974 185.06 95.6412 184.932C95.5851 184.804 95.5042 184.688 95.4033 184.591C95.3023 184.494 95.1833 184.418 95.053 184.367C94.9226 184.316 94.7834 184.291 94.6434 184.294C94.5045 184.294 94.367 184.322 94.2389 184.375C94.1108 184.429 93.9947 184.508 93.8974 184.607C93.8001 184.706 93.7236 184.824 93.6723 184.953C93.6211 185.083 93.5963 185.221 93.5991 185.36C93.5991 186.169 93.5991 186.169 93.5991 186.958C93.5991 187.241 93.7113 187.512 93.9112 187.712C94.111 187.911 94.3821 188.024 94.6648 188.024ZM77.7631 121.952C77.8651 121.856 77.9463 121.74 78.0019 121.612C78.0574 121.484 78.086 121.346 78.086 121.206C78.086 121.066 78.0574 120.928 78.0019 120.799C77.9463 120.671 77.8651 120.555 77.7631 120.46C77.6641 120.36 77.5462 120.281 77.4163 120.226C77.2865 120.172 77.1472 120.145 77.0066 120.145C76.8659 120.145 76.7265 120.172 76.5966 120.226C76.4668 120.281 76.3489 120.36 76.2498 120.46C76.0546 120.659 75.9452 120.927 75.9452 121.206C75.9452 121.485 76.0546 121.753 76.2498 121.952C76.4337 122.12 76.671 122.219 76.9203 122.231C77.1696 122.243 77.4151 122.166 77.6139 122.016L77.7631 121.952ZM91.7022 144.033C91.9708 144.122 92.2636 144.103 92.5183 143.979C92.7731 143.856 92.9697 143.638 93.0663 143.372C93.1341 143.173 93.1416 142.958 93.0877 142.755C93.0339 142.552 92.9212 142.369 92.7637 142.23C92.6062 142.09 92.411 142.001 92.2027 141.972C91.9944 141.944 91.7822 141.977 91.593 142.069C91.4038 142.16 91.2459 142.306 91.1393 142.487C91.0326 142.668 90.9819 142.877 90.9936 143.087C91.0052 143.297 91.0787 143.499 91.2048 143.667C91.3309 143.835 91.5039 143.962 91.7022 144.033ZM99.0767 145.162C99.3575 145.14 99.6189 145.01 99.8057 144.8C99.9926 144.589 100.09 144.314 100.078 144.033C100.065 143.822 99.9905 143.621 99.863 143.453C99.7354 143.285 99.5611 143.159 99.362 143.091C99.1629 143.022 98.9479 143.014 98.7442 143.068C98.5405 143.121 98.3572 143.234 98.2175 143.391C98.0777 143.549 97.9879 143.744 97.9591 143.953C97.9304 144.162 97.9641 144.374 98.056 144.563C98.148 144.753 98.2939 144.911 98.4756 145.018C98.6572 145.124 98.8665 145.174 99.0767 145.162V145.162ZM77.7631 127.174C77.4918 127.253 77.263 127.436 77.1271 127.684C76.9912 127.932 76.9593 128.224 77.0384 128.495C77.075 128.631 77.1388 128.758 77.2258 128.869C77.3127 128.979 77.4213 129.071 77.5447 129.139C77.6682 129.207 77.804 129.249 77.9441 129.263C78.0842 129.276 78.2256 129.262 78.3599 129.22C78.6312 129.141 78.86 128.957 78.9959 128.709C79.1318 128.461 79.1637 128.17 79.0846 127.898C79.0378 127.754 78.9612 127.621 78.8598 127.507C78.7584 127.394 78.6345 127.304 78.4959 127.241C78.3574 127.179 78.2072 127.147 78.0553 127.146C77.9034 127.145 77.7531 127.176 77.6139 127.237L77.7631 127.174ZM86.7787 140.345C86.9442 140.114 87.0143 139.828 86.9747 139.546C86.935 139.264 86.7886 139.009 86.5657 138.832C86.3376 138.668 86.0548 138.598 85.7767 138.638C85.4985 138.678 85.2466 138.824 85.0737 139.045C84.9897 139.157 84.9286 139.285 84.8939 139.42C84.8592 139.556 84.8515 139.697 84.8713 139.835C84.8911 139.974 84.938 140.107 85.0093 140.228C85.0806 140.348 85.1748 140.453 85.2868 140.537C85.4881 140.66 85.7238 140.713 85.9583 140.69C86.1928 140.667 86.4134 140.569 86.587 140.409L86.7787 140.345ZM81.6636 135.464C81.8952 135.301 82.0537 135.054 82.1055 134.775C82.1572 134.496 82.0981 134.208 81.9406 133.973C81.7738 133.745 81.5267 133.59 81.2495 133.539C80.9723 133.487 80.686 133.543 80.4487 133.695C80.2171 133.859 80.0584 134.106 80.0066 134.385C79.9549 134.664 80.0141 134.952 80.1716 135.187C80.3162 135.385 80.5244 135.527 80.7611 135.589C80.9979 135.651 81.2488 135.63 81.4717 135.528L81.6636 135.464ZM105.684 142.839C105.966 142.839 106.238 142.727 106.437 142.527C106.637 142.327 106.75 142.056 106.75 141.773C106.744 141.492 106.63 141.224 106.431 141.026C106.233 140.827 105.965 140.713 105.684 140.708C105.401 140.708 105.13 140.82 104.93 141.02C104.731 141.22 104.618 141.491 104.618 141.773C104.598 142.036 104.676 142.298 104.838 142.506C104.999 142.715 105.232 142.856 105.492 142.903L105.684 142.839ZM139.786 177.431C138.035 180.87 135.69 183.973 132.859 186.596L131.239 186.425L126.635 179.797L127.104 178.219C128.05 177.803 128.825 177.074 129.299 176.155C129.772 175.235 129.917 174.182 129.707 173.169C129.498 172.157 128.947 171.246 128.148 170.591C127.348 169.935 126.348 169.573 125.314 169.566V177.282L124.248 178.347H117.854L116.788 177.282V170.12C115.108 170.824 113.738 172.111 112.931 173.744L111.417 174.042C111.06 173.814 110.767 173.498 110.566 173.125C110.364 172.753 110.261 172.334 110.266 171.911C110.266 170.355 111.545 169.183 107.645 166.412C107.508 166.313 107.397 166.183 107.321 166.033C107.244 165.883 107.204 165.717 107.204 165.549C107.204 165.38 107.244 165.214 107.321 165.064C107.397 164.914 107.508 164.784 107.645 164.685C108.495 164.13 109.221 163.404 109.776 162.554C110.151 161.91 110.265 161.148 110.096 160.423C109.939 159.663 110.02 158.874 110.33 158.163C110.584 157.661 110.967 157.235 111.439 156.927L112.952 157.226C113.761 158.857 115.13 160.143 116.81 160.849V148.061C111.673 156.416 104.448 162.447 94.7713 164.302C95.7174 164.159 96.6836 164.231 97.5984 164.511C98.5132 164.791 99.3535 165.273 100.057 165.922C101.443 167.776 100.057 170.312 101.208 171.101C101.345 171.2 101.456 171.329 101.532 171.479C101.609 171.629 101.649 171.795 101.649 171.964C101.649 172.132 101.609 172.299 101.532 172.449C101.456 172.599 101.345 172.728 101.208 172.827C101.754 172.958 102.283 173.151 102.785 173.403L102.934 173.552L103.062 173.722C103.191 173.934 103.243 174.183 103.208 174.428C103.173 174.673 103.053 174.898 102.87 175.065C102.646 175.195 102.445 175.361 102.274 175.555C101.79 176.222 101.549 177.034 101.592 177.857L103.489 178.411L104.064 180.031C103.297 181.139 102.593 182.163 101.933 182.994C101.104 184.194 100.551 185.562 100.313 187.001C100.313 188.621 101.89 190.091 100.995 193.118C100.632 194.246 100.108 195.316 99.439 196.293C99.8373 196.729 100.101 197.271 100.2 197.853C100.298 198.435 100.226 199.033 99.9932 199.576L101.165 200.492L102.061 211C101.293 212.215 101.379 212.087 101.336 212.108C94.9553 214.717 87.8404 214.9 81.3342 212.622C74.8279 210.345 69.3803 205.765 66.0194 199.746L66.1686 198.467L72.2429 191.924C70.5308 188.971 69.6266 185.619 69.6213 182.205C69.0254 182.318 68.4123 182.303 67.8228 182.16C67.2332 182.018 66.6809 181.751 66.2028 181.378C65.7246 181.004 65.3316 180.533 65.0501 179.996C64.7685 179.459 64.6049 178.868 64.57 178.262C64.5174 177.318 64.719 176.377 65.1539 175.537C65.5887 174.697 66.2409 173.99 67.0424 173.488C65.758 172.104 64.6023 170.606 63.5896 169.012C52.7836 164.003 43.7467 156.096 45.7076 144.31V117.987C43.2992 117.497 41.4449 116.368 41.4449 113.895C41.4338 113.393 41.5434 112.896 41.7645 112.446C41.1893 109.807 41.0668 107.09 41.4022 104.411C40.4857 102.279 41.9351 99.8496 45.6649 99.4446V78.7491C44.6309 78.7563 43.6306 79.118 42.8311 79.7736C42.0316 80.4293 41.4811 81.3394 41.2716 82.352C41.0621 83.3646 41.2062 84.4184 41.68 85.3375C42.1537 86.2567 42.9283 86.9855 43.8745 87.4024V88.6812L44.3008 88.9796L39.8464 95.6721L38.2052 95.8426C35.3859 93.206 33.049 90.0973 31.2996 86.6565C29.583 82.9228 28.6942 78.8621 28.6942 74.7528C28.6942 70.6435 29.583 66.5828 31.2996 62.8492C33.0496 59.415 35.3866 56.3134 38.2052 53.6844L39.8464 53.8549L44.3008 60.526L43.6188 60.9949L43.832 62.1032C43.1569 62.3959 42.5635 62.8489 42.1034 63.423C41.6432 63.9971 41.3302 64.675 41.1916 65.3975C41.053 66.1201 41.0929 66.8656 41.3079 67.5692C41.5229 68.2729 41.9064 68.9134 42.4252 69.4351C43.276 70.2783 44.4244 70.7529 45.6223 70.7565V63.041L46.6879 61.9753H53.082L54.1477 63.041V70.2024C55.8354 69.5101 57.2088 68.2202 58.0054 66.5791L59.5401 66.2807C60.0018 66.5996 60.3815 67.0232 60.6483 67.5169C61.7779 69.7761 59.1138 70.9271 63.2913 73.911C63.4277 74.0098 63.5387 74.1395 63.6153 74.2895C63.6919 74.4396 63.7319 74.6057 63.7319 74.7742C63.7319 74.9426 63.6919 75.1087 63.6153 75.2587C63.5387 75.4088 63.4277 75.5385 63.2913 75.6373C62.0977 76.4899 60.4565 77.7687 60.4565 79.3033C60.4565 80.3476 61.3304 81.9675 59.5401 83.2463L58.0054 82.9479C57.2024 81.3116 55.8311 80.0236 54.1477 79.3246V92.1127C59.2843 83.7578 66.5096 77.7261 76.186 75.8718C73.6923 75.9784 70.9854 75.5094 70.3673 73.0797C69.941 71.4599 70.6231 69.6909 69.7492 69.0728C69.6086 68.977 69.4934 68.8482 69.4139 68.6978C69.3343 68.5473 69.2927 68.3798 69.2927 68.2096C69.2927 68.0394 69.3343 67.8718 69.4139 67.7213C69.4934 67.5709 69.6086 67.4422 69.7492 67.3464C69.1635 67.2159 68.6024 66.9928 68.0868 66.6856C67.9634 66.5737 67.8678 66.4344 67.8079 66.2788C67.7481 66.1233 67.7257 65.9559 67.7422 65.7901C67.7588 65.6243 67.814 65.4647 67.9034 65.3241C67.9929 65.1835 68.1141 65.0658 68.2572 64.9806C68.6354 64.6534 68.931 64.2416 69.1199 63.7786C69.3087 63.3157 69.3856 62.8147 69.3443 62.3164L67.4473 61.7622L66.8719 60.1424C68.3532 58.3483 69.5467 56.3351 70.4099 54.1746C70.6006 53.5857 70.6006 52.9518 70.4099 52.3629C69.711 51.0032 69.433 49.466 69.6115 47.9475C69.7899 46.4291 70.4166 44.9982 71.4117 43.8375C71.0099 43.4039 70.7418 42.8635 70.6397 42.2813C70.5376 41.699 70.6059 41.0996 70.8362 40.5552L69.6854 39.6387L68.7688 29.1311C69.5574 27.9163 69.4509 28.0441 69.5148 28.0228C75.8924 25.4155 83.0039 25.2334 89.5065 27.5109C96.0092 29.7884 101.453 34.3679 104.81 40.3847L104.682 41.6635L98.6077 48.2068C100.304 51.1655 101.2 54.5152 101.208 57.9258C101.804 57.8126 102.417 57.8278 103.007 57.9705C103.596 58.1133 104.148 58.3801 104.627 58.7534C105.105 59.1266 105.498 59.5976 105.779 60.1348C106.061 60.6721 106.225 61.2632 106.259 61.8688C106.314 62.8109 106.116 63.7506 105.685 64.5901C105.254 65.4297 104.606 66.1385 103.808 66.643C105.145 68.0238 106.364 69.5138 107.453 71.0975C118.302 76.1275 127.275 84.0349 125.314 95.8V122.463C127.722 122.953 129.576 124.083 129.576 126.555C129.58 127.059 129.463 127.556 129.235 128.005C129.811 130.643 129.933 133.36 129.598 136.04C130.514 138.171 129.065 140.601 125.335 141.006V161.701C126.369 161.694 127.369 161.333 128.169 160.677C128.968 160.021 129.519 159.111 129.728 158.099C129.938 157.086 129.794 156.032 129.32 155.113C128.846 154.194 128.072 153.465 127.125 153.048L126.486 152.068L126.656 151.471L131.132 144.779L132.752 144.608C135.584 147.238 137.929 150.348 139.679 153.794C141.354 157.524 142.21 161.57 142.187 165.658C142.165 169.747 141.266 173.783 139.551 177.495L139.786 177.431ZM54.169 73.5912H59.9237C59.1464 72.707 58.7149 71.5715 58.7088 70.3942C58.6842 69.9612 58.6842 69.5271 58.7088 69.0941C57.5977 70.6953 55.9491 71.8448 54.0625 72.3337L54.169 73.5912ZM54.169 76.9588C55.8435 77.3681 57.3396 78.3106 58.4317 79.6443C58.3807 78.9233 58.4856 78.1998 58.7394 77.5231C58.9932 76.8464 59.3899 76.2322 59.9024 75.7226H54.169V76.9588ZM116.682 166.646H111.012C111.532 167.155 111.934 167.772 112.188 168.453C112.442 169.135 112.543 169.864 112.483 170.589C113.579 169.26 115.074 168.319 116.746 167.904L116.682 166.646ZM116.682 163.279C114.805 162.78 113.166 161.632 112.057 160.039C112.057 160.444 112.057 160.849 112.057 161.339C112.063 162.512 111.63 163.646 110.842 164.515H116.596L116.682 163.279ZM109.179 74.2733C115.573 87.5943 110.799 103.366 102.977 115.813C104.319 116.749 105.549 117.836 106.643 119.053C125.314 102.45 131.239 86.0171 109.179 74.2733V74.2733ZM118.813 109.228V122.016C122.372 122.016 122.436 122.016 123.076 122.016V102.215C121.899 104.693 120.471 107.043 118.813 109.228ZM98.4587 118.968C98.4587 89.7043 60.4565 83.0331 61.373 102.599C61.9019 103.557 62.3716 104.546 62.7796 105.562C69.1737 96.5459 83.262 100.809 87.8231 111.06C88.9177 113.552 89.4699 116.247 89.4429 118.968C89.4404 119.86 89.7036 120.734 90.1989 121.476C90.6942 122.219 91.3992 122.797 92.2243 123.138C93.0494 123.478 93.9572 123.566 94.8321 123.389C95.707 123.211 96.5093 122.778 97.1371 122.144C97.5588 121.73 97.8932 121.235 98.1202 120.69C98.3472 120.144 98.4623 119.559 98.4587 118.968V118.968ZM93.9614 125.596C92.4748 125.578 91.0372 125.062 89.8782 124.131C88.7192 123.2 87.9055 121.907 87.5673 120.46L83.6457 121.994C83.7134 125.254 84.7605 128.418 86.6509 131.074C88.0177 132.978 89.802 134.544 91.867 135.652C93.932 136.76 96.2232 137.381 98.5652 137.468C107.56 137.468 113.165 125.575 101.911 117.582C101.336 118.435 100.888 119.032 100.654 119.351C100.56 121.055 99.8117 122.657 98.5643 123.821C97.3168 124.985 95.6674 125.621 93.9614 125.596V125.596ZM69.0885 122.655C69.664 121.803 70.0903 121.206 70.3247 120.886C70.4083 119.287 71.0681 117.772 72.1821 116.621C73.2961 115.471 74.7891 114.762 76.3849 114.627C77.9807 114.492 79.5714 114.939 80.863 115.886C82.1547 116.833 83.0598 118.215 83.4112 119.778L87.3329 118.243C87.2745 114.982 86.2265 111.816 84.3278 109.164C82.9665 107.259 81.1865 105.692 79.1246 104.584C77.0628 103.475 74.7741 102.855 72.4348 102.77C63.3765 102.77 57.7923 114.662 69.0885 122.655ZM62.1829 118.179H54.169V128.324C56.8662 125.171 59.7865 122.215 62.9075 119.479C62.616 119.068 62.3594 118.633 62.1403 118.179H62.1829ZM72.4348 121.27C72.2763 126.764 73.8025 132.176 76.8084 136.778C79.8144 141.38 84.1562 144.953 89.2512 147.016C92.2202 148.248 95.4163 148.836 98.6291 148.743H99.3963C105.79 148.167 109.84 144.31 109.52 137.681C109.009 136.722 108.54 135.72 108.114 134.719C103.851 140.622 96.1993 141.006 89.8479 136.999C87.2082 135.337 85.046 133.017 83.5738 130.267C82.1015 127.516 81.3698 124.431 81.4503 121.312C81.3718 120.17 80.8628 119.101 80.026 118.32C79.1893 117.538 78.0872 117.104 76.9426 117.104C75.7979 117.104 74.6958 117.538 73.8591 118.32C73.0224 119.101 72.5133 120.17 72.4348 121.312V121.27ZM108.774 122.058H116.724V111.913C114.027 115.067 111.107 118.023 107.986 120.758C108.263 121.174 108.513 121.609 108.732 122.058H108.774ZM102.38 68.0923C101.952 68.9163 101.302 69.6042 100.504 70.0787C99.7052 70.5531 98.7903 70.7953 97.8618 70.7779C97.375 71.617 96.6883 72.3227 95.8628 72.8321C95.0372 73.3416 94.0986 73.639 93.1303 73.6978C91.1608 73.7836 89.2375 73.0862 87.7805 71.7583C87.0559 79.1967 83.6244 86.1449 77.273 89.7469C81.7743 90.6393 85.9964 92.5968 89.5859 95.4558C93.1754 98.3148 96.0278 101.992 97.9045 106.18C99.258 109.231 100.093 112.487 100.377 115.813C101.812 113.631 103.122 111.368 104.299 109.036C111.481 94.8835 112.973 79.7508 102.444 68.0923H102.38ZM92.3415 58.1815C92.2121 59.919 92.1765 61.6621 92.235 63.4034C92.9944 63.1106 93.814 63.0082 94.6221 63.105C95.3468 56.1354 94.6221 47.7592 89.1445 43.5178C88.3741 42.9197 87.5286 42.4252 86.6295 42.0472C90.7217 46.0328 92.4055 52.4908 92.4055 58.1815H92.3415ZM75.9941 40.0863H75.2482C74.3956 40.0863 73.2234 40.4273 72.8397 41.1946C72.7473 41.3962 72.7243 41.6227 72.7744 41.8387C72.8246 42.0547 72.945 42.248 73.1168 42.3882C73.5224 42.7221 74.021 42.9231 74.5448 42.9637C78.0558 43.1902 81.3585 44.7087 83.8161 47.2264C86.257 50.2144 87.428 54.0409 87.0772 57.8831C87.0772 60.8244 86.4591 66.9201 88.8462 69.904C89.3685 70.5135 90.0256 70.9927 90.7657 71.3035C91.5057 71.6144 92.3081 71.7482 93.1089 71.6943C93.7774 71.6234 94.4153 71.3771 94.958 70.9804C95.5007 70.5837 95.9289 70.0506 96.1993 69.4351C97.3929 66.8562 95.1976 64.3838 92.64 65.6839C92.8271 66.2471 93.0849 66.7842 93.4072 67.2824C93.5002 67.3979 93.5682 67.5315 93.6066 67.6747C93.6451 67.8179 93.6532 67.9676 93.6305 68.1141C93.6077 68.2606 93.5547 68.4008 93.4747 68.5257C93.3948 68.6505 93.2896 68.7574 93.166 68.8393C93.0424 68.9212 92.9031 68.9764 92.7569 69.0014C92.6108 69.0264 92.461 69.0206 92.3172 68.9844C92.1734 68.9482 92.0388 68.8824 91.9219 68.7912C91.805 68.7 91.7084 68.5853 91.6383 68.4547C90.228 65.9741 89.6878 63.0932 90.1036 60.2703C90.3106 57.408 90.0661 54.5311 89.3791 51.7448C87.674 44.5835 83.3473 40.1076 76.0581 40.0863H75.9941ZM80.747 84.0988C83.6691 80.4449 85.3956 75.98 85.6917 71.3107C83.7857 73.1175 81.4881 74.4597 78.978 75.2324L80.747 84.0988ZM100.995 61.5917C101.56 61.8588 102.05 62.2611 102.421 62.7631C102.793 63.265 103.035 63.851 103.126 64.469C103.509 64.131 103.809 63.7087 104.001 63.2353C104.193 62.7619 104.273 62.2504 104.235 61.7409C104.235 60.3555 102.593 59.6095 101.229 59.9719C101.059 61.8048 100.824 61.4638 101.059 61.5917H100.995ZM96.7321 63.9362C97.4413 64.4547 97.9936 65.1589 98.3283 65.9712C98.663 66.7835 98.7671 67.6723 98.6291 68.5399C99.3861 68.3215 100.039 67.8364 100.466 67.1742C100.893 66.5121 101.066 65.7177 100.952 64.9379C101.059 63.2755 98.3307 62.4016 96.7961 63.9362H96.7321ZM98.416 52.9597C97.7905 50.3613 96.3397 48.0356 94.2812 46.3312C96.5239 50.9643 97.4316 56.1306 96.9027 61.2507C97.5125 61.0106 98.1662 60.9017 98.821 60.931C99.3143 58.2825 99.1976 55.5564 98.4799 52.9597H98.416ZM92.1925 42.3029C94.0792 43.4003 95.8501 44.6856 97.4782 46.1394L102.529 40.6831C99.9719 37.7205 95.4321 39.9584 92.2563 42.3455L92.1925 42.3029ZM92.1925 39.7453C94.456 38.0179 97.2312 37.0953 100.078 37.1237C98.2554 34.9718 96.0961 33.1293 93.6843 31.6675C94.1323 34.4653 93.6057 37.3321 92.1925 39.7879V39.7453ZM84.349 29.6853C82.2176 31.3904 81.4078 35.5892 81.2159 38.3386C82.1964 38.5091 83.1768 38.7222 84.1359 38.9567C85.3876 39.2318 86.6086 39.6316 87.7805 40.1503L89.1872 40.747C90.0797 39.3186 90.7954 37.787 91.3185 36.1859C92.3416 32.861 91.83 30.3673 88.5051 29.2377C87.8287 28.9552 87.0909 28.8518 86.3628 28.9377C85.6348 29.0235 84.9411 29.2957 84.349 29.7279V29.6853ZM75.2268 28.4917C77.2965 30.111 78.7909 32.3526 79.4895 34.8858C79.8434 32.2941 81.0508 29.8942 82.921 28.0655C80.3502 27.8281 77.7585 27.9645 75.2268 28.4704V28.4917ZM71.7954 38.1681C73.9169 37.9144 76.0574 37.8573 78.1894 37.9976C77.273 33.9693 75.1415 28.982 71.0707 29.6853L71.7954 38.1681ZM85.7557 68.135C83.6244 61.3786 87.0346 53.6204 82.3243 48.5691C80.1953 46.4615 77.3659 45.2099 74.3742 45.0524C74.0052 45.0094 73.6412 44.9309 73.2872 44.8179C73.0741 45.1163 72.9036 45.4147 72.7544 45.6705C72.5154 46.2809 72.4636 46.9486 72.6053 47.5887C73.2021 48.8249 78.5091 47.2477 80.9388 50.2955C81.1131 50.5164 81.193 50.7972 81.161 51.0766C81.1291 51.3561 80.9879 51.6116 80.7683 51.7875C80.6614 51.8777 80.5376 51.9455 80.4041 51.9869C80.2705 52.0283 80.1299 52.0425 79.9908 52.0286C79.8516 52.0146 79.7167 51.9729 79.594 51.9059C79.4713 51.8388 79.3633 51.7478 79.2765 51.6383C77.7419 49.7414 74.0971 50.8284 71.9658 49.784C72.7253 51.279 72.9075 53.0014 72.4774 54.6222C71.7802 56.5383 70.7799 58.3301 69.5148 59.9292C73.5004 61.1015 72.2216 60.7392 74.5234 61.3359C75.8239 61.5251 77.0279 62.1308 77.9549 63.0623C78.2922 63.515 78.4745 64.0644 78.4745 64.6289C78.4745 65.1934 78.2922 65.7428 77.9549 66.1954C77.7954 66.4168 77.5571 66.5686 77.289 66.6195C77.0209 66.6704 76.7436 66.6165 76.514 66.469C76.2845 66.3214 76.1202 66.0914 76.0552 65.8264C75.9902 65.5614 76.0294 65.2815 76.1646 65.0445C76.216 64.9564 76.2588 64.8636 76.2925 64.7674C76.3321 64.7034 76.3531 64.6296 76.3531 64.5543C76.3531 64.479 76.3321 64.4052 76.2925 64.3412C74.8009 63.5469 73.1874 63.0067 71.5183 62.7426C71.4605 63.5993 71.2051 64.4309 70.7722 65.1724C71.3312 65.2447 71.8972 65.2447 72.4561 65.1724C72.7387 65.1526 73.0176 65.2459 73.2314 65.4318C73.4453 65.6176 73.5765 65.8808 73.5963 66.1635C73.6161 66.4461 73.5228 66.725 73.3369 66.9388C73.151 67.1527 72.8879 67.284 72.6053 67.3037C72.1802 67.3486 71.7515 67.3486 71.3264 67.3037C72.5626 68.4334 72.3921 69.8187 72.3921 71.3533C72.3921 72.4829 72.5627 72.9518 73.6496 73.2502C74.3483 73.4106 75.0644 73.4822 75.781 73.4634C77.7218 73.3332 79.6133 72.7951 81.3321 71.8843C83.0509 70.9735 84.5582 69.7105 85.7557 68.1776V68.135ZM54.7019 95.2458C56.5662 96.3032 58.1745 97.7587 59.4122 99.5085C60.4353 93.1145 65.6997 89.6617 72.2003 89.3633C74.7742 88.9282 77.1619 87.7417 79.0632 85.9531L77.4221 77.6408C67.085 79.3672 59.7319 86.0171 54.7019 95.2885V95.2458ZM47.7749 101.853H52.0377V64.0001H47.7749V101.853ZM45.6436 76.4686V75.68H35.9459C36.0233 77.6394 36.3822 79.5775 37.0116 81.4346C37.0619 81.5645 37.0852 81.7032 37.0799 81.8423C37.0747 81.9815 37.041 82.118 36.9812 82.2438C36.9213 82.3695 36.8364 82.4816 36.7317 82.5734C36.627 82.6651 36.5047 82.7345 36.3722 82.7774C36.2409 82.8279 36.1007 82.8514 35.9601 82.8464C35.8195 82.8414 35.6814 82.808 35.554 82.7483C35.4266 82.6886 35.3126 82.6037 35.2188 82.4989C35.125 82.394 35.0533 82.2712 35.0081 82.138C33.3674 77.2563 33.3674 71.9722 35.0081 67.0906C35.0536 66.9572 35.1251 66.8341 35.2185 66.7285C35.3119 66.6229 35.4253 66.5369 35.5522 66.4754C35.679 66.414 35.8169 66.3783 35.9577 66.3705C36.0984 66.3627 36.2393 66.3829 36.3722 66.4299C36.5055 66.475 36.6282 66.5467 36.7331 66.6405C36.838 66.7343 36.9228 66.8483 36.9825 66.9757C37.0422 67.1031 37.0756 67.2412 37.0806 67.3819C37.0856 67.5225 37.0621 67.6626 37.0116 67.7939C36.3802 69.6506 36.0212 71.589 35.9459 73.5486H45.6436V72.7387C44.4413 72.7362 43.2622 72.4078 42.2317 71.7884C41.2012 71.1691 40.3578 70.2819 39.7915 69.2214C39.2251 68.1608 38.9569 66.9665 39.0154 65.7656C39.0738 64.5648 39.4567 63.4022 40.1233 62.4016C40.597 61.6933 41.2054 61.085 41.9137 60.6113L38.8019 55.9649C36.2895 58.3757 34.2905 61.2696 32.9249 64.4726C31.5593 67.6756 30.8555 71.1217 30.8555 74.6036C30.8555 78.0856 31.5593 81.5316 32.9249 84.7346C34.2905 87.9376 36.2895 90.8315 38.8019 93.2423L41.9137 88.596C41.2054 88.1223 40.597 87.514 40.1233 86.8056C39.468 85.8056 39.0946 84.6474 39.042 83.453C38.9895 82.2585 39.26 81.072 39.825 80.0183C40.39 78.9647 41.2286 78.0828 42.2526 77.4656C43.2766 76.8484 44.448 76.5187 45.6436 76.5112V76.4686ZM48.8406 116.005H61.2238C60.3419 113.386 60.4174 110.539 61.4369 107.97C60.0302 104.048 57.7071 99.5938 54.169 97.3132V103.068L53.1033 104.134H46.7093L45.6436 103.068V101.597C45.1917 101.618 44.7489 101.731 44.3421 101.929C43.9353 102.127 43.5731 102.406 43.2778 102.748C42.9155 103.345 43.2778 103.899 43.9172 104.283C44.1921 104.43 44.4862 104.537 44.791 104.602C46.1428 104.892 47.5221 105.035 48.9046 105.029C49.1873 105.029 49.4582 105.141 49.6581 105.341C49.858 105.541 49.9703 105.812 49.9703 106.094C49.9703 106.377 49.858 106.648 49.6581 106.848C49.4582 107.048 49.1873 107.16 48.9046 107.16C46.8269 107.243 44.7554 106.88 42.8302 106.094C42.7804 106.338 42.7871 106.589 42.85 106.829C42.9128 107.07 43.0299 107.292 43.1925 107.48C43.861 108.181 44.7633 108.613 45.7288 108.695C46.4332 108.811 47.1462 108.868 47.8602 108.865C48.1428 108.865 48.4139 108.977 48.6138 109.177C48.8136 109.377 48.9258 109.648 48.9258 109.931C48.9258 110.213 48.8136 110.485 48.6138 110.684C48.4139 110.884 48.1428 110.997 47.8602 110.997C46.1187 111.063 44.3887 110.689 42.8302 109.91C42.8142 110.308 42.9515 110.697 43.2138 110.997C44.196 111.913 45.4562 112.476 46.7945 112.595C47.0771 112.595 47.3482 112.707 47.5481 112.907C47.7479 113.107 47.8602 113.378 47.8602 113.661C47.8602 113.943 47.7479 114.214 47.5481 114.414C47.3482 114.614 47.0771 114.726 46.7945 114.726C45.6446 114.614 44.5287 114.274 43.5122 113.725C43.4864 114.058 43.5605 114.392 43.7253 114.684C44.0697 115.07 44.5114 115.357 45.0042 115.515C46.2415 115.918 47.5404 116.098 48.8406 116.048V116.005ZM47.7749 118.137V137.937C48.9633 135.486 50.3911 133.159 52.0377 130.989V118.201C48.4783 118.179 48.4144 118.201 47.7749 118.158V118.137ZM61.6928 165.943C55.2987 152.665 60.0089 136.914 67.8736 124.403C66.5313 123.467 65.3013 122.38 64.2078 121.163C45.4731 137.852 39.6972 154.22 61.6928 165.964V165.943ZM68.4065 172.124C68.8404 171.3 69.4946 170.612 70.2961 170.138C71.0977 169.664 72.0151 169.422 72.9463 169.438C73.4281 168.6 74.1108 167.894 74.933 167.384C75.7551 166.874 76.6911 166.577 77.6566 166.518C79.6261 166.433 81.5494 167.13 83.0063 168.458C83.731 161.062 87.1411 154.093 93.5139 150.469C89.0145 149.572 84.7947 147.612 81.2059 144.754C77.6172 141.896 74.7635 138.221 72.8824 134.036C71.5289 130.985 70.6933 127.729 70.4099 124.403C68.9746 126.581 67.6721 128.845 66.5095 131.18C59.3695 145.354 57.8776 160.487 68.4065 172.145V172.124ZM78.4665 182.035C78.5714 180.296 78.5714 178.552 78.4665 176.813C77.7073 177.106 76.8876 177.209 76.0794 177.111C75.3548 184.081 76.0793 192.457 81.5569 196.698C82.3373 197.293 83.1895 197.787 84.0932 198.169C80.1289 194.183 78.4665 187.747 78.4665 182.056V182.035ZM94.7927 200.13H95.5386C96.3911 200.13 97.6699 199.789 97.947 199.022C98.0395 198.82 98.0625 198.593 98.0123 198.377C97.9622 198.161 97.8417 197.968 97.6699 197.828C97.2665 197.49 96.7667 197.289 96.242 197.253C92.731 197.026 89.4282 195.507 86.9706 192.99C84.5479 189.992 83.3792 186.173 83.7096 182.333C83.7096 179.392 84.3278 173.296 81.9406 170.312C81.4184 169.703 80.7611 169.223 80.0211 168.913C79.2811 168.602 78.4788 168.468 77.6779 168.522C77.0107 168.597 76.3747 168.845 75.8326 169.241C75.2906 169.637 74.8614 170.168 74.5874 170.781C73.4152 173.36 75.5891 175.832 78.1468 174.532C77.9597 173.969 77.7019 173.432 77.3795 172.934C77.3025 172.816 77.2494 172.685 77.2233 172.547C77.1972 172.408 77.1985 172.267 77.2272 172.129C77.2559 171.992 77.3114 171.861 77.3906 171.745C77.4697 171.629 77.5709 171.529 77.6885 171.452C77.806 171.375 77.9377 171.322 78.0757 171.296C78.2138 171.27 78.3556 171.271 78.4932 171.3C78.6307 171.329 78.7612 171.384 78.8773 171.464C78.9934 171.543 79.0928 171.644 79.1698 171.761C80.5663 174.247 81.1056 177.123 80.7044 179.946C80.4763 182.808 80.7211 185.689 81.429 188.471C83.1767 195.654 87.5034 200.13 94.7927 200.151V200.13ZM90.0611 156.117C87.1227 159.764 85.3876 164.232 85.095 168.905C87.0072 167.096 89.3124 165.754 91.83 164.984L90.0611 156.117ZM69.7919 178.624C69.2294 178.354 68.7413 177.951 68.3699 177.45C67.9985 176.948 67.755 176.364 67.6605 175.747C67.2787 176.086 66.9801 176.509 66.7879 176.982C66.5957 177.455 66.515 177.966 66.5522 178.475C66.5522 179.861 68.1933 180.607 69.5787 180.244C69.8558 178.433 70.0477 178.774 69.7919 178.646V178.624ZM74.0546 176.28C73.3508 175.757 72.8026 175.052 72.4684 174.241C72.1343 173.43 72.0269 172.543 72.1577 171.676C71.4046 171.899 70.7571 172.386 70.3342 173.047C69.9114 173.709 69.7414 174.501 69.8558 175.278C69.8558 176.983 72.52 177.836 74.0546 176.301V176.28ZM72.3921 187.256C73.0002 189.857 74.4454 192.186 76.5056 193.885C74.2563 189.254 73.3483 184.086 73.8841 178.965C73.2812 179.204 72.6348 179.313 71.9871 179.285C71.5005 181.945 71.6392 184.681 72.3921 187.278V187.256ZM78.5944 197.913C76.7131 196.818 74.9489 195.532 73.3299 194.077L68.2786 199.533C70.9002 202.517 75.4826 200.279 78.5944 197.892V197.913ZM78.5944 200.471C76.319 202.191 73.5395 203.113 70.687 203.092C72.516 205.238 74.6742 207.08 77.0811 208.549C76.6485 205.745 77.2143 202.879 78.6796 200.45L78.5944 200.471ZM86.4164 210.531C88.5478 208.826 89.3577 204.627 89.5708 201.878C88.5691 201.707 87.61 201.494 86.6295 201.259C85.3788 200.981 84.1583 200.581 82.985 200.066L81.5782 199.469C80.685 200.897 79.9693 202.429 79.4469 204.03C78.4025 207.376 78.9353 209.849 82.2389 210.978C82.9275 211.284 83.6849 211.401 84.4336 211.319C85.1824 211.237 85.8959 210.957 86.5017 210.51L86.4164 210.531ZM95.5386 211.724C93.47 210.104 91.9759 207.863 91.2759 205.33C90.9316 207.925 89.7227 210.328 87.8444 212.151C90.4425 212.4 93.063 212.271 95.6239 211.767L95.5386 211.724ZM98.9702 202.048C96.8487 202.303 94.7081 202.36 92.5761 202.219C93.4926 206.247 95.6239 211.234 99.7161 210.531L98.9702 202.048ZM85.031 172.081C86.7361 177.474 85.031 182.397 86.2459 187.427C86.5968 188.965 87.3294 190.391 88.3761 191.571C89.4228 192.752 90.7498 193.65 92.235 194.183C93.9568 194.72 95.7167 195.126 97.4995 195.398C97.4995 195.206 97.734 195.036 98.0324 194.546C98.25 193.931 98.3015 193.269 98.1816 192.627C97.5635 191.391 92.2563 192.968 89.8479 189.921C89.7577 189.814 89.6899 189.69 89.6485 189.556C89.6071 189.423 89.5929 189.282 89.6068 189.143C89.6208 189.004 89.6625 188.869 89.7295 188.746C89.7966 188.624 89.8875 188.516 89.9971 188.429C90.2188 188.251 90.5013 188.167 90.7841 188.195C91.067 188.223 91.3278 188.36 91.5104 188.578C93.0237 190.496 96.6683 189.367 98.821 190.432C98.0536 188.94 97.8712 187.214 98.3094 185.594C98.9908 183.675 99.9846 181.882 101.251 180.287C97.2651 179.115 98.5652 179.477 96.2633 178.88C94.958 178.687 93.7485 178.082 92.8105 177.154C92.4764 176.7 92.2961 176.151 92.2961 175.587C92.2961 175.024 92.4764 174.475 92.8105 174.021C92.9634 173.784 93.204 173.617 93.4797 173.557C93.7554 173.497 94.0436 173.549 94.2812 173.701C94.4025 173.773 94.508 173.869 94.5913 173.983C94.6746 174.096 94.734 174.226 94.7659 174.363C94.7977 174.501 94.8015 174.643 94.7768 174.782C94.7521 174.921 94.6994 175.054 94.6221 175.172C94.5642 175.259 94.5143 175.352 94.4729 175.449C94.4333 175.513 94.4123 175.587 94.4123 175.662C94.4123 175.737 94.4333 175.811 94.4729 175.875C95.9557 176.672 97.5628 177.213 99.2259 177.474C99.2939 176.619 99.5485 175.789 99.9718 175.044C99.42 174.971 98.8612 174.971 98.3094 175.044C98.1695 175.054 98.0289 175.036 97.8959 174.991C97.7629 174.947 97.6399 174.876 97.534 174.784C97.4281 174.692 97.3414 174.58 97.2788 174.455C97.2162 174.329 97.1789 174.193 97.1691 174.053C97.1593 173.913 97.1771 173.772 97.2217 173.639C97.2662 173.506 97.3365 173.383 97.4285 173.277C97.5205 173.171 97.6325 173.085 97.758 173.022C97.8836 172.959 98.0203 172.922 98.1602 172.912C98.5782 172.868 98.9997 172.868 99.4177 172.912C98.2028 171.783 98.3733 170.397 98.3733 168.863C98.3733 167.733 98.1816 167.264 97.1159 166.966C96.4168 166.808 95.701 166.737 94.9845 166.753C93.0599 166.898 91.1869 167.445 89.487 168.359C87.7872 169.273 86.2982 170.534 85.1163 172.06L85.031 172.081ZM116.064 144.97C114.201 143.918 112.599 142.461 111.375 140.708C110.33 147.102 105.151 150.555 98.5865 150.853C96.0123 151.287 93.6241 152.473 91.7235 154.263L93.386 162.575C103.787 160.87 111.119 154.22 116.149 144.949L116.064 144.97ZM122.99 138.363H118.728V176.259H122.99V138.363ZM125.122 137.297V138.768C125.575 138.713 126.02 138.599 126.443 138.427C127.765 137.873 128.106 136.893 126.848 136.083C125.244 135.537 123.555 135.285 121.861 135.337C121.578 135.337 121.307 135.224 121.107 135.025C120.907 134.825 120.795 134.554 120.795 134.271C120.795 133.988 120.907 133.717 121.107 133.517C121.307 133.318 121.578 133.205 121.861 133.205C123.939 133.123 126.01 133.486 127.935 134.271C127.996 133.864 127.922 133.449 127.726 133.088C127.53 132.726 127.222 132.439 126.848 132.267C125.615 131.722 124.275 131.459 122.927 131.5C122.644 131.5 122.373 131.388 122.173 131.188C121.973 130.988 121.861 130.717 121.861 130.434C121.866 130.154 121.98 129.886 122.179 129.687C122.378 129.488 122.646 129.374 122.927 129.369C124.675 129.304 126.411 129.678 127.978 130.456C127.948 130.1 127.828 129.757 127.631 129.459C127.434 129.161 127.164 128.917 126.848 128.751C125.984 128.21 125.007 127.875 123.992 127.77C123.71 127.77 123.439 127.658 123.239 127.458C123.039 127.258 122.927 126.987 122.927 126.705C122.932 126.424 123.046 126.156 123.245 125.957C123.443 125.758 123.711 125.644 123.992 125.639C125.153 125.721 126.284 126.041 127.317 126.577C127.354 126.245 127.287 125.91 127.125 125.618C126.776 125.227 126.327 124.939 125.825 124.786C124.571 124.36 123.249 124.165 121.925 124.211H109.584C110.466 126.83 110.391 129.677 109.371 132.246C110.799 136.189 113.101 140.622 116.639 142.903V137.361L117.705 136.296H124.099L125.122 137.297ZM139.913 165.602C139.965 162.114 139.284 158.653 137.915 155.444C136.545 152.236 134.518 149.35 131.964 146.974L128.852 151.62C129.56 152.094 130.168 152.702 130.642 153.411C131.309 154.411 131.692 155.574 131.75 156.775C131.809 157.975 131.54 159.17 130.974 160.23C130.408 161.291 129.564 162.178 128.534 162.797C127.503 163.417 126.324 163.745 125.122 163.748V164.536H134.841C134.757 162.576 134.391 160.638 133.754 158.782C133.666 158.516 133.685 158.226 133.809 157.975C133.932 157.723 134.15 157.531 134.415 157.439C134.544 157.389 134.683 157.365 134.822 157.371C134.961 157.376 135.098 157.409 135.224 157.469C135.349 157.529 135.462 157.614 135.553 157.719C135.645 157.823 135.715 157.946 135.757 158.078C137.411 162.958 137.411 168.246 135.757 173.126C135.665 173.39 135.473 173.608 135.221 173.731C134.97 173.855 134.68 173.875 134.415 173.786C134.281 173.741 134.158 173.669 134.052 173.576C133.947 173.482 133.861 173.369 133.799 173.242C133.738 173.115 133.702 172.978 133.694 172.837C133.687 172.696 133.707 172.555 133.754 172.422C134.393 170.567 134.759 168.628 134.841 166.668H125.122V167.477C126.324 167.48 127.503 167.808 128.534 168.428C129.564 169.047 130.408 169.934 130.974 170.995C131.54 172.055 131.809 173.25 131.75 174.451C131.692 175.651 131.309 176.814 130.642 177.815C130.168 178.523 129.56 179.131 128.852 179.605L131.964 184.251C134.537 181.876 136.582 178.987 137.966 175.77C139.35 172.554 140.043 169.082 139.999 165.581L139.913 165.602Z" fill="#1F1F1F"/>
</svg>
