<svg width="172" height="239" viewBox="0 0 172 239" fill="none" xmlns="http://www.w3.org/2000/svg">
<path d="M160.462 0.288086H11.2671C5.38155 0.288086 0.610352 5.05929 0.610352 10.9449V228.343C0.610352 234.229 5.38155 239 11.2671 239H160.462C166.348 239 171.119 234.229 171.119 228.343V10.9449C171.119 5.05929 166.348 0.288086 160.462 0.288086Z" fill="#F9F1DF"/>
<path d="M26.1863 57.3021C24.2612 54.3111 21.7175 51.7674 18.7266 49.8423C21.7175 47.9172 24.2612 45.3735 26.1863 42.3826C28.1114 45.3735 30.6551 47.9172 33.6461 49.8423C30.6551 51.7674 28.1114 54.3111 26.1863 57.3021Z" fill="#C93112"/>
<path d="M145.542 178.79C147.467 181.781 150.011 184.324 153.002 186.249C150.011 188.174 147.467 190.718 145.542 193.709C143.617 190.718 141.074 188.174 138.083 186.249C141.074 184.324 143.617 181.781 145.542 178.79Z" fill="#C93112"/>
<path d="M26.1864 33.4951V34.9231H17.661V33.4951L19.6006 33.1114C19.7832 33.0822 19.9534 33.0008 20.0908 32.877C20.2028 32.7384 20.263 32.565 20.2612 32.3868V18.1707C20.2681 17.9851 20.2076 17.8034 20.0908 17.6591C19.9705 17.5234 19.8026 17.4395 19.622 17.4247L17.661 17.0197V15.5491H26.1864V17.0197L24.2042 17.4247C24.1172 17.43 24.0326 17.4537 23.9554 17.4941C23.8783 17.5345 23.8105 17.5907 23.7567 17.6591C23.6398 17.8034 23.5793 17.9851 23.5862 18.1707V25.9714L30.8753 17.4459L28.744 17.0197V15.5491H35.7775V17.0197L33.9446 17.4247C33.7938 17.4446 33.6485 17.4954 33.5182 17.5738C33.3728 17.6391 33.2424 17.7334 33.1347 17.8509L28.3391 23.2006C28.785 23.7363 29.1977 24.2986 29.5752 24.8844L30.918 27.0158L33.9019 32.1524C34.0391 32.3722 34.196 32.5791 34.3708 32.7704C34.5627 32.9234 34.7899 33.0261 35.0316 33.0688L36.3317 33.4098V34.8378H31.8986C31.5789 34.8378 31.259 34.6034 30.918 34.1345C30.4956 33.5118 30.1114 32.8641 29.7672 32.195C29.7672 32.195 27.1668 27.2928 26.911 26.8452C26.6553 26.3976 26.3995 25.9501 26.1438 25.5664L23.6927 28.3372V32.3228C23.687 32.5017 23.7479 32.6763 23.8633 32.8131C23.9949 32.9453 24.168 33.0281 24.3535 33.0475L26.1864 33.4951Z" fill="#C93112"/>
<path d="M145.542 202.618V201.169H154.068V202.618L152.128 202.98C151.952 203.01 151.789 203.092 151.659 203.215C151.599 203.281 151.553 203.358 151.524 203.442C151.495 203.527 151.483 203.616 151.489 203.705V217.921C151.476 218.104 151.529 218.285 151.638 218.433C151.758 218.568 151.926 218.652 152.107 218.667L154.068 219.051V220.543H145.542V219.051L147.503 218.667C147.593 218.662 147.681 218.639 147.762 218.598C147.842 218.558 147.914 218.502 147.972 218.433C148.081 218.285 148.134 218.104 148.121 217.921V210.12L140.832 218.646L142.963 219.051V220.543H135.93V219.051L137.763 218.667C137.919 218.643 138.071 218.593 138.21 218.518C138.346 218.447 138.468 218.353 138.573 218.241L143.39 212.891C142.937 212.356 142.517 211.794 142.132 211.207C141.748 210.589 141.301 209.843 140.811 209.076L137.805 203.961C137.675 203.736 137.518 203.528 137.337 203.343C137.15 203.194 136.931 203.091 136.697 203.044L135.376 202.725V201.275H139.83C140.128 201.275 140.448 201.51 140.789 202C141.233 202.606 141.625 203.247 141.961 203.918C141.961 203.918 144.541 208.82 144.796 209.268C145.052 209.715 145.329 210.163 145.585 210.547L148.015 207.776V203.79C148.022 203.701 148.011 203.611 147.981 203.527C147.952 203.443 147.905 203.365 147.844 203.3C147.712 203.168 147.539 203.085 147.354 203.066L145.542 202.618Z" fill="#C93112"/>
<path d="M130.623 55.704C126.784 49.7128 121.694 44.6232 115.703 40.7845C121.694 36.9458 126.784 31.8562 130.623 25.865C134.461 31.8562 139.551 36.9458 145.542 40.7845C139.551 44.6232 134.461 49.7128 130.623 55.704Z" fill="#C93112"/>
<path d="M56.0251 198.505C50.034 202.343 44.9443 207.433 41.1056 213.424C37.2669 207.433 32.1773 202.343 26.1862 198.505C32.1773 194.666 37.2669 189.576 41.1056 183.585C44.9443 189.576 50.034 194.666 56.0251 198.505Z" fill="#C93112"/>
<path d="M154.068 170.796H151.936V19.4702H47.5V17.3389H153.002L154.068 18.4045V170.796ZM17.661 68.4914V220.883L18.7267 221.949H124.229V219.818H19.7924V68.4914H17.661Z" fill="#1F1F1F"/>
<path d="M125.721 138.826C125.726 138.686 125.759 138.548 125.818 138.421C125.877 138.294 125.96 138.179 126.063 138.084C126.166 137.989 126.287 137.915 126.418 137.867C126.55 137.819 126.689 137.797 126.829 137.802H127.938V135.778H126.787C126.504 135.778 126.233 135.665 126.033 135.466C125.833 135.266 125.721 134.995 125.721 134.712C125.721 134.429 125.833 134.158 126.033 133.958C126.233 133.759 126.504 133.646 126.787 133.646H127.895V131.771H126.744C126.462 131.771 126.19 131.658 125.99 131.459C125.791 131.259 125.678 130.988 125.678 130.705C125.678 130.422 125.791 130.151 125.99 129.952C126.19 129.752 126.462 129.639 126.744 129.639H127.852V127.721L126.19 127.487C125.909 127.449 125.653 127.304 125.478 127.081C125.303 126.858 125.222 126.575 125.252 126.293C125.444 125.057 126.723 125.398 127.852 125.611V109.413C126.127 110.818 124.529 112.373 123.078 114.059C123.078 150.932 122.801 142.449 123.845 145.561C123.992 146.006 124.025 146.48 123.944 146.941C123.862 147.402 123.667 147.836 123.376 148.203C123.376 148.203 123.163 148.331 123.078 148.417C123.078 161.375 123.206 160.587 122.78 161.461C121.874 162.34 120.905 163.153 119.881 163.89C120.393 164.274 120.904 164.7 121.373 165.126C122.585 164.318 124.009 163.887 125.465 163.887C126.922 163.887 128.346 164.318 129.557 165.126C130.026 164.7 130.538 164.274 131.049 163.89C129.94 163.132 128.937 162.228 128.066 161.205C127.767 160.587 127.852 163.187 127.852 139.891H126.701C126.439 139.857 126.197 139.731 126.018 139.536C125.839 139.341 125.734 139.09 125.721 138.826Z" fill="#CBBD9F"/>
<path d="M131.135 178.81C129.006 180.384 127.124 182.266 125.55 184.394C123.988 182.256 122.104 180.373 119.966 178.81C120.731 178.281 121.445 177.682 122.098 177.02C122.098 177.02 122.225 177.02 122.311 177.02C122.311 176.657 123.718 175.975 125.593 173.311C126.633 174.685 127.804 175.956 129.089 177.105C129.734 177.716 130.417 178.285 131.135 178.81Z" fill="#CBBD9F"/>
<path d="M95.4979 206.134C91.6615 203.321 88.6348 204.557 87.6117 208.265C87.5917 208.275 87.5701 208.28 87.548 208.28C87.5259 208.28 87.504 208.275 87.484 208.265C85.5444 204.003 81.3243 204.003 78.6175 208.265C77.5518 203.47 73.7367 202.127 70.4331 205.154C70.7741 201.573 68.3018 199.207 64.0391 200.337C64.9896 198.681 65.7069 196.903 66.1704 195.051C72.3514 194.646 77.2321 193.133 87.9528 197.012C90.5104 197.907 93.0255 199.143 95.4552 200.209C95.1803 202.175 95.1947 204.172 95.4979 206.134Z" fill="#CBBD9F"/>
<path d="M79.726 192.451C78.8309 192.451 77.9357 192.281 77.0832 192.238C76.87 185.844 74.9517 180.856 71.1579 178.171C67.3641 175.485 60.2453 174.569 56.7073 177.915C58.0927 175.166 63.1016 173.823 66.5117 173.823C75.0371 173.823 79.4703 180.132 79.726 192.451Z" fill="#CBBD9F"/>
<path d="M74.9516 192.11C72.6924 192.11 73.2892 192.11 73.1613 191.94C70.0283 188.529 69.1756 176.871 58.7107 178.981C61.1618 177.148 66.3836 177.212 69.9216 179.791C73.0761 182.135 74.7385 186.526 74.9516 192.11Z" fill="#CBBD9F"/>
<path d="M70.9452 192.366L68.9418 192.579C62.9314 189.062 64.9349 183.499 60.4164 181.027C67.1941 180.558 67.8334 187.997 70.9452 192.366Z" fill="#CBBD9F"/>
<path d="M113.871 146.541C109.254 150.378 105.028 154.662 101.253 159.33C100.265 158.465 99.1021 157.825 97.8431 157.454C101.732 152.406 106.195 147.829 111.143 143.813C111.946 144.823 112.861 145.738 113.871 146.541Z" fill="#CBBD9F"/>
<path d="M109.906 141.938C104.55 146.345 99.7163 151.351 95.4984 156.858C91.0226 156.471 86.5297 157.378 82.5547 159.471C78.5796 161.564 75.2897 164.756 73.0765 168.665C72.5646 165.089 71.4397 161.629 69.7515 158.435C80.3032 148.219 93.2424 140.804 107.391 136.865C108.058 138.636 108.901 140.336 109.906 141.938Z" fill="#C93112"/>
<path d="M71.2863 172.8C68.9802 171.932 66.5131 171.573 64.0552 171.75C61.5974 171.927 59.207 172.634 57.0487 173.823C60.21 168.806 63.9752 164.197 68.2597 160.097C70.2338 164.042 71.2697 168.389 71.2863 172.8Z" fill="#2D6B67"/>
<path d="M129.856 104.597C124.868 107.836 116.855 114.23 116.258 122.074C99.355 124.995 83.6111 132.601 70.8171 144.027C86.8876 121.648 108.969 106.856 129.856 104.597Z" fill="#CBBD9F"/>
<path d="M62.7178 152.125C58.0715 157.283 54.0219 162.782 53.3398 166.746C37.5678 165.851 34.925 143.131 34.5414 137.206C46.9032 140.36 56.409 145.39 62.7178 152.125Z" fill="#2D6B67"/>
<path d="M137.358 101.826C124.954 98.6713 115.49 93.6413 109.182 86.9062C113.785 81.7909 117.835 76.2493 118.56 72.3276C134.289 73.2228 137.017 95.9431 137.358 101.826Z" fill="#C93112"/>
<path d="M101.083 95.0054C85.0121 117.385 62.9311 132.219 42.0438 134.435C47.0312 131.196 55.0027 124.802 55.5995 116.958C72.5205 114.055 88.2825 106.447 101.083 95.0054Z" fill="#CBBD9F"/>
<path d="M50.3985 73.9053C49.1944 74.7126 47.7773 75.1436 46.3276 75.1436C44.8778 75.1436 43.461 74.7126 42.2569 73.9053C41.7454 74.3315 41.2763 74.7578 40.7648 75.1414C41.7452 75.9087 42.7258 76.7187 43.621 77.5712C44.0686 78.0188 43.9191 77.9762 43.9191 99.1405H45.0702C45.3528 99.1405 45.6238 99.2528 45.8236 99.4527C46.0235 99.6525 46.1358 99.9236 46.1358 100.206C46.1358 100.489 46.0235 100.76 45.8236 100.96C45.6238 101.16 45.3528 101.272 45.0702 101.272H43.9191V103.297H45.0702C45.3528 103.297 45.6238 103.409 45.8236 103.609C46.0235 103.809 46.1358 104.08 46.1358 104.362C46.1358 104.645 46.0235 104.916 45.8236 105.116C45.6238 105.316 45.3528 105.428 45.0702 105.428H43.9191V107.325H45.0702C45.3528 107.325 45.6238 107.437 45.8236 107.637C46.0235 107.837 46.1358 108.108 46.1358 108.391C46.1358 108.673 46.0235 108.944 45.8236 109.144C45.6238 109.344 45.3528 109.456 45.0702 109.456H43.9191V111.332L45.5817 111.566C45.8643 111.583 46.1288 111.712 46.3167 111.924C46.5045 112.135 46.6003 112.413 46.5833 112.696C46.5664 112.979 46.438 113.243 46.2261 113.431C46.0143 113.619 45.7365 113.715 45.4539 113.698L43.9191 113.485V129.555C45.6745 128.184 47.2756 126.626 48.6936 124.909C48.6936 88.6756 48.9918 96.3484 47.9261 93.4498C47.7837 93.0016 47.7561 92.5249 47.8454 92.0632C47.9348 91.6015 48.1383 91.1696 48.4376 90.8069C48.4376 90.679 48.6084 90.679 48.6936 90.5938C48.6936 78.168 48.5442 78.0401 49.0344 77.5499C49.9377 76.6844 50.8916 75.873 51.8906 75.1201C51.3791 74.7578 50.9101 74.3315 50.3985 73.9053Z" fill="#CBBD9F"/>
<path d="M51.8905 60.2218C51.1658 60.776 50.4838 61.4154 49.7591 62.0122C49.7591 62.0122 49.5884 62.0122 49.5458 62.0122C49.5031 62.0122 49.5458 62.0122 49.5458 62.14C48.3537 63.24 47.2559 64.4377 46.2637 65.7208C44.5373 63.291 42.9813 62.3532 42.9813 62.0122C42.9813 61.6712 42.8535 62.0122 42.7682 62.0122C42.0862 61.4154 41.4468 60.776 40.6368 60.2218C42.761 58.6574 44.6302 56.7737 46.1783 54.6377C47.7797 56.7854 49.7071 58.6695 51.8905 60.2218Z" fill="#CBBD9F"/>
<path d="M102.02 80.5548C91.4415 90.7354 78.512 98.1447 64.3802 102.124C63.7512 100.373 62.9516 98.6885 61.993 97.0941C67.3539 92.6921 72.1886 87.6857 76.401 82.1746C80.8661 82.5753 85.3513 81.6682 89.3099 79.564C93.2684 77.4599 96.5292 74.2495 98.6949 70.3242C99.2174 73.8977 100.342 77.3569 102.02 80.5548Z" fill="#2D6B67"/>
<path d="M74.0566 81.6628C70.1419 86.7007 65.6815 91.2898 60.7569 95.3462C59.9666 94.2858 59.0345 93.3392 57.9863 92.5328C62.6252 88.7061 66.8666 84.4218 70.6465 79.7446C71.6364 80.6156 72.7981 81.2691 74.0566 81.6628Z" fill="#CBBD9F"/>
<path d="M114.851 65.2517C111.662 70.2483 107.899 74.8549 103.64 78.9776C101.628 75.0145 100.577 70.6339 100.571 66.1895C102.883 67.047 105.35 67.4067 107.811 67.2451C110.272 67.0835 112.671 66.4043 114.851 65.2517Z" fill="#C93112"/>
<path d="M111.44 58.0045C104.876 58.5161 104.066 51.6105 100.996 46.6658C101.678 46.6658 102.318 46.5379 103 46.4526C108.968 49.9694 107.028 55.7027 111.44 58.0045Z" fill="#CBBD9F"/>
<path d="M113.188 59.966C109.991 62.0973 104.918 61.33 101.935 59.156C98.9507 56.982 97.1175 52.5488 96.947 46.8794C97.5438 46.8794 98.0554 46.8794 98.6522 46.8794C99.6615 48.3223 100.492 49.8826 101.125 51.5258C103.81 57.4723 106.41 61.33 113.188 59.966Z" fill="#CBBD9F"/>
<path d="M115.149 61.1163C113.721 63.9936 108.585 65.2085 105.345 65.2085C96.8199 65.2085 92.4291 58.8145 92.1307 46.5378C93.0685 46.6657 93.9639 46.751 94.7739 46.7936C95.1575 58.5161 101.296 63.3755 108.67 63.3755C111.04 63.4832 113.36 62.6742 115.149 61.1163Z" fill="#CBBD9F"/>
<path d="M101.466 34.0059C97.992 37.2242 94.1769 35.3059 93.2817 30.894C90.7028 34.8797 86.4615 35.1568 84.3728 30.894H84.2448C83.0939 34.9862 79.8117 35.4978 76.3589 32.8975C76.7451 34.9056 76.8313 36.9599 76.6146 38.9932C87.2714 44.0445 93.8999 45.8562 105.857 44.1511C106.32 42.3129 107.038 40.5483 107.988 38.908C103.32 39.9523 101.21 37.4587 101.466 34.0059Z" fill="#CBBD9F"/>
<path d="M132.456 102.593C127.222 103.336 122.098 104.71 117.195 106.685C111.692 104.315 106.461 101.357 101.594 97.8615C103.725 94.8776 105.856 91.7659 107.86 88.5688C114.729 95.2636 123.196 100.091 132.456 102.593Z" fill="#2D6B67"/>
<path d="M114.509 107.879C110.903 109.496 107.413 111.362 104.066 113.463C100.101 111.46 96.478 109.371 93.5367 107.581C95.8812 105.066 98.0979 102.423 100.272 99.6096C104.73 102.834 109.499 105.605 114.509 107.879Z" fill="#C93112"/>
<path d="M101.978 114.785C98.9816 116.761 96.0929 118.895 93.3241 121.179C91.7469 120.326 85.907 117.044 84.543 116.319C87.1006 114.06 89.6156 111.673 92.0454 109.158C94.8161 110.82 98.2264 112.824 101.978 114.785Z" fill="#2D6B67"/>
<path d="M87.3565 122.713C84.7177 124.966 82.1993 127.356 79.8116 129.874C77.0835 128.212 73.6733 126.251 69.9221 124.29C72.9175 122.313 75.8058 120.178 78.5753 117.896L87.3565 122.713Z" fill="#C93112"/>
<path d="M78.3199 131.451C76.018 133.966 73.7587 136.652 71.6274 139.423C67.1288 136.237 62.3491 133.469 57.3474 131.153C60.9798 129.561 64.4855 127.694 67.8338 125.569C71.7981 127.615 75.3786 129.704 78.3199 131.451Z" fill="#2D6B67"/>
<path d="M70.3049 141.128C68.1735 144.069 66.0421 147.181 63.9108 150.421C57.0618 143.712 48.6091 138.869 39.3578 136.354C44.5763 135.606 49.6855 134.232 54.5754 132.261C60.1275 134.632 65.4023 137.605 70.3049 141.128Z" fill="#C93112"/>
<path d="M79.8325 51.4404V53.1241C79.8382 53.2641 79.8161 53.4038 79.7677 53.5353C79.7194 53.6668 79.6457 53.7875 79.5507 53.8904C79.4557 53.9934 79.3413 54.0766 79.2141 54.1352C79.0869 54.1939 78.9492 54.2269 78.8092 54.2324C78.5245 54.2382 78.249 54.132 78.0417 53.9367C77.8345 53.7414 77.7122 53.4726 77.7011 53.1881V51.5043C77.7011 51.2217 77.8132 50.9506 78.0131 50.7508C78.2129 50.5509 78.4842 50.4386 78.7668 50.4386C79.0495 50.4386 79.3204 50.5509 79.5203 50.7508C79.7201 50.9506 79.8325 51.2217 79.8325 51.5043V51.4404ZM111.249 75.8231C111.53 75.8176 111.797 75.7036 111.996 75.5049C112.195 75.3062 112.309 75.0383 112.314 74.7574C112.314 74.4748 112.202 74.2037 112.002 74.0039C111.802 73.804 111.531 73.6917 111.249 73.6917C110.966 73.6917 110.695 73.804 110.495 74.0039C110.295 74.2037 110.183 74.4748 110.183 74.7574C110.18 74.8991 110.206 75.04 110.258 75.1717C110.31 75.3035 110.388 75.4236 110.487 75.5248C110.587 75.626 110.705 75.7064 110.836 75.7613C110.966 75.8162 111.107 75.8444 111.249 75.8444V75.8231ZM76.337 102.167C76.2098 102.224 76.0953 102.306 76.0004 102.408C75.9054 102.511 75.8319 102.631 75.7842 102.762C75.7365 102.893 75.7157 103.033 75.7228 103.172C75.7298 103.311 75.7648 103.448 75.8255 103.573C75.879 103.71 75.9599 103.833 76.0633 103.937C76.1668 104.04 76.2904 104.122 76.4265 104.175C76.5627 104.229 76.7085 104.254 76.8548 104.249C77.0011 104.244 77.1447 104.208 77.2768 104.145C77.4089 104.082 77.5264 103.993 77.6223 103.882C77.7182 103.772 77.7903 103.642 77.8341 103.503C77.8779 103.363 77.8926 103.216 77.877 103.07C77.8614 102.925 77.8159 102.784 77.7436 102.657C77.6824 102.533 77.5975 102.423 77.4935 102.333C77.3896 102.242 77.2686 102.173 77.1379 102.129C77.0071 102.086 76.8692 102.069 76.7317 102.079C76.5943 102.089 76.4601 102.126 76.337 102.188V102.167ZM70.4972 104.682C70.2542 104.797 70.0638 105 69.9643 105.25C69.8648 105.5 69.8636 105.778 69.9607 106.029C70.0578 106.28 70.246 106.485 70.4878 106.602C70.7296 106.72 71.0071 106.742 71.2644 106.664C71.4047 106.621 71.5346 106.55 71.6461 106.455C71.7576 106.36 71.8483 106.243 71.9125 106.111C71.9767 105.979 72.013 105.835 72.0192 105.689C72.0253 105.542 72.0011 105.396 71.9481 105.26C71.8952 105.123 71.8148 104.998 71.7116 104.894C71.6085 104.79 71.4849 104.708 71.3487 104.654C71.2125 104.6 71.0665 104.574 70.9199 104.579C70.7734 104.584 70.6296 104.619 70.4972 104.682ZM92.5993 92.2345C92.4307 92.361 92.3032 92.5346 92.2332 92.7334C92.1633 92.9323 92.1539 93.1474 92.2062 93.3515C92.2585 93.5557 92.3703 93.7398 92.5272 93.8805C92.6842 94.0212 92.8793 94.1122 93.0879 94.142C93.2966 94.1718 93.5093 94.1391 93.6993 94.048C93.8894 93.9568 94.0483 93.8114 94.1557 93.63C94.2631 93.4486 94.3141 93.2395 94.3027 93.0291C94.2912 92.8186 94.2176 92.6162 94.0911 92.4476C93.9152 92.2295 93.6617 92.0877 93.3837 92.052C93.1057 92.0162 92.8247 92.0893 92.5993 92.2558V92.2345ZM87.42 95.9217C87.1829 96.0746 87.016 96.3153 86.9561 96.591C86.8962 96.8667 86.948 97.1549 87.1002 97.3924C87.1772 97.5099 87.2766 97.6112 87.3927 97.6904C87.5088 97.7695 87.6394 97.825 87.777 97.8537C87.9145 97.8824 88.0565 97.8837 88.1945 97.8576C88.3326 97.8315 88.4641 97.7784 88.5817 97.7014C88.6992 97.6244 88.8004 97.5251 88.8796 97.409C88.9587 97.2929 89.0143 97.1624 89.043 97.0248C89.0717 96.8873 89.073 96.7454 89.0469 96.6073C89.0207 96.4692 88.9677 96.3377 88.8908 96.2202C88.7312 95.99 88.4874 95.8319 88.2122 95.78C87.937 95.7282 87.6524 95.7868 87.42 95.9431V95.9217ZM81.9852 99.2254C81.8553 99.2895 81.7397 99.3793 81.6457 99.4895C81.5516 99.5997 81.4811 99.7279 81.4383 99.8663C81.3955 100.005 81.3813 100.15 81.3967 100.294C81.4121 100.438 81.4567 100.578 81.5278 100.704C81.5989 100.83 81.6952 100.941 81.8104 101.029C81.9255 101.116 82.0572 101.18 82.1978 101.215C82.3383 101.25 82.4846 101.256 82.6276 101.233C82.7705 101.21 82.9074 101.158 83.0295 101.08C83.1595 101.016 83.2748 100.926 83.3688 100.815C83.4628 100.705 83.5334 100.577 83.5762 100.439C83.619 100.3 83.6332 100.155 83.6178 100.011C83.6024 99.8665 83.5578 99.7271 83.4867 99.6009C83.4156 99.4747 83.3196 99.3643 83.2044 99.2764C83.0892 99.1886 82.9572 99.1252 82.8167 99.09C82.6762 99.0549 82.5299 99.0487 82.3869 99.072C82.2439 99.0953 82.1073 99.1475 81.9852 99.2254ZM102.062 85.2436C102.266 85.4415 102.54 85.5504 102.823 85.5464C103.107 85.5424 103.378 85.4259 103.576 85.2224C103.774 85.0189 103.882 84.7451 103.878 84.4613C103.874 84.1775 103.758 83.907 103.554 83.7091C103.457 83.6099 103.341 83.531 103.213 83.4772C103.085 83.4233 102.947 83.3956 102.808 83.3956C102.669 83.3956 102.532 83.4233 102.404 83.4772C102.276 83.531 102.16 83.6099 102.062 83.7091C101.956 83.8088 101.871 83.9293 101.813 84.0631C101.755 84.1969 101.725 84.3412 101.725 84.487C101.725 84.6329 101.755 84.7772 101.813 84.911C101.871 85.0448 101.956 85.1653 102.062 85.265V85.2436ZM97.4586 88.1636C97.2683 88.3576 97.1594 88.6169 97.1539 88.8886C97.1485 89.1602 97.2471 89.4238 97.4295 89.6252C97.6118 89.8266 97.8642 89.9508 98.1351 89.9723C98.4059 89.9937 98.6748 89.911 98.8867 89.7408C99.0833 89.538 99.1932 89.2666 99.1932 88.9842C99.1932 88.7017 99.0833 88.4304 98.8867 88.2276C98.6962 88.0449 98.4446 87.9394 98.1808 87.9315C97.917 87.9236 97.6596 88.0139 97.4586 88.1849V88.1636ZM108.115 80.4694C108.208 80.3631 108.278 80.2396 108.323 80.1059C108.368 79.9723 108.385 79.8312 108.376 79.6907C108.366 79.5502 108.328 79.413 108.265 79.287C108.202 79.1609 108.115 79.0485 108.009 78.9562C107.903 78.8638 107.779 78.7933 107.645 78.7487C107.512 78.704 107.371 78.6862 107.23 78.6961C107.09 78.706 106.952 78.7434 106.826 78.8063C106.7 78.8692 106.588 78.9563 106.496 79.0627C106.397 79.1599 106.318 79.276 106.264 79.4041C106.21 79.5322 106.182 79.6698 106.182 79.8087C106.182 79.9476 106.21 80.0852 106.264 80.2133C106.318 80.3414 106.397 80.4574 106.496 80.5547C106.599 80.6505 106.72 80.7249 106.852 80.7736C106.984 80.8222 107.125 80.8443 107.266 80.8383C107.406 80.8324 107.544 80.7986 107.672 80.739C107.8 80.6793 107.914 80.5949 108.009 80.4907L108.115 80.4694ZM64.5506 106.856C64.2816 106.944 64.0575 107.133 63.9262 107.384C63.7948 107.635 63.7666 107.927 63.8473 108.198C63.9321 108.481 64.1256 108.718 64.3854 108.858C64.6452 108.998 64.9499 109.029 65.2325 108.944C65.5151 108.86 65.7527 108.666 65.8926 108.406C66.0325 108.146 66.0635 107.842 65.9787 107.559C65.9357 107.416 65.8637 107.283 65.7672 107.169C65.6707 107.055 65.5517 106.962 65.4177 106.896C65.2838 106.83 65.1377 106.793 64.9885 106.786C64.8393 106.779 64.6902 106.802 64.5506 106.856ZM58.668 108.497C58.3854 108.497 58.1144 108.609 57.9145 108.809C57.7147 109.009 57.6023 109.28 57.6023 109.562C57.6023 109.845 57.7147 110.116 57.9145 110.316C58.1144 110.516 58.3854 110.628 58.668 110.628C58.9507 110.628 59.2216 110.516 59.4215 110.316C59.6213 110.116 59.7337 109.845 59.7337 109.562C59.7399 109.413 59.7149 109.265 59.6601 109.126C59.6052 108.987 59.5217 108.862 59.4152 108.757C59.3088 108.653 59.1816 108.572 59.0419 108.52C58.9022 108.467 58.7529 108.445 58.604 108.454L58.668 108.497ZM93.2172 188.678C93.3572 188.673 93.4948 188.64 93.6221 188.581C93.7493 188.522 93.8637 188.439 93.9587 188.336C94.0537 188.233 94.1274 188.113 94.1757 187.981C94.224 187.85 94.2462 187.71 94.2405 187.57C94.2405 187.016 94.2405 186.44 94.2405 185.886C94.2294 185.602 94.1069 185.333 93.8997 185.138C93.6924 184.942 93.4169 184.836 93.1321 184.842C92.9922 184.847 92.8545 184.88 92.7273 184.939C92.6001 184.998 92.4857 185.081 92.3906 185.184C92.2956 185.287 92.222 185.408 92.1737 185.539C92.1253 185.671 92.1034 185.81 92.1091 185.95C92.1091 186.504 92.1091 187.08 92.1091 187.634C92.1252 187.902 92.2415 188.154 92.4351 188.339C92.6287 188.525 92.8853 188.631 93.1535 188.636L93.2172 188.678ZM136.74 140.659C136.934 141.047 137.044 141.471 137.062 141.905C137.08 142.338 137.006 142.771 136.845 143.174C136.684 143.576 136.44 143.94 136.127 144.242C135.815 144.543 135.443 144.775 135.034 144.922C133.836 145.517 132.533 145.872 131.198 145.966V160.331C132.284 161.353 133.461 162.274 134.715 163.081V164.892C133.893 165.41 133.109 165.987 132.37 166.619C133.515 167.967 134.143 169.678 134.143 171.446C134.143 173.215 133.515 174.926 132.37 176.274C133.114 176.899 133.898 177.475 134.715 178V179.812C131.852 181.645 129.417 184.073 127.575 186.931H125.784C123.949 184.068 121.513 181.639 118.644 179.812V178C119.469 177.475 120.259 176.899 121.01 176.274C119.862 174.928 119.231 173.216 119.231 171.446C119.231 169.677 119.862 167.965 121.01 166.619C120.268 165.982 119.477 165.405 118.644 164.892V163.081C119.898 162.274 121.075 161.353 122.161 160.331V149.27C120.664 149.061 119.219 148.577 117.898 147.842C113.113 151.76 108.742 156.159 104.855 160.971C107.135 164.978 104.663 170.008 101.977 173.759C102.396 174.228 102.705 174.784 102.884 175.387C103.062 175.989 103.105 176.624 103.009 177.245C102.913 177.867 102.681 178.459 102.33 178.98C101.978 179.501 101.516 179.938 100.975 180.26L101.871 180.664L102.212 182.37C100.784 183.861 98.5456 186.249 98.5456 188.465C98.5456 190.682 100.677 194.646 97.4799 197.822C99.2276 198.632 99.2277 198.611 99.3982 198.802C99.5 198.893 99.5814 199.005 99.6365 199.13C99.6917 199.255 99.7193 199.39 99.718 199.527C99.3651 202.059 99.5024 204.635 100.123 207.115C100.971 207.115 101.784 207.451 102.383 208.051C102.983 208.651 103.32 209.464 103.32 210.312C103.32 211.16 102.983 211.973 102.383 212.572C101.784 213.172 100.971 213.509 100.123 213.509C99.5652 213.504 99.0183 213.355 98.5357 213.076C98.0531 212.796 97.6514 212.396 97.3699 211.915C97.0884 211.434 96.9368 210.888 96.9299 210.33C96.9231 209.772 97.0612 209.223 97.3308 208.734C96.3078 207.754 94.4748 206.39 93.0681 206.965C92.7512 207.141 92.4753 207.382 92.2585 207.672C92.0417 207.962 91.8891 208.295 91.8107 208.649C92.3782 208.982 92.8291 209.481 93.1025 210.079C93.3758 210.677 93.458 211.345 93.3379 211.992C93.2178 212.638 92.9014 213.232 92.4315 213.692C91.9616 214.152 91.3612 214.456 90.7122 214.563C90.0633 214.669 89.3972 214.573 88.8049 214.287C88.2126 214.001 87.7232 213.54 87.4028 212.965C87.0825 212.391 86.947 211.732 87.0149 211.078C87.0828 210.423 87.3509 209.806 87.7824 209.31C86.5462 206.582 84.3083 206.774 82.6671 209.161C83.0348 209.535 83.3047 209.994 83.4531 210.497C83.6015 211 83.6238 211.533 83.5179 212.046C83.412 212.56 83.1813 213.04 82.8461 213.444C82.5109 213.847 82.0814 214.162 81.5957 214.361C81.11 214.559 80.5829 214.635 80.0609 214.582C79.539 214.528 79.0383 214.347 78.6029 214.054C78.1675 213.762 77.8108 213.366 77.5643 212.903C77.3178 212.44 77.1892 211.923 77.1896 211.399C77.1853 210.855 77.3224 210.319 77.5877 209.845C77.853 209.37 78.2374 208.973 78.7028 208.692C78.1273 205.942 76.2092 204.664 73.9926 206.56C74.2035 206.992 74.3129 207.466 74.3129 207.946C74.3129 208.426 74.2035 208.9 73.9926 209.331C73.7517 209.81 73.3942 210.221 72.9529 210.526C72.5117 210.83 72.0009 211.019 71.4676 211.075C70.9343 211.13 70.3957 211.051 69.9011 210.844C69.4065 210.637 68.9719 210.308 68.6374 209.889C68.3029 209.47 68.0793 208.974 67.987 208.446C67.8946 207.917 67.9365 207.375 68.109 206.867C68.2815 206.359 68.5789 205.903 68.9738 205.54C69.3688 205.178 69.8486 204.92 70.3691 204.791C70.3691 203.619 70.3693 202.66 69.1757 202.17C67.8844 201.919 66.5464 202.091 65.3605 202.66C65.547 203.357 65.4924 204.096 65.2057 204.758C64.919 205.419 64.417 205.965 63.7812 206.305C63.1455 206.646 62.4134 206.761 61.7037 206.633C60.9941 206.505 60.3485 206.14 59.8721 205.599C59.3957 205.057 59.1163 204.371 59.0794 203.651C59.0424 202.93 59.2502 202.219 59.6687 201.632C60.0871 201.044 60.6919 200.616 61.3848 200.415C62.0776 200.215 62.8176 200.255 63.4849 200.529C64.8738 198.498 65.8379 196.207 66.3195 193.794L66.4475 193.474C66.5351 193.276 66.6846 193.111 66.8737 193.005C65.9758 192.212 65.2066 191.285 64.5933 190.256C61.9077 185.78 63.2717 182.156 56.7924 182.156C56.5862 182.15 56.3858 182.086 56.213 181.974C56.0402 181.861 55.9015 181.703 55.8121 181.517C55.3631 180.561 55.2072 179.493 55.3643 178.448V168.878C42.1073 168.175 36.5871 154.086 34.9033 140.893C34.6642 139.106 34.5362 137.305 34.5198 135.501C34.7543 134.542 35.5641 134.99 40.7646 131.238V113.25C39.0315 113.019 37.4067 112.277 36.097 111.118C35.6984 110.63 35.4417 110.042 35.3553 109.418C35.2688 108.794 35.3559 108.158 35.6069 107.58C35.7561 107.239 35.7987 107.367 35.6069 107.261C34.9487 106.714 34.5165 105.943 34.3944 105.097C34.2724 104.25 34.469 103.388 34.946 102.678C34.5206 102.065 34.3127 101.326 34.3552 100.581C34.3976 99.8356 34.6881 99.1258 35.1804 98.5646C34.9861 98.1767 34.8763 97.7521 34.8581 97.3186C34.8399 96.8852 34.9137 96.4528 35.0748 96.05C35.2359 95.6472 35.4808 95.2832 35.7929 94.9819C36.105 94.6805 36.4774 94.4488 36.8856 94.3019C38.0753 93.7037 39.3724 93.3486 40.7008 93.2576V78.8922C39.6323 77.8591 38.4611 76.9378 37.2054 76.1428V74.3311C38.0228 73.806 38.8058 73.2294 39.5498 72.6047C38.4014 71.2584 37.7705 69.5468 37.7705 67.7772C37.7705 66.0076 38.4014 64.296 39.5498 62.9497C38.8058 62.325 38.0228 61.7484 37.2054 61.2233V59.4116C40.0638 57.5726 42.4978 55.1458 44.3454 52.2929H46.1356C47.9712 55.1555 50.4075 57.5846 53.2756 59.4116V61.2233C52.4478 61.743 51.6573 62.3198 50.9099 62.9497C52.0583 64.296 52.6892 66.0076 52.6892 67.7772C52.6892 69.5468 52.0583 71.2584 50.9099 72.6047C51.6573 73.2345 52.4478 73.8114 53.2756 74.3311V76.1428C52.0169 76.9429 50.8393 77.8638 49.7591 78.8922V89.8048C51.2587 90.0018 52.7061 90.4867 54.0218 91.2328C58.8144 87.3147 63.1921 82.9153 67.0868 78.1036C64.8062 74.0967 67.2575 69.0667 69.9643 65.3155C69.5459 64.8464 69.2365 64.2905 69.0581 63.6878C68.8798 63.085 68.8367 62.4503 68.9325 61.829C69.0282 61.2078 69.2602 60.6153 69.6118 60.0942C69.9633 59.5731 70.4258 59.1362 70.966 58.8148L70.0707 58.4099L69.7299 56.7048C71.3487 55.2547 72.5794 53.4231 73.3104 51.3764C73.9072 48.9467 70.9447 44.7266 74.4614 41.2525C72.7777 40.4639 72.7137 40.4639 72.5218 40.2721C72.3321 40.0784 72.225 39.8185 72.2234 39.5474C72.5763 37.0156 72.439 34.4396 71.8186 31.9597C71.3909 31.9713 70.9655 31.8939 70.5692 31.7325C70.173 31.571 69.8144 31.3291 69.5165 31.022C69.0971 30.6 68.8037 30.0693 68.6694 29.4896C68.5351 28.91 68.5654 28.3044 68.7566 27.7409C68.9477 27.1775 69.2922 26.6785 69.7515 26.3003C70.2108 25.922 70.7666 25.6794 71.3562 25.5998C71.9459 25.5202 72.5461 25.6067 73.0893 25.8496C73.6324 26.0925 74.097 26.4822 74.4307 26.9748C74.7645 27.4674 74.9542 28.0433 74.9784 28.6378C75.0027 29.2323 74.8604 29.8218 74.5679 30.3399C75.5909 31.3204 77.4239 32.6844 78.8306 32.1089C79.145 31.9302 79.4191 31.6884 79.6355 31.3986C79.852 31.1088 80.0061 30.7774 80.0883 30.4252C79.5277 30.0927 79.0831 29.5957 78.8147 29.0018C78.5463 28.4079 78.467 27.7458 78.5878 27.1053C78.7086 26.4649 79.0235 25.877 79.4898 25.4217C79.9562 24.9664 80.5514 24.6656 81.1945 24.5601C81.8377 24.4546 82.4976 24.5495 83.0849 24.832C83.6723 25.1145 84.1586 25.5709 84.4777 26.1392C84.7967 26.7075 84.9331 27.3602 84.8685 28.0088C84.8038 28.6573 84.5415 29.2703 84.1165 29.7644C85.3527 32.5139 87.5904 32.3008 89.2316 29.9136C88.8639 29.5394 88.594 29.0804 88.4456 28.5771C88.2972 28.0739 88.2752 27.5419 88.3811 27.028C88.487 26.5141 88.7176 26.0341 89.0529 25.6305C89.3881 25.2269 89.8173 24.912 90.303 24.7135C90.7887 24.5151 91.3158 24.4393 91.8378 24.4927C92.3597 24.5461 92.8606 24.7272 93.2961 25.0199C93.7315 25.3126 94.0879 25.708 94.3344 26.1712C94.5809 26.6343 94.7098 27.1511 94.7093 27.6757C94.7116 28.2191 94.5733 28.7537 94.3081 29.228C94.043 29.7022 93.6599 30.0999 93.1959 30.3825C93.7713 33.132 95.6897 34.4108 97.9064 32.4074C97.6313 31.8093 97.5475 31.1409 97.6665 30.4934C97.7855 29.846 98.1013 29.251 98.5711 28.7899C99.0409 28.3287 99.6416 28.0238 100.291 27.9168C100.941 27.8098 101.607 27.9059 102.2 28.192C102.793 28.4781 103.283 28.9403 103.604 29.5153C103.924 30.0904 104.059 30.7503 103.99 31.405C103.922 32.0597 103.652 32.6772 103.22 33.1733C102.787 33.6693 102.212 34.0196 101.572 34.1764C101.572 35.3486 101.572 36.4143 102.766 36.7979C104.057 37.0475 105.395 36.8756 106.581 36.3077C106.398 35.616 106.454 34.8828 106.74 34.227C107.026 33.5712 107.526 33.0313 108.157 32.6946C108.788 32.3579 109.515 32.2442 110.219 32.372C110.923 32.4998 111.563 32.8617 112.035 33.3988C112.508 33.9359 112.785 34.6168 112.823 35.3313C112.86 36.0458 112.655 36.7519 112.241 37.3353C111.826 37.9186 111.228 38.345 110.541 38.5454C109.854 38.7457 109.119 38.7083 108.456 38.4391C107.051 40.5927 106.048 42.9828 105.494 45.4939C105.391 45.6884 105.236 45.8507 105.046 45.9628C108.712 49.1385 108.67 52.9963 110.226 55.0637C110.851 55.7214 111.623 56.2223 112.478 56.526C113.334 56.8297 114.249 56.9274 115.149 56.8113C115.353 56.8147 115.552 56.8769 115.722 56.9902C115.892 57.1036 116.026 57.2635 116.108 57.4508C116.573 58.4022 116.737 59.473 116.577 60.52V70.0684C129.834 70.793 135.354 84.9879 137.017 98.0744C137.275 99.8816 137.404 101.705 137.4 103.531C137.123 104.447 136.313 104.021 131.155 107.793V125.91C132.896 126.137 134.529 126.879 135.844 128.041C136.275 128.567 136.538 129.209 136.598 129.886C136.659 130.562 136.515 131.241 136.185 131.835C136.878 132.369 137.342 133.147 137.48 134.01C137.619 134.874 137.423 135.758 136.931 136.481C137.352 137.102 137.555 137.844 137.509 138.593C137.463 139.341 137.17 140.052 136.676 140.616L136.74 140.659ZM109.032 36.2224C109.235 36.4191 109.506 36.5291 109.789 36.5291C110.071 36.5291 110.342 36.4191 110.545 36.2224C110.746 36.0218 110.859 35.7496 110.859 35.4659C110.859 35.1821 110.746 34.9099 110.545 34.7092C110.344 34.5085 110.072 34.3958 109.789 34.3958C109.505 34.3958 109.233 34.5085 109.032 34.7092C108.916 34.7985 108.82 34.9103 108.748 35.0377C108.677 35.1652 108.632 35.3057 108.616 35.4509C108.6 35.5961 108.614 35.7431 108.656 35.883C108.698 36.0229 108.768 36.1529 108.862 36.2651L109.032 36.2224ZM73.076 28.8054C73.076 28.5227 72.9636 28.2517 72.7638 28.0518C72.5639 27.852 72.293 27.7397 72.0103 27.7397C71.7277 27.7397 71.4567 27.852 71.2569 28.0518C71.057 28.2517 70.9447 28.5227 70.9447 28.8054C70.9447 29.088 71.057 29.359 71.2569 29.5589C71.4567 29.7587 71.7277 29.871 72.0103 29.871C72.293 29.871 72.5639 29.7587 72.7638 29.5589C72.9636 29.359 73.076 29.088 73.076 28.8054ZM63.0161 202.767C62.8133 202.57 62.5419 202.46 62.2595 202.46C61.977 202.46 61.7054 202.57 61.5026 202.767C61.4033 202.866 61.3246 202.984 61.2708 203.114C61.217 203.244 61.1894 203.383 61.1894 203.523C61.1894 203.664 61.217 203.803 61.2708 203.933C61.3246 204.063 61.4033 204.181 61.5026 204.28C61.602 204.379 61.7201 204.458 61.85 204.512C61.9798 204.566 62.119 204.593 62.2595 204.593C62.4 204.593 62.5389 204.566 62.6687 204.512C62.7986 204.458 62.9167 204.379 63.0161 204.28C63.2127 204.077 63.3226 203.806 63.3226 203.523C63.3226 203.241 63.2127 202.969 63.0161 202.767ZM98.972 210.184C98.972 210.466 99.0841 210.737 99.284 210.937C99.4838 211.137 99.7551 211.249 100.038 211.249C100.32 211.249 100.591 211.137 100.791 210.937C100.991 210.737 101.103 210.466 101.103 210.184C101.103 209.901 100.991 209.63 100.791 209.43C100.591 209.23 100.32 209.118 100.038 209.118C99.7551 209.118 99.4838 209.23 99.284 209.43C99.0841 209.63 98.972 209.901 98.972 210.184ZM132.008 104.575C108.563 107.026 86.8871 124.738 72.9693 143.963C85.7647 132.572 101.489 124.983 118.367 122.052C118.921 114.848 125.87 108.603 132.008 104.596V104.575ZM73.7369 139.38C75.8682 136.631 78.1273 133.988 80.4717 131.43C77.1468 129.448 73.6942 127.466 69.9856 125.569C66.6603 127.683 63.1839 129.549 59.5846 131.153C64.5577 133.438 69.2973 136.201 73.7369 139.401V139.38ZM56.8991 132.283C52.0148 134.265 46.9029 135.632 41.6812 136.354C53.361 139.977 61.0765 145.049 66.1491 150.335C68.0957 147.181 70.2271 144.09 72.5432 141.064C67.6547 137.596 62.4104 134.659 56.8991 132.304V132.283ZM98.1408 99.6303C96.0094 102.38 93.7501 105.023 91.4056 107.559C94.7305 109.562 98.1834 111.545 101.892 113.441C105.213 111.332 108.682 109.466 112.272 107.857C107.31 105.581 102.577 102.833 98.1408 99.6516V99.6303ZM114.979 106.728C119.86 104.736 124.973 103.368 130.196 102.657C118.517 99.0335 110.801 93.9609 105.728 88.6751C103.796 91.8296 101.664 94.92 99.3342 97.9466C104.216 101.466 109.461 104.453 114.979 106.856V106.728ZM89.9138 109.157C87.5053 111.672 84.9903 114.06 82.4114 116.319L91.2139 121.221C93.9383 118.937 96.7842 116.803 99.7393 114.827C96.3078 112.973 93.0469 111.118 89.9138 109.179V109.157ZM80.6638 117.789C77.9381 120.071 75.0922 122.206 72.1383 124.184C75.6338 125.995 78.9158 127.892 82.0489 129.789C84.4503 127.274 86.9511 124.887 89.5513 122.628L80.6638 117.789ZM107.007 86.9061C112.357 92.6395 121.053 98.245 135.226 101.826C134.672 93.4281 132.136 82.1959 125.976 76.2494C123.421 73.7371 120.028 72.257 116.449 72.0932C115.703 76.8887 110.14 83.4107 107.007 86.9274V86.9061ZM114.424 66.5303C110.162 73.7343 100.251 83.7304 94.0911 88.462C82.308 97.5151 68.5218 103.604 53.8938 106.216L53.574 114.742C67.8499 112.171 81.3037 106.222 92.8124 97.3924C99.0146 92.6395 111.014 80.7039 113.849 73.5638C114.185 72.7876 114.38 71.9576 114.424 71.1128V66.5303ZM96.5849 70.4094C94.9699 73.4361 92.6439 76.0253 89.8071 77.9544C85.2998 81.1613 79.8038 82.6712 74.2908 82.2171C70.0596 87.726 65.2113 92.7318 59.8404 97.1366C60.8144 98.7322 61.6348 100.416 62.2912 102.167C73.3397 99.017 83.6947 93.8107 92.8124 86.8209C95.2863 84.8887 97.6487 82.818 99.8884 80.6186C98.1808 77.4448 97.0412 73.997 96.5209 70.4307L96.5849 70.4094ZM101.466 78.9348C105.743 74.8152 109.513 70.2002 112.698 65.1876C110.519 66.3404 108.123 67.0249 105.664 67.1974C103.205 67.3699 100.737 67.0266 98.4179 66.1894C98.4268 70.6446 99.47 75.0368 101.466 79.0201V78.9348ZM114.254 60.9036C110.78 64.4416 103.746 63.7596 99.6753 60.797C95.6044 57.8345 93.8782 52.0372 93.7076 46.7301C92.8551 46.7301 91.981 46.6235 91.0859 46.4956C91.2351 53.6996 92.8549 61.884 99.6113 64.3564C102.71 65.3469 106.04 65.3469 109.139 64.3564C111.194 63.9138 113.006 62.711 114.211 60.9888L114.254 60.9036ZM112.122 59.9018C109.971 60.4345 107.699 60.1695 105.728 59.1558C102.51 57.3442 101.146 53.5504 99.6326 50.2468C99.1041 48.98 98.3854 47.8013 97.5013 46.7513H95.7537C95.9029 51.3124 97.1391 56.3425 100.848 59.028C103.895 61.3512 109.309 62.0971 112.122 59.9658V59.9018ZM102.02 46.3677L100.038 46.5809C102.936 51.0567 103.725 58.623 110.503 57.9836C105.899 55.7031 108.009 50.0124 102.02 46.453V46.3677ZM100.315 32.0237C100.477 32.1156 100.66 32.1633 100.847 32.1622C101.033 32.1611 101.216 32.1111 101.377 32.0173C101.538 31.9235 101.671 31.7891 101.764 31.6276C101.857 31.466 101.906 31.2829 101.906 31.0965C101.906 30.9102 101.857 30.7271 101.764 30.5656C101.671 30.404 101.538 30.2696 101.377 30.1758C101.216 30.082 101.033 30.032 100.847 30.0309C100.66 30.0298 100.477 30.0775 100.315 30.1694C100.121 30.2469 99.9547 30.3807 99.8376 30.5535C99.7206 30.7264 99.6581 30.9304 99.6581 31.1392C99.6581 31.348 99.7206 31.5519 99.8376 31.7248C99.9547 31.8977 100.121 32.0315 100.315 32.1089V32.0237ZM90.745 28.4217C90.8441 28.5216 90.962 28.6009 91.0918 28.655C91.2217 28.7091 91.3609 28.7369 91.5016 28.7369C91.6423 28.7369 91.7815 28.7091 91.9114 28.655C92.0413 28.6009 92.1591 28.5216 92.2582 28.4217C92.4589 28.2211 92.5717 27.9489 92.5717 27.6651C92.5717 27.3813 92.4589 27.1091 92.2582 26.9084C92.0575 26.7078 91.7854 26.595 91.5016 26.595C91.2178 26.595 90.9457 26.7078 90.745 26.9084C90.6316 27.0084 90.5408 27.1314 90.4786 27.2692C90.4164 27.407 90.3842 27.5565 90.3842 27.7077C90.3842 27.8589 90.4164 28.0083 90.4786 28.1461C90.5408 28.2839 90.6316 28.4069 90.745 28.5069V28.4217ZM80.9195 28.4217C81.0159 28.5326 81.1339 28.6222 81.2666 28.6852C81.3992 28.7482 81.5434 28.7831 81.6902 28.7877C81.8369 28.7923 81.9831 28.7665 82.1194 28.712C82.2558 28.6574 82.3795 28.5753 82.4826 28.4707C82.5857 28.3661 82.666 28.2414 82.7186 28.1043C82.7712 27.9672 82.795 27.8207 82.7883 27.6741C82.7817 27.5274 82.7447 27.3836 82.6799 27.2519C82.615 27.1201 82.5235 27.0032 82.4114 26.9084C82.2122 26.7132 81.9444 26.6038 81.6654 26.6038C81.3865 26.6038 81.1187 26.7132 80.9195 26.9084C80.8061 27.0084 80.7153 27.1314 80.6531 27.2692C80.5909 27.407 80.5586 27.5565 80.5586 27.7077C80.5586 27.8589 80.5909 28.0083 80.6531 28.1461C80.7153 28.2839 80.8061 28.4069 80.9195 28.5069V28.4217ZM90.1695 44.2364C94.6514 44.8508 99.2007 44.7789 103.661 44.0232C104.095 42.2085 104.769 40.4597 105.665 38.8227C101.402 39.8244 99.0785 37.6718 99.4195 33.9632C96.0733 37.0537 92.1303 35.4126 91.1499 30.9367C88.6136 34.8371 84.2658 35.0076 82.2623 30.8301C81.1966 34.496 77.9994 35.6044 74.3548 32.8336C74.7251 34.8296 74.7969 36.8695 74.5679 38.8866C79.4468 41.4808 84.6938 43.3137 90.1269 44.3216L90.1695 44.2364ZM74.035 64.8679C76.1664 64.8679 78.4684 63.5038 80.5571 64.1646C79.6535 63.1592 78.55 62.3534 77.3174 61.7987C76.1665 61.1806 74.8237 60.5413 73.6302 59.9871C73.1324 60.0737 72.6595 60.2672 72.2437 60.5542C71.8279 60.8412 71.4792 61.2149 71.2217 61.6496C70.3692 63.2907 72.0955 64.9531 74.035 64.9531V64.8679ZM73.0973 79.7874C77.3648 80.5779 81.774 79.9255 85.6297 77.9331C88.2588 76.7481 90.5841 74.9812 92.4302 72.7659C94.2763 70.5505 95.595 67.9446 96.2865 65.145C90.4253 61.2872 89.0397 53.2946 88.9332 46.2612C84.6976 45.4711 80.5795 44.1461 76.6779 42.3182C76.1307 42.692 75.6783 43.1882 75.3564 43.7675C75.1578 44.0872 75.0546 44.4568 75.0583 44.8331C75.2501 45.1742 76.6567 45.366 77.0403 45.4086C79.0927 45.5506 81.1049 46.0482 82.9869 46.8792C83.2525 46.9754 83.469 47.1731 83.5889 47.4289C83.7088 47.6847 83.7221 47.9776 83.6261 48.2433C83.521 48.5071 83.3188 48.7204 83.061 48.8394C82.8032 48.9584 82.5098 48.9738 82.2409 48.8827L80.5784 48.2647C78.8946 47.6252 76.7205 47.6679 75.1007 47.199C75.5468 48.7488 75.6703 50.3738 75.4631 51.9732C74.8872 53.933 73.8241 55.7149 72.3728 57.1524C74.291 58.0049 76.5075 59.0066 78.3617 60.0084C79.6768 60.6479 80.8791 61.4974 81.9212 62.5234C82.5042 63.1192 82.8996 63.8728 83.0587 64.6911C83.2178 65.5093 83.1335 66.3563 82.8162 67.1271H80.8555C80.7766 66.8956 80.6421 66.6872 80.4637 66.5199C80.2853 66.3527 80.0686 66.2318 79.8325 66.168C78.0848 65.7418 74.8877 67.8944 71.7972 66.5303C70.8101 67.8541 69.9736 69.2838 69.3035 70.793C67.1934 75.7591 68.9199 78.7857 73.076 79.83L73.0973 79.7874ZM55.9185 92.5755C56.9377 93.3852 57.8476 94.3237 58.6253 95.3676C63.5439 91.3146 68.0166 86.7491 71.9677 81.7482C70.6936 81.3826 69.5151 80.7424 68.5149 79.8726C64.7767 84.4984 60.5934 88.746 56.0252 92.5542L55.9185 92.5755ZM49.5244 92.0001C49.4224 92.0022 49.3226 92.028 49.2322 92.0753C49.1419 92.1226 49.0637 92.1902 49.0038 92.2728C48.9439 92.3554 48.9039 92.4507 48.887 92.5513C48.8701 92.6519 48.8769 92.755 48.9065 92.8526C49.7164 95.2823 53.1692 96.007 53.9365 100.675C53.9576 100.813 53.9513 100.955 53.9177 101.091C53.8842 101.227 53.824 101.355 53.7408 101.468C53.6577 101.581 53.5531 101.676 53.433 101.748C53.313 101.821 53.1798 101.869 53.0412 101.89C52.7622 101.927 52.4797 101.854 52.2531 101.687C52.0266 101.52 51.8737 101.272 51.8264 100.994C51.6785 99.9524 51.2594 98.9676 50.6114 98.1384C50.3589 97.8314 50.0885 97.5396 49.8015 97.2645V121.775C50.8175 120.016 51.3745 118.03 51.4214 115.999L51.8264 105.236L52.7215 104.213C55.2578 103.786 57.7515 103.254 60.2452 102.614C59.0298 98.8351 56.6218 95.552 53.3823 93.2576C52.1999 92.5421 50.8764 92.0913 49.5031 91.9361L49.5244 92.0001ZM39.6989 60.2429C41.8271 61.8167 43.7092 63.6988 45.283 65.827C46.2985 64.4519 47.4404 63.1746 48.6934 62.0119C49.0557 61.7135 49.6952 61.0954 50.8248 60.2429C48.6826 58.6936 46.7978 56.8162 45.2404 54.68C43.6765 56.7975 41.801 58.6658 39.6776 60.2215L39.6989 60.2429ZM49.3753 64.3138C48.1702 65.5164 47.0984 66.8455 46.1783 68.2781H44.388C43.4384 66.8172 42.3382 65.46 41.1057 64.2285C40.4603 65.0073 40.05 65.9538 39.9226 66.9572C39.7953 67.9606 39.956 68.9796 40.3863 69.895C40.8166 70.8104 41.4985 71.5844 42.3524 72.1266C43.2063 72.6687 44.1971 72.9567 45.2086 72.9567C46.2201 72.9567 47.2107 72.6687 48.0646 72.1266C48.9185 71.5844 49.6004 70.8104 50.0307 69.895C50.461 68.9796 50.622 67.9606 50.4946 66.9572C50.3672 65.9538 49.9567 65.0073 49.3113 64.2285L49.3753 64.3138ZM44.5585 111.651C44.8357 111.693 45.086 111.841 45.2568 112.064C45.4276 112.286 45.5058 112.566 45.475 112.845C45.4592 112.985 45.4156 113.121 45.3468 113.244C45.278 113.368 45.1854 113.476 45.0744 113.563C44.9633 113.651 44.8361 113.715 44.7 113.753C44.5639 113.79 44.4215 113.8 44.2814 113.783L42.8746 113.569V129.661C44.632 128.277 46.2393 126.713 47.6701 124.993V95.0053C47.3364 94.5411 47.0708 94.0315 46.8816 93.492C46.7159 92.9813 46.7023 92.4333 46.8423 91.9149C46.9823 91.3965 47.2699 90.93 47.6701 90.572C47.6701 77.4002 47.6703 78.1888 47.7982 77.7839C47.8466 77.688 47.9115 77.6015 47.9899 77.5281C48.8893 76.6435 49.8508 75.8244 50.8672 75.0771C50.3343 74.6934 49.8229 74.3098 49.3327 73.8835C48.1228 74.6653 46.7129 75.0812 45.2724 75.0812C43.8319 75.0812 42.4222 74.6653 41.2123 73.8835C40.7221 74.3098 40.2104 74.6934 39.6989 75.0771C40.7109 75.8299 41.6721 76.6487 42.5762 77.5281C42.6487 77.5936 42.7069 77.6735 42.7469 77.7626C42.96 78.1249 42.8746 77.1658 42.8746 96.8382C42.8746 97.1208 42.7625 97.392 42.5626 97.5918C42.3628 97.7917 42.0916 97.9039 41.8089 97.9039C41.5263 97.9039 41.2553 97.7917 41.0555 97.5918C40.8556 97.392 40.7432 97.1208 40.7432 96.8382V95.2397C39.4325 95.2955 38.1788 95.791 37.184 96.6464C37.0669 96.7659 37.0011 96.9267 37.0011 97.094C37.0011 97.2614 37.0669 97.4221 37.184 97.5416C38.335 98.9696 42.1713 99.1614 44.0043 99.1614C44.2869 99.1614 44.5579 99.2737 44.7577 99.4735C44.9576 99.6734 45.07 99.9445 45.07 100.227C45.07 100.51 44.9576 100.781 44.7577 100.981C44.5579 101.181 44.2869 101.293 44.0043 101.293C41.5027 101.43 39.0059 100.947 36.7363 99.8861C35.8198 101.25 37.7806 102.444 39.3791 102.849C40.8988 103.175 42.45 103.333 44.0043 103.318C44.2869 103.318 44.5579 103.43 44.7577 103.63C44.9576 103.83 45.07 104.101 45.07 104.383C45.07 104.666 44.9576 104.937 44.7577 105.137C44.5579 105.337 44.2869 105.449 44.0043 105.449C42.2705 105.464 40.5404 105.285 38.8463 104.916C38.0492 104.722 37.2872 104.406 36.5872 103.978C36.2249 105.001 37.2053 105.747 38.1857 106.238C40.0366 106.978 42.0108 107.361 44.0043 107.367C44.2869 107.367 44.5579 107.479 44.7577 107.679C44.9576 107.879 45.07 108.15 45.07 108.433C45.07 108.715 44.9576 108.987 44.7577 109.186C44.5579 109.386 44.2869 109.498 44.0043 109.498C41.815 109.483 39.6474 109.064 37.6102 108.262C37.5283 108.481 37.5028 108.717 37.5363 108.948C37.5699 109.179 37.6612 109.397 37.802 109.584C38.6545 110.82 43.0239 111.459 44.5371 111.63L44.5585 111.651ZM39.8696 134.563C63.3145 132.112 84.9903 114.401 98.908 95.1758C86.1016 106.563 70.3723 114.151 53.489 117.086C52.9561 124.226 45.9866 130.471 39.8696 134.563ZM64.8703 152.232C59.4993 146.499 50.8034 140.893 36.6512 137.313C37.2054 145.838 39.7629 156.964 45.8799 162.782C48.4436 165.294 51.8428 166.774 55.4283 166.939C56.2169 162.271 61.7372 155.6 64.8703 152.126V152.232ZM57.4533 172.608C61.716 165.404 71.6053 155.408 77.7649 150.676C89.5502 141.627 103.336 135.538 117.962 132.922L118.282 124.397C104.011 126.963 90.5635 132.912 79.0652 141.746C72.863 146.499 60.8419 158.434 58.0285 165.574C57.6921 166.351 57.4975 167.181 57.4533 168.026V172.608ZM75.2074 168.665C76.8153 165.633 79.1427 163.043 81.9852 161.12C86.4924 157.913 91.9883 156.403 97.5013 156.857C101.727 151.344 106.576 146.337 111.952 141.938C110.966 140.341 110.145 138.649 109.501 136.886C98.4537 140.05 88.1002 145.263 78.9799 152.253C76.506 154.186 74.1434 156.256 71.9037 158.456C73.5818 161.644 74.6994 165.098 75.2074 168.665ZM70.3265 160.14C66.0485 164.258 62.2777 168.874 59.0942 173.887C61.2696 172.735 63.662 172.05 66.1176 171.878C68.5733 171.705 71.038 172.048 73.3531 172.885C73.3688 168.467 72.3621 164.104 70.4118 160.14H70.3265ZM57.5383 178.171C61.0124 174.633 68.0461 175.315 72.117 178.171C76.1879 181.027 77.9141 186.931 78.0846 192.238C78.9159 192.238 79.7897 192.344 80.7062 192.472C80.557 185.268 78.9371 177.084 72.1807 174.611C69.0841 173.609 65.7503 173.609 62.6536 174.611C60.613 175.087 58.8299 176.322 57.6663 178.064L57.5383 178.171ZM66.0638 179.918C69.2821 181.73 70.6461 185.524 72.1594 188.828C72.6591 190.086 73.3415 191.264 74.1844 192.323H75.9319C75.7614 187.762 74.5465 182.732 70.838 180.046C67.8115 177.915 62.5259 177.084 59.6059 179.215C61.8056 178.582 64.1625 178.795 66.2131 179.812L66.0638 179.918ZM69.7086 192.707L71.6906 192.493C68.7919 188.018 68.0033 180.451 61.2255 181.091C65.9572 183.35 63.8685 189.041 69.8576 192.6L69.7086 192.707ZM71.4135 207.051C71.2532 206.965 71.0736 206.923 70.8921 206.929C70.7106 206.934 70.5334 206.987 70.3785 207.082C70.2236 207.176 70.0962 207.31 70.0085 207.469C69.9209 207.628 69.8762 207.807 69.879 207.988C69.8756 208.179 69.9234 208.368 70.0176 208.534C70.1119 208.7 70.2492 208.837 70.4149 208.932C70.5806 209.027 70.7688 209.076 70.9597 209.073C71.1507 209.07 71.3372 209.016 71.5001 208.917C71.6631 208.817 71.7962 208.676 71.8857 208.507C71.9752 208.338 72.0179 208.149 72.009 207.958C72.0002 207.767 71.9402 207.583 71.8355 207.423C71.7307 207.263 71.5849 207.135 71.4135 207.051ZM80.9833 210.653C80.8842 210.553 80.7663 210.473 80.6364 210.419C80.5066 210.365 80.3673 210.337 80.2267 210.337C80.086 210.337 79.9468 210.365 79.8169 210.419C79.687 210.473 79.5691 210.553 79.4701 210.653C79.3219 210.802 79.2212 210.992 79.1808 211.198C79.1403 211.405 79.162 211.619 79.2429 211.813C79.3239 212.007 79.4605 212.173 79.6355 212.29C79.8106 212.406 80.0163 212.469 80.2267 212.469C80.4371 212.469 80.6427 212.406 80.8178 212.29C80.9928 212.173 81.1295 212.007 81.2104 211.813C81.2913 211.619 81.313 211.405 81.2726 211.198C81.2322 210.992 81.1314 210.802 80.9833 210.653ZM90.8088 210.653C90.7097 210.553 90.5921 210.473 90.4622 210.419C90.3324 210.365 90.1929 210.337 90.0522 210.337C89.9115 210.337 89.7723 210.365 89.6424 210.419C89.5125 210.473 89.3947 210.553 89.2956 210.653C89.0949 210.853 88.9823 211.125 88.9823 211.409C88.9823 211.693 89.0949 211.965 89.2956 212.166C89.4963 212.367 89.7684 212.479 90.0522 212.479C90.336 212.479 90.6081 212.367 90.8088 212.166C90.9356 212.077 91.0417 211.962 91.1194 211.828C91.1972 211.694 91.2447 211.545 91.2589 211.391C91.2731 211.236 91.2536 211.081 91.2016 210.935C91.1497 210.789 91.0666 210.657 90.9581 210.546L90.8088 210.653ZM81.5588 194.838C77.0769 194.224 72.5276 194.295 68.0674 195.051C67.6236 196.863 66.9502 198.61 66.0638 200.252C70.3265 199.25 72.6498 201.403 72.3088 205.111C75.655 202.021 79.5767 203.662 80.5784 208.138C83.1147 204.216 87.4628 204.088 89.4449 208.138C90.5106 204.472 93.7076 203.363 97.3522 206.134C96.9815 204.138 96.9026 202.099 97.1178 200.081C92.2798 197.532 87.0847 195.729 81.7081 194.731L81.5588 194.838ZM97.6933 174.206C95.5619 174.206 93.3026 175.571 91.1712 174.91C92.0862 175.902 93.1869 176.706 94.4109 177.276C95.5618 177.894 96.9045 178.533 98.0981 179.087C98.594 179.003 99.0651 178.811 99.4778 178.523C99.8905 178.236 100.235 177.861 100.485 177.425C101.487 175.762 99.7819 174.1 97.8424 174.1L97.6933 174.206ZM98.6309 159.287C94.3635 158.496 89.9543 159.149 86.0986 161.141C83.4695 162.326 81.1442 164.093 79.2981 166.308C77.452 168.524 76.1332 171.13 75.4418 173.929C81.303 177.766 82.6885 185.78 82.7951 192.813C87.0307 193.603 91.1488 194.928 95.0504 196.756C95.5926 196.377 96.0439 195.882 96.3718 195.307C96.5634 194.984 96.6661 194.617 96.67 194.241C96.4569 193.9 95.0503 193.708 94.6667 193.666C92.6218 193.519 90.6174 193.022 88.7414 192.195C88.4833 192.093 88.2752 191.895 88.161 191.642C88.0468 191.389 88.0356 191.102 88.13 190.841C88.2244 190.58 88.4167 190.366 88.6662 190.245C88.9157 190.124 89.2026 190.105 89.466 190.192L91.1499 190.81C92.8336 191.449 94.9865 191.407 96.6276 191.875C96.0734 188.764 95.1141 186.654 99.3555 181.922C97.4373 181.069 95.2208 180.068 93.3666 179.066C92.0449 178.437 90.8409 177.587 89.8071 176.551C89.2241 175.955 88.8287 175.202 88.6696 174.383C88.5105 173.565 88.5948 172.718 88.9121 171.947H90.8728C90.9548 172.177 91.0906 172.384 91.2685 172.55C91.4464 172.717 91.6613 172.839 91.8958 172.906C93.6435 173.333 96.8193 171.18 99.931 172.523C100.911 171.194 101.747 169.765 102.425 168.26C104.641 163.379 103.064 160.289 98.7803 159.223L98.6309 159.287ZM115.81 146.499C114.791 145.689 113.881 144.751 113.103 143.707C108.179 147.754 103.706 152.32 99.7606 157.326C101.033 157.697 102.21 158.336 103.213 159.202C107.031 154.556 111.301 150.301 115.959 146.499H115.81ZM122.204 147.074C122.306 147.072 122.406 147.046 122.496 146.999C122.586 146.952 122.665 146.884 122.724 146.802C122.784 146.719 122.824 146.624 122.841 146.523C122.858 146.422 122.851 146.319 122.822 146.222C122.012 143.792 118.559 143.067 117.792 138.4C117.771 138.261 117.777 138.12 117.811 137.984C117.844 137.848 117.904 137.719 117.987 137.607C118.071 137.494 118.175 137.398 118.295 137.326C118.415 137.254 118.548 137.206 118.687 137.185C118.966 137.148 119.249 137.22 119.475 137.387C119.702 137.554 119.855 137.803 119.902 138.08C120.05 139.122 120.469 140.107 121.117 140.936C121.369 141.243 121.64 141.535 121.927 141.81V117.193C120.911 118.952 120.354 120.938 120.307 122.969L119.902 133.732L119.007 134.755C116.471 135.181 113.977 135.714 111.483 136.354C112.698 140.133 115.107 143.416 118.346 145.71C119.569 146.461 120.946 146.928 122.374 147.074H122.204ZM132.029 178.81C129.886 177.253 128.002 175.369 126.445 173.226C125.446 174.627 124.295 175.913 123.014 177.062C122.334 177.681 121.622 178.265 120.882 178.81C123.016 180.378 124.898 182.261 126.467 184.394C128.086 182.255 130.019 180.373 132.2 178.81H132.029ZM122.353 174.761C123.557 173.549 124.629 172.213 125.55 170.775H127.34C128.268 172.208 129.339 173.544 130.537 174.761C131.186 173.983 131.6 173.036 131.73 172.031C131.86 171.027 131.7 170.006 131.271 169.089C130.841 168.171 130.159 167.396 129.305 166.852C128.45 166.308 127.458 166.02 126.445 166.02C125.432 166.02 124.44 166.308 123.586 166.852C122.731 167.396 122.049 168.171 121.62 169.089C121.19 170.006 121.031 171.027 121.161 172.031C121.291 173.036 121.704 173.983 122.353 174.761ZM132.328 136.14C130.808 135.814 129.257 135.656 127.703 135.672C127.42 135.672 127.149 135.559 126.949 135.359C126.749 135.16 126.637 134.888 126.637 134.606C126.637 134.323 126.749 134.052 126.949 133.852C127.149 133.652 127.42 133.54 127.703 133.54C129.429 133.524 131.153 133.703 132.839 134.073C133.644 134.263 134.414 134.58 135.12 135.011C135.482 133.988 134.502 133.242 133.521 132.752C131.67 132.011 129.696 131.628 127.703 131.622C127.42 131.622 127.149 131.51 126.949 131.31C126.749 131.11 126.637 130.839 126.637 130.556C126.637 130.274 126.749 130.003 126.949 129.803C127.149 129.603 127.42 129.491 127.703 129.491C129.892 129.508 132.059 129.927 134.097 130.727C134.179 130.508 134.204 130.272 134.171 130.041C134.137 129.81 134.046 129.592 133.905 129.405C132.946 128.233 128.576 127.594 127.063 127.423C126.781 127.386 126.524 127.239 126.35 127.013C126.176 126.787 126.099 126.502 126.136 126.219C126.173 125.936 126.32 125.68 126.546 125.506C126.772 125.332 127.058 125.255 127.34 125.292L128.726 125.505V109.413C126.98 110.803 125.381 112.367 123.951 114.081V144.048C124.484 144.737 124.802 145.567 124.868 146.435C124.881 146.836 124.806 147.234 124.648 147.603C124.489 147.971 124.251 148.3 123.951 148.566V160.8C123.953 160.94 123.926 161.079 123.871 161.207C123.815 161.336 123.734 161.451 123.632 161.546C122.737 162.43 121.775 163.242 120.754 163.976C121.294 164.36 121.806 164.765 122.289 165.191C123.499 164.409 124.909 163.993 126.349 163.993C127.79 163.993 129.2 164.409 130.41 165.191C130.9 164.765 131.411 164.36 131.923 163.976C130.906 163.237 129.944 162.425 129.045 161.546C128.598 161.099 128.726 161.44 128.726 142.215C128.731 141.934 128.845 141.666 129.044 141.467C129.243 141.269 129.51 141.155 129.791 141.149C130.074 141.149 130.345 141.261 130.545 141.461C130.745 141.661 130.857 141.932 130.857 142.215V143.835C132.175 143.782 133.437 143.286 134.438 142.428C134.498 142.37 134.547 142.301 134.58 142.224C134.613 142.147 134.63 142.064 134.63 141.98C134.63 141.897 134.613 141.814 134.58 141.737C134.547 141.66 134.498 141.59 134.438 141.533C133.308 140.105 129.472 139.913 127.639 139.913C127.356 139.913 127.085 139.801 126.885 139.601C126.685 139.401 126.573 139.13 126.573 138.847C126.573 138.565 126.685 138.294 126.885 138.094C127.085 137.894 127.356 137.782 127.639 137.782C130.14 137.647 132.636 138.13 134.907 139.188C136.058 137.739 134.075 136.545 132.498 136.14H132.328ZM60.4583 163.209C60.1774 163.214 59.9095 163.328 59.7108 163.527C59.5121 163.726 59.3981 163.993 59.3926 164.274C59.3926 164.557 59.505 164.828 59.7048 165.028C59.9047 165.228 60.1756 165.34 60.4583 165.34C60.7409 165.34 61.0122 165.228 61.212 165.028C61.4119 164.828 61.524 164.557 61.524 164.274C61.5272 164.019 61.4388 163.771 61.2745 163.575C61.1101 163.38 60.8811 163.25 60.629 163.209H60.4583ZM101.21 134.35C101.34 134.298 101.459 134.222 101.559 134.124C101.66 134.026 101.74 133.91 101.795 133.781C101.851 133.652 101.88 133.514 101.882 133.374C101.884 133.234 101.859 133.095 101.807 132.965C101.757 132.835 101.682 132.717 101.587 132.617C101.491 132.516 101.377 132.436 101.25 132.381C101.123 132.325 100.986 132.295 100.847 132.293C100.709 132.291 100.571 132.316 100.443 132.368C100.302 132.411 100.172 132.482 100.061 132.577C99.9493 132.672 99.8586 132.789 99.7944 132.921C99.7303 133.053 99.6939 133.196 99.6878 133.343C99.6816 133.489 99.7059 133.636 99.7588 133.772C99.8117 133.909 99.8921 134.033 99.9953 134.137C100.098 134.242 100.222 134.323 100.358 134.378C100.494 134.432 100.64 134.457 100.787 134.453C100.934 134.448 101.077 134.413 101.21 134.35ZM79.0863 146.797C79.2549 146.671 79.3824 146.497 79.4524 146.298C79.5223 146.099 79.5317 145.884 79.4794 145.68C79.4271 145.476 79.3153 145.292 79.1584 145.151C79.0015 145.011 78.8064 144.92 78.5977 144.89C78.3891 144.86 78.1763 144.893 77.9863 144.984C77.7962 145.075 77.6373 145.22 77.5299 145.402C77.4226 145.583 77.3715 145.792 77.3829 146.003C77.3944 146.213 77.468 146.416 77.5945 146.584C77.6799 146.72 77.7943 146.834 77.9293 146.92C78.0643 147.007 78.2167 147.062 78.3755 147.082C78.5344 147.103 78.6956 147.088 78.848 147.038C79.0004 146.989 79.1401 146.907 79.257 146.797H79.0863ZM89.7431 139.806C89.927 139.703 90.0764 139.548 90.1719 139.36C90.2674 139.172 90.305 138.959 90.2798 138.75C90.2547 138.541 90.1679 138.343 90.0306 138.183C89.8933 138.023 89.7115 137.907 89.5084 137.851C89.3053 137.794 89.0899 137.799 88.8895 137.864C88.6891 137.93 88.5127 138.054 88.3826 138.22C88.2526 138.386 88.1747 138.587 88.1589 138.797C88.1431 139.008 88.1901 139.218 88.2939 139.401C88.3608 139.544 88.4587 139.67 88.5804 139.771C88.702 139.871 88.8442 139.944 88.9972 139.982C89.1501 140.021 89.3099 140.025 89.4647 139.995C89.6195 139.965 89.7656 139.9 89.8924 139.806H89.7431ZM107.242 132.24C107.376 132.199 107.501 132.131 107.609 132.041C107.717 131.951 107.805 131.839 107.869 131.714C107.932 131.589 107.97 131.452 107.98 131.311C107.989 131.171 107.97 131.03 107.924 130.897C107.84 130.63 107.654 130.406 107.407 130.275C107.16 130.143 106.871 130.114 106.602 130.194C106.462 130.236 106.332 130.305 106.219 130.397C106.105 130.49 106.012 130.604 105.942 130.732C105.873 130.861 105.83 131.002 105.815 131.147C105.8 131.293 105.814 131.439 105.856 131.579C105.898 131.719 105.967 131.85 106.06 131.963C106.152 132.076 106.266 132.17 106.395 132.239C106.523 132.308 106.664 132.352 106.81 132.367C106.955 132.381 107.102 132.367 107.242 132.325V132.24ZM69.815 153.745C69.7159 153.646 69.598 153.566 69.4682 153.512C69.3383 153.458 69.1991 153.43 69.0584 153.43C68.9177 153.43 68.7785 153.458 68.6486 153.512C68.5187 153.566 68.4009 153.646 68.3018 153.745C68.1052 153.948 67.9953 154.22 67.9953 154.502C67.9953 154.785 68.1052 155.056 68.3018 155.259C68.5121 155.418 68.7731 155.495 69.036 155.475C69.2989 155.456 69.5459 155.342 69.7309 155.155C69.916 154.967 70.0266 154.718 70.0421 154.455C70.0576 154.192 69.9768 153.932 69.815 153.724V153.745ZM84.4574 143.089C84.5753 143.013 84.6769 142.915 84.7561 142.799C84.8352 142.684 84.8903 142.554 84.9181 142.417C84.946 142.279 84.946 142.138 84.9181 142.001C84.8903 141.864 84.835 141.733 84.7558 141.618C84.6029 141.381 84.3623 141.214 84.0866 141.154C83.8109 141.094 83.5228 141.146 83.2853 141.298C83.0502 141.459 82.8873 141.704 82.8315 141.983C82.7758 142.262 82.8315 142.552 82.9869 142.79C83.1431 143.024 83.3853 143.186 83.6607 143.242C83.9362 143.298 84.2224 143.243 84.4574 143.089ZM63.8687 158.541C63.672 158.744 63.5619 159.015 63.5619 159.298C63.5619 159.58 63.672 159.851 63.8687 160.054C64.018 160.202 64.2078 160.303 64.4142 160.343C64.6207 160.384 64.8346 160.362 65.0288 160.281C65.223 160.2 65.389 160.064 65.5057 159.889C65.6224 159.714 65.6847 159.508 65.6847 159.298C65.6847 159.087 65.6224 158.882 65.5057 158.706C65.389 158.531 65.223 158.395 65.0288 158.314C64.8346 158.233 64.6207 158.211 64.4142 158.252C64.2078 158.292 64.018 158.393 63.8687 158.541ZM74.5254 150.847C74.7157 150.653 74.8247 150.394 74.8301 150.122C74.8355 149.85 74.737 149.587 74.5546 149.385C74.3722 149.184 74.1199 149.06 73.849 149.038C73.5781 149.017 73.3092 149.099 73.0973 149.27C72.9841 149.361 72.8905 149.474 72.8226 149.602C72.7547 149.73 72.7136 149.871 72.7021 150.016C72.6906 150.161 72.7089 150.307 72.7557 150.444C72.8026 150.582 72.877 150.708 72.9745 150.816C73.072 150.923 73.1905 151.01 73.3227 151.07C73.4548 151.13 73.5981 151.163 73.7434 151.166C73.8886 151.169 74.0327 151.142 74.1672 151.087C74.3017 151.032 74.4237 150.951 74.5254 150.847ZM95.647 136.844C95.7742 136.787 95.8887 136.704 95.9837 136.602C96.0786 136.5 96.1522 136.38 96.1999 136.248C96.2475 136.117 96.2683 135.978 96.2613 135.839C96.2542 135.699 96.2192 135.563 96.1585 135.437C96.099 135.309 96.0148 135.194 95.9106 135.099C95.8063 135.004 95.6844 134.93 95.5515 134.883C95.4187 134.835 95.2777 134.815 95.1368 134.822C94.9959 134.829 94.8578 134.864 94.7307 134.926C94.4761 135.05 94.2801 135.269 94.1845 135.536C94.089 135.802 94.1015 136.096 94.2192 136.354C94.3384 136.586 94.5388 136.766 94.7824 136.861C95.026 136.955 95.2959 136.957 95.5406 136.865L95.647 136.844ZM113.38 130.578C113.661 130.572 113.929 130.458 114.128 130.259C114.326 130.061 114.44 129.793 114.446 129.512C114.446 129.229 114.333 128.958 114.133 128.758C113.934 128.559 113.663 128.446 113.38 128.446C113.097 128.446 112.826 128.559 112.626 128.758C112.426 128.958 112.314 129.229 112.314 129.512C112.308 129.781 112.403 130.042 112.58 130.244C112.758 130.445 113.006 130.572 113.273 130.599L113.38 130.578Z" fill="#1F1F1F"/>
</svg>
