<svg width="172" height="240" viewBox="0 0 172 240" fill="none" xmlns="http://www.w3.org/2000/svg">
<path d="M160.462 0.525391H11.2671C5.38155 0.525391 0.610352 5.29659 0.610352 11.1822V228.58C0.610352 234.466 5.38155 239.237 11.2671 239.237H160.462C166.348 239.237 171.119 234.466 171.119 228.58V11.1822C171.119 5.29659 166.348 0.525391 160.462 0.525391Z" fill="#F9F1DF"/>
<path d="M26.1863 41.8315C25.0354 44.7515 19.2594 45.8385 19.2594 50.357C19.2779 51.0898 19.5119 51.8009 19.9322 52.4015C20.3526 53.0021 20.9406 53.4655 21.6228 53.7338C22.305 54.0022 23.0511 54.0635 23.768 53.9102C24.4848 53.757 25.1407 53.3958 25.6535 52.872C25.5543 54.3159 24.9681 55.6834 23.9909 56.751V57.2625H28.2537V56.751C27.2765 55.6834 26.6903 54.3159 26.5911 52.872C27.1039 53.3958 27.7598 53.757 28.4766 53.9102C29.1935 54.0635 29.9398 54.0022 30.622 53.7338C31.3042 53.4655 31.8921 53.0021 32.3124 52.4015C32.7327 51.8009 32.9667 51.0898 32.9852 50.357C33.1131 45.8385 27.3372 44.7515 26.1863 41.8315Z" fill="#1F1F1F"/>
<path d="M145.542 195.801C146.693 192.881 152.469 191.794 152.469 187.275C152.45 186.542 152.216 185.831 151.796 185.231C151.376 184.63 150.788 184.167 150.105 183.898C149.423 183.63 148.677 183.569 147.96 183.722C147.243 183.875 146.588 184.236 146.075 184.76C146.174 183.316 146.76 181.949 147.737 180.881V180.37H143.475V180.881C144.452 181.949 145.038 183.316 145.137 184.76C144.624 184.236 143.968 183.875 143.252 183.722C142.535 183.569 141.788 183.63 141.106 183.898C140.424 184.167 139.836 184.63 139.416 185.231C138.996 185.831 138.762 186.542 138.743 187.275C138.615 191.794 144.391 192.881 145.542 195.801Z" fill="#1F1F1F"/>
<path d="M26.1864 34.2651V35.6931H17.661V34.2651L19.6006 33.8814C19.7832 33.8522 19.9534 33.7708 20.0908 33.647C20.2028 33.5084 20.263 33.335 20.2612 33.1568V18.9407C20.2681 18.7551 20.2076 18.5734 20.0908 18.4291C19.9705 18.2935 19.8026 18.2095 19.622 18.1947L17.661 17.7897V16.3191H26.1864V17.7897L24.2042 18.1947C24.1172 18.2 24.0326 18.2237 23.9554 18.2641C23.8783 18.3045 23.8105 18.3607 23.7567 18.4291C23.6398 18.5734 23.5793 18.7551 23.5862 18.9407V26.7414L30.8753 18.216L28.744 17.7897V16.3191H35.7775V17.7897L33.9446 18.1947C33.7938 18.2146 33.6485 18.2654 33.5182 18.3439C33.3728 18.4092 33.2424 18.5035 33.1347 18.621L28.3178 23.9707C28.7637 24.5063 29.1764 25.0686 29.5539 25.6544L30.8966 27.7858L33.8806 32.9223C34.0178 33.1422 34.1747 33.3491 34.3494 33.5405C34.5413 33.6935 34.7686 33.7961 35.0103 33.8388L36.3104 34.1798V35.6078H31.8772C31.5575 35.6078 31.2377 35.3734 30.8966 34.9045C30.4743 34.2818 30.0901 33.6341 29.7459 32.965C29.7459 32.965 27.1455 28.0629 26.8897 27.6153C26.6339 27.1677 26.3782 26.7201 26.1224 26.3365L23.6713 29.1072V33.0929C23.6657 33.2717 23.7266 33.4463 23.842 33.5831C23.9735 33.7153 24.1466 33.7981 24.3322 33.8175L26.1864 34.2651Z" fill="#1F1F1F"/>
<path d="M145.542 203.366V201.938H154.068V203.366L152.128 203.75C151.952 203.78 151.789 203.861 151.659 203.984C151.599 204.05 151.553 204.128 151.524 204.212C151.495 204.296 151.483 204.386 151.489 204.475V218.691C151.476 218.874 151.529 219.055 151.638 219.202C151.758 219.338 151.926 219.422 152.107 219.437L154.068 219.842V221.312H145.542V219.842L147.503 219.437C147.593 219.432 147.681 219.408 147.762 219.368C147.842 219.328 147.914 219.271 147.972 219.202C148.081 219.055 148.134 218.874 148.121 218.691V210.89L140.832 219.415L142.963 219.842V221.312H135.93V219.842L137.763 219.437C137.919 219.413 138.071 219.362 138.21 219.288C138.346 219.216 138.468 219.122 138.573 219.01L143.39 213.661C142.937 213.125 142.517 212.563 142.132 211.977C141.748 211.359 141.301 210.613 140.811 209.846L137.805 204.709C137.675 204.484 137.518 204.277 137.337 204.091C137.15 203.942 136.931 203.839 136.697 203.793L135.376 203.451V202.024H139.83C140.128 202.024 140.448 202.258 140.789 202.727C141.227 203.344 141.619 203.992 141.961 204.666C141.961 204.666 144.541 209.569 144.796 210.016C145.052 210.464 145.329 210.911 145.585 211.295L148.015 208.524V204.538C148.022 204.449 148.011 204.36 147.981 204.275C147.952 204.191 147.905 204.114 147.844 204.048C147.712 203.916 147.539 203.833 147.354 203.814L145.542 203.366Z" fill="#1F1F1F"/>
<path d="M130.623 23.4373C128.321 29.3198 116.769 31.4512 116.769 40.4881C116.769 42.4666 117.555 44.364 118.954 45.763C120.353 47.1619 122.25 47.9478 124.229 47.9478C125.261 47.9474 126.281 47.731 127.225 47.3126C128.168 46.8941 129.013 46.2828 129.706 45.5181C129.521 48.4131 128.338 51.1545 126.36 53.2762V54.3419H134.886V53.2762C132.925 51.1532 131.752 48.4226 131.561 45.5394C132.252 46.2987 133.095 46.9051 134.035 47.3199C134.974 47.7346 135.99 47.9485 137.017 47.9478C138.995 47.9478 140.893 47.1619 142.292 45.763C143.691 44.364 144.477 42.4666 144.477 40.4881C144.477 31.4512 132.925 29.3198 130.623 23.4373Z" fill="#1F1F1F"/>
<path d="M41.1059 216.346C38.804 210.463 27.2521 208.311 27.2521 199.295C27.2546 197.796 27.7089 196.332 28.5556 195.095C29.4022 193.857 30.6021 192.904 31.9987 192.359C33.3953 191.813 34.9237 191.702 36.3847 192.038C37.8458 192.374 39.1715 193.143 40.1893 194.244C40.0042 191.355 38.8215 188.62 36.8432 186.507V185.441H45.3686V186.507C43.4041 188.627 42.2298 191.359 42.0436 194.244C43.0581 193.139 44.383 192.367 45.8439 192.029C47.3049 191.691 48.8339 191.802 50.2305 192.349C51.6271 192.895 52.8261 193.85 53.67 195.09C54.514 196.33 54.9635 197.795 54.9597 199.295C54.9597 208.311 43.4078 210.463 41.1059 216.346Z" fill="#1F1F1F"/>
<path d="M154.068 171.034H151.936V19.7075H47.5V17.5762H153.002L154.068 18.6418V171.034ZM17.661 68.7287V221.121L18.7267 222.186H124.229V220.055H19.7924V68.7287H17.661Z" fill="#1F1F1F"/>
<path d="M118.09 123.867C113.312 126.528 107.947 127.96 102.479 128.034C97.0099 128.108 91.6083 126.823 86.7593 124.293L92.855 115.128L92.4712 113.637C87.8232 111.046 82.6505 109.538 77.3386 109.225C86.7863 105.834 95.6245 100.94 103.512 94.7314C101.691 100.53 102.194 106.81 104.913 112.245C107.633 117.681 112.357 121.848 118.09 123.867Z" fill="#C93112"/>
<path d="M95.4551 210.165C90.7744 213.078 85.1775 214.146 79.753 213.161C74.3286 212.177 69.4643 209.209 66.1063 204.837C76.1308 204.825 86.0744 206.631 95.4551 210.165Z" fill="#C93112"/>
<path d="M97.6718 208.716C87.15 204.551 75.9079 202.508 64.5931 202.706C66.2038 200.516 67.3894 198.043 68.0886 195.416C72.9806 194.545 77.9881 194.545 82.8801 195.416V195.416C85.227 195.871 87.5357 196.505 89.7857 197.313C92.3433 198.251 94.8156 199.445 97.2027 200.51C96.8306 203.25 96.99 206.036 97.6718 208.716Z" fill="#CBBD9F"/>
<path d="M81.1329 193.2C80.1524 193.029 79.2145 192.902 78.362 192.816C78.4504 187.743 76.7953 182.792 73.6731 178.792C69.6022 174.316 61.1407 174.742 64.3378 167.027C65.3821 175.297 85.4169 165.578 81.1329 193.2Z" fill="#2D6B67"/>
<path d="M76.2308 192.688C75.0799 192.688 74.0994 192.688 73.0337 192.688C70.9024 180.092 63.4854 180.88 63.0165 174.103C65.5102 176.937 70.0499 177.939 72.0534 180.198C74.8196 183.769 76.2923 188.172 76.2308 192.688V192.688Z" fill="#2D6B67"/>
<path d="M70.9445 192.859L69.2393 192.987C67.2358 191.729 63.3994 185.996 62.3337 178.707C64.5504 182.543 69.2181 183.609 70.9445 192.859Z" fill="#2D6B67"/>
<path d="M125.721 136.932C125.723 136.789 125.754 136.649 125.812 136.518C125.869 136.387 125.951 136.269 126.054 136.17C126.157 136.071 126.278 135.993 126.411 135.941C126.544 135.889 126.686 135.864 126.829 135.867H127.937V133.842H126.786C126.504 133.842 126.233 133.73 126.033 133.53C125.833 133.33 125.721 133.059 125.721 132.776C125.721 132.493 125.833 132.222 126.033 132.023C126.233 131.823 126.504 131.71 126.786 131.71H127.895V129.835H126.744C126.461 129.835 126.19 129.723 125.99 129.523C125.79 129.323 125.678 129.052 125.678 128.769C125.678 128.487 125.79 128.215 125.99 128.016C126.19 127.816 126.461 127.703 126.744 127.703H127.852V125.188C126.309 124.683 124.656 124.617 123.078 124.997C123.078 149.72 122.822 142.793 123.845 145.841C123.993 146.286 124.028 146.761 123.946 147.222C123.864 147.684 123.668 148.118 123.376 148.484C122.95 148.91 123.078 146.353 123.078 167.07C123.533 166.906 124.005 166.792 124.485 166.729C124.622 166.708 124.762 166.714 124.897 166.748C125.032 166.782 125.158 166.842 125.269 166.925C125.381 167.009 125.474 167.113 125.544 167.233C125.614 167.353 125.66 167.486 125.678 167.624C125.715 167.912 125.637 168.202 125.461 168.433C125.286 168.664 125.027 168.818 124.74 168.86C123.471 169.034 122.306 169.66 121.461 170.623C120.615 171.586 120.145 172.822 120.136 174.103C120.307 174.657 122.865 179.687 125.465 184.632C128.065 179.687 130.623 174.657 130.836 173.975C130.792 173.119 130.545 172.286 130.115 171.545C129.685 170.804 129.085 170.175 128.363 169.712C127.66 169.286 127.852 170.778 127.852 138.126H126.701C126.415 138.094 126.152 137.951 125.969 137.728C125.786 137.505 125.697 137.22 125.721 136.932V136.932Z" fill="#CBBD9F"/>
<path d="M113.146 146.182C109.921 148.593 106.846 151.198 103.938 153.983C102.283 153.655 100.594 153.526 98.9082 153.599C102.483 149.8 106.408 146.347 110.631 143.283C111.353 144.345 112.197 145.318 113.146 146.182V146.182Z" fill="#2D6B67"/>
<path d="M109.479 141.493C104.481 145.134 99.8672 149.276 95.7109 153.855C90.6554 154.624 85.8084 156.41 81.4635 159.107C77.1185 161.803 73.3659 165.353 70.4331 169.542L69.8362 169.372C65.1259 168.178 63.2503 167.73 68.2164 160.207C79.1984 149.4 92.7319 141.541 107.561 137.359C108.094 138.784 108.736 140.166 109.479 141.493V141.493Z" fill="#CBBD9F"/>
<path d="M51.8903 116.599C39.7842 116.599 31.6425 127.426 31.6425 137.614C31.6425 147.802 39.7842 158.629 51.8903 158.629C63.9964 158.629 72.1382 147.759 72.1382 137.614C72.1382 127.469 64.0391 116.599 51.8903 116.599ZM55.0447 121.373L54.6609 123.504C52.8438 123.164 50.9793 123.164 49.1621 123.504L48.7357 121.373C50.8212 120.989 52.9593 120.989 55.0447 121.373ZM42.8107 123.803L44.0042 125.593C42.3739 126.676 40.9697 128.066 39.8695 129.685L38.1216 128.492C39.3543 126.63 40.9491 125.035 42.8107 123.803V123.803ZM37.7805 140.342L35.6492 140.768C35.2327 138.657 35.2327 136.485 35.6492 134.374L37.7805 134.758C37.4291 136.603 37.4291 138.497 37.7805 140.342V140.342ZM42.8107 151.382C40.9348 150.167 39.3367 148.569 38.1216 146.693L39.9119 145.5C40.9953 147.13 42.3852 148.534 44.0042 149.635L42.8107 151.382ZM48.7357 153.812L49.1621 151.681C50.9793 152.022 52.8438 152.022 54.6609 151.681L55.0447 153.812C52.9613 154.217 50.8191 154.217 48.7357 153.812V153.812ZM51.8903 147.759C49.8796 147.755 47.9151 147.154 46.2456 146.034C44.576 144.913 43.2763 143.323 42.5108 141.463C41.7452 139.604 41.5482 137.56 41.9446 135.588C42.341 133.617 43.3131 131.807 44.7379 130.389C46.1627 128.97 47.9762 128.005 49.9492 127.617C51.9221 127.229 53.9658 127.435 55.8218 128.208C57.6779 128.981 59.2629 130.288 60.3765 131.962C61.4901 133.636 62.0822 135.603 62.078 137.614C62.0752 138.949 61.8094 140.27 61.2959 141.503C60.7824 142.735 60.0313 143.854 59.0852 144.796C58.1392 145.739 57.0168 146.485 55.7823 146.993C54.5478 147.502 53.2254 147.762 51.8903 147.759ZM61.0123 151.382L59.8189 149.635C61.4379 148.534 62.8276 147.13 63.911 145.5L65.7015 146.693C64.4697 148.556 62.8747 150.151 61.0123 151.382V151.382ZM63.911 129.685C62.8438 128.053 61.4507 126.66 59.8189 125.593L61.0123 123.803C62.8599 125.052 64.4516 126.644 65.7015 128.492L63.911 129.685ZM66.0423 140.342C66.383 138.525 66.383 136.66 66.0423 134.843L68.1737 134.459C68.5901 136.57 68.5901 138.742 68.1737 140.853L66.0423 140.342Z" fill="#CBBD9F"/>
<path d="M119.966 80.9194C107.86 80.9194 99.7179 91.7893 99.7179 101.935C99.7179 112.08 107.86 122.95 119.966 122.95C132.072 122.95 140.214 112.08 140.214 101.935C140.214 91.7893 132.072 80.9194 119.966 80.9194ZM123.12 85.6937L122.694 87.825C120.895 87.4416 119.036 87.4416 117.238 87.825L116.811 85.6937C118.902 85.3381 121.04 85.3671 123.12 85.7789V85.6937ZM110.886 88.1234L112.037 89.9138C110.405 90.9809 109.012 92.3741 107.945 94.0059L106.155 92.855C107.404 90.9808 109.012 89.3726 110.886 88.1234V88.1234ZM105.856 104.663L103.725 105.089C103.254 102.984 103.254 100.8 103.725 98.6949C107.732 99.5049 104.599 98.0981 105.856 104.663ZM110.886 115.746C109.015 114.493 107.408 112.885 106.155 111.014L107.945 109.863C109.012 111.495 110.405 112.888 112.037 113.955L110.886 115.746ZM116.811 118.133L117.195 116.002C119.026 116.343 120.905 116.343 122.737 116.002L123.12 118.133C121.037 118.538 118.895 118.538 116.811 118.133V118.133ZM119.966 112.122C117.951 112.122 115.981 111.525 114.306 110.405C112.63 109.286 111.325 107.695 110.553 105.833C109.782 103.972 109.581 101.923 109.974 99.947C110.367 97.9708 111.337 96.1555 112.762 94.7307C114.187 93.3059 116.002 92.3356 117.978 91.9425C119.955 91.5494 122.003 91.7511 123.865 92.5222C125.726 93.2933 127.317 94.5991 128.437 96.2745C129.556 97.9499 130.154 99.9196 130.154 101.935C130.154 104.637 129.08 107.228 127.17 109.139C125.259 111.049 122.668 112.122 119.966 112.122V112.122ZM129.045 115.746L127.894 113.955C129.526 112.888 130.92 111.495 131.987 109.863L133.777 111.014C132.524 112.885 130.916 114.493 129.045 115.746V115.746ZM131.987 94.0059C130.92 92.3741 129.526 90.9809 127.894 89.9138L129.045 88.1234C130.92 89.3726 132.528 90.9808 133.777 92.855L131.987 94.0059ZM134.118 99.1638L136.249 98.7802C136.72 100.886 136.72 103.069 136.249 105.174C132.221 104.279 135.269 105.75 134.075 99.1638H134.118Z" fill="#CBBD9F"/>
<path d="M68.8134 144.69C70.6553 138.888 70.1683 132.597 67.4556 127.148C64.7429 121.699 60.0172 117.518 54.2777 115.49C59.0687 112.844 64.4382 111.421 69.9109 111.346C75.3835 111.272 80.7901 112.549 85.6512 115.064L79.4702 124.143L79.8113 125.678C84.4746 128.272 89.6603 129.787 94.9866 130.111C85.5409 133.544 76.7049 138.466 68.8134 144.69V144.69Z" fill="#2D6B67"/>
<path d="M103.639 79.3857C92.6848 90.2068 79.1615 98.0686 64.3374 102.234C63.7711 100.83 63.1161 99.4628 62.3765 98.1416C67.386 94.5142 72.0007 90.3709 76.1449 85.7798C81.2047 85.0061 86.056 83.2178 90.4072 80.5221C94.7584 77.8264 98.5198 74.279 101.465 70.093C107.177 71.4145 108.499 71.9046 103.639 79.3857Z" fill="#CBBD9F"/>
<path d="M72.905 85.9497C69.3554 89.7588 65.4435 93.2138 61.2249 96.2655C60.5165 95.181 59.6714 94.1925 58.7101 93.3242C61.9521 90.9351 65.0282 88.3289 67.9174 85.5234C69.545 85.9395 71.2304 86.0834 72.905 85.9497V85.9497Z" fill="#C93112"/>
<path d="M109.608 60.8427C107.178 56.9424 102.681 55.9406 101.082 46.6906L102.745 46.52C104.706 47.7562 108.627 53.9158 109.608 60.8427Z" fill="#2D6B67"/>
<path d="M108.882 65.4457C106.517 62.7601 101.678 61.524 99.8029 59.3073C97.0305 55.7428 95.5702 51.3323 95.6679 46.8176C96.7181 46.8922 97.7722 46.8922 98.8223 46.8176C101.082 59.5418 108.307 58.5188 108.882 65.4457Z" fill="#2D6B67"/>
<path d="M107.519 72.4798C106.474 64.1036 86.4821 74.0357 90.7662 46.3494C91.704 46.5199 92.6416 46.6477 93.5368 46.733C93.4425 51.7945 95.099 56.7334 98.2259 60.7147C101.956 65.1053 110.78 64.6364 107.519 72.4798Z" fill="#2D6B67"/>
<path d="M109.309 36.7577C107.708 38.9692 106.524 41.4537 105.813 44.0896C95.6256 44.9421 91.2562 45.8159 76.6991 38.9316C77.0244 36.2255 76.8657 33.4831 76.2302 30.8325C86.7551 34.9794 97.9991 36.9934 109.309 36.7577V36.7577Z" fill="#CBBD9F"/>
<path d="M107.86 34.6268C97.842 34.6379 87.9057 32.8326 78.5323 29.2984C83.207 26.3771 88.803 25.3042 94.2266 26.2896C99.6503 27.275 104.511 30.2478 107.86 34.6268V34.6268Z" fill="#C93112"/>
<path d="M47.0308 70.7322C48.3076 70.5569 49.4776 69.9248 50.3241 68.953C51.1706 67.9811 51.636 66.7353 51.6343 65.4464C51.4638 64.8923 48.9062 59.905 46.3059 54.9602C43.7057 59.905 41.1907 64.935 40.9775 65.617C41.0069 66.4761 41.2482 67.3147 41.6795 68.0583C42.1108 68.802 42.7188 69.4276 43.45 69.8797C44.0681 70.2847 43.9188 68.9632 43.9188 101.509H45.0698C45.3525 101.509 45.6235 101.621 45.8233 101.821C46.0232 102.021 46.1355 102.292 46.1355 102.575C46.1355 102.857 46.0232 103.128 45.8233 103.328C45.6235 103.528 45.3525 103.64 45.0698 103.64H43.9188V105.665H45.0698C45.3525 105.665 45.6235 105.777 45.8233 105.977C46.0232 106.177 46.1355 106.448 46.1355 106.731C46.1355 107.013 46.0232 107.285 45.8233 107.484C45.6235 107.684 45.3525 107.796 45.0698 107.796H43.9188V109.693H45.0698C45.3525 109.693 45.6235 109.806 45.8233 110.006C46.0232 110.205 46.1355 110.476 46.1355 110.759C46.1355 111.042 46.0232 111.313 45.8233 111.513C45.6235 111.712 45.3525 111.825 45.0698 111.825H43.9188V114.297C45.4594 114.815 47.1161 114.881 48.6933 114.489V95.0936C48.1693 94.5631 47.8547 93.8609 47.8077 93.1167C47.7607 92.3724 47.9842 91.6363 48.4373 91.044C48.7996 90.4899 48.6933 93.5377 48.6933 72.4586C48.191 72.6105 47.6779 72.7245 47.1585 72.7996C46.9232 72.7578 46.709 72.6381 46.55 72.4597C46.3909 72.2814 46.2962 72.0548 46.2815 71.8162C46.2667 71.5777 46.3327 71.3411 46.4685 71.1445C46.6044 70.9479 46.8025 70.8028 47.0308 70.7322V70.7322Z" fill="#CBBD9F"/>
<path d="M128.022 101.935C128.022 103.528 127.549 105.086 126.664 106.411C125.779 107.736 124.521 108.768 123.048 109.378C121.576 109.988 119.956 110.147 118.394 109.836C116.831 109.526 115.395 108.758 114.268 107.632C113.142 106.505 112.374 105.069 112.064 103.506C111.753 101.944 111.912 100.324 112.522 98.8516C113.132 97.3795 114.164 96.1212 115.489 95.236C116.814 94.3507 118.372 93.8782 119.965 93.8782C122.1 93.8838 124.146 94.7345 125.656 96.2441C127.166 97.7538 128.016 99.7997 128.022 101.935V101.935Z" fill="#2D6B67"/>
<path d="M59.9462 137.614C59.942 139.202 59.4677 140.752 58.5831 142.07C57.6986 143.388 56.4434 144.415 54.9761 145.021C53.5087 145.626 51.8949 145.783 50.3382 145.473C48.7815 145.162 47.3517 144.397 46.2292 143.275C45.1068 142.152 44.342 140.722 44.0313 139.166C43.7206 137.609 43.8779 135.995 44.4835 134.528C45.089 133.06 46.1155 131.805 47.4336 130.921C48.7517 130.036 50.3025 129.562 51.8899 129.558C52.9495 129.552 53.9994 129.757 54.9795 130.159C55.9595 130.562 56.8499 131.156 57.5992 131.905C58.3484 132.654 58.9415 133.544 59.3444 134.524C59.7473 135.504 59.9519 136.555 59.9462 137.614V137.614Z" fill="#C93112"/>
<path d="M91.8961 188.084C91.8961 187.53 91.8961 186.955 91.8961 186.401C91.8904 186.261 91.9126 186.121 91.9609 185.989C92.0093 185.858 92.0829 185.737 92.1779 185.634C92.2729 185.531 92.3874 185.448 92.5146 185.389C92.6418 185.331 92.7794 185.298 92.9194 185.292C93.2041 185.287 93.4797 185.393 93.6869 185.588C93.8942 185.783 94.0164 186.052 94.0275 186.337C94.0275 186.891 94.0275 187.466 94.0275 188.02C94.0275 188.303 93.9154 188.574 93.7155 188.774C93.5157 188.974 93.2445 189.086 92.9618 189.086C92.6792 189.086 92.4082 188.974 92.2084 188.774C92.0085 188.574 91.8961 188.303 91.8961 188.02V188.084ZM124.847 87.9107L125.252 85.7793C123.141 85.3634 120.969 85.3634 118.858 85.7793L119.263 87.9107C121.107 87.5481 123.003 87.5481 124.847 87.9107V87.9107ZM114.19 90.042L113.018 88.2517C111.144 89.4856 109.542 91.0883 108.308 92.962L110.077 94.1343C111.144 92.4603 112.544 91.0238 114.19 89.9141V90.042ZM105.878 98.9085C105.475 101.021 105.475 103.19 105.878 105.303L108.009 104.898C107.669 103.08 107.669 101.216 108.009 99.3987L105.878 98.9085ZM138.317 98.9085L136.186 99.3134C136.538 101.13 136.538 102.996 136.186 104.812L138.317 105.217C138.726 103.091 138.726 100.907 138.317 98.7806V98.9085ZM131.177 88.2517L130.005 90.042C131.638 91.1144 133.038 92.5065 134.118 94.1343L135.887 92.962C134.667 91.0421 133.064 89.395 131.177 88.1238V88.2517ZM130.495 123.483C131.671 123.823 132.813 124.273 133.905 124.826C134.667 125.107 135.328 125.607 135.806 126.263C136.284 126.919 136.557 127.702 136.591 128.513C136.598 129.068 136.45 129.614 136.164 130.09C136.858 130.624 137.321 131.402 137.459 132.265C137.598 133.129 137.402 134.013 136.91 134.737C137.329 135.353 137.533 136.09 137.49 136.833C137.448 137.577 137.162 138.285 136.676 138.85C136.87 139.238 136.98 139.663 136.998 140.096C137.017 140.529 136.943 140.962 136.782 141.365C136.62 141.767 136.376 142.132 136.064 142.433C135.752 142.734 135.379 142.966 134.971 143.113C133.773 143.708 132.469 144.063 131.134 144.157V168.327C132.049 169.021 132.79 169.916 133.3 170.944C133.81 171.972 134.076 173.104 134.076 174.252C134.076 175.168 131.689 179.559 126.616 189.321C125.977 188.106 119.433 175.808 119.178 174.401C119.178 174.401 119.178 174.273 119.178 174.167C119.178 173.019 119.443 171.887 119.953 170.859C120.464 169.831 121.205 168.935 122.119 168.241V149.507C120.46 149.289 118.863 148.73 117.43 147.866L117.046 147.61C114.061 149.814 111.214 152.198 108.521 154.75C110.504 155.561 112.241 156.874 113.564 158.559C114.887 160.244 115.749 162.244 116.066 164.362V164.639V164.853V164.959C116.066 164.959 116.066 164.959 116.066 165.13L115.917 165.258L115.746 165.364C115.64 165.364 115.746 165.364 115.448 165.471H115.043C114.829 165.471 110.354 163.339 107.604 164.512C107.133 164.724 106.726 165.057 106.423 165.475C106.12 165.894 105.933 166.385 105.878 166.899C105.26 170.288 104.066 173.89 100.976 175.424C101.282 176.231 101.312 177.116 101.061 177.941C100.81 178.766 100.293 179.485 99.5903 179.985L101.892 181.03L102.233 182.735C100.615 184.185 99.3837 186.016 98.6526 188.063C97.9706 190.749 99.2067 195.054 97.2245 198.059C99.3559 198.997 99.3561 198.997 99.5692 199.338C100.038 200.02 99.4412 200.446 99.4412 203.196C99.4853 205.557 99.851 207.902 100.528 210.165L99.1001 211.444L98.3115 211.124C95.6502 213.019 92.6371 214.362 89.4492 215.075C86.2613 215.788 82.9629 215.857 79.748 215.277C76.5332 214.697 73.4667 213.48 70.7288 211.698C67.9909 209.917 65.637 207.605 63.805 204.901H62.4196L61.5243 203.174C66.5969 196.78 65.4888 194.031 66.725 193.455C66.9351 193.369 67.1584 193.318 67.3856 193.306C63.2172 188.099 60.9136 181.646 60.8424 174.977C60.8166 171.652 61.5454 168.366 62.9738 165.364L56.5797 159.588C51.3439 161.373 45.6194 161.052 40.6159 158.693C36.5636 156.758 33.152 153.701 30.787 149.884C28.4219 146.066 27.203 141.65 27.2749 137.161C27.3467 132.671 28.7064 128.296 31.1923 124.556C33.6782 120.817 37.1857 117.87 41.2978 116.066C40.1203 115.73 38.9783 115.28 37.8877 114.723C37.1262 114.442 36.465 113.942 35.9871 113.286C35.5092 112.63 35.236 111.847 35.2021 111.036C35.1871 110.483 35.3276 109.936 35.6072 109.459C34.9175 108.922 34.4584 108.143 34.3238 107.279C34.1891 106.416 34.3888 105.533 34.8824 104.812C34.464 104.196 34.2603 103.459 34.3027 102.716C34.3451 101.972 34.6311 101.263 35.1168 100.699C34.8508 100.231 34.7329 99.693 34.7786 99.1565C34.8242 98.6201 35.0315 98.11 35.3728 97.6936C36.7597 96.2738 38.6526 95.4614 40.6372 95.4344V71.3713C39.7294 70.6731 38.9941 69.7758 38.4879 68.7485C37.9816 67.7212 37.718 66.5914 37.7172 65.4462C37.7172 64.6362 38.9747 62.2918 45.177 50.3775C46.0508 52.0613 51.9333 63.1656 52.5301 64.9347C52.5599 65.1039 52.5599 65.277 52.5301 65.4462C52.5301 66.5937 52.2647 67.7258 51.7545 68.7537C51.2442 69.7816 50.5029 70.6775 49.5888 71.3713V90.042C51.2473 90.2638 52.8431 90.8223 54.2779 91.6831L54.6614 91.939C57.6464 89.7353 60.4936 87.3508 63.1868 84.7989C61.2053 83.986 59.4686 82.673 58.1462 80.9882C56.8238 79.3034 55.9607 77.3044 55.6418 75.1865C55.6418 75.1865 55.6418 75.1865 55.6418 75.1865C55.6278 75.1089 55.6278 75.0296 55.6418 74.952C55.6228 74.875 55.6228 74.7946 55.6418 74.7176V74.5471L55.7911 74.3765C55.9421 74.2337 56.1322 74.1391 56.3372 74.1049C56.5422 74.0707 56.753 74.0985 56.9421 74.1847C58.5839 74.9379 60.3586 75.3581 62.1638 75.4209C64.2952 75.4209 65.5527 74.6749 65.915 72.6928C66.5331 69.2826 67.7265 65.7019 70.817 64.1673C70.5035 63.3618 70.4698 62.4743 70.721 61.6472C70.9722 60.8201 71.4939 60.1014 72.2024 59.6063L69.9007 58.5619L69.5596 56.8568C72.7992 53.4253 73.3748 52.2531 73.3748 48.6937C73.065 46.2413 73.4798 43.7517 74.5682 41.5323L72.6075 40.6159C72.3602 40.4776 72.1767 40.2482 72.096 39.9765C72.096 39.6781 72.096 39.465 72.096 38.6551C72.4302 35.5485 72.118 32.4064 71.1794 29.4263L72.6075 28.1261L73.3961 28.4672C76.0575 26.5729 79.0706 25.2297 82.2585 24.5167C85.4464 23.8036 88.7448 23.7349 91.9596 24.3147C95.1744 24.8945 98.2409 26.1111 100.979 27.893C103.717 29.6749 106.071 31.986 107.903 34.6907H108.926L109.821 36.4171C107.515 39.0558 105.904 42.2277 105.132 45.6459C105.006 45.8916 104.794 46.0816 104.535 46.1787L103.96 46.2853C105.349 47.891 106.504 49.6849 107.391 51.6137C110.801 58.6685 111.803 67.1086 108.393 74.2273L114.787 80.0034C117.004 79.2513 119.33 78.8696 121.671 78.8737C138.296 78.8737 150.359 98.3117 140.448 114.339C138.105 118.271 134.638 121.41 130.495 123.355V123.483ZM107.647 76.039C94.9691 90.5117 78.1318 100.717 59.4356 105.26C60.793 107.067 62.2594 108.789 63.8264 110.418L65.0624 110.119C78.9602 106.7 91.8605 100.064 102.724 90.7453C105.058 86.4906 108.654 83.065 113.018 80.9412L107.647 76.039ZM100.869 95.0081C93.01 101.167 84.2173 106.031 74.824 109.416C80.0665 109.789 85.1615 111.317 89.7435 113.892L90.1059 115.426L84.0102 124.57C88.8809 127.101 94.3017 128.389 99.7904 128.318C105.279 128.247 110.665 126.821 115.469 124.165C109.683 122.167 104.907 117.985 102.163 112.513C99.4189 107.041 98.924 100.712 100.784 94.8802L100.869 95.0081ZM71.0303 144.775C78.8897 138.617 87.6821 133.753 97.0755 130.367C91.8324 129.997 86.7368 128.469 82.156 125.891L81.6018 124.144L87.7188 115C82.8464 112.475 77.4262 111.19 71.9386 111.261C66.451 111.331 61.0656 112.755 56.2599 115.405C62.0366 117.403 66.8045 121.578 69.5476 127.041C72.2907 132.503 72.7922 138.821 70.945 144.647L71.0303 144.775ZM92.3439 46.8607C91.47 46.8607 90.5535 46.6476 89.5944 46.4984C85.3317 74.2061 105.558 64.3592 106.475 72.5436C106.886 71.7813 107.114 70.9335 107.14 70.0676C107.166 69.2017 106.989 68.3418 106.624 67.5562C104.94 64.7642 99.7397 63.8477 97.0968 60.8638C93.9466 56.8375 92.2894 51.8437 92.4076 46.7329L92.3439 46.8607ZM98.738 59.4571C100.869 61.7802 105.388 62.782 107.796 65.5101C107.221 58.6258 99.9526 59.6489 97.736 46.9673C96.5851 46.9673 95.6047 46.9673 94.539 46.9673C94.5102 51.4461 95.9978 55.8029 98.7593 59.3292L98.738 59.4571ZM99.3346 70.1138C94.0914 78.3409 83.4988 84.4152 73.9716 85.8219C69.8293 90.385 65.2378 94.5194 60.2669 98.1625C61.0209 99.4951 61.6695 100.885 62.2065 102.319C77.0247 98.0947 90.5407 90.2078 101.509 79.3852C102.936 77.4922 103.933 75.3099 104.429 72.9912C104.44 72.7853 104.411 72.5792 104.341 72.3852C104.272 72.1911 104.164 72.013 104.024 71.8616C102.613 70.9268 101.023 70.2953 99.3559 70.0073L99.3346 70.1138ZM102.254 47.1165C102.057 46.9425 101.851 46.7789 101.637 46.6263L99.8674 46.7968C101.551 56.0256 106.07 57.006 108.542 60.949C107.863 55.7894 105.684 50.9426 102.276 47.0099L102.254 47.1165ZM76.2734 29.4476C85.6895 33.017 95.6801 34.8302 105.75 34.7973C102.383 30.408 97.5094 27.4215 92.0699 26.4139C86.6305 25.4063 81.0106 26.4491 76.2947 29.341L76.2734 29.4476ZM89.0615 44.1753H89.2533C94.0933 44.9853 99.0343 44.9853 103.874 44.1753C104.502 41.5182 105.623 39.0023 107.178 36.7581C95.8709 36.9969 84.6306 34.9677 74.1207 30.7903C74.7765 33.4595 74.9354 36.2267 74.5895 38.9534C79.1261 41.3142 83.9676 43.0356 88.9762 44.0687L89.0615 44.1753ZM97.3099 69.4957C94.1905 68.6843 91.4671 66.7779 89.637 64.1247C86.3761 59.18 86.7383 51.9121 87.6548 46.0935C83.9863 45.2687 80.4145 44.0614 76.998 42.4915C76.7875 42.7419 76.6152 43.0219 76.4865 43.3227C76.3806 43.764 76.3806 44.2241 76.4865 44.6654C76.9554 45.5819 81.1543 45.1557 84.6284 48.2462C84.7334 48.3399 84.8186 48.4534 84.8797 48.5802C84.9408 48.707 84.9764 48.8446 84.9843 48.9851C84.9922 49.1256 84.9725 49.2663 84.926 49.3992C84.8796 49.532 84.8072 49.6544 84.7135 49.7594C84.6197 49.8644 84.5062 49.9498 84.3794 50.0109C84.2526 50.072 84.1151 50.1075 83.9746 50.1155C83.8341 50.1234 83.6935 50.1035 83.5606 50.057C83.4278 50.0106 83.3053 49.9384 83.2003 49.8447C80.5361 47.4789 77.808 47.7133 75.9963 46.9034C75.9963 47.0313 75.9963 48.2674 75.9963 48.7363C76.102 50.3201 75.8526 51.9074 75.2663 53.3824C74.68 54.8574 73.7716 56.1828 72.6075 57.2618L76.8702 59.1374C77.95 59.5341 78.8902 60.2377 79.5755 61.1616C80.2609 62.0855 80.6614 63.1895 80.7279 64.3379C80.8023 65.4023 80.8023 66.4705 80.7279 67.5349L79.3638 68.5366C77.0744 67.8817 74.86 66.9888 72.7566 65.8725C72.2615 66.0485 71.8001 66.308 71.3925 66.6397C69.7615 68.4001 68.751 70.6456 68.5152 73.0338C68.4158 73.7276 68.1754 74.3938 67.8089 74.9913C67.4423 75.5887 66.9574 76.1049 66.3839 76.5079C65.1846 77.1239 63.8658 77.4715 62.5187 77.5267C61.1717 77.582 59.8287 77.3433 58.583 76.8276C59.1183 78.3485 59.9847 79.7317 61.1195 80.8772C68.2595 88.1451 89.0188 81.5166 97.2245 69.3892L97.3099 69.4957ZM73.2894 63.4427C73.5106 63.8266 73.846 64.132 74.2487 64.3165C75.6288 65 77.0529 65.5911 78.5114 66.0856C78.5114 63.6132 78.0638 62.036 75.8472 61.1195C74.0569 60.3096 72.5863 62.1426 73.2044 63.3361L73.2894 63.4427ZM56.6864 93.4735C57.6386 94.3408 58.4893 95.3132 59.2226 96.3722C63.4037 93.2897 67.3114 89.8525 70.9023 86.099C69.2012 86.1772 67.4969 86.0411 65.8297 85.694C62.926 88.4523 59.8431 91.0155 56.601 93.3669L56.6864 93.4735ZM49.5888 92.3226C49.4192 92.3226 49.2565 92.3899 49.1366 92.5099C49.0167 92.6298 48.9495 92.7924 48.9495 92.962C49.0446 93.4335 49.257 93.8734 49.5674 94.2408C50.2921 95.1999 51.4218 95.9885 52.3383 97.1181C53.0418 98.0106 53.5495 99.0412 53.8286 100.143C54.1077 101.244 54.1519 102.392 53.9582 103.512C53.9073 103.795 53.7462 104.046 53.5104 104.21C53.2746 104.373 52.9831 104.437 52.7005 104.386C52.4178 104.335 52.1671 104.174 52.0032 103.938C51.8393 103.702 51.7759 103.411 51.8268 103.129C51.9684 102.3 51.9353 101.451 51.7298 100.637C51.5242 99.8218 51.1507 99.059 50.6331 98.397C50.3806 98.09 50.1102 97.7982 49.8232 97.5231V114.574C51.023 114.574 52.2207 114.674 53.404 114.872C55.9463 113.268 58.682 111.993 61.5457 111.078C59.8279 109.224 58.2331 107.259 56.7714 105.196L57.4323 103.555L60.2029 102.894C58.9775 99.1836 56.5946 95.9639 53.404 93.708C52.2332 92.9145 50.901 92.3904 49.5034 92.1734L49.5888 92.3226ZM45.9229 114.915C46.0934 114.915 46.4983 114.787 47.7345 114.659V95.3491C47.2023 94.66 46.8838 93.8301 46.8182 92.962C46.8049 92.5612 46.8801 92.1624 47.0385 91.794C47.197 91.4256 47.4345 91.0967 47.7345 90.8306V72.5223C47.2872 72.6883 46.8224 72.8027 46.3491 72.8633C46.2091 72.8829 46.0667 72.8747 45.9299 72.8393C45.7931 72.8038 45.6647 72.7418 45.5519 72.6567C45.4391 72.5715 45.3441 72.4651 45.2725 72.3433C45.2008 72.2215 45.1539 72.0868 45.1343 71.9468C45.1147 71.8069 45.1228 71.6644 45.1583 71.5276C45.1937 71.3908 45.2558 71.2624 45.3409 71.1496C45.426 71.0368 45.5326 70.9418 45.6544 70.8702C45.7762 70.7985 45.9107 70.7515 46.0507 70.7319C47.3113 70.5635 48.4696 69.948 49.3146 68.9974C50.1595 68.0468 50.635 66.8244 50.6545 65.5528C50.1856 64.2739 45.4966 55.2583 45.3474 54.896C44.6014 56.324 40.5732 63.9969 40.019 65.5528C40.0376 66.4239 40.2686 67.2772 40.6921 68.0387C41.1155 68.8001 41.7186 69.4466 42.4488 69.922C42.6375 70.0407 42.7843 70.2156 42.8685 70.4221C42.9526 70.6285 42.9697 70.8562 42.9176 71.073C42.9176 71.2861 42.9176 69.2826 42.9176 99.2708C42.9176 99.5534 42.8055 99.8245 42.6057 100.024C42.4058 100.224 42.1346 100.336 41.852 100.336C41.5693 100.336 41.2983 100.224 41.0985 100.024C40.8986 99.8245 40.7863 99.5534 40.7863 99.2708V97.6722C39.4755 97.728 38.2218 98.2235 37.2271 99.079C37.1099 99.1985 37.0442 99.3592 37.0442 99.5266C37.0442 99.6939 37.1099 99.8546 37.2271 99.9741C38.378 101.402 42.2143 101.594 44.0473 101.594C44.3299 101.594 44.6009 101.706 44.8008 101.906C45.0006 102.106 45.113 102.377 45.113 102.66C45.113 102.942 45.0006 103.213 44.8008 103.413C44.6009 103.613 44.3299 103.725 44.0473 103.725C41.5458 103.863 39.049 103.379 36.7793 102.319C35.8628 103.683 37.8237 104.876 39.4222 105.281C40.9418 105.608 42.493 105.765 44.0473 105.75C44.3299 105.75 44.6009 105.862 44.8008 106.062C45.0006 106.262 45.113 106.533 45.113 106.816C45.113 107.098 45.0006 107.369 44.8008 107.569C44.6009 107.769 44.3299 107.881 44.0473 107.881C42.3135 107.896 40.5834 107.718 38.8893 107.349C38.0923 107.155 37.3303 106.838 36.6302 106.411C36.2679 107.434 37.2483 108.18 38.2288 108.67C40.0796 109.41 42.0539 109.794 44.0473 109.8C44.3299 109.8 44.6009 109.912 44.8008 110.112C45.0006 110.312 45.113 110.583 45.113 110.865C45.113 111.148 45.0006 111.419 44.8008 111.619C44.6009 111.819 44.3299 111.931 44.0473 111.931C41.8581 111.916 39.6904 111.497 37.6532 110.695C37.5713 110.913 37.5458 111.149 37.5794 111.38C37.6129 111.611 37.7043 111.83 37.845 112.016C38.7615 113.338 43.5144 114.808 45.8376 114.808L45.9229 114.915ZM58.0289 156.903C61.6324 155.157 64.6717 152.432 66.7981 149.04C68.9245 145.647 70.0521 141.724 70.0521 137.72C70.0521 133.717 68.9245 129.794 66.7981 126.401C64.6717 123.008 61.6324 120.283 58.0289 118.538C55.4751 117.337 52.6879 116.715 49.8659 116.715C47.0438 116.715 44.2566 117.337 41.7029 118.538C38.0994 120.283 35.0603 123.008 32.9339 126.401C30.8075 129.794 29.6797 133.717 29.6797 137.72C29.6797 141.724 30.8075 145.647 32.9339 149.04C35.0603 152.432 38.0994 155.157 41.7029 156.903C44.253 158.074 47.029 158.671 49.8352 158.653C52.6413 158.635 55.4093 158.001 57.9438 156.796L58.0289 156.903ZM64.3165 163.723C76.9871 149.242 93.8274 139.035 112.528 134.502C111.17 132.695 109.704 130.973 108.137 129.344L106.901 129.643C93.0032 133.062 80.1029 139.698 69.2398 149.017C66.9057 153.271 63.309 156.697 58.9455 158.821L64.3165 163.723ZM79.5344 192.901C80.4296 192.901 81.3459 193.114 82.2837 193.264C86.5464 165.556 66.3414 175.403 65.4249 167.218C65.0085 167.979 64.778 168.827 64.7521 169.694C64.7261 170.561 64.9054 171.422 65.2755 172.206C66.9593 174.977 72.16 175.936 74.8029 178.898C77.9051 182.859 79.5528 187.765 79.4704 192.795L79.5344 192.901ZM73.1404 180.305C71.009 178.003 66.4905 176.98 64.0821 174.252C64.1458 175.275 64.414 176.275 64.8707 177.193C66.8742 181.008 72.3091 182.266 74.142 192.795C75.293 192.795 76.2734 192.795 77.3391 192.795C77.3886 188.234 75.8854 183.792 73.0764 180.198L73.1404 180.305ZM72.5435 169.648C77.7653 161.421 88.3582 155.347 97.9067 153.94C102.052 149.374 106.643 145.232 111.611 141.578C110.853 140.255 110.205 138.872 109.672 137.443C94.8677 141.652 81.3597 149.517 70.3908 160.313C68.9552 162.201 67.9577 164.385 67.4709 166.707C67.459 166.913 67.4887 167.119 67.5583 167.313C67.6279 167.507 67.7361 167.685 67.876 167.837C69.2938 168.709 70.8748 169.282 72.5222 169.52L72.5435 169.648ZM69.6236 192.624C69.816 192.811 70.0227 192.982 70.2418 193.136L72.0107 192.965C70.3269 183.736 65.8086 182.756 63.3362 178.813C64.0499 183.886 66.2274 188.642 69.6022 192.496L69.6236 192.624ZM95.6047 210.314C86.1891 206.743 76.1982 204.93 66.1281 204.965C69.5256 209.32 74.4151 212.263 79.8539 213.228C85.2928 214.192 90.8961 213.108 95.5836 210.187L95.6047 210.314ZM82.8165 195.565H82.6461C77.807 194.745 72.8642 194.745 68.0251 195.565C67.3292 198.194 66.1433 200.667 64.5296 202.855C75.8455 202.643 87.0903 204.686 97.6083 208.865C96.9532 206.189 96.7944 203.415 97.1395 200.681C92.6456 198.296 87.8488 196.532 82.8805 195.438L82.8165 195.565ZM74.5895 170.266C77.7065 171.083 80.4284 172.988 82.2626 175.637C85.5236 180.582 85.1611 187.85 84.2446 193.669C87.9131 194.493 91.4849 195.701 94.9014 197.271C95.1178 197.016 95.2906 196.728 95.4129 196.418C95.5187 195.984 95.5187 195.531 95.4129 195.097C94.9227 194.18 90.7454 194.606 87.2713 191.516C87.1714 191.417 87.092 191.299 87.0379 191.169C86.9838 191.039 86.9559 190.9 86.9559 190.759C86.9559 190.619 86.9838 190.479 87.0379 190.349C87.092 190.22 87.1714 190.102 87.2713 190.003C87.3685 189.903 87.4845 189.825 87.6126 189.771C87.7407 189.717 87.8782 189.689 88.0172 189.689C88.1561 189.689 88.2937 189.717 88.4218 189.771C88.5499 189.825 88.6659 189.903 88.7631 190.003C91.4486 192.368 94.1768 192.134 95.9884 192.944V191.111C95.8828 189.527 96.1322 187.94 96.7185 186.465C97.3048 184.99 98.2131 183.665 99.3772 182.586L95.2212 180.71C91.4913 179.175 91.1716 176.127 91.2569 172.312L92.621 171.311C94.9104 171.966 97.1248 172.859 99.2281 173.975C99.7233 173.799 100.185 173.539 100.592 173.208C102.223 171.447 103.234 169.202 103.47 166.813C103.569 166.12 103.809 165.453 104.176 164.856C104.542 164.258 105.027 163.742 105.601 163.339C106.8 162.723 108.119 162.376 109.466 162.321C110.813 162.265 112.156 162.504 113.402 163.02C112.866 161.499 112 160.116 110.865 158.97C103.619 151.382 82.8593 157.968 74.6535 170.138L74.5895 170.266ZM98.61 176.319C98.3888 175.935 98.0537 175.63 97.651 175.445C96.2705 174.763 94.8465 174.172 93.3882 173.676C93.3882 176.127 93.8359 177.726 96.0738 178.642C97.8002 179.218 99.292 177.428 98.6526 176.191L98.61 176.319ZM115.213 146.289C114.261 145.421 113.41 144.449 112.677 143.39C108.487 146.461 104.578 149.899 100.997 153.663C102.698 153.585 104.402 153.721 106.07 154.068C108.959 151.23 112.035 148.588 115.277 146.161L115.213 146.289ZM122.311 147.439C122.48 147.439 122.643 147.372 122.763 147.252C122.883 147.132 122.95 146.97 122.95 146.8C122.846 146.332 122.634 145.894 122.332 145.521C121.607 144.562 120.457 143.752 119.561 142.644C118.857 141.752 118.348 140.722 118.069 139.62C117.79 138.518 117.746 137.37 117.942 136.25C117.992 135.967 118.153 135.716 118.389 135.552C118.625 135.389 118.916 135.325 119.199 135.376C119.482 135.427 119.732 135.588 119.896 135.824C120.06 136.06 120.124 136.351 120.073 136.633C119.931 137.462 119.964 138.311 120.17 139.125C120.375 139.94 120.749 140.703 121.266 141.365C121.519 141.672 121.789 141.964 122.076 142.239V125.188C120.876 125.188 119.679 125.088 118.496 124.89C115.945 126.493 113.202 127.768 110.332 128.684C112.058 130.532 113.653 132.497 115.107 134.566L114.467 136.207L111.697 136.868C112.919 140.58 115.303 143.8 118.496 146.054C119.683 146.747 121.006 147.176 122.375 147.312L122.311 147.439ZM125.976 124.847C125.806 124.847 125.422 124.975 124.165 125.103V144.413C124.697 145.102 125.016 145.932 125.081 146.8C125.095 147.201 125.02 147.6 124.861 147.968C124.703 148.336 124.465 148.665 124.165 148.931V167.218C124.616 167.069 125.08 166.962 125.55 166.899C125.833 166.859 126.12 166.933 126.348 167.105C126.575 167.277 126.726 167.533 126.765 167.815C126.805 168.098 126.73 168.385 126.559 168.612C126.387 168.84 126.131 168.99 125.849 169.03C124.586 169.198 123.425 169.813 122.577 170.763C121.728 171.713 121.248 172.936 121.224 174.209C121.714 175.488 126.403 184.504 126.552 184.866C127.277 183.481 131.326 175.765 131.88 174.209C131.863 173.335 131.63 172.479 131.203 171.717C130.775 170.955 130.166 170.31 129.429 169.84C129.247 169.716 129.106 169.54 129.026 169.334C128.946 169.129 128.931 168.904 128.982 168.689C128.982 168.476 128.982 170.479 128.982 140.47C128.987 140.189 129.101 139.921 129.3 139.722C129.499 139.524 129.767 139.41 130.047 139.404C130.33 139.404 130.601 139.517 130.801 139.716C131.001 139.916 131.113 140.187 131.113 140.47V142.09C132.431 142.037 133.693 141.541 134.694 140.683C134.755 140.625 134.803 140.556 134.836 140.479C134.869 140.402 134.886 140.319 134.886 140.235C134.886 140.152 134.869 140.069 134.836 139.992C134.803 139.915 134.755 139.846 134.694 139.788C133.564 138.36 129.728 138.168 127.895 138.168C127.612 138.168 127.341 138.056 127.141 137.856C126.941 137.656 126.829 137.385 126.829 137.102C126.829 136.82 126.941 136.549 127.141 136.349C127.341 136.149 127.612 136.037 127.895 136.037C130.396 135.902 132.892 136.385 135.163 137.443C136.079 136.079 134.097 134.886 132.52 134.481C131 134.154 129.449 133.997 127.895 134.012C127.612 134.012 127.341 133.9 127.141 133.7C126.941 133.5 126.829 133.229 126.829 132.946C126.829 132.664 126.941 132.393 127.141 132.193C127.341 131.993 127.612 131.881 127.895 131.881C129.622 131.865 131.345 132.043 133.031 132.413C133.836 132.603 134.606 132.92 135.312 133.351C135.674 132.328 134.694 131.582 133.713 131.092C131.865 130.343 129.889 129.96 127.895 129.962C127.612 129.962 127.341 129.85 127.141 129.65C126.941 129.45 126.829 129.179 126.829 128.897C126.829 128.614 126.941 128.343 127.141 128.143C127.341 127.943 127.612 127.831 127.895 127.831C130.084 127.848 132.251 128.267 134.289 129.067C134.371 128.849 134.396 128.613 134.363 128.382C134.329 128.151 134.238 127.932 134.097 127.746C131.759 125.982 128.962 124.931 126.041 124.719L125.976 124.847ZM142.281 102.063C142.227 98.0632 141.07 94.1562 138.938 90.7717C136.805 87.3873 133.781 84.6568 130.197 82.8807C127.643 81.6798 124.856 81.0571 122.034 81.0571C119.211 81.0571 116.424 81.6798 113.871 82.8807C110.267 84.626 107.228 87.3509 105.102 90.7435C102.975 94.136 101.847 98.059 101.847 102.063C101.847 106.067 102.975 109.99 105.102 113.382C107.228 116.775 110.267 119.5 113.871 121.245C116.424 122.446 119.211 123.069 122.034 123.069C124.856 123.069 127.643 122.446 130.197 121.245C133.814 119.47 136.865 116.724 139.011 113.314C141.156 109.904 142.311 105.964 142.345 101.935L142.281 102.063ZM132.221 102.063C132.221 104.078 131.624 106.048 130.505 107.723C129.385 109.398 127.794 110.704 125.932 111.475C124.071 112.246 122.022 112.448 120.046 112.055C118.07 111.662 116.255 110.692 114.83 109.267C113.405 107.842 112.435 106.027 112.042 104.05C111.648 102.074 111.85 100.026 112.621 98.1641C113.392 96.3025 114.698 94.7114 116.373 93.592C118.049 92.4725 120.019 91.875 122.034 91.875C124.725 91.8579 127.313 92.9062 129.234 94.7911C131.155 96.6759 132.252 99.2441 132.285 101.935L132.221 102.063ZM127.724 96.3722C126.598 95.2437 125.163 94.4747 123.6 94.1624C122.036 93.8502 120.416 94.0087 118.942 94.618C117.469 95.2273 116.21 96.2598 115.324 97.5851C114.438 98.9104 113.965 100.469 113.965 102.063C113.965 103.657 114.438 105.215 115.324 106.541C116.21 107.866 117.469 108.898 118.942 109.508C120.416 110.117 122.036 110.276 123.6 109.963C125.163 109.651 126.598 108.882 127.724 107.754C128.497 107.009 129.112 106.118 129.535 105.132C129.957 104.146 130.178 103.085 130.184 102.012C130.19 100.94 129.981 99.8768 129.569 98.8861C129.158 97.8954 128.552 96.9972 127.788 96.2443L127.724 96.3722ZM119.199 116.172L118.794 118.304C120.905 118.72 123.077 118.72 125.188 118.304L124.783 116.172C122.98 116.484 121.134 116.441 119.348 116.045L119.199 116.172ZM109.928 109.97L108.158 111.142C109.392 113.016 110.995 114.619 112.869 115.853L114.041 114.084C112.448 112.951 111.099 111.508 110.077 109.842L109.928 109.97ZM129.856 114.084L131.028 115.853C132.901 114.619 134.504 113.016 135.738 111.142L133.969 109.97C132.92 111.544 131.573 112.898 130.005 113.956L129.856 114.084ZM62.6327 158.139L61.1622 159.695L62.7393 161.144L64.1885 159.588L62.6327 158.139ZM73.5025 150.977L72.1598 149.315L70.4975 150.679L71.8403 152.32L73.5025 150.977ZM68.6856 155.112L67.2151 153.556L65.6593 155.027L67.1298 156.583L68.6856 155.112ZM78.5965 147.184L77.3604 145.436L75.6126 146.672L76.8489 148.42L78.5965 147.184ZM95.2639 137.998L94.3899 136.058L92.429 136.911L93.3029 138.871L95.2639 137.998ZM89.509 140.683L88.5074 138.807L86.6104 139.788L87.6121 141.685L89.509 140.683ZM83.9462 143.752L82.8379 141.941L81.0049 143.049L82.1133 144.86L83.9462 143.752ZM101.168 135.696L100.443 133.692L98.4395 134.438L99.1641 136.442L101.168 135.696ZM107.199 133.863L106.688 131.731L104.557 132.243L105.068 134.374L107.199 133.863ZM78.7245 50.548C78.5845 50.5535 78.4469 50.5865 78.3197 50.6452C78.1925 50.7039 78.078 50.7871 77.983 50.89C77.888 50.9929 77.8144 51.1137 77.766 51.2451C77.7177 51.3766 77.6958 51.5163 77.7015 51.6563V53.3401C77.7015 53.6227 77.8136 53.8937 78.0135 54.0936C78.2133 54.2935 78.4845 54.4057 78.7672 54.4057C79.0498 54.4057 79.3208 54.2935 79.5206 54.0936C79.7205 53.8937 79.8329 53.6227 79.8329 53.3401V51.6563C79.8603 51.5109 79.8566 51.3614 79.8219 51.2176C79.7873 51.0738 79.7224 50.939 79.6317 50.8222C79.5411 50.7053 79.4265 50.609 79.2959 50.5397C79.1652 50.4704 79.0212 50.4296 78.8736 50.4201L78.7245 50.548ZM46.8819 151.851L46.4771 153.983C48.5882 154.399 50.7601 154.399 52.8712 153.983L52.4661 151.851C50.6619 152.142 48.8198 152.099 47.0313 151.723L46.8819 151.851ZM61.6523 145.649C60.5656 147.272 59.1673 148.663 57.5387 149.741L58.711 151.51C60.5838 150.284 62.1865 148.689 63.4213 146.821L61.6523 145.649ZM65.915 140.875C66.3182 138.763 66.3182 136.593 65.915 134.481L63.7837 134.886C64.146 136.701 64.146 138.57 63.7837 140.385L65.915 140.875ZM35.6496 134.8L33.5183 134.396C33.1151 136.508 33.1151 138.677 33.5183 140.79L35.6496 140.385C35.2982 138.54 35.2982 136.645 35.6496 134.8ZM37.781 145.457L36.0121 146.629C37.2388 148.496 38.8347 150.092 40.7012 151.319L41.8733 149.55C40.2384 148.479 38.8389 147.087 37.7599 145.457H37.781ZM59.9685 137.55C59.9643 139.565 59.3626 141.533 58.2396 143.206C57.1166 144.879 55.5229 146.182 53.6597 146.949C51.7965 147.716 49.7477 147.914 47.7722 147.517C45.7968 147.119 43.9835 146.145 42.5617 144.717C41.1399 143.29 40.1733 141.472 39.7843 139.495C39.3954 137.518 39.6015 135.47 40.3765 133.61C41.1515 131.75 42.4606 130.162 44.1384 129.046C45.8161 127.93 47.7869 127.337 49.8019 127.341C51.1442 127.343 52.4727 127.612 53.7107 128.131C54.9487 128.65 56.0718 129.409 57.015 130.364C57.9582 131.319 58.7029 132.451 59.2062 133.696C59.7094 134.94 59.9612 136.272 59.9471 137.614L59.9685 137.55ZM55.4927 131.838C54.3666 130.709 52.9311 129.94 51.3679 129.628C49.8046 129.316 48.1839 129.474 46.7107 130.084C45.2376 130.693 43.9782 131.726 43.0922 133.051C42.2062 134.376 41.7333 135.934 41.7333 137.529C41.7333 139.123 42.2062 140.681 43.0922 142.006C43.9782 143.332 45.2376 144.364 46.7107 144.974C48.1839 145.583 49.8046 145.741 51.3679 145.429C52.9311 145.117 54.3666 144.348 55.4927 143.219C56.9776 141.709 57.8078 139.674 57.8038 137.556C57.7998 135.438 56.9619 133.407 55.4713 131.902L55.4927 131.838ZM52.5514 123.419L52.9565 121.288C50.8454 120.872 48.6735 120.872 46.5624 121.288L46.9673 123.419C48.8073 123.069 50.6986 123.091 52.5301 123.483L52.5514 123.419ZM61.8227 129.621L63.5919 128.449C62.358 126.575 60.7551 124.973 58.8815 123.739L57.7094 125.508C59.3424 126.609 60.7344 128.03 61.8014 129.685L61.8227 129.621ZM41.8733 125.508L40.7012 123.739C38.8341 124.974 37.2384 126.576 36.0121 128.449L37.781 129.621C38.8595 128.018 40.2428 126.642 41.852 125.572L41.8733 125.508ZM109.096 81.5166L110.546 79.9607L108.99 78.5114L107.54 80.0673L109.096 81.5166ZM98.2265 88.6779L99.5692 90.3404L101.231 88.9763L99.8887 87.3352L98.2265 88.6779ZM93.1325 92.4718L94.3686 94.2195L96.1164 92.9833L94.8801 91.2356L93.1325 92.4718ZM103.043 84.5431L104.514 86.099L106.07 84.6284L104.599 83.0725L103.043 84.5431ZM82.22 98.9724L83.2216 100.848L85.1186 99.8675L84.1169 97.9707L82.22 98.9724ZM70.5402 103.96L71.2861 105.963L73.2894 105.217L72.5649 103.214L70.5402 103.96ZM87.7828 95.9033L88.8911 97.7149L90.7241 96.6066L89.6157 94.795L87.7828 95.9033ZM76.4651 101.658L77.3391 103.597L79.2787 102.745L78.4261 100.784L76.4651 101.658ZM64.5083 105.793L65.0411 107.924L67.1725 107.413L66.661 105.281L64.5083 105.793Z" fill="#1F1F1F"/>
</svg>
