<svg width="15" height="18" viewBox="0 0 15 18" fill="none" xmlns="http://www.w3.org/2000/svg">
<g clip-path="url(#clip0_486_24595)">
<path d="M8.57142 1.125V1.8C11.0156 2.32137 12.8571 4.59141 12.8571 7.3125V7.97344C12.8571 9.6293 13.4364 11.2219 14.481 12.4594L14.7288 12.7512C15.01 13.0852 15.0803 13.5563 14.9062 13.9605C14.7321 14.3648 14.3504 14.625 13.9286 14.625H1.07142C0.649546 14.625 0.266878 14.3648 0.0940433 13.9605C-0.0787915 13.5563 -0.00966093 13.0852 0.270662 12.7512L0.518965 12.4594C1.56495 11.2219 2.14285 9.6293 2.14285 7.97344V7.3125C2.14285 4.59141 3.95423 2.32137 6.42856 1.8V1.125C6.42856 0.503789 6.90736 0 7.49999 0C8.09263 0 8.57142 0.503789 8.57142 1.125ZM7.49999 18C6.9308 18 6.38504 17.7645 5.98325 17.3426C5.58146 16.9207 5.35713 16.316 5.35713 15.75H9.64285C9.64285 16.316 9.41852 16.9207 9.01673 17.3426C8.61495 17.7645 8.03905 18 7.49999 18Z" fill="#61C8AF"/>
</g>
<defs>
<clipPath id="clip0_486_24595">
<rect width="15" height="18" fill="white"/>
</clipPath>
</defs>
</svg>
