<svg width="18" height="18" viewBox="0 0 18 18" fill="none" xmlns="http://www.w3.org/2000/svg">
<path d="M10.1625 15.1199C9.96751 15.2024 9.75751 15.2774 9.53251 15.3524L8.34751 15.7424C5.37001 16.7024 3.80251 15.8999 2.83501 12.9224L1.87501 9.95994C0.915012 6.98244 1.71001 5.40744 4.68751 4.44744L5.84251 4.06494C5.70001 4.42494 5.58001 4.83744 5.46751 5.30244L4.73251 8.44494C3.90751 11.9774 5.11501 13.9274 8.64751 14.7674L9.90751 15.0674C9.99001 15.0899 10.08 15.1049 10.1625 15.1199Z" fill="#F9F1DF"/>
<path fill-rule="evenodd" clip-rule="evenodd" d="M11.6486 2.11488L12.9011 2.40738C16.0436 3.14238 17.0036 4.69488 16.2686 7.82988L15.5336 10.9649C14.9036 13.6724 13.6586 14.7674 11.3186 14.5424C10.9436 14.5124 10.5386 14.4449 10.1036 14.3399L8.84357 14.0399C5.71607 13.2974 4.74857 11.7524 5.48357 8.61738L6.21857 5.47488C6.36857 4.83738 6.54857 4.28238 6.77357 3.82488C7.65107 2.00988 9.14357 1.52238 11.6486 2.11488ZM11.3513 6.74088C11.7082 6.47805 12.1952 6.37489 12.6741 6.50321C13.4864 6.72085 13.9792 7.51672 13.7741 8.28222C13.6951 8.57702 13.5718 8.83606 13.4168 9.06536C12.6669 10.192 11.1799 10.5875 10.4878 10.6198C10.3899 10.6254 10.2417 10.5857 10.1597 10.5319C9.57653 10.1579 8.48649 9.07189 8.40036 7.7212C8.38075 7.44512 8.4035 7.15914 8.48249 6.86433C8.68761 6.09883 9.51237 5.65602 10.3246 5.87366C10.8035 6.00198 11.1737 6.33484 11.3513 6.74088Z" fill="#F9F1DF"/>
</svg>
