<svg width="17" height="17" viewBox="0 0 17 17" fill="none" xmlns="http://www.w3.org/2000/svg">
<path d="M9.09375 11.6034H9.60833C10.1229 11.6034 10.5504 11.1443 10.5504 10.5901C10.5504 9.90134 10.305 9.76675 9.90125 9.62425L9.10167 9.34717V11.6034H9.09375Z" fill="#F9F1DF"/>
<path d="M8.47598 0.504408C4.10598 0.520241 0.567227 4.07482 0.583061 8.44482C0.598894 12.8148 4.15348 16.3536 8.52348 16.3377C12.8935 16.3219 16.4322 12.7673 16.4164 8.39732C16.4006 4.02732 12.846 0.496491 8.47598 0.504408ZM10.2889 8.50024C10.9064 8.71399 11.7376 9.17316 11.7376 10.5902C11.7376 11.8094 10.7797 12.7911 9.60806 12.7911H9.09348V13.2502C9.09348 13.5748 8.82431 13.844 8.49973 13.844C8.17514 13.844 7.90598 13.5748 7.90598 13.2502V12.7911H7.62098C6.32264 12.7911 5.26973 11.6986 5.26973 10.3527C5.26973 10.0282 5.53889 9.75899 5.86348 9.75899C6.18806 9.75899 6.45723 10.0282 6.45723 10.3527C6.45723 11.0415 6.97973 11.6036 7.62098 11.6036H7.90598V8.92774L6.71056 8.50024C6.09306 8.28649 5.26181 7.82732 5.26181 6.41024C5.26181 5.19107 6.21973 4.20941 7.39139 4.20941H7.90598V3.75024C7.90598 3.42566 8.17514 3.15649 8.49973 3.15649C8.82431 3.15649 9.09348 3.42566 9.09348 3.75024V4.20941H9.37848C10.6768 4.20941 11.7297 5.30191 11.7297 6.64774C11.7297 6.97232 11.4606 7.24149 11.136 7.24149C10.8114 7.24149 10.5422 6.97232 10.5422 6.64774C10.5422 5.95899 10.0197 5.39691 9.37848 5.39691H9.09348V8.07274L10.2889 8.50024Z" fill="#F9F1DF"/>
<path d="M6.45703 6.41822C6.45703 7.10697 6.70245 7.24156 7.1062 7.38406L7.90578 7.66114V5.39697H7.3912C6.87661 5.39697 6.45703 5.85614 6.45703 6.41822Z" fill="#F9F1DF"/>
</svg>
