<svg width="18" height="18" viewBox="0 0 18 18" fill="none" xmlns="http://www.w3.org/2000/svg">
<path d="M12.8249 1.5H9.67495C7.46252 1.5 6.37416 2.25121 6.08636 4.05369C5.99856 4.60363 6.46244 5.0625 7.01935 5.0625H8.32495C11.4749 5.0625 12.9374 6.525 12.9374 9.675V10.9806C12.9374 11.5375 13.3963 12.0014 13.9463 11.9136C15.7487 11.6258 16.4999 10.5374 16.4999 8.325V5.175C16.4999 2.55 15.4499 1.5 12.8249 1.5Z" fill="#F9F1DF"/>
<path fill-rule="evenodd" clip-rule="evenodd" d="M8.325 6H5.175C2.55 6 1.5 7.05 1.5 9.675V12.825C1.5 15.45 2.55 16.5 5.175 16.5H8.325C10.95 16.5 12 15.45 12 12.825V9.675C12 7.05 10.95 6 8.325 6ZM9 9.75C9.41421 9.75 9.75 9.41421 9.75 9C9.75 8.58579 9.41421 8.25 9 8.25C8.58579 8.25 8.25 8.58579 8.25 9C8.25 9.41421 8.58579 9.75 9 9.75ZM9.75 13.5C9.75 13.9142 9.41421 14.25 9 14.25C8.58579 14.25 8.25 13.9142 8.25 13.5C8.25 13.0858 8.58579 12.75 9 12.75C9.41421 12.75 9.75 13.0858 9.75 13.5ZM6.75 12C7.16421 12 7.5 11.6642 7.5 11.25C7.5 10.8358 7.16421 10.5 6.75 10.5C6.33579 10.5 6 10.8358 6 11.25C6 11.6642 6.33579 12 6.75 12ZM5.25 9C5.25 9.41421 4.91421 9.75 4.5 9.75C4.08579 9.75 3.75 9.41421 3.75 9C3.75 8.58579 4.08579 8.25 4.5 8.25C4.91421 8.25 5.25 8.58579 5.25 9ZM4.5 14.25C4.91421 14.25 5.25 13.9142 5.25 13.5C5.25 13.0858 4.91421 12.75 4.5 12.75C4.08579 12.75 3.75 13.0858 3.75 13.5C3.75 13.9142 4.08579 14.25 4.5 14.25Z" fill="#F9F1DF"/>
</svg>
