<svg width="15" height="13" viewBox="0 0 15 13" fill="none" xmlns="http://www.w3.org/2000/svg">
<g clip-path="url(#clip0_229_2215)">
<path d="M14.5833 11.3746H13.3333V2.88144C13.3333 2.18954 12.7734 1.6246 12.0833 1.6246L9.16667 1.62486V3.2496H11.6667V12.9996H14.5833C14.8145 12.9996 15 12.8187 15 12.6162V11.8266C15 11.5549 14.8151 11.3746 14.5833 11.3746ZM7.29948 0.0251721L2.29948 1.28836C1.90365 1.38365 1.66667 1.72007 1.66667 2.10398V11.3746H0.416667C0.185547 11.3746 0 11.5555 0 11.758V12.5477C0 12.8193 0.185547 12.9996 0.416667 12.9996H8.33333V0.840795C8.33333 0.294897 7.82552 -0.108129 7.29948 0.0251721ZM6.04167 7.3121C5.69661 7.3121 5.41667 6.94724 5.41667 6.52245C5.41667 6.07507 5.69661 5.73281 6.04167 5.73281C6.38672 5.73281 6.66667 6.05273 6.66667 6.4996C6.66667 6.94648 6.38802 7.3121 6.04167 7.3121Z" fill="#F9F1DF"/>
</g>
<defs>
<clipPath id="clip0_229_2215">
<rect width="15" height="13" fill="white"/>
</clipPath>
</defs>
</svg>
