<svg width="12" height="12" viewBox="0 0 12 12" fill="none" xmlns="http://www.w3.org/2000/svg">
<path d="M6.02543 2.23877C5.76059 2.23877 5.50043 2.26666 5.22855 2.31939V0.795957C5.50277 0.758223 5.76293 0.73877 6.02543 0.73877C7.38949 0.73877 8.63168 1.25885 9.56684 2.11174L10.2559 1.42221C10.4926 1.18596 10.8957 1.3533 10.8957 1.68729V4.1576C10.8957 4.36385 10.727 4.5326 10.5207 4.5326H8.05043C7.71762 4.5326 7.54887 4.12713 7.78559 3.89275L8.50512 3.17322C7.84418 2.59197 6.97699 2.23877 6.02543 2.23877ZM2.27637 5.98807C2.27637 6.25057 2.30285 6.50369 2.35277 6.74979H0.830977C0.794883 6.50135 0.776367 6.24822 0.776367 5.98807C0.776367 4.6451 1.28191 3.41697 2.11324 2.48885L1.42207 1.79721C1.18582 1.56096 1.35293 1.15713 1.66605 1.15713H4.15746C4.36371 1.15713 4.53246 1.32494 4.53246 1.53213V4.00057C4.53246 4.33572 4.12699 4.50213 3.89262 4.26775L3.17543 3.55057C2.61527 4.20682 2.27637 5.0576 2.27637 5.98807ZM4.26762 8.16072L3.58793 8.83807C4.24418 9.40057 5.09496 9.73807 6.02543 9.73807C6.27387 9.73807 6.51527 9.71463 6.74965 9.6701V11.1888C6.51293 11.2217 6.27152 11.2381 6.02543 11.2381C4.68246 11.2381 3.45434 10.7131 2.52621 9.90213L1.79707 10.631C1.56082 10.8678 1.15676 10.699 1.15676 10.3662V7.89588C1.15676 7.68963 1.3248 7.52088 1.53176 7.52088H4.00043C4.31449 7.52088 4.50199 7.924 4.26762 8.16072ZM8.16059 7.78572L8.84027 8.46541C9.42387 7.80682 9.77543 6.93963 9.77543 5.98807C9.77543 5.73494 9.75199 5.48885 9.70277 5.24979H11.2239C11.259 5.49119 11.2754 5.73729 11.2754 5.98807C11.2754 7.35213 10.7551 8.59432 9.90434 9.52947L10.6309 10.256C10.8676 10.4928 10.6989 10.8959 10.3661 10.8959H7.89574C7.68949 10.8959 7.52074 10.7271 7.52074 10.5209V8.05057C7.52074 7.71775 7.92387 7.549 8.16059 7.78572Z" fill="#F9F1DF"/>
</svg>
