<svg width="201" height="32" viewBox="0 0 201 32" fill="none" xmlns="http://www.w3.org/2000/svg">
<path fill-rule="evenodd" clip-rule="evenodd" d="M98.1492 24.4438L97.3923 21.0391L83.822 21.0391V24.4438H98.1492Z" fill="#F9F1DF"/>
<path fill-rule="evenodd" clip-rule="evenodd" d="M91.5059 19.9442H87.5475L95.6023 14.6855C96.0273 13.0768 96.0001 10.833 93.851 10.1166L89.5529 15.1311L86.9969 13.6576L88.1201 7.96752L83.822 5.87055C89.7849 4.70849 94.5119 6.68513 96.0831 8.42987C98.0269 10.59 98.476 13.2519 97.5802 16.0336L91.5084 19.9434L91.5059 19.9442Z" fill="#F9F1DF"/>
<path d="M85.2548 8.68408H88.1202V10.1168L85.2548 8.68408Z" fill="#F9F1DF"/>
<path d="M16.189 15.7008C17.659 14.9271 18.5874 13.5345 18.5874 11.7293C18.5874 8.9183 16.2664 7.03572 11.7533 7.03572H2.93354V25.0879H12.2691C17.0142 25.0879 19.49 23.2827 19.49 20.1622C19.49 17.8928 18.2005 16.3455 16.189 15.7008ZM11.2375 10.182C13.2749 10.182 14.3838 10.8783 14.3838 12.2966C14.3838 13.715 13.2749 14.4371 11.2375 14.4371H7.08554V10.182H11.2375ZM11.9596 21.9417H7.08554V17.4802H11.9596C14.1259 17.4802 15.2864 18.2023 15.2864 19.7238C15.2864 21.2711 14.1259 21.9417 11.9596 21.9417ZM31.3953 25.3974C37.0689 25.3974 41.2724 21.4517 41.2724 16.0618C41.2724 10.6719 37.0689 6.72625 31.3953 6.72625C25.696 6.72625 21.5182 10.6977 21.5182 16.0618C21.5182 21.4259 25.696 25.3974 31.3953 25.3974ZM31.3953 21.8385C28.1717 21.8385 25.7476 19.4917 25.7476 16.0618C25.7476 12.6319 28.1717 10.2851 31.3953 10.2851C34.6189 10.2851 37.0431 12.6319 37.0431 16.0618C37.0431 19.4917 34.6189 21.8385 31.3953 21.8385ZM57.6479 25.0879H62.032L53.9601 7.03572H49.8339L41.7878 25.0879H46.0688L47.6677 21.2196H56.049L57.6479 25.0879ZM49.0087 18.0475L51.8712 11.1361L54.7338 18.0475H49.0087ZM79.894 25.0879L75.8452 19.2854C78.192 18.2796 79.5588 16.2939 79.5588 13.5861C79.5588 9.53723 76.5415 7.03572 71.719 7.03572H63.9049V25.0879H68.0827V20.0591H71.719H71.9253L75.4068 25.0879H79.894ZM75.3294 13.5861C75.3294 15.546 74.04 16.7323 71.4869 16.7323H68.0827V10.4398H71.4869C74.04 10.4398 75.3294 11.6003 75.3294 13.5861ZM116.977 21.0648C115.92 21.6322 114.863 21.8385 113.728 21.8385C110.272 21.8385 107.874 19.4401 107.874 16.0618C107.874 12.6319 110.272 10.2851 113.78 10.2851C115.611 10.2851 117.132 10.9298 118.447 12.3224L121.129 9.8467C119.376 7.80938 116.745 6.72625 113.573 6.72625C107.822 6.72625 103.645 10.6204 103.645 16.0618C103.645 21.5032 107.822 25.3974 113.496 25.3974C116.075 25.3974 118.808 24.5979 120.794 23.1022V15.7781H116.977V21.0648ZM138.162 25.0879H142.547L134.475 7.03572H130.348L122.302 25.0879H126.583L128.182 21.2196H136.564L138.162 25.0879ZM129.523 18.0475L132.386 11.1361L135.248 18.0475H129.523ZM164.767 25.0879L164.715 7.03572H161.285L154.632 18.2539L147.875 7.03572H144.419V25.0879H148.339V14.4887L153.626 23.1795H155.509L160.821 14.2566L160.847 25.0879H164.767ZM173.202 21.7353V17.5576H181.583V14.3082H173.202V10.3883H182.692V7.03572H169.05V25.0879H183.027V21.7353H173.202ZM192.283 25.3974C197.441 25.3974 199.942 22.8185 199.942 19.8012C199.942 13.1735 189.446 15.4687 189.446 12.1419C189.446 11.0072 190.4 10.0788 192.876 10.0788C194.475 10.0788 196.203 10.543 197.879 11.4972L199.169 8.32516C197.492 7.26782 195.171 6.72625 192.902 6.72625C187.77 6.72625 185.294 9.27935 185.294 12.3482C185.294 19.0533 195.79 16.7323 195.79 20.1106C195.79 21.2196 194.784 22.0448 192.309 22.0448C190.142 22.0448 187.873 21.2711 186.351 20.1622L184.933 23.3085C186.532 24.5463 189.42 25.3974 192.283 25.3974Z" fill="#F9F1DF"/>
</svg>
