<svg width="47" height="46" viewBox="0 0 47 46" fill="none" xmlns="http://www.w3.org/2000/svg">
<path d="M12.6184 41.9677C10.0458 41.9677 7.95605 39.876 7.95605 37.3068V36.9629C7.95605 34.5704 9.77797 32.5886 12.1068 32.3355C12.1068 32.3355 13.2544 14.5609 13.2544 14.5514C13.154 14.3938 13.0679 14.2267 12.9962 14.0547L10.237 10.1006L10.194 9.96212C10.1414 9.80452 10.1031 9.65648 10.0792 9.51322C10.0171 9.31742 9.98359 9.11207 9.98359 8.90195V4.84275C9.98359 3.71573 10.9017 2.79883 12.0303 2.79883H16.5348C17.6634 2.79883 18.5815 3.71573 18.5815 4.84275V5.9077H18.9258V4.84275C18.9258 3.71573 19.844 2.79883 20.9725 2.79883H24.9367C26.0652 2.79883 26.9834 3.71573 26.9834 4.84275V5.9077H27.3277V4.84275C27.3277 3.71573 28.2458 2.79883 29.3743 2.79883H33.8789C35.0075 2.79883 35.9256 3.71573 35.9256 4.84275V8.90195C35.9256 9.11207 35.8969 9.31742 35.8347 9.50844C35.8061 9.68036 35.763 9.83795 35.7056 9.99077L35.6626 10.1102L32.9082 14.0547C32.8365 14.2267 32.7552 14.389 32.6548 14.5418C32.6548 14.5514 33.8024 32.3307 33.8024 32.3307C36.136 32.5838 37.9579 34.5656 37.9579 36.9582V37.302C37.9579 39.8712 35.8634 41.9629 33.2907 41.9629H12.6089L12.6184 41.9677Z" fill="black"/>
<path d="M33.8841 3.75396C34.4818 3.75396 34.9743 4.24106 34.9743 4.84278V8.90198C34.9743 9.03569 34.9504 9.16463 34.9074 9.27924C34.8883 9.40818 34.8596 9.53712 34.8117 9.67084L32.0669 13.6059C31.9761 13.859 31.8422 14.0882 31.67 14.284C31.6891 14.3986 31.7035 14.518 31.7131 14.6422L32.899 33.0327C32.9037 33.1091 32.9085 33.1855 32.9085 33.2619H33.3007C35.3425 33.2619 37.0114 34.9286 37.0114 36.963V37.3068C37.0114 39.346 35.3425 41.0126 33.3007 41.0126H12.6188C10.5769 41.0126 8.91278 39.346 8.91278 37.3068V36.963C8.91278 34.9286 10.5769 33.2619 12.6188 33.2619H13.0109C13.0109 33.1855 13.0109 33.1091 13.0205 33.0327L14.2064 14.6422C14.2159 14.518 14.2303 14.3986 14.2494 14.284C14.0773 14.0882 13.9386 13.859 13.8525 13.6059L11.1077 9.67084C11.0646 9.53712 11.0312 9.40818 11.012 9.27924C10.969 9.16463 10.9451 9.03569 10.9451 8.90198V4.84278C10.9451 4.24106 11.4376 3.75396 12.0354 3.75396H16.54C17.1377 3.75396 17.6302 4.24106 17.6302 4.84278V6.86283H19.8873V4.84278C19.8873 4.24106 20.3799 3.75396 20.9776 3.75396H24.9418C25.5396 3.75396 26.0321 4.24106 26.0321 4.84278V6.86283H28.2892V4.84278C28.2892 4.24106 28.7817 3.75396 29.3795 3.75396H33.8841M33.8841 1.84375H29.3795C28.4996 1.84375 27.7106 2.22102 27.1606 2.82273C26.6107 2.22102 25.8217 1.84375 24.9418 1.84375H20.9776C20.0977 1.84375 19.3087 2.22102 18.7588 2.82273C18.2089 2.22102 17.4198 1.84375 16.54 1.84375H12.0354C10.3808 1.84375 9.03232 3.19045 9.03232 4.84278V8.90198C9.03232 9.18851 9.07058 9.47026 9.15187 9.74247C9.18535 9.90961 9.22838 10.0768 9.28577 10.2582L9.37184 10.5304L9.53442 10.7644L12.1549 14.518C12.1932 14.6087 12.2362 14.6947 12.2792 14.7807L11.1985 31.538C8.78366 32.1683 7 34.3651 7 36.9677V37.3116C7 40.4061 9.52008 42.9276 12.6188 42.9276H33.3007C36.3994 42.9276 38.9242 40.4061 38.9242 37.3116V36.9677C38.9242 34.3603 37.1358 32.1683 34.7209 31.538L33.6402 14.7759C33.6832 14.6947 33.7215 14.6087 33.7597 14.5275L36.385 10.7692L36.5332 10.5591L36.6193 10.3203C36.6863 10.1341 36.7389 9.94304 36.7771 9.74247C36.8536 9.47504 36.8967 9.19328 36.8967 8.91153V4.84278C36.8967 3.19045 35.5482 1.84375 33.8936 1.84375H33.8841Z" fill="white"/>
<path opacity="0.2" d="M18.3096 32.7275H27.6152" stroke="white" stroke-width="2" stroke-miterlimit="10" stroke-linecap="round"/>
<path opacity="0.2" d="M31.3738 8.40039L27.6152 13.4433L28.5238 28.4815" stroke="white" stroke-width="2" stroke-miterlimit="10" stroke-linecap="round"/>
</svg>
