<svg width="47" height="46" viewBox="0 0 47 46" fill="none" xmlns="http://www.w3.org/2000/svg">
<path d="M12.6613 44.0139C10.0886 44.0139 7.99888 41.9223 7.99888 39.353V39.0092C7.99888 37.6147 8.63965 36.3062 9.67733 35.4371C9.18958 35.0264 8.71138 34.5871 8.24754 34.1286C5.1871 31.0723 3.15956 27.3283 2.54269 23.5938C1.90669 19.74 2.8296 16.3445 5.14884 14.0332C6.98033 12.2042 9.49562 11.2395 12.4222 11.2395C14.2776 11.2395 16.2621 11.6454 18.1987 12.4143C18.7343 11.6884 19.4277 11.0915 20.2311 10.6712V10.1077H18.8826C17.754 10.1077 16.8359 9.19081 16.8359 8.06378V6.56427C16.8359 5.43725 17.754 4.52035 18.8826 4.52035H20.2311V3.77537C20.2311 2.64835 21.1492 1.73145 22.2777 1.73145H23.7841C24.9126 1.73145 25.8307 2.64835 25.8307 3.77537V4.52035H27.1792C28.3078 4.52035 29.2259 5.43725 29.2259 6.56427V8.06378C29.2259 9.19081 28.3078 10.1077 27.1792 10.1077H25.8307V10.6712C26.6628 11.1058 27.3801 11.7314 27.9252 12.4955C29.9288 11.6741 31.9851 11.2395 33.9074 11.2395C36.834 11.2395 39.3493 12.2042 41.1807 14.0332C45.8718 18.718 44.4803 27.7342 38.0773 34.1286C37.5656 34.6396 37.03 35.1267 36.4801 35.5804C37.4317 36.4495 38.0008 37.6911 38.0008 39.014V39.3578C38.0008 41.927 35.911 44.0187 33.3384 44.0187H12.6517L12.6613 44.0139Z" fill="white"/>
<path d="M23.789 2.68169C24.3868 2.68169 24.8793 3.1688 24.8793 3.77051V5.4706H27.1842C27.7867 5.4706 28.2745 5.9577 28.2745 6.55942V8.05894C28.2745 8.65588 27.7867 9.14776 27.1842 9.14776H24.8793V11.2776C26.0366 11.7265 26.9882 12.5957 27.5476 13.6988C29.69 12.7055 31.8753 12.1898 33.9124 12.1898C36.4803 12.1898 38.8091 13.0064 40.5115 14.7065C44.8344 19.0235 43.4476 27.4189 37.408 33.4504C36.5951 34.2622 35.7391 34.9929 34.8544 35.6328C36.1456 36.2107 37.0541 37.5096 37.0541 39.0091V39.353C37.0541 41.3921 35.3852 43.0588 33.3481 43.0588H12.6615C10.6244 43.0588 8.95548 41.3921 8.95548 39.353V39.0091C8.95548 37.4284 9.95968 36.0722 11.3608 35.5421C10.5192 34.926 9.70146 34.224 8.92678 33.4504C2.8872 27.4189 1.50044 19.0235 5.82809 14.7065C7.53046 13.0064 9.85926 12.1898 12.4272 12.1898C14.3973 12.1898 16.5062 12.6721 18.5767 13.6033C19.1362 12.5479 20.0639 11.717 21.1925 11.2776V9.14776H18.8876C18.285 9.14776 17.7973 8.65588 17.7973 8.05894V6.55942C17.7973 5.9577 18.285 5.4706 18.8876 5.4706H21.1925V3.77051C21.1925 3.1688 21.685 2.68169 22.2827 2.68169H23.789ZM23.789 0.771484H22.2827C20.6999 0.771484 19.3944 2.00357 19.2892 3.56039H18.8876C17.233 3.56039 15.8845 4.90709 15.8845 6.55942V8.05894C15.8845 9.4725 16.8696 10.6616 18.1894 10.9768C18.089 11.0723 17.9933 11.1726 17.8977 11.2729C16.0567 10.6186 14.1917 10.2796 12.4224 10.2796C9.23283 10.2796 6.48321 11.3445 4.47002 13.355C1.93081 15.8908 0.907477 19.5823 1.59608 23.7465C2.24642 27.6768 4.36482 31.6023 7.56871 34.8019C7.80303 35.0359 8.04691 35.2699 8.29079 35.4896C7.50177 36.4685 7.03792 37.7054 7.03792 39.0091V39.353C7.03792 42.4475 9.558 44.969 12.6567 44.969H33.3434C36.442 44.969 38.9621 42.4475 38.9621 39.353V39.0091C38.9621 37.7818 38.5557 36.6118 37.8479 35.6615C38.1588 35.3845 38.46 35.098 38.7565 34.8019C41.9556 31.6071 44.0788 27.6816 44.7291 23.7465C45.4177 19.5823 44.3992 15.8908 41.86 13.355C39.8468 11.3445 37.0972 10.2796 33.9076 10.2796C32.0761 10.2796 30.1395 10.6473 28.2315 11.3445C28.1167 11.2156 27.9972 11.0914 27.8776 10.9768C29.1974 10.6616 30.1825 9.4725 30.1825 8.05894V6.55942C30.1825 4.90709 28.834 3.56039 27.1794 3.56039H26.7778C26.6678 2.00357 25.3671 0.771484 23.7843 0.771484H23.789Z" fill="#40392E"/>
<path opacity="0.2" d="M29.9961 17.4713C32.9609 15.8524 36.1361 16.0482 37.7141 17.7148C39.5552 19.6585 38.5605 22.9154 38.135 24.3003C36.7482 28.8322 32.7792 31.0958 31.445 31.7787" stroke="black" stroke-width="2" stroke-miterlimit="10" stroke-linecap="round"/>
<path opacity="0.2" d="M18.5146 35.5322H27.8203" stroke="black" stroke-width="2" stroke-miterlimit="10" stroke-linecap="round"/>
</svg>
