<svg width="48" height="46" viewBox="0 0 48 46" fill="none" xmlns="http://www.w3.org/2000/svg">
<path d="M14.0291 41.651C11.4564 41.651 9.36671 39.5641 9.36671 36.9948V36.6367C9.37627 34.0722 11.4708 31.9901 14.0291 31.9901H14.8325C15.8558 30.3234 17.1087 28.7236 18.7441 26.9853C23.3826 22.0618 25.6444 18.4419 26.027 17.3817C25.9266 17.4056 25.7974 17.4581 25.6588 17.5489L16.4774 24.1582L16.4201 24.1869C15.7028 24.5737 14.8277 24.7838 13.9478 24.7838C12.4128 24.7838 11.0978 24.1821 10.3374 23.1267L10.237 22.9882C8.9411 21.3072 8.84068 18.8287 10.0123 16.9806L15.5067 9.01501C16.291 7.50117 16.2862 7.49162 15.7554 6.61292C15.5211 6.2261 15.2007 5.69125 14.8372 4.94149C14.6364 4.52124 14.6699 4.03415 14.9233 3.63778C15.2055 3.19365 15.7267 2.90234 16.2527 2.90234H23.7938C24.2098 2.90234 24.5637 2.90235 24.8554 2.93578V2.90712H25.0467C31.5597 2.90712 38.5891 8.9195 38.5891 18.6377C38.5891 23.0121 38.0296 27.6873 36.9202 32.5488C38.3931 33.3511 39.3686 34.9222 39.3734 36.6319V36.9948C39.3734 39.5641 37.2837 41.651 34.711 41.651H14.0243H14.0291Z" fill="white"/>
<path d="M16.2578 3.85748C18.1706 3.85748 24.8749 3.85748 24.8749 3.86226C24.9323 3.86226 24.9944 3.86226 25.0518 3.86226C31.101 3.86226 37.6379 9.45438 37.6379 18.6377C37.6379 23.8765 36.8154 28.9099 35.8112 33.1076C37.3127 33.5756 38.4173 34.9796 38.4221 36.6319V36.9901C38.4221 39.0245 36.7532 40.6911 34.7161 40.6911H14.0294C11.9923 40.6911 10.3234 39.0245 10.3234 36.9901V36.6319C10.333 34.5975 11.9971 32.9404 14.0294 32.9404H15.3779C16.4921 31.0302 17.855 29.3206 19.4426 27.6348C24.3584 22.4152 27.2754 17.888 27.0268 17.0857C26.8833 16.6177 26.5438 16.4076 26.1325 16.4076C25.8217 16.4076 25.4726 16.5269 25.1379 16.7466L15.9709 23.3464C15.3827 23.6616 14.6654 23.8287 13.9529 23.8287C12.8483 23.8287 11.7437 23.4324 11.1173 22.568L11.012 22.4247C9.85482 20.9252 9.94089 18.8861 10.8255 17.4916L16.3343 9.50692C17.745 6.78487 17.0708 7.35793 15.7031 4.52605C15.5501 4.20609 15.904 3.85748 16.2578 3.85748ZM16.2578 1.94727C15.3971 1.94727 14.5746 2.40094 14.1155 3.12682C13.6851 3.80495 13.6325 4.63589 13.9768 5.35222C14.3594 6.14973 14.6941 6.70368 14.938 7.10483C15.0145 7.23377 15.1102 7.38659 15.1675 7.49642C15.1102 7.65879 14.9763 7.96442 14.6846 8.52316L9.24273 16.4076L9.22359 16.4362L9.20448 16.4696C7.82728 18.6425 7.93725 21.5604 9.47704 23.5708L9.56789 23.6998C10.5004 24.9939 12.1023 25.7437 13.9434 25.7437C14.9954 25.7437 16.0044 25.5002 16.8699 25.0322L16.9799 24.9749L17.0803 24.9032L22.6895 20.8631C21.5371 22.3913 19.9877 24.2633 18.0367 26.3311C16.5065 27.9596 15.2967 29.4734 14.2925 31.035H14.0151C10.9308 31.035 8.41067 33.5421 8.39633 36.6271V36.9948C8.39633 40.0894 10.9164 42.6061 14.0151 42.6061H34.7018C37.8004 42.6061 40.3205 40.0894 40.3205 36.9948V36.6367C40.3158 34.7933 39.4263 33.1267 37.9917 32.0952C39.0151 27.4056 39.5363 22.8879 39.5363 18.6425C39.5363 8.33692 32.0095 1.95681 25.0375 1.95681C24.9657 1.95681 24.894 1.95681 24.8271 1.95681C24.7458 1.95681 24.6597 1.95681 24.5736 1.95681H16.2435L16.2578 1.94727Z" fill="#40392E"/>
<path opacity="0.2" d="M20.7002 32.6201H30.0059" stroke="black" stroke-width="2" stroke-miterlimit="10" stroke-linecap="round"/>
<path opacity="0.2" d="M27.0215 6.91406C29.0777 7.88827 30.4262 9.10126 31.2965 10.085C37.0588 16.6179 33.6684 26.7182 33.3719 27.5634" stroke="black" stroke-width="2" stroke-miterlimit="10" stroke-linecap="round"/>
</svg>
