<svg width="48" height="47" viewBox="0 0 48 47" fill="none" xmlns="http://www.w3.org/2000/svg">
<path d="M13.3876 45.5529C10.8149 45.5529 8.7204 43.466 8.7204 40.8968V40.5529C8.7204 38.4565 10.1119 36.68 12.0199 36.0974L6.0712 22.3486C5.91818 22.363 5.76516 22.3725 5.61214 22.3725C3.23551 22.3725 1.29883 20.4384 1.29883 18.0602C1.29883 15.682 3.23551 13.7527 5.61214 13.7527C7.98876 13.7527 9.92544 15.6868 9.92544 18.0602C9.92544 18.767 9.75329 19.4499 9.43769 20.0564L13.225 23.2751L13.5406 15.6629C11.6948 15.171 10.3558 13.4996 10.3558 11.5082C10.3558 9.13 12.2925 7.19591 14.6691 7.19591C17.0457 7.19591 18.9872 9.13 18.9872 11.5082C18.9872 12.6734 18.5281 13.7575 17.72 14.555L19.5228 17.4108L21.6508 9.99914C20.2975 9.25416 19.4128 7.81673 19.4128 6.22648C19.4128 3.85304 21.3495 1.91895 23.7261 1.91895C26.1027 1.91895 28.0442 3.85304 28.0442 6.22648C28.0442 7.81673 27.1595 9.25416 25.8015 9.99914L27.9342 17.4108L29.737 14.555C28.9336 13.7622 28.4698 12.6734 28.4698 11.5082C28.4698 9.13 30.4065 7.19591 32.7879 7.19591C35.1693 7.19591 37.1012 9.13 37.1012 11.5082C37.1012 13.4996 35.7622 15.1758 33.9164 15.6629L34.232 23.2703L38.0193 20.0468C37.6989 19.4356 37.5316 18.7527 37.5316 18.0507C37.5316 15.6772 39.4683 13.7432 41.8449 13.7432C44.2215 13.7432 46.1582 15.6772 46.1582 18.0507C46.1582 20.4241 44.2215 22.363 41.8449 22.363C41.6919 22.363 41.5388 22.3534 41.3858 22.3391L35.4371 36.0878C37.3451 36.6752 38.7318 38.4517 38.7318 40.5434V40.8872C38.7318 43.4565 36.6421 45.5434 34.0694 45.5434H13.3876V45.5529Z" fill="white"/>
<path d="M23.7266 2.87896C25.5819 2.87896 27.0883 4.37847 27.0883 6.23137C27.0883 7.76432 26.0554 9.05372 24.6495 9.45009L27.6047 19.7318L30.9999 14.345C30.0531 13.7576 29.4266 12.707 29.4266 11.5131C29.4266 9.6602 30.9329 8.15591 32.7883 8.15591C34.6437 8.15591 36.1452 9.6602 36.1452 11.5131C36.1452 13.366 34.7202 14.7891 32.927 14.856L33.3622 25.2762L39.287 20.2332C38.7897 19.6506 38.4884 18.8913 38.4884 18.0604C38.4884 16.2122 39.9899 14.7079 41.8453 14.7079C43.7007 14.7079 45.2022 16.2122 45.2022 18.0604C45.2022 19.9085 43.7007 21.4176 41.8453 21.4176C41.4867 21.4176 41.1424 21.3602 40.8172 21.2552L34.0699 36.8473C36.1118 36.8473 37.7759 38.5139 37.7759 40.5531V40.8969C37.7759 42.9361 36.1118 44.5979 34.0699 44.5979H13.388C11.3461 44.5979 9.67722 42.9361 9.67722 40.8969V40.5531C9.67722 38.5139 11.3461 36.8473 13.388 36.8473L6.64069 21.2552C6.31551 21.3602 5.97121 21.4176 5.61257 21.4176C3.75718 21.4176 2.25565 19.9133 2.25565 18.0604C2.25565 16.2075 3.75718 14.7079 5.61257 14.7079C7.46796 14.7079 8.96949 16.2122 8.96949 18.0604C8.96949 18.8913 8.67301 19.6506 8.16612 20.2332L14.0957 25.2762L14.5309 14.856C12.7377 14.7891 11.3126 13.3183 11.3126 11.5131C11.3126 9.70796 12.8142 8.15591 14.6696 8.15591C16.525 8.15591 18.0313 9.6602 18.0313 11.5131C18.0313 12.707 17.4048 13.7576 16.458 14.345L19.8532 19.7318L22.8036 9.45009C21.4025 9.05372 20.3696 7.76432 20.3696 6.23137C20.3696 4.37847 21.8759 2.87896 23.7266 2.87896ZM23.7266 0.96875C20.8191 0.96875 18.4569 3.32785 18.4569 6.23137C18.4569 7.00501 18.629 7.75477 18.9398 8.42812C17.9787 7.1053 16.4245 6.2457 14.6696 6.2457C11.7621 6.2457 9.39986 8.60959 9.39986 11.5131C9.39986 13.6764 10.6862 15.5293 12.5559 16.3364L12.3503 21.2838L10.5953 19.7891C10.7866 19.2399 10.887 18.6573 10.887 18.0604C10.887 15.1568 8.52477 12.7977 5.61735 12.7977C2.70993 12.7977 0.347656 15.1568 0.347656 18.0604C0.347656 20.9639 2.62386 23.2418 5.45955 23.3278L10.7675 35.5913C8.98862 36.5369 7.77401 38.4041 7.77401 40.5531V40.8969C7.77401 43.9915 10.2989 46.5082 13.3976 46.5082H34.0794C37.1781 46.5082 39.6982 43.9915 39.6982 40.8969V40.5531C39.6982 38.4041 38.4836 36.5321 36.7095 35.5913L42.0175 23.3278C44.8484 23.2418 47.1293 20.9161 47.1293 18.0604C47.1293 15.2046 44.7671 12.7977 41.8597 12.7977C38.9522 12.7977 36.59 15.1568 36.59 18.0604C36.59 18.6525 36.6904 19.2351 36.8817 19.7843L35.1267 21.2791L34.9211 16.3364C36.786 15.5293 38.0771 13.6764 38.0771 11.5131C38.0771 8.60959 35.7149 6.2457 32.8074 6.2457C31.0525 6.2457 29.4936 7.1053 28.5324 8.42812C28.8432 7.75477 29.0202 7.00501 29.0202 6.23137C29.0202 3.32785 26.6531 0.96875 23.7457 0.96875H23.7266ZM26.9161 10.4147C27.3321 10.0996 27.6956 9.72706 27.9968 9.30681C27.686 9.97539 27.5138 10.7252 27.5138 11.5083C27.5138 12.664 27.8821 13.7528 28.5467 14.6458L28.2598 15.0995L26.9113 10.4147H26.9161ZM18.9064 14.6458C19.571 13.7576 19.9393 12.664 19.9393 11.5083C19.9393 10.7252 19.7671 9.98016 19.4563 9.30681C19.7575 9.72229 20.121 10.0948 20.5322 10.41L19.1885 15.0947L18.9064 14.6458Z" fill="#40392E"/>
<path opacity="0.2" d="M19.418 37.2295H28.7284" stroke="black" stroke-width="2" stroke-miterlimit="10" stroke-linecap="round"/>
<path opacity="0.2" d="M35.2705 27.3965L31.751 35.5244" stroke="black" stroke-width="2" stroke-miterlimit="10" stroke-linecap="round"/>
</svg>
