<svg width="47" height="46" viewBox="0 0 47 46" fill="none" xmlns="http://www.w3.org/2000/svg">
<path d="M12.7122 42.3232C10.1395 42.3232 8.0498 40.2315 8.0498 37.6623V37.3184C8.0498 34.9259 9.87172 32.944 12.2005 32.6909C12.2005 32.6909 13.3482 14.9164 13.3482 14.9069C13.2478 14.7493 13.1617 14.5821 13.09 14.4102L10.3308 10.4561L10.2877 10.3176C10.2351 10.16 10.1969 10.012 10.173 9.86869C10.1108 9.67289 10.0773 9.46754 10.0773 9.25742V5.19822C10.0773 4.0712 10.9955 3.1543 12.124 3.1543H16.6286C17.7571 3.1543 18.6753 4.0712 18.6753 5.19822V6.26317H19.0196V5.19822C19.0196 4.0712 19.9377 3.1543 21.0662 3.1543H25.0305C26.159 3.1543 27.0771 4.0712 27.0771 5.19822V6.26317H27.4214V5.19822C27.4214 4.0712 28.3396 3.1543 29.4681 3.1543H33.9727C35.1012 3.1543 36.0194 4.0712 36.0194 5.19822V9.25742C36.0194 9.46277 35.9859 9.67288 35.9285 9.86391C35.8998 10.0358 35.8568 10.1934 35.8042 10.3462L35.7611 10.4656L33.0067 14.4102C32.935 14.5821 32.8537 14.7445 32.7533 14.8973C32.7533 14.9069 33.901 32.6861 33.901 32.6861C36.2345 32.9393 38.0565 34.9211 38.0565 37.3136V37.6575C38.0565 40.2267 35.962 42.3184 33.3893 42.3184H12.7074L12.7122 42.3232Z" fill="white"/>
<path d="M33.9778 4.10943C34.5755 4.10943 35.0681 4.59653 35.0681 5.19825V9.25745C35.0681 9.39116 35.0442 9.5201 35.0011 9.63472C34.982 9.76366 34.9533 9.89258 34.9055 10.0263L32.1607 13.9613C32.0698 14.2144 31.9359 14.4437 31.7638 14.6395C31.7829 14.7541 31.7972 14.8735 31.8068 14.9976L32.9927 33.3882C32.9975 33.4646 33.0023 33.541 33.0023 33.6174H33.3944C35.4363 33.6174 37.1052 35.2841 37.1052 37.3184V37.6623C37.1052 39.7014 35.4363 41.3681 33.3944 41.3681H12.7125C10.6706 41.3681 9.00653 39.7014 9.00653 37.6623V37.3184C9.00653 35.2841 10.6706 33.6174 12.7125 33.6174H13.1046C13.1046 33.541 13.1046 33.4646 13.1142 33.3882L14.3001 14.9976C14.3097 14.8735 14.324 14.7541 14.3432 14.6395C14.171 14.4437 14.0323 14.2144 13.9463 13.9613L11.2014 10.0263C11.1584 9.89258 11.1249 9.76366 11.1058 9.63472C11.0628 9.5201 11.0388 9.39116 11.0388 9.25745V5.19825C11.0388 4.59653 11.5314 4.10943 12.1291 4.10943H16.6337C17.2314 4.10943 17.724 4.59653 17.724 5.19825V7.2183H19.9811V5.19825C19.9811 4.59653 20.4736 4.10943 21.0713 4.10943H25.0356C25.6333 4.10943 26.1259 4.59653 26.1259 5.19825V7.2183H28.3829V5.19825C28.3829 4.59653 28.8755 4.10943 29.4732 4.10943H33.9778ZM33.9778 2.19922H29.4732C28.5933 2.19922 27.8043 2.57648 27.2544 3.1782C26.7045 2.57648 25.9155 2.19922 25.0356 2.19922H21.0713C20.1915 2.19922 19.4025 2.57648 18.8525 3.1782C18.3026 2.57648 17.5136 2.19922 16.6337 2.19922H12.1291C10.4746 2.19922 9.12607 3.54592 9.12607 5.19825V9.25745C9.12607 9.54398 9.16433 9.82574 9.24562 10.0979C9.2791 10.2651 9.32213 10.4322 9.37952 10.6137L9.46559 10.8859L9.62817 11.1199L12.2487 14.8735C12.2869 14.9642 12.33 15.0502 12.373 15.1361L11.2923 31.8934C8.87741 32.5238 7.09375 34.7205 7.09375 37.3232V37.667C7.09375 40.7616 9.61383 43.2831 12.7125 43.2831H33.3944C36.4931 43.2831 39.018 40.7616 39.018 37.667V37.3232C39.018 34.7158 37.2295 32.5238 34.8146 31.8934L33.7339 15.1313C33.777 15.0502 33.8152 14.9642 33.8535 14.883L36.4787 11.1247L36.627 10.9146L36.7131 10.6758C36.78 10.4895 36.8326 10.2985 36.8709 10.0979C36.9474 9.83051 36.9904 9.54875 36.9904 9.26699V5.20779C36.9904 3.55546 35.6419 2.20876 33.9874 2.20876L33.9778 2.19922Z" fill="#40392E"/>
<path opacity="0.2" d="M18.4033 33.083H27.709" stroke="black" stroke-width="2" stroke-miterlimit="10" stroke-linecap="round"/>
<path opacity="0.2" d="M31.4676 8.76074L27.709 13.7989L28.6175 28.8371" stroke="black" stroke-width="2" stroke-miterlimit="10" stroke-linecap="round"/>
</svg>
